<?xml version="1.0" encoding="UTF-8" standalone="no"?>
<!DOCTYPE svg PUBLIC "-//W3C//DTD SVG 1.1//EN"
 "http://www.w3.org/Graphics/SVG/1.1/DTD/svg11.dtd">
<!-- Generated by graphviz version 2.40.1 (20161225.0304)
 -->
<!-- Title: G Pages: 1 -->
<svg width="1348pt" height="1917pt"
 viewBox="0.00 0.00 1348.00 1917.41" xmlns="http://www.w3.org/2000/svg" xmlns:xlink="http://www.w3.org/1999/xlink">
<g id="graph0" class="graph" transform="scale(1 1) rotate(0) translate(4 1913.4113)">
<title>G</title>
<polygon fill="#ffffff" stroke="transparent" points="-4,4 -4,-1913.4113 1344,-1913.4113 1344,4 -4,4"/>
<g id="clust1" class="cluster">
<title>cluster_0</title>
<polygon fill="none" stroke="#000000" points="8,-8 8,-1901.4113 1332,-1901.4113 1332,-8 8,-8"/>
<text text-anchor="middle" x="670" y="-1865.4113" font-family="Times,serif" font-size="40.00" fill="#000000">Tree 0, Class [&#39;Message: mes1 Origin: https://172.17.0.1:44300&#39;]</text>
</g>
<!-- SG_0_Node_0 -->
<g id="node1" class="node">
<title>SG_0_Node_0</title>
<polygon fill="none" stroke="#000000" points="294.5,-1841.4113 229.5,-1841.4113 229.5,-1805.4113 294.5,-1805.4113 294.5,-1841.4113"/>
<text text-anchor="middle" x="262" y="-1818.4113" font-family="Times,serif" font-size="20.00" fill="#000000">body</text>
</g>
<!-- SG_0_Node_23 -->
<g id="node2" class="node">
<title>SG_0_Node_23</title>
<ellipse fill="none" stroke="#000000" cx="197" cy="-1666.1981" rx="34.7971" ry="21.4286"/>
<text text-anchor="middle" x="197" y="-1661.1981" font-family="Times,serif" font-size="20.00" fill="#000000">0.0</text>
</g>
<!-- SG_0_Node_0&#45;&gt;SG_0_Node_23 -->
<g id="edge1" class="edge">
<title>SG_0_Node_0&#45;&gt;SG_0_Node_23</title>
<path fill="none" stroke="#000000" d="M240.2648,-1805.189C230.0207,-1795.37 218.6206,-1782.4101 212,-1768.4113 201.5523,-1746.3202 197.9768,-1718.7906 196.9177,-1697.8692"/>
<polygon fill="#000000" stroke="#000000" points="200.4063,-1697.4707 196.5702,-1687.5948 193.4103,-1697.7074 200.4063,-1697.4707"/>
<text text-anchor="middle" x="258" y="-1752.4113" font-family="Times,serif" font-size="20.00" fill="#000000">[NA]</text>
<text text-anchor="middle" x="258" y="-1730.4113" font-family="Times,serif" font-size="20.00" fill="#000000">11 levels</text>
</g>
<!-- SG_0_Node_1 -->
<g id="node3" class="node">
<title>SG_0_Node_1</title>
<polygon fill="none" stroke="#000000" points="404.5,-1684.1981 249.5,-1684.1981 249.5,-1648.1981 404.5,-1648.1981 404.5,-1684.1981"/>
<text text-anchor="middle" x="327" y="-1661.1981" font-family="Times,serif" font-size="20.00" fill="#000000">Content&#45;Type</text>
</g>
<!-- SG_0_Node_0&#45;&gt;SG_0_Node_1 -->
<g id="edge2" class="edge">
<title>SG_0_Node_0&#45;&gt;SG_0_Node_1</title>
<path fill="none" stroke="#000000" d="M278.9577,-1805.3898C287.6473,-1795.2365 297.6983,-1781.9106 304,-1768.4113 315.0577,-1744.724 320.9487,-1715.4182 323.9891,-1694.2679"/>
<polygon fill="#000000" stroke="#000000" points="327.4645,-1694.6834 325.2973,-1684.3127 320.5242,-1693.7714 327.4645,-1694.6834"/>
<text text-anchor="middle" x="497" y="-1741.4113" font-family="Times,serif" font-size="20.00" fill="#000000">ecocnt_html=post_message=mes1</text>
</g>
<!-- SG_0_Node_24 -->
<g id="node4" class="node">
<title>SG_0_Node_24</title>
<ellipse fill="none" stroke="#000000" cx="198" cy="-1395.7716" rx="34.7971" ry="21.4286"/>
<text text-anchor="middle" x="198" y="-1390.7716" font-family="Times,serif" font-size="20.00" fill="#000000">0.0</text>
</g>
<!-- SG_0_Node_1&#45;&gt;SG_0_Node_24 -->
<g id="edge3" class="edge">
<title>SG_0_Node_1&#45;&gt;SG_0_Node_24</title>
<path fill="none" stroke="#000000" d="M263.7751,-1648.088C243.98,-1639.2292 224.1538,-1626.3731 212,-1607.9848 175.5291,-1552.8057 183.2447,-1470.9376 191.1653,-1426.7516"/>
<polygon fill="#000000" stroke="#000000" points="194.6116,-1427.3636 193.0516,-1416.8843 187.7361,-1426.0492 194.6116,-1427.3636"/>
<text text-anchor="middle" x="323" y="-1591.9848" font-family="Times,serif" font-size="20.00" fill="#000000">[NA]</text>
<text text-anchor="middle" x="323" y="-1569.9848" font-family="Times,serif" font-size="20.00" fill="#000000">application/javascript</text>
<text text-anchor="middle" x="323" y="-1547.9848" font-family="Times,serif" font-size="20.00" fill="#000000">application/pdf</text>
<text text-anchor="middle" x="323" y="-1525.9848" font-family="Times,serif" font-size="20.00" fill="#000000">audio/wav</text>
<text text-anchor="middle" x="323" y="-1503.9848" font-family="Times,serif" font-size="20.00" fill="#000000">image/png</text>
<text text-anchor="middle" x="323" y="-1481.9848" font-family="Times,serif" font-size="20.00" fill="#000000">text/css</text>
<text text-anchor="middle" x="323" y="-1459.9848" font-family="Times,serif" font-size="20.00" fill="#000000">video/mp4</text>
</g>
<!-- SG_0_Node_2 -->
<g id="node5" class="node">
<title>SG_0_Node_2</title>
<polygon fill="none" stroke="#000000" points="566.5,-1413.7716 345.5,-1413.7716 345.5,-1377.7716 566.5,-1377.7716 566.5,-1413.7716"/>
<text text-anchor="middle" x="456" y="-1390.7716" font-family="Times,serif" font-size="20.00" fill="#000000">Content&#45;Disposition</text>
</g>
<!-- SG_0_Node_1&#45;&gt;SG_0_Node_2 -->
<g id="edge4" class="edge">
<title>SG_0_Node_1&#45;&gt;SG_0_Node_2</title>
<path fill="none" stroke="#000000" d="M383.0288,-1648.0947C402.2383,-1639.0732 421.919,-1626.1097 434,-1607.9848 471.5929,-1551.585 466.6831,-1467.3838 460.8252,-1423.9448"/>
<polygon fill="#000000" stroke="#000000" points="464.2545,-1423.2074 459.3407,-1413.821 457.3286,-1424.223 464.2545,-1423.2074"/>
<text text-anchor="middle" x="511" y="-1536.9848" font-family="Times,serif" font-size="20.00" fill="#000000">empty</text>
<text text-anchor="middle" x="511" y="-1514.9848" font-family="Times,serif" font-size="20.00" fill="#000000">text/html</text>
</g>
<!-- SG_0_Node_25 -->
<g id="node6" class="node">
<title>SG_0_Node_25</title>
<ellipse fill="none" stroke="#000000" cx="355" cy="-1235.3452" rx="34.7971" ry="21.4286"/>
<text text-anchor="middle" x="355" y="-1230.3452" font-family="Times,serif" font-size="20.00" fill="#000000">0.0</text>
</g>
<!-- SG_0_Node_2&#45;&gt;SG_0_Node_25 -->
<g id="edge5" class="edge">
<title>SG_0_Node_2&#45;&gt;SG_0_Node_25</title>
<path fill="none" stroke="#000000" d="M437.889,-1377.6599C427.478,-1366.6569 414.603,-1351.9881 405,-1337.5584 389.7881,-1314.7008 376.3557,-1286.5341 367.2545,-1265.5608"/>
<polygon fill="#000000" stroke="#000000" points="370.4021,-1264.0187 363.2664,-1256.1871 363.9608,-1266.7592 370.4021,-1264.0187"/>
<text text-anchor="middle" x="464" y="-1310.5584" font-family="Times,serif" font-size="20.00" fill="#000000">attachment</text>
</g>
<!-- SG_0_Node_3 -->
<g id="node7" class="node">
<title>SG_0_Node_3</title>
<polygon fill="none" stroke="#000000" points="706,-1253.3452 408,-1253.3452 408,-1217.3452 706,-1217.3452 706,-1253.3452"/>
<text text-anchor="middle" x="557" y="-1230.3452" font-family="Times,serif" font-size="20.00" fill="#000000">Cross&#45;Origin&#45;Opener&#45;Policy</text>
</g>
<!-- SG_0_Node_2&#45;&gt;SG_0_Node_3 -->
<g id="edge6" class="edge">
<title>SG_0_Node_2&#45;&gt;SG_0_Node_3</title>
<path fill="none" stroke="#000000" d="M482.9451,-1377.7276C496.6042,-1367.3799 512.4821,-1353.3255 523,-1337.5584 538.0726,-1314.9637 546.9862,-1285.1082 551.8779,-1263.5025"/>
<polygon fill="#000000" stroke="#000000" points="555.3216,-1264.1345 553.9656,-1253.6268 548.4729,-1262.6867 555.3216,-1264.1345"/>
<text text-anchor="middle" x="575" y="-1321.5584" font-family="Times,serif" font-size="20.00" fill="#000000">[NA]</text>
<text text-anchor="middle" x="575" y="-1299.5584" font-family="Times,serif" font-size="20.00" fill="#000000">empty</text>
</g>
<!-- SG_0_Node_26 -->
<g id="node8" class="node">
<title>SG_0_Node_26</title>
<ellipse fill="none" stroke="#000000" cx="478" cy="-1074.9188" rx="34.7971" ry="21.4286"/>
<text text-anchor="middle" x="478" y="-1069.9188" font-family="Times,serif" font-size="20.00" fill="#000000">0.0</text>
</g>
<!-- SG_0_Node_3&#45;&gt;SG_0_Node_26 -->
<g id="edge7" class="edge">
<title>SG_0_Node_3&#45;&gt;SG_0_Node_26</title>
<path fill="none" stroke="#000000" d="M528.6772,-1217.1063C515.3428,-1206.9807 500.5276,-1193.1863 492,-1177.132 480.4278,-1155.3458 477.2551,-1127.4159 476.7936,-1106.2592"/>
<polygon fill="#000000" stroke="#000000" points="480.2934,-1106.168 476.7644,-1096.1782 473.2935,-1106.1883 480.2934,-1106.168"/>
<text text-anchor="middle" x="553" y="-1150.132" font-family="Times,serif" font-size="20.00" fill="#000000">same&#45;origin</text>
</g>
<!-- SG_0_Node_4 -->
<g id="node9" class="node">
<title>SG_0_Node_4</title>
<polygon fill="none" stroke="#000000" points="707,-1092.9188 565,-1092.9188 565,-1056.9188 707,-1056.9188 707,-1092.9188"/>
<text text-anchor="middle" x="636" y="-1069.9188" font-family="Times,serif" font-size="20.00" fill="#000000">Status&#45;Code</text>
</g>
<!-- SG_0_Node_3&#45;&gt;SG_0_Node_4 -->
<g id="edge8" class="edge">
<title>SG_0_Node_3&#45;&gt;SG_0_Node_4</title>
<path fill="none" stroke="#000000" d="M580.2094,-1217.1953C592.0596,-1206.7197 605.6925,-1192.579 614,-1177.132 626.43,-1154.0198 631.837,-1124.4132 634.1891,-1103.0188"/>
<polygon fill="#000000" stroke="#000000" points="637.6843,-1103.2337 635.1388,-1092.9492 630.7152,-1102.5763 637.6843,-1103.2337"/>
<text text-anchor="middle" x="661" y="-1161.132" font-family="Times,serif" font-size="20.00" fill="#000000">[NA]</text>
<text text-anchor="middle" x="661" y="-1139.132" font-family="Times,serif" font-size="20.00" fill="#000000">empty</text>
</g>
<!-- SG_0_Node_5 -->
<g id="node10" class="node">
<title>SG_0_Node_5</title>
<polygon fill="none" stroke="#000000" points="595,-935.7056 453,-935.7056 453,-899.7056 595,-899.7056 595,-935.7056"/>
<text text-anchor="middle" x="524" y="-912.7056" font-family="Times,serif" font-size="20.00" fill="#000000">Status&#45;Code</text>
</g>
<!-- SG_0_Node_4&#45;&gt;SG_0_Node_5 -->
<g id="edge9" class="edge">
<title>SG_0_Node_4&#45;&gt;SG_0_Node_5</title>
<path fill="none" stroke="#000000" d="M623.1522,-1056.8845C603.5094,-1029.3122 565.8938,-976.5115 543.0631,-944.4643"/>
<polygon fill="#000000" stroke="#000000" points="545.6959,-942.1277 537.043,-936.0139 539.9947,-946.1893 545.6959,-942.1277"/>
<text text-anchor="middle" x="639" y="-989.7056" font-family="Times,serif" font-size="20.00" fill="#000000">13 levels</text>
</g>
<!-- SG_0_Node_6 -->
<g id="node11" class="node">
<title>SG_0_Node_6</title>
<polygon fill="none" stroke="#000000" points="880,-935.7056 618,-935.7056 618,-899.7056 880,-899.7056 880,-935.7056"/>
<text text-anchor="middle" x="749" y="-912.7056" font-family="Times,serif" font-size="20.00" fill="#000000">X&#45;Content&#45;Type&#45;Options</text>
</g>
<!-- SG_0_Node_4&#45;&gt;SG_0_Node_6 -->
<g id="edge10" class="edge">
<title>SG_0_Node_4&#45;&gt;SG_0_Node_6</title>
<path fill="none" stroke="#000000" d="M654.1498,-1056.8385C664.8635,-1045.7284 678.3647,-1030.9391 689,-1016.7056 706.3173,-993.5296 723.131,-965.1143 734.5317,-944.6802"/>
<polygon fill="#000000" stroke="#000000" points="737.6089,-946.3479 739.3714,-935.9007 731.4786,-942.9686 737.6089,-946.3479"/>
<text text-anchor="middle" x="764" y="-1000.7056" font-family="Times,serif" font-size="20.00" fill="#000000">[NA]</text>
<text text-anchor="middle" x="764" y="-978.7056" font-family="Times,serif" font-size="20.00" fill="#000000">50 levels</text>
</g>
<!-- SG_0_Node_27 -->
<g id="node12" class="node">
<title>SG_0_Node_27</title>
<ellipse fill="none" stroke="#000000" cx="419" cy="-650.4924" rx="34.7971" ry="21.4286"/>
<text text-anchor="middle" x="419" y="-645.4924" font-family="Times,serif" font-size="20.00" fill="#000000">0.0</text>
</g>
<!-- SG_0_Node_5&#45;&gt;SG_0_Node_27 -->
<g id="edge21" class="edge">
<title>SG_0_Node_5&#45;&gt;SG_0_Node_27</title>
<path fill="none" stroke="#000000" d="M506.9632,-899.5835C498.1618,-889.4007 487.8588,-876.0787 481,-862.7056 450.0767,-802.4127 432.3187,-724.3572 424.274,-681.7101"/>
<polygon fill="#000000" stroke="#000000" points="427.6785,-680.8698 422.4359,-671.6629 420.7927,-682.1295 427.6785,-680.8698"/>
<text text-anchor="middle" x="500.5" y="-846.7056" font-family="Times,serif" font-size="20.00" fill="#000000">100</text>
<text text-anchor="middle" x="500.5" y="-824.7056" font-family="Times,serif" font-size="20.00" fill="#000000">101</text>
<text text-anchor="middle" x="500.5" y="-802.7056" font-family="Times,serif" font-size="20.00" fill="#000000">102</text>
<text text-anchor="middle" x="500.5" y="-780.7056" font-family="Times,serif" font-size="20.00" fill="#000000">103</text>
<text text-anchor="middle" x="500.5" y="-758.7056" font-family="Times,serif" font-size="20.00" fill="#000000">204</text>
<text text-anchor="middle" x="500.5" y="-736.7056" font-family="Times,serif" font-size="20.00" fill="#000000">205</text>
<text text-anchor="middle" x="500.5" y="-714.7056" font-family="Times,serif" font-size="20.00" fill="#000000">304</text>
</g>
<!-- SG_0_Node_7 -->
<g id="node13" class="node">
<title>SG_0_Node_7</title>
<polygon fill="none" stroke="#000000" points="576.5,-668.4924 471.5,-668.4924 471.5,-632.4924 576.5,-632.4924 576.5,-668.4924"/>
<text text-anchor="middle" x="524" y="-645.4924" font-family="Times,serif" font-size="20.00" fill="#000000">Location</text>
</g>
<!-- SG_0_Node_5&#45;&gt;SG_0_Node_7 -->
<g id="edge22" class="edge">
<title>SG_0_Node_5&#45;&gt;SG_0_Node_7</title>
<path fill="none" stroke="#000000" d="M524,-899.339C524,-853.4638 524,-733.6173 524,-678.7089"/>
<polygon fill="#000000" stroke="#000000" points="527.5001,-678.6342 524,-668.6343 520.5001,-678.6343 527.5001,-678.6342"/>
<text text-anchor="middle" x="543.5" y="-835.7056" font-family="Times,serif" font-size="20.00" fill="#000000">301</text>
<text text-anchor="middle" x="543.5" y="-813.7056" font-family="Times,serif" font-size="20.00" fill="#000000">302</text>
<text text-anchor="middle" x="543.5" y="-791.7056" font-family="Times,serif" font-size="20.00" fill="#000000">303</text>
<text text-anchor="middle" x="543.5" y="-769.7056" font-family="Times,serif" font-size="20.00" fill="#000000">307</text>
<text text-anchor="middle" x="543.5" y="-747.7056" font-family="Times,serif" font-size="20.00" fill="#000000">308</text>
<text text-anchor="middle" x="543.5" y="-725.7056" font-family="Times,serif" font-size="20.00" fill="#000000">407</text>
</g>
<!-- SG_0_Node_8 -->
<g id="node14" class="node">
<title>SG_0_Node_8</title>
<polygon fill="none" stroke="#000000" points="826.5,-668.4924 671.5,-668.4924 671.5,-632.4924 826.5,-632.4924 826.5,-668.4924"/>
<text text-anchor="middle" x="749" y="-645.4924" font-family="Times,serif" font-size="20.00" fill="#000000">Content&#45;Type</text>
</g>
<!-- SG_0_Node_6&#45;&gt;SG_0_Node_8 -->
<g id="edge11" class="edge">
<title>SG_0_Node_6&#45;&gt;SG_0_Node_8</title>
<path fill="none" stroke="#000000" d="M749,-899.339C749,-853.4638 749,-733.6173 749,-678.7089"/>
<polygon fill="#000000" stroke="#000000" points="752.5001,-678.6342 749,-668.6343 745.5001,-678.6343 752.5001,-678.6342"/>
<text text-anchor="middle" x="784" y="-780.7056" font-family="Times,serif" font-size="20.00" fill="#000000">nosniff</text>
</g>
<!-- SG_0_Node_9 -->
<g id="node15" class="node">
<title>SG_0_Node_9</title>
<polygon fill="none" stroke="#000000" points="1058,-668.4924 916,-668.4924 916,-632.4924 1058,-632.4924 1058,-668.4924"/>
<text text-anchor="middle" x="987" y="-645.4924" font-family="Times,serif" font-size="20.00" fill="#000000">Status&#45;Code</text>
</g>
<!-- SG_0_Node_6&#45;&gt;SG_0_Node_9 -->
<g id="edge12" class="edge">
<title>SG_0_Node_6&#45;&gt;SG_0_Node_9</title>
<path fill="none" stroke="#000000" d="M777.1433,-899.5167C791.6025,-889.5166 809.0621,-876.3842 823,-862.7056 884.1468,-802.6963 942.1173,-719.3214 969.8892,-677.1694"/>
<polygon fill="#000000" stroke="#000000" points="972.9609,-678.867 975.5041,-668.582 967.1021,-675.0363 972.9609,-678.867"/>
<text text-anchor="middle" x="980" y="-791.7056" font-family="Times,serif" font-size="20.00" fill="#000000">[NA]</text>
<text text-anchor="middle" x="980" y="-769.7056" font-family="Times,serif" font-size="20.00" fill="#000000">empty</text>
</g>
<!-- SG_0_Node_10 -->
<g id="node16" class="node">
<title>SG_0_Node_10</title>
<polygon fill="none" stroke="#000000" points="314,-508.066 172,-508.066 172,-472.066 314,-472.066 314,-508.066"/>
<text text-anchor="middle" x="243" y="-485.066" font-family="Times,serif" font-size="20.00" fill="#000000">Status&#45;Code</text>
</g>
<!-- SG_0_Node_7&#45;&gt;SG_0_Node_10 -->
<g id="edge23" class="edge">
<title>SG_0_Node_7&#45;&gt;SG_0_Node_10</title>
<path fill="none" stroke="#000000" d="M473.5577,-632.4102C470.0001,-631.3017 466.4554,-630.2455 463,-629.2792 387.2775,-608.1032 351.3729,-641.4289 290,-592.2792 266.9963,-573.857 254.7818,-541.6414 248.6295,-518.2927"/>
<polygon fill="#000000" stroke="#000000" points="251.9594,-517.1709 246.2124,-508.2702 245.1545,-518.8121 251.9594,-517.1709"/>
<text text-anchor="middle" x="405" y="-565.2792" font-family="Times,serif" font-size="20.00" fill="#000000">http://172.17.0.1:8000</text>
</g>
<!-- SG_0_Node_11 -->
<g id="node17" class="node">
<title>SG_0_Node_11</title>
<polygon fill="none" stroke="#000000" points="655,-508.066 393,-508.066 393,-472.066 655,-472.066 655,-508.066"/>
<text text-anchor="middle" x="524" y="-485.066" font-family="Times,serif" font-size="20.00" fill="#000000">X&#45;Content&#45;Type&#45;Options</text>
</g>
<!-- SG_0_Node_7&#45;&gt;SG_0_Node_11 -->
<g id="edge24" class="edge">
<title>SG_0_Node_7&#45;&gt;SG_0_Node_11</title>
<path fill="none" stroke="#000000" d="M524,-632.4013C524,-604.7194 524,-551.6042 524,-518.6675"/>
<polygon fill="#000000" stroke="#000000" points="527.5001,-518.3371 524,-508.3371 520.5001,-518.3372 527.5001,-518.3371"/>
<text text-anchor="middle" x="556" y="-576.2792" font-family="Times,serif" font-size="20.00" fill="#000000">[NA]</text>
<text text-anchor="middle" x="556" y="-554.2792" font-family="Times,serif" font-size="20.00" fill="#000000">empty</text>
</g>
<!-- SG_0_Node_28 -->
<g id="node18" class="node">
<title>SG_0_Node_28</title>
<ellipse fill="none" stroke="#000000" cx="720" cy="-490.066" rx="34.7971" ry="21.4286"/>
<text text-anchor="middle" x="720" y="-485.066" font-family="Times,serif" font-size="20.00" fill="#000000">0.0</text>
</g>
<!-- SG_0_Node_8&#45;&gt;SG_0_Node_28 -->
<g id="edge17" class="edge">
<title>SG_0_Node_8&#45;&gt;SG_0_Node_28</title>
<path fill="none" stroke="#000000" d="M745.7297,-632.4013C740.8643,-605.4864 731.6527,-554.5279 725.6733,-521.4506"/>
<polygon fill="#000000" stroke="#000000" points="729.0783,-520.6106 723.8552,-511.3927 722.1899,-521.8559 729.0783,-520.6106"/>
<text text-anchor="middle" x="770" y="-565.2792" font-family="Times,serif" font-size="20.00" fill="#000000">empty</text>
</g>
<!-- SG_0_Node_12 -->
<g id="node19" class="node">
<title>SG_0_Node_12</title>
<polygon fill="none" stroke="#000000" points="915,-508.066 773,-508.066 773,-472.066 915,-472.066 915,-508.066"/>
<text text-anchor="middle" x="844" y="-485.066" font-family="Times,serif" font-size="20.00" fill="#000000">Status&#45;Code</text>
</g>
<!-- SG_0_Node_8&#45;&gt;SG_0_Node_12 -->
<g id="edge18" class="edge">
<title>SG_0_Node_8&#45;&gt;SG_0_Node_12</title>
<path fill="none" stroke="#000000" d="M770.7811,-632.3455C782.4943,-621.6649 796.4517,-607.3277 806,-592.2792 820.731,-569.0625 830.978,-539.2908 837.0876,-517.874"/>
<polygon fill="#000000" stroke="#000000" points="840.4995,-518.6655 839.7559,-508.0968 833.7465,-516.8225 840.4995,-518.6655"/>
<text text-anchor="middle" x="873" y="-565.2792" font-family="Times,serif" font-size="20.00" fill="#000000">text/html</text>
</g>
<!-- SG_0_Node_13 -->
<g id="node20" class="node">
<title>SG_0_Node_13</title>
<polygon fill="none" stroke="#000000" points="1039.5,-508.066 934.5,-508.066 934.5,-472.066 1039.5,-472.066 1039.5,-508.066"/>
<text text-anchor="middle" x="987" y="-485.066" font-family="Times,serif" font-size="20.00" fill="#000000">Location</text>
</g>
<!-- SG_0_Node_9&#45;&gt;SG_0_Node_13 -->
<g id="edge13" class="edge">
<title>SG_0_Node_9&#45;&gt;SG_0_Node_13</title>
<path fill="none" stroke="#000000" d="M987,-632.4013C987,-604.7194 987,-551.6042 987,-518.6675"/>
<polygon fill="#000000" stroke="#000000" points="990.5001,-518.3371 987,-508.3371 983.5001,-518.3372 990.5001,-518.3371"/>
<text text-anchor="middle" x="1006.5" y="-565.2792" font-family="Times,serif" font-size="20.00" fill="#000000">300</text>
</g>
<!-- SG_0_Node_29 -->
<g id="node21" class="node">
<title>SG_0_Node_29</title>
<ellipse fill="none" stroke="#000000" cx="1092" cy="-490.066" rx="34.7971" ry="21.4286"/>
<text text-anchor="middle" x="1092" y="-485.066" font-family="Times,serif" font-size="20.00" fill="#000000">1.0</text>
</g>
<!-- SG_0_Node_9&#45;&gt;SG_0_Node_29 -->
<g id="edge14" class="edge">
<title>SG_0_Node_9&#45;&gt;SG_0_Node_29</title>
<path fill="none" stroke="#000000" d="M1000.9907,-632.4452C1009.6189,-621.1006 1020.7626,-606.054 1030,-592.2792 1046.2119,-568.1042 1063.2686,-539.7404 1075.3789,-519.0328"/>
<polygon fill="#000000" stroke="#000000" points="1078.4087,-520.785 1080.4114,-510.3812 1072.3579,-517.2653 1078.4087,-520.785"/>
<text text-anchor="middle" x="1103" y="-576.2792" font-family="Times,serif" font-size="20.00" fill="#000000">[NA]</text>
<text text-anchor="middle" x="1103" y="-554.2792" font-family="Times,serif" font-size="20.00" fill="#000000">49 levels</text>
</g>
<!-- SG_0_Node_30 -->
<g id="node22" class="node">
<title>SG_0_Node_30</title>
<ellipse fill="none" stroke="#000000" cx="59" cy="-263.6396" rx="34.7971" ry="21.4286"/>
<text text-anchor="middle" x="59" y="-258.6396" font-family="Times,serif" font-size="20.00" fill="#000000">0.0</text>
</g>
<!-- SG_0_Node_10&#45;&gt;SG_0_Node_30 -->
<g id="edge31" class="edge">
<title>SG_0_Node_10&#45;&gt;SG_0_Node_30</title>
<path fill="none" stroke="#000000" d="M228.2535,-471.9193C195.9938,-432.2213 119.0104,-337.4871 81.0009,-290.7135"/>
<polygon fill="#000000" stroke="#000000" points="83.6169,-288.3828 74.5941,-282.8294 78.1844,-292.7974 83.6169,-288.3828"/>
<text text-anchor="middle" x="214.5" y="-415.8528" font-family="Times,serif" font-size="20.00" fill="#000000">301</text>
<text text-anchor="middle" x="214.5" y="-393.8528" font-family="Times,serif" font-size="20.00" fill="#000000">302</text>
<text text-anchor="middle" x="214.5" y="-371.8528" font-family="Times,serif" font-size="20.00" fill="#000000">303</text>
<text text-anchor="middle" x="214.5" y="-349.8528" font-family="Times,serif" font-size="20.00" fill="#000000">307</text>
<text text-anchor="middle" x="214.5" y="-327.8528" font-family="Times,serif" font-size="20.00" fill="#000000">308</text>
</g>
<!-- SG_0_Node_14 -->
<g id="node23" class="node">
<title>SG_0_Node_14</title>
<polygon fill="none" stroke="#000000" points="374,-281.6396 112,-281.6396 112,-245.6396 374,-245.6396 374,-281.6396"/>
<text text-anchor="middle" x="243" y="-258.6396" font-family="Times,serif" font-size="20.00" fill="#000000">X&#45;Content&#45;Type&#45;Options</text>
</g>
<!-- SG_0_Node_10&#45;&gt;SG_0_Node_14 -->
<g id="edge32" class="edge">
<title>SG_0_Node_10&#45;&gt;SG_0_Node_14</title>
<path fill="none" stroke="#000000" d="M243,-471.9193C243,-432.5867 243,-339.2266 243,-292.0173"/>
<polygon fill="#000000" stroke="#000000" points="246.5001,-291.8727 243,-281.8727 239.5001,-291.8727 246.5001,-291.8727"/>
<text text-anchor="middle" x="262.5" y="-371.8528" font-family="Times,serif" font-size="20.00" fill="#000000">407</text>
</g>
<!-- SG_0_Node_15 -->
<g id="node24" class="node">
<title>SG_0_Node_15</title>
<polygon fill="none" stroke="#000000" points="547.5,-281.6396 392.5,-281.6396 392.5,-245.6396 547.5,-245.6396 547.5,-281.6396"/>
<text text-anchor="middle" x="470" y="-258.6396" font-family="Times,serif" font-size="20.00" fill="#000000">Content&#45;Type</text>
</g>
<!-- SG_0_Node_11&#45;&gt;SG_0_Node_15 -->
<g id="edge25" class="edge">
<title>SG_0_Node_11&#45;&gt;SG_0_Node_15</title>
<path fill="none" stroke="#000000" d="M519.6722,-471.9193C510.2721,-432.5039 487.9328,-338.8333 476.6968,-291.7198"/>
<polygon fill="#000000" stroke="#000000" points="480.0728,-290.7879 474.3484,-281.8727 473.2638,-292.4119 480.0728,-290.7879"/>
<text text-anchor="middle" x="545" y="-371.8528" font-family="Times,serif" font-size="20.00" fill="#000000">nosniff</text>
</g>
<!-- SG_0_Node_16 -->
<g id="node25" class="node">
<title>SG_0_Node_16</title>
<polygon fill="none" stroke="#000000" points="708,-281.6396 566,-281.6396 566,-245.6396 708,-245.6396 708,-281.6396"/>
<text text-anchor="middle" x="637" y="-258.6396" font-family="Times,serif" font-size="20.00" fill="#000000">Status&#45;Code</text>
</g>
<!-- SG_0_Node_11&#45;&gt;SG_0_Node_16 -->
<g id="edge26" class="edge">
<title>SG_0_Node_11&#45;&gt;SG_0_Node_16</title>
<path fill="none" stroke="#000000" d="M547.5704,-472.065C559.9446,-461.5331 574.473,-447.2921 584,-431.8528 611.6132,-387.1034 626.0297,-326.6934 632.5286,-291.7724"/>
<polygon fill="#000000" stroke="#000000" points="635.9973,-292.2563 634.2971,-281.7988 629.1048,-291.034 635.9973,-292.2563"/>
<text text-anchor="middle" x="657" y="-382.8528" font-family="Times,serif" font-size="20.00" fill="#000000">[NA]</text>
<text text-anchor="middle" x="657" y="-360.8528" font-family="Times,serif" font-size="20.00" fill="#000000">empty</text>
</g>
<!-- SG_0_Node_31 -->
<g id="node26" class="node">
<title>SG_0_Node_31</title>
<ellipse fill="none" stroke="#000000" cx="778" cy="-263.6396" rx="52.1524" ry="21.4286"/>
<text text-anchor="middle" x="778" y="-258.6396" font-family="Times,serif" font-size="20.00" fill="#000000">0.833</text>
</g>
<!-- SG_0_Node_12&#45;&gt;SG_0_Node_31 -->
<g id="edge19" class="edge">
<title>SG_0_Node_12&#45;&gt;SG_0_Node_31</title>
<path fill="none" stroke="#000000" d="M831.6988,-471.934C824.6734,-460.8056 816.2455,-446.0152 811,-431.8528 794.0248,-386.0211 785.2484,-329.7667 781.1376,-295.3236"/>
<polygon fill="#000000" stroke="#000000" points="784.5657,-294.4905 779.9623,-284.948 777.6101,-295.2784 784.5657,-294.4905"/>
<text text-anchor="middle" x="830.5" y="-371.8528" font-family="Times,serif" font-size="20.00" fill="#000000">300</text>
</g>
<!-- SG_0_Node_32 -->
<g id="node27" class="node">
<title>SG_0_Node_32</title>
<ellipse fill="none" stroke="#000000" cx="883" cy="-263.6396" rx="34.7971" ry="21.4286"/>
<text text-anchor="middle" x="883" y="-258.6396" font-family="Times,serif" font-size="20.00" fill="#000000">1.0</text>
</g>
<!-- SG_0_Node_12&#45;&gt;SG_0_Node_32 -->
<g id="edge20" class="edge">
<title>SG_0_Node_12&#45;&gt;SG_0_Node_32</title>
<path fill="none" stroke="#000000" d="M847.1256,-471.9193C853.7633,-433.382 869.3343,-342.9798 877.6094,-294.9367"/>
<polygon fill="#000000" stroke="#000000" points="881.1064,-295.2528 879.3547,-284.8038 874.2079,-294.0645 881.1064,-295.2528"/>
<text text-anchor="middle" x="918" y="-382.8528" font-family="Times,serif" font-size="20.00" fill="#000000">[NA]</text>
<text text-anchor="middle" x="918" y="-360.8528" font-family="Times,serif" font-size="20.00" fill="#000000">49 levels</text>
</g>
<!-- SG_0_Node_33 -->
<g id="node28" class="node">
<title>SG_0_Node_33</title>
<ellipse fill="none" stroke="#000000" cx="988" cy="-263.6396" rx="52.1524" ry="21.4286"/>
<text text-anchor="middle" x="988" y="-258.6396" font-family="Times,serif" font-size="20.00" fill="#000000">0.667</text>
</g>
<!-- SG_0_Node_13&#45;&gt;SG_0_Node_33 -->
<g id="edge15" class="edge">
<title>SG_0_Node_13&#45;&gt;SG_0_Node_33</title>
<path fill="none" stroke="#000000" d="M987.0801,-471.9193C987.2499,-433.4795 987.6476,-343.4372 987.8602,-295.3024"/>
<polygon fill="#000000" stroke="#000000" points="991.3607,-295.156 987.905,-285.1406 984.3608,-295.125 991.3607,-295.156"/>
<text text-anchor="middle" x="1102" y="-371.8528" font-family="Times,serif" font-size="20.00" fill="#000000">http://172.17.0.1:8000</text>
</g>
<!-- SG_0_Node_34 -->
<g id="node29" class="node">
<title>SG_0_Node_34</title>
<ellipse fill="none" stroke="#000000" cx="1253" cy="-263.6396" rx="34.7971" ry="21.4286"/>
<text text-anchor="middle" x="1253" y="-258.6396" font-family="Times,serif" font-size="20.00" fill="#000000">1.0</text>
</g>
<!-- SG_0_Node_13&#45;&gt;SG_0_Node_34 -->
<g id="edge16" class="edge">
<title>SG_0_Node_13&#45;&gt;SG_0_Node_34</title>
<path fill="none" stroke="#000000" d="M1037.4423,-471.9838C1040.9999,-470.8753 1044.5446,-469.8191 1048,-468.8528 1123.7225,-447.6768 1166.0367,-488.0787 1221,-431.8528 1256.3681,-395.6722 1258.8523,-333.2478 1256.5446,-295.4679"/>
<polygon fill="#000000" stroke="#000000" points="1260.0002,-294.7532 1255.7481,-285.0491 1253.0206,-295.2869 1260.0002,-294.7532"/>
<text text-anchor="middle" x="1289" y="-382.8528" font-family="Times,serif" font-size="20.00" fill="#000000">[NA]</text>
<text text-anchor="middle" x="1289" y="-360.8528" font-family="Times,serif" font-size="20.00" fill="#000000">empty</text>
</g>
<!-- SG_0_Node_35 -->
<g id="node30" class="node">
<title>SG_0_Node_35</title>
<ellipse fill="none" stroke="#000000" cx="136" cy="-37.2132" rx="52.1524" ry="21.4286"/>
<text text-anchor="middle" x="136" y="-32.2132" font-family="Times,serif" font-size="20.00" fill="#000000">0.167</text>
</g>
<!-- SG_0_Node_14&#45;&gt;SG_0_Node_35 -->
<g id="edge33" class="edge">
<title>SG_0_Node_14&#45;&gt;SG_0_Node_35</title>
<path fill="none" stroke="#000000" d="M213.073,-245.5255C198.8592,-235.4318 182.862,-221.6282 173,-205.4264 147.0747,-162.8351 139.2248,-104.3596 136.9025,-68.7634"/>
<polygon fill="#000000" stroke="#000000" points="140.382,-68.2894 136.3453,-58.4937 133.3923,-68.6687 140.382,-68.2894"/>
<text text-anchor="middle" x="208" y="-145.4264" font-family="Times,serif" font-size="20.00" fill="#000000">nosniff</text>
</g>
<!-- SG_0_Node_36 -->
<g id="node31" class="node">
<title>SG_0_Node_36</title>
<ellipse fill="none" stroke="#000000" cx="259" cy="-37.2132" rx="52.1524" ry="21.4286"/>
<text text-anchor="middle" x="259" y="-32.2132" font-family="Times,serif" font-size="20.00" fill="#000000">0.333</text>
</g>
<!-- SG_0_Node_14&#45;&gt;SG_0_Node_36 -->
<g id="edge34" class="edge">
<title>SG_0_Node_14&#45;&gt;SG_0_Node_36</title>
<path fill="none" stroke="#000000" d="M244.2823,-245.4929C246.9986,-207.0531 253.3613,-117.0108 256.7626,-68.876"/>
<polygon fill="#000000" stroke="#000000" points="260.267,-68.9361 257.4807,-58.7142 253.2844,-68.4426 260.267,-68.9361"/>
<text text-anchor="middle" x="286" y="-156.4264" font-family="Times,serif" font-size="20.00" fill="#000000">[NA]</text>
<text text-anchor="middle" x="286" y="-134.4264" font-family="Times,serif" font-size="20.00" fill="#000000">empty</text>
</g>
<!-- SG_0_Node_37 -->
<g id="node32" class="node">
<title>SG_0_Node_37</title>
<ellipse fill="none" stroke="#000000" cx="376" cy="-37.2132" rx="34.7971" ry="21.4286"/>
<text text-anchor="middle" x="376" y="-32.2132" font-family="Times,serif" font-size="20.00" fill="#000000">0.0</text>
</g>
<!-- SG_0_Node_15&#45;&gt;SG_0_Node_37 -->
<g id="edge29" class="edge">
<title>SG_0_Node_15&#45;&gt;SG_0_Node_37</title>
<path fill="none" stroke="#000000" d="M441.7774,-245.6348C428.2031,-235.4817 412.968,-221.5926 404,-205.4264 380.1172,-162.3741 375.4475,-104.2731 375.1073,-68.8416"/>
<polygon fill="#000000" stroke="#000000" points="378.6075,-68.621 375.1242,-58.6152 371.6075,-68.6094 378.6075,-68.621"/>
<text text-anchor="middle" x="436" y="-145.4264" font-family="Times,serif" font-size="20.00" fill="#000000">empty</text>
</g>
<!-- SG_0_Node_38 -->
<g id="node33" class="node">
<title>SG_0_Node_38</title>
<ellipse fill="none" stroke="#000000" cx="481" cy="-37.2132" rx="52.1524" ry="21.4286"/>
<text text-anchor="middle" x="481" y="-32.2132" font-family="Times,serif" font-size="20.00" fill="#000000">0.889</text>
</g>
<!-- SG_0_Node_15&#45;&gt;SG_0_Node_38 -->
<g id="edge30" class="edge">
<title>SG_0_Node_15&#45;&gt;SG_0_Node_38</title>
<path fill="none" stroke="#000000" d="M470.8816,-245.4929C472.749,-207.0531 477.1234,-117.0108 479.4618,-68.876"/>
<polygon fill="#000000" stroke="#000000" points="482.966,-68.8723 479.9555,-58.7142 475.9743,-68.5325 482.966,-68.8723"/>
<text text-anchor="middle" x="525" y="-145.4264" font-family="Times,serif" font-size="20.00" fill="#000000">text/html</text>
</g>
<!-- SG_0_Node_39 -->
<g id="node34" class="node">
<title>SG_0_Node_39</title>
<ellipse fill="none" stroke="#000000" cx="620" cy="-37.2132" rx="52.1524" ry="21.4286"/>
<text text-anchor="middle" x="620" y="-32.2132" font-family="Times,serif" font-size="20.00" fill="#000000">0.333</text>
</g>
<!-- SG_0_Node_16&#45;&gt;SG_0_Node_39 -->
<g id="edge27" class="edge">
<title>SG_0_Node_16&#45;&gt;SG_0_Node_39</title>
<path fill="none" stroke="#000000" d="M635.6376,-245.4929C632.7515,-207.0531 625.9912,-117.0108 622.3772,-68.876"/>
<polygon fill="#000000" stroke="#000000" points="625.8532,-68.4241 621.6143,-58.7142 618.8729,-68.9482 625.8532,-68.4241"/>
<text text-anchor="middle" x="651.5" y="-145.4264" font-family="Times,serif" font-size="20.00" fill="#000000">407</text>
</g>
<!-- SG_0_Node_40 -->
<g id="node35" class="node">
<title>SG_0_Node_40</title>
<ellipse fill="none" stroke="#000000" cx="725" cy="-37.2132" rx="34.7971" ry="21.4286"/>
<text text-anchor="middle" x="725" y="-32.2132" font-family="Times,serif" font-size="20.00" fill="#000000">1.0</text>
</g>
<!-- SG_0_Node_16&#45;&gt;SG_0_Node_40 -->
<g id="edge28" class="edge">
<title>SG_0_Node_16&#45;&gt;SG_0_Node_40</title>
<path fill="none" stroke="#000000" d="M650.7638,-245.5624C658.7115,-234.4533 668.4077,-219.6642 675,-205.4264 696.1714,-159.7012 710.8564,-102.8477 718.5995,-68.3302"/>
<polygon fill="#000000" stroke="#000000" points="722.0599,-68.8891 720.7791,-58.372 715.2218,-67.3923 722.0599,-68.8891"/>
<text text-anchor="middle" x="731.5" y="-189.4264" font-family="Times,serif" font-size="20.00" fill="#000000">301</text>
<text text-anchor="middle" x="731.5" y="-167.4264" font-family="Times,serif" font-size="20.00" fill="#000000">302</text>
<text text-anchor="middle" x="731.5" y="-145.4264" font-family="Times,serif" font-size="20.00" fill="#000000">303</text>
<text text-anchor="middle" x="731.5" y="-123.4264" font-family="Times,serif" font-size="20.00" fill="#000000">307</text>
<text text-anchor="middle" x="731.5" y="-101.4264" font-family="Times,serif" font-size="20.00" fill="#000000">308</text>
</g>
</g>
</svg>
