<?xml version="1.0" encoding="UTF-8" standalone="no"?>
<!DOCTYPE svg PUBLIC "-//W3C//DTD SVG 1.1//EN"
 "http://www.w3.org/Graphics/SVG/1.1/DTD/svg11.dtd">
<!-- Generated by graphviz version 2.40.1 (20161225.0304)
 -->
<!-- Title: G Pages: 1 -->
<svg width="628pt" height="1509pt"
 viewBox="0.00 0.00 628.00 1508.56" xmlns="http://www.w3.org/2000/svg" xmlns:xlink="http://www.w3.org/1999/xlink">
<g id="graph0" class="graph" transform="scale(1 1) rotate(0) translate(4 1504.5584)">
<title>G</title>
<polygon fill="#ffffff" stroke="transparent" points="-4,4 -4,-1504.5584 624,-1504.5584 624,4 -4,4"/>
<g id="clust1" class="cluster">
<title>cluster_0</title>
<polygon fill="none" stroke="#000000" points="8,-8 8,-1492.5584 575,-1492.5584 575,-8 8,-8"/>
<text text-anchor="middle" x="291.5" y="-1456.5584" font-family="Times,serif" font-size="40.00" fill="#000000">Tree 0, Class [&#39;error&#39;]</text>
</g>
<!-- SG_0_Node_0 -->
<g id="node1" class="node">
<title>SG_0_Node_0</title>
<polygon fill="none" stroke="#000000" points="401,-1432.5584 259,-1432.5584 259,-1396.5584 401,-1396.5584 401,-1432.5584"/>
<text text-anchor="middle" x="330" y="-1409.5584" font-family="Times,serif" font-size="20.00" fill="#000000">Status&#45;Code</text>
</g>
<!-- SG_0_Node_1 -->
<g id="node2" class="node">
<title>SG_0_Node_1</title>
<polygon fill="none" stroke="#000000" points="403.5,-1275.3452 86.5,-1275.3452 86.5,-1239.3452 403.5,-1239.3452 403.5,-1275.3452"/>
<text text-anchor="middle" x="245" y="-1252.3452" font-family="Times,serif" font-size="20.00" fill="#000000">Cross&#45;Origin&#45;Resource&#45;Policy</text>
</g>
<!-- SG_0_Node_0&#45;&gt;SG_0_Node_1 -->
<g id="edge1" class="edge">
<title>SG_0_Node_0&#45;&gt;SG_0_Node_1</title>
<path fill="none" stroke="#000000" d="M320.2494,-1396.5241C305.4057,-1369.0696 277.0382,-1316.602 259.6903,-1284.5159"/>
<polygon fill="#000000" stroke="#000000" points="262.7336,-1282.7855 254.8987,-1275.6535 256.576,-1286.1148 262.7336,-1282.7855"/>
<text text-anchor="middle" x="346" y="-1332.5584" font-family="Times,serif" font-size="20.00" fill="#000000">18 levels</text>
</g>
<!-- SG_0_Node_9 -->
<g id="node3" class="node">
<title>SG_0_Node_9</title>
<ellipse fill="none" stroke="#000000" cx="456" cy="-1257.3452" rx="34.7971" ry="21.4286"/>
<text text-anchor="middle" x="456" y="-1252.3452" font-family="Times,serif" font-size="20.00" fill="#000000">1.0</text>
</g>
<!-- SG_0_Node_0&#45;&gt;SG_0_Node_9 -->
<g id="edge2" class="edge">
<title>SG_0_Node_0&#45;&gt;SG_0_Node_9</title>
<path fill="none" stroke="#000000" d="M355.6438,-1396.5329C368.6884,-1386.5774 384.2296,-1373.4358 396,-1359.5584 414.8985,-1337.2771 431.2909,-1308.2685 442.1434,-1286.8494"/>
<polygon fill="#000000" stroke="#000000" points="445.2814,-1288.3995 446.5876,-1277.8855 439.0099,-1285.2902 445.2814,-1288.3995"/>
<text text-anchor="middle" x="471" y="-1343.5584" font-family="Times,serif" font-size="20.00" fill="#000000">[NA]</text>
<text text-anchor="middle" x="471" y="-1321.5584" font-family="Times,serif" font-size="20.00" fill="#000000">45 levels</text>
</g>
<!-- SG_0_Node_2 -->
<g id="node4" class="node">
<title>SG_0_Node_2</title>
<polygon fill="none" stroke="#000000" points="261.5,-1114.9188 106.5,-1114.9188 106.5,-1078.9188 261.5,-1078.9188 261.5,-1114.9188"/>
<text text-anchor="middle" x="184" y="-1091.9188" font-family="Times,serif" font-size="20.00" fill="#000000">Content&#45;Type</text>
</g>
<!-- SG_0_Node_1&#45;&gt;SG_0_Node_2 -->
<g id="edge3" class="edge">
<title>SG_0_Node_1&#45;&gt;SG_0_Node_2</title>
<path fill="none" stroke="#000000" d="M235.0978,-1239.3338C229.1032,-1228.0026 221.5669,-1212.9576 216,-1199.132 206.0776,-1174.4897 197.264,-1145.5189 191.4118,-1124.725"/>
<polygon fill="#000000" stroke="#000000" points="194.7465,-1123.6518 188.7081,-1114.9461 187.9996,-1125.5173 194.7465,-1123.6518"/>
<text text-anchor="middle" x="248" y="-1172.132" font-family="Times,serif" font-size="20.00" fill="#000000">empty</text>
</g>
<!-- SG_0_Node_10 -->
<g id="node5" class="node">
<title>SG_0_Node_10</title>
<ellipse fill="none" stroke="#000000" cx="314" cy="-1096.9188" rx="34.7971" ry="21.4286"/>
<text text-anchor="middle" x="314" y="-1091.9188" font-family="Times,serif" font-size="20.00" fill="#000000">1.0</text>
</g>
<!-- SG_0_Node_1&#45;&gt;SG_0_Node_10 -->
<g id="edge4" class="edge">
<title>SG_0_Node_1&#45;&gt;SG_0_Node_10</title>
<path fill="none" stroke="#000000" d="M257.2664,-1239.2996C264.5293,-1228.0805 273.5429,-1213.166 280,-1199.132 290.6325,-1176.0233 299.5648,-1148.6155 305.602,-1128.0009"/>
<polygon fill="#000000" stroke="#000000" points="309.0239,-1128.7645 308.4083,-1118.1876 302.2936,-1126.8399 309.0239,-1128.7645"/>
<text text-anchor="middle" x="357" y="-1183.132" font-family="Times,serif" font-size="20.00" fill="#000000">[NA]</text>
<text text-anchor="middle" x="357" y="-1161.132" font-family="Times,serif" font-size="20.00" fill="#000000">same&#45;origin</text>
</g>
<!-- SG_0_Node_3 -->
<g id="node6" class="node">
<title>SG_0_Node_3</title>
<polygon fill="none" stroke="#000000" points="235.5,-866.4924 80.5,-866.4924 80.5,-830.4924 235.5,-830.4924 235.5,-866.4924"/>
<text text-anchor="middle" x="158" y="-843.4924" font-family="Times,serif" font-size="20.00" fill="#000000">Content&#45;Type</text>
</g>
<!-- SG_0_Node_2&#45;&gt;SG_0_Node_3 -->
<g id="edge5" class="edge">
<title>SG_0_Node_2&#45;&gt;SG_0_Node_3</title>
<path fill="none" stroke="#000000" d="M179.6036,-1078.6718C177.0106,-1067.2519 173.8789,-1052.1964 172,-1038.7056 164.0391,-981.544 160.4288,-914.0463 158.9352,-876.7837"/>
<polygon fill="#000000" stroke="#000000" points="162.4283,-876.5323 158.5526,-866.6718 155.4333,-876.797 162.4283,-876.5323"/>
<text text-anchor="middle" x="283" y="-1022.7056" font-family="Times,serif" font-size="20.00" fill="#000000">[NA]</text>
<text text-anchor="middle" x="283" y="-1000.7056" font-family="Times,serif" font-size="20.00" fill="#000000">application/javascript</text>
<text text-anchor="middle" x="283" y="-978.7056" font-family="Times,serif" font-size="20.00" fill="#000000">application/pdf</text>
<text text-anchor="middle" x="283" y="-956.7056" font-family="Times,serif" font-size="20.00" fill="#000000">empty</text>
<text text-anchor="middle" x="283" y="-934.7056" font-family="Times,serif" font-size="20.00" fill="#000000">text/css</text>
<text text-anchor="middle" x="283" y="-912.7056" font-family="Times,serif" font-size="20.00" fill="#000000">text/html</text>
</g>
<!-- SG_0_Node_11 -->
<g id="node7" class="node">
<title>SG_0_Node_11</title>
<ellipse fill="none" stroke="#000000" cx="416" cy="-848.4924" rx="34.7971" ry="21.4286"/>
<text text-anchor="middle" x="416" y="-843.4924" font-family="Times,serif" font-size="20.00" fill="#000000">1.0</text>
</g>
<!-- SG_0_Node_2&#45;&gt;SG_0_Node_11 -->
<g id="edge6" class="edge">
<title>SG_0_Node_2&#45;&gt;SG_0_Node_11</title>
<path fill="none" stroke="#000000" d="M256.3449,-1078.9011C315.2041,-1063.9229 389.2959,-1044.2034 394,-1038.7056 431.9746,-994.3246 428.1852,-921.2608 422.0723,-879.7937"/>
<polygon fill="#000000" stroke="#000000" points="425.4958,-879.0384 420.4491,-869.7228 418.585,-880.1523 425.4958,-879.0384"/>
<text text-anchor="middle" x="479.5" y="-989.7056" font-family="Times,serif" font-size="20.00" fill="#000000">audio/wav</text>
<text text-anchor="middle" x="479.5" y="-967.7056" font-family="Times,serif" font-size="20.00" fill="#000000">image/png</text>
<text text-anchor="middle" x="479.5" y="-945.7056" font-family="Times,serif" font-size="20.00" fill="#000000">video/mp4</text>
</g>
<!-- SG_0_Node_4 -->
<g id="node8" class="node">
<title>SG_0_Node_4</title>
<polygon fill="none" stroke="#000000" points="216,-665.2792 74,-665.2792 74,-629.2792 216,-629.2792 216,-665.2792"/>
<text text-anchor="middle" x="145" y="-642.2792" font-family="Times,serif" font-size="20.00" fill="#000000">Status&#45;Code</text>
</g>
<!-- SG_0_Node_3&#45;&gt;SG_0_Node_4 -->
<g id="edge7" class="edge">
<title>SG_0_Node_3&#45;&gt;SG_0_Node_4</title>
<path fill="none" stroke="#000000" d="M156.8234,-830.2812C154.5466,-795.0402 149.5242,-717.3052 146.8159,-675.3856"/>
<polygon fill="#000000" stroke="#000000" points="150.3021,-675.0578 146.1646,-665.3043 143.3167,-675.5092 150.3021,-675.0578"/>
<text text-anchor="middle" x="265" y="-774.2792" font-family="Times,serif" font-size="20.00" fill="#000000">[NA]</text>
<text text-anchor="middle" x="265" y="-752.2792" font-family="Times,serif" font-size="20.00" fill="#000000">application/javascript</text>
<text text-anchor="middle" x="265" y="-730.2792" font-family="Times,serif" font-size="20.00" fill="#000000">application/pdf</text>
<text text-anchor="middle" x="265" y="-708.2792" font-family="Times,serif" font-size="20.00" fill="#000000">text/html</text>
</g>
<!-- SG_0_Node_5 -->
<g id="node9" class="node">
<title>SG_0_Node_5</title>
<polygon fill="none" stroke="#000000" points="534,-665.2792 272,-665.2792 272,-629.2792 534,-629.2792 534,-665.2792"/>
<text text-anchor="middle" x="403" y="-642.2792" font-family="Times,serif" font-size="20.00" fill="#000000">X&#45;Content&#45;Type&#45;Options</text>
</g>
<!-- SG_0_Node_3&#45;&gt;SG_0_Node_5 -->
<g id="edge8" class="edge">
<title>SG_0_Node_3&#45;&gt;SG_0_Node_5</title>
<path fill="none" stroke="#000000" d="M235.779,-837.2661C291.7078,-827.5609 360.5541,-811.7086 380,-790.2792 408.2379,-759.1611 409.4105,-707.7353 406.8203,-675.774"/>
<polygon fill="#000000" stroke="#000000" points="410.2953,-675.3471 405.8313,-665.7387 403.3291,-676.0338 410.2953,-675.3471"/>
<text text-anchor="middle" x="446.5" y="-752.2792" font-family="Times,serif" font-size="20.00" fill="#000000">empty</text>
<text text-anchor="middle" x="446.5" y="-730.2792" font-family="Times,serif" font-size="20.00" fill="#000000">text/css</text>
</g>
<!-- SG_0_Node_12 -->
<g id="node10" class="node">
<title>SG_0_Node_12</title>
<ellipse fill="none" stroke="#000000" cx="51" cy="-424.066" rx="34.7971" ry="21.4286"/>
<text text-anchor="middle" x="51" y="-419.066" font-family="Times,serif" font-size="20.00" fill="#000000">0.0</text>
</g>
<!-- SG_0_Node_4&#45;&gt;SG_0_Node_12 -->
<g id="edge15" class="edge">
<title>SG_0_Node_4&#45;&gt;SG_0_Node_12</title>
<path fill="none" stroke="#000000" d="M93.3029,-629.1716C76.8072,-620.6613 60.4063,-608.6811 51,-592.2792 26.6032,-549.7385 34.2127,-490.6294 42.3366,-454.9923"/>
<polygon fill="#000000" stroke="#000000" points="45.7646,-455.7074 44.7271,-445.1635 38.9629,-454.053 45.7646,-455.7074"/>
<text text-anchor="middle" x="97" y="-532.2792" font-family="Times,serif" font-size="20.00" fill="#000000">13 levels</text>
</g>
<!-- SG_0_Node_6 -->
<g id="node11" class="node">
<title>SG_0_Node_6</title>
<polygon fill="none" stroke="#000000" points="208.5,-442.066 103.5,-442.066 103.5,-406.066 208.5,-406.066 208.5,-442.066"/>
<text text-anchor="middle" x="156" y="-419.066" font-family="Times,serif" font-size="20.00" fill="#000000">Location</text>
</g>
<!-- SG_0_Node_4&#45;&gt;SG_0_Node_6 -->
<g id="edge16" class="edge">
<title>SG_0_Node_4&#45;&gt;SG_0_Node_6</title>
<path fill="none" stroke="#000000" d="M145.9002,-629.0127C147.8186,-590.0844 152.3208,-498.7247 154.6103,-452.2654"/>
<polygon fill="#000000" stroke="#000000" points="158.1063,-452.432 155.1028,-442.2718 151.1148,-452.0874 158.1063,-452.432"/>
<text text-anchor="middle" x="172.5" y="-576.2792" font-family="Times,serif" font-size="20.00" fill="#000000">301</text>
<text text-anchor="middle" x="172.5" y="-554.2792" font-family="Times,serif" font-size="20.00" fill="#000000">302</text>
<text text-anchor="middle" x="172.5" y="-532.2792" font-family="Times,serif" font-size="20.00" fill="#000000">303</text>
<text text-anchor="middle" x="172.5" y="-510.2792" font-family="Times,serif" font-size="20.00" fill="#000000">307</text>
<text text-anchor="middle" x="172.5" y="-488.2792" font-family="Times,serif" font-size="20.00" fill="#000000">308</text>
</g>
<!-- SG_0_Node_7 -->
<g id="node12" class="node">
<title>SG_0_Node_7</title>
<polygon fill="none" stroke="#000000" points="470,-442.066 328,-442.066 328,-406.066 470,-406.066 470,-442.066"/>
<text text-anchor="middle" x="399" y="-419.066" font-family="Times,serif" font-size="20.00" fill="#000000">Status&#45;Code</text>
</g>
<!-- SG_0_Node_5&#45;&gt;SG_0_Node_7 -->
<g id="edge9" class="edge">
<title>SG_0_Node_5&#45;&gt;SG_0_Node_7</title>
<path fill="none" stroke="#000000" d="M402.6727,-629.0127C401.9765,-590.1663 400.3448,-499.1092 399.5106,-452.5594"/>
<polygon fill="#000000" stroke="#000000" points="403.005,-452.2075 399.3262,-442.2718 396.0061,-452.333 403.005,-452.2075"/>
<text text-anchor="middle" x="434" y="-543.2792" font-family="Times,serif" font-size="20.00" fill="#000000">[NA]</text>
<text text-anchor="middle" x="434" y="-521.2792" font-family="Times,serif" font-size="20.00" fill="#000000">empty</text>
</g>
<!-- SG_0_Node_13 -->
<g id="node13" class="node">
<title>SG_0_Node_13</title>
<ellipse fill="none" stroke="#000000" cx="523" cy="-424.066" rx="34.7971" ry="21.4286"/>
<text text-anchor="middle" x="523" y="-419.066" font-family="Times,serif" font-size="20.00" fill="#000000">1.0</text>
</g>
<!-- SG_0_Node_5&#45;&gt;SG_0_Node_13 -->
<g id="edge10" class="edge">
<title>SG_0_Node_5&#45;&gt;SG_0_Node_13</title>
<path fill="none" stroke="#000000" d="M432.0875,-629.1455C445.2984,-619.6094 460.1405,-606.8674 470,-592.2792 498.5899,-549.9774 512.4216,-491.4142 518.5909,-455.7217"/>
<polygon fill="#000000" stroke="#000000" points="522.1153,-455.8548 520.2674,-445.4223 515.2062,-454.7301 522.1153,-455.8548"/>
<text text-anchor="middle" x="548" y="-532.2792" font-family="Times,serif" font-size="20.00" fill="#000000">nosniff</text>
</g>
<!-- SG_0_Node_14 -->
<g id="node14" class="node">
<title>SG_0_Node_14</title>
<ellipse fill="none" stroke="#000000" cx="51" cy="-197.6396" rx="34.7971" ry="21.4286"/>
<text text-anchor="middle" x="51" y="-192.6396" font-family="Times,serif" font-size="20.00" fill="#000000">0.0</text>
</g>
<!-- SG_0_Node_6&#45;&gt;SG_0_Node_14 -->
<g id="edge17" class="edge">
<title>SG_0_Node_6&#45;&gt;SG_0_Node_14</title>
<path fill="none" stroke="#000000" d="M116.3724,-405.9205C99.9688,-396.3551 82.3853,-383.0031 72,-365.8528 46.511,-323.7602 45.3593,-264.8943 47.627,-229.1219"/>
<polygon fill="#000000" stroke="#000000" points="51.1431,-229.0438 48.4174,-218.8056 44.1636,-228.509 51.1431,-229.0438"/>
<text text-anchor="middle" x="104" y="-316.8528" font-family="Times,serif" font-size="20.00" fill="#000000">[NA]</text>
<text text-anchor="middle" x="104" y="-294.8528" font-family="Times,serif" font-size="20.00" fill="#000000">empty</text>
</g>
<!-- SG_0_Node_15 -->
<g id="node15" class="node">
<title>SG_0_Node_15</title>
<ellipse fill="none" stroke="#000000" cx="138" cy="-197.6396" rx="34.7971" ry="21.4286"/>
<text text-anchor="middle" x="138" y="-192.6396" font-family="Times,serif" font-size="20.00" fill="#000000">1.0</text>
</g>
<!-- SG_0_Node_6&#45;&gt;SG_0_Node_15 -->
<g id="edge18" class="edge">
<title>SG_0_Node_6&#45;&gt;SG_0_Node_15</title>
<path fill="none" stroke="#000000" d="M153.1534,-406.0154C151.4346,-394.5407 149.3272,-379.3557 148,-365.8528 143.3262,-318.3011 140.5458,-262.9569 139.1452,-229.118"/>
<polygon fill="#000000" stroke="#000000" points="142.6344,-228.7766 138.7383,-218.9242 135.64,-229.0558 142.6344,-228.7766"/>
<text text-anchor="middle" x="263" y="-305.8528" font-family="Times,serif" font-size="20.00" fill="#000000">http://172.17.0.1:8000</text>
</g>
<!-- SG_0_Node_16 -->
<g id="node16" class="node">
<title>SG_0_Node_16</title>
<ellipse fill="none" stroke="#000000" cx="316" cy="-197.6396" rx="34.7971" ry="21.4286"/>
<text text-anchor="middle" x="316" y="-192.6396" font-family="Times,serif" font-size="20.00" fill="#000000">0.0</text>
</g>
<!-- SG_0_Node_7&#45;&gt;SG_0_Node_16 -->
<g id="edge11" class="edge">
<title>SG_0_Node_7&#45;&gt;SG_0_Node_16</title>
<path fill="none" stroke="#000000" d="M398.2755,-405.7867C396.5208,-367.8103 391.1761,-281.7569 378,-255.8528 370.8751,-241.8454 358.9572,-229.4226 347.4635,-219.6883"/>
<polygon fill="#000000" stroke="#000000" points="349.6235,-216.934 339.6382,-213.3921 345.2354,-222.3878 349.6235,-216.934"/>
<text text-anchor="middle" x="441" y="-305.8528" font-family="Times,serif" font-size="20.00" fill="#000000">13 levels</text>
</g>
<!-- SG_0_Node_8 -->
<g id="node17" class="node">
<title>SG_0_Node_8</title>
<polygon fill="none" stroke="#000000" points="473.5,-215.6396 368.5,-215.6396 368.5,-179.6396 473.5,-179.6396 473.5,-215.6396"/>
<text text-anchor="middle" x="421" y="-192.6396" font-family="Times,serif" font-size="20.00" fill="#000000">Location</text>
</g>
<!-- SG_0_Node_7&#45;&gt;SG_0_Node_8 -->
<g id="edge12" class="edge">
<title>SG_0_Node_7&#45;&gt;SG_0_Node_8</title>
<path fill="none" stroke="#000000" d="M449.5723,-406.0596C467.5237,-396.9403 485.792,-383.8842 496,-365.8528 520.0854,-323.3085 517.5013,-299.7597 496,-255.8528 489.2266,-242.0211 477.4063,-230.5313 465.1256,-221.5164"/>
<polygon fill="#000000" stroke="#000000" points="466.8325,-218.443 456.6064,-215.6723 462.8727,-224.2154 466.8325,-218.443"/>
<text text-anchor="middle" x="532.5" y="-349.8528" font-family="Times,serif" font-size="20.00" fill="#000000">301</text>
<text text-anchor="middle" x="532.5" y="-327.8528" font-family="Times,serif" font-size="20.00" fill="#000000">302</text>
<text text-anchor="middle" x="532.5" y="-305.8528" font-family="Times,serif" font-size="20.00" fill="#000000">303</text>
<text text-anchor="middle" x="532.5" y="-283.8528" font-family="Times,serif" font-size="20.00" fill="#000000">307</text>
<text text-anchor="middle" x="532.5" y="-261.8528" font-family="Times,serif" font-size="20.00" fill="#000000">308</text>
</g>
<!-- SG_0_Node_17 -->
<g id="node18" class="node">
<title>SG_0_Node_17</title>
<ellipse fill="none" stroke="#000000" cx="237" cy="-37.2132" rx="34.7971" ry="21.4286"/>
<text text-anchor="middle" x="237" y="-32.2132" font-family="Times,serif" font-size="20.00" fill="#000000">0.0</text>
</g>
<!-- SG_0_Node_8&#45;&gt;SG_0_Node_17 -->
<g id="edge13" class="edge">
<title>SG_0_Node_8&#45;&gt;SG_0_Node_17</title>
<path fill="none" stroke="#000000" d="M376.3731,-179.5373C346.7799,-166.9411 311.2259,-150.4866 299,-139.4264 276.8782,-119.4138 260.053,-89.6533 249.5502,-67.3992"/>
<polygon fill="#000000" stroke="#000000" points="252.6325,-65.7221 245.3062,-58.0686 246.2607,-68.6204 252.6325,-65.7221"/>
<text text-anchor="middle" x="331" y="-112.4264" font-family="Times,serif" font-size="20.00" fill="#000000">empty</text>
</g>
<!-- SG_0_Node_18 -->
<g id="node19" class="node">
<title>SG_0_Node_18</title>
<ellipse fill="none" stroke="#000000" cx="337" cy="-37.2132" rx="34.7971" ry="21.4286"/>
<text text-anchor="middle" x="337" y="-32.2132" font-family="Times,serif" font-size="20.00" fill="#000000">1.0</text>
</g>
<!-- SG_0_Node_8&#45;&gt;SG_0_Node_18 -->
<g id="edge14" class="edge">
<title>SG_0_Node_8&#45;&gt;SG_0_Node_18</title>
<path fill="none" stroke="#000000" d="M411.5274,-179.5485C397.1564,-152.1022 369.6941,-99.6536 352.4185,-66.66"/>
<polygon fill="#000000" stroke="#000000" points="355.3621,-64.7364 347.6227,-57.5008 349.1607,-67.9834 355.3621,-64.7364"/>
<text text-anchor="middle" x="505" y="-123.4264" font-family="Times,serif" font-size="20.00" fill="#000000">[NA]</text>
<text text-anchor="middle" x="505" y="-101.4264" font-family="Times,serif" font-size="20.00" fill="#000000">http://172.17.0.1:8000</text>
</g>
</g>
</svg>
