<?xml version="1.0" encoding="UTF-8" standalone="no"?>
<!DOCTYPE svg PUBLIC "-//W3C//DTD SVG 1.1//EN"
 "http://www.w3.org/Graphics/SVG/1.1/DTD/svg11.dtd">
<!-- Generated by graphviz version 2.40.1 (20161225.0304)
 -->
<!-- Title: G Pages: 1 -->
<svg width="3069pt" height="1377pt"
 viewBox="0.00 0.00 3069.00 1376.56" xmlns="http://www.w3.org/2000/svg" xmlns:xlink="http://www.w3.org/1999/xlink">
<g id="graph0" class="graph" transform="scale(1 1) rotate(0) translate(4 1372.5584)">
<title>G</title>
<polygon fill="#ffffff" stroke="transparent" points="-4,4 -4,-1372.5584 3065,-1372.5584 3065,4 -4,4"/>
<g id="clust1" class="cluster">
<title>cluster_0</title>
<polygon fill="none" stroke="#000000" points="8,-8 8,-1360.5584 1045,-1360.5584 1045,-8 8,-8"/>
<text text-anchor="middle" x="526.5" y="-1324.5584" font-family="Times,serif" font-size="40.00" fill="#000000">Tree 0, Class [&#39;error&#39;, &#39;loadedmetadata&#39;, &#39;suspend&#39;]</text>
</g>
<g id="clust9" class="cluster">
<title>cluster_1</title>
<polygon fill="none" stroke="#000000" points="1053,-8 1053,-1360.5584 2160,-1360.5584 2160,-8 1053,-8"/>
<text text-anchor="middle" x="1606.5" y="-1324.5584" font-family="Times,serif" font-size="40.00" fill="#000000">Tree 0, Class [&#39;error&#39;]</text>
</g>
<g id="clust17" class="cluster">
<title>cluster_2</title>
<polygon fill="none" stroke="#000000" points="2168,-8 2168,-1360.5584 3053,-1360.5584 3053,-8 2168,-8"/>
<text text-anchor="middle" x="2610.5" y="-1324.5584" font-family="Times,serif" font-size="40.00" fill="#000000">Tree 0, Class [&#39;loadedmetadata&#39;, &#39;suspend&#39;]</text>
</g>
<!-- SG_0_Node_0 -->
<g id="node1" class="node">
<title>SG_0_Node_0</title>
<polygon fill="none" stroke="#000000" points="215,-1300.5584 73,-1300.5584 73,-1264.5584 215,-1264.5584 215,-1300.5584"/>
<text text-anchor="middle" x="144" y="-1277.5584" font-family="Times,serif" font-size="20.00" fill="#000000">Status&#45;Code</text>
</g>
<!-- SG_0_Node_6 -->
<g id="node2" class="node">
<title>SG_0_Node_6</title>
<ellipse fill="none" stroke="#000000" cx="72" cy="-1125.3452" rx="34.7971" ry="21.4286"/>
<text text-anchor="middle" x="72" y="-1120.3452" font-family="Times,serif" font-size="20.00" fill="#000000">0.0</text>
</g>
<!-- SG_0_Node_0&#45;&gt;SG_0_Node_6 -->
<g id="edge1" class="edge">
<title>SG_0_Node_0&#45;&gt;SG_0_Node_6</title>
<path fill="none" stroke="#000000" d="M107.9401,-1264.4301C94.0416,-1255.4043 79.6696,-1243.0685 72,-1227.5584 61.1664,-1205.6499 61.9899,-1177.7293 65.0632,-1156.6073"/>
<polygon fill="#000000" stroke="#000000" points="68.5482,-1156.9898 66.7681,-1146.5456 61.6466,-1155.8203 68.5482,-1156.9898"/>
<text text-anchor="middle" x="118" y="-1211.5584" font-family="Times,serif" font-size="20.00" fill="#000000">[NA]</text>
<text text-anchor="middle" x="118" y="-1189.5584" font-family="Times,serif" font-size="20.00" fill="#000000">62 levels</text>
</g>
<!-- SG_0_Node_1 -->
<g id="node3" class="node">
<title>SG_0_Node_1</title>
<polygon fill="none" stroke="#000000" points="232.5,-1143.3452 167.5,-1143.3452 167.5,-1107.3452 232.5,-1107.3452 232.5,-1143.3452"/>
<text text-anchor="middle" x="200" y="-1120.3452" font-family="Times,serif" font-size="20.00" fill="#000000">body</text>
</g>
<!-- SG_0_Node_0&#45;&gt;SG_0_Node_1 -->
<g id="edge2" class="edge">
<title>SG_0_Node_0&#45;&gt;SG_0_Node_1</title>
<path fill="none" stroke="#000000" d="M152.5008,-1264.4277C157.3344,-1253.8008 163.3344,-1240.0508 168,-1227.5584 177.2386,-1202.8214 186.0743,-1174.0763 192.1113,-1153.3817"/>
<polygon fill="#000000" stroke="#000000" points="195.5126,-1154.2184 194.92,-1143.6402 188.7866,-1152.2792 195.5126,-1154.2184"/>
<text text-anchor="middle" x="201.5" y="-1200.5584" font-family="Times,serif" font-size="20.00" fill="#000000">200</text>
</g>
<!-- SG_0_Node_7 -->
<g id="node4" class="node">
<title>SG_0_Node_7</title>
<ellipse fill="none" stroke="#000000" cx="82" cy="-766.9188" rx="34.7971" ry="21.4286"/>
<text text-anchor="middle" x="82" y="-761.9188" font-family="Times,serif" font-size="20.00" fill="#000000">0.0</text>
</g>
<!-- SG_0_Node_1&#45;&gt;SG_0_Node_7 -->
<g id="edge3" class="edge">
<title>SG_0_Node_1&#45;&gt;SG_0_Node_7</title>
<path fill="none" stroke="#000000" d="M167.1591,-1110.077C149.9233,-1100.2969 130.1273,-1085.9016 119,-1067.132 67.8215,-980.8037 72.4341,-856.0645 78.0613,-798.3706"/>
<polygon fill="#000000" stroke="#000000" points="81.5444,-798.7139 79.1106,-788.4024 74.5829,-797.9811 81.5444,-798.7139"/>
<text text-anchor="middle" x="165" y="-952.132" font-family="Times,serif" font-size="20.00" fill="#000000">[NA]</text>
<text text-anchor="middle" x="165" y="-930.132" font-family="Times,serif" font-size="20.00" fill="#000000">11 levels</text>
</g>
<!-- SG_0_Node_2 -->
<g id="node5" class="node">
<title>SG_0_Node_2</title>
<polygon fill="none" stroke="#000000" points="451.5,-784.9188 134.5,-784.9188 134.5,-748.9188 451.5,-748.9188 451.5,-784.9188"/>
<text text-anchor="middle" x="293" y="-761.9188" font-family="Times,serif" font-size="20.00" fill="#000000">Cross&#45;Origin&#45;Resource&#45;Policy</text>
</g>
<!-- SG_0_Node_1&#45;&gt;SG_0_Node_2 -->
<g id="edge4" class="edge">
<title>SG_0_Node_1&#45;&gt;SG_0_Node_2</title>
<path fill="none" stroke="#000000" d="M204.7397,-1107.0781C219.9142,-1048.5951 267.373,-865.6865 285.6879,-795.0999"/>
<polygon fill="#000000" stroke="#000000" points="289.146,-795.7078 288.2698,-785.1492 282.3704,-793.9497 289.146,-795.7078"/>
<text text-anchor="middle" x="411.5" y="-941.132" font-family="Times,serif" font-size="20.00" fill="#000000">ecocnt_audio=duration=1</text>
</g>
<!-- SG_0_Node_8 -->
<g id="node6" class="node">
<title>SG_0_Node_8</title>
<ellipse fill="none" stroke="#000000" cx="159" cy="-606.4924" rx="34.7971" ry="21.4286"/>
<text text-anchor="middle" x="159" y="-601.4924" font-family="Times,serif" font-size="20.00" fill="#000000">0.0</text>
</g>
<!-- SG_0_Node_2&#45;&gt;SG_0_Node_8 -->
<g id="edge5" class="edge">
<title>SG_0_Node_2&#45;&gt;SG_0_Node_8</title>
<path fill="none" stroke="#000000" d="M230.0217,-748.9181C209.4947,-740.0202 188.5297,-727.1113 175,-708.7056 160.0982,-688.4334 156.7138,-659.743 156.7044,-637.9166"/>
<polygon fill="#000000" stroke="#000000" points="160.2056,-637.8976 156.9352,-627.8202 153.2075,-637.7376 160.2056,-637.8976"/>
<text text-anchor="middle" x="236" y="-681.7056" font-family="Times,serif" font-size="20.00" fill="#000000">same&#45;origin</text>
</g>
<!-- SG_0_Node_3 -->
<g id="node7" class="node">
<title>SG_0_Node_3</title>
<polygon fill="none" stroke="#000000" points="394.5,-624.4924 239.5,-624.4924 239.5,-588.4924 394.5,-588.4924 394.5,-624.4924"/>
<text text-anchor="middle" x="317" y="-601.4924" font-family="Times,serif" font-size="20.00" fill="#000000">Content&#45;Type</text>
</g>
<!-- SG_0_Node_2&#45;&gt;SG_0_Node_3 -->
<g id="edge6" class="edge">
<title>SG_0_Node_2&#45;&gt;SG_0_Node_3</title>
<path fill="none" stroke="#000000" d="M295.7065,-748.8277C299.8657,-721.0255 307.863,-667.5683 312.7853,-634.6655"/>
<polygon fill="#000000" stroke="#000000" points="316.2485,-635.1714 314.2666,-624.7636 309.3255,-634.1356 316.2485,-635.1714"/>
<text text-anchor="middle" x="340" y="-692.7056" font-family="Times,serif" font-size="20.00" fill="#000000">[NA]</text>
<text text-anchor="middle" x="340" y="-670.7056" font-family="Times,serif" font-size="20.00" fill="#000000">empty</text>
</g>
<!-- SG_0_Node_4 -->
<g id="node8" class="node">
<title>SG_0_Node_4</title>
<polygon fill="none" stroke="#000000" points="283,-354.066 21,-354.066 21,-318.066 283,-318.066 283,-354.066"/>
<text text-anchor="middle" x="152" y="-331.066" font-family="Times,serif" font-size="20.00" fill="#000000">X&#45;Content&#45;Type&#45;Options</text>
</g>
<!-- SG_0_Node_3&#45;&gt;SG_0_Node_4 -->
<g id="edge7" class="edge">
<title>SG_0_Node_3&#45;&gt;SG_0_Node_4</title>
<path fill="none" stroke="#000000" d="M248.5574,-588.3937C212.9932,-577.5097 174.7432,-562.9564 164,-548.2792 123.9304,-493.5368 135.2228,-407.9777 144.7722,-364.0943"/>
<polygon fill="#000000" stroke="#000000" points="148.2334,-364.6606 147.069,-354.13 141.4122,-363.0883 148.2334,-364.6606"/>
<text text-anchor="middle" x="241" y="-477.2792" font-family="Times,serif" font-size="20.00" fill="#000000">application/pdf</text>
<text text-anchor="middle" x="241" y="-455.2792" font-family="Times,serif" font-size="20.00" fill="#000000">text/html</text>
</g>
<!-- SG_0_Node_9 -->
<g id="node9" class="node">
<title>SG_0_Node_9</title>
<ellipse fill="none" stroke="#000000" cx="342" cy="-336.066" rx="34.7971" ry="21.4286"/>
<text text-anchor="middle" x="342" y="-331.066" font-family="Times,serif" font-size="20.00" fill="#000000">1.0</text>
</g>
<!-- SG_0_Node_3&#45;&gt;SG_0_Node_9 -->
<g id="edge8" class="edge">
<title>SG_0_Node_3&#45;&gt;SG_0_Node_9</title>
<path fill="none" stroke="#000000" d="M318.6791,-588.3291C322.8651,-543.0489 333.805,-424.7118 339.0767,-367.6871"/>
<polygon fill="#000000" stroke="#000000" points="342.5866,-367.7413 340.0221,-357.4615 335.6163,-367.0969 342.5866,-367.7413"/>
<text text-anchor="middle" x="447" y="-532.2792" font-family="Times,serif" font-size="20.00" fill="#000000">[NA]</text>
<text text-anchor="middle" x="447" y="-510.2792" font-family="Times,serif" font-size="20.00" fill="#000000">application/javascript</text>
<text text-anchor="middle" x="447" y="-488.2792" font-family="Times,serif" font-size="20.00" fill="#000000">audio/wav</text>
<text text-anchor="middle" x="447" y="-466.2792" font-family="Times,serif" font-size="20.00" fill="#000000">empty</text>
<text text-anchor="middle" x="447" y="-444.2792" font-family="Times,serif" font-size="20.00" fill="#000000">image/png</text>
<text text-anchor="middle" x="447" y="-422.2792" font-family="Times,serif" font-size="20.00" fill="#000000">text/css</text>
<text text-anchor="middle" x="447" y="-400.2792" font-family="Times,serif" font-size="20.00" fill="#000000">video/mp4</text>
</g>
<!-- SG_0_Node_10 -->
<g id="node10" class="node">
<title>SG_0_Node_10</title>
<ellipse fill="none" stroke="#000000" cx="81" cy="-175.6396" rx="34.7971" ry="21.4286"/>
<text text-anchor="middle" x="81" y="-170.6396" font-family="Times,serif" font-size="20.00" fill="#000000">0.0</text>
</g>
<!-- SG_0_Node_4&#45;&gt;SG_0_Node_10 -->
<g id="edge9" class="edge">
<title>SG_0_Node_4&#45;&gt;SG_0_Node_10</title>
<path fill="none" stroke="#000000" d="M130.4839,-317.9835C119.3427,-307.427 106.5301,-293.1885 99,-277.8528 88.1299,-255.7149 83.7379,-228.0301 82.0042,-207.0586"/>
<polygon fill="#000000" stroke="#000000" points="85.4953,-206.8069 81.3347,-197.0632 78.5109,-207.2747 85.4953,-206.8069"/>
<text text-anchor="middle" x="134" y="-250.8528" font-family="Times,serif" font-size="20.00" fill="#000000">nosniff</text>
</g>
<!-- SG_0_Node_5 -->
<g id="node11" class="node">
<title>SG_0_Node_5</title>
<polygon fill="none" stroke="#000000" points="288.5,-193.6396 133.5,-193.6396 133.5,-157.6396 288.5,-157.6396 288.5,-193.6396"/>
<text text-anchor="middle" x="211" y="-170.6396" font-family="Times,serif" font-size="20.00" fill="#000000">Content&#45;Type</text>
</g>
<!-- SG_0_Node_4&#45;&gt;SG_0_Node_5 -->
<g id="edge10" class="edge">
<title>SG_0_Node_4&#45;&gt;SG_0_Node_5</title>
<path fill="none" stroke="#000000" d="M158.6534,-317.9749C168.9224,-290.0523 188.7085,-236.2521 200.7955,-203.3865"/>
<polygon fill="#000000" stroke="#000000" points="204.1136,-204.5043 204.2804,-193.9107 197.5438,-202.088 204.1136,-204.5043"/>
<text text-anchor="middle" x="221" y="-261.8528" font-family="Times,serif" font-size="20.00" fill="#000000">[NA]</text>
<text text-anchor="middle" x="221" y="-239.8528" font-family="Times,serif" font-size="20.00" fill="#000000">empty</text>
</g>
<!-- SG_0_Node_11 -->
<g id="node12" class="node">
<title>SG_0_Node_11</title>
<ellipse fill="none" stroke="#000000" cx="131" cy="-37.2132" rx="34.7971" ry="21.4286"/>
<text text-anchor="middle" x="131" y="-32.2132" font-family="Times,serif" font-size="20.00" fill="#000000">0.0</text>
</g>
<!-- SG_0_Node_5&#45;&gt;SG_0_Node_11 -->
<g id="edge11" class="edge">
<title>SG_0_Node_5&#45;&gt;SG_0_Node_11</title>
<path fill="none" stroke="#000000" d="M182.8303,-157.6053C169.27,-147.4445 154.0314,-133.5573 145,-117.4264 136.7516,-102.6941 133.1525,-84.2485 131.6597,-68.7612"/>
<polygon fill="#000000" stroke="#000000" points="135.1371,-68.3184 130.9316,-58.5939 128.155,-68.8185 135.1371,-68.3184"/>
<text text-anchor="middle" x="222" y="-101.4264" font-family="Times,serif" font-size="20.00" fill="#000000">application/pdf</text>
</g>
<!-- SG_0_Node_12 -->
<g id="node13" class="node">
<title>SG_0_Node_12</title>
<ellipse fill="none" stroke="#000000" cx="321" cy="-37.2132" rx="34.7971" ry="21.4286"/>
<text text-anchor="middle" x="321" y="-32.2132" font-family="Times,serif" font-size="20.00" fill="#000000">1.0</text>
</g>
<!-- SG_0_Node_5&#45;&gt;SG_0_Node_12 -->
<g id="edge12" class="edge">
<title>SG_0_Node_5&#45;&gt;SG_0_Node_12</title>
<path fill="none" stroke="#000000" d="M250.4314,-157.6387C267.6264,-147.9647 286.6399,-134.4849 299,-117.4264 309.3558,-103.1341 314.838,-84.2043 317.7396,-68.3234"/>
<polygon fill="#000000" stroke="#000000" points="321.203,-68.8294 319.299,-58.4071 314.2879,-67.7419 321.203,-68.8294"/>
<text text-anchor="middle" x="357" y="-101.4264" font-family="Times,serif" font-size="20.00" fill="#000000">text/html</text>
</g>
<!-- SG_1_Node_0 -->
<g id="node14" class="node">
<title>SG_1_Node_0</title>
<polygon fill="none" stroke="#000000" points="1463,-1300.5584 1321,-1300.5584 1321,-1264.5584 1463,-1264.5584 1463,-1300.5584"/>
<text text-anchor="middle" x="1392" y="-1277.5584" font-family="Times,serif" font-size="20.00" fill="#000000">Status&#45;Code</text>
</g>
<!-- SG_1_Node_1 -->
<g id="node15" class="node">
<title>SG_1_Node_1</title>
<polygon fill="none" stroke="#000000" points="1382.5,-1143.3452 1317.5,-1143.3452 1317.5,-1107.3452 1382.5,-1107.3452 1382.5,-1143.3452"/>
<text text-anchor="middle" x="1350" y="-1120.3452" font-family="Times,serif" font-size="20.00" fill="#000000">body</text>
</g>
<!-- SG_1_Node_0&#45;&gt;SG_1_Node_1 -->
<g id="edge13" class="edge">
<title>SG_1_Node_0&#45;&gt;SG_1_Node_1</title>
<path fill="none" stroke="#000000" d="M1384.2464,-1264.4784C1379.9118,-1253.8684 1374.6618,-1240.1184 1371,-1227.5584 1363.8323,-1202.9733 1358.1773,-1174.3736 1354.5499,-1153.6891"/>
<polygon fill="#000000" stroke="#000000" points="1357.9706,-1152.9272 1352.8406,-1143.6572 1351.0701,-1154.103 1357.9706,-1152.9272"/>
<text text-anchor="middle" x="1390.5" y="-1200.5584" font-family="Times,serif" font-size="20.00" fill="#000000">200</text>
</g>
<!-- SG_1_Node_6 -->
<g id="node16" class="node">
<title>SG_1_Node_6</title>
<ellipse fill="none" stroke="#000000" cx="1435" cy="-1125.3452" rx="34.7971" ry="21.4286"/>
<text text-anchor="middle" x="1435" y="-1120.3452" font-family="Times,serif" font-size="20.00" fill="#000000">1.0</text>
</g>
<!-- SG_1_Node_0&#45;&gt;SG_1_Node_6 -->
<g id="edge14" class="edge">
<title>SG_1_Node_0&#45;&gt;SG_1_Node_6</title>
<path fill="none" stroke="#000000" d="M1398.3523,-1264.333C1401.9697,-1253.6745 1406.4697,-1239.9245 1410,-1227.5584 1416.7474,-1203.9231 1423.308,-1176.8979 1428.0143,-1156.5748"/>
<polygon fill="#000000" stroke="#000000" points="1431.4753,-1157.1406 1430.2975,-1146.6114 1424.6521,-1155.5769 1431.4753,-1157.1406"/>
<text text-anchor="middle" x="1467" y="-1211.5584" font-family="Times,serif" font-size="20.00" fill="#000000">[NA]</text>
<text text-anchor="middle" x="1467" y="-1189.5584" font-family="Times,serif" font-size="20.00" fill="#000000">62 levels</text>
</g>
<!-- SG_1_Node_2 -->
<g id="node17" class="node">
<title>SG_1_Node_2</title>
<polygon fill="none" stroke="#000000" points="1378.5,-784.9188 1061.5,-784.9188 1061.5,-748.9188 1378.5,-748.9188 1378.5,-784.9188"/>
<text text-anchor="middle" x="1220" y="-761.9188" font-family="Times,serif" font-size="20.00" fill="#000000">Cross&#45;Origin&#45;Resource&#45;Policy</text>
</g>
<!-- SG_1_Node_1&#45;&gt;SG_1_Node_2 -->
<g id="edge15" class="edge">
<title>SG_1_Node_1&#45;&gt;SG_1_Node_2</title>
<path fill="none" stroke="#000000" d="M1317.4377,-1122.899C1254.6933,-1117.4368 1120.7679,-1101.8931 1093,-1067.132 1059.4355,-1025.1145 1063.9571,-870.393 1093,-825.132 1103.1126,-809.3723 1118.6762,-797.8237 1135.4831,-789.3796"/>
<polygon fill="#000000" stroke="#000000" points="1137.3232,-792.3843 1144.9216,-785.0008 1134.3773,-786.0344 1137.3232,-792.3843"/>
<text text-anchor="middle" x="1338.5" y="-952.132" font-family="Times,serif" font-size="20.00" fill="#000000">ecocnt_audio=duration=1</text>
<text text-anchor="middle" x="1338.5" y="-930.132" font-family="Times,serif" font-size="20.00" fill="#000000">ecocnt_vid=width=100,height=100,duration=2</text>
</g>
<!-- SG_1_Node_7 -->
<g id="node18" class="node">
<title>SG_1_Node_7</title>
<ellipse fill="none" stroke="#000000" cx="1606" cy="-766.9188" rx="34.7971" ry="21.4286"/>
<text text-anchor="middle" x="1606" y="-761.9188" font-family="Times,serif" font-size="20.00" fill="#000000">1.0</text>
</g>
<!-- SG_1_Node_1&#45;&gt;SG_1_Node_7 -->
<g id="edge16" class="edge">
<title>SG_1_Node_1&#45;&gt;SG_1_Node_7</title>
<path fill="none" stroke="#000000" d="M1382.7554,-1107.3647C1385.5034,-1106.1746 1388.2737,-1105.0763 1391,-1104.132 1473.5294,-1075.5462 1525.9338,-1132.3743 1584,-1067.132 1618.6288,-1028.2237 1612.6685,-867.887 1608.3333,-798.8141"/>
<polygon fill="#000000" stroke="#000000" points="1611.8067,-798.2932 1607.658,-788.5444 1604.8218,-798.7526 1611.8067,-798.2932"/>
<text text-anchor="middle" x="1884" y="-1051.132" font-family="Times,serif" font-size="20.00" fill="#000000">[NA]</text>
<text text-anchor="middle" x="1884" y="-1029.132" font-family="Times,serif" font-size="20.00" fill="#000000">ecocnt_css=h1 {color: blue}</text>
<text text-anchor="middle" x="1884" y="-1007.132" font-family="Times,serif" font-size="20.00" fill="#000000">ecocnt_html=meta_refresh=0;http://172.17.0.1:8000</text>
<text text-anchor="middle" x="1884" y="-985.132" font-family="Times,serif" font-size="20.00" fill="#000000">ecocnt_html=num_frames=1,input_id=test1</text>
<text text-anchor="middle" x="1884" y="-963.132" font-family="Times,serif" font-size="20.00" fill="#000000">ecocnt_html=num_frames=2</text>
<text text-anchor="middle" x="1884" y="-941.132" font-family="Times,serif" font-size="20.00" fill="#000000">ecocnt_html=post_message=mes1</text>
<text text-anchor="middle" x="1884" y="-919.132" font-family="Times,serif" font-size="20.00" fill="#000000">ecocnt_img=width=50,height=50,type=png</text>
<text text-anchor="middle" x="1884" y="-897.132" font-family="Times,serif" font-size="20.00" fill="#000000">ecocnt_js=.,,.</text>
<text text-anchor="middle" x="1884" y="-875.132" font-family="Times,serif" font-size="20.00" fill="#000000">ecocnt_js=var a=5;</text>
<text text-anchor="middle" x="1884" y="-853.132" font-family="Times,serif" font-size="20.00" fill="#000000">ecocnt_pdf=a=a</text>
<text text-anchor="middle" x="1884" y="-831.132" font-family="Times,serif" font-size="20.00" fill="#000000">empty</text>
</g>
<!-- SG_1_Node_3 -->
<g id="node19" class="node">
<title>SG_1_Node_3</title>
<polygon fill="none" stroke="#000000" points="1256.5,-624.4924 1101.5,-624.4924 1101.5,-588.4924 1256.5,-588.4924 1256.5,-624.4924"/>
<text text-anchor="middle" x="1179" y="-601.4924" font-family="Times,serif" font-size="20.00" fill="#000000">Content&#45;Type</text>
</g>
<!-- SG_1_Node_2&#45;&gt;SG_1_Node_3 -->
<g id="edge17" class="edge">
<title>SG_1_Node_2&#45;&gt;SG_1_Node_3</title>
<path fill="none" stroke="#000000" d="M1215.3765,-748.8277C1208.2711,-721.0255 1194.6091,-667.5683 1186.2002,-634.6655"/>
<polygon fill="#000000" stroke="#000000" points="1189.5367,-633.5855 1183.6695,-624.7636 1182.7547,-635.3188 1189.5367,-633.5855"/>
<text text-anchor="middle" x="1236" y="-681.7056" font-family="Times,serif" font-size="20.00" fill="#000000">empty</text>
</g>
<!-- SG_1_Node_8 -->
<g id="node20" class="node">
<title>SG_1_Node_8</title>
<ellipse fill="none" stroke="#000000" cx="1309" cy="-606.4924" rx="34.7971" ry="21.4286"/>
<text text-anchor="middle" x="1309" y="-601.4924" font-family="Times,serif" font-size="20.00" fill="#000000">1.0</text>
</g>
<!-- SG_1_Node_2&#45;&gt;SG_1_Node_8 -->
<g id="edge18" class="edge">
<title>SG_1_Node_2&#45;&gt;SG_1_Node_8</title>
<path fill="none" stroke="#000000" d="M1239.5845,-748.728C1250.3116,-737.9252 1263.1782,-723.483 1272,-708.7056 1285.3845,-686.2855 1295.1091,-658.2431 1301.2202,-637.2048"/>
<polygon fill="#000000" stroke="#000000" points="1304.6131,-638.0677 1303.9302,-627.4949 1297.8708,-636.1859 1304.6131,-638.0677"/>
<text text-anchor="middle" x="1353" y="-692.7056" font-family="Times,serif" font-size="20.00" fill="#000000">[NA]</text>
<text text-anchor="middle" x="1353" y="-670.7056" font-family="Times,serif" font-size="20.00" fill="#000000">same&#45;origin</text>
</g>
<!-- SG_1_Node_9 -->
<g id="node21" class="node">
<title>SG_1_Node_9</title>
<ellipse fill="none" stroke="#000000" cx="1097" cy="-336.066" rx="34.7971" ry="21.4286"/>
<text text-anchor="middle" x="1097" y="-331.066" font-family="Times,serif" font-size="20.00" fill="#000000">0.0</text>
</g>
<!-- SG_1_Node_3&#45;&gt;SG_1_Node_9 -->
<g id="edge19" class="edge">
<title>SG_1_Node_3&#45;&gt;SG_1_Node_9</title>
<path fill="none" stroke="#000000" d="M1148.1828,-588.2756C1134.3013,-578.3247 1119.2122,-564.6756 1111,-548.2792 1081.6713,-489.7218 1086.2636,-410.4326 1091.851,-367.2522"/>
<polygon fill="#000000" stroke="#000000" points="1095.3185,-367.7274 1093.2349,-357.3395 1088.3858,-366.7595 1095.3185,-367.7274"/>
<text text-anchor="middle" x="1222" y="-532.2792" font-family="Times,serif" font-size="20.00" fill="#000000">[NA]</text>
<text text-anchor="middle" x="1222" y="-510.2792" font-family="Times,serif" font-size="20.00" fill="#000000">application/javascript</text>
<text text-anchor="middle" x="1222" y="-488.2792" font-family="Times,serif" font-size="20.00" fill="#000000">audio/wav</text>
<text text-anchor="middle" x="1222" y="-466.2792" font-family="Times,serif" font-size="20.00" fill="#000000">empty</text>
<text text-anchor="middle" x="1222" y="-444.2792" font-family="Times,serif" font-size="20.00" fill="#000000">image/png</text>
<text text-anchor="middle" x="1222" y="-422.2792" font-family="Times,serif" font-size="20.00" fill="#000000">text/css</text>
<text text-anchor="middle" x="1222" y="-400.2792" font-family="Times,serif" font-size="20.00" fill="#000000">video/mp4</text>
</g>
<!-- SG_1_Node_4 -->
<g id="node22" class="node">
<title>SG_1_Node_4</title>
<polygon fill="none" stroke="#000000" points="1486,-354.066 1224,-354.066 1224,-318.066 1486,-318.066 1486,-354.066"/>
<text text-anchor="middle" x="1355" y="-331.066" font-family="Times,serif" font-size="20.00" fill="#000000">X&#45;Content&#45;Type&#45;Options</text>
</g>
<!-- SG_1_Node_3&#45;&gt;SG_1_Node_4 -->
<g id="edge20" class="edge">
<title>SG_1_Node_3&#45;&gt;SG_1_Node_4</title>
<path fill="none" stroke="#000000" d="M1247.2096,-588.3828C1283.0361,-577.4383 1321.7936,-562.8279 1333,-548.2792 1374.5534,-494.3325 1367.7708,-408.4263 1360.6459,-364.2839"/>
<polygon fill="#000000" stroke="#000000" points="1364.0641,-363.511 1358.9034,-354.2581 1357.1675,-364.7097 1364.0641,-363.511"/>
<text text-anchor="middle" x="1442" y="-477.2792" font-family="Times,serif" font-size="20.00" fill="#000000">application/pdf</text>
<text text-anchor="middle" x="1442" y="-455.2792" font-family="Times,serif" font-size="20.00" fill="#000000">text/html</text>
</g>
<!-- SG_1_Node_5 -->
<g id="node23" class="node">
<title>SG_1_Node_5</title>
<polygon fill="none" stroke="#000000" points="1306.5,-193.6396 1151.5,-193.6396 1151.5,-157.6396 1306.5,-157.6396 1306.5,-193.6396"/>
<text text-anchor="middle" x="1229" y="-170.6396" font-family="Times,serif" font-size="20.00" fill="#000000">Content&#45;Type</text>
</g>
<!-- SG_1_Node_4&#45;&gt;SG_1_Node_5 -->
<g id="edge21" class="edge">
<title>SG_1_Node_4&#45;&gt;SG_1_Node_5</title>
<path fill="none" stroke="#000000" d="M1330.2699,-317.8666C1316.7746,-307.1695 1300.351,-292.8334 1288,-277.8528 1268.8979,-254.6837 1252.3307,-224.5437 1241.6564,-203.0074"/>
<polygon fill="#000000" stroke="#000000" points="1244.6914,-201.2444 1237.1788,-193.7738 1238.3929,-204.2988 1244.6914,-201.2444"/>
<text text-anchor="middle" x="1320" y="-250.8528" font-family="Times,serif" font-size="20.00" fill="#000000">empty</text>
</g>
<!-- SG_1_Node_10 -->
<g id="node24" class="node">
<title>SG_1_Node_10</title>
<ellipse fill="none" stroke="#000000" cx="1359" cy="-175.6396" rx="34.7971" ry="21.4286"/>
<text text-anchor="middle" x="1359" y="-170.6396" font-family="Times,serif" font-size="20.00" fill="#000000">1.0</text>
</g>
<!-- SG_1_Node_4&#45;&gt;SG_1_Node_10 -->
<g id="edge22" class="edge">
<title>SG_1_Node_4&#45;&gt;SG_1_Node_10</title>
<path fill="none" stroke="#000000" d="M1355.4511,-317.9749C1356.1222,-291.06 1357.3927,-240.1015 1358.2175,-207.0242"/>
<polygon fill="#000000" stroke="#000000" points="1361.7178,-207.0505 1358.4682,-196.9663 1354.72,-206.8759 1361.7178,-207.0505"/>
<text text-anchor="middle" x="1392" y="-261.8528" font-family="Times,serif" font-size="20.00" fill="#000000">[NA]</text>
<text text-anchor="middle" x="1392" y="-239.8528" font-family="Times,serif" font-size="20.00" fill="#000000">nosniff</text>
</g>
<!-- SG_1_Node_11 -->
<g id="node25" class="node">
<title>SG_1_Node_11</title>
<ellipse fill="none" stroke="#000000" cx="1103" cy="-37.2132" rx="34.7971" ry="21.4286"/>
<text text-anchor="middle" x="1103" y="-32.2132" font-family="Times,serif" font-size="20.00" fill="#000000">0.0</text>
</g>
<!-- SG_1_Node_5&#45;&gt;SG_1_Node_11 -->
<g id="edge23" class="edge">
<title>SG_1_Node_5&#45;&gt;SG_1_Node_11</title>
<path fill="none" stroke="#000000" d="M1185.2151,-157.4811C1166.655,-147.9132 1146.1029,-134.5628 1132,-117.4264 1120.4987,-103.4511 1113.3692,-84.5357 1109.0587,-68.5832"/>
<polygon fill="#000000" stroke="#000000" points="1112.3944,-67.4897 1106.6155,-58.6097 1105.5954,-69.1553 1112.3944,-67.4897"/>
<text text-anchor="middle" x="1179" y="-101.4264" font-family="Times,serif" font-size="20.00" fill="#000000">text/html</text>
</g>
<!-- SG_1_Node_12 -->
<g id="node26" class="node">
<title>SG_1_Node_12</title>
<ellipse fill="none" stroke="#000000" cx="1233" cy="-37.2132" rx="34.7971" ry="21.4286"/>
<text text-anchor="middle" x="1233" y="-32.2132" font-family="Times,serif" font-size="20.00" fill="#000000">1.0</text>
</g>
<!-- SG_1_Node_5&#45;&gt;SG_1_Node_12 -->
<g id="edge24" class="edge">
<title>SG_1_Node_5&#45;&gt;SG_1_Node_12</title>
<path fill="none" stroke="#000000" d="M1229.5229,-157.5428C1230.1735,-135.0281 1231.2953,-96.2088 1232.0885,-68.7578"/>
<polygon fill="#000000" stroke="#000000" points="1235.5947,-68.5887 1232.3851,-58.4917 1228.5977,-68.3864 1235.5947,-68.5887"/>
<text text-anchor="middle" x="1308" y="-101.4264" font-family="Times,serif" font-size="20.00" fill="#000000">application/pdf</text>
</g>
<!-- SG_2_Node_0 -->
<g id="node27" class="node">
<title>SG_2_Node_0</title>
<polygon fill="none" stroke="#000000" points="2390,-1300.5584 2248,-1300.5584 2248,-1264.5584 2390,-1264.5584 2390,-1300.5584"/>
<text text-anchor="middle" x="2319" y="-1277.5584" font-family="Times,serif" font-size="20.00" fill="#000000">Status&#45;Code</text>
</g>
<!-- SG_2_Node_6 -->
<g id="node28" class="node">
<title>SG_2_Node_6</title>
<ellipse fill="none" stroke="#000000" cx="2255" cy="-1125.3452" rx="34.7971" ry="21.4286"/>
<text text-anchor="middle" x="2255" y="-1120.3452" font-family="Times,serif" font-size="20.00" fill="#000000">0.0</text>
</g>
<!-- SG_2_Node_0&#45;&gt;SG_2_Node_6 -->
<g id="edge25" class="edge">
<title>SG_2_Node_0&#45;&gt;SG_2_Node_6</title>
<path fill="none" stroke="#000000" d="M2297.2079,-1264.363C2286.9493,-1254.5508 2275.5534,-1241.5889 2269,-1227.5584 2258.6725,-1205.4477 2255.3724,-1177.9193 2254.5448,-1157.0034"/>
<polygon fill="#000000" stroke="#000000" points="2258.0378,-1156.6507 2254.3133,-1146.7322 2251.0396,-1156.8085 2258.0378,-1156.6507"/>
<text text-anchor="middle" x="2315" y="-1211.5584" font-family="Times,serif" font-size="20.00" fill="#000000">[NA]</text>
<text text-anchor="middle" x="2315" y="-1189.5584" font-family="Times,serif" font-size="20.00" fill="#000000">62 levels</text>
</g>
<!-- SG_2_Node_1 -->
<g id="node29" class="node">
<title>SG_2_Node_1</title>
<polygon fill="none" stroke="#000000" points="2415.5,-1143.3452 2350.5,-1143.3452 2350.5,-1107.3452 2415.5,-1107.3452 2415.5,-1143.3452"/>
<text text-anchor="middle" x="2383" y="-1120.3452" font-family="Times,serif" font-size="20.00" fill="#000000">body</text>
</g>
<!-- SG_2_Node_0&#45;&gt;SG_2_Node_1 -->
<g id="edge26" class="edge">
<title>SG_2_Node_0&#45;&gt;SG_2_Node_1</title>
<path fill="none" stroke="#000000" d="M2336.4302,-1264.0669C2345.0355,-1253.9839 2354.8619,-1240.8688 2361,-1227.5584 2371.9246,-1203.8686 2377.5168,-1174.5631 2380.3207,-1153.4136"/>
<polygon fill="#000000" stroke="#000000" points="2383.7988,-1153.8046 2381.5154,-1143.4588 2376.8487,-1152.9704 2383.7988,-1153.8046"/>
<text text-anchor="middle" x="2394.5" y="-1200.5584" font-family="Times,serif" font-size="20.00" fill="#000000">200</text>
</g>
<!-- SG_2_Node_7 -->
<g id="node30" class="node">
<title>SG_2_Node_7</title>
<ellipse fill="none" stroke="#000000" cx="2237" cy="-766.9188" rx="34.7971" ry="21.4286"/>
<text text-anchor="middle" x="2237" y="-761.9188" font-family="Times,serif" font-size="20.00" fill="#000000">0.0</text>
</g>
<!-- SG_2_Node_1&#45;&gt;SG_2_Node_7 -->
<g id="edge27" class="edge">
<title>SG_2_Node_1&#45;&gt;SG_2_Node_7</title>
<path fill="none" stroke="#000000" d="M2350.435,-1111.1078C2331.9464,-1101.36 2309.972,-1086.6534 2297,-1067.132 2240.645,-982.324 2235.0347,-856.322 2235.78,-798.2747"/>
<polygon fill="#000000" stroke="#000000" points="2239.2797,-798.3207 2235.9823,-788.2521 2232.2811,-798.1794 2239.2797,-798.3207"/>
<text text-anchor="middle" x="2343" y="-952.132" font-family="Times,serif" font-size="20.00" fill="#000000">[NA]</text>
<text text-anchor="middle" x="2343" y="-930.132" font-family="Times,serif" font-size="20.00" fill="#000000">11 levels</text>
</g>
<!-- SG_2_Node_2 -->
<g id="node31" class="node">
<title>SG_2_Node_2</title>
<polygon fill="none" stroke="#000000" points="2606.5,-784.9188 2289.5,-784.9188 2289.5,-748.9188 2606.5,-748.9188 2606.5,-784.9188"/>
<text text-anchor="middle" x="2448" y="-761.9188" font-family="Times,serif" font-size="20.00" fill="#000000">Cross&#45;Origin&#45;Resource&#45;Policy</text>
</g>
<!-- SG_2_Node_1&#45;&gt;SG_2_Node_2 -->
<g id="edge28" class="edge">
<title>SG_2_Node_1&#45;&gt;SG_2_Node_2</title>
<path fill="none" stroke="#000000" d="M2386.3127,-1107.0781C2396.9185,-1048.5951 2430.0887,-865.6865 2442.8894,-795.0999"/>
<polygon fill="#000000" stroke="#000000" points="2446.3533,-795.6133 2444.6939,-785.1492 2439.4657,-794.3642 2446.3533,-795.6133"/>
<text text-anchor="middle" x="2682.5" y="-941.132" font-family="Times,serif" font-size="20.00" fill="#000000">ecocnt_vid=width=100,height=100,duration=2</text>
</g>
<!-- SG_2_Node_8 -->
<g id="node32" class="node">
<title>SG_2_Node_8</title>
<ellipse fill="none" stroke="#000000" cx="2316" cy="-606.4924" rx="34.7971" ry="21.4286"/>
<text text-anchor="middle" x="2316" y="-601.4924" font-family="Times,serif" font-size="20.00" fill="#000000">0.0</text>
</g>
<!-- SG_2_Node_2&#45;&gt;SG_2_Node_8 -->
<g id="edge29" class="edge">
<title>SG_2_Node_2&#45;&gt;SG_2_Node_8</title>
<path fill="none" stroke="#000000" d="M2385.4483,-748.875C2365.0852,-739.973 2344.3189,-727.0726 2331,-708.7056 2316.2512,-688.3668 2313.1518,-659.6827 2313.369,-637.8757"/>
<polygon fill="#000000" stroke="#000000" points="2316.8701,-637.9007 2313.7056,-627.7895 2309.8739,-637.6672 2316.8701,-637.9007"/>
<text text-anchor="middle" x="2392" y="-681.7056" font-family="Times,serif" font-size="20.00" fill="#000000">same&#45;origin</text>
</g>
<!-- SG_2_Node_3 -->
<g id="node33" class="node">
<title>SG_2_Node_3</title>
<polygon fill="none" stroke="#000000" points="2551.5,-624.4924 2396.5,-624.4924 2396.5,-588.4924 2551.5,-588.4924 2551.5,-624.4924"/>
<text text-anchor="middle" x="2474" y="-601.4924" font-family="Times,serif" font-size="20.00" fill="#000000">Content&#45;Type</text>
</g>
<!-- SG_2_Node_2&#45;&gt;SG_2_Node_3 -->
<g id="edge30" class="edge">
<title>SG_2_Node_2&#45;&gt;SG_2_Node_3</title>
<path fill="none" stroke="#000000" d="M2450.932,-748.8277C2455.4378,-721.0255 2464.1016,-667.5683 2469.434,-634.6655"/>
<polygon fill="#000000" stroke="#000000" points="2472.8939,-635.1947 2471.0388,-624.7636 2465.984,-634.0748 2472.8939,-635.1947"/>
<text text-anchor="middle" x="2496" y="-692.7056" font-family="Times,serif" font-size="20.00" fill="#000000">[NA]</text>
<text text-anchor="middle" x="2496" y="-670.7056" font-family="Times,serif" font-size="20.00" fill="#000000">empty</text>
</g>
<!-- SG_2_Node_4 -->
<g id="node34" class="node">
<title>SG_2_Node_4</title>
<polygon fill="none" stroke="#000000" points="2467,-354.066 2205,-354.066 2205,-318.066 2467,-318.066 2467,-354.066"/>
<text text-anchor="middle" x="2336" y="-331.066" font-family="Times,serif" font-size="20.00" fill="#000000">X&#45;Content&#45;Type&#45;Options</text>
</g>
<!-- SG_2_Node_3&#45;&gt;SG_2_Node_4 -->
<g id="edge31" class="edge">
<title>SG_2_Node_3&#45;&gt;SG_2_Node_4</title>
<path fill="none" stroke="#000000" d="M2396.1994,-591.208C2372.8959,-582.6054 2349.873,-569.1881 2336,-548.2792 2298.6471,-491.9821 2314.808,-407.4474 2326.9826,-364.0173"/>
<polygon fill="#000000" stroke="#000000" points="2330.4203,-364.7328 2329.8806,-354.1517 2323.704,-362.7599 2330.4203,-364.7328"/>
<text text-anchor="middle" x="2413" y="-477.2792" font-family="Times,serif" font-size="20.00" fill="#000000">application/pdf</text>
<text text-anchor="middle" x="2413" y="-455.2792" font-family="Times,serif" font-size="20.00" fill="#000000">text/html</text>
</g>
<!-- SG_2_Node_9 -->
<g id="node35" class="node">
<title>SG_2_Node_9</title>
<ellipse fill="none" stroke="#000000" cx="2526" cy="-336.066" rx="34.7971" ry="21.4286"/>
<text text-anchor="middle" x="2526" y="-331.066" font-family="Times,serif" font-size="20.00" fill="#000000">1.0</text>
</g>
<!-- SG_2_Node_3&#45;&gt;SG_2_Node_9 -->
<g id="edge32" class="edge">
<title>SG_2_Node_3&#45;&gt;SG_2_Node_9</title>
<path fill="none" stroke="#000000" d="M2481.1685,-588.393C2485.4304,-577.0288 2490.6429,-561.9798 2494,-548.2792 2509.4988,-485.027 2518.7508,-409.2223 2523.0612,-367.4909"/>
<polygon fill="#000000" stroke="#000000" points="2526.5579,-367.6981 2524.0754,-357.3982 2519.593,-366.9981 2526.5579,-367.6981"/>
<text text-anchor="middle" x="2630" y="-532.2792" font-family="Times,serif" font-size="20.00" fill="#000000">[NA]</text>
<text text-anchor="middle" x="2630" y="-510.2792" font-family="Times,serif" font-size="20.00" fill="#000000">application/javascript</text>
<text text-anchor="middle" x="2630" y="-488.2792" font-family="Times,serif" font-size="20.00" fill="#000000">audio/wav</text>
<text text-anchor="middle" x="2630" y="-466.2792" font-family="Times,serif" font-size="20.00" fill="#000000">empty</text>
<text text-anchor="middle" x="2630" y="-444.2792" font-family="Times,serif" font-size="20.00" fill="#000000">image/png</text>
<text text-anchor="middle" x="2630" y="-422.2792" font-family="Times,serif" font-size="20.00" fill="#000000">text/css</text>
<text text-anchor="middle" x="2630" y="-400.2792" font-family="Times,serif" font-size="20.00" fill="#000000">video/mp4</text>
</g>
<!-- SG_2_Node_10 -->
<g id="node36" class="node">
<title>SG_2_Node_10</title>
<ellipse fill="none" stroke="#000000" cx="2241" cy="-175.6396" rx="34.7971" ry="21.4286"/>
<text text-anchor="middle" x="2241" y="-170.6396" font-family="Times,serif" font-size="20.00" fill="#000000">0.0</text>
</g>
<!-- SG_2_Node_4&#45;&gt;SG_2_Node_10 -->
<g id="edge33" class="edge">
<title>SG_2_Node_4&#45;&gt;SG_2_Node_10</title>
<path fill="none" stroke="#000000" d="M2311.3609,-317.9322C2298.6488,-307.4612 2283.7963,-293.32 2274,-277.8528 2260.1951,-256.0565 2251.6729,-227.9637 2246.7557,-206.7472"/>
<polygon fill="#000000" stroke="#000000" points="2250.1686,-205.9702 2244.624,-196.942 2243.3284,-207.4573 2250.1686,-205.9702"/>
<text text-anchor="middle" x="2309" y="-250.8528" font-family="Times,serif" font-size="20.00" fill="#000000">nosniff</text>
</g>
<!-- SG_2_Node_5 -->
<g id="node37" class="node">
<title>SG_2_Node_5</title>
<polygon fill="none" stroke="#000000" points="2448.5,-193.6396 2293.5,-193.6396 2293.5,-157.6396 2448.5,-157.6396 2448.5,-193.6396"/>
<text text-anchor="middle" x="2371" y="-170.6396" font-family="Times,serif" font-size="20.00" fill="#000000">Content&#45;Type</text>
</g>
<!-- SG_2_Node_4&#45;&gt;SG_2_Node_5 -->
<g id="edge34" class="edge">
<title>SG_2_Node_4&#45;&gt;SG_2_Node_5</title>
<path fill="none" stroke="#000000" d="M2339.9469,-317.9749C2346.0125,-290.1727 2357.6752,-236.7154 2364.8535,-203.8126"/>
<polygon fill="#000000" stroke="#000000" points="2368.3018,-204.427 2367.0138,-193.9107 2361.4626,-202.9349 2368.3018,-204.427"/>
<text text-anchor="middle" x="2390" y="-261.8528" font-family="Times,serif" font-size="20.00" fill="#000000">[NA]</text>
<text text-anchor="middle" x="2390" y="-239.8528" font-family="Times,serif" font-size="20.00" fill="#000000">empty</text>
</g>
<!-- SG_2_Node_11 -->
<g id="node38" class="node">
<title>SG_2_Node_11</title>
<ellipse fill="none" stroke="#000000" cx="2291" cy="-37.2132" rx="34.7971" ry="21.4286"/>
<text text-anchor="middle" x="2291" y="-32.2132" font-family="Times,serif" font-size="20.00" fill="#000000">0.0</text>
</g>
<!-- SG_2_Node_5&#45;&gt;SG_2_Node_11 -->
<g id="edge35" class="edge">
<title>SG_2_Node_5&#45;&gt;SG_2_Node_11</title>
<path fill="none" stroke="#000000" d="M2342.8303,-157.6053C2329.27,-147.4445 2314.0314,-133.5573 2305,-117.4264 2296.7516,-102.6941 2293.1525,-84.2485 2291.6597,-68.7612"/>
<polygon fill="#000000" stroke="#000000" points="2295.1371,-68.3184 2290.9316,-58.5939 2288.155,-68.8185 2295.1371,-68.3184"/>
<text text-anchor="middle" x="2382" y="-101.4264" font-family="Times,serif" font-size="20.00" fill="#000000">application/pdf</text>
</g>
<!-- SG_2_Node_12 -->
<g id="node39" class="node">
<title>SG_2_Node_12</title>
<ellipse fill="none" stroke="#000000" cx="2481" cy="-37.2132" rx="34.7971" ry="21.4286"/>
<text text-anchor="middle" x="2481" y="-32.2132" font-family="Times,serif" font-size="20.00" fill="#000000">1.0</text>
</g>
<!-- SG_2_Node_5&#45;&gt;SG_2_Node_12 -->
<g id="edge36" class="edge">
<title>SG_2_Node_5&#45;&gt;SG_2_Node_12</title>
<path fill="none" stroke="#000000" d="M2410.4314,-157.6387C2427.6264,-147.9647 2446.6399,-134.4849 2459,-117.4264 2469.3558,-103.1341 2474.838,-84.2043 2477.7396,-68.3234"/>
<polygon fill="#000000" stroke="#000000" points="2481.203,-68.8294 2479.299,-58.4071 2474.2879,-67.7419 2481.203,-68.8294"/>
<text text-anchor="middle" x="2517" y="-101.4264" font-family="Times,serif" font-size="20.00" fill="#000000">text/html</text>
</g>
</g>
</svg>
