<?xml version="1.0" encoding="UTF-8" standalone="no"?>
<!DOCTYPE svg PUBLIC "-//W3C//DTD SVG 1.1//EN"
 "http://www.w3.org/Graphics/SVG/1.1/DTD/svg11.dtd">
<!-- Generated by graphviz version 2.40.1 (20161225.0304)
 -->
<!-- Title: G Pages: 1 -->
<svg width="917pt" height="1559pt"
 viewBox="0.00 0.00 917.00 1558.98" xmlns="http://www.w3.org/2000/svg" xmlns:xlink="http://www.w3.org/1999/xlink">
<g id="graph0" class="graph" transform="scale(1 1) rotate(0) translate(4 1554.9848)">
<title>G</title>
<polygon fill="#ffffff" stroke="transparent" points="-4,4 -4,-1554.9848 913,-1554.9848 913,4 -4,4"/>
<g id="clust1" class="cluster">
<title>cluster_0</title>
<polygon fill="none" stroke="#000000" points="8,-8 8,-1542.9848 893,-1542.9848 893,-8 8,-8"/>
<text text-anchor="middle" x="450.5" y="-1506.9848" font-family="Times,serif" font-size="40.00" fill="#000000">Tree 0, Class False</text>
</g>
<!-- SG_0_Node_0 -->
<g id="node1" class="node">
<title>SG_0_Node_0</title>
<polygon fill="none" stroke="#000000" points="176,-1482.9848 34,-1482.9848 34,-1446.9848 176,-1446.9848 176,-1482.9848"/>
<text text-anchor="middle" x="105" y="-1459.9848" font-family="Times,serif" font-size="20.00" fill="#000000">Status&#45;Code</text>
</g>
<!-- SG_0_Node_1 -->
<g id="node2" class="node">
<title>SG_0_Node_1</title>
<polygon fill="none" stroke="#000000" points="109.5,-1325.7716 44.5,-1325.7716 44.5,-1289.7716 109.5,-1289.7716 109.5,-1325.7716"/>
<text text-anchor="middle" x="77" y="-1302.7716" font-family="Times,serif" font-size="20.00" fill="#000000">body</text>
</g>
<!-- SG_0_Node_0&#45;&gt;SG_0_Node_1 -->
<g id="edge1" class="edge">
<title>SG_0_Node_0&#45;&gt;SG_0_Node_1</title>
<path fill="none" stroke="#000000" d="M101.788,-1446.9505C96.9613,-1419.8495 87.7936,-1368.3753 82.0617,-1336.1917"/>
<polygon fill="#000000" stroke="#000000" points="85.46,-1335.3113 80.2607,-1326.0799 78.5685,-1336.5387 85.46,-1335.3113"/>
<text text-anchor="middle" x="114.5" y="-1393.9848" font-family="Times,serif" font-size="20.00" fill="#000000">202</text>
<text text-anchor="middle" x="114.5" y="-1371.9848" font-family="Times,serif" font-size="20.00" fill="#000000">204</text>
</g>
<!-- SG_0_Node_8 -->
<g id="node3" class="node">
<title>SG_0_Node_8</title>
<ellipse fill="none" stroke="#000000" cx="162" cy="-1307.7716" rx="34.7971" ry="21.4286"/>
<text text-anchor="middle" x="162" y="-1302.7716" font-family="Times,serif" font-size="20.00" fill="#000000">1.0</text>
</g>
<!-- SG_0_Node_0&#45;&gt;SG_0_Node_8 -->
<g id="edge2" class="edge">
<title>SG_0_Node_0&#45;&gt;SG_0_Node_8</title>
<path fill="none" stroke="#000000" d="M117.3467,-1446.8269C123.9596,-1436.419 131.7929,-1422.8937 137,-1409.9848 146.2531,-1387.0456 152.7116,-1359.7788 156.7433,-1339.1791"/>
<polygon fill="#000000" stroke="#000000" points="160.2353,-1339.5456 158.6323,-1329.0728 153.3545,-1338.2595 160.2353,-1339.5456"/>
<text text-anchor="middle" x="196" y="-1393.9848" font-family="Times,serif" font-size="20.00" fill="#000000">[NA]</text>
<text text-anchor="middle" x="196" y="-1371.9848" font-family="Times,serif" font-size="20.00" fill="#000000">61 levels</text>
</g>
<!-- SG_0_Node_2 -->
<g id="node4" class="node">
<title>SG_0_Node_2</title>
<polygon fill="none" stroke="#000000" points="242.5,-967.3452 87.5,-967.3452 87.5,-931.3452 242.5,-931.3452 242.5,-967.3452"/>
<text text-anchor="middle" x="165" y="-944.3452" font-family="Times,serif" font-size="20.00" fill="#000000">Content&#45;Type</text>
</g>
<!-- SG_0_Node_1&#45;&gt;SG_0_Node_2 -->
<g id="edge3" class="edge">
<title>SG_0_Node_1&#45;&gt;SG_0_Node_2</title>
<path fill="none" stroke="#000000" d="M65.2831,-1289.7311C58.7877,-1278.6351 51.3619,-1263.8467 48,-1249.5584 23.3655,-1144.862 -8.6351,-1098.9951 48,-1007.5584 57.6768,-991.9354 72.9432,-980.3709 89.2933,-971.8608"/>
<polygon fill="#000000" stroke="#000000" points="90.9723,-974.9369 98.4595,-967.4407 87.9318,-968.6316 90.9723,-974.9369"/>
<text text-anchor="middle" x="182.5" y="-1134.5584" font-family="Times,serif" font-size="20.00" fill="#000000">ecocnt_audio=duration=1</text>
<text text-anchor="middle" x="182.5" y="-1112.5584" font-family="Times,serif" font-size="20.00" fill="#000000">ecocnt_js=var a=5;</text>
</g>
<!-- SG_0_Node_9 -->
<g id="node5" class="node">
<title>SG_0_Node_9</title>
<ellipse fill="none" stroke="#000000" cx="339" cy="-949.3452" rx="34.7971" ry="21.4286"/>
<text text-anchor="middle" x="339" y="-944.3452" font-family="Times,serif" font-size="20.00" fill="#000000">1.0</text>
</g>
<!-- SG_0_Node_1&#45;&gt;SG_0_Node_9 -->
<g id="edge4" class="edge">
<title>SG_0_Node_1&#45;&gt;SG_0_Node_9</title>
<path fill="none" stroke="#000000" d="M109.7496,-1289.7743C112.4989,-1288.5879 115.2711,-1287.4951 118,-1286.5584 203.0872,-1257.3523 257.0044,-1316.591 317,-1249.5584 384.566,-1174.0675 362.417,-1040.7519 347.6834,-980.4796"/>
<polygon fill="#000000" stroke="#000000" points="350.9874,-979.2703 345.1308,-970.4414 344.2033,-980.9955 350.9874,-979.2703"/>
<text text-anchor="middle" x="636" y="-1233.5584" font-family="Times,serif" font-size="20.00" fill="#000000">[NA]</text>
<text text-anchor="middle" x="636" y="-1211.5584" font-family="Times,serif" font-size="20.00" fill="#000000">ecocnt_css=h1 {color: blue}</text>
<text text-anchor="middle" x="636" y="-1189.5584" font-family="Times,serif" font-size="20.00" fill="#000000">ecocnt_html=meta_refresh=0;http://172.17.0.1:8000</text>
<text text-anchor="middle" x="636" y="-1167.5584" font-family="Times,serif" font-size="20.00" fill="#000000">ecocnt_html=num_frames=1,input_id=test1</text>
<text text-anchor="middle" x="636" y="-1145.5584" font-family="Times,serif" font-size="20.00" fill="#000000">ecocnt_html=num_frames=2</text>
<text text-anchor="middle" x="636" y="-1123.5584" font-family="Times,serif" font-size="20.00" fill="#000000">ecocnt_html=post_message=mes1</text>
<text text-anchor="middle" x="636" y="-1101.5584" font-family="Times,serif" font-size="20.00" fill="#000000">ecocnt_img=width=50,height=50,type=png</text>
<text text-anchor="middle" x="636" y="-1079.5584" font-family="Times,serif" font-size="20.00" fill="#000000">ecocnt_js=.,,.</text>
<text text-anchor="middle" x="636" y="-1057.5584" font-family="Times,serif" font-size="20.00" fill="#000000">ecocnt_pdf=a=a</text>
<text text-anchor="middle" x="636" y="-1035.5584" font-family="Times,serif" font-size="20.00" fill="#000000">ecocnt_vid=width=100,height=100,duration=2</text>
<text text-anchor="middle" x="636" y="-1013.5584" font-family="Times,serif" font-size="20.00" fill="#000000">empty</text>
</g>
<!-- SG_0_Node_3 -->
<g id="node6" class="node">
<title>SG_0_Node_3</title>
<polygon fill="none" stroke="#000000" points="260.5,-696.9188 69.5,-696.9188 69.5,-660.9188 260.5,-660.9188 260.5,-696.9188"/>
<text text-anchor="middle" x="165" y="-673.9188" font-family="Times,serif" font-size="20.00" fill="#000000">X&#45;Frame&#45;Options</text>
</g>
<!-- SG_0_Node_2&#45;&gt;SG_0_Node_3 -->
<g id="edge5" class="edge">
<title>SG_0_Node_2&#45;&gt;SG_0_Node_3</title>
<path fill="none" stroke="#000000" d="M165,-931.1819C165,-884.9966 165,-762.8048 165,-707.1951"/>
<polygon fill="#000000" stroke="#000000" points="168.5001,-707.0031 165,-697.0031 161.5001,-707.0032 168.5001,-707.0031"/>
<text text-anchor="middle" x="219.5" y="-820.132" font-family="Times,serif" font-size="20.00" fill="#000000">image/png</text>
<text text-anchor="middle" x="219.5" y="-798.132" font-family="Times,serif" font-size="20.00" fill="#000000">text/html</text>
</g>
<!-- SG_0_Node_10 -->
<g id="node7" class="node">
<title>SG_0_Node_10</title>
<ellipse fill="none" stroke="#000000" cx="313" cy="-678.9188" rx="34.7971" ry="21.4286"/>
<text text-anchor="middle" x="313" y="-673.9188" font-family="Times,serif" font-size="20.00" fill="#000000">1.0</text>
</g>
<!-- SG_0_Node_2&#45;&gt;SG_0_Node_10 -->
<g id="edge6" class="edge">
<title>SG_0_Node_2&#45;&gt;SG_0_Node_10</title>
<path fill="none" stroke="#000000" d="M224.0954,-931.2485C244.1217,-922.268 264.7518,-909.33 278,-891.132 317.2862,-837.1679 318.7726,-755.093 316.0932,-710.479"/>
<polygon fill="#000000" stroke="#000000" points="319.5659,-709.9702 315.3643,-700.2441 312.5836,-710.4675 319.5659,-709.9702"/>
<text text-anchor="middle" x="427" y="-875.132" font-family="Times,serif" font-size="20.00" fill="#000000">[NA]</text>
<text text-anchor="middle" x="427" y="-853.132" font-family="Times,serif" font-size="20.00" fill="#000000">application/javascript</text>
<text text-anchor="middle" x="427" y="-831.132" font-family="Times,serif" font-size="20.00" fill="#000000">application/pdf</text>
<text text-anchor="middle" x="427" y="-809.132" font-family="Times,serif" font-size="20.00" fill="#000000">audio/wav</text>
<text text-anchor="middle" x="427" y="-787.132" font-family="Times,serif" font-size="20.00" fill="#000000">empty</text>
<text text-anchor="middle" x="427" y="-765.132" font-family="Times,serif" font-size="20.00" fill="#000000">text/css</text>
<text text-anchor="middle" x="427" y="-743.132" font-family="Times,serif" font-size="20.00" fill="#000000">video/mp4</text>
</g>
<!-- SG_0_Node_4 -->
<g id="node8" class="node">
<title>SG_0_Node_4</title>
<polygon fill="none" stroke="#000000" points="275.5,-536.4924 54.5,-536.4924 54.5,-500.4924 275.5,-500.4924 275.5,-536.4924"/>
<text text-anchor="middle" x="165" y="-513.4924" font-family="Times,serif" font-size="20.00" fill="#000000">Content&#45;Disposition</text>
</g>
<!-- SG_0_Node_3&#45;&gt;SG_0_Node_4 -->
<g id="edge7" class="edge">
<title>SG_0_Node_3&#45;&gt;SG_0_Node_4</title>
<path fill="none" stroke="#000000" d="M165,-660.8277C165,-633.1459 165,-580.0306 165,-547.0939"/>
<polygon fill="#000000" stroke="#000000" points="168.5001,-546.7635 165,-536.7636 161.5001,-546.7636 168.5001,-546.7635"/>
<text text-anchor="middle" x="197" y="-593.7056" font-family="Times,serif" font-size="20.00" fill="#000000">empty</text>
</g>
<!-- SG_0_Node_11 -->
<g id="node9" class="node">
<title>SG_0_Node_11</title>
<ellipse fill="none" stroke="#000000" cx="328" cy="-518.4924" rx="34.7971" ry="21.4286"/>
<text text-anchor="middle" x="328" y="-513.4924" font-family="Times,serif" font-size="20.00" fill="#000000">1.0</text>
</g>
<!-- SG_0_Node_3&#45;&gt;SG_0_Node_11 -->
<g id="edge8" class="edge">
<title>SG_0_Node_3&#45;&gt;SG_0_Node_11</title>
<path fill="none" stroke="#000000" d="M187.6115,-660.6622C201.1181,-649.4896 218.4258,-634.6966 233,-620.7056 258.57,-596.1588 285.9427,-566.2837 304.7055,-545.1886"/>
<polygon fill="#000000" stroke="#000000" points="307.4476,-547.3713 311.4533,-537.5629 302.2053,-542.7325 307.4476,-547.3713"/>
<text text-anchor="middle" x="300" y="-604.7056" font-family="Times,serif" font-size="20.00" fill="#000000">[NA]</text>
<text text-anchor="middle" x="300" y="-582.7056" font-family="Times,serif" font-size="20.00" fill="#000000">deny</text>
</g>
<!-- SG_0_Node_5 -->
<g id="node10" class="node">
<title>SG_0_Node_5</title>
<polygon fill="none" stroke="#000000" points="314,-376.066 16,-376.066 16,-340.066 314,-340.066 314,-376.066"/>
<text text-anchor="middle" x="165" y="-353.066" font-family="Times,serif" font-size="20.00" fill="#000000">Cross&#45;Origin&#45;Opener&#45;Policy</text>
</g>
<!-- SG_0_Node_4&#45;&gt;SG_0_Node_5 -->
<g id="edge9" class="edge">
<title>SG_0_Node_4&#45;&gt;SG_0_Node_5</title>
<path fill="none" stroke="#000000" d="M165,-500.4013C165,-472.7194 165,-419.6042 165,-386.6675"/>
<polygon fill="#000000" stroke="#000000" points="168.5001,-386.3371 165,-376.3371 161.5001,-386.3372 168.5001,-386.3371"/>
<text text-anchor="middle" x="224" y="-433.2792" font-family="Times,serif" font-size="20.00" fill="#000000">attachment</text>
</g>
<!-- SG_0_Node_12 -->
<g id="node11" class="node">
<title>SG_0_Node_12</title>
<ellipse fill="none" stroke="#000000" cx="367" cy="-358.066" rx="34.7971" ry="21.4286"/>
<text text-anchor="middle" x="367" y="-353.066" font-family="Times,serif" font-size="20.00" fill="#000000">1.0</text>
</g>
<!-- SG_0_Node_4&#45;&gt;SG_0_Node_12 -->
<g id="edge10" class="edge">
<title>SG_0_Node_4&#45;&gt;SG_0_Node_12</title>
<path fill="none" stroke="#000000" d="M215.7993,-500.4601C238.9557,-490.7436 265.8546,-477.2378 287,-460.2792 312.6479,-439.7097 335.0458,-409.3867 349.5677,-387.1086"/>
<polygon fill="#000000" stroke="#000000" points="352.6908,-388.7202 355.1094,-378.4051 346.7861,-384.9605 352.6908,-388.7202"/>
<text text-anchor="middle" x="360" y="-444.2792" font-family="Times,serif" font-size="20.00" fill="#000000">[NA]</text>
<text text-anchor="middle" x="360" y="-422.2792" font-family="Times,serif" font-size="20.00" fill="#000000">empty</text>
</g>
<!-- SG_0_Node_6 -->
<g id="node12" class="node">
<title>SG_0_Node_6</title>
<polygon fill="none" stroke="#000000" points="169.5,-215.6396 64.5,-215.6396 64.5,-179.6396 169.5,-179.6396 169.5,-215.6396"/>
<text text-anchor="middle" x="117" y="-192.6396" font-family="Times,serif" font-size="20.00" fill="#000000">Location</text>
</g>
<!-- SG_0_Node_5&#45;&gt;SG_0_Node_6 -->
<g id="edge11" class="edge">
<title>SG_0_Node_5&#45;&gt;SG_0_Node_6</title>
<path fill="none" stroke="#000000" d="M151.8364,-339.8378C144.5211,-328.7948 135.9263,-314.1247 131,-299.8528 122.6891,-275.7754 119.2915,-246.9062 117.9131,-225.9992"/>
<polygon fill="#000000" stroke="#000000" points="121.3996,-225.6544 117.361,-215.8595 114.4099,-226.0351 121.3996,-225.6544"/>
<text text-anchor="middle" x="192" y="-272.8528" font-family="Times,serif" font-size="20.00" fill="#000000">same&#45;origin</text>
</g>
<!-- SG_0_Node_13 -->
<g id="node13" class="node">
<title>SG_0_Node_13</title>
<ellipse fill="none" stroke="#000000" cx="275" cy="-197.6396" rx="34.7971" ry="21.4286"/>
<text text-anchor="middle" x="275" y="-192.6396" font-family="Times,serif" font-size="20.00" fill="#000000">1.0</text>
</g>
<!-- SG_0_Node_5&#45;&gt;SG_0_Node_13 -->
<g id="edge12" class="edge">
<title>SG_0_Node_5&#45;&gt;SG_0_Node_13</title>
<path fill="none" stroke="#000000" d="M205.7713,-339.8673C222.8123,-330.2916 241.3262,-316.9463 253,-299.8528 267.1871,-279.0793 272.4611,-250.8426 274.3146,-229.311"/>
<polygon fill="#000000" stroke="#000000" points="277.8262,-229.2478 274.9876,-219.0403 270.8412,-228.79 277.8262,-229.2478"/>
<text text-anchor="middle" x="302" y="-283.8528" font-family="Times,serif" font-size="20.00" fill="#000000">[NA]</text>
<text text-anchor="middle" x="302" y="-261.8528" font-family="Times,serif" font-size="20.00" fill="#000000">empty</text>
</g>
<!-- SG_0_Node_14 -->
<g id="node14" class="node">
<title>SG_0_Node_14</title>
<ellipse fill="none" stroke="#000000" cx="92" cy="-37.2132" rx="52.1524" ry="21.4286"/>
<text text-anchor="middle" x="92" y="-32.2132" font-family="Times,serif" font-size="20.00" fill="#000000">0.938</text>
</g>
<!-- SG_0_Node_6&#45;&gt;SG_0_Node_14 -->
<g id="edge13" class="edge">
<title>SG_0_Node_6&#45;&gt;SG_0_Node_14</title>
<path fill="none" stroke="#000000" d="M114.1808,-179.5485C109.9865,-152.6336 102.0454,-101.6751 96.8908,-68.5978"/>
<polygon fill="#000000" stroke="#000000" points="100.3215,-67.8817 95.3234,-58.5399 93.405,-68.9596 100.3215,-67.8817"/>
<text text-anchor="middle" x="139" y="-112.4264" font-family="Times,serif" font-size="20.00" fill="#000000">empty</text>
</g>
<!-- SG_0_Node_15 -->
<g id="node15" class="node">
<title>SG_0_Node_15</title>
<ellipse fill="none" stroke="#000000" cx="197" cy="-37.2132" rx="34.7971" ry="21.4286"/>
<text text-anchor="middle" x="197" y="-32.2132" font-family="Times,serif" font-size="20.00" fill="#000000">1.0</text>
</g>
<!-- SG_0_Node_6&#45;&gt;SG_0_Node_15 -->
<g id="edge14" class="edge">
<title>SG_0_Node_6&#45;&gt;SG_0_Node_15</title>
<path fill="none" stroke="#000000" d="M139.4025,-179.6058C151.0739,-169.0641 164.6217,-154.8241 173,-139.4264 184.9247,-117.5111 190.9588,-89.811 193.9924,-68.7768"/>
<polygon fill="#000000" stroke="#000000" points="197.478,-69.1123 195.2869,-58.7466 190.5356,-68.2163 197.478,-69.1123"/>
<text text-anchor="middle" x="303" y="-123.4264" font-family="Times,serif" font-size="20.00" fill="#000000">[NA]</text>
<text text-anchor="middle" x="303" y="-101.4264" font-family="Times,serif" font-size="20.00" fill="#000000">http://172.17.0.1:8000</text>
</g>
</g>
</svg>
