<?xml version="1.0" encoding="UTF-8" standalone="no"?>
<!DOCTYPE svg PUBLIC "-//W3C//DTD SVG 1.1//EN"
 "http://www.w3.org/Graphics/SVG/1.1/DTD/svg11.dtd">
<!-- Generated by graphviz version 2.40.1 (20161225.0304)
 -->
<!-- Title: G Pages: 1 -->
<svg width="1348pt" height="1785pt"
 viewBox="0.00 0.00 1348.00 1785.41" xmlns="http://www.w3.org/2000/svg" xmlns:xlink="http://www.w3.org/1999/xlink">
<g id="graph0" class="graph" transform="scale(1 1) rotate(0) translate(4 1781.4113)">
<title>G</title>
<polygon fill="#ffffff" stroke="transparent" points="-4,4 -4,-1781.4113 1344,-1781.4113 1344,4 -4,4"/>
<g id="clust1" class="cluster">
<title>cluster_0</title>
<polygon fill="none" stroke="#000000" points="8,-8 8,-1769.4113 1332,-1769.4113 1332,-8 8,-8"/>
<text text-anchor="middle" x="670" y="-1733.4113" font-family="Times,serif" font-size="40.00" fill="#000000">Tree 0, Class [&#39;Message: mes1 Origin: https://172.17.0.1:44300&#39;]</text>
</g>
<!-- SG_0_Node_0 -->
<g id="node1" class="node">
<title>SG_0_Node_0</title>
<polygon fill="none" stroke="#000000" points="211.5,-1709.4113 146.5,-1709.4113 146.5,-1673.4113 211.5,-1673.4113 211.5,-1709.4113"/>
<text text-anchor="middle" x="179" y="-1686.4113" font-family="Times,serif" font-size="20.00" fill="#000000">body</text>
</g>
<!-- SG_0_Node_11 -->
<g id="node2" class="node">
<title>SG_0_Node_11</title>
<ellipse fill="none" stroke="#000000" cx="115" cy="-1534.1981" rx="34.7971" ry="21.4286"/>
<text text-anchor="middle" x="115" y="-1529.1981" font-family="Times,serif" font-size="20.00" fill="#000000">0.0</text>
</g>
<!-- SG_0_Node_0&#45;&gt;SG_0_Node_11 -->
<g id="edge1" class="edge">
<title>SG_0_Node_0&#45;&gt;SG_0_Node_11</title>
<path fill="none" stroke="#000000" d="M157.7021,-1673.1101C147.6635,-1663.271 136.4912,-1650.3169 130,-1636.4113 119.6634,-1614.268 116.0807,-1586.7418 114.9906,-1565.8349"/>
<polygon fill="#000000" stroke="#000000" points="118.4788,-1565.4381 114.6252,-1555.5689 111.4832,-1565.6871 118.4788,-1565.4381"/>
<text text-anchor="middle" x="176" y="-1620.4113" font-family="Times,serif" font-size="20.00" fill="#000000">[NA]</text>
<text text-anchor="middle" x="176" y="-1598.4113" font-family="Times,serif" font-size="20.00" fill="#000000">11 levels</text>
</g>
<!-- SG_0_Node_1 -->
<g id="node3" class="node">
<title>SG_0_Node_1</title>
<polygon fill="none" stroke="#000000" points="322.5,-1552.1981 167.5,-1552.1981 167.5,-1516.1981 322.5,-1516.1981 322.5,-1552.1981"/>
<text text-anchor="middle" x="245" y="-1529.1981" font-family="Times,serif" font-size="20.00" fill="#000000">Content&#45;Type</text>
</g>
<!-- SG_0_Node_0&#45;&gt;SG_0_Node_1 -->
<g id="edge2" class="edge">
<title>SG_0_Node_0&#45;&gt;SG_0_Node_1</title>
<path fill="none" stroke="#000000" d="M196.8067,-1672.963C205.6064,-1662.8919 215.6689,-1649.7744 222,-1636.4113 233.1923,-1612.7874 239.0668,-1583.4737 242.0668,-1562.3044"/>
<polygon fill="#000000" stroke="#000000" points="245.5441,-1562.7047 243.3531,-1552.3389 238.6017,-1561.8086 245.5441,-1562.7047"/>
<text text-anchor="middle" x="415" y="-1609.4113" font-family="Times,serif" font-size="20.00" fill="#000000">ecocnt_html=post_message=mes1</text>
</g>
<!-- SG_0_Node_12 -->
<g id="node4" class="node">
<title>SG_0_Node_12</title>
<ellipse fill="none" stroke="#000000" cx="82" cy="-1263.7716" rx="34.7971" ry="21.4286"/>
<text text-anchor="middle" x="82" y="-1258.7716" font-family="Times,serif" font-size="20.00" fill="#000000">0.0</text>
</g>
<!-- SG_0_Node_1&#45;&gt;SG_0_Node_12 -->
<g id="edge3" class="edge">
<title>SG_0_Node_1&#45;&gt;SG_0_Node_12</title>
<path fill="none" stroke="#000000" d="M184.0776,-1516.1565C140.4464,-1502.6237 88.3181,-1484.9502 82,-1475.9848 43.8024,-1421.7826 59.3143,-1338.9018 71.8952,-1294.4582"/>
<polygon fill="#000000" stroke="#000000" points="75.2706,-1295.3861 74.755,-1284.8038 68.5589,-1293.3979 75.2706,-1295.3861"/>
<text text-anchor="middle" x="193" y="-1459.9848" font-family="Times,serif" font-size="20.00" fill="#000000">[NA]</text>
<text text-anchor="middle" x="193" y="-1437.9848" font-family="Times,serif" font-size="20.00" fill="#000000">application/javascript</text>
<text text-anchor="middle" x="193" y="-1415.9848" font-family="Times,serif" font-size="20.00" fill="#000000">application/pdf</text>
<text text-anchor="middle" x="193" y="-1393.9848" font-family="Times,serif" font-size="20.00" fill="#000000">audio/wav</text>
<text text-anchor="middle" x="193" y="-1371.9848" font-family="Times,serif" font-size="20.00" fill="#000000">image/png</text>
<text text-anchor="middle" x="193" y="-1349.9848" font-family="Times,serif" font-size="20.00" fill="#000000">text/css</text>
<text text-anchor="middle" x="193" y="-1327.9848" font-family="Times,serif" font-size="20.00" fill="#000000">video/mp4</text>
</g>
<!-- SG_0_Node_2 -->
<g id="node5" class="node">
<title>SG_0_Node_2</title>
<polygon fill="none" stroke="#000000" points="450.5,-1281.7716 229.5,-1281.7716 229.5,-1245.7716 450.5,-1245.7716 450.5,-1281.7716"/>
<text text-anchor="middle" x="340" y="-1258.7716" font-family="Times,serif" font-size="20.00" fill="#000000">Content&#45;Disposition</text>
</g>
<!-- SG_0_Node_1&#45;&gt;SG_0_Node_2 -->
<g id="edge4" class="edge">
<title>SG_0_Node_1&#45;&gt;SG_0_Node_2</title>
<path fill="none" stroke="#000000" d="M272.0428,-1515.9896C285.0273,-1505.7827 299.5632,-1491.9069 308,-1475.9848 339.6149,-1416.3208 342.5052,-1334.7827 341.4963,-1292.24"/>
<polygon fill="#000000" stroke="#000000" points="344.9883,-1291.9359 341.1606,-1282.0567 337.9921,-1292.1667 344.9883,-1291.9359"/>
<text text-anchor="middle" x="388" y="-1404.9848" font-family="Times,serif" font-size="20.00" fill="#000000">empty</text>
<text text-anchor="middle" x="388" y="-1382.9848" font-family="Times,serif" font-size="20.00" fill="#000000">text/html</text>
</g>
<!-- SG_0_Node_13 -->
<g id="node6" class="node">
<title>SG_0_Node_13</title>
<ellipse fill="none" stroke="#000000" cx="244" cy="-1103.3452" rx="34.7971" ry="21.4286"/>
<text text-anchor="middle" x="244" y="-1098.3452" font-family="Times,serif" font-size="20.00" fill="#000000">0.0</text>
</g>
<!-- SG_0_Node_2&#45;&gt;SG_0_Node_13 -->
<g id="edge5" class="edge">
<title>SG_0_Node_2&#45;&gt;SG_0_Node_13</title>
<path fill="none" stroke="#000000" d="M289.9356,-1245.6478C272.1673,-1236.5127 254.0897,-1223.4765 244,-1205.5584 231.8783,-1184.0318 232.9407,-1155.6897 236.4325,-1134.3112"/>
<polygon fill="#000000" stroke="#000000" points="239.8809,-1134.9115 238.2947,-1124.4361 233.0022,-1133.6143 239.8809,-1134.9115"/>
<text text-anchor="middle" x="303" y="-1189.5584" font-family="Times,serif" font-size="20.00" fill="#000000">[NA]</text>
<text text-anchor="middle" x="303" y="-1167.5584" font-family="Times,serif" font-size="20.00" fill="#000000">attachment</text>
</g>
<!-- SG_0_Node_3 -->
<g id="node7" class="node">
<title>SG_0_Node_3</title>
<polygon fill="none" stroke="#000000" points="493.5,-1121.3452 302.5,-1121.3452 302.5,-1085.3452 493.5,-1085.3452 493.5,-1121.3452"/>
<text text-anchor="middle" x="398" y="-1098.3452" font-family="Times,serif" font-size="20.00" fill="#000000">X&#45;Frame&#45;Options</text>
</g>
<!-- SG_0_Node_2&#45;&gt;SG_0_Node_3 -->
<g id="edge6" class="edge">
<title>SG_0_Node_2&#45;&gt;SG_0_Node_3</title>
<path fill="none" stroke="#000000" d="M348.7515,-1245.6473C354.0784,-1234.2737 360.8294,-1219.2236 366,-1205.5584 375.3448,-1180.8614 384.1689,-1152.1119 390.1745,-1131.4055"/>
<polygon fill="#000000" stroke="#000000" points="393.5777,-1132.2347 392.966,-1121.6575 386.8482,-1130.3075 393.5777,-1132.2347"/>
<text text-anchor="middle" x="412" y="-1178.5584" font-family="Times,serif" font-size="20.00" fill="#000000">empty</text>
</g>
<!-- SG_0_Node_14 -->
<g id="node8" class="node">
<title>SG_0_Node_14</title>
<ellipse fill="none" stroke="#000000" cx="339" cy="-942.9188" rx="34.7971" ry="21.4286"/>
<text text-anchor="middle" x="339" y="-937.9188" font-family="Times,serif" font-size="20.00" fill="#000000">0.0</text>
</g>
<!-- SG_0_Node_3&#45;&gt;SG_0_Node_14 -->
<g id="edge7" class="edge">
<title>SG_0_Node_3&#45;&gt;SG_0_Node_14</title>
<path fill="none" stroke="#000000" d="M391.3466,-1085.2541C381.3507,-1058.0742 362.3372,-1006.3748 350.1849,-973.3315"/>
<polygon fill="#000000" stroke="#000000" points="353.388,-971.9008 346.6513,-963.7235 346.8182,-974.317 353.388,-971.9008"/>
<text text-anchor="middle" x="401" y="-1029.132" font-family="Times,serif" font-size="20.00" fill="#000000">[NA]</text>
<text text-anchor="middle" x="401" y="-1007.132" font-family="Times,serif" font-size="20.00" fill="#000000">deny</text>
</g>
<!-- SG_0_Node_4 -->
<g id="node9" class="node">
<title>SG_0_Node_4</title>
<polygon fill="none" stroke="#000000" points="534,-960.9188 392,-960.9188 392,-924.9188 534,-924.9188 534,-960.9188"/>
<text text-anchor="middle" x="463" y="-937.9188" font-family="Times,serif" font-size="20.00" fill="#000000">Status&#45;Code</text>
</g>
<!-- SG_0_Node_3&#45;&gt;SG_0_Node_4 -->
<g id="edge8" class="edge">
<title>SG_0_Node_3&#45;&gt;SG_0_Node_4</title>
<path fill="none" stroke="#000000" d="M408.1555,-1085.3202C414.3237,-1073.9839 422.1159,-1058.9383 428,-1045.132 438.5061,-1020.4808 448.1862,-991.511 454.6903,-970.7198"/>
<polygon fill="#000000" stroke="#000000" points="458.1031,-971.5297 457.7036,-960.9424 451.4136,-969.468 458.1031,-971.5297"/>
<text text-anchor="middle" x="476" y="-1018.132" font-family="Times,serif" font-size="20.00" fill="#000000">empty</text>
</g>
<!-- SG_0_Node_5 -->
<g id="node10" class="node">
<title>SG_0_Node_5</title>
<polygon fill="none" stroke="#000000" points="407,-803.7056 265,-803.7056 265,-767.7056 407,-767.7056 407,-803.7056"/>
<text text-anchor="middle" x="336" y="-780.7056" font-family="Times,serif" font-size="20.00" fill="#000000">Status&#45;Code</text>
</g>
<!-- SG_0_Node_4&#45;&gt;SG_0_Node_5 -->
<g id="edge9" class="edge">
<title>SG_0_Node_4&#45;&gt;SG_0_Node_5</title>
<path fill="none" stroke="#000000" d="M441.4112,-924.9187C428.9021,-913.9541 413.2547,-899.2864 401,-884.7056 381.8418,-861.9108 363.5579,-833.2241 351.2902,-812.6065"/>
<polygon fill="#000000" stroke="#000000" points="354.1744,-810.6059 346.0955,-803.7515 348.1367,-814.1479 354.1744,-810.6059"/>
<text text-anchor="middle" x="447" y="-857.7056" font-family="Times,serif" font-size="20.00" fill="#000000">13 levels</text>
</g>
<!-- SG_0_Node_6 -->
<g id="node11" class="node">
<title>SG_0_Node_6</title>
<polygon fill="none" stroke="#000000" points="687,-803.7056 425,-803.7056 425,-767.7056 687,-767.7056 687,-803.7056"/>
<text text-anchor="middle" x="556" y="-780.7056" font-family="Times,serif" font-size="20.00" fill="#000000">X&#45;Content&#45;Type&#45;Options</text>
</g>
<!-- SG_0_Node_4&#45;&gt;SG_0_Node_6 -->
<g id="edge10" class="edge">
<title>SG_0_Node_4&#45;&gt;SG_0_Node_6</title>
<path fill="none" stroke="#000000" d="M473.6683,-924.8845C489.9091,-897.43 520.9465,-844.9623 539.9271,-812.8763"/>
<polygon fill="#000000" stroke="#000000" points="543.0906,-814.4028 545.1697,-804.0139 537.0658,-810.8388 543.0906,-814.4028"/>
<text text-anchor="middle" x="569" y="-868.7056" font-family="Times,serif" font-size="20.00" fill="#000000">[NA]</text>
<text text-anchor="middle" x="569" y="-846.7056" font-family="Times,serif" font-size="20.00" fill="#000000">50 levels</text>
</g>
<!-- SG_0_Node_15 -->
<g id="node12" class="node">
<title>SG_0_Node_15</title>
<ellipse fill="none" stroke="#000000" cx="242" cy="-496.4924" rx="34.7971" ry="21.4286"/>
<text text-anchor="middle" x="242" y="-491.4924" font-family="Times,serif" font-size="20.00" fill="#000000">0.0</text>
</g>
<!-- SG_0_Node_5&#45;&gt;SG_0_Node_15 -->
<g id="edge15" class="edge">
<title>SG_0_Node_5&#45;&gt;SG_0_Node_15</title>
<path fill="none" stroke="#000000" d="M319.4665,-767.6161C310.9898,-757.4429 301.1774,-744.1197 295,-730.7056 263.533,-662.3756 250.0938,-574.008 244.9019,-527.7986"/>
<polygon fill="#000000" stroke="#000000" points="248.376,-527.3689 243.8342,-517.797 241.4156,-528.1121 248.376,-527.3689"/>
<text text-anchor="middle" x="314.5" y="-714.7056" font-family="Times,serif" font-size="20.00" fill="#000000">100</text>
<text text-anchor="middle" x="314.5" y="-692.7056" font-family="Times,serif" font-size="20.00" fill="#000000">101</text>
<text text-anchor="middle" x="314.5" y="-670.7056" font-family="Times,serif" font-size="20.00" fill="#000000">102</text>
<text text-anchor="middle" x="314.5" y="-648.7056" font-family="Times,serif" font-size="20.00" fill="#000000">103</text>
<text text-anchor="middle" x="314.5" y="-626.7056" font-family="Times,serif" font-size="20.00" fill="#000000">204</text>
<text text-anchor="middle" x="314.5" y="-604.7056" font-family="Times,serif" font-size="20.00" fill="#000000">205</text>
<text text-anchor="middle" x="314.5" y="-582.7056" font-family="Times,serif" font-size="20.00" fill="#000000">304</text>
<text text-anchor="middle" x="314.5" y="-560.7056" font-family="Times,serif" font-size="20.00" fill="#000000">407</text>
</g>
<!-- SG_0_Node_7 -->
<g id="node13" class="node">
<title>SG_0_Node_7</title>
<polygon fill="none" stroke="#000000" points="399.5,-514.4924 294.5,-514.4924 294.5,-478.4924 399.5,-478.4924 399.5,-514.4924"/>
<text text-anchor="middle" x="347" y="-491.4924" font-family="Times,serif" font-size="20.00" fill="#000000">Location</text>
</g>
<!-- SG_0_Node_5&#45;&gt;SG_0_Node_7 -->
<g id="edge16" class="edge">
<title>SG_0_Node_5&#45;&gt;SG_0_Node_7</title>
<path fill="none" stroke="#000000" d="M336.6881,-767.614C338.5478,-718.7186 343.6849,-583.6542 345.9284,-524.6679"/>
<polygon fill="#000000" stroke="#000000" points="349.4295,-524.703 346.3122,-514.5772 342.4345,-524.4369 349.4295,-524.703"/>
<text text-anchor="middle" x="363.5" y="-681.7056" font-family="Times,serif" font-size="20.00" fill="#000000">301</text>
<text text-anchor="middle" x="363.5" y="-659.7056" font-family="Times,serif" font-size="20.00" fill="#000000">302</text>
<text text-anchor="middle" x="363.5" y="-637.7056" font-family="Times,serif" font-size="20.00" fill="#000000">303</text>
<text text-anchor="middle" x="363.5" y="-615.7056" font-family="Times,serif" font-size="20.00" fill="#000000">307</text>
<text text-anchor="middle" x="363.5" y="-593.7056" font-family="Times,serif" font-size="20.00" fill="#000000">308</text>
</g>
<!-- SG_0_Node_8 -->
<g id="node14" class="node">
<title>SG_0_Node_8</title>
<polygon fill="none" stroke="#000000" points="628.5,-514.4924 473.5,-514.4924 473.5,-478.4924 628.5,-478.4924 628.5,-514.4924"/>
<text text-anchor="middle" x="551" y="-491.4924" font-family="Times,serif" font-size="20.00" fill="#000000">Content&#45;Type</text>
</g>
<!-- SG_0_Node_6&#45;&gt;SG_0_Node_8 -->
<g id="edge11" class="edge">
<title>SG_0_Node_6&#45;&gt;SG_0_Node_8</title>
<path fill="none" stroke="#000000" d="M555.6872,-767.614C554.8419,-718.7186 552.5069,-583.6542 551.4871,-524.6679"/>
<polygon fill="#000000" stroke="#000000" points="554.9851,-524.5151 551.3127,-514.5772 547.9861,-524.6362 554.9851,-524.5151"/>
<text text-anchor="middle" x="589" y="-637.7056" font-family="Times,serif" font-size="20.00" fill="#000000">nosniff</text>
</g>
<!-- SG_0_Node_16 -->
<g id="node15" class="node">
<title>SG_0_Node_16</title>
<ellipse fill="none" stroke="#000000" cx="681" cy="-496.4924" rx="34.7971" ry="21.4286"/>
<text text-anchor="middle" x="681" y="-491.4924" font-family="Times,serif" font-size="20.00" fill="#000000">1.0</text>
</g>
<!-- SG_0_Node_6&#45;&gt;SG_0_Node_16 -->
<g id="edge12" class="edge">
<title>SG_0_Node_6&#45;&gt;SG_0_Node_16</title>
<path fill="none" stroke="#000000" d="M588.9438,-767.6424C602.9787,-758.355 618.3157,-745.7977 628,-730.7056 668.9403,-666.9037 678.4607,-575.5728 680.5409,-528.0099"/>
<polygon fill="#000000" stroke="#000000" points="684.0488,-527.8425 680.9029,-517.7255 677.0532,-527.5962 684.0488,-527.8425"/>
<text text-anchor="middle" x="710" y="-648.7056" font-family="Times,serif" font-size="20.00" fill="#000000">[NA]</text>
<text text-anchor="middle" x="710" y="-626.7056" font-family="Times,serif" font-size="20.00" fill="#000000">empty</text>
</g>
<!-- SG_0_Node_17 -->
<g id="node16" class="node">
<title>SG_0_Node_17</title>
<ellipse fill="none" stroke="#000000" cx="90" cy="-336.066" rx="34.7971" ry="21.4286"/>
<text text-anchor="middle" x="90" y="-331.066" font-family="Times,serif" font-size="20.00" fill="#000000">0.0</text>
</g>
<!-- SG_0_Node_7&#45;&gt;SG_0_Node_17 -->
<g id="edge17" class="edge">
<title>SG_0_Node_7&#45;&gt;SG_0_Node_17</title>
<path fill="none" stroke="#000000" d="M296.5537,-478.4245C292.997,-477.3126 289.4536,-476.2518 286,-475.2792 211.5704,-454.32 171.6192,-491.9967 116,-438.2792 97.2395,-420.1602 91.3067,-390.5599 89.7348,-367.8644"/>
<polygon fill="#000000" stroke="#000000" points="93.2225,-367.509 89.2824,-357.6741 86.2294,-367.8195 93.2225,-367.509"/>
<text text-anchor="middle" x="231" y="-411.2792" font-family="Times,serif" font-size="20.00" fill="#000000">http://172.17.0.1:8000</text>
</g>
<!-- SG_0_Node_9 -->
<g id="node17" class="node">
<title>SG_0_Node_9</title>
<polygon fill="none" stroke="#000000" points="487,-354.066 225,-354.066 225,-318.066 487,-318.066 487,-354.066"/>
<text text-anchor="middle" x="356" y="-331.066" font-family="Times,serif" font-size="20.00" fill="#000000">X&#45;Content&#45;Type&#45;Options</text>
</g>
<!-- SG_0_Node_7&#45;&gt;SG_0_Node_9 -->
<g id="edge18" class="edge">
<title>SG_0_Node_7&#45;&gt;SG_0_Node_9</title>
<path fill="none" stroke="#000000" d="M348.0149,-478.4013C349.5679,-450.7194 352.5477,-397.6042 354.3954,-364.6675"/>
<polygon fill="#000000" stroke="#000000" points="357.9093,-364.5175 354.975,-354.3371 350.9203,-364.1254 357.9093,-364.5175"/>
<text text-anchor="middle" x="384" y="-422.2792" font-family="Times,serif" font-size="20.00" fill="#000000">[NA]</text>
<text text-anchor="middle" x="384" y="-400.2792" font-family="Times,serif" font-size="20.00" fill="#000000">empty</text>
</g>
<!-- SG_0_Node_18 -->
<g id="node18" class="node">
<title>SG_0_Node_18</title>
<ellipse fill="none" stroke="#000000" cx="549" cy="-336.066" rx="34.7971" ry="21.4286"/>
<text text-anchor="middle" x="549" y="-331.066" font-family="Times,serif" font-size="20.00" fill="#000000">0.0</text>
</g>
<!-- SG_0_Node_8&#45;&gt;SG_0_Node_18 -->
<g id="edge13" class="edge">
<title>SG_0_Node_8&#45;&gt;SG_0_Node_18</title>
<path fill="none" stroke="#000000" d="M550.7745,-478.4013C550.4389,-451.4864 549.8036,-400.5279 549.3913,-367.4506"/>
<polygon fill="#000000" stroke="#000000" points="552.8904,-367.3483 549.2659,-357.3927 545.8909,-367.4356 552.8904,-367.3483"/>
<text text-anchor="middle" x="582" y="-411.2792" font-family="Times,serif" font-size="20.00" fill="#000000">empty</text>
</g>
<!-- SG_0_Node_19 -->
<g id="node19" class="node">
<title>SG_0_Node_19</title>
<ellipse fill="none" stroke="#000000" cx="649" cy="-336.066" rx="34.7971" ry="21.4286"/>
<text text-anchor="middle" x="649" y="-331.066" font-family="Times,serif" font-size="20.00" fill="#000000">1.0</text>
</g>
<!-- SG_0_Node_8&#45;&gt;SG_0_Node_19 -->
<g id="edge14" class="edge">
<title>SG_0_Node_8&#45;&gt;SG_0_Node_19</title>
<path fill="none" stroke="#000000" d="M578.4508,-478.3084C592.0812,-468.0162 607.7769,-454.0557 618,-438.2792 631.9522,-416.7478 639.8783,-388.6335 644.2165,-367.3414"/>
<polygon fill="#000000" stroke="#000000" points="647.6595,-367.9704 646.0687,-357.4957 640.7802,-366.6762 647.6595,-367.9704"/>
<text text-anchor="middle" x="684" y="-411.2792" font-family="Times,serif" font-size="20.00" fill="#000000">text/html</text>
</g>
<!-- SG_0_Node_10 -->
<g id="node20" class="node">
<title>SG_0_Node_10</title>
<polygon fill="none" stroke="#000000" points="371.5,-193.6396 216.5,-193.6396 216.5,-157.6396 371.5,-157.6396 371.5,-193.6396"/>
<text text-anchor="middle" x="294" y="-170.6396" font-family="Times,serif" font-size="20.00" fill="#000000">Content&#45;Type</text>
</g>
<!-- SG_0_Node_9&#45;&gt;SG_0_Node_10 -->
<g id="edge19" class="edge">
<title>SG_0_Node_9&#45;&gt;SG_0_Node_10</title>
<path fill="none" stroke="#000000" d="M342.8089,-317.9755C335.2257,-306.8617 326.0365,-292.0723 320,-277.8528 309.7779,-253.7739 302.8676,-224.7376 298.7563,-203.7758"/>
<polygon fill="#000000" stroke="#000000" points="302.1891,-203.0915 296.9097,-193.9057 295.3085,-204.3788 302.1891,-203.0915"/>
<text text-anchor="middle" x="355" y="-250.8528" font-family="Times,serif" font-size="20.00" fill="#000000">nosniff</text>
</g>
<!-- SG_0_Node_20 -->
<g id="node21" class="node">
<title>SG_0_Node_20</title>
<ellipse fill="none" stroke="#000000" cx="424" cy="-175.6396" rx="34.7971" ry="21.4286"/>
<text text-anchor="middle" x="424" y="-170.6396" font-family="Times,serif" font-size="20.00" fill="#000000">1.0</text>
</g>
<!-- SG_0_Node_9&#45;&gt;SG_0_Node_20 -->
<g id="edge20" class="edge">
<title>SG_0_Node_9&#45;&gt;SG_0_Node_20</title>
<path fill="none" stroke="#000000" d="M367.882,-317.974C374.925,-306.738 383.68,-291.8219 390,-277.8528 400.4854,-254.6769 409.4269,-227.2734 415.5051,-206.6775"/>
<polygon fill="#000000" stroke="#000000" points="418.924,-207.453 418.3342,-196.8746 412.1985,-205.5119 418.924,-207.453"/>
<text text-anchor="middle" x="438" y="-261.8528" font-family="Times,serif" font-size="20.00" fill="#000000">[NA]</text>
<text text-anchor="middle" x="438" y="-239.8528" font-family="Times,serif" font-size="20.00" fill="#000000">empty</text>
</g>
<!-- SG_0_Node_21 -->
<g id="node22" class="node">
<title>SG_0_Node_21</title>
<ellipse fill="none" stroke="#000000" cx="244" cy="-37.2132" rx="34.7971" ry="21.4286"/>
<text text-anchor="middle" x="244" y="-32.2132" font-family="Times,serif" font-size="20.00" fill="#000000">0.0</text>
</g>
<!-- SG_0_Node_10&#45;&gt;SG_0_Node_21 -->
<g id="edge21" class="edge">
<title>SG_0_Node_10&#45;&gt;SG_0_Node_21</title>
<path fill="none" stroke="#000000" d="M280.2331,-157.453C272.5462,-146.4243 263.4476,-131.7547 258,-117.4264 252.1382,-102.0088 248.7115,-83.9821 246.7178,-68.9275"/>
<polygon fill="#000000" stroke="#000000" points="250.1444,-68.0956 245.5051,-58.5705 243.1919,-68.9097 250.1444,-68.0956"/>
<text text-anchor="middle" x="290" y="-101.4264" font-family="Times,serif" font-size="20.00" fill="#000000">empty</text>
</g>
<!-- SG_0_Node_22 -->
<g id="node23" class="node">
<title>SG_0_Node_22</title>
<ellipse fill="none" stroke="#000000" cx="344" cy="-37.2132" rx="34.7971" ry="21.4286"/>
<text text-anchor="middle" x="344" y="-32.2132" font-family="Times,serif" font-size="20.00" fill="#000000">1.0</text>
</g>
<!-- SG_0_Node_10&#45;&gt;SG_0_Node_22 -->
<g id="edge22" class="edge">
<title>SG_0_Node_10&#45;&gt;SG_0_Node_22</title>
<path fill="none" stroke="#000000" d="M303.8258,-157.3979C309.6407,-146.1073 316.8521,-131.1863 322,-117.4264 327.9612,-101.4927 333.0951,-83.2363 336.9005,-68.1696"/>
<polygon fill="#000000" stroke="#000000" points="340.3343,-68.862 339.3166,-58.3161 333.5357,-67.1949 340.3343,-68.862"/>
<text text-anchor="middle" x="376" y="-101.4264" font-family="Times,serif" font-size="20.00" fill="#000000">text/html</text>
</g>
</g>
</svg>
