<?xml version="1.0" encoding="UTF-8" standalone="no"?>
<!DOCTYPE svg PUBLIC "-//W3C//DTD SVG 1.1//EN"
 "http://www.w3.org/Graphics/SVG/1.1/DTD/svg11.dtd">
<!-- Generated by graphviz version 2.40.1 (20161225.0304)
 -->
<!-- Title: G Pages: 1 -->
<svg width="1644pt" height="2241pt"
 viewBox="0.00 0.00 1644.00 2240.98" xmlns="http://www.w3.org/2000/svg" xmlns:xlink="http://www.w3.org/1999/xlink">
<g id="graph0" class="graph" transform="scale(1 1) rotate(0) translate(4 2236.9848)">
<title>G</title>
<polygon fill="#ffffff" stroke="transparent" points="-4,4 -4,-2236.9848 1640,-2236.9848 1640,4 -4,4"/>
<g id="clust1" class="cluster">
<title>cluster_0</title>
<polygon fill="none" stroke="#000000" points="8,-8 8,-2224.9848 1404,-2224.9848 1404,-8 8,-8"/>
<text text-anchor="middle" x="706" y="-2188.9848" font-family="Times,serif" font-size="40.00" fill="#000000">Tree 0, Class [[&#39;Script error.&#39;, 0, 0]]</text>
</g>
<!-- SG_0_Node_0 -->
<g id="node1" class="node">
<title>SG_0_Node_0</title>
<polygon fill="none" stroke="#000000" points="788,-2164.9848 646,-2164.9848 646,-2128.9848 788,-2128.9848 788,-2164.9848"/>
<text text-anchor="middle" x="717" y="-2141.9848" font-family="Times,serif" font-size="20.00" fill="#000000">Status&#45;Code</text>
</g>
<!-- SG_0_Node_17 -->
<g id="node2" class="node">
<title>SG_0_Node_17</title>
<ellipse fill="none" stroke="#000000" cx="653" cy="-1989.7716" rx="34.7971" ry="21.4286"/>
<text text-anchor="middle" x="653" y="-1984.7716" font-family="Times,serif" font-size="20.00" fill="#000000">0.0</text>
</g>
<!-- SG_0_Node_0&#45;&gt;SG_0_Node_17 -->
<g id="edge1" class="edge">
<title>SG_0_Node_0&#45;&gt;SG_0_Node_17</title>
<path fill="none" stroke="#000000" d="M695.7021,-2128.6837C685.6635,-2118.8446 674.4912,-2105.8905 668,-2091.9848 657.6634,-2069.8416 654.0807,-2042.3154 652.9906,-2021.4085"/>
<polygon fill="#000000" stroke="#000000" points="656.4788,-2021.0117 652.6252,-2011.1425 649.4832,-2021.2607 656.4788,-2021.0117"/>
<text text-anchor="middle" x="714" y="-2075.9848" font-family="Times,serif" font-size="20.00" fill="#000000">[NA]</text>
<text text-anchor="middle" x="714" y="-2053.9848" font-family="Times,serif" font-size="20.00" fill="#000000">48 levels</text>
</g>
<!-- SG_0_Node_1 -->
<g id="node3" class="node">
<title>SG_0_Node_1</title>
<polygon fill="none" stroke="#000000" points="860.5,-2007.7716 705.5,-2007.7716 705.5,-1971.7716 860.5,-1971.7716 860.5,-2007.7716"/>
<text text-anchor="middle" x="783" y="-1984.7716" font-family="Times,serif" font-size="20.00" fill="#000000">Content&#45;Type</text>
</g>
<!-- SG_0_Node_0&#45;&gt;SG_0_Node_1 -->
<g id="edge2" class="edge">
<title>SG_0_Node_0&#45;&gt;SG_0_Node_1</title>
<path fill="none" stroke="#000000" d="M734.8067,-2128.5366C743.6064,-2118.4655 753.6689,-2105.348 760,-2091.9848 771.1923,-2068.3609 777.0668,-2039.0473 780.0668,-2017.878"/>
<polygon fill="#000000" stroke="#000000" points="783.5441,-2018.2783 781.3531,-2007.9125 776.6017,-2017.3822 783.5441,-2018.2783"/>
<text text-anchor="middle" x="820" y="-2064.9848" font-family="Times,serif" font-size="20.00" fill="#000000">15 levels</text>
</g>
<!-- SG_0_Node_2 -->
<g id="node4" class="node">
<title>SG_0_Node_2</title>
<polygon fill="none" stroke="#000000" points="711.5,-1762.5584 556.5,-1762.5584 556.5,-1726.5584 711.5,-1726.5584 711.5,-1762.5584"/>
<text text-anchor="middle" x="634" y="-1739.5584" font-family="Times,serif" font-size="20.00" fill="#000000">Content&#45;Type</text>
</g>
<!-- SG_0_Node_1&#45;&gt;SG_0_Node_2 -->
<g id="edge3" class="edge">
<title>SG_0_Node_1&#45;&gt;SG_0_Node_2</title>
<path fill="none" stroke="#000000" d="M758.1371,-1971.6503C744.9351,-1961.082 729.176,-1946.8447 718,-1931.5584 680.8476,-1880.7424 654.9355,-1810.8805 642.4663,-1772.5472"/>
<polygon fill="#000000" stroke="#000000" points="645.6734,-1771.0826 639.3077,-1762.6133 639.0025,-1773.2038 645.6734,-1771.0826"/>
<text text-anchor="middle" x="795" y="-1915.5584" font-family="Times,serif" font-size="20.00" fill="#000000">[NA]</text>
<text text-anchor="middle" x="795" y="-1893.5584" font-family="Times,serif" font-size="20.00" fill="#000000">application/pdf</text>
<text text-anchor="middle" x="795" y="-1871.5584" font-family="Times,serif" font-size="20.00" fill="#000000">audio/wav</text>
<text text-anchor="middle" x="795" y="-1849.5584" font-family="Times,serif" font-size="20.00" fill="#000000">image/png</text>
<text text-anchor="middle" x="795" y="-1827.5584" font-family="Times,serif" font-size="20.00" fill="#000000">text/html</text>
<text text-anchor="middle" x="795" y="-1805.5584" font-family="Times,serif" font-size="20.00" fill="#000000">video/mp4</text>
</g>
<!-- SG_0_Node_3 -->
<g id="node5" class="node">
<title>SG_0_Node_3</title>
<polygon fill="none" stroke="#000000" points="1090.5,-1762.5584 773.5,-1762.5584 773.5,-1726.5584 1090.5,-1726.5584 1090.5,-1762.5584"/>
<text text-anchor="middle" x="932" y="-1739.5584" font-family="Times,serif" font-size="20.00" fill="#000000">Cross&#45;Origin&#45;Resource&#45;Policy</text>
</g>
<!-- SG_0_Node_1&#45;&gt;SG_0_Node_3 -->
<g id="edge4" class="edge">
<title>SG_0_Node_1&#45;&gt;SG_0_Node_3</title>
<path fill="none" stroke="#000000" d="M822.5461,-1971.6172C839.8664,-1961.9109 859.1331,-1948.4482 872,-1931.5584 908.7335,-1883.3399 923.3837,-1811.9055 928.9068,-1772.7563"/>
<polygon fill="#000000" stroke="#000000" points="932.4065,-1772.9861 930.2334,-1762.6165 925.4657,-1772.078 932.4065,-1772.9861"/>
<text text-anchor="middle" x="1035" y="-1882.5584" font-family="Times,serif" font-size="20.00" fill="#000000">application/javascript</text>
<text text-anchor="middle" x="1035" y="-1860.5584" font-family="Times,serif" font-size="20.00" fill="#000000">empty</text>
<text text-anchor="middle" x="1035" y="-1838.5584" font-family="Times,serif" font-size="20.00" fill="#000000">text/css</text>
</g>
<!-- SG_0_Node_18 -->
<g id="node6" class="node">
<title>SG_0_Node_18</title>
<ellipse fill="none" stroke="#000000" cx="444" cy="-1521.3452" rx="34.7971" ry="21.4286"/>
<text text-anchor="middle" x="444" y="-1516.3452" font-family="Times,serif" font-size="20.00" fill="#000000">0.0</text>
</g>
<!-- SG_0_Node_2&#45;&gt;SG_0_Node_18 -->
<g id="edge23" class="edge">
<title>SG_0_Node_2&#45;&gt;SG_0_Node_18</title>
<path fill="none" stroke="#000000" d="M556.1069,-1728.3738C516.6743,-1718.5375 474.5294,-1704.9277 462,-1689.5584 430.4988,-1650.9171 432.8584,-1589.5637 438.0247,-1552.606"/>
<polygon fill="#000000" stroke="#000000" points="441.5305,-1552.8387 439.6068,-1542.4199 434.6134,-1551.7643 441.5305,-1552.8387"/>
<text text-anchor="middle" x="539" y="-1673.5584" font-family="Times,serif" font-size="20.00" fill="#000000">[NA]</text>
<text text-anchor="middle" x="539" y="-1651.5584" font-family="Times,serif" font-size="20.00" fill="#000000">application/pdf</text>
<text text-anchor="middle" x="539" y="-1629.5584" font-family="Times,serif" font-size="20.00" fill="#000000">audio/wav</text>
<text text-anchor="middle" x="539" y="-1607.5584" font-family="Times,serif" font-size="20.00" fill="#000000">image/png</text>
<text text-anchor="middle" x="539" y="-1585.5584" font-family="Times,serif" font-size="20.00" fill="#000000">video/mp4</text>
</g>
<!-- SG_0_Node_4 -->
<g id="node7" class="node">
<title>SG_0_Node_4</title>
<polygon fill="none" stroke="#000000" points="648.5,-1539.3452 583.5,-1539.3452 583.5,-1503.3452 648.5,-1503.3452 648.5,-1539.3452"/>
<text text-anchor="middle" x="616" y="-1516.3452" font-family="Times,serif" font-size="20.00" fill="#000000">body</text>
</g>
<!-- SG_0_Node_2&#45;&gt;SG_0_Node_4 -->
<g id="edge24" class="edge">
<title>SG_0_Node_2&#45;&gt;SG_0_Node_4</title>
<path fill="none" stroke="#000000" d="M632.527,-1726.292C629.3878,-1687.3636 622.0205,-1596.004 618.274,-1549.5446"/>
<polygon fill="#000000" stroke="#000000" points="621.7607,-1549.2373 617.4681,-1539.5511 614.7833,-1549.8001 621.7607,-1549.2373"/>
<text text-anchor="middle" x="676" y="-1629.5584" font-family="Times,serif" font-size="20.00" fill="#000000">text/html</text>
</g>
<!-- SG_0_Node_19 -->
<g id="node8" class="node">
<title>SG_0_Node_19</title>
<ellipse fill="none" stroke="#000000" cx="932" cy="-1521.3452" rx="34.7971" ry="21.4286"/>
<text text-anchor="middle" x="932" y="-1516.3452" font-family="Times,serif" font-size="20.00" fill="#000000">0.0</text>
</g>
<!-- SG_0_Node_3&#45;&gt;SG_0_Node_19 -->
<g id="edge5" class="edge">
<title>SG_0_Node_3&#45;&gt;SG_0_Node_19</title>
<path fill="none" stroke="#000000" d="M932,-1726.292C932,-1688.2496 932,-1600.1357 932,-1552.7856"/>
<polygon fill="#000000" stroke="#000000" points="935.5001,-1552.781 932,-1542.7811 928.5001,-1552.7811 935.5001,-1552.781"/>
<text text-anchor="middle" x="993" y="-1629.5584" font-family="Times,serif" font-size="20.00" fill="#000000">same&#45;origin</text>
</g>
<!-- SG_0_Node_5 -->
<g id="node9" class="node">
<title>SG_0_Node_5</title>
<polygon fill="none" stroke="#000000" points="1274,-1539.3452 1012,-1539.3452 1012,-1503.3452 1274,-1503.3452 1274,-1539.3452"/>
<text text-anchor="middle" x="1143" y="-1516.3452" font-family="Times,serif" font-size="20.00" fill="#000000">X&#45;Content&#45;Type&#45;Options</text>
</g>
<!-- SG_0_Node_3&#45;&gt;SG_0_Node_5 -->
<g id="edge6" class="edge">
<title>SG_0_Node_3&#45;&gt;SG_0_Node_5</title>
<path fill="none" stroke="#000000" d="M996.0187,-1726.4438C1017.6337,-1717.9329 1040.6542,-1705.954 1058,-1689.5584 1099.5537,-1650.2811 1123.984,-1586.2449 1135.3057,-1549.5533"/>
<polygon fill="#000000" stroke="#000000" points="1138.7885,-1550.1197 1138.2792,-1539.5371 1132.078,-1548.1275 1138.7885,-1550.1197"/>
<text text-anchor="middle" x="1156" y="-1640.5584" font-family="Times,serif" font-size="20.00" fill="#000000">[NA]</text>
<text text-anchor="middle" x="1156" y="-1618.5584" font-family="Times,serif" font-size="20.00" fill="#000000">empty</text>
</g>
<!-- SG_0_Node_20 -->
<g id="node10" class="node">
<title>SG_0_Node_20</title>
<ellipse fill="none" stroke="#000000" cx="51" cy="-1250.9188" rx="34.7971" ry="21.4286"/>
<text text-anchor="middle" x="51" y="-1245.9188" font-family="Times,serif" font-size="20.00" fill="#000000">0.0</text>
</g>
<!-- SG_0_Node_4&#45;&gt;SG_0_Node_20 -->
<g id="edge25" class="edge">
<title>SG_0_Node_4&#45;&gt;SG_0_Node_20</title>
<path fill="none" stroke="#000000" d="M583.4898,-1515.1921C557.6823,-1510.493 520.6394,-1504.1597 488,-1500.132 437.7693,-1493.9337 68.3036,-1500.345 34,-1463.132 -11.8605,-1413.382 16.5628,-1326.264 36.4801,-1280.6633"/>
<polygon fill="#000000" stroke="#000000" points="39.7702,-1281.8816 40.6944,-1271.3271 33.3901,-1279.0016 39.7702,-1281.8816"/>
<text text-anchor="middle" x="307" y="-1447.132" font-family="Times,serif" font-size="20.00" fill="#000000">[NA]</text>
<text text-anchor="middle" x="307" y="-1425.132" font-family="Times,serif" font-size="20.00" fill="#000000">ecocnt_html=meta_refresh=0;http://172.17.0.1:8000</text>
<text text-anchor="middle" x="307" y="-1403.132" font-family="Times,serif" font-size="20.00" fill="#000000">ecocnt_html=num_frames=1,input_id=test1</text>
<text text-anchor="middle" x="307" y="-1381.132" font-family="Times,serif" font-size="20.00" fill="#000000">ecocnt_html=num_frames=2</text>
<text text-anchor="middle" x="307" y="-1359.132" font-family="Times,serif" font-size="20.00" fill="#000000">ecocnt_html=post_message=mes1</text>
<text text-anchor="middle" x="307" y="-1337.132" font-family="Times,serif" font-size="20.00" fill="#000000">ecocnt_js=var a=5;</text>
<text text-anchor="middle" x="307" y="-1315.132" font-family="Times,serif" font-size="20.00" fill="#000000">empty</text>
</g>
<!-- SG_0_Node_6 -->
<g id="node11" class="node">
<title>SG_0_Node_6</title>
<polygon fill="none" stroke="#000000" points="366,-1268.9188 104,-1268.9188 104,-1232.9188 366,-1232.9188 366,-1268.9188"/>
<text text-anchor="middle" x="235" y="-1245.9188" font-family="Times,serif" font-size="20.00" fill="#000000">X&#45;Content&#45;Type&#45;Options</text>
</g>
<!-- SG_0_Node_4&#45;&gt;SG_0_Node_6 -->
<g id="edge26" class="edge">
<title>SG_0_Node_4&#45;&gt;SG_0_Node_6</title>
<path fill="none" stroke="#000000" d="M619.53,-1503.2536C626.3537,-1462.3874 636.41,-1362.3669 584,-1309.132 579.9638,-1305.0323 461.0671,-1285.7853 363.1637,-1270.5293"/>
<polygon fill="#000000" stroke="#000000" points="363.5757,-1267.0513 353.1565,-1268.9723 362.4995,-1273.9681 363.5757,-1267.0513"/>
<text text-anchor="middle" x="870.5" y="-1436.132" font-family="Times,serif" font-size="20.00" fill="#000000">ecocnt_audio=duration=1</text>
<text text-anchor="middle" x="870.5" y="-1414.132" font-family="Times,serif" font-size="20.00" fill="#000000">ecocnt_css=h1 {color: blue}</text>
<text text-anchor="middle" x="870.5" y="-1392.132" font-family="Times,serif" font-size="20.00" fill="#000000">ecocnt_img=width=50,height=50,type=png</text>
<text text-anchor="middle" x="870.5" y="-1370.132" font-family="Times,serif" font-size="20.00" fill="#000000">ecocnt_js=.,,.</text>
<text text-anchor="middle" x="870.5" y="-1348.132" font-family="Times,serif" font-size="20.00" fill="#000000">ecocnt_pdf=a=a</text>
<text text-anchor="middle" x="870.5" y="-1326.132" font-family="Times,serif" font-size="20.00" fill="#000000">ecocnt_vid=width=100,height=100,duration=2</text>
</g>
<!-- SG_0_Node_7 -->
<g id="node12" class="node">
<title>SG_0_Node_7</title>
<polygon fill="none" stroke="#000000" points="539.5,-1268.9188 384.5,-1268.9188 384.5,-1232.9188 539.5,-1232.9188 539.5,-1268.9188"/>
<text text-anchor="middle" x="462" y="-1245.9188" font-family="Times,serif" font-size="20.00" fill="#000000">Content&#45;Type</text>
</g>
<!-- SG_0_Node_5&#45;&gt;SG_0_Node_7 -->
<g id="edge7" class="edge">
<title>SG_0_Node_5&#45;&gt;SG_0_Node_7</title>
<path fill="none" stroke="#000000" d="M1142.3287,-1503.184C1140.3435,-1454.2851 1133.7599,-1322.6232 1120,-1309.132 1099.9278,-1289.4518 724.5293,-1265.7652 549.9353,-1255.7571"/>
<polygon fill="#000000" stroke="#000000" points="549.9281,-1252.2511 539.7449,-1255.1754 549.5291,-1259.2397 549.9281,-1252.2511"/>
<text text-anchor="middle" x="1175" y="-1381.132" font-family="Times,serif" font-size="20.00" fill="#000000">nosniff</text>
</g>
<!-- SG_0_Node_8 -->
<g id="node13" class="node">
<title>SG_0_Node_8</title>
<polygon fill="none" stroke="#000000" points="882.5,-1268.9188 817.5,-1268.9188 817.5,-1232.9188 882.5,-1232.9188 882.5,-1268.9188"/>
<text text-anchor="middle" x="850" y="-1245.9188" font-family="Times,serif" font-size="20.00" fill="#000000">body</text>
</g>
<!-- SG_0_Node_5&#45;&gt;SG_0_Node_8 -->
<g id="edge8" class="edge">
<title>SG_0_Node_5&#45;&gt;SG_0_Node_8</title>
<path fill="none" stroke="#000000" d="M1178.1435,-1503.2083C1193.0206,-1493.5058 1208.7877,-1480.0412 1217,-1463.132 1246.9016,-1401.5647 1258.4787,-1363.5762 1217,-1309.132 1197.4954,-1283.5306 985.3871,-1262.4692 892.8071,-1254.4267"/>
<polygon fill="#000000" stroke="#000000" points="892.9163,-1250.9233 882.6536,-1253.5553 892.3177,-1257.8977 892.9163,-1250.9233"/>
<text text-anchor="middle" x="1275" y="-1392.132" font-family="Times,serif" font-size="20.00" fill="#000000">[NA]</text>
<text text-anchor="middle" x="1275" y="-1370.132" font-family="Times,serif" font-size="20.00" fill="#000000">empty</text>
</g>
<!-- SG_0_Node_21 -->
<g id="node14" class="node">
<title>SG_0_Node_21</title>
<ellipse fill="none" stroke="#000000" cx="51" cy="-892.4924" rx="34.7971" ry="21.4286"/>
<text text-anchor="middle" x="51" y="-887.4924" font-family="Times,serif" font-size="20.00" fill="#000000">0.0</text>
</g>
<!-- SG_0_Node_6&#45;&gt;SG_0_Node_21 -->
<g id="edge27" class="edge">
<title>SG_0_Node_6&#45;&gt;SG_0_Node_21</title>
<path fill="none" stroke="#000000" d="M143.2161,-1232.8754C102.4692,-1222.821 60.9969,-1209.0311 49,-1192.7056 -10.6882,-1111.4815 20.9448,-981.6532 39.9885,-923.0062"/>
<polygon fill="#000000" stroke="#000000" points="43.4029,-923.8321 43.2601,-913.2382 36.7653,-921.6089 43.4029,-923.8321"/>
<text text-anchor="middle" x="84" y="-1066.7056" font-family="Times,serif" font-size="20.00" fill="#000000">nosniff</text>
</g>
<!-- SG_0_Node_9 -->
<g id="node15" class="node">
<title>SG_0_Node_9</title>
<polygon fill="none" stroke="#000000" points="420.5,-910.4924 103.5,-910.4924 103.5,-874.4924 420.5,-874.4924 420.5,-910.4924"/>
<text text-anchor="middle" x="262" y="-887.4924" font-family="Times,serif" font-size="20.00" fill="#000000">Cross&#45;Origin&#45;Resource&#45;Policy</text>
</g>
<!-- SG_0_Node_6&#45;&gt;SG_0_Node_9 -->
<g id="edge28" class="edge">
<title>SG_0_Node_6&#45;&gt;SG_0_Node_9</title>
<path fill="none" stroke="#000000" d="M199.8565,-1232.7819C184.9794,-1223.0794 169.2123,-1209.6148 161,-1192.7056 114.0118,-1095.9569 107.1879,-1043.8317 161,-950.7056 169.7608,-935.5443 184.1363,-923.9819 199.3306,-915.3174"/>
<polygon fill="#000000" stroke="#000000" points="201.1381,-918.3207 208.3352,-910.5455 197.8603,-912.1355 201.1381,-918.3207"/>
<text text-anchor="middle" x="193" y="-1077.7056" font-family="Times,serif" font-size="20.00" fill="#000000">[NA]</text>
<text text-anchor="middle" x="193" y="-1055.7056" font-family="Times,serif" font-size="20.00" fill="#000000">empty</text>
</g>
<!-- SG_0_Node_22 -->
<g id="node16" class="node">
<title>SG_0_Node_22</title>
<ellipse fill="none" stroke="#000000" cx="473" cy="-892.4924" rx="34.7971" ry="21.4286"/>
<text text-anchor="middle" x="473" y="-887.4924" font-family="Times,serif" font-size="20.00" fill="#000000">0.0</text>
</g>
<!-- SG_0_Node_7&#45;&gt;SG_0_Node_22 -->
<g id="edge15" class="edge">
<title>SG_0_Node_7&#45;&gt;SG_0_Node_22</title>
<path fill="none" stroke="#000000" d="M389.6131,-1232.8596C331.3045,-1217.9683 258.32,-1198.4007 254,-1192.7056 221.4992,-1149.86 220.11,-992.4611 254,-950.7056 304.3721,-888.6429 354.4525,-939.8152 430,-913.7056 432.5668,-912.8185 435.1778,-911.813 437.78,-910.7336"/>
<polygon fill="#000000" stroke="#000000" points="439.3687,-913.8573 447.07,-906.5814 436.5122,-907.4666 439.3687,-913.8573"/>
<text text-anchor="middle" x="293.5" y="-1077.7056" font-family="Times,serif" font-size="20.00" fill="#000000">empty</text>
<text text-anchor="middle" x="293.5" y="-1055.7056" font-family="Times,serif" font-size="20.00" fill="#000000">text/css</text>
</g>
<!-- SG_0_Node_10 -->
<g id="node17" class="node">
<title>SG_0_Node_10</title>
<polygon fill="none" stroke="#000000" points="590.5,-910.4924 525.5,-910.4924 525.5,-874.4924 590.5,-874.4924 590.5,-910.4924"/>
<text text-anchor="middle" x="558" y="-887.4924" font-family="Times,serif" font-size="20.00" fill="#000000">body</text>
</g>
<!-- SG_0_Node_7&#45;&gt;SG_0_Node_10 -->
<g id="edge16" class="edge">
<title>SG_0_Node_7&#45;&gt;SG_0_Node_10</title>
<path fill="none" stroke="#000000" d="M414.1943,-1232.8337C396.7411,-1223.6304 378.8742,-1210.5355 369,-1192.7056 342.9463,-1145.6604 335.9045,-993.0936 369,-950.7056 408.8519,-899.6643 449.7261,-934.2274 515.7051,-913.5978"/>
<polygon fill="#000000" stroke="#000000" points="516.8858,-916.8929 525.1841,-910.306 514.5893,-910.2803 516.8858,-916.8929"/>
<text text-anchor="middle" x="480" y="-1066.7056" font-family="Times,serif" font-size="20.00" fill="#000000">application/javascript</text>
</g>
<!-- SG_0_Node_23 -->
<g id="node18" class="node">
<title>SG_0_Node_23</title>
<ellipse fill="none" stroke="#000000" cx="643" cy="-892.4924" rx="34.7971" ry="21.4286"/>
<text text-anchor="middle" x="643" y="-887.4924" font-family="Times,serif" font-size="20.00" fill="#000000">0.0</text>
</g>
<!-- SG_0_Node_8&#45;&gt;SG_0_Node_23 -->
<g id="edge9" class="edge">
<title>SG_0_Node_8&#45;&gt;SG_0_Node_23</title>
<path fill="none" stroke="#000000" d="M817.3665,-1247.2489C761.233,-1240.1909 650.1763,-1222.7086 627,-1192.7056 565.0163,-1112.4642 606.3167,-981.1309 629.8421,-922.4518"/>
<polygon fill="#000000" stroke="#000000" points="633.154,-923.6007 633.7231,-913.0212 626.6807,-920.9367 633.154,-923.6007"/>
<text text-anchor="middle" x="727.5" y="-1077.7056" font-family="Times,serif" font-size="20.00" fill="#000000">ecocnt_js=var a=5;</text>
<text text-anchor="middle" x="727.5" y="-1055.7056" font-family="Times,serif" font-size="20.00" fill="#000000">empty</text>
</g>
<!-- SG_0_Node_11 -->
<g id="node19" class="node">
<title>SG_0_Node_11</title>
<polygon fill="none" stroke="#000000" points="1264,-910.4924 1122,-910.4924 1122,-874.4924 1264,-874.4924 1264,-910.4924"/>
<text text-anchor="middle" x="1193" y="-887.4924" font-family="Times,serif" font-size="20.00" fill="#000000">Status&#45;Code</text>
</g>
<!-- SG_0_Node_8&#45;&gt;SG_0_Node_11 -->
<g id="edge10" class="edge">
<title>SG_0_Node_8&#45;&gt;SG_0_Node_11</title>
<path fill="none" stroke="#000000" d="M861.0035,-1232.7044C891.9361,-1182.6384 984.3295,-1040.6926 1090,-950.7056 1106.1135,-936.9837 1125.9421,-924.877 1143.8847,-915.3084"/>
<polygon fill="#000000" stroke="#000000" points="1145.8041,-918.2556 1153.066,-910.5409 1142.5782,-912.0432 1145.8041,-918.2556"/>
<text text-anchor="middle" x="1363" y="-1176.7056" font-family="Times,serif" font-size="20.00" fill="#000000">[NA]</text>
<text text-anchor="middle" x="1363" y="-1154.7056" font-family="Times,serif" font-size="20.00" fill="#000000">ecocnt_audio=duration=1</text>
<text text-anchor="middle" x="1363" y="-1132.7056" font-family="Times,serif" font-size="20.00" fill="#000000">ecocnt_css=h1 {color: blue}</text>
<text text-anchor="middle" x="1363" y="-1110.7056" font-family="Times,serif" font-size="20.00" fill="#000000">ecocnt_html=meta_refresh=0;http://172.17.0.1:8000</text>
<text text-anchor="middle" x="1363" y="-1088.7056" font-family="Times,serif" font-size="20.00" fill="#000000">ecocnt_html=num_frames=1,input_id=test1</text>
<text text-anchor="middle" x="1363" y="-1066.7056" font-family="Times,serif" font-size="20.00" fill="#000000">ecocnt_html=num_frames=2</text>
<text text-anchor="middle" x="1363" y="-1044.7056" font-family="Times,serif" font-size="20.00" fill="#000000">ecocnt_html=post_message=mes1</text>
<text text-anchor="middle" x="1363" y="-1022.7056" font-family="Times,serif" font-size="20.00" fill="#000000">ecocnt_img=width=50,height=50,type=png</text>
<text text-anchor="middle" x="1363" y="-1000.7056" font-family="Times,serif" font-size="20.00" fill="#000000">ecocnt_js=.,,.</text>
<text text-anchor="middle" x="1363" y="-978.7056" font-family="Times,serif" font-size="20.00" fill="#000000">ecocnt_pdf=a=a</text>
<text text-anchor="middle" x="1363" y="-956.7056" font-family="Times,serif" font-size="20.00" fill="#000000">ecocnt_vid=width=100,height=100,duration=2</text>
</g>
<!-- SG_0_Node_24 -->
<g id="node20" class="node">
<title>SG_0_Node_24</title>
<ellipse fill="none" stroke="#000000" cx="104" cy="-534.066" rx="34.7971" ry="21.4286"/>
<text text-anchor="middle" x="104" y="-529.066" font-family="Times,serif" font-size="20.00" fill="#000000">0.0</text>
</g>
<!-- SG_0_Node_9&#45;&gt;SG_0_Node_24 -->
<g id="edge29" class="edge">
<title>SG_0_Node_9&#45;&gt;SG_0_Node_24</title>
<path fill="none" stroke="#000000" d="M185.0504,-874.3627C163.9979,-865.6709 143.3329,-852.9189 130,-834.2792 71.5483,-752.5623 86.1634,-624.4983 97.1135,-565.613"/>
<polygon fill="#000000" stroke="#000000" points="100.6166,-565.9349 99.097,-555.4497 93.7463,-564.594 100.6166,-565.9349"/>
<text text-anchor="middle" x="191" y="-708.2792" font-family="Times,serif" font-size="20.00" fill="#000000">same&#45;origin</text>
</g>
<!-- SG_0_Node_12 -->
<g id="node21" class="node">
<title>SG_0_Node_12</title>
<polygon fill="none" stroke="#000000" points="327,-552.066 185,-552.066 185,-516.066 327,-516.066 327,-552.066"/>
<text text-anchor="middle" x="256" y="-529.066" font-family="Times,serif" font-size="20.00" fill="#000000">Status&#45;Code</text>
</g>
<!-- SG_0_Node_9&#45;&gt;SG_0_Node_12 -->
<g id="edge30" class="edge">
<title>SG_0_Node_9&#45;&gt;SG_0_Node_12</title>
<path fill="none" stroke="#000000" d="M261.6942,-874.2252C260.7172,-815.8624 257.6659,-633.5843 256.479,-562.6833"/>
<polygon fill="#000000" stroke="#000000" points="259.9722,-562.2364 256.3052,-552.2964 252.9731,-562.3536 259.9722,-562.2364"/>
<text text-anchor="middle" x="293" y="-719.2792" font-family="Times,serif" font-size="20.00" fill="#000000">[NA]</text>
<text text-anchor="middle" x="293" y="-697.2792" font-family="Times,serif" font-size="20.00" fill="#000000">empty</text>
</g>
<!-- SG_0_Node_25 -->
<g id="node22" class="node">
<title>SG_0_Node_25</title>
<ellipse fill="none" stroke="#000000" cx="380" cy="-534.066" rx="34.7971" ry="21.4286"/>
<text text-anchor="middle" x="380" y="-529.066" font-family="Times,serif" font-size="20.00" fill="#000000">0.0</text>
</g>
<!-- SG_0_Node_10&#45;&gt;SG_0_Node_25 -->
<g id="edge17" class="edge">
<title>SG_0_Node_10&#45;&gt;SG_0_Node_25</title>
<path fill="none" stroke="#000000" d="M525.1748,-874.7034C522.4424,-873.4703 519.6948,-872.31 517,-871.2792 455.6838,-847.8259 414.1882,-886.1892 374,-834.2792 312.1562,-754.3972 347.3807,-623.4231 368.1527,-564.484"/>
<polygon fill="#000000" stroke="#000000" points="371.4724,-565.5962 371.5911,-555.002 364.8917,-563.2099 371.4724,-565.5962"/>
<text text-anchor="middle" x="474.5" y="-719.2792" font-family="Times,serif" font-size="20.00" fill="#000000">ecocnt_js=var a=5;</text>
<text text-anchor="middle" x="474.5" y="-697.2792" font-family="Times,serif" font-size="20.00" fill="#000000">empty</text>
</g>
<!-- SG_0_Node_13 -->
<g id="node23" class="node">
<title>SG_0_Node_13</title>
<polygon fill="none" stroke="#000000" points="682,-552.066 540,-552.066 540,-516.066 682,-516.066 682,-552.066"/>
<text text-anchor="middle" x="611" y="-529.066" font-family="Times,serif" font-size="20.00" fill="#000000">Status&#45;Code</text>
</g>
<!-- SG_0_Node_10&#45;&gt;SG_0_Node_13 -->
<g id="edge18" class="edge">
<title>SG_0_Node_10&#45;&gt;SG_0_Node_13</title>
<path fill="none" stroke="#000000" d="M565.7692,-874.4776C570.3354,-863.1452 575.8193,-848.1 579,-834.2792 601.6008,-736.0748 608.3032,-616.054 610.2398,-562.3716"/>
<polygon fill="#000000" stroke="#000000" points="613.742,-562.3605 610.5758,-552.2499 606.7458,-562.1282 613.742,-562.3605"/>
<text text-anchor="middle" x="881" y="-818.2792" font-family="Times,serif" font-size="20.00" fill="#000000">[NA]</text>
<text text-anchor="middle" x="881" y="-796.2792" font-family="Times,serif" font-size="20.00" fill="#000000">ecocnt_audio=duration=1</text>
<text text-anchor="middle" x="881" y="-774.2792" font-family="Times,serif" font-size="20.00" fill="#000000">ecocnt_css=h1 {color: blue}</text>
<text text-anchor="middle" x="881" y="-752.2792" font-family="Times,serif" font-size="20.00" fill="#000000">ecocnt_html=meta_refresh=0;http://172.17.0.1:8000</text>
<text text-anchor="middle" x="881" y="-730.2792" font-family="Times,serif" font-size="20.00" fill="#000000">ecocnt_html=num_frames=1,input_id=test1</text>
<text text-anchor="middle" x="881" y="-708.2792" font-family="Times,serif" font-size="20.00" fill="#000000">ecocnt_html=num_frames=2</text>
<text text-anchor="middle" x="881" y="-686.2792" font-family="Times,serif" font-size="20.00" fill="#000000">ecocnt_html=post_message=mes1</text>
<text text-anchor="middle" x="881" y="-664.2792" font-family="Times,serif" font-size="20.00" fill="#000000">ecocnt_img=width=50,height=50,type=png</text>
<text text-anchor="middle" x="881" y="-642.2792" font-family="Times,serif" font-size="20.00" fill="#000000">ecocnt_js=.,,.</text>
<text text-anchor="middle" x="881" y="-620.2792" font-family="Times,serif" font-size="20.00" fill="#000000">ecocnt_pdf=a=a</text>
<text text-anchor="middle" x="881" y="-598.2792" font-family="Times,serif" font-size="20.00" fill="#000000">ecocnt_vid=width=100,height=100,duration=2</text>
</g>
<!-- SG_0_Node_14 -->
<g id="node24" class="node">
<title>SG_0_Node_14</title>
<polygon fill="none" stroke="#000000" points="1237.5,-552.066 1132.5,-552.066 1132.5,-516.066 1237.5,-516.066 1237.5,-552.066"/>
<text text-anchor="middle" x="1185" y="-529.066" font-family="Times,serif" font-size="20.00" fill="#000000">Location</text>
</g>
<!-- SG_0_Node_11&#45;&gt;SG_0_Node_14 -->
<g id="edge11" class="edge">
<title>SG_0_Node_11&#45;&gt;SG_0_Node_14</title>
<path fill="none" stroke="#000000" d="M1192.5923,-874.2252C1191.2896,-815.8624 1187.2212,-633.5843 1185.6387,-562.6833"/>
<polygon fill="#000000" stroke="#000000" points="1189.1293,-562.2158 1185.4069,-552.2964 1182.131,-562.3721 1189.1293,-562.2158"/>
<text text-anchor="middle" x="1210.5" y="-752.2792" font-family="Times,serif" font-size="20.00" fill="#000000">301</text>
<text text-anchor="middle" x="1210.5" y="-730.2792" font-family="Times,serif" font-size="20.00" fill="#000000">302</text>
<text text-anchor="middle" x="1210.5" y="-708.2792" font-family="Times,serif" font-size="20.00" fill="#000000">303</text>
<text text-anchor="middle" x="1210.5" y="-686.2792" font-family="Times,serif" font-size="20.00" fill="#000000">307</text>
<text text-anchor="middle" x="1210.5" y="-664.2792" font-family="Times,serif" font-size="20.00" fill="#000000">308</text>
</g>
<!-- SG_0_Node_26 -->
<g id="node25" class="node">
<title>SG_0_Node_26</title>
<ellipse fill="none" stroke="#000000" cx="1290" cy="-534.066" rx="34.7971" ry="21.4286"/>
<text text-anchor="middle" x="1290" y="-529.066" font-family="Times,serif" font-size="20.00" fill="#000000">1.0</text>
</g>
<!-- SG_0_Node_11&#45;&gt;SG_0_Node_26 -->
<g id="edge12" class="edge">
<title>SG_0_Node_11&#45;&gt;SG_0_Node_26</title>
<path fill="none" stroke="#000000" d="M1208.8895,-874.3207C1217.6027,-863.4123 1227.8527,-848.859 1234,-834.2792 1273.0897,-741.5684 1284.9984,-621.3391 1288.5439,-565.3347"/>
<polygon fill="#000000" stroke="#000000" points="1292.039,-565.519 1289.1302,-555.3313 1285.051,-565.1093 1292.039,-565.519"/>
<text text-anchor="middle" x="1305.5" y="-807.2792" font-family="Times,serif" font-size="20.00" fill="#000000">200</text>
<text text-anchor="middle" x="1305.5" y="-785.2792" font-family="Times,serif" font-size="20.00" fill="#000000">201</text>
<text text-anchor="middle" x="1305.5" y="-763.2792" font-family="Times,serif" font-size="20.00" fill="#000000">202</text>
<text text-anchor="middle" x="1305.5" y="-741.2792" font-family="Times,serif" font-size="20.00" fill="#000000">203</text>
<text text-anchor="middle" x="1305.5" y="-719.2792" font-family="Times,serif" font-size="20.00" fill="#000000">206</text>
<text text-anchor="middle" x="1305.5" y="-697.2792" font-family="Times,serif" font-size="20.00" fill="#000000">207</text>
<text text-anchor="middle" x="1305.5" y="-675.2792" font-family="Times,serif" font-size="20.00" fill="#000000">208</text>
<text text-anchor="middle" x="1305.5" y="-653.2792" font-family="Times,serif" font-size="20.00" fill="#000000">226</text>
<text text-anchor="middle" x="1305.5" y="-631.2792" font-family="Times,serif" font-size="20.00" fill="#000000">300</text>
<text text-anchor="middle" x="1305.5" y="-609.2792" font-family="Times,serif" font-size="20.00" fill="#000000">305</text>
</g>
<!-- SG_0_Node_15 -->
<g id="node26" class="node">
<title>SG_0_Node_15</title>
<polygon fill="none" stroke="#000000" points="256.5,-215.6396 151.5,-215.6396 151.5,-179.6396 256.5,-179.6396 256.5,-215.6396"/>
<text text-anchor="middle" x="204" y="-192.6396" font-family="Times,serif" font-size="20.00" fill="#000000">Location</text>
</g>
<!-- SG_0_Node_12&#45;&gt;SG_0_Node_15 -->
<g id="edge31" class="edge">
<title>SG_0_Node_12&#45;&gt;SG_0_Node_15</title>
<path fill="none" stroke="#000000" d="M250.2948,-515.8702C246.8964,-504.4697 242.7277,-489.4165 240,-475.8528 221.7954,-385.3286 210.8102,-276.2964 206.3358,-225.8186"/>
<polygon fill="#000000" stroke="#000000" points="209.8077,-225.343 205.4557,-215.6833 202.834,-225.9486 209.8077,-225.343"/>
<text text-anchor="middle" x="259.5" y="-404.8528" font-family="Times,serif" font-size="20.00" fill="#000000">301</text>
<text text-anchor="middle" x="259.5" y="-382.8528" font-family="Times,serif" font-size="20.00" fill="#000000">302</text>
<text text-anchor="middle" x="259.5" y="-360.8528" font-family="Times,serif" font-size="20.00" fill="#000000">303</text>
<text text-anchor="middle" x="259.5" y="-338.8528" font-family="Times,serif" font-size="20.00" fill="#000000">307</text>
<text text-anchor="middle" x="259.5" y="-316.8528" font-family="Times,serif" font-size="20.00" fill="#000000">308</text>
</g>
<!-- SG_0_Node_27 -->
<g id="node27" class="node">
<title>SG_0_Node_27</title>
<ellipse fill="none" stroke="#000000" cx="309" cy="-197.6396" rx="34.7971" ry="21.4286"/>
<text text-anchor="middle" x="309" y="-192.6396" font-family="Times,serif" font-size="20.00" fill="#000000">1.0</text>
</g>
<!-- SG_0_Node_12&#45;&gt;SG_0_Node_27 -->
<g id="edge32" class="edge">
<title>SG_0_Node_12&#45;&gt;SG_0_Node_27</title>
<path fill="none" stroke="#000000" d="M264.6573,-515.8681C269.6479,-504.5934 275.5907,-489.6739 279,-475.8528 300.6158,-388.2234 306.6577,-281.2556 308.3458,-229.1703"/>
<polygon fill="#000000" stroke="#000000" points="311.8518,-229.0131 308.644,-218.9156 304.8547,-228.8096 311.8518,-229.0131"/>
<text text-anchor="middle" x="326.5" y="-459.8528" font-family="Times,serif" font-size="20.00" fill="#000000">200</text>
<text text-anchor="middle" x="326.5" y="-437.8528" font-family="Times,serif" font-size="20.00" fill="#000000">201</text>
<text text-anchor="middle" x="326.5" y="-415.8528" font-family="Times,serif" font-size="20.00" fill="#000000">202</text>
<text text-anchor="middle" x="326.5" y="-393.8528" font-family="Times,serif" font-size="20.00" fill="#000000">203</text>
<text text-anchor="middle" x="326.5" y="-371.8528" font-family="Times,serif" font-size="20.00" fill="#000000">206</text>
<text text-anchor="middle" x="326.5" y="-349.8528" font-family="Times,serif" font-size="20.00" fill="#000000">207</text>
<text text-anchor="middle" x="326.5" y="-327.8528" font-family="Times,serif" font-size="20.00" fill="#000000">208</text>
<text text-anchor="middle" x="326.5" y="-305.8528" font-family="Times,serif" font-size="20.00" fill="#000000">226</text>
<text text-anchor="middle" x="326.5" y="-283.8528" font-family="Times,serif" font-size="20.00" fill="#000000">300</text>
<text text-anchor="middle" x="326.5" y="-261.8528" font-family="Times,serif" font-size="20.00" fill="#000000">305</text>
</g>
<!-- SG_0_Node_16 -->
<g id="node28" class="node">
<title>SG_0_Node_16</title>
<polygon fill="none" stroke="#000000" points="611.5,-215.6396 506.5,-215.6396 506.5,-179.6396 611.5,-179.6396 611.5,-215.6396"/>
<text text-anchor="middle" x="559" y="-192.6396" font-family="Times,serif" font-size="20.00" fill="#000000">Location</text>
</g>
<!-- SG_0_Node_13&#45;&gt;SG_0_Node_16 -->
<g id="edge19" class="edge">
<title>SG_0_Node_13&#45;&gt;SG_0_Node_16</title>
<path fill="none" stroke="#000000" d="M605.2948,-515.8702C601.8964,-504.4697 597.7277,-489.4165 595,-475.8528 576.7954,-385.3286 565.8102,-276.2964 561.3358,-225.8186"/>
<polygon fill="#000000" stroke="#000000" points="564.8077,-225.343 560.4557,-215.6833 557.834,-225.9486 564.8077,-225.343"/>
<text text-anchor="middle" x="614.5" y="-404.8528" font-family="Times,serif" font-size="20.00" fill="#000000">301</text>
<text text-anchor="middle" x="614.5" y="-382.8528" font-family="Times,serif" font-size="20.00" fill="#000000">302</text>
<text text-anchor="middle" x="614.5" y="-360.8528" font-family="Times,serif" font-size="20.00" fill="#000000">303</text>
<text text-anchor="middle" x="614.5" y="-338.8528" font-family="Times,serif" font-size="20.00" fill="#000000">307</text>
<text text-anchor="middle" x="614.5" y="-316.8528" font-family="Times,serif" font-size="20.00" fill="#000000">308</text>
</g>
<!-- SG_0_Node_28 -->
<g id="node29" class="node">
<title>SG_0_Node_28</title>
<ellipse fill="none" stroke="#000000" cx="664" cy="-197.6396" rx="34.7971" ry="21.4286"/>
<text text-anchor="middle" x="664" y="-192.6396" font-family="Times,serif" font-size="20.00" fill="#000000">1.0</text>
</g>
<!-- SG_0_Node_13&#45;&gt;SG_0_Node_28 -->
<g id="edge20" class="edge">
<title>SG_0_Node_13&#45;&gt;SG_0_Node_28</title>
<path fill="none" stroke="#000000" d="M619.6573,-515.8681C624.6479,-504.5934 630.5907,-489.6739 634,-475.8528 655.6158,-388.2234 661.6577,-281.2556 663.3458,-229.1703"/>
<polygon fill="#000000" stroke="#000000" points="666.8518,-229.0131 663.644,-218.9156 659.8547,-228.8096 666.8518,-229.0131"/>
<text text-anchor="middle" x="681.5" y="-459.8528" font-family="Times,serif" font-size="20.00" fill="#000000">200</text>
<text text-anchor="middle" x="681.5" y="-437.8528" font-family="Times,serif" font-size="20.00" fill="#000000">201</text>
<text text-anchor="middle" x="681.5" y="-415.8528" font-family="Times,serif" font-size="20.00" fill="#000000">202</text>
<text text-anchor="middle" x="681.5" y="-393.8528" font-family="Times,serif" font-size="20.00" fill="#000000">203</text>
<text text-anchor="middle" x="681.5" y="-371.8528" font-family="Times,serif" font-size="20.00" fill="#000000">206</text>
<text text-anchor="middle" x="681.5" y="-349.8528" font-family="Times,serif" font-size="20.00" fill="#000000">207</text>
<text text-anchor="middle" x="681.5" y="-327.8528" font-family="Times,serif" font-size="20.00" fill="#000000">208</text>
<text text-anchor="middle" x="681.5" y="-305.8528" font-family="Times,serif" font-size="20.00" fill="#000000">226</text>
<text text-anchor="middle" x="681.5" y="-283.8528" font-family="Times,serif" font-size="20.00" fill="#000000">300</text>
<text text-anchor="middle" x="681.5" y="-261.8528" font-family="Times,serif" font-size="20.00" fill="#000000">305</text>
</g>
<!-- SG_0_Node_29 -->
<g id="node30" class="node">
<title>SG_0_Node_29</title>
<ellipse fill="none" stroke="#000000" cx="996" cy="-197.6396" rx="34.7971" ry="21.4286"/>
<text text-anchor="middle" x="996" y="-192.6396" font-family="Times,serif" font-size="20.00" fill="#000000">0.0</text>
</g>
<!-- SG_0_Node_14&#45;&gt;SG_0_Node_29 -->
<g id="edge13" class="edge">
<title>SG_0_Node_14&#45;&gt;SG_0_Node_29</title>
<path fill="none" stroke="#000000" d="M1132.0821,-524.9689C1082.0644,-515.1647 1012.315,-497.9493 996,-475.8528 941.3067,-401.7781 968.07,-283.7481 985.3028,-228.3035"/>
<polygon fill="#000000" stroke="#000000" points="988.6604,-229.2951 988.3879,-218.7038 981.9961,-227.1534 988.6604,-229.2951"/>
<text text-anchor="middle" x="1111" y="-360.8528" font-family="Times,serif" font-size="20.00" fill="#000000">http://172.17.0.1:8000</text>
</g>
<!-- SG_0_Node_30 -->
<g id="node31" class="node">
<title>SG_0_Node_30</title>
<ellipse fill="none" stroke="#000000" cx="1262" cy="-197.6396" rx="34.7971" ry="21.4286"/>
<text text-anchor="middle" x="1262" y="-192.6396" font-family="Times,serif" font-size="20.00" fill="#000000">1.0</text>
</g>
<!-- SG_0_Node_14&#45;&gt;SG_0_Node_30 -->
<g id="edge14" class="edge">
<title>SG_0_Node_14&#45;&gt;SG_0_Node_30</title>
<path fill="none" stroke="#000000" d="M1203.1076,-516.0658C1212.7652,-505.3246 1223.8878,-490.8804 1230,-475.8528 1264.1885,-391.7957 1265.5348,-282.4236 1263.7547,-229.3291"/>
<polygon fill="#000000" stroke="#000000" points="1267.246,-229.0368 1263.352,-219.1835 1260.2515,-229.3145 1267.246,-229.0368"/>
<text text-anchor="middle" x="1296" y="-371.8528" font-family="Times,serif" font-size="20.00" fill="#000000">[NA]</text>
<text text-anchor="middle" x="1296" y="-349.8528" font-family="Times,serif" font-size="20.00" fill="#000000">empty</text>
</g>
<!-- SG_0_Node_31 -->
<g id="node32" class="node">
<title>SG_0_Node_31</title>
<ellipse fill="none" stroke="#000000" cx="77" cy="-37.2132" rx="34.7971" ry="21.4286"/>
<text text-anchor="middle" x="77" y="-32.2132" font-family="Times,serif" font-size="20.00" fill="#000000">0.0</text>
</g>
<!-- SG_0_Node_15&#45;&gt;SG_0_Node_31 -->
<g id="edge33" class="edge">
<title>SG_0_Node_15&#45;&gt;SG_0_Node_31</title>
<path fill="none" stroke="#000000" d="M151.3852,-182.6169C129.3144,-173.6351 105.4638,-159.8757 91,-139.4264 76.512,-118.9428 73.6874,-90.2724 74.1,-68.5074"/>
<polygon fill="#000000" stroke="#000000" points="77.5999,-68.5826 74.5257,-58.4436 70.6061,-68.2867 77.5999,-68.5826"/>
<text text-anchor="middle" x="206" y="-112.4264" font-family="Times,serif" font-size="20.00" fill="#000000">http://172.17.0.1:8000</text>
</g>
<!-- SG_0_Node_32 -->
<g id="node33" class="node">
<title>SG_0_Node_32</title>
<ellipse fill="none" stroke="#000000" cx="343" cy="-37.2132" rx="34.7971" ry="21.4286"/>
<text text-anchor="middle" x="343" y="-32.2132" font-family="Times,serif" font-size="20.00" fill="#000000">1.0</text>
</g>
<!-- SG_0_Node_15&#45;&gt;SG_0_Node_32 -->
<g id="edge34" class="edge">
<title>SG_0_Node_15&#45;&gt;SG_0_Node_32</title>
<path fill="none" stroke="#000000" d="M250.159,-179.553C278.6272,-167.5074 311.4646,-151.6985 321,-139.4264 336.6007,-119.3483 341.7155,-90.6396 343.1489,-68.7568"/>
<polygon fill="#000000" stroke="#000000" points="346.6514,-68.7723 343.5866,-58.6304 339.6579,-68.4699 346.6514,-68.7723"/>
<text text-anchor="middle" x="371" y="-123.4264" font-family="Times,serif" font-size="20.00" fill="#000000">[NA]</text>
<text text-anchor="middle" x="371" y="-101.4264" font-family="Times,serif" font-size="20.00" fill="#000000">empty</text>
</g>
<!-- SG_0_Node_33 -->
<g id="node34" class="node">
<title>SG_0_Node_33</title>
<ellipse fill="none" stroke="#000000" cx="495" cy="-37.2132" rx="34.7971" ry="21.4286"/>
<text text-anchor="middle" x="495" y="-32.2132" font-family="Times,serif" font-size="20.00" fill="#000000">0.0</text>
</g>
<!-- SG_0_Node_16&#45;&gt;SG_0_Node_33 -->
<g id="edge21" class="edge">
<title>SG_0_Node_16&#45;&gt;SG_0_Node_33</title>
<path fill="none" stroke="#000000" d="M538.4901,-179.4398C527.9155,-168.8477 515.8344,-154.6127 509,-139.4264 498.9849,-117.1724 495.6647,-89.6533 494.7499,-68.7773"/>
<polygon fill="#000000" stroke="#000000" points="498.2417,-68.4291 494.4681,-58.5292 491.2444,-68.6216 498.2417,-68.4291"/>
<text text-anchor="middle" x="624" y="-112.4264" font-family="Times,serif" font-size="20.00" fill="#000000">http://172.17.0.1:8000</text>
</g>
<!-- SG_0_Node_34 -->
<g id="node35" class="node">
<title>SG_0_Node_34</title>
<ellipse fill="none" stroke="#000000" cx="761" cy="-37.2132" rx="34.7971" ry="21.4286"/>
<text text-anchor="middle" x="761" y="-32.2132" font-family="Times,serif" font-size="20.00" fill="#000000">1.0</text>
</g>
<!-- SG_0_Node_16&#45;&gt;SG_0_Node_34 -->
<g id="edge22" class="edge">
<title>SG_0_Node_16&#45;&gt;SG_0_Node_34</title>
<path fill="none" stroke="#000000" d="M610.5438,-179.58C613.7399,-178.502 616.9115,-177.4433 620,-176.4264 672.6084,-159.1056 701.626,-180.3023 739,-139.4264 756.3413,-120.4603 761.2305,-91.21 762.1367,-68.8515"/>
<polygon fill="#000000" stroke="#000000" points="765.6368,-68.8715 762.3012,-58.8155 758.6377,-68.7567 765.6368,-68.8715"/>
<text text-anchor="middle" x="790" y="-123.4264" font-family="Times,serif" font-size="20.00" fill="#000000">[NA]</text>
<text text-anchor="middle" x="790" y="-101.4264" font-family="Times,serif" font-size="20.00" fill="#000000">empty</text>
</g>
</g>
</svg>
