<?xml version="1.0" encoding="UTF-8" standalone="no"?>
<!DOCTYPE svg PUBLIC "-//W3C//DTD SVG 1.1//EN"
 "http://www.w3.org/Graphics/SVG/1.1/DTD/svg11.dtd">
<!-- Generated by graphviz version 2.40.1 (20161225.0304)
 -->
<!-- Title: G Pages: 1 -->
<svg width="1348pt" height="1946pt"
 viewBox="0.00 0.00 1348.00 1945.84" xmlns="http://www.w3.org/2000/svg" xmlns:xlink="http://www.w3.org/1999/xlink">
<g id="graph0" class="graph" transform="scale(1 1) rotate(0) translate(4 1941.8377)">
<title>G</title>
<polygon fill="#ffffff" stroke="transparent" points="-4,4 -4,-1941.8377 1344,-1941.8377 1344,4 -4,4"/>
<g id="clust1" class="cluster">
<title>cluster_0</title>
<polygon fill="none" stroke="#000000" points="8,-8 8,-1929.8377 1332,-1929.8377 1332,-8 8,-8"/>
<text text-anchor="middle" x="670" y="-1893.8377" font-family="Times,serif" font-size="40.00" fill="#000000">Tree 0, Class [&#39;Message: mes1 Origin: https://172.17.0.1:44300&#39;]</text>
</g>
<!-- SG_0_Node_0 -->
<g id="node1" class="node">
<title>SG_0_Node_0</title>
<polygon fill="none" stroke="#000000" points="211.5,-1869.8377 146.5,-1869.8377 146.5,-1833.8377 211.5,-1833.8377 211.5,-1869.8377"/>
<text text-anchor="middle" x="179" y="-1846.8377" font-family="Times,serif" font-size="20.00" fill="#000000">body</text>
</g>
<!-- SG_0_Node_15 -->
<g id="node2" class="node">
<title>SG_0_Node_15</title>
<ellipse fill="none" stroke="#000000" cx="115" cy="-1694.6245" rx="34.7971" ry="21.4286"/>
<text text-anchor="middle" x="115" y="-1689.6245" font-family="Times,serif" font-size="20.00" fill="#000000">0.0</text>
</g>
<!-- SG_0_Node_0&#45;&gt;SG_0_Node_15 -->
<g id="edge1" class="edge">
<title>SG_0_Node_0&#45;&gt;SG_0_Node_15</title>
<path fill="none" stroke="#000000" d="M157.7021,-1833.5365C147.6635,-1823.6974 136.4912,-1810.7433 130,-1796.8377 119.6634,-1774.6944 116.0807,-1747.1682 114.9906,-1726.2613"/>
<polygon fill="#000000" stroke="#000000" points="118.4788,-1725.8645 114.6252,-1715.9953 111.4832,-1726.1135 118.4788,-1725.8645"/>
<text text-anchor="middle" x="176" y="-1780.8377" font-family="Times,serif" font-size="20.00" fill="#000000">[NA]</text>
<text text-anchor="middle" x="176" y="-1758.8377" font-family="Times,serif" font-size="20.00" fill="#000000">11 levels</text>
</g>
<!-- SG_0_Node_1 -->
<g id="node3" class="node">
<title>SG_0_Node_1</title>
<polygon fill="none" stroke="#000000" points="322.5,-1712.6245 167.5,-1712.6245 167.5,-1676.6245 322.5,-1676.6245 322.5,-1712.6245"/>
<text text-anchor="middle" x="245" y="-1689.6245" font-family="Times,serif" font-size="20.00" fill="#000000">Content&#45;Type</text>
</g>
<!-- SG_0_Node_0&#45;&gt;SG_0_Node_1 -->
<g id="edge2" class="edge">
<title>SG_0_Node_0&#45;&gt;SG_0_Node_1</title>
<path fill="none" stroke="#000000" d="M196.8067,-1833.3894C205.6064,-1823.3183 215.6689,-1810.2008 222,-1796.8377 233.1923,-1773.2138 239.0668,-1743.9002 242.0668,-1722.7308"/>
<polygon fill="#000000" stroke="#000000" points="245.5441,-1723.1311 243.3531,-1712.7653 238.6017,-1722.235 245.5441,-1723.1311"/>
<text text-anchor="middle" x="415" y="-1769.8377" font-family="Times,serif" font-size="20.00" fill="#000000">ecocnt_html=post_message=mes1</text>
</g>
<!-- SG_0_Node_16 -->
<g id="node4" class="node">
<title>SG_0_Node_16</title>
<ellipse fill="none" stroke="#000000" cx="80" cy="-1424.1981" rx="34.7971" ry="21.4286"/>
<text text-anchor="middle" x="80" y="-1419.1981" font-family="Times,serif" font-size="20.00" fill="#000000">0.0</text>
</g>
<!-- SG_0_Node_1&#45;&gt;SG_0_Node_16 -->
<g id="edge3" class="edge">
<title>SG_0_Node_1&#45;&gt;SG_0_Node_16</title>
<path fill="none" stroke="#000000" d="M182.8809,-1676.4913C138.8101,-1663.0025 86.3824,-1645.4309 80,-1636.4113 41.6983,-1582.2825 57.2525,-1499.3719 69.8677,-1454.9041"/>
<polygon fill="#000000" stroke="#000000" points="73.2446,-1455.8268 72.7353,-1445.2442 66.5341,-1453.8346 73.2446,-1455.8268"/>
<text text-anchor="middle" x="191" y="-1620.4113" font-family="Times,serif" font-size="20.00" fill="#000000">[NA]</text>
<text text-anchor="middle" x="191" y="-1598.4113" font-family="Times,serif" font-size="20.00" fill="#000000">application/javascript</text>
<text text-anchor="middle" x="191" y="-1576.4113" font-family="Times,serif" font-size="20.00" fill="#000000">application/pdf</text>
<text text-anchor="middle" x="191" y="-1554.4113" font-family="Times,serif" font-size="20.00" fill="#000000">audio/wav</text>
<text text-anchor="middle" x="191" y="-1532.4113" font-family="Times,serif" font-size="20.00" fill="#000000">image/png</text>
<text text-anchor="middle" x="191" y="-1510.4113" font-family="Times,serif" font-size="20.00" fill="#000000">text/css</text>
<text text-anchor="middle" x="191" y="-1488.4113" font-family="Times,serif" font-size="20.00" fill="#000000">video/mp4</text>
</g>
<!-- SG_0_Node_2 -->
<g id="node5" class="node">
<title>SG_0_Node_2</title>
<polygon fill="none" stroke="#000000" points="433.5,-1442.1981 242.5,-1442.1981 242.5,-1406.1981 433.5,-1406.1981 433.5,-1442.1981"/>
<text text-anchor="middle" x="338" y="-1419.1981" font-family="Times,serif" font-size="20.00" fill="#000000">X&#45;Frame&#45;Options</text>
</g>
<!-- SG_0_Node_1&#45;&gt;SG_0_Node_2 -->
<g id="edge4" class="edge">
<title>SG_0_Node_1&#45;&gt;SG_0_Node_2</title>
<path fill="none" stroke="#000000" d="M270.8744,-1676.4989C283.5255,-1666.2226 297.7653,-1652.2588 306,-1636.4113 337.1337,-1576.4946 340.2241,-1495.0616 339.3732,-1452.6018"/>
<polygon fill="#000000" stroke="#000000" points="342.8669,-1452.3333 339.0773,-1442.4394 335.8699,-1452.5371 342.8669,-1452.3333"/>
<text text-anchor="middle" x="386" y="-1565.4113" font-family="Times,serif" font-size="20.00" fill="#000000">empty</text>
<text text-anchor="middle" x="386" y="-1543.4113" font-family="Times,serif" font-size="20.00" fill="#000000">text/html</text>
</g>
<!-- SG_0_Node_17 -->
<g id="node6" class="node">
<title>SG_0_Node_17</title>
<ellipse fill="none" stroke="#000000" cx="243" cy="-1263.7716" rx="34.7971" ry="21.4286"/>
<text text-anchor="middle" x="243" y="-1258.7716" font-family="Times,serif" font-size="20.00" fill="#000000">0.0</text>
</g>
<!-- SG_0_Node_2&#45;&gt;SG_0_Node_17 -->
<g id="edge5" class="edge">
<title>SG_0_Node_2&#45;&gt;SG_0_Node_17</title>
<path fill="none" stroke="#000000" d="M327.287,-1406.107C310.9199,-1378.468 279.5386,-1325.4744 260.0278,-1292.5264"/>
<polygon fill="#000000" stroke="#000000" points="262.9688,-1290.6238 254.8618,-1283.8027 256.9456,-1294.1906 262.9688,-1290.6238"/>
<text text-anchor="middle" x="328" y="-1349.9848" font-family="Times,serif" font-size="20.00" fill="#000000">[NA]</text>
<text text-anchor="middle" x="328" y="-1327.9848" font-family="Times,serif" font-size="20.00" fill="#000000">deny</text>
</g>
<!-- SG_0_Node_3 -->
<g id="node7" class="node">
<title>SG_0_Node_3</title>
<polygon fill="none" stroke="#000000" points="516.5,-1281.7716 295.5,-1281.7716 295.5,-1245.7716 516.5,-1245.7716 516.5,-1281.7716"/>
<text text-anchor="middle" x="406" y="-1258.7716" font-family="Times,serif" font-size="20.00" fill="#000000">Content&#45;Disposition</text>
</g>
<!-- SG_0_Node_2&#45;&gt;SG_0_Node_3 -->
<g id="edge6" class="edge">
<title>SG_0_Node_2&#45;&gt;SG_0_Node_3</title>
<path fill="none" stroke="#000000" d="M345.6683,-1406.107C357.5038,-1378.1844 380.3081,-1324.3842 394.2389,-1291.5185"/>
<polygon fill="#000000" stroke="#000000" points="397.5752,-1292.6158 398.2554,-1282.0428 391.1303,-1289.8839 397.5752,-1292.6158"/>
<text text-anchor="middle" x="412" y="-1338.9848" font-family="Times,serif" font-size="20.00" fill="#000000">empty</text>
</g>
<!-- SG_0_Node_18 -->
<g id="node8" class="node">
<title>SG_0_Node_18</title>
<ellipse fill="none" stroke="#000000" cx="329" cy="-1103.3452" rx="34.7971" ry="21.4286"/>
<text text-anchor="middle" x="329" y="-1098.3452" font-family="Times,serif" font-size="20.00" fill="#000000">0.0</text>
</g>
<!-- SG_0_Node_3&#45;&gt;SG_0_Node_18 -->
<g id="edge7" class="edge">
<title>SG_0_Node_3&#45;&gt;SG_0_Node_18</title>
<path fill="none" stroke="#000000" d="M378.8671,-1245.6105C365.8587,-1235.4162 351.3288,-1221.5373 343,-1205.5584 331.5976,-1183.6829 328.412,-1155.7598 327.9023,-1134.6284"/>
<polygon fill="#000000" stroke="#000000" points="331.402,-1134.5418 327.8464,-1124.5615 324.4021,-1134.5808 331.402,-1134.5418"/>
<text text-anchor="middle" x="402" y="-1189.5584" font-family="Times,serif" font-size="20.00" fill="#000000">[NA]</text>
<text text-anchor="middle" x="402" y="-1167.5584" font-family="Times,serif" font-size="20.00" fill="#000000">attachment</text>
</g>
<!-- SG_0_Node_4 -->
<g id="node9" class="node">
<title>SG_0_Node_4</title>
<polygon fill="none" stroke="#000000" points="554,-1121.3452 412,-1121.3452 412,-1085.3452 554,-1085.3452 554,-1121.3452"/>
<text text-anchor="middle" x="483" y="-1098.3452" font-family="Times,serif" font-size="20.00" fill="#000000">Status&#45;Code</text>
</g>
<!-- SG_0_Node_3&#45;&gt;SG_0_Node_4 -->
<g id="edge8" class="edge">
<title>SG_0_Node_3&#45;&gt;SG_0_Node_4</title>
<path fill="none" stroke="#000000" d="M428.1074,-1245.7235C439.6021,-1235.1774 452.9049,-1220.9378 461,-1205.5584 473.1509,-1182.4736 478.5925,-1153.0938 481.0284,-1131.7627"/>
<polygon fill="#000000" stroke="#000000" points="484.5214,-1132.0056 482.0236,-1121.7095 477.5555,-1131.316 484.5214,-1132.0056"/>
<text text-anchor="middle" x="507" y="-1178.5584" font-family="Times,serif" font-size="20.00" fill="#000000">empty</text>
</g>
<!-- SG_0_Node_5 -->
<g id="node10" class="node">
<title>SG_0_Node_5</title>
<polygon fill="none" stroke="#000000" points="408,-964.132 266,-964.132 266,-928.132 408,-928.132 408,-964.132"/>
<text text-anchor="middle" x="337" y="-941.132" font-family="Times,serif" font-size="20.00" fill="#000000">Status&#45;Code</text>
</g>
<!-- SG_0_Node_4&#45;&gt;SG_0_Node_5 -->
<g id="edge9" class="edge">
<title>SG_0_Node_4&#45;&gt;SG_0_Node_5</title>
<path fill="none" stroke="#000000" d="M459.2477,-1085.3429C445.4204,-1074.3775 428.0093,-1059.7098 414,-1045.132 391.9533,-1022.1908 369.9875,-993.1838 355.1934,-972.5102"/>
<polygon fill="#000000" stroke="#000000" points="357.9471,-970.3424 349.3128,-964.2024 352.2335,-974.3867 357.9471,-970.3424"/>
<text text-anchor="middle" x="460" y="-1018.132" font-family="Times,serif" font-size="20.00" fill="#000000">13 levels</text>
</g>
<!-- SG_0_Node_6 -->
<g id="node11" class="node">
<title>SG_0_Node_6</title>
<polygon fill="none" stroke="#000000" points="688,-964.132 426,-964.132 426,-928.132 688,-928.132 688,-964.132"/>
<text text-anchor="middle" x="557" y="-941.132" font-family="Times,serif" font-size="20.00" fill="#000000">X&#45;Content&#45;Type&#45;Options</text>
</g>
<!-- SG_0_Node_4&#45;&gt;SG_0_Node_6 -->
<g id="edge10" class="edge">
<title>SG_0_Node_4&#45;&gt;SG_0_Node_6</title>
<path fill="none" stroke="#000000" d="M491.4887,-1085.3109C504.3561,-1057.9742 528.8962,-1005.8387 544.0158,-973.717"/>
<polygon fill="#000000" stroke="#000000" points="547.2902,-974.9787 548.3823,-964.4403 540.9567,-971.9975 547.2902,-974.9787"/>
<text text-anchor="middle" x="576" y="-1029.132" font-family="Times,serif" font-size="20.00" fill="#000000">[NA]</text>
<text text-anchor="middle" x="576" y="-1007.132" font-family="Times,serif" font-size="20.00" fill="#000000">50 levels</text>
</g>
<!-- SG_0_Node_19 -->
<g id="node12" class="node">
<title>SG_0_Node_19</title>
<ellipse fill="none" stroke="#000000" cx="233" cy="-656.9188" rx="34.7971" ry="21.4286"/>
<text text-anchor="middle" x="233" y="-651.9188" font-family="Times,serif" font-size="20.00" fill="#000000">0.0</text>
</g>
<!-- SG_0_Node_5&#45;&gt;SG_0_Node_19 -->
<g id="edge17" class="edge">
<title>SG_0_Node_5&#45;&gt;SG_0_Node_19</title>
<path fill="none" stroke="#000000" d="M319.8055,-928.0893C310.9579,-917.9298 300.6611,-904.6047 294,-891.132 260.3962,-823.1655 243.8578,-734.649 237.0228,-688.32"/>
<polygon fill="#000000" stroke="#000000" points="240.4699,-687.6998 235.5986,-678.2912 233.5394,-688.684 240.4699,-687.6998"/>
<text text-anchor="middle" x="313.5" y="-875.132" font-family="Times,serif" font-size="20.00" fill="#000000">100</text>
<text text-anchor="middle" x="313.5" y="-853.132" font-family="Times,serif" font-size="20.00" fill="#000000">101</text>
<text text-anchor="middle" x="313.5" y="-831.132" font-family="Times,serif" font-size="20.00" fill="#000000">102</text>
<text text-anchor="middle" x="313.5" y="-809.132" font-family="Times,serif" font-size="20.00" fill="#000000">103</text>
<text text-anchor="middle" x="313.5" y="-787.132" font-family="Times,serif" font-size="20.00" fill="#000000">204</text>
<text text-anchor="middle" x="313.5" y="-765.132" font-family="Times,serif" font-size="20.00" fill="#000000">205</text>
<text text-anchor="middle" x="313.5" y="-743.132" font-family="Times,serif" font-size="20.00" fill="#000000">304</text>
<text text-anchor="middle" x="313.5" y="-721.132" font-family="Times,serif" font-size="20.00" fill="#000000">407</text>
</g>
<!-- SG_0_Node_7 -->
<g id="node13" class="node">
<title>SG_0_Node_7</title>
<polygon fill="none" stroke="#000000" points="390.5,-674.9188 285.5,-674.9188 285.5,-638.9188 390.5,-638.9188 390.5,-674.9188"/>
<text text-anchor="middle" x="338" y="-651.9188" font-family="Times,serif" font-size="20.00" fill="#000000">Location</text>
</g>
<!-- SG_0_Node_5&#45;&gt;SG_0_Node_7 -->
<g id="edge18" class="edge">
<title>SG_0_Node_5&#45;&gt;SG_0_Node_7</title>
<path fill="none" stroke="#000000" d="M337.0626,-928.0405C337.2316,-879.145 337.6986,-744.0806 337.9026,-685.0943"/>
<polygon fill="#000000" stroke="#000000" points="341.4028,-685.0157 337.9375,-675.0036 334.4028,-684.9914 341.4028,-685.0157"/>
<text text-anchor="middle" x="356.5" y="-842.132" font-family="Times,serif" font-size="20.00" fill="#000000">301</text>
<text text-anchor="middle" x="356.5" y="-820.132" font-family="Times,serif" font-size="20.00" fill="#000000">302</text>
<text text-anchor="middle" x="356.5" y="-798.132" font-family="Times,serif" font-size="20.00" fill="#000000">303</text>
<text text-anchor="middle" x="356.5" y="-776.132" font-family="Times,serif" font-size="20.00" fill="#000000">307</text>
<text text-anchor="middle" x="356.5" y="-754.132" font-family="Times,serif" font-size="20.00" fill="#000000">308</text>
</g>
<!-- SG_0_Node_8 -->
<g id="node14" class="node">
<title>SG_0_Node_8</title>
<polygon fill="none" stroke="#000000" points="632.5,-674.9188 477.5,-674.9188 477.5,-638.9188 632.5,-638.9188 632.5,-674.9188"/>
<text text-anchor="middle" x="555" y="-651.9188" font-family="Times,serif" font-size="20.00" fill="#000000">Content&#45;Type</text>
</g>
<!-- SG_0_Node_6&#45;&gt;SG_0_Node_8 -->
<g id="edge11" class="edge">
<title>SG_0_Node_6&#45;&gt;SG_0_Node_8</title>
<path fill="none" stroke="#000000" d="M556.8749,-928.0405C556.5368,-879.145 555.6028,-744.0806 555.1948,-685.0943"/>
<polygon fill="#000000" stroke="#000000" points="558.6942,-684.9791 555.1251,-675.0036 551.6944,-685.0276 558.6942,-684.9791"/>
<text text-anchor="middle" x="591" y="-809.132" font-family="Times,serif" font-size="20.00" fill="#000000">[NA]</text>
<text text-anchor="middle" x="591" y="-787.132" font-family="Times,serif" font-size="20.00" fill="#000000">nosniff</text>
</g>
<!-- SG_0_Node_20 -->
<g id="node15" class="node">
<title>SG_0_Node_20</title>
<ellipse fill="none" stroke="#000000" cx="685" cy="-656.9188" rx="34.7971" ry="21.4286"/>
<text text-anchor="middle" x="685" y="-651.9188" font-family="Times,serif" font-size="20.00" fill="#000000">1.0</text>
</g>
<!-- SG_0_Node_6&#45;&gt;SG_0_Node_20 -->
<g id="edge12" class="edge">
<title>SG_0_Node_6&#45;&gt;SG_0_Node_20</title>
<path fill="none" stroke="#000000" d="M590.3435,-928.1244C604.5617,-918.8483 620.1186,-906.2843 630,-891.132 671.5746,-827.3811 681.8299,-735.7213 684.2879,-688.1826"/>
<polygon fill="#000000" stroke="#000000" points="687.7848,-688.3272 684.7219,-678.1848 680.7914,-688.0235 687.7848,-688.3272"/>
<text text-anchor="middle" x="714" y="-798.132" font-family="Times,serif" font-size="20.00" fill="#000000">empty</text>
</g>
<!-- SG_0_Node_21 -->
<g id="node16" class="node">
<title>SG_0_Node_21</title>
<ellipse fill="none" stroke="#000000" cx="81" cy="-496.4924" rx="34.7971" ry="21.4286"/>
<text text-anchor="middle" x="81" y="-491.4924" font-family="Times,serif" font-size="20.00" fill="#000000">0.0</text>
</g>
<!-- SG_0_Node_7&#45;&gt;SG_0_Node_21 -->
<g id="edge19" class="edge">
<title>SG_0_Node_7&#45;&gt;SG_0_Node_21</title>
<path fill="none" stroke="#000000" d="M287.5537,-638.8509C283.997,-637.739 280.4536,-636.6782 277,-635.7056 202.5704,-614.7464 162.6192,-652.4231 107,-598.7056 88.2395,-580.5866 82.3067,-550.9863 80.7348,-528.2908"/>
<polygon fill="#000000" stroke="#000000" points="84.2225,-527.9354 80.2824,-518.1005 77.2294,-528.2459 84.2225,-527.9354"/>
<text text-anchor="middle" x="222" y="-571.7056" font-family="Times,serif" font-size="20.00" fill="#000000">http://172.17.0.1:8000</text>
</g>
<!-- SG_0_Node_9 -->
<g id="node17" class="node">
<title>SG_0_Node_9</title>
<polygon fill="none" stroke="#000000" points="478,-514.4924 216,-514.4924 216,-478.4924 478,-478.4924 478,-514.4924"/>
<text text-anchor="middle" x="347" y="-491.4924" font-family="Times,serif" font-size="20.00" fill="#000000">X&#45;Content&#45;Type&#45;Options</text>
</g>
<!-- SG_0_Node_7&#45;&gt;SG_0_Node_9 -->
<g id="edge20" class="edge">
<title>SG_0_Node_7&#45;&gt;SG_0_Node_9</title>
<path fill="none" stroke="#000000" d="M339.0149,-638.8277C340.5679,-611.1459 343.5477,-558.0306 345.3954,-525.0939"/>
<polygon fill="#000000" stroke="#000000" points="348.9093,-524.9439 345.975,-514.7636 341.9203,-524.5518 348.9093,-524.9439"/>
<text text-anchor="middle" x="375" y="-582.7056" font-family="Times,serif" font-size="20.00" fill="#000000">[NA]</text>
<text text-anchor="middle" x="375" y="-560.7056" font-family="Times,serif" font-size="20.00" fill="#000000">empty</text>
</g>
<!-- SG_0_Node_22 -->
<g id="node18" class="node">
<title>SG_0_Node_22</title>
<ellipse fill="none" stroke="#000000" cx="549" cy="-496.4924" rx="34.7971" ry="21.4286"/>
<text text-anchor="middle" x="549" y="-491.4924" font-family="Times,serif" font-size="20.00" fill="#000000">0.0</text>
</g>
<!-- SG_0_Node_8&#45;&gt;SG_0_Node_22 -->
<g id="edge13" class="edge">
<title>SG_0_Node_8&#45;&gt;SG_0_Node_22</title>
<path fill="none" stroke="#000000" d="M554.3234,-638.8277C553.3168,-611.9128 551.4109,-560.9543 550.1738,-527.877"/>
<polygon fill="#000000" stroke="#000000" points="553.669,-527.6813 549.7976,-517.8191 546.6739,-527.943 553.669,-527.6813"/>
<text text-anchor="middle" x="584" y="-571.7056" font-family="Times,serif" font-size="20.00" fill="#000000">empty</text>
</g>
<!-- SG_0_Node_10 -->
<g id="node19" class="node">
<title>SG_0_Node_10</title>
<polygon fill="none" stroke="#000000" points="744,-514.4924 602,-514.4924 602,-478.4924 744,-478.4924 744,-514.4924"/>
<text text-anchor="middle" x="673" y="-491.4924" font-family="Times,serif" font-size="20.00" fill="#000000">Status&#45;Code</text>
</g>
<!-- SG_0_Node_8&#45;&gt;SG_0_Node_10 -->
<g id="edge14" class="edge">
<title>SG_0_Node_8&#45;&gt;SG_0_Node_10</title>
<path fill="none" stroke="#000000" d="M579.2152,-638.801C592.3775,-628.1295 608.3063,-613.7917 620,-598.7056 637.9471,-575.5519 652.7153,-545.4097 662.0625,-523.8687"/>
<polygon fill="#000000" stroke="#000000" points="665.2969,-525.2063 665.9677,-514.6327 658.8495,-522.4802 665.2969,-525.2063"/>
<text text-anchor="middle" x="693" y="-571.7056" font-family="Times,serif" font-size="20.00" fill="#000000">text/html</text>
</g>
<!-- SG_0_Node_11 -->
<g id="node20" class="node">
<title>SG_0_Node_11</title>
<polygon fill="none" stroke="#000000" points="327.5,-354.066 172.5,-354.066 172.5,-318.066 327.5,-318.066 327.5,-354.066"/>
<text text-anchor="middle" x="250" y="-331.066" font-family="Times,serif" font-size="20.00" fill="#000000">Content&#45;Type</text>
</g>
<!-- SG_0_Node_9&#45;&gt;SG_0_Node_11 -->
<g id="edge21" class="edge">
<title>SG_0_Node_9&#45;&gt;SG_0_Node_11</title>
<path fill="none" stroke="#000000" d="M322.4693,-478.2893C309.7889,-467.798 294.9321,-453.6595 285,-438.2792 270.2218,-415.3947 260.9467,-385.5783 255.6871,-364.0606"/>
<polygon fill="#000000" stroke="#000000" points="259.078,-363.189 253.4211,-354.2308 252.2569,-364.7614 259.078,-363.189"/>
<text text-anchor="middle" x="320" y="-422.2792" font-family="Times,serif" font-size="20.00" fill="#000000">[NA]</text>
<text text-anchor="middle" x="320" y="-400.2792" font-family="Times,serif" font-size="20.00" fill="#000000">nosniff</text>
</g>
<!-- SG_0_Node_23 -->
<g id="node21" class="node">
<title>SG_0_Node_23</title>
<ellipse fill="none" stroke="#000000" cx="380" cy="-336.066" rx="34.7971" ry="21.4286"/>
<text text-anchor="middle" x="380" y="-331.066" font-family="Times,serif" font-size="20.00" fill="#000000">1.0</text>
</g>
<!-- SG_0_Node_9&#45;&gt;SG_0_Node_23 -->
<g id="edge22" class="edge">
<title>SG_0_Node_9&#45;&gt;SG_0_Node_23</title>
<path fill="none" stroke="#000000" d="M350.7214,-478.4013C356.273,-451.4125 366.7977,-400.2477 373.6001,-367.1784"/>
<polygon fill="#000000" stroke="#000000" points="377.0802,-367.6312 375.6669,-357.1311 370.2238,-366.2208 377.0802,-367.6312"/>
<text text-anchor="middle" x="399" y="-411.2792" font-family="Times,serif" font-size="20.00" fill="#000000">empty</text>
</g>
<!-- SG_0_Node_24 -->
<g id="node22" class="node">
<title>SG_0_Node_24</title>
<ellipse fill="none" stroke="#000000" cx="624" cy="-336.066" rx="52.1524" ry="21.4286"/>
<text text-anchor="middle" x="624" y="-331.066" font-family="Times,serif" font-size="20.00" fill="#000000">0.941</text>
</g>
<!-- SG_0_Node_10&#45;&gt;SG_0_Node_24 -->
<g id="edge15" class="edge">
<title>SG_0_Node_10&#45;&gt;SG_0_Node_24</title>
<path fill="none" stroke="#000000" d="M666.5292,-478.4831C662.4825,-467.0243 657.2503,-451.8416 653,-438.2792 645.5442,-414.4881 637.8772,-387.3259 632.3005,-366.9846"/>
<polygon fill="#000000" stroke="#000000" points="635.6697,-366.0361 629.664,-357.3079 628.9159,-367.8763 635.6697,-366.0361"/>
<text text-anchor="middle" x="672.5" y="-422.2792" font-family="Times,serif" font-size="20.00" fill="#000000">200</text>
<text text-anchor="middle" x="672.5" y="-400.2792" font-family="Times,serif" font-size="20.00" fill="#000000">203</text>
</g>
<!-- SG_0_Node_25 -->
<g id="node23" class="node">
<title>SG_0_Node_25</title>
<ellipse fill="none" stroke="#000000" cx="729" cy="-336.066" rx="34.7971" ry="21.4286"/>
<text text-anchor="middle" x="729" y="-331.066" font-family="Times,serif" font-size="20.00" fill="#000000">1.0</text>
</g>
<!-- SG_0_Node_10&#45;&gt;SG_0_Node_25 -->
<g id="edge16" class="edge">
<title>SG_0_Node_10&#45;&gt;SG_0_Node_25</title>
<path fill="none" stroke="#000000" d="M679.3151,-478.4013C688.8028,-451.2214 706.8495,-399.5219 718.3839,-366.4787"/>
<polygon fill="#000000" stroke="#000000" points="721.7465,-367.4655 721.7377,-356.8707 715.1375,-365.1585 721.7465,-367.4655"/>
<text text-anchor="middle" x="754" y="-422.2792" font-family="Times,serif" font-size="20.00" fill="#000000">[NA]</text>
<text text-anchor="middle" x="754" y="-400.2792" font-family="Times,serif" font-size="20.00" fill="#000000">48 levels</text>
</g>
<!-- SG_0_Node_26 -->
<g id="node24" class="node">
<title>SG_0_Node_26</title>
<ellipse fill="none" stroke="#000000" cx="100" cy="-197.6396" rx="34.7971" ry="21.4286"/>
<text text-anchor="middle" x="100" y="-192.6396" font-family="Times,serif" font-size="20.00" fill="#000000">0.0</text>
</g>
<!-- SG_0_Node_11&#45;&gt;SG_0_Node_26 -->
<g id="edge23" class="edge">
<title>SG_0_Node_11&#45;&gt;SG_0_Node_26</title>
<path fill="none" stroke="#000000" d="M230.3901,-317.9692C204.0009,-293.6161 156.9407,-250.1869 127.158,-222.7022"/>
<polygon fill="#000000" stroke="#000000" points="129.3373,-219.9507 119.6147,-215.7409 124.5899,-225.0949 129.3373,-219.9507"/>
<text text-anchor="middle" x="216" y="-261.8528" font-family="Times,serif" font-size="20.00" fill="#000000">empty</text>
</g>
<!-- SG_0_Node_13 -->
<g id="node25" class="node">
<title>SG_0_Node_13</title>
<polygon fill="none" stroke="#000000" points="469.5,-215.6396 152.5,-215.6396 152.5,-179.6396 469.5,-179.6396 469.5,-215.6396"/>
<text text-anchor="middle" x="311" y="-192.6396" font-family="Times,serif" font-size="20.00" fill="#000000">Cross&#45;Origin&#45;Resource&#45;Policy</text>
</g>
<!-- SG_0_Node_11&#45;&gt;SG_0_Node_13 -->
<g id="edge24" class="edge">
<title>SG_0_Node_11&#45;&gt;SG_0_Node_13</title>
<path fill="none" stroke="#000000" d="M257.9747,-317.9692C268.3866,-294.3415 286.7115,-252.7572 298.8551,-225.1998"/>
<polygon fill="#000000" stroke="#000000" points="302.1936,-226.3032 303.0234,-215.7409 295.788,-223.4804 302.1936,-226.3032"/>
<text text-anchor="middle" x="331" y="-261.8528" font-family="Times,serif" font-size="20.00" fill="#000000">text/html</text>
</g>
<!-- SG_0_Node_27 -->
<g id="node26" class="node">
<title>SG_0_Node_27</title>
<ellipse fill="none" stroke="#000000" cx="259" cy="-37.2132" rx="52.1524" ry="21.4286"/>
<text text-anchor="middle" x="259" y="-32.2132" font-family="Times,serif" font-size="20.00" fill="#000000">0.909</text>
</g>
<!-- SG_0_Node_13&#45;&gt;SG_0_Node_27 -->
<g id="edge25" class="edge">
<title>SG_0_Node_13&#45;&gt;SG_0_Node_27</title>
<path fill="none" stroke="#000000" d="M297.5888,-179.4129C290.1063,-168.3704 281.2601,-153.7004 276,-139.4264 267.5778,-116.5719 263.3091,-89.3002 261.1564,-68.6771"/>
<polygon fill="#000000" stroke="#000000" points="264.6261,-68.189 260.2127,-58.5572 257.6564,-68.839 264.6261,-68.189"/>
<text text-anchor="middle" x="308" y="-123.4264" font-family="Times,serif" font-size="20.00" fill="#000000">[NA]</text>
<text text-anchor="middle" x="308" y="-101.4264" font-family="Times,serif" font-size="20.00" fill="#000000">empty</text>
</g>
<!-- SG_0_Node_28 -->
<g id="node27" class="node">
<title>SG_0_Node_28</title>
<ellipse fill="none" stroke="#000000" cx="364" cy="-37.2132" rx="34.7971" ry="21.4286"/>
<text text-anchor="middle" x="364" y="-32.2132" font-family="Times,serif" font-size="20.00" fill="#000000">1.0</text>
</g>
<!-- SG_0_Node_13&#45;&gt;SG_0_Node_28 -->
<g id="edge26" class="edge">
<title>SG_0_Node_13&#45;&gt;SG_0_Node_28</title>
<path fill="none" stroke="#000000" d="M321.3984,-179.5073C327.502,-168.2565 334.9781,-153.3391 340,-139.4264 348.3794,-116.2121 354.6087,-88.9612 358.6183,-68.4375"/>
<polygon fill="#000000" stroke="#000000" points="362.102,-68.8501 360.5123,-58.3752 355.2228,-67.5552 362.102,-68.8501"/>
<text text-anchor="middle" x="413" y="-112.4264" font-family="Times,serif" font-size="20.00" fill="#000000">same&#45;origin</text>
</g>
</g>
</svg>
