<?xml version="1.0" encoding="UTF-8" standalone="no"?>
<!DOCTYPE svg PUBLIC "-//W3C//DTD SVG 1.1//EN"
 "http://www.w3.org/Graphics/SVG/1.1/DTD/svg11.dtd">
<!-- Generated by graphviz version 2.40.1 (20161225.0304)
 -->
<!-- Title: G Pages: 1 -->
<svg width="1348pt" height="1785pt"
 viewBox="0.00 0.00 1348.00 1785.41" xmlns="http://www.w3.org/2000/svg" xmlns:xlink="http://www.w3.org/1999/xlink">
<g id="graph0" class="graph" transform="scale(1 1) rotate(0) translate(4 1781.4113)">
<title>G</title>
<polygon fill="#ffffff" stroke="transparent" points="-4,4 -4,-1781.4113 1344,-1781.4113 1344,4 -4,4"/>
<g id="clust1" class="cluster">
<title>cluster_0</title>
<polygon fill="none" stroke="#000000" points="8,-8 8,-1769.4113 1332,-1769.4113 1332,-8 8,-8"/>
<text text-anchor="middle" x="670" y="-1733.4113" font-family="Times,serif" font-size="40.00" fill="#000000">Tree 0, Class [&#39;Message: mes1 Origin: https://172.17.0.1:44300&#39;]</text>
</g>
<!-- SG_0_Node_0 -->
<g id="node1" class="node">
<title>SG_0_Node_0</title>
<polygon fill="none" stroke="#000000" points="211.5,-1709.4113 146.5,-1709.4113 146.5,-1673.4113 211.5,-1673.4113 211.5,-1709.4113"/>
<text text-anchor="middle" x="179" y="-1686.4113" font-family="Times,serif" font-size="20.00" fill="#000000">body</text>
</g>
<!-- SG_0_Node_16 -->
<g id="node2" class="node">
<title>SG_0_Node_16</title>
<ellipse fill="none" stroke="#000000" cx="115" cy="-1534.1981" rx="34.7971" ry="21.4286"/>
<text text-anchor="middle" x="115" y="-1529.1981" font-family="Times,serif" font-size="20.00" fill="#000000">0.0</text>
</g>
<!-- SG_0_Node_0&#45;&gt;SG_0_Node_16 -->
<g id="edge1" class="edge">
<title>SG_0_Node_0&#45;&gt;SG_0_Node_16</title>
<path fill="none" stroke="#000000" d="M157.7021,-1673.1101C147.6635,-1663.271 136.4912,-1650.3169 130,-1636.4113 119.6634,-1614.268 116.0807,-1586.7418 114.9906,-1565.8349"/>
<polygon fill="#000000" stroke="#000000" points="118.4788,-1565.4381 114.6252,-1555.5689 111.4832,-1565.6871 118.4788,-1565.4381"/>
<text text-anchor="middle" x="176" y="-1620.4113" font-family="Times,serif" font-size="20.00" fill="#000000">[NA]</text>
<text text-anchor="middle" x="176" y="-1598.4113" font-family="Times,serif" font-size="20.00" fill="#000000">11 levels</text>
</g>
<!-- SG_0_Node_1 -->
<g id="node3" class="node">
<title>SG_0_Node_1</title>
<polygon fill="none" stroke="#000000" points="322.5,-1552.1981 167.5,-1552.1981 167.5,-1516.1981 322.5,-1516.1981 322.5,-1552.1981"/>
<text text-anchor="middle" x="245" y="-1529.1981" font-family="Times,serif" font-size="20.00" fill="#000000">Content&#45;Type</text>
</g>
<!-- SG_0_Node_0&#45;&gt;SG_0_Node_1 -->
<g id="edge2" class="edge">
<title>SG_0_Node_0&#45;&gt;SG_0_Node_1</title>
<path fill="none" stroke="#000000" d="M196.8067,-1672.963C205.6064,-1662.8919 215.6689,-1649.7744 222,-1636.4113 233.1923,-1612.7874 239.0668,-1583.4737 242.0668,-1562.3044"/>
<polygon fill="#000000" stroke="#000000" points="245.5441,-1562.7047 243.3531,-1552.3389 238.6017,-1561.8086 245.5441,-1562.7047"/>
<text text-anchor="middle" x="415" y="-1609.4113" font-family="Times,serif" font-size="20.00" fill="#000000">ecocnt_html=post_message=mes1</text>
</g>
<!-- SG_0_Node_17 -->
<g id="node4" class="node">
<title>SG_0_Node_17</title>
<ellipse fill="none" stroke="#000000" cx="95" cy="-1263.7716" rx="34.7971" ry="21.4286"/>
<text text-anchor="middle" x="95" y="-1258.7716" font-family="Times,serif" font-size="20.00" fill="#000000">0.0</text>
</g>
<!-- SG_0_Node_1&#45;&gt;SG_0_Node_17 -->
<g id="edge3" class="edge">
<title>SG_0_Node_1&#45;&gt;SG_0_Node_17</title>
<path fill="none" stroke="#000000" d="M177.5742,-1516.1555C142.599,-1505.2903 105.099,-1490.737 95,-1475.9848 57.5424,-1421.2686 72.7539,-1338.5965 85.091,-1294.3222"/>
<polygon fill="#000000" stroke="#000000" points="88.4555,-1295.2864 87.8954,-1284.7063 81.7355,-1293.3264 88.4555,-1295.2864"/>
<text text-anchor="middle" x="206" y="-1459.9848" font-family="Times,serif" font-size="20.00" fill="#000000">[NA]</text>
<text text-anchor="middle" x="206" y="-1437.9848" font-family="Times,serif" font-size="20.00" fill="#000000">application/javascript</text>
<text text-anchor="middle" x="206" y="-1415.9848" font-family="Times,serif" font-size="20.00" fill="#000000">application/pdf</text>
<text text-anchor="middle" x="206" y="-1393.9848" font-family="Times,serif" font-size="20.00" fill="#000000">audio/wav</text>
<text text-anchor="middle" x="206" y="-1371.9848" font-family="Times,serif" font-size="20.00" fill="#000000">image/png</text>
<text text-anchor="middle" x="206" y="-1349.9848" font-family="Times,serif" font-size="20.00" fill="#000000">text/css</text>
<text text-anchor="middle" x="206" y="-1327.9848" font-family="Times,serif" font-size="20.00" fill="#000000">video/mp4</text>
</g>
<!-- SG_0_Node_2 -->
<g id="node5" class="node">
<title>SG_0_Node_2</title>
<polygon fill="none" stroke="#000000" points="463.5,-1281.7716 242.5,-1281.7716 242.5,-1245.7716 463.5,-1245.7716 463.5,-1281.7716"/>
<text text-anchor="middle" x="353" y="-1258.7716" font-family="Times,serif" font-size="20.00" fill="#000000">Content&#45;Disposition</text>
</g>
<!-- SG_0_Node_1&#45;&gt;SG_0_Node_2 -->
<g id="edge4" class="edge">
<title>SG_0_Node_1&#45;&gt;SG_0_Node_2</title>
<path fill="none" stroke="#000000" d="M279.1413,-1516.1581C294.388,-1506.3275 311.1124,-1492.7291 321,-1475.9848 355.4937,-1417.5713 357.109,-1334.9043 355.1653,-1292.0295"/>
<polygon fill="#000000" stroke="#000000" points="358.659,-1291.817 354.6123,-1282.0255 351.6697,-1292.2034 358.659,-1291.817"/>
<text text-anchor="middle" x="402" y="-1404.9848" font-family="Times,serif" font-size="20.00" fill="#000000">empty</text>
<text text-anchor="middle" x="402" y="-1382.9848" font-family="Times,serif" font-size="20.00" fill="#000000">text/html</text>
</g>
<!-- SG_0_Node_18 -->
<g id="node6" class="node">
<title>SG_0_Node_18</title>
<ellipse fill="none" stroke="#000000" cx="201" cy="-1103.3452" rx="34.7971" ry="21.4286"/>
<text text-anchor="middle" x="201" y="-1098.3452" font-family="Times,serif" font-size="20.00" fill="#000000">0.0</text>
</g>
<!-- SG_0_Node_2&#45;&gt;SG_0_Node_18 -->
<g id="edge5" class="edge">
<title>SG_0_Node_2&#45;&gt;SG_0_Node_18</title>
<path fill="none" stroke="#000000" d="M307.0787,-1245.7168C287.2604,-1236.1356 265.0044,-1222.7458 249,-1205.5584 229.9996,-1185.1535 217.2961,-1155.8744 209.7572,-1133.8786"/>
<polygon fill="#000000" stroke="#000000" points="213.0766,-1132.7683 206.6528,-1124.343 206.4205,-1134.9353 213.0766,-1132.7683"/>
<text text-anchor="middle" x="308" y="-1189.5584" font-family="Times,serif" font-size="20.00" fill="#000000">[NA]</text>
<text text-anchor="middle" x="308" y="-1167.5584" font-family="Times,serif" font-size="20.00" fill="#000000">attachment</text>
</g>
<!-- SG_0_Node_3 -->
<g id="node7" class="node">
<title>SG_0_Node_3</title>
<polygon fill="none" stroke="#000000" points="552,-1121.3452 254,-1121.3452 254,-1085.3452 552,-1085.3452 552,-1121.3452"/>
<text text-anchor="middle" x="403" y="-1098.3452" font-family="Times,serif" font-size="20.00" fill="#000000">Cross&#45;Origin&#45;Opener&#45;Policy</text>
</g>
<!-- SG_0_Node_2&#45;&gt;SG_0_Node_3 -->
<g id="edge6" class="edge">
<title>SG_0_Node_2&#45;&gt;SG_0_Node_3</title>
<path fill="none" stroke="#000000" d="M358.6384,-1245.6805C367.3035,-1217.8783 383.9645,-1164.4211 394.2193,-1131.5183"/>
<polygon fill="#000000" stroke="#000000" points="397.6713,-1132.2049 397.3054,-1121.6164 390.9884,-1130.122 397.6713,-1132.2049"/>
<text text-anchor="middle" x="416" y="-1178.5584" font-family="Times,serif" font-size="20.00" fill="#000000">empty</text>
</g>
<!-- SG_0_Node_19 -->
<g id="node8" class="node">
<title>SG_0_Node_19</title>
<ellipse fill="none" stroke="#000000" cx="308" cy="-942.9188" rx="34.7971" ry="21.4286"/>
<text text-anchor="middle" x="308" y="-937.9188" font-family="Times,serif" font-size="20.00" fill="#000000">0.0</text>
</g>
<!-- SG_0_Node_3&#45;&gt;SG_0_Node_19 -->
<g id="edge7" class="edge">
<title>SG_0_Node_3&#45;&gt;SG_0_Node_19</title>
<path fill="none" stroke="#000000" d="M353.6936,-1085.234C336.0283,-1076.0767 318.0188,-1063.0214 308,-1045.132 295.9284,-1023.5773 296.9865,-995.2376 300.4638,-973.8672"/>
<polygon fill="#000000" stroke="#000000" points="303.9116,-974.4708 302.3183,-963.9964 297.032,-973.1782 303.9116,-974.4708"/>
<text text-anchor="middle" x="369" y="-1018.132" font-family="Times,serif" font-size="20.00" fill="#000000">same&#45;origin</text>
</g>
<!-- SG_0_Node_4 -->
<g id="node9" class="node">
<title>SG_0_Node_4</title>
<polygon fill="none" stroke="#000000" points="537,-960.9188 395,-960.9188 395,-924.9188 537,-924.9188 537,-960.9188"/>
<text text-anchor="middle" x="466" y="-937.9188" font-family="Times,serif" font-size="20.00" fill="#000000">Status&#45;Code</text>
</g>
<!-- SG_0_Node_3&#45;&gt;SG_0_Node_4 -->
<g id="edge8" class="edge">
<title>SG_0_Node_3&#45;&gt;SG_0_Node_4</title>
<path fill="none" stroke="#000000" d="M413.8132,-1085.1586C420.2273,-1073.888 428.2091,-1058.9688 434,-1045.132 444.2559,-1020.6267 453.0308,-991.6399 458.7836,-970.8052"/>
<polygon fill="#000000" stroke="#000000" points="462.2022,-971.5711 461.4332,-961.0042 455.4447,-969.7442 462.2022,-971.5711"/>
<text text-anchor="middle" x="481" y="-1029.132" font-family="Times,serif" font-size="20.00" fill="#000000">[NA]</text>
<text text-anchor="middle" x="481" y="-1007.132" font-family="Times,serif" font-size="20.00" fill="#000000">empty</text>
</g>
<!-- SG_0_Node_5 -->
<g id="node10" class="node">
<title>SG_0_Node_5</title>
<polygon fill="none" stroke="#000000" points="389,-803.7056 247,-803.7056 247,-767.7056 389,-767.7056 389,-803.7056"/>
<text text-anchor="middle" x="318" y="-780.7056" font-family="Times,serif" font-size="20.00" fill="#000000">Status&#45;Code</text>
</g>
<!-- SG_0_Node_4&#45;&gt;SG_0_Node_5 -->
<g id="edge9" class="edge">
<title>SG_0_Node_4&#45;&gt;SG_0_Node_5</title>
<path fill="none" stroke="#000000" d="M439.6097,-924.7903C424.8222,-914.0076 406.4969,-899.5647 392,-884.7056 370.1032,-862.2617 349.0936,-833.1843 335.0927,-812.3587"/>
<polygon fill="#000000" stroke="#000000" points="337.982,-810.3828 329.5392,-803.982 332.1477,-814.2507 337.982,-810.3828"/>
<text text-anchor="middle" x="438" y="-857.7056" font-family="Times,serif" font-size="20.00" fill="#000000">13 levels</text>
</g>
<!-- SG_0_Node_6 -->
<g id="node11" class="node">
<title>SG_0_Node_6</title>
<polygon fill="none" stroke="#000000" points="602.5,-803.7056 447.5,-803.7056 447.5,-767.7056 602.5,-767.7056 602.5,-803.7056"/>
<text text-anchor="middle" x="525" y="-780.7056" font-family="Times,serif" font-size="20.00" fill="#000000">Content&#45;Type</text>
</g>
<!-- SG_0_Node_4&#45;&gt;SG_0_Node_6 -->
<g id="edge10" class="edge">
<title>SG_0_Node_4&#45;&gt;SG_0_Node_6</title>
<path fill="none" stroke="#000000" d="M472.7681,-924.8845C482.9829,-897.6657 502.4244,-845.8612 514.4914,-813.707"/>
<polygon fill="#000000" stroke="#000000" points="517.8923,-814.6061 518.1291,-804.0139 511.3387,-812.1465 517.8923,-814.6061"/>
<text text-anchor="middle" x="550" y="-868.7056" font-family="Times,serif" font-size="20.00" fill="#000000">[NA]</text>
<text text-anchor="middle" x="550" y="-846.7056" font-family="Times,serif" font-size="20.00" fill="#000000">50 levels</text>
</g>
<!-- SG_0_Node_20 -->
<g id="node12" class="node">
<title>SG_0_Node_20</title>
<ellipse fill="none" stroke="#000000" cx="213" cy="-496.4924" rx="34.7971" ry="21.4286"/>
<text text-anchor="middle" x="213" y="-491.4924" font-family="Times,serif" font-size="20.00" fill="#000000">0.0</text>
</g>
<!-- SG_0_Node_5&#45;&gt;SG_0_Node_20 -->
<g id="edge21" class="edge">
<title>SG_0_Node_5&#45;&gt;SG_0_Node_20</title>
<path fill="none" stroke="#000000" d="M300.8269,-767.6523C291.9856,-757.4896 281.688,-744.165 275,-730.7056 241.2251,-662.7351 224.26,-574.2202 217.1879,-527.8926"/>
<polygon fill="#000000" stroke="#000000" points="220.6309,-527.2479 215.7121,-517.8641 213.7055,-528.2671 220.6309,-527.2479"/>
<text text-anchor="middle" x="294.5" y="-714.7056" font-family="Times,serif" font-size="20.00" fill="#000000">100</text>
<text text-anchor="middle" x="294.5" y="-692.7056" font-family="Times,serif" font-size="20.00" fill="#000000">101</text>
<text text-anchor="middle" x="294.5" y="-670.7056" font-family="Times,serif" font-size="20.00" fill="#000000">102</text>
<text text-anchor="middle" x="294.5" y="-648.7056" font-family="Times,serif" font-size="20.00" fill="#000000">103</text>
<text text-anchor="middle" x="294.5" y="-626.7056" font-family="Times,serif" font-size="20.00" fill="#000000">204</text>
<text text-anchor="middle" x="294.5" y="-604.7056" font-family="Times,serif" font-size="20.00" fill="#000000">205</text>
<text text-anchor="middle" x="294.5" y="-582.7056" font-family="Times,serif" font-size="20.00" fill="#000000">304</text>
<text text-anchor="middle" x="294.5" y="-560.7056" font-family="Times,serif" font-size="20.00" fill="#000000">407</text>
</g>
<!-- SG_0_Node_7 -->
<g id="node13" class="node">
<title>SG_0_Node_7</title>
<polygon fill="none" stroke="#000000" points="370.5,-514.4924 265.5,-514.4924 265.5,-478.4924 370.5,-478.4924 370.5,-514.4924"/>
<text text-anchor="middle" x="318" y="-491.4924" font-family="Times,serif" font-size="20.00" fill="#000000">Location</text>
</g>
<!-- SG_0_Node_5&#45;&gt;SG_0_Node_7 -->
<g id="edge22" class="edge">
<title>SG_0_Node_5&#45;&gt;SG_0_Node_7</title>
<path fill="none" stroke="#000000" d="M318,-767.614C318,-718.7186 318,-583.6542 318,-524.6679"/>
<polygon fill="#000000" stroke="#000000" points="321.5001,-524.5771 318,-514.5772 314.5001,-524.5772 321.5001,-524.5771"/>
<text text-anchor="middle" x="337.5" y="-681.7056" font-family="Times,serif" font-size="20.00" fill="#000000">301</text>
<text text-anchor="middle" x="337.5" y="-659.7056" font-family="Times,serif" font-size="20.00" fill="#000000">302</text>
<text text-anchor="middle" x="337.5" y="-637.7056" font-family="Times,serif" font-size="20.00" fill="#000000">303</text>
<text text-anchor="middle" x="337.5" y="-615.7056" font-family="Times,serif" font-size="20.00" fill="#000000">307</text>
<text text-anchor="middle" x="337.5" y="-593.7056" font-family="Times,serif" font-size="20.00" fill="#000000">308</text>
</g>
<!-- SG_0_Node_8 -->
<g id="node14" class="node">
<title>SG_0_Node_8</title>
<polygon fill="none" stroke="#000000" points="656,-514.4924 394,-514.4924 394,-478.4924 656,-478.4924 656,-514.4924"/>
<text text-anchor="middle" x="525" y="-491.4924" font-family="Times,serif" font-size="20.00" fill="#000000">X&#45;Content&#45;Type&#45;Options</text>
</g>
<!-- SG_0_Node_6&#45;&gt;SG_0_Node_8 -->
<g id="edge11" class="edge">
<title>SG_0_Node_6&#45;&gt;SG_0_Node_8</title>
<path fill="none" stroke="#000000" d="M525,-767.614C525,-718.7186 525,-583.6542 525,-524.6679"/>
<polygon fill="#000000" stroke="#000000" points="528.5001,-524.5771 525,-514.5772 521.5001,-524.5772 528.5001,-524.5771"/>
<text text-anchor="middle" x="557" y="-637.7056" font-family="Times,serif" font-size="20.00" fill="#000000">empty</text>
</g>
<!-- SG_0_Node_9 -->
<g id="node15" class="node">
<title>SG_0_Node_9</title>
<polygon fill="none" stroke="#000000" points="819,-514.4924 677,-514.4924 677,-478.4924 819,-478.4924 819,-514.4924"/>
<text text-anchor="middle" x="748" y="-491.4924" font-family="Times,serif" font-size="20.00" fill="#000000">Status&#45;Code</text>
</g>
<!-- SG_0_Node_6&#45;&gt;SG_0_Node_9 -->
<g id="edge12" class="edge">
<title>SG_0_Node_6&#45;&gt;SG_0_Node_9</title>
<path fill="none" stroke="#000000" d="M551.1484,-767.5415C564.5138,-757.5481 580.5414,-744.4144 593,-730.7056 654.3853,-663.1605 708.8714,-569.1718 733.7283,-523.5229"/>
<polygon fill="#000000" stroke="#000000" points="736.9055,-525.0051 738.5745,-514.5425 730.7452,-521.6807 736.9055,-525.0051"/>
<text text-anchor="middle" x="763" y="-637.7056" font-family="Times,serif" font-size="20.00" fill="#000000">text/html</text>
</g>
<!-- SG_0_Node_21 -->
<g id="node16" class="node">
<title>SG_0_Node_21</title>
<ellipse fill="none" stroke="#000000" cx="52" cy="-336.066" rx="34.7971" ry="21.4286"/>
<text text-anchor="middle" x="52" y="-331.066" font-family="Times,serif" font-size="20.00" fill="#000000">0.0</text>
</g>
<!-- SG_0_Node_7&#45;&gt;SG_0_Node_21 -->
<g id="edge23" class="edge">
<title>SG_0_Node_7&#45;&gt;SG_0_Node_21</title>
<path fill="none" stroke="#000000" d="M268.261,-478.4853C264.4713,-477.3316 260.6874,-476.2468 257,-475.2792 167.4486,-451.7804 111.3682,-509.3219 52,-438.2792 35.7915,-418.8834 37.6202,-389.4271 42.4319,-367.1107"/>
<polygon fill="#000000" stroke="#000000" points="45.901,-367.6592 44.8827,-357.1134 39.1023,-365.9925 45.901,-367.6592"/>
<text text-anchor="middle" x="167" y="-411.2792" font-family="Times,serif" font-size="20.00" fill="#000000">http://172.17.0.1:8000</text>
</g>
<!-- SG_0_Node_10 -->
<g id="node17" class="node">
<title>SG_0_Node_10</title>
<polygon fill="none" stroke="#000000" points="386,-354.066 124,-354.066 124,-318.066 386,-318.066 386,-354.066"/>
<text text-anchor="middle" x="255" y="-331.066" font-family="Times,serif" font-size="20.00" fill="#000000">X&#45;Content&#45;Type&#45;Options</text>
</g>
<!-- SG_0_Node_7&#45;&gt;SG_0_Node_10 -->
<g id="edge24" class="edge">
<title>SG_0_Node_7&#45;&gt;SG_0_Node_10</title>
<path fill="none" stroke="#000000" d="M313.4332,-478.4071C307.9535,-457.6939 297.9886,-422.9248 286,-394.2792 281.6116,-383.7935 275.965,-372.6863 270.6959,-363.0163"/>
<polygon fill="#000000" stroke="#000000" points="273.7378,-361.2848 265.8132,-354.2527 267.6229,-364.6919 273.7378,-361.2848"/>
<text text-anchor="middle" x="333" y="-422.2792" font-family="Times,serif" font-size="20.00" fill="#000000">[NA]</text>
<text text-anchor="middle" x="333" y="-400.2792" font-family="Times,serif" font-size="20.00" fill="#000000">empty</text>
</g>
<!-- SG_0_Node_22 -->
<g id="node18" class="node">
<title>SG_0_Node_22</title>
<ellipse fill="none" stroke="#000000" cx="439" cy="-336.066" rx="34.7971" ry="21.4286"/>
<text text-anchor="middle" x="439" y="-331.066" font-family="Times,serif" font-size="20.00" fill="#000000">0.0</text>
</g>
<!-- SG_0_Node_8&#45;&gt;SG_0_Node_22 -->
<g id="edge17" class="edge">
<title>SG_0_Node_8&#45;&gt;SG_0_Node_22</title>
<path fill="none" stroke="#000000" d="M500.0129,-478.3025C487.4481,-467.9135 473.0142,-453.8661 464,-438.2792 451.4036,-416.4981 445.1248,-388.5678 442.0118,-367.4097"/>
<polygon fill="#000000" stroke="#000000" points="445.4604,-366.788 440.6899,-357.3279 438.5198,-367.6981 445.4604,-366.788"/>
<text text-anchor="middle" x="499" y="-411.2792" font-family="Times,serif" font-size="20.00" fill="#000000">nosniff</text>
</g>
<!-- SG_0_Node_11 -->
<g id="node19" class="node">
<title>SG_0_Node_11</title>
<polygon fill="none" stroke="#000000" points="634,-354.066 492,-354.066 492,-318.066 634,-318.066 634,-354.066"/>
<text text-anchor="middle" x="563" y="-331.066" font-family="Times,serif" font-size="20.00" fill="#000000">Status&#45;Code</text>
</g>
<!-- SG_0_Node_8&#45;&gt;SG_0_Node_11 -->
<g id="edge18" class="edge">
<title>SG_0_Node_8&#45;&gt;SG_0_Node_11</title>
<path fill="none" stroke="#000000" d="M529.2852,-478.4013C535.8707,-450.5991 548.533,-397.1419 556.3267,-364.2391"/>
<polygon fill="#000000" stroke="#000000" points="559.7729,-364.8746 558.6721,-354.3371 552.9614,-363.2611 559.7729,-364.8746"/>
<text text-anchor="middle" x="581" y="-422.2792" font-family="Times,serif" font-size="20.00" fill="#000000">[NA]</text>
<text text-anchor="middle" x="581" y="-400.2792" font-family="Times,serif" font-size="20.00" fill="#000000">empty</text>
</g>
<!-- SG_0_Node_12 -->
<g id="node20" class="node">
<title>SG_0_Node_12</title>
<polygon fill="none" stroke="#000000" points="843.5,-354.066 652.5,-354.066 652.5,-318.066 843.5,-318.066 843.5,-354.066"/>
<text text-anchor="middle" x="748" y="-331.066" font-family="Times,serif" font-size="20.00" fill="#000000">X&#45;Frame&#45;Options</text>
</g>
<!-- SG_0_Node_9&#45;&gt;SG_0_Node_12 -->
<g id="edge13" class="edge">
<title>SG_0_Node_9&#45;&gt;SG_0_Node_12</title>
<path fill="none" stroke="#000000" d="M748,-478.4013C748,-450.7194 748,-397.6042 748,-364.6675"/>
<polygon fill="#000000" stroke="#000000" points="751.5001,-364.3371 748,-354.3371 744.5001,-364.3372 751.5001,-364.3371"/>
<text text-anchor="middle" x="767.5" y="-422.2792" font-family="Times,serif" font-size="20.00" fill="#000000">406</text>
<text text-anchor="middle" x="767.5" y="-400.2792" font-family="Times,serif" font-size="20.00" fill="#000000">451</text>
</g>
<!-- SG_0_Node_23 -->
<g id="node21" class="node">
<title>SG_0_Node_23</title>
<ellipse fill="none" stroke="#000000" cx="896" cy="-336.066" rx="34.7971" ry="21.4286"/>
<text text-anchor="middle" x="896" y="-331.066" font-family="Times,serif" font-size="20.00" fill="#000000">1.0</text>
</g>
<!-- SG_0_Node_9&#45;&gt;SG_0_Node_23 -->
<g id="edge14" class="edge">
<title>SG_0_Node_9&#45;&gt;SG_0_Node_23</title>
<path fill="none" stroke="#000000" d="M764.6898,-478.4013C790.9347,-449.9528 841.9606,-394.6427 872.0947,-361.9784"/>
<polygon fill="#000000" stroke="#000000" points="874.7076,-364.3079 878.9158,-354.5846 869.5626,-359.5614 874.7076,-364.3079"/>
<text text-anchor="middle" x="887" y="-422.2792" font-family="Times,serif" font-size="20.00" fill="#000000">[NA]</text>
<text text-anchor="middle" x="887" y="-400.2792" font-family="Times,serif" font-size="20.00" fill="#000000">48 levels</text>
</g>
<!-- SG_0_Node_13 -->
<g id="node22" class="node">
<title>SG_0_Node_13</title>
<polygon fill="none" stroke="#000000" points="242.5,-193.6396 87.5,-193.6396 87.5,-157.6396 242.5,-157.6396 242.5,-193.6396"/>
<text text-anchor="middle" x="165" y="-170.6396" font-family="Times,serif" font-size="20.00" fill="#000000">Content&#45;Type</text>
</g>
<!-- SG_0_Node_10&#45;&gt;SG_0_Node_13 -->
<g id="edge25" class="edge">
<title>SG_0_Node_10&#45;&gt;SG_0_Node_13</title>
<path fill="none" stroke="#000000" d="M231.0113,-317.8853C218.6669,-307.4006 204.2992,-293.2612 195,-277.8528 181.1846,-254.9612 173.4055,-225.326 169.2509,-203.865"/>
<polygon fill="#000000" stroke="#000000" points="172.6496,-202.9871 167.444,-193.7593 165.7589,-204.2193 172.6496,-202.9871"/>
<text text-anchor="middle" x="230" y="-250.8528" font-family="Times,serif" font-size="20.00" fill="#000000">nosniff</text>
</g>
<!-- SG_0_Node_24 -->
<g id="node23" class="node">
<title>SG_0_Node_24</title>
<ellipse fill="none" stroke="#000000" cx="295" cy="-175.6396" rx="34.7971" ry="21.4286"/>
<text text-anchor="middle" x="295" y="-170.6396" font-family="Times,serif" font-size="20.00" fill="#000000">1.0</text>
</g>
<!-- SG_0_Node_10&#45;&gt;SG_0_Node_24 -->
<g id="edge26" class="edge">
<title>SG_0_Node_10&#45;&gt;SG_0_Node_24</title>
<path fill="none" stroke="#000000" d="M259.5108,-317.9749C266.24,-290.986 278.9972,-239.8213 287.2426,-206.752"/>
<polygon fill="#000000" stroke="#000000" points="290.7244,-207.2544 289.7477,-196.7046 283.9323,-205.5608 290.7244,-207.2544"/>
<text text-anchor="middle" x="312" y="-261.8528" font-family="Times,serif" font-size="20.00" fill="#000000">[NA]</text>
<text text-anchor="middle" x="312" y="-239.8528" font-family="Times,serif" font-size="20.00" fill="#000000">empty</text>
</g>
<!-- SG_0_Node_25 -->
<g id="node24" class="node">
<title>SG_0_Node_25</title>
<ellipse fill="none" stroke="#000000" cx="493" cy="-175.6396" rx="52.1524" ry="21.4286"/>
<text text-anchor="middle" x="493" y="-170.6396" font-family="Times,serif" font-size="20.00" fill="#000000">0.875</text>
</g>
<!-- SG_0_Node_11&#45;&gt;SG_0_Node_25 -->
<g id="edge19" class="edge">
<title>SG_0_Node_11&#45;&gt;SG_0_Node_25</title>
<path fill="none" stroke="#000000" d="M552.6313,-318.0068C546.3046,-306.6576 538.2583,-291.6105 532,-277.8528 521.254,-254.2297 510.8686,-226.7047 503.5204,-206.1731"/>
<polygon fill="#000000" stroke="#000000" points="506.8048,-204.9626 500.1687,-196.7035 500.2059,-207.2983 506.8048,-204.9626"/>
<text text-anchor="middle" x="551.5" y="-261.8528" font-family="Times,serif" font-size="20.00" fill="#000000">200</text>
<text text-anchor="middle" x="551.5" y="-239.8528" font-family="Times,serif" font-size="20.00" fill="#000000">507</text>
</g>
<!-- SG_0_Node_26 -->
<g id="node25" class="node">
<title>SG_0_Node_26</title>
<ellipse fill="none" stroke="#000000" cx="598" cy="-175.6396" rx="34.7971" ry="21.4286"/>
<text text-anchor="middle" x="598" y="-170.6396" font-family="Times,serif" font-size="20.00" fill="#000000">1.0</text>
</g>
<!-- SG_0_Node_11&#45;&gt;SG_0_Node_26 -->
<g id="edge20" class="edge">
<title>SG_0_Node_11&#45;&gt;SG_0_Node_26</title>
<path fill="none" stroke="#000000" d="M566.9469,-317.9749C572.835,-290.986 583.9976,-239.8213 591.2123,-206.752"/>
<polygon fill="#000000" stroke="#000000" points="594.6922,-207.2209 593.4043,-196.7046 587.8531,-205.7288 594.6922,-207.2209"/>
<text text-anchor="middle" x="631" y="-261.8528" font-family="Times,serif" font-size="20.00" fill="#000000">[NA]</text>
<text text-anchor="middle" x="631" y="-239.8528" font-family="Times,serif" font-size="20.00" fill="#000000">48 levels</text>
</g>
<!-- SG_0_Node_27 -->
<g id="node26" class="node">
<title>SG_0_Node_27</title>
<ellipse fill="none" stroke="#000000" cx="715" cy="-175.6396" rx="52.1524" ry="21.4286"/>
<text text-anchor="middle" x="715" y="-170.6396" font-family="Times,serif" font-size="20.00" fill="#000000">0.875</text>
</g>
<!-- SG_0_Node_12&#45;&gt;SG_0_Node_27 -->
<g id="edge15" class="edge">
<title>SG_0_Node_12&#45;&gt;SG_0_Node_27</title>
<path fill="none" stroke="#000000" d="M744.2786,-317.9749C738.7422,-291.06 728.2599,-240.1015 721.4559,-207.0242"/>
<polygon fill="#000000" stroke="#000000" points="724.8301,-206.056 719.3869,-196.9663 717.9736,-207.4664 724.8301,-206.056"/>
<text text-anchor="middle" x="759.5" y="-250.8528" font-family="Times,serif" font-size="20.00" fill="#000000">deny</text>
</g>
<!-- SG_0_Node_28 -->
<g id="node27" class="node">
<title>SG_0_Node_28</title>
<ellipse fill="none" stroke="#000000" cx="820" cy="-175.6396" rx="34.7971" ry="21.4286"/>
<text text-anchor="middle" x="820" y="-170.6396" font-family="Times,serif" font-size="20.00" fill="#000000">1.0</text>
</g>
<!-- SG_0_Node_12&#45;&gt;SG_0_Node_28 -->
<g id="edge16" class="edge">
<title>SG_0_Node_12&#45;&gt;SG_0_Node_28</title>
<path fill="none" stroke="#000000" d="M762.4638,-318.0596C770.8212,-306.9757 781.0272,-292.188 788,-277.8528 799.1328,-254.9653 807.5087,-227.3326 812.8933,-206.5717"/>
<polygon fill="#000000" stroke="#000000" points="816.3329,-207.2441 815.3652,-196.6935 809.5423,-205.5448 816.3329,-207.2441"/>
<text text-anchor="middle" x="836" y="-261.8528" font-family="Times,serif" font-size="20.00" fill="#000000">[NA]</text>
<text text-anchor="middle" x="836" y="-239.8528" font-family="Times,serif" font-size="20.00" fill="#000000">empty</text>
</g>
<!-- SG_0_Node_29 -->
<g id="node28" class="node">
<title>SG_0_Node_29</title>
<ellipse fill="none" stroke="#000000" cx="93" cy="-37.2132" rx="34.7971" ry="21.4286"/>
<text text-anchor="middle" x="93" y="-32.2132" font-family="Times,serif" font-size="20.00" fill="#000000">0.0</text>
</g>
<!-- SG_0_Node_13&#45;&gt;SG_0_Node_29 -->
<g id="edge27" class="edge">
<title>SG_0_Node_13&#45;&gt;SG_0_Node_29</title>
<path fill="none" stroke="#000000" d="M142.1106,-157.4622C130.4427,-146.9785 117.0524,-132.8389 109,-117.4264 101.1996,-102.4963 97.1928,-84.1794 95.1387,-68.8202"/>
<polygon fill="#000000" stroke="#000000" points="98.6006,-68.2842 94.006,-58.7375 91.6443,-69.0657 98.6006,-68.2842"/>
<text text-anchor="middle" x="141" y="-101.4264" font-family="Times,serif" font-size="20.00" fill="#000000">empty</text>
</g>
<!-- SG_0_Node_30 -->
<g id="node29" class="node">
<title>SG_0_Node_30</title>
<ellipse fill="none" stroke="#000000" cx="193" cy="-37.2132" rx="34.7971" ry="21.4286"/>
<text text-anchor="middle" x="193" y="-32.2132" font-family="Times,serif" font-size="20.00" fill="#000000">1.0</text>
</g>
<!-- SG_0_Node_13&#45;&gt;SG_0_Node_30 -->
<g id="edge28" class="edge">
<title>SG_0_Node_13&#45;&gt;SG_0_Node_30</title>
<path fill="none" stroke="#000000" d="M168.6605,-157.5428C173.2348,-134.9285 181.1363,-95.8649 186.6929,-68.3941"/>
<polygon fill="#000000" stroke="#000000" points="190.1438,-68.9871 188.6959,-58.4917 183.2827,-67.5993 190.1438,-68.9871"/>
<text text-anchor="middle" x="227" y="-101.4264" font-family="Times,serif" font-size="20.00" fill="#000000">text/html</text>
</g>
</g>
</svg>
