<?xml version="1.0" encoding="UTF-8" standalone="no"?>
<!DOCTYPE svg PUBLIC "-//W3C//DTD SVG 1.1//EN"
 "http://www.w3.org/Graphics/SVG/1.1/DTD/svg11.dtd">
<!-- Generated by graphviz version 2.40.1 (20161225.0304)
 -->
<!-- Title: G Pages: 1 -->
<svg width="677pt" height="1062pt"
 viewBox="0.00 0.00 677.00 1062.13" xmlns="http://www.w3.org/2000/svg" xmlns:xlink="http://www.w3.org/1999/xlink">
<g id="graph0" class="graph" transform="scale(1 1) rotate(0) translate(4 1058.132)">
<title>G</title>
<polygon fill="#ffffff" stroke="transparent" points="-4,4 -4,-1058.132 673,-1058.132 673,4 -4,4"/>
<g id="clust1" class="cluster">
<title>cluster_0</title>
<polygon fill="none" stroke="#000000" points="8,-8 8,-1046.132 661,-1046.132 661,-8 8,-8"/>
<text text-anchor="middle" x="334.5" y="-1010.132" font-family="Times,serif" font-size="40.00" fill="#000000">Tree 0, Class js&#45;undefined</text>
</g>
<!-- SG_0_Node_0 -->
<g id="node1" class="node">
<title>SG_0_Node_0</title>
<polygon fill="none" stroke="#000000" points="378,-986.132 236,-986.132 236,-950.132 378,-950.132 378,-986.132"/>
<text text-anchor="middle" x="307" y="-963.132" font-family="Times,serif" font-size="20.00" fill="#000000">Status&#45;Code</text>
</g>
<!-- SG_0_Node_1 -->
<g id="node2" class="node">
<title>SG_0_Node_1</title>
<polygon fill="none" stroke="#000000" points="297.5,-828.9188 232.5,-828.9188 232.5,-792.9188 297.5,-792.9188 297.5,-828.9188"/>
<text text-anchor="middle" x="265" y="-805.9188" font-family="Times,serif" font-size="20.00" fill="#000000">body</text>
</g>
<!-- SG_0_Node_0&#45;&gt;SG_0_Node_1 -->
<g id="edge1" class="edge">
<title>SG_0_Node_0&#45;&gt;SG_0_Node_1</title>
<path fill="none" stroke="#000000" d="M299.2464,-950.052C294.9118,-939.442 289.6618,-925.692 286,-913.132 278.8323,-888.5469 273.1773,-859.9472 269.5499,-839.2627"/>
<polygon fill="#000000" stroke="#000000" points="272.9706,-838.5008 267.8406,-829.2307 266.0701,-839.6766 272.9706,-838.5008"/>
<text text-anchor="middle" x="305.5" y="-886.132" font-family="Times,serif" font-size="20.00" fill="#000000">406</text>
</g>
<!-- SG_0_Node_6 -->
<g id="node3" class="node">
<title>SG_0_Node_6</title>
<ellipse fill="none" stroke="#000000" cx="350" cy="-810.9188" rx="34.7971" ry="21.4286"/>
<text text-anchor="middle" x="350" y="-805.9188" font-family="Times,serif" font-size="20.00" fill="#000000">1.0</text>
</g>
<!-- SG_0_Node_0&#45;&gt;SG_0_Node_6 -->
<g id="edge2" class="edge">
<title>SG_0_Node_0&#45;&gt;SG_0_Node_6</title>
<path fill="none" stroke="#000000" d="M313.3523,-949.9066C316.9697,-939.2481 321.4697,-925.4981 325,-913.132 331.7474,-889.4967 338.308,-862.4715 343.0143,-842.1483"/>
<polygon fill="#000000" stroke="#000000" points="346.4753,-842.7142 345.2975,-832.185 339.6521,-841.1505 346.4753,-842.7142"/>
<text text-anchor="middle" x="382" y="-897.132" font-family="Times,serif" font-size="20.00" fill="#000000">[NA]</text>
<text text-anchor="middle" x="382" y="-875.132" font-family="Times,serif" font-size="20.00" fill="#000000">62 levels</text>
</g>
<!-- SG_0_Node_2 -->
<g id="node4" class="node">
<title>SG_0_Node_2</title>
<polygon fill="none" stroke="#000000" points="224.5,-668.4924 69.5,-668.4924 69.5,-632.4924 224.5,-632.4924 224.5,-668.4924"/>
<text text-anchor="middle" x="147" y="-645.4924" font-family="Times,serif" font-size="20.00" fill="#000000">Content&#45;Type</text>
</g>
<!-- SG_0_Node_1&#45;&gt;SG_0_Node_2 -->
<g id="edge3" class="edge">
<title>SG_0_Node_1&#45;&gt;SG_0_Node_2</title>
<path fill="none" stroke="#000000" d="M232.3632,-806.9954C177.4525,-799.6498 70.3755,-781.8748 48,-752.7056 36.0976,-737.1894 38.2897,-725.68 48,-708.7056 56.6487,-693.5871 70.9224,-682.0081 85.9753,-673.3134"/>
<polygon fill="#000000" stroke="#000000" points="87.7394,-676.3389 94.8916,-668.5225 84.4261,-670.1726 87.7394,-676.3389"/>
<text text-anchor="middle" x="293.5" y="-725.7056" font-family="Times,serif" font-size="20.00" fill="#000000">ecocnt_vid=width=100,height=100,duration=2</text>
</g>
<!-- SG_0_Node_7 -->
<g id="node5" class="node">
<title>SG_0_Node_7</title>
<ellipse fill="none" stroke="#000000" cx="561" cy="-650.4924" rx="34.7971" ry="21.4286"/>
<text text-anchor="middle" x="561" y="-645.4924" font-family="Times,serif" font-size="20.00" fill="#000000">1.0</text>
</g>
<!-- SG_0_Node_1&#45;&gt;SG_0_Node_7 -->
<g id="edge4" class="edge">
<title>SG_0_Node_1&#45;&gt;SG_0_Node_7</title>
<path fill="none" stroke="#000000" d="M297.7228,-792.8416C300.4781,-791.6731 303.259,-790.6063 306,-789.7056 405.6132,-756.9738 462.8644,-824.7996 539,-752.7056 557.888,-734.8203 562.5234,-704.9295 562.9444,-682.0787"/>
<polygon fill="#000000" stroke="#000000" points="566.4425,-681.8006 562.8671,-671.8273 559.4427,-681.8534 566.4425,-681.8006"/>
<text text-anchor="middle" x="606" y="-736.7056" font-family="Times,serif" font-size="20.00" fill="#000000">[NA]</text>
<text text-anchor="middle" x="606" y="-714.7056" font-family="Times,serif" font-size="20.00" fill="#000000">11 levels</text>
</g>
<!-- SG_0_Node_3 -->
<g id="node6" class="node">
<title>SG_0_Node_3</title>
<polygon fill="none" stroke="#000000" points="278,-376.066 16,-376.066 16,-340.066 278,-340.066 278,-376.066"/>
<text text-anchor="middle" x="147" y="-353.066" font-family="Times,serif" font-size="20.00" fill="#000000">X&#45;Content&#45;Type&#45;Options</text>
</g>
<!-- SG_0_Node_2&#45;&gt;SG_0_Node_3 -->
<g id="edge5" class="edge">
<title>SG_0_Node_2&#45;&gt;SG_0_Node_3</title>
<path fill="none" stroke="#000000" d="M147,-632.1998C147,-582.7611 147,-446.1962 147,-386.5546"/>
<polygon fill="#000000" stroke="#000000" points="150.5001,-386.3517 147,-376.3517 143.5001,-386.3517 150.5001,-386.3517"/>
<text text-anchor="middle" x="194" y="-499.2792" font-family="Times,serif" font-size="20.00" fill="#000000">text/html</text>
</g>
<!-- SG_0_Node_8 -->
<g id="node7" class="node">
<title>SG_0_Node_8</title>
<ellipse fill="none" stroke="#000000" cx="331" cy="-358.066" rx="34.7971" ry="21.4286"/>
<text text-anchor="middle" x="331" y="-353.066" font-family="Times,serif" font-size="20.00" fill="#000000">1.0</text>
</g>
<!-- SG_0_Node_2&#45;&gt;SG_0_Node_8 -->
<g id="edge6" class="edge">
<title>SG_0_Node_2&#45;&gt;SG_0_Node_8</title>
<path fill="none" stroke="#000000" d="M191.1956,-632.3922C209.9391,-622.8356 230.7082,-609.4779 245,-592.2792 295.6808,-531.2899 317.8557,-437.7569 326.3772,-389.4132"/>
<polygon fill="#000000" stroke="#000000" points="329.832,-389.974 328.0384,-379.5321 322.9289,-388.8135 329.832,-389.974"/>
<text text-anchor="middle" x="431" y="-576.2792" font-family="Times,serif" font-size="20.00" fill="#000000">[NA]</text>
<text text-anchor="middle" x="431" y="-554.2792" font-family="Times,serif" font-size="20.00" fill="#000000">application/javascript</text>
<text text-anchor="middle" x="431" y="-532.2792" font-family="Times,serif" font-size="20.00" fill="#000000">application/pdf</text>
<text text-anchor="middle" x="431" y="-510.2792" font-family="Times,serif" font-size="20.00" fill="#000000">audio/wav</text>
<text text-anchor="middle" x="431" y="-488.2792" font-family="Times,serif" font-size="20.00" fill="#000000">empty</text>
<text text-anchor="middle" x="431" y="-466.2792" font-family="Times,serif" font-size="20.00" fill="#000000">image/png</text>
<text text-anchor="middle" x="431" y="-444.2792" font-family="Times,serif" font-size="20.00" fill="#000000">text/css</text>
<text text-anchor="middle" x="431" y="-422.2792" font-family="Times,serif" font-size="20.00" fill="#000000">video/mp4</text>
</g>
<!-- SG_0_Node_4 -->
<g id="node8" class="node">
<title>SG_0_Node_4</title>
<polygon fill="none" stroke="#000000" points="224.5,-215.6396 33.5,-215.6396 33.5,-179.6396 224.5,-179.6396 224.5,-215.6396"/>
<text text-anchor="middle" x="129" y="-192.6396" font-family="Times,serif" font-size="20.00" fill="#000000">X&#45;Frame&#45;Options</text>
</g>
<!-- SG_0_Node_3&#45;&gt;SG_0_Node_4 -->
<g id="edge7" class="edge">
<title>SG_0_Node_3&#45;&gt;SG_0_Node_4</title>
<path fill="none" stroke="#000000" d="M144.9702,-339.9749C141.8642,-312.293 135.9046,-259.1778 132.2091,-226.2411"/>
<polygon fill="#000000" stroke="#000000" points="135.6433,-225.4581 131.05,-215.9107 128.687,-226.2387 135.6433,-225.4581"/>
<text text-anchor="middle" x="175" y="-272.8528" font-family="Times,serif" font-size="20.00" fill="#000000">nosniff</text>
</g>
<!-- SG_0_Node_9 -->
<g id="node9" class="node">
<title>SG_0_Node_9</title>
<ellipse fill="none" stroke="#000000" cx="277" cy="-197.6396" rx="34.7971" ry="21.4286"/>
<text text-anchor="middle" x="277" y="-192.6396" font-family="Times,serif" font-size="20.00" fill="#000000">1.0</text>
</g>
<!-- SG_0_Node_3&#45;&gt;SG_0_Node_9 -->
<g id="edge8" class="edge">
<title>SG_0_Node_3&#45;&gt;SG_0_Node_9</title>
<path fill="none" stroke="#000000" d="M171.2444,-339.9826C184.7462,-329.2144 201.3345,-314.7711 214,-299.8528 233.1558,-277.2898 250.4429,-248.312 262.0414,-226.9762"/>
<polygon fill="#000000" stroke="#000000" points="265.1837,-228.522 266.8044,-218.0519 259.0081,-225.2261 265.1837,-228.522"/>
<text text-anchor="middle" x="276" y="-283.8528" font-family="Times,serif" font-size="20.00" fill="#000000">[NA]</text>
<text text-anchor="middle" x="276" y="-261.8528" font-family="Times,serif" font-size="20.00" fill="#000000">empty</text>
</g>
<!-- SG_0_Node_10 -->
<g id="node10" class="node">
<title>SG_0_Node_10</title>
<ellipse fill="none" stroke="#000000" cx="98" cy="-37.2132" rx="52.1524" ry="21.4286"/>
<text text-anchor="middle" x="98" y="-32.2132" font-family="Times,serif" font-size="20.00" fill="#000000">0.938</text>
</g>
<!-- SG_0_Node_4&#45;&gt;SG_0_Node_10 -->
<g id="edge9" class="edge">
<title>SG_0_Node_4&#45;&gt;SG_0_Node_10</title>
<path fill="none" stroke="#000000" d="M124.316,-179.6204C121.4234,-168.1578 117.7522,-152.9745 115,-139.4264 110.1817,-115.7071 105.7323,-88.6861 102.5949,-68.386"/>
<polygon fill="#000000" stroke="#000000" points="106.0453,-67.7947 101.0789,-58.436 99.1252,-68.8492 106.0453,-67.7947"/>
<text text-anchor="middle" x="147" y="-112.4264" font-family="Times,serif" font-size="20.00" fill="#000000">empty</text>
</g>
<!-- SG_0_Node_11 -->
<g id="node11" class="node">
<title>SG_0_Node_11</title>
<ellipse fill="none" stroke="#000000" cx="203" cy="-37.2132" rx="34.7971" ry="21.4286"/>
<text text-anchor="middle" x="203" y="-32.2132" font-family="Times,serif" font-size="20.00" fill="#000000">1.0</text>
</g>
<!-- SG_0_Node_4&#45;&gt;SG_0_Node_11 -->
<g id="edge10" class="edge">
<title>SG_0_Node_4&#45;&gt;SG_0_Node_11</title>
<path fill="none" stroke="#000000" d="M148.703,-179.4283C159.1643,-168.7276 171.3956,-154.3917 179,-139.4264 190.3023,-117.1837 196.3795,-89.5063 199.588,-68.5642"/>
<polygon fill="#000000" stroke="#000000" points="203.0649,-68.9728 200.98,-58.5851 196.132,-68.0057 203.0649,-68.9728"/>
<text text-anchor="middle" x="219" y="-123.4264" font-family="Times,serif" font-size="20.00" fill="#000000">[NA]</text>
<text text-anchor="middle" x="219" y="-101.4264" font-family="Times,serif" font-size="20.00" fill="#000000">deny</text>
</g>
</g>
</svg>
