<?xml version="1.0" encoding="UTF-8" standalone="no"?>
<!DOCTYPE svg PUBLIC "-//W3C//DTD SVG 1.1//EN"
 "http://www.w3.org/Graphics/SVG/1.1/DTD/svg11.dtd">
<!-- Generated by graphviz version 2.40.1 (20161225.0304)
 -->
<!-- Title: G Pages: 1 -->
<svg width="859pt" height="1823pt"
 viewBox="0.00 0.00 859.00 1822.98" xmlns="http://www.w3.org/2000/svg" xmlns:xlink="http://www.w3.org/1999/xlink">
<g id="graph0" class="graph" transform="scale(1 1) rotate(0) translate(4 1818.9848)">
<title>G</title>
<polygon fill="#ffffff" stroke="transparent" points="-4,4 -4,-1818.9848 855,-1818.9848 855,4 -4,4"/>
<g id="clust1" class="cluster">
<title>cluster_0</title>
<polygon fill="none" stroke="#000000" points="8,-8 8,-1806.9848 843,-1806.9848 843,-8 8,-8"/>
<text text-anchor="middle" x="425.5" y="-1770.9848" font-family="Times,serif" font-size="40.00" fill="#000000">Tree 0, Class {&#39;a&#39;: &#39;Var a does not exist&#39;}</text>
</g>
<!-- SG_0_Node_0 -->
<g id="node1" class="node">
<title>SG_0_Node_0</title>
<polygon fill="none" stroke="#000000" points="558.5,-1746.9848 493.5,-1746.9848 493.5,-1710.9848 558.5,-1710.9848 558.5,-1746.9848"/>
<text text-anchor="middle" x="526" y="-1723.9848" font-family="Times,serif" font-size="20.00" fill="#000000">body</text>
</g>
<!-- SG_0_Node_1 -->
<g id="node2" class="node">
<title>SG_0_Node_1</title>
<polygon fill="none" stroke="#000000" points="479,-1589.7716 337,-1589.7716 337,-1553.7716 479,-1553.7716 479,-1589.7716"/>
<text text-anchor="middle" x="408" y="-1566.7716" font-family="Times,serif" font-size="20.00" fill="#000000">Status&#45;Code</text>
</g>
<!-- SG_0_Node_0&#45;&gt;SG_0_Node_1 -->
<g id="edge1" class="edge">
<title>SG_0_Node_0&#45;&gt;SG_0_Node_1</title>
<path fill="none" stroke="#000000" d="M493.3775,-1720.455C469.6541,-1712.4778 438.8547,-1698.0884 422,-1673.9848 406.9167,-1652.4145 404.5369,-1621.9275 405.2462,-1599.8685"/>
<polygon fill="#000000" stroke="#000000" points="408.7458,-1599.9698 405.8005,-1589.7926 401.7564,-1599.5853 408.7458,-1599.9698"/>
<text text-anchor="middle" x="522.5" y="-1646.9848" font-family="Times,serif" font-size="20.00" fill="#000000">ecocnt_js=var a=5;</text>
</g>
<!-- SG_0_Node_10 -->
<g id="node3" class="node">
<title>SG_0_Node_10</title>
<ellipse fill="none" stroke="#000000" cx="645" cy="-1571.7716" rx="34.7971" ry="21.4286"/>
<text text-anchor="middle" x="645" y="-1566.7716" font-family="Times,serif" font-size="20.00" fill="#000000">1.0</text>
</g>
<!-- SG_0_Node_0&#45;&gt;SG_0_Node_10 -->
<g id="edge2" class="edge">
<title>SG_0_Node_0&#45;&gt;SG_0_Node_10</title>
<path fill="none" stroke="#000000" d="M558.7479,-1718.425C580.2338,-1709.8167 607.1854,-1695.5165 623,-1673.9848 638.0517,-1653.4919 643.2183,-1624.8224 644.8112,-1603.0601"/>
<polygon fill="#000000" stroke="#000000" points="648.3103,-1603.1658 645.3337,-1592.9977 641.3197,-1602.8028 648.3103,-1603.1658"/>
<text text-anchor="middle" x="686" y="-1657.9848" font-family="Times,serif" font-size="20.00" fill="#000000">[NA]</text>
<text text-anchor="middle" x="686" y="-1635.9848" font-family="Times,serif" font-size="20.00" fill="#000000">11 levels</text>
</g>
<!-- SG_0_Node_2 -->
<g id="node4" class="node">
<title>SG_0_Node_2</title>
<polygon fill="none" stroke="#000000" points="421.5,-1429.3452 266.5,-1429.3452 266.5,-1393.3452 421.5,-1393.3452 421.5,-1429.3452"/>
<text text-anchor="middle" x="344" y="-1406.3452" font-family="Times,serif" font-size="20.00" fill="#000000">Content&#45;Type</text>
</g>
<!-- SG_0_Node_1&#45;&gt;SG_0_Node_2 -->
<g id="edge3" class="edge">
<title>SG_0_Node_1&#45;&gt;SG_0_Node_2</title>
<path fill="none" stroke="#000000" d="M388.2081,-1553.7264C377.8049,-1543.0775 365.828,-1528.7383 359,-1513.5584 348.4743,-1490.1579 345.0284,-1460.9904 344.0366,-1439.8095"/>
<polygon fill="#000000" stroke="#000000" points="347.5263,-1439.4205 343.7171,-1429.5342 340.5296,-1439.6381 347.5263,-1439.4205"/>
<text text-anchor="middle" x="405" y="-1486.5584" font-family="Times,serif" font-size="20.00" fill="#000000">15 levels</text>
</g>
<!-- SG_0_Node_11 -->
<g id="node5" class="node">
<title>SG_0_Node_11</title>
<ellipse fill="none" stroke="#000000" cx="474" cy="-1411.3452" rx="34.7971" ry="21.4286"/>
<text text-anchor="middle" x="474" y="-1406.3452" font-family="Times,serif" font-size="20.00" fill="#000000">1.0</text>
</g>
<!-- SG_0_Node_1&#45;&gt;SG_0_Node_11 -->
<g id="edge4" class="edge">
<title>SG_0_Node_1&#45;&gt;SG_0_Node_11</title>
<path fill="none" stroke="#000000" d="M424.4852,-1553.6352C433.5635,-1542.7387 444.3135,-1528.1854 451,-1513.5584 461.3507,-1490.9158 467.208,-1463.2661 470.418,-1442.4364"/>
<polygon fill="#000000" stroke="#000000" points="473.8853,-1442.9129 471.8271,-1432.5199 466.9549,-1441.928 473.8853,-1442.9129"/>
<text text-anchor="middle" x="511" y="-1497.5584" font-family="Times,serif" font-size="20.00" fill="#000000">[NA]</text>
<text text-anchor="middle" x="511" y="-1475.5584" font-family="Times,serif" font-size="20.00" fill="#000000">48 levels</text>
</g>
<!-- SG_0_Node_3 -->
<g id="node6" class="node">
<title>SG_0_Node_3</title>
<polygon fill="none" stroke="#000000" points="373.5,-1202.9188 56.5,-1202.9188 56.5,-1166.9188 373.5,-1166.9188 373.5,-1202.9188"/>
<text text-anchor="middle" x="215" y="-1179.9188" font-family="Times,serif" font-size="20.00" fill="#000000">Cross&#45;Origin&#45;Resource&#45;Policy</text>
</g>
<!-- SG_0_Node_2&#45;&gt;SG_0_Node_3 -->
<g id="edge5" class="edge">
<title>SG_0_Node_2&#45;&gt;SG_0_Node_3</title>
<path fill="none" stroke="#000000" d="M281.255,-1393.2507C261.3754,-1384.3773 241.3736,-1371.5081 229,-1353.132 200.6686,-1311.057 204.2492,-1248.9769 209.5397,-1213.1801"/>
<polygon fill="#000000" stroke="#000000" points="213.0502,-1213.3984 211.2031,-1202.9658 206.1412,-1212.2733 213.0502,-1213.3984"/>
<text text-anchor="middle" x="340" y="-1337.132" font-family="Times,serif" font-size="20.00" fill="#000000">[NA]</text>
<text text-anchor="middle" x="340" y="-1315.132" font-family="Times,serif" font-size="20.00" fill="#000000">application/javascript</text>
<text text-anchor="middle" x="340" y="-1293.132" font-family="Times,serif" font-size="20.00" fill="#000000">empty</text>
<text text-anchor="middle" x="340" y="-1271.132" font-family="Times,serif" font-size="20.00" fill="#000000">text/css</text>
<text text-anchor="middle" x="340" y="-1249.132" font-family="Times,serif" font-size="20.00" fill="#000000">text/html</text>
</g>
<!-- SG_0_Node_12 -->
<g id="node7" class="node">
<title>SG_0_Node_12</title>
<ellipse fill="none" stroke="#000000" cx="473" cy="-1184.9188" rx="34.7971" ry="21.4286"/>
<text text-anchor="middle" x="473" y="-1179.9188" font-family="Times,serif" font-size="20.00" fill="#000000">1.0</text>
</g>
<!-- SG_0_Node_2&#45;&gt;SG_0_Node_12 -->
<g id="edge6" class="edge">
<title>SG_0_Node_2&#45;&gt;SG_0_Node_12</title>
<path fill="none" stroke="#000000" d="M399.2118,-1393.3293C418.566,-1384.276 438.5581,-1371.268 451,-1353.132 479.0543,-1312.2385 479.7217,-1252.3683 476.892,-1216.1753"/>
<polygon fill="#000000" stroke="#000000" points="480.375,-1215.8283 475.9748,-1206.1904 473.4043,-1216.4687 480.375,-1215.8283"/>
<text text-anchor="middle" x="554" y="-1326.132" font-family="Times,serif" font-size="20.00" fill="#000000">application/pdf</text>
<text text-anchor="middle" x="554" y="-1304.132" font-family="Times,serif" font-size="20.00" fill="#000000">audio/wav</text>
<text text-anchor="middle" x="554" y="-1282.132" font-family="Times,serif" font-size="20.00" fill="#000000">image/png</text>
<text text-anchor="middle" x="554" y="-1260.132" font-family="Times,serif" font-size="20.00" fill="#000000">video/mp4</text>
</g>
<!-- SG_0_Node_4 -->
<g id="node8" class="node">
<title>SG_0_Node_4</title>
<polygon fill="none" stroke="#000000" points="338,-1042.4924 76,-1042.4924 76,-1006.4924 338,-1006.4924 338,-1042.4924"/>
<text text-anchor="middle" x="207" y="-1019.4924" font-family="Times,serif" font-size="20.00" fill="#000000">X&#45;Content&#45;Type&#45;Options</text>
</g>
<!-- SG_0_Node_3&#45;&gt;SG_0_Node_4 -->
<g id="edge7" class="edge">
<title>SG_0_Node_3&#45;&gt;SG_0_Node_4</title>
<path fill="none" stroke="#000000" d="M214.0978,-1166.8277C212.7174,-1139.1459 210.0687,-1086.0306 208.4263,-1053.0939"/>
<polygon fill="#000000" stroke="#000000" points="211.9049,-1052.5768 207.9111,-1042.7636 204.9136,-1052.9255 211.9049,-1052.5768"/>
<text text-anchor="middle" x="244" y="-1110.7056" font-family="Times,serif" font-size="20.00" fill="#000000">[NA]</text>
<text text-anchor="middle" x="244" y="-1088.7056" font-family="Times,serif" font-size="20.00" fill="#000000">empty</text>
</g>
<!-- SG_0_Node_13 -->
<g id="node9" class="node">
<title>SG_0_Node_13</title>
<ellipse fill="none" stroke="#000000" cx="391" cy="-1024.4924" rx="34.7971" ry="21.4286"/>
<text text-anchor="middle" x="391" y="-1019.4924" font-family="Times,serif" font-size="20.00" fill="#000000">1.0</text>
</g>
<!-- SG_0_Node_3&#45;&gt;SG_0_Node_13 -->
<g id="edge8" class="edge">
<title>SG_0_Node_3&#45;&gt;SG_0_Node_13</title>
<path fill="none" stroke="#000000" d="M235.2671,-1166.8975C248.123,-1155.4341 265.0847,-1140.2507 280,-1126.7056 308.9708,-1100.3963 341.9281,-1069.9864 364.3541,-1049.2205"/>
<polygon fill="#000000" stroke="#000000" points="366.8667,-1051.6639 371.8235,-1042.3001 362.1093,-1046.5291 366.8667,-1051.6639"/>
<text text-anchor="middle" x="388" y="-1099.7056" font-family="Times,serif" font-size="20.00" fill="#000000">same&#45;origin</text>
</g>
<!-- SG_0_Node_5 -->
<g id="node10" class="node">
<title>SG_0_Node_5</title>
<polygon fill="none" stroke="#000000" points="256,-885.2792 114,-885.2792 114,-849.2792 256,-849.2792 256,-885.2792"/>
<text text-anchor="middle" x="185" y="-862.2792" font-family="Times,serif" font-size="20.00" fill="#000000">Status&#45;Code</text>
</g>
<!-- SG_0_Node_4&#45;&gt;SG_0_Node_5 -->
<g id="edge9" class="edge">
<title>SG_0_Node_4&#45;&gt;SG_0_Node_5</title>
<path fill="none" stroke="#000000" d="M204.4763,-1006.4581C200.6839,-979.3571 193.4807,-927.8829 188.977,-895.6993"/>
<polygon fill="#000000" stroke="#000000" points="192.4142,-895.0059 187.562,-885.5875 185.4817,-895.9761 192.4142,-895.0059"/>
<text text-anchor="middle" x="230" y="-939.2792" font-family="Times,serif" font-size="20.00" fill="#000000">empty</text>
</g>
<!-- SG_0_Node_6 -->
<g id="node11" class="node">
<title>SG_0_Node_6</title>
<polygon fill="none" stroke="#000000" points="478.5,-885.2792 323.5,-885.2792 323.5,-849.2792 478.5,-849.2792 478.5,-885.2792"/>
<text text-anchor="middle" x="401" y="-862.2792" font-family="Times,serif" font-size="20.00" fill="#000000">Content&#45;Type</text>
</g>
<!-- SG_0_Node_4&#45;&gt;SG_0_Node_6 -->
<g id="edge10" class="edge">
<title>SG_0_Node_4&#45;&gt;SG_0_Node_6</title>
<path fill="none" stroke="#000000" d="M229.2543,-1006.4581C264.0982,-978.2213 331.5923,-923.5256 370.7935,-891.7578"/>
<polygon fill="#000000" stroke="#000000" points="373.1417,-894.36 378.7073,-885.3447 368.7345,-888.9215 373.1417,-894.36"/>
<text text-anchor="middle" x="367" y="-950.2792" font-family="Times,serif" font-size="20.00" fill="#000000">[NA]</text>
<text text-anchor="middle" x="367" y="-928.2792" font-family="Times,serif" font-size="20.00" fill="#000000">nosniff</text>
</g>
<!-- SG_0_Node_14 -->
<g id="node12" class="node">
<title>SG_0_Node_14</title>
<ellipse fill="none" stroke="#000000" cx="80" cy="-534.066" rx="34.7971" ry="21.4286"/>
<text text-anchor="middle" x="80" y="-529.066" font-family="Times,serif" font-size="20.00" fill="#000000">0.0</text>
</g>
<!-- SG_0_Node_5&#45;&gt;SG_0_Node_14 -->
<g id="edge17" class="edge">
<title>SG_0_Node_5&#45;&gt;SG_0_Node_14</title>
<path fill="none" stroke="#000000" d="M167.1819,-848.8364C158.3792,-838.7667 148.3172,-825.6489 142,-812.2792 102.443,-728.5618 87.5891,-618.5978 82.4593,-565.4769"/>
<polygon fill="#000000" stroke="#000000" points="85.928,-564.9745 81.5326,-555.3344 78.9571,-565.6114 85.928,-564.9745"/>
<text text-anchor="middle" x="161.5" y="-796.2792" font-family="Times,serif" font-size="20.00" fill="#000000">200</text>
<text text-anchor="middle" x="161.5" y="-774.2792" font-family="Times,serif" font-size="20.00" fill="#000000">201</text>
<text text-anchor="middle" x="161.5" y="-752.2792" font-family="Times,serif" font-size="20.00" fill="#000000">202</text>
<text text-anchor="middle" x="161.5" y="-730.2792" font-family="Times,serif" font-size="20.00" fill="#000000">203</text>
<text text-anchor="middle" x="161.5" y="-708.2792" font-family="Times,serif" font-size="20.00" fill="#000000">206</text>
<text text-anchor="middle" x="161.5" y="-686.2792" font-family="Times,serif" font-size="20.00" fill="#000000">207</text>
<text text-anchor="middle" x="161.5" y="-664.2792" font-family="Times,serif" font-size="20.00" fill="#000000">208</text>
<text text-anchor="middle" x="161.5" y="-642.2792" font-family="Times,serif" font-size="20.00" fill="#000000">226</text>
<text text-anchor="middle" x="161.5" y="-620.2792" font-family="Times,serif" font-size="20.00" fill="#000000">300</text>
<text text-anchor="middle" x="161.5" y="-598.2792" font-family="Times,serif" font-size="20.00" fill="#000000">305</text>
</g>
<!-- SG_0_Node_7 -->
<g id="node13" class="node">
<title>SG_0_Node_7</title>
<polygon fill="none" stroke="#000000" points="237.5,-552.066 132.5,-552.066 132.5,-516.066 237.5,-516.066 237.5,-552.066"/>
<text text-anchor="middle" x="185" y="-529.066" font-family="Times,serif" font-size="20.00" fill="#000000">Location</text>
</g>
<!-- SG_0_Node_5&#45;&gt;SG_0_Node_7 -->
<g id="edge18" class="edge">
<title>SG_0_Node_5&#45;&gt;SG_0_Node_7</title>
<path fill="none" stroke="#000000" d="M185,-848.8896C185,-793.7042 185,-629.2285 185,-562.5838"/>
<polygon fill="#000000" stroke="#000000" points="188.5001,-562.3988 185,-552.3988 181.5001,-562.3988 188.5001,-562.3988"/>
<text text-anchor="middle" x="204.5" y="-741.2792" font-family="Times,serif" font-size="20.00" fill="#000000">301</text>
<text text-anchor="middle" x="204.5" y="-719.2792" font-family="Times,serif" font-size="20.00" fill="#000000">302</text>
<text text-anchor="middle" x="204.5" y="-697.2792" font-family="Times,serif" font-size="20.00" fill="#000000">303</text>
<text text-anchor="middle" x="204.5" y="-675.2792" font-family="Times,serif" font-size="20.00" fill="#000000">307</text>
<text text-anchor="middle" x="204.5" y="-653.2792" font-family="Times,serif" font-size="20.00" fill="#000000">308</text>
</g>
<!-- SG_0_Node_8 -->
<g id="node14" class="node">
<title>SG_0_Node_8</title>
<polygon fill="none" stroke="#000000" points="522,-552.066 380,-552.066 380,-516.066 522,-516.066 522,-552.066"/>
<text text-anchor="middle" x="451" y="-529.066" font-family="Times,serif" font-size="20.00" fill="#000000">Status&#45;Code</text>
</g>
<!-- SG_0_Node_6&#45;&gt;SG_0_Node_8 -->
<g id="edge11" class="edge">
<title>SG_0_Node_6&#45;&gt;SG_0_Node_8</title>
<path fill="none" stroke="#000000" d="M398.87,-849.0434C394.2719,-804.1431 386.0318,-685.1491 415,-592.2792 418.4322,-581.2757 424.432,-570.2531 430.5608,-560.8057"/>
<polygon fill="#000000" stroke="#000000" points="433.635,-562.5111 436.3969,-552.2825 427.8592,-558.5562 433.635,-562.5111"/>
<text text-anchor="middle" x="526" y="-697.2792" font-family="Times,serif" font-size="20.00" fill="#000000">application/javascript</text>
</g>
<!-- SG_0_Node_15 -->
<g id="node15" class="node">
<title>SG_0_Node_15</title>
<ellipse fill="none" stroke="#000000" cx="659" cy="-534.066" rx="34.7971" ry="21.4286"/>
<text text-anchor="middle" x="659" y="-529.066" font-family="Times,serif" font-size="20.00" fill="#000000">1.0</text>
</g>
<!-- SG_0_Node_6&#45;&gt;SG_0_Node_15 -->
<g id="edge12" class="edge">
<title>SG_0_Node_6&#45;&gt;SG_0_Node_15</title>
<path fill="none" stroke="#000000" d="M478.5979,-859.062C539.1945,-850.922 616.4583,-836.16 637,-812.2792 697.3819,-742.0821 679.8729,-621.65 667.1159,-565.1031"/>
<polygon fill="#000000" stroke="#000000" points="670.5097,-564.245 664.8091,-555.3145 663.6963,-565.8508 670.5097,-564.245"/>
<text text-anchor="middle" x="726" y="-730.2792" font-family="Times,serif" font-size="20.00" fill="#000000">[NA]</text>
<text text-anchor="middle" x="726" y="-708.2792" font-family="Times,serif" font-size="20.00" fill="#000000">empty</text>
<text text-anchor="middle" x="726" y="-686.2792" font-family="Times,serif" font-size="20.00" fill="#000000">text/css</text>
<text text-anchor="middle" x="726" y="-664.2792" font-family="Times,serif" font-size="20.00" fill="#000000">text/html</text>
</g>
<!-- SG_0_Node_16 -->
<g id="node16" class="node">
<title>SG_0_Node_16</title>
<ellipse fill="none" stroke="#000000" cx="85" cy="-197.6396" rx="34.7971" ry="21.4286"/>
<text text-anchor="middle" x="85" y="-192.6396" font-family="Times,serif" font-size="20.00" fill="#000000">0.0</text>
</g>
<!-- SG_0_Node_7&#45;&gt;SG_0_Node_16 -->
<g id="edge19" class="edge">
<title>SG_0_Node_7&#45;&gt;SG_0_Node_16</title>
<path fill="none" stroke="#000000" d="M154.8789,-515.9242C140.9853,-505.9087 125.6814,-492.1818 117,-475.8528 74.0987,-395.1592 76.9461,-282.9723 81.4893,-229.0443"/>
<polygon fill="#000000" stroke="#000000" points="84.9767,-229.3407 82.4075,-219.0621 78.0061,-228.6994 84.9767,-229.3407"/>
<text text-anchor="middle" x="149" y="-360.8528" font-family="Times,serif" font-size="20.00" fill="#000000">empty</text>
</g>
<!-- SG_0_Node_17 -->
<g id="node17" class="node">
<title>SG_0_Node_17</title>
<ellipse fill="none" stroke="#000000" cx="185" cy="-197.6396" rx="34.7971" ry="21.4286"/>
<text text-anchor="middle" x="185" y="-192.6396" font-family="Times,serif" font-size="20.00" fill="#000000">1.0</text>
</g>
<!-- SG_0_Node_7&#45;&gt;SG_0_Node_17 -->
<g id="edge20" class="edge">
<title>SG_0_Node_7&#45;&gt;SG_0_Node_17</title>
<path fill="none" stroke="#000000" d="M185,-515.9783C185,-461.5664 185,-298.8804 185,-229.5271"/>
<polygon fill="#000000" stroke="#000000" points="188.5001,-229.2285 185,-219.2285 181.5001,-229.2286 188.5001,-229.2285"/>
<text text-anchor="middle" x="300" y="-371.8528" font-family="Times,serif" font-size="20.00" fill="#000000">[NA]</text>
<text text-anchor="middle" x="300" y="-349.8528" font-family="Times,serif" font-size="20.00" fill="#000000">http://172.17.0.1:8000</text>
</g>
<!-- SG_0_Node_18 -->
<g id="node18" class="node">
<title>SG_0_Node_18</title>
<ellipse fill="none" stroke="#000000" cx="443" cy="-197.6396" rx="34.7971" ry="21.4286"/>
<text text-anchor="middle" x="443" y="-192.6396" font-family="Times,serif" font-size="20.00" fill="#000000">0.0</text>
</g>
<!-- SG_0_Node_8&#45;&gt;SG_0_Node_18 -->
<g id="edge13" class="edge">
<title>SG_0_Node_8&#45;&gt;SG_0_Node_18</title>
<path fill="none" stroke="#000000" d="M450.5699,-515.9783C449.276,-461.5664 445.4074,-298.8804 443.7583,-229.5271"/>
<polygon fill="#000000" stroke="#000000" points="447.2502,-229.1425 443.5134,-219.2285 440.2522,-229.309 447.2502,-229.1425"/>
<text text-anchor="middle" x="468.5" y="-459.8528" font-family="Times,serif" font-size="20.00" fill="#000000">200</text>
<text text-anchor="middle" x="468.5" y="-437.8528" font-family="Times,serif" font-size="20.00" fill="#000000">201</text>
<text text-anchor="middle" x="468.5" y="-415.8528" font-family="Times,serif" font-size="20.00" fill="#000000">202</text>
<text text-anchor="middle" x="468.5" y="-393.8528" font-family="Times,serif" font-size="20.00" fill="#000000">203</text>
<text text-anchor="middle" x="468.5" y="-371.8528" font-family="Times,serif" font-size="20.00" fill="#000000">206</text>
<text text-anchor="middle" x="468.5" y="-349.8528" font-family="Times,serif" font-size="20.00" fill="#000000">207</text>
<text text-anchor="middle" x="468.5" y="-327.8528" font-family="Times,serif" font-size="20.00" fill="#000000">208</text>
<text text-anchor="middle" x="468.5" y="-305.8528" font-family="Times,serif" font-size="20.00" fill="#000000">226</text>
<text text-anchor="middle" x="468.5" y="-283.8528" font-family="Times,serif" font-size="20.00" fill="#000000">300</text>
<text text-anchor="middle" x="468.5" y="-261.8528" font-family="Times,serif" font-size="20.00" fill="#000000">305</text>
</g>
<!-- SG_0_Node_9 -->
<g id="node19" class="node">
<title>SG_0_Node_9</title>
<polygon fill="none" stroke="#000000" points="600.5,-215.6396 495.5,-215.6396 495.5,-179.6396 600.5,-179.6396 600.5,-215.6396"/>
<text text-anchor="middle" x="548" y="-192.6396" font-family="Times,serif" font-size="20.00" fill="#000000">Location</text>
</g>
<!-- SG_0_Node_8&#45;&gt;SG_0_Node_9 -->
<g id="edge14" class="edge">
<title>SG_0_Node_8&#45;&gt;SG_0_Node_9</title>
<path fill="none" stroke="#000000" d="M466.8119,-515.8612C475.4992,-504.9418 485.7492,-490.3885 492,-475.8528 529.1605,-389.4385 542.0404,-277.1773 546.1875,-225.6842"/>
<polygon fill="#000000" stroke="#000000" points="549.6822,-225.8849 546.9454,-215.6496 542.7021,-225.3575 549.6822,-225.8849"/>
<text text-anchor="middle" x="562.5" y="-404.8528" font-family="Times,serif" font-size="20.00" fill="#000000">301</text>
<text text-anchor="middle" x="562.5" y="-382.8528" font-family="Times,serif" font-size="20.00" fill="#000000">302</text>
<text text-anchor="middle" x="562.5" y="-360.8528" font-family="Times,serif" font-size="20.00" fill="#000000">303</text>
<text text-anchor="middle" x="562.5" y="-338.8528" font-family="Times,serif" font-size="20.00" fill="#000000">307</text>
<text text-anchor="middle" x="562.5" y="-316.8528" font-family="Times,serif" font-size="20.00" fill="#000000">308</text>
</g>
<!-- SG_0_Node_19 -->
<g id="node20" class="node">
<title>SG_0_Node_19</title>
<ellipse fill="none" stroke="#000000" cx="480" cy="-37.2132" rx="34.7971" ry="21.4286"/>
<text text-anchor="middle" x="480" y="-32.2132" font-family="Times,serif" font-size="20.00" fill="#000000">0.0</text>
</g>
<!-- SG_0_Node_9&#45;&gt;SG_0_Node_19 -->
<g id="edge15" class="edge">
<title>SG_0_Node_9&#45;&gt;SG_0_Node_19</title>
<path fill="none" stroke="#000000" d="M523.8446,-179.568C511.8753,-169.2125 498.4267,-155.1594 491,-139.4264 480.5717,-117.3349 478.1502,-89.6469 478.1547,-68.6623"/>
<polygon fill="#000000" stroke="#000000" points="481.6541,-68.722 478.3378,-58.6596 474.6552,-68.5939 481.6541,-68.722"/>
<text text-anchor="middle" x="523" y="-112.4264" font-family="Times,serif" font-size="20.00" fill="#000000">empty</text>
</g>
<!-- SG_0_Node_20 -->
<g id="node21" class="node">
<title>SG_0_Node_20</title>
<ellipse fill="none" stroke="#000000" cx="580" cy="-37.2132" rx="34.7971" ry="21.4286"/>
<text text-anchor="middle" x="580" y="-32.2132" font-family="Times,serif" font-size="20.00" fill="#000000">1.0</text>
</g>
<!-- SG_0_Node_9&#45;&gt;SG_0_Node_20 -->
<g id="edge16" class="edge">
<title>SG_0_Node_9&#45;&gt;SG_0_Node_20</title>
<path fill="none" stroke="#000000" d="M551.6086,-179.5485C556.992,-152.5596 567.1978,-101.3949 573.7941,-68.3256"/>
<polygon fill="#000000" stroke="#000000" points="577.2743,-68.7697 575.7982,-58.2782 570.4096,-67.4004 577.2743,-68.7697"/>
<text text-anchor="middle" x="683" y="-123.4264" font-family="Times,serif" font-size="20.00" fill="#000000">[NA]</text>
<text text-anchor="middle" x="683" y="-101.4264" font-family="Times,serif" font-size="20.00" fill="#000000">http://172.17.0.1:8000</text>
</g>
</g>
</svg>
