<?xml version="1.0" encoding="UTF-8" standalone="no"?>
<!DOCTYPE svg PUBLIC "-//W3C//DTD SVG 1.1//EN"
 "http://www.w3.org/Graphics/SVG/1.1/DTD/svg11.dtd">
<!-- Generated by graphviz version 2.40.1 (20161225.0304)
 -->
<!-- Title: G Pages: 1 -->
<svg width="5134pt" height="1603pt"
 viewBox="0.00 0.00 5134.00 1602.98" xmlns="http://www.w3.org/2000/svg" xmlns:xlink="http://www.w3.org/1999/xlink">
<g id="graph0" class="graph" transform="scale(1 1) rotate(0) translate(4 1598.9848)">
<title>G</title>
<polygon fill="#ffffff" stroke="transparent" points="-4,4 -4,-1598.9848 5130,-1598.9848 5130,4 -4,4"/>
<g id="clust1" class="cluster">
<title>cluster_0</title>
<polygon fill="none" stroke="#000000" points="8,-146.4264 8,-1586.9848 661,-1586.9848 661,-146.4264 8,-146.4264"/>
<text text-anchor="middle" x="334.5" y="-1550.9848" font-family="Times,serif" font-size="40.00" fill="#000000">Tree 0, Class js&#45;null</text>
</g>
<g id="clust9" class="cluster">
<title>cluster_1</title>
<polygon fill="none" stroke="#000000" points="669,-8 669,-1586.9848 1776,-1586.9848 1776,-8 669,-8"/>
<text text-anchor="middle" x="1222.5" y="-1550.9848" font-family="Times,serif" font-size="40.00" fill="#000000">Tree 0, Class {&#39;code&#39;: 4, &#39;message&#39;: &#39;&#39;}</text>
</g>
<g id="clust18" class="cluster">
<title>cluster_2</title>
<polygon fill="none" stroke="#000000" points="1784,-1096.132 1784,-1586.9848 3410,-1586.9848 3410,-1096.132 1784,-1096.132"/>
<text text-anchor="middle" x="2597" y="-1550.9848" font-family="Times,serif" font-size="40.00" fill="#000000">Tree 0, Class {&#39;code&#39;: 4, &#39;message&#39;: &#39;MEDIA_ELEMENT_ERROR: Format error&#39;}</text>
</g>
<g id="clust22" class="cluster">
<title>cluster_3</title>
<polygon fill="none" stroke="#000000" points="3418,-146.4264 3418,-1586.9848 5118,-1586.9848 5118,-146.4264 3418,-146.4264"/>
<text text-anchor="middle" x="4268" y="-1550.9848" font-family="Times,serif" font-size="40.00" fill="#000000">Tree 0, Class {&#39;code&#39;: 4, &#39;message&#39;: &#39;PIPELINE_ERROR_INITIALIZATION_FAILED&#39;}</text>
</g>
<!-- SG_0_Node_0 -->
<g id="node1" class="node">
<title>SG_0_Node_0</title>
<polygon fill="none" stroke="#000000" points="200,-1526.9848 58,-1526.9848 58,-1490.9848 200,-1490.9848 200,-1526.9848"/>
<text text-anchor="middle" x="129" y="-1503.9848" font-family="Times,serif" font-size="20.00" fill="#000000">Status&#45;Code</text>
</g>
<!-- SG_0_Node_6 -->
<g id="node2" class="node">
<title>SG_0_Node_6</title>
<ellipse fill="none" stroke="#000000" cx="51" cy="-1351.7716" rx="34.7971" ry="21.4286"/>
<text text-anchor="middle" x="51" y="-1346.7716" font-family="Times,serif" font-size="20.00" fill="#000000">0.0</text>
</g>
<!-- SG_0_Node_0&#45;&gt;SG_0_Node_6 -->
<g id="edge1" class="edge">
<title>SG_0_Node_0&#45;&gt;SG_0_Node_6</title>
<path fill="none" stroke="#000000" d="M83.926,-1490.8237C68.4019,-1482.1302 52.7357,-1470.0423 44,-1453.9848 32.1663,-1432.2327 35.2737,-1403.9103 40.5713,-1382.5968"/>
<polygon fill="#000000" stroke="#000000" points="44.0005,-1383.3275 43.292,-1372.7564 37.2536,-1381.462 44.0005,-1383.3275"/>
<text text-anchor="middle" x="90" y="-1437.9848" font-family="Times,serif" font-size="20.00" fill="#000000">[NA]</text>
<text text-anchor="middle" x="90" y="-1415.9848" font-family="Times,serif" font-size="20.00" fill="#000000">62 levels</text>
</g>
<!-- SG_0_Node_1 -->
<g id="node3" class="node">
<title>SG_0_Node_1</title>
<polygon fill="none" stroke="#000000" points="194.5,-1369.7716 129.5,-1369.7716 129.5,-1333.7716 194.5,-1333.7716 194.5,-1369.7716"/>
<text text-anchor="middle" x="162" y="-1346.7716" font-family="Times,serif" font-size="20.00" fill="#000000">body</text>
</g>
<!-- SG_0_Node_0&#45;&gt;SG_0_Node_1 -->
<g id="edge2" class="edge">
<title>SG_0_Node_0&#45;&gt;SG_0_Node_1</title>
<path fill="none" stroke="#000000" d="M132.7855,-1490.9505C138.4742,-1463.8495 149.2789,-1412.3753 156.0344,-1380.1917"/>
<polygon fill="#000000" stroke="#000000" points="159.528,-1380.5857 158.157,-1370.0799 152.6773,-1379.1476 159.528,-1380.5857"/>
<text text-anchor="middle" x="168.5" y="-1426.9848" font-family="Times,serif" font-size="20.00" fill="#000000">200</text>
</g>
<!-- SG_0_Node_7 -->
<g id="node4" class="node">
<title>SG_0_Node_7</title>
<ellipse fill="none" stroke="#000000" cx="51" cy="-1125.3452" rx="34.7971" ry="21.4286"/>
<text text-anchor="middle" x="51" y="-1120.3452" font-family="Times,serif" font-size="20.00" fill="#000000">0.0</text>
</g>
<!-- SG_0_Node_1&#45;&gt;SG_0_Node_7 -->
<g id="edge3" class="edge">
<title>SG_0_Node_1&#45;&gt;SG_0_Node_7</title>
<path fill="none" stroke="#000000" d="M129.3131,-1343.1331C104.8237,-1334.7862 72.9089,-1319.5 57,-1293.5584 31.2769,-1251.6136 36.7959,-1192.075 43.5872,-1156.2323"/>
<polygon fill="#000000" stroke="#000000" points="47.0335,-1156.8486 45.6068,-1146.3503 40.1753,-1155.4469 47.0335,-1156.8486"/>
<text text-anchor="middle" x="103" y="-1244.5584" font-family="Times,serif" font-size="20.00" fill="#000000">[NA]</text>
<text text-anchor="middle" x="103" y="-1222.5584" font-family="Times,serif" font-size="20.00" fill="#000000">11 levels</text>
</g>
<!-- SG_0_Node_2 -->
<g id="node5" class="node">
<title>SG_0_Node_2</title>
<polygon fill="none" stroke="#000000" points="420.5,-1143.3452 103.5,-1143.3452 103.5,-1107.3452 420.5,-1107.3452 420.5,-1143.3452"/>
<text text-anchor="middle" x="262" y="-1120.3452" font-family="Times,serif" font-size="20.00" fill="#000000">Cross&#45;Origin&#45;Resource&#45;Policy</text>
</g>
<!-- SG_0_Node_1&#45;&gt;SG_0_Node_2 -->
<g id="edge4" class="edge">
<title>SG_0_Node_1&#45;&gt;SG_0_Node_2</title>
<path fill="none" stroke="#000000" d="M158.3856,-1333.572C152.9195,-1300.9829 145.9361,-1231.5886 174,-1183.5584 182.4183,-1169.151 195.9879,-1157.626 209.977,-1148.7564"/>
<polygon fill="#000000" stroke="#000000" points="211.8893,-1151.6914 218.6991,-1143.5749 208.3141,-1145.6732 211.8893,-1151.6914"/>
<text text-anchor="middle" x="419.5" y="-1233.5584" font-family="Times,serif" font-size="20.00" fill="#000000">ecocnt_vid=width=100,height=100,duration=2</text>
</g>
<!-- SG_0_Node_8 -->
<g id="node6" class="node">
<title>SG_0_Node_8</title>
<ellipse fill="none" stroke="#000000" cx="144" cy="-964.9188" rx="34.7971" ry="21.4286"/>
<text text-anchor="middle" x="144" y="-959.9188" font-family="Times,serif" font-size="20.00" fill="#000000">0.0</text>
</g>
<!-- SG_0_Node_2&#45;&gt;SG_0_Node_8 -->
<g id="edge5" class="edge">
<title>SG_0_Node_2&#45;&gt;SG_0_Node_8</title>
<path fill="none" stroke="#000000" d="M201.1955,-1107.3266C181.6156,-1098.4269 161.9185,-1085.5216 150,-1067.132 136.4574,-1046.2367 135.9389,-1017.6051 138.2461,-995.9597"/>
<polygon fill="#000000" stroke="#000000" points="141.7274,-996.3305 139.561,-985.9595 134.7871,-995.4179 141.7274,-996.3305"/>
<text text-anchor="middle" x="211" y="-1040.132" font-family="Times,serif" font-size="20.00" fill="#000000">same&#45;origin</text>
</g>
<!-- SG_0_Node_3 -->
<g id="node7" class="node">
<title>SG_0_Node_3</title>
<polygon fill="none" stroke="#000000" points="379.5,-982.9188 224.5,-982.9188 224.5,-946.9188 379.5,-946.9188 379.5,-982.9188"/>
<text text-anchor="middle" x="302" y="-959.9188" font-family="Times,serif" font-size="20.00" fill="#000000">Content&#45;Type</text>
</g>
<!-- SG_0_Node_2&#45;&gt;SG_0_Node_3 -->
<g id="edge6" class="edge">
<title>SG_0_Node_2&#45;&gt;SG_0_Node_3</title>
<path fill="none" stroke="#000000" d="M266.5108,-1107.2541C273.4428,-1079.4519 286.7716,-1025.9947 294.9755,-993.0919"/>
<polygon fill="#000000" stroke="#000000" points="298.421,-993.7397 297.4444,-983.19 291.629,-992.0461 298.421,-993.7397"/>
<text text-anchor="middle" x="319" y="-1051.132" font-family="Times,serif" font-size="20.00" fill="#000000">[NA]</text>
<text text-anchor="middle" x="319" y="-1029.132" font-family="Times,serif" font-size="20.00" fill="#000000">empty</text>
</g>
<!-- SG_0_Node_4 -->
<g id="node8" class="node">
<title>SG_0_Node_4</title>
<polygon fill="none" stroke="#000000" points="283,-624.4924 21,-624.4924 21,-588.4924 283,-588.4924 283,-624.4924"/>
<text text-anchor="middle" x="152" y="-601.4924" font-family="Times,serif" font-size="20.00" fill="#000000">X&#45;Content&#45;Type&#45;Options</text>
</g>
<!-- SG_0_Node_3&#45;&gt;SG_0_Node_4 -->
<g id="edge7" class="edge">
<title>SG_0_Node_3&#45;&gt;SG_0_Node_4</title>
<path fill="none" stroke="#000000" d="M234.5742,-946.8763C199.599,-936.0111 162.099,-921.4578 152,-906.7056 94.3483,-822.4907 124.8913,-691.4636 142.4398,-634.5077"/>
<polygon fill="#000000" stroke="#000000" points="145.8436,-635.3533 145.5411,-624.7628 139.1733,-633.2304 145.8436,-635.3533"/>
<text text-anchor="middle" x="229" y="-791.7056" font-family="Times,serif" font-size="20.00" fill="#000000">application/pdf</text>
<text text-anchor="middle" x="229" y="-769.7056" font-family="Times,serif" font-size="20.00" fill="#000000">text/html</text>
</g>
<!-- SG_0_Node_9 -->
<g id="node9" class="node">
<title>SG_0_Node_9</title>
<ellipse fill="none" stroke="#000000" cx="342" cy="-606.4924" rx="34.7971" ry="21.4286"/>
<text text-anchor="middle" x="342" y="-601.4924" font-family="Times,serif" font-size="20.00" fill="#000000">1.0</text>
</g>
<!-- SG_0_Node_3&#45;&gt;SG_0_Node_9 -->
<g id="edge8" class="edge">
<title>SG_0_Node_3&#45;&gt;SG_0_Node_9</title>
<path fill="none" stroke="#000000" d="M304.628,-946.8442C306.262,-935.3601 308.3572,-920.1737 310,-906.7056 321.9296,-808.9056 333.5926,-692.8723 338.9489,-638.1081"/>
<polygon fill="#000000" stroke="#000000" points="342.4479,-638.2881 339.9343,-627.9957 335.4809,-637.6091 342.4479,-638.2881"/>
<text text-anchor="middle" x="447" y="-846.7056" font-family="Times,serif" font-size="20.00" fill="#000000">[NA]</text>
<text text-anchor="middle" x="447" y="-824.7056" font-family="Times,serif" font-size="20.00" fill="#000000">application/javascript</text>
<text text-anchor="middle" x="447" y="-802.7056" font-family="Times,serif" font-size="20.00" fill="#000000">audio/wav</text>
<text text-anchor="middle" x="447" y="-780.7056" font-family="Times,serif" font-size="20.00" fill="#000000">empty</text>
<text text-anchor="middle" x="447" y="-758.7056" font-family="Times,serif" font-size="20.00" fill="#000000">image/png</text>
<text text-anchor="middle" x="447" y="-736.7056" font-family="Times,serif" font-size="20.00" fill="#000000">text/css</text>
<text text-anchor="middle" x="447" y="-714.7056" font-family="Times,serif" font-size="20.00" fill="#000000">video/mp4</text>
</g>
<!-- SG_0_Node_10 -->
<g id="node10" class="node">
<title>SG_0_Node_10</title>
<ellipse fill="none" stroke="#000000" cx="81" cy="-336.066" rx="34.7971" ry="21.4286"/>
<text text-anchor="middle" x="81" y="-331.066" font-family="Times,serif" font-size="20.00" fill="#000000">0.0</text>
</g>
<!-- SG_0_Node_4&#45;&gt;SG_0_Node_10 -->
<g id="edge9" class="edge">
<title>SG_0_Node_4&#45;&gt;SG_0_Node_10</title>
<path fill="none" stroke="#000000" d="M124.3462,-588.2986C111.4645,-578.1845 97.3802,-564.3868 90,-548.2792 62.8124,-488.9412 68.9178,-410.2096 75.275,-367.2682"/>
<polygon fill="#000000" stroke="#000000" points="78.7692,-367.58 76.8766,-357.1556 71.8553,-366.485 78.7692,-367.58"/>
<text text-anchor="middle" x="125" y="-466.2792" font-family="Times,serif" font-size="20.00" fill="#000000">nosniff</text>
</g>
<!-- SG_0_Node_5 -->
<g id="node11" class="node">
<title>SG_0_Node_5</title>
<polygon fill="none" stroke="#000000" points="288.5,-354.066 133.5,-354.066 133.5,-318.066 288.5,-318.066 288.5,-354.066"/>
<text text-anchor="middle" x="211" y="-331.066" font-family="Times,serif" font-size="20.00" fill="#000000">Content&#45;Type</text>
</g>
<!-- SG_0_Node_4&#45;&gt;SG_0_Node_5 -->
<g id="edge10" class="edge">
<title>SG_0_Node_4&#45;&gt;SG_0_Node_5</title>
<path fill="none" stroke="#000000" d="M155.9628,-588.3291C166.0602,-542.0476 192.8094,-419.4425 204.9065,-363.9956"/>
<polygon fill="#000000" stroke="#000000" points="208.3424,-364.6666 207.0545,-354.1503 201.5032,-363.1744 208.3424,-364.6666"/>
<text text-anchor="middle" x="230" y="-477.2792" font-family="Times,serif" font-size="20.00" fill="#000000">[NA]</text>
<text text-anchor="middle" x="230" y="-455.2792" font-family="Times,serif" font-size="20.00" fill="#000000">empty</text>
</g>
<!-- SG_0_Node_11 -->
<g id="node12" class="node">
<title>SG_0_Node_11</title>
<ellipse fill="none" stroke="#000000" cx="131" cy="-175.6396" rx="34.7971" ry="21.4286"/>
<text text-anchor="middle" x="131" y="-170.6396" font-family="Times,serif" font-size="20.00" fill="#000000">0.0</text>
</g>
<!-- SG_0_Node_5&#45;&gt;SG_0_Node_11 -->
<g id="edge11" class="edge">
<title>SG_0_Node_5&#45;&gt;SG_0_Node_11</title>
<path fill="none" stroke="#000000" d="M182.2442,-317.9158C168.7053,-307.8128 153.6619,-294.0119 145,-277.8528 133.3453,-256.1106 130.1789,-228.1774 129.7407,-207.0081"/>
<polygon fill="#000000" stroke="#000000" points="133.2407,-206.9146 129.7245,-196.9202 126.2407,-206.9259 133.2407,-206.9146"/>
<text text-anchor="middle" x="222" y="-250.8528" font-family="Times,serif" font-size="20.00" fill="#000000">application/pdf</text>
</g>
<!-- SG_0_Node_12 -->
<g id="node13" class="node">
<title>SG_0_Node_12</title>
<ellipse fill="none" stroke="#000000" cx="321" cy="-175.6396" rx="34.7971" ry="21.4286"/>
<text text-anchor="middle" x="321" y="-170.6396" font-family="Times,serif" font-size="20.00" fill="#000000">1.0</text>
</g>
<!-- SG_0_Node_5&#45;&gt;SG_0_Node_12 -->
<g id="edge12" class="edge">
<title>SG_0_Node_5&#45;&gt;SG_0_Node_12</title>
<path fill="none" stroke="#000000" d="M251.7713,-317.8673C268.8123,-308.2916 287.3262,-294.9463 299,-277.8528 313.1871,-257.0793 318.4611,-228.8426 320.3146,-207.311"/>
<polygon fill="#000000" stroke="#000000" points="323.8262,-207.2478 320.9876,-197.0403 316.8412,-206.79 323.8262,-207.2478"/>
<text text-anchor="middle" x="363" y="-250.8528" font-family="Times,serif" font-size="20.00" fill="#000000">text/html</text>
</g>
<!-- SG_1_Node_0 -->
<g id="node14" class="node">
<title>SG_1_Node_0</title>
<polygon fill="none" stroke="#000000" points="1011.5,-1526.9848 694.5,-1526.9848 694.5,-1490.9848 1011.5,-1490.9848 1011.5,-1526.9848"/>
<text text-anchor="middle" x="853" y="-1503.9848" font-family="Times,serif" font-size="20.00" fill="#000000">Cross&#45;Origin&#45;Resource&#45;Policy</text>
</g>
<!-- SG_1_Node_7 -->
<g id="node15" class="node">
<title>SG_1_Node_7</title>
<ellipse fill="none" stroke="#000000" cx="782" cy="-1351.7716" rx="34.7971" ry="21.4286"/>
<text text-anchor="middle" x="782" y="-1346.7716" font-family="Times,serif" font-size="20.00" fill="#000000">0.0</text>
</g>
<!-- SG_1_Node_0&#45;&gt;SG_1_Node_7 -->
<g id="edge13" class="edge">
<title>SG_1_Node_0&#45;&gt;SG_1_Node_7</title>
<path fill="none" stroke="#000000" d="M827.5695,-1490.8828C816.0285,-1481.2703 803.3444,-1468.4544 796,-1453.9848 784.904,-1432.1239 781.6712,-1404.42 781.0652,-1383.3706"/>
<polygon fill="#000000" stroke="#000000" points="784.5646,-1383.2937 780.9577,-1373.3318 777.565,-1383.3687 784.5646,-1383.2937"/>
<text text-anchor="middle" x="857" y="-1426.9848" font-family="Times,serif" font-size="20.00" fill="#000000">same&#45;origin</text>
</g>
<!-- SG_1_Node_1 -->
<g id="node16" class="node">
<title>SG_1_Node_1</title>
<polygon fill="none" stroke="#000000" points="1011,-1369.7716 869,-1369.7716 869,-1333.7716 1011,-1333.7716 1011,-1369.7716"/>
<text text-anchor="middle" x="940" y="-1346.7716" font-family="Times,serif" font-size="20.00" fill="#000000">Status&#45;Code</text>
</g>
<!-- SG_1_Node_0&#45;&gt;SG_1_Node_1 -->
<g id="edge14" class="edge">
<title>SG_1_Node_0&#45;&gt;SG_1_Node_1</title>
<path fill="none" stroke="#000000" d="M882.1433,-1490.8228C895.007,-1481.3615 909.1798,-1468.6901 918,-1453.9848 931.4984,-1431.4799 936.7671,-1401.7946 938.7964,-1380.2167"/>
<polygon fill="#000000" stroke="#000000" points="942.3012,-1380.2851 939.5715,-1370.048 935.3215,-1379.753 942.3012,-1380.2851"/>
<text text-anchor="middle" x="966" y="-1437.9848" font-family="Times,serif" font-size="20.00" fill="#000000">[NA]</text>
<text text-anchor="middle" x="966" y="-1415.9848" font-family="Times,serif" font-size="20.00" fill="#000000">empty</text>
</g>
<!-- SG_1_Node_8 -->
<g id="node17" class="node">
<title>SG_1_Node_8</title>
<ellipse fill="none" stroke="#000000" cx="878" cy="-1125.3452" rx="34.7971" ry="21.4286"/>
<text text-anchor="middle" x="878" y="-1120.3452" font-family="Times,serif" font-size="20.00" fill="#000000">0.0</text>
</g>
<!-- SG_1_Node_1&#45;&gt;SG_1_Node_8 -->
<g id="edge15" class="edge">
<title>SG_1_Node_1&#45;&gt;SG_1_Node_8</title>
<path fill="none" stroke="#000000" d="M935.0311,-1333.625C924.4566,-1295.0066 899.6208,-1204.3054 886.487,-1156.3401"/>
<polygon fill="#000000" stroke="#000000" points="889.8119,-1155.23 883.7952,-1146.5094 883.0605,-1157.0787 889.8119,-1155.23"/>
<text text-anchor="middle" x="942.5" y="-1277.5584" font-family="Times,serif" font-size="20.00" fill="#000000">100</text>
<text text-anchor="middle" x="942.5" y="-1255.5584" font-family="Times,serif" font-size="20.00" fill="#000000">101</text>
<text text-anchor="middle" x="942.5" y="-1233.5584" font-family="Times,serif" font-size="20.00" fill="#000000">102</text>
<text text-anchor="middle" x="942.5" y="-1211.5584" font-family="Times,serif" font-size="20.00" fill="#000000">103</text>
<text text-anchor="middle" x="942.5" y="-1189.5584" font-family="Times,serif" font-size="20.00" fill="#000000">407</text>
</g>
<!-- SG_1_Node_2 -->
<g id="node18" class="node">
<title>SG_1_Node_2</title>
<polygon fill="none" stroke="#000000" points="1073,-1143.3452 931,-1143.3452 931,-1107.3452 1073,-1107.3452 1073,-1143.3452"/>
<text text-anchor="middle" x="1002" y="-1120.3452" font-family="Times,serif" font-size="20.00" fill="#000000">Status&#45;Code</text>
</g>
<!-- SG_1_Node_1&#45;&gt;SG_1_Node_2 -->
<g id="edge16" class="edge">
<title>SG_1_Node_1&#45;&gt;SG_1_Node_2</title>
<path fill="none" stroke="#000000" d="M949.3255,-1333.5476C954.7987,-1322.2634 961.5016,-1307.343 966,-1293.5584 981.7176,-1245.395 992.4126,-1187.1982 997.8397,-1153.4148"/>
<polygon fill="#000000" stroke="#000000" points="1001.3268,-1153.7688 999.4163,-1143.3477 994.4111,-1152.6857 1001.3268,-1153.7688"/>
<text text-anchor="middle" x="1038" y="-1244.5584" font-family="Times,serif" font-size="20.00" fill="#000000">[NA]</text>
<text text-anchor="middle" x="1038" y="-1222.5584" font-family="Times,serif" font-size="20.00" fill="#000000">58 levels</text>
</g>
<!-- SG_1_Node_3 -->
<g id="node19" class="node">
<title>SG_1_Node_3</title>
<polygon fill="none" stroke="#000000" points="992.5,-982.9188 927.5,-982.9188 927.5,-946.9188 992.5,-946.9188 992.5,-982.9188"/>
<text text-anchor="middle" x="960" y="-959.9188" font-family="Times,serif" font-size="20.00" fill="#000000">body</text>
</g>
<!-- SG_1_Node_2&#45;&gt;SG_1_Node_3 -->
<g id="edge17" class="edge">
<title>SG_1_Node_2&#45;&gt;SG_1_Node_3</title>
<path fill="none" stroke="#000000" d="M994.6971,-1107.2112C990.3064,-1095.8339 984.8432,-1080.7834 981,-1067.132 974.0603,-1042.4816 968.3815,-1013.8887 964.6871,-993.2234"/>
<polygon fill="#000000" stroke="#000000" points="968.1056,-992.4525 962.9399,-983.2023 961.2096,-993.6549 968.1056,-992.4525"/>
<text text-anchor="middle" x="1000.5" y="-1040.132" font-family="Times,serif" font-size="20.00" fill="#000000">200</text>
</g>
<!-- SG_1_Node_9 -->
<g id="node20" class="node">
<title>SG_1_Node_9</title>
<ellipse fill="none" stroke="#000000" cx="1045" cy="-964.9188" rx="34.7971" ry="21.4286"/>
<text text-anchor="middle" x="1045" y="-959.9188" font-family="Times,serif" font-size="20.00" fill="#000000">1.0</text>
</g>
<!-- SG_1_Node_2&#45;&gt;SG_1_Node_9 -->
<g id="edge18" class="edge">
<title>SG_1_Node_2&#45;&gt;SG_1_Node_9</title>
<path fill="none" stroke="#000000" d="M1007.8751,-1107.3344C1011.5369,-1095.875 1016.2488,-1080.6923 1020,-1067.132 1026.5533,-1043.4422 1033.1238,-1016.4197 1037.8832,-996.1115"/>
<polygon fill="#000000" stroke="#000000" points="1041.3421,-996.6897 1040.1973,-986.1569 1034.5239,-995.1046 1041.3421,-996.6897"/>
<text text-anchor="middle" x="1077" y="-1051.132" font-family="Times,serif" font-size="20.00" fill="#000000">[NA]</text>
<text text-anchor="middle" x="1077" y="-1029.132" font-family="Times,serif" font-size="20.00" fill="#000000">57 levels</text>
</g>
<!-- SG_1_Node_4 -->
<g id="node21" class="node">
<title>SG_1_Node_4</title>
<polygon fill="none" stroke="#000000" points="832.5,-624.4924 677.5,-624.4924 677.5,-588.4924 832.5,-588.4924 832.5,-624.4924"/>
<text text-anchor="middle" x="755" y="-601.4924" font-family="Times,serif" font-size="20.00" fill="#000000">Content&#45;Type</text>
</g>
<!-- SG_1_Node_3&#45;&gt;SG_1_Node_4 -->
<g id="edge19" class="edge">
<title>SG_1_Node_3&#45;&gt;SG_1_Node_4</title>
<path fill="none" stroke="#000000" d="M927.2373,-962.2627C865.5491,-956.5092 735.9249,-940.5898 709,-906.7056 642.0873,-822.4982 673.7033,-766.3045 709,-664.7056 713.0868,-652.9421 720.6475,-641.7611 728.4753,-632.4004"/>
<polygon fill="#000000" stroke="#000000" points="731.3152,-634.4737 735.3425,-624.6741 726.0831,-629.8234 731.3152,-634.4737"/>
<text text-anchor="middle" x="954.5" y="-791.7056" font-family="Times,serif" font-size="20.00" fill="#000000">ecocnt_audio=duration=1</text>
<text text-anchor="middle" x="954.5" y="-769.7056" font-family="Times,serif" font-size="20.00" fill="#000000">ecocnt_vid=width=100,height=100,duration=2</text>
</g>
<!-- SG_1_Node_10 -->
<g id="node22" class="node">
<title>SG_1_Node_10</title>
<ellipse fill="none" stroke="#000000" cx="1222" cy="-606.4924" rx="34.7971" ry="21.4286"/>
<text text-anchor="middle" x="1222" y="-601.4924" font-family="Times,serif" font-size="20.00" fill="#000000">1.0</text>
</g>
<!-- SG_1_Node_3&#45;&gt;SG_1_Node_10 -->
<g id="edge20" class="edge">
<title>SG_1_Node_3&#45;&gt;SG_1_Node_10</title>
<path fill="none" stroke="#000000" d="M992.7496,-946.9214C995.4989,-945.7351 998.2711,-944.6423 1001,-943.7056 1086.0872,-914.4995 1140.0044,-973.7382 1200,-906.7056 1267.566,-831.2147 1245.417,-697.8991 1230.6834,-637.6268"/>
<polygon fill="#000000" stroke="#000000" points="1233.9874,-636.4175 1228.1308,-627.5886 1227.2033,-638.1427 1233.9874,-636.4175"/>
<text text-anchor="middle" x="1519" y="-890.7056" font-family="Times,serif" font-size="20.00" fill="#000000">[NA]</text>
<text text-anchor="middle" x="1519" y="-868.7056" font-family="Times,serif" font-size="20.00" fill="#000000">ecocnt_css=h1 {color: blue}</text>
<text text-anchor="middle" x="1519" y="-846.7056" font-family="Times,serif" font-size="20.00" fill="#000000">ecocnt_html=meta_refresh=0;http://172.17.0.1:8000</text>
<text text-anchor="middle" x="1519" y="-824.7056" font-family="Times,serif" font-size="20.00" fill="#000000">ecocnt_html=num_frames=1,input_id=test1</text>
<text text-anchor="middle" x="1519" y="-802.7056" font-family="Times,serif" font-size="20.00" fill="#000000">ecocnt_html=num_frames=2</text>
<text text-anchor="middle" x="1519" y="-780.7056" font-family="Times,serif" font-size="20.00" fill="#000000">ecocnt_html=post_message=mes1</text>
<text text-anchor="middle" x="1519" y="-758.7056" font-family="Times,serif" font-size="20.00" fill="#000000">ecocnt_img=width=50,height=50,type=png</text>
<text text-anchor="middle" x="1519" y="-736.7056" font-family="Times,serif" font-size="20.00" fill="#000000">ecocnt_js=.,,.</text>
<text text-anchor="middle" x="1519" y="-714.7056" font-family="Times,serif" font-size="20.00" fill="#000000">ecocnt_js=var a=5;</text>
<text text-anchor="middle" x="1519" y="-692.7056" font-family="Times,serif" font-size="20.00" fill="#000000">ecocnt_pdf=a=a</text>
<text text-anchor="middle" x="1519" y="-670.7056" font-family="Times,serif" font-size="20.00" fill="#000000">empty</text>
</g>
<!-- SG_1_Node_11 -->
<g id="node23" class="node">
<title>SG_1_Node_11</title>
<ellipse fill="none" stroke="#000000" cx="712" cy="-336.066" rx="34.7971" ry="21.4286"/>
<text text-anchor="middle" x="712" y="-331.066" font-family="Times,serif" font-size="20.00" fill="#000000">0.0</text>
</g>
<!-- SG_1_Node_4&#45;&gt;SG_1_Node_11 -->
<g id="edge21" class="edge">
<title>SG_1_Node_4&#45;&gt;SG_1_Node_11</title>
<path fill="none" stroke="#000000" d="M743.6237,-588.3658C737.2491,-577.2392 729.8307,-562.449 726,-548.2792 709.1138,-485.8163 708.786,-409.4262 710.2595,-367.4474"/>
<polygon fill="#000000" stroke="#000000" points="713.7629,-367.434 710.6755,-357.299 706.7688,-367.1472 713.7629,-367.434"/>
<text text-anchor="middle" x="837" y="-532.2792" font-family="Times,serif" font-size="20.00" fill="#000000">[NA]</text>
<text text-anchor="middle" x="837" y="-510.2792" font-family="Times,serif" font-size="20.00" fill="#000000">application/javascript</text>
<text text-anchor="middle" x="837" y="-488.2792" font-family="Times,serif" font-size="20.00" fill="#000000">audio/wav</text>
<text text-anchor="middle" x="837" y="-466.2792" font-family="Times,serif" font-size="20.00" fill="#000000">empty</text>
<text text-anchor="middle" x="837" y="-444.2792" font-family="Times,serif" font-size="20.00" fill="#000000">image/png</text>
<text text-anchor="middle" x="837" y="-422.2792" font-family="Times,serif" font-size="20.00" fill="#000000">text/css</text>
<text text-anchor="middle" x="837" y="-400.2792" font-family="Times,serif" font-size="20.00" fill="#000000">video/mp4</text>
</g>
<!-- SG_1_Node_5 -->
<g id="node24" class="node">
<title>SG_1_Node_5</title>
<polygon fill="none" stroke="#000000" points="1101,-354.066 839,-354.066 839,-318.066 1101,-318.066 1101,-354.066"/>
<text text-anchor="middle" x="970" y="-331.066" font-family="Times,serif" font-size="20.00" fill="#000000">X&#45;Content&#45;Type&#45;Options</text>
</g>
<!-- SG_1_Node_4&#45;&gt;SG_1_Node_5 -->
<g id="edge22" class="edge">
<title>SG_1_Node_4&#45;&gt;SG_1_Node_5</title>
<path fill="none" stroke="#000000" d="M832.7306,-592.1474C879.5151,-581.8516 932.8686,-566.5913 948,-548.2792 991.4842,-495.6543 983.7595,-408.8107 976.0219,-364.2949"/>
<polygon fill="#000000" stroke="#000000" points="979.4114,-363.3781 974.1364,-354.1898 972.5301,-364.6621 979.4114,-363.3781"/>
<text text-anchor="middle" x="1059" y="-477.2792" font-family="Times,serif" font-size="20.00" fill="#000000">application/pdf</text>
<text text-anchor="middle" x="1059" y="-455.2792" font-family="Times,serif" font-size="20.00" fill="#000000">text/html</text>
</g>
<!-- SG_1_Node_6 -->
<g id="node25" class="node">
<title>SG_1_Node_6</title>
<polygon fill="none" stroke="#000000" points="950.5,-193.6396 795.5,-193.6396 795.5,-157.6396 950.5,-157.6396 950.5,-193.6396"/>
<text text-anchor="middle" x="873" y="-170.6396" font-family="Times,serif" font-size="20.00" fill="#000000">Content&#45;Type</text>
</g>
<!-- SG_1_Node_5&#45;&gt;SG_1_Node_6 -->
<g id="edge23" class="edge">
<title>SG_1_Node_5&#45;&gt;SG_1_Node_6</title>
<path fill="none" stroke="#000000" d="M949.0358,-318.0129C937.5246,-307.2546 923.667,-292.8109 914,-277.8528 899.0169,-254.6689 887.8934,-225.1252 881.0416,-203.769"/>
<polygon fill="#000000" stroke="#000000" points="884.3209,-202.5262 878.0229,-194.0064 877.6333,-204.5941 884.3209,-202.5262"/>
<text text-anchor="middle" x="946" y="-250.8528" font-family="Times,serif" font-size="20.00" fill="#000000">empty</text>
</g>
<!-- SG_1_Node_12 -->
<g id="node26" class="node">
<title>SG_1_Node_12</title>
<ellipse fill="none" stroke="#000000" cx="1003" cy="-175.6396" rx="34.7971" ry="21.4286"/>
<text text-anchor="middle" x="1003" y="-170.6396" font-family="Times,serif" font-size="20.00" fill="#000000">1.0</text>
</g>
<!-- SG_1_Node_5&#45;&gt;SG_1_Node_12 -->
<g id="edge24" class="edge">
<title>SG_1_Node_5&#45;&gt;SG_1_Node_12</title>
<path fill="none" stroke="#000000" d="M973.7214,-317.9749C979.273,-290.986 989.7977,-239.8213 996.6001,-206.752"/>
<polygon fill="#000000" stroke="#000000" points="1000.0802,-207.2048 998.6669,-196.7046 993.2238,-205.7944 1000.0802,-207.2048"/>
<text text-anchor="middle" x="1025" y="-261.8528" font-family="Times,serif" font-size="20.00" fill="#000000">[NA]</text>
<text text-anchor="middle" x="1025" y="-239.8528" font-family="Times,serif" font-size="20.00" fill="#000000">nosniff</text>
</g>
<!-- SG_1_Node_13 -->
<g id="node27" class="node">
<title>SG_1_Node_13</title>
<ellipse fill="none" stroke="#000000" cx="776" cy="-37.2132" rx="34.7971" ry="21.4286"/>
<text text-anchor="middle" x="776" y="-32.2132" font-family="Times,serif" font-size="20.00" fill="#000000">0.0</text>
</g>
<!-- SG_1_Node_6&#45;&gt;SG_1_Node_13 -->
<g id="edge25" class="edge">
<title>SG_1_Node_6&#45;&gt;SG_1_Node_13</title>
<path fill="none" stroke="#000000" d="M834.0973,-157.5681C817.6287,-147.9496 799.7909,-134.5345 789,-117.4264 779.9496,-103.0778 776.5333,-84.5106 775.455,-68.8538"/>
<polygon fill="#000000" stroke="#000000" points="778.9404,-68.4184 775.0415,-58.5671 771.9461,-68.6997 778.9404,-68.4184"/>
<text text-anchor="middle" x="836" y="-101.4264" font-family="Times,serif" font-size="20.00" fill="#000000">text/html</text>
</g>
<!-- SG_1_Node_14 -->
<g id="node28" class="node">
<title>SG_1_Node_14</title>
<ellipse fill="none" stroke="#000000" cx="906" cy="-37.2132" rx="34.7971" ry="21.4286"/>
<text text-anchor="middle" x="906" y="-32.2132" font-family="Times,serif" font-size="20.00" fill="#000000">1.0</text>
</g>
<!-- SG_1_Node_6&#45;&gt;SG_1_Node_14 -->
<g id="edge26" class="edge">
<title>SG_1_Node_6&#45;&gt;SG_1_Node_14</title>
<path fill="none" stroke="#000000" d="M877.3142,-157.5428C882.7053,-134.9285 892.0178,-95.8649 898.5667,-68.3941"/>
<polygon fill="#000000" stroke="#000000" points="902.0129,-69.0308 900.9273,-58.4917 895.2037,-67.4075 902.0129,-69.0308"/>
<text text-anchor="middle" x="968" y="-101.4264" font-family="Times,serif" font-size="20.00" fill="#000000">application/pdf</text>
</g>
<!-- SG_2_Node_0 -->
<g id="node29" class="node">
<title>SG_2_Node_0</title>
<polygon fill="none" stroke="#000000" points="2147.5,-1526.9848 1830.5,-1526.9848 1830.5,-1490.9848 2147.5,-1490.9848 2147.5,-1526.9848"/>
<text text-anchor="middle" x="1989" y="-1503.9848" font-family="Times,serif" font-size="20.00" fill="#000000">Cross&#45;Origin&#45;Resource&#45;Policy</text>
</g>
<!-- SG_2_Node_1 -->
<g id="node30" class="node">
<title>SG_2_Node_1</title>
<polygon fill="none" stroke="#000000" points="1980,-1369.7716 1838,-1369.7716 1838,-1333.7716 1980,-1333.7716 1980,-1369.7716"/>
<text text-anchor="middle" x="1909" y="-1346.7716" font-family="Times,serif" font-size="20.00" fill="#000000">Status&#45;Code</text>
</g>
<!-- SG_2_Node_0&#45;&gt;SG_2_Node_1 -->
<g id="edge27" class="edge">
<title>SG_2_Node_0&#45;&gt;SG_2_Node_1</title>
<path fill="none" stroke="#000000" d="M1966.8931,-1490.8971C1956.1396,-1481.02 1943.8689,-1467.9681 1936,-1453.9848 1922.9867,-1430.8598 1916.0605,-1401.2548 1912.4965,-1379.8643"/>
<polygon fill="#000000" stroke="#000000" points="1915.9292,-1379.1566 1910.9649,-1369.7968 1909.0088,-1380.2095 1915.9292,-1379.1566"/>
<text text-anchor="middle" x="1968" y="-1437.9848" font-family="Times,serif" font-size="20.00" fill="#000000">[NA]</text>
<text text-anchor="middle" x="1968" y="-1415.9848" font-family="Times,serif" font-size="20.00" fill="#000000">empty</text>
</g>
<!-- SG_2_Node_2 -->
<g id="node31" class="node">
<title>SG_2_Node_2</title>
<ellipse fill="none" stroke="#000000" cx="2033" cy="-1351.7716" rx="34.7971" ry="21.4286"/>
<text text-anchor="middle" x="2033" y="-1346.7716" font-family="Times,serif" font-size="20.00" fill="#000000">1.0</text>
</g>
<!-- SG_2_Node_0&#45;&gt;SG_2_Node_2 -->
<g id="edge28" class="edge">
<title>SG_2_Node_0&#45;&gt;SG_2_Node_2</title>
<path fill="none" stroke="#000000" d="M1994.0474,-1490.9505C2001.4412,-1464.5322 2015.3171,-1414.9533 2024.3551,-1382.6601"/>
<polygon fill="#000000" stroke="#000000" points="2027.7804,-1383.4072 2027.1052,-1372.8339 2021.0395,-1381.5205 2027.7804,-1383.4072"/>
<text text-anchor="middle" x="2077" y="-1426.9848" font-family="Times,serif" font-size="20.00" fill="#000000">same&#45;origin</text>
</g>
<!-- SG_2_Node_3 -->
<g id="node32" class="node">
<title>SG_2_Node_3</title>
<ellipse fill="none" stroke="#000000" cx="1868" cy="-1125.3452" rx="34.7971" ry="21.4286"/>
<text text-anchor="middle" x="1868" y="-1120.3452" font-family="Times,serif" font-size="20.00" fill="#000000">0.0</text>
</g>
<!-- SG_2_Node_1&#45;&gt;SG_2_Node_3 -->
<g id="edge29" class="edge">
<title>SG_2_Node_1&#45;&gt;SG_2_Node_3</title>
<path fill="none" stroke="#000000" d="M1898.5086,-1333.5223C1892.6092,-1322.3523 1885.7045,-1307.5594 1882,-1293.5584 1869.724,-1247.1612 1867.4252,-1191.2832 1867.3621,-1157.0444"/>
<polygon fill="#000000" stroke="#000000" points="1870.8634,-1156.744 1867.4104,-1146.7277 1863.8635,-1156.7111 1870.8634,-1156.744"/>
<text text-anchor="middle" x="1928" y="-1244.5584" font-family="Times,serif" font-size="20.00" fill="#000000">[NA]</text>
<text text-anchor="middle" x="1928" y="-1222.5584" font-family="Times,serif" font-size="20.00" fill="#000000">58 levels</text>
</g>
<!-- SG_2_Node_4 -->
<g id="node33" class="node">
<title>SG_2_Node_4</title>
<ellipse fill="none" stroke="#000000" cx="1996" cy="-1125.3452" rx="34.7971" ry="21.4286"/>
<text text-anchor="middle" x="1996" y="-1120.3452" font-family="Times,serif" font-size="20.00" fill="#000000">1.0</text>
</g>
<!-- SG_2_Node_1&#45;&gt;SG_2_Node_4 -->
<g id="edge30" class="edge">
<title>SG_2_Node_1&#45;&gt;SG_2_Node_4</title>
<path fill="none" stroke="#000000" d="M1937.3641,-1333.5545C1950.7091,-1323.4345 1965.5212,-1309.6385 1974,-1293.5584 1996.8444,-1250.2339 1999.293,-1192.2143 1998.204,-1156.8734"/>
<polygon fill="#000000" stroke="#000000" points="2001.6922,-1156.5175 1997.7712,-1146.675 1994.6985,-1156.8144 2001.6922,-1156.5175"/>
<text text-anchor="middle" x="2017.5" y="-1277.5584" font-family="Times,serif" font-size="20.00" fill="#000000">100</text>
<text text-anchor="middle" x="2017.5" y="-1255.5584" font-family="Times,serif" font-size="20.00" fill="#000000">101</text>
<text text-anchor="middle" x="2017.5" y="-1233.5584" font-family="Times,serif" font-size="20.00" fill="#000000">102</text>
<text text-anchor="middle" x="2017.5" y="-1211.5584" font-family="Times,serif" font-size="20.00" fill="#000000">103</text>
<text text-anchor="middle" x="2017.5" y="-1189.5584" font-family="Times,serif" font-size="20.00" fill="#000000">407</text>
</g>
<!-- SG_3_Node_0 -->
<g id="node34" class="node">
<title>SG_3_Node_0</title>
<polygon fill="none" stroke="#000000" points="3614,-1526.9848 3472,-1526.9848 3472,-1490.9848 3614,-1490.9848 3614,-1526.9848"/>
<text text-anchor="middle" x="3543" y="-1503.9848" font-family="Times,serif" font-size="20.00" fill="#000000">Status&#45;Code</text>
</g>
<!-- SG_3_Node_6 -->
<g id="node35" class="node">
<title>SG_3_Node_6</title>
<ellipse fill="none" stroke="#000000" cx="3502" cy="-1351.7716" rx="34.7971" ry="21.4286"/>
<text text-anchor="middle" x="3502" y="-1346.7716" font-family="Times,serif" font-size="20.00" fill="#000000">0.0</text>
</g>
<!-- SG_3_Node_0&#45;&gt;SG_3_Node_6 -->
<g id="edge31" class="edge">
<title>SG_3_Node_0&#45;&gt;SG_3_Node_6</title>
<path fill="none" stroke="#000000" d="M3532.2105,-1490.7574C3526.5144,-1480.3278 3519.9126,-1466.8038 3516,-1453.9848 3508.9651,-1430.9358 3505.4577,-1403.8806 3503.7131,-1383.397"/>
<polygon fill="#000000" stroke="#000000" points="3507.1968,-1383.0479 3502.9522,-1373.3405 3500.2168,-1383.5761 3507.1968,-1383.0479"/>
<text text-anchor="middle" x="3562" y="-1437.9848" font-family="Times,serif" font-size="20.00" fill="#000000">[NA]</text>
<text text-anchor="middle" x="3562" y="-1415.9848" font-family="Times,serif" font-size="20.00" fill="#000000">62 levels</text>
</g>
<!-- SG_3_Node_1 -->
<g id="node36" class="node">
<title>SG_3_Node_1</title>
<polygon fill="none" stroke="#000000" points="3662.5,-1369.7716 3597.5,-1369.7716 3597.5,-1333.7716 3662.5,-1333.7716 3662.5,-1369.7716"/>
<text text-anchor="middle" x="3630" y="-1346.7716" font-family="Times,serif" font-size="20.00" fill="#000000">body</text>
</g>
<!-- SG_3_Node_0&#45;&gt;SG_3_Node_1 -->
<g id="edge32" class="edge">
<title>SG_3_Node_0&#45;&gt;SG_3_Node_1</title>
<path fill="none" stroke="#000000" d="M3572.1433,-1490.8228C3585.007,-1481.3615 3599.1798,-1468.6901 3608,-1453.9848 3621.4984,-1431.4799 3626.7671,-1401.7946 3628.7964,-1380.2167"/>
<polygon fill="#000000" stroke="#000000" points="3632.3012,-1380.2851 3629.5715,-1370.048 3625.3215,-1379.753 3632.3012,-1380.2851"/>
<text text-anchor="middle" x="3643.5" y="-1426.9848" font-family="Times,serif" font-size="20.00" fill="#000000">200</text>
</g>
<!-- SG_3_Node_7 -->
<g id="node37" class="node">
<title>SG_3_Node_7</title>
<ellipse fill="none" stroke="#000000" cx="3487" cy="-1125.3452" rx="34.7971" ry="21.4286"/>
<text text-anchor="middle" x="3487" y="-1120.3452" font-family="Times,serif" font-size="20.00" fill="#000000">0.0</text>
</g>
<!-- SG_3_Node_1&#45;&gt;SG_3_Node_7 -->
<g id="edge33" class="edge">
<title>SG_3_Node_1&#45;&gt;SG_3_Node_7</title>
<path fill="none" stroke="#000000" d="M3597.2724,-1333.7234C3581.4981,-1323.6464 3563.3668,-1309.8379 3551,-1293.5584 3519.2607,-1251.7773 3501.6228,-1192.4314 3493.2432,-1156.5413"/>
<polygon fill="#000000" stroke="#000000" points="3496.6266,-1155.6326 3491.0277,-1146.638 3489.7954,-1157.1609 3496.6266,-1155.6326"/>
<text text-anchor="middle" x="3597" y="-1244.5584" font-family="Times,serif" font-size="20.00" fill="#000000">[NA]</text>
<text text-anchor="middle" x="3597" y="-1222.5584" font-family="Times,serif" font-size="20.00" fill="#000000">11 levels</text>
</g>
<!-- SG_3_Node_2 -->
<g id="node38" class="node">
<title>SG_3_Node_2</title>
<polygon fill="none" stroke="#000000" points="3856.5,-1143.3452 3539.5,-1143.3452 3539.5,-1107.3452 3856.5,-1107.3452 3856.5,-1143.3452"/>
<text text-anchor="middle" x="3698" y="-1120.3452" font-family="Times,serif" font-size="20.00" fill="#000000">Cross&#45;Origin&#45;Resource&#45;Policy</text>
</g>
<!-- SG_3_Node_1&#45;&gt;SG_3_Node_2 -->
<g id="edge34" class="edge">
<title>SG_3_Node_1&#45;&gt;SG_3_Node_2</title>
<path fill="none" stroke="#000000" d="M3635.4498,-1333.625C3647.287,-1294.2095 3675.418,-1200.5389 3689.567,-1153.4254"/>
<polygon fill="#000000" stroke="#000000" points="3693,-1154.1625 3692.5243,-1143.5783 3686.2958,-1152.149 3693,-1154.1625"/>
<text text-anchor="middle" x="3814.5" y="-1233.5584" font-family="Times,serif" font-size="20.00" fill="#000000">ecocnt_audio=duration=1</text>
</g>
<!-- SG_3_Node_8 -->
<g id="node39" class="node">
<title>SG_3_Node_8</title>
<ellipse fill="none" stroke="#000000" cx="3566" cy="-964.9188" rx="34.7971" ry="21.4286"/>
<text text-anchor="middle" x="3566" y="-959.9188" font-family="Times,serif" font-size="20.00" fill="#000000">0.0</text>
</g>
<!-- SG_3_Node_2&#45;&gt;SG_3_Node_8 -->
<g id="edge35" class="edge">
<title>SG_3_Node_2&#45;&gt;SG_3_Node_8</title>
<path fill="none" stroke="#000000" d="M3635.4483,-1107.3014C3615.0852,-1098.3994 3594.3189,-1085.499 3581,-1067.132 3566.2512,-1046.7932 3563.1518,-1018.1092 3563.369,-996.3021"/>
<polygon fill="#000000" stroke="#000000" points="3566.8701,-996.3271 3563.7056,-986.2159 3559.8739,-996.0936 3566.8701,-996.3271"/>
<text text-anchor="middle" x="3642" y="-1040.132" font-family="Times,serif" font-size="20.00" fill="#000000">same&#45;origin</text>
</g>
<!-- SG_3_Node_3 -->
<g id="node40" class="node">
<title>SG_3_Node_3</title>
<polygon fill="none" stroke="#000000" points="3801.5,-982.9188 3646.5,-982.9188 3646.5,-946.9188 3801.5,-946.9188 3801.5,-982.9188"/>
<text text-anchor="middle" x="3724" y="-959.9188" font-family="Times,serif" font-size="20.00" fill="#000000">Content&#45;Type</text>
</g>
<!-- SG_3_Node_2&#45;&gt;SG_3_Node_3 -->
<g id="edge36" class="edge">
<title>SG_3_Node_2&#45;&gt;SG_3_Node_3</title>
<path fill="none" stroke="#000000" d="M3700.932,-1107.2541C3705.4378,-1079.4519 3714.1016,-1025.9947 3719.434,-993.0919"/>
<polygon fill="#000000" stroke="#000000" points="3722.8939,-993.6211 3721.0388,-983.19 3715.984,-992.5012 3722.8939,-993.6211"/>
<text text-anchor="middle" x="3746" y="-1051.132" font-family="Times,serif" font-size="20.00" fill="#000000">[NA]</text>
<text text-anchor="middle" x="3746" y="-1029.132" font-family="Times,serif" font-size="20.00" fill="#000000">empty</text>
</g>
<!-- SG_3_Node_4 -->
<g id="node41" class="node">
<title>SG_3_Node_4</title>
<polygon fill="none" stroke="#000000" points="3717,-624.4924 3455,-624.4924 3455,-588.4924 3717,-588.4924 3717,-624.4924"/>
<text text-anchor="middle" x="3586" y="-601.4924" font-family="Times,serif" font-size="20.00" fill="#000000">X&#45;Content&#45;Type&#45;Options</text>
</g>
<!-- SG_3_Node_3&#45;&gt;SG_3_Node_4 -->
<g id="edge37" class="edge">
<title>SG_3_Node_3&#45;&gt;SG_3_Node_4</title>
<path fill="none" stroke="#000000" d="M3646.1994,-949.6344C3622.8959,-941.0318 3599.873,-927.6145 3586,-906.7056 3529.5751,-821.6639 3559.4682,-691.0748 3576.6433,-634.3706"/>
<polygon fill="#000000" stroke="#000000" points="3580.0325,-635.2591 3579.6785,-624.6701 3573.3519,-633.1687 3580.0325,-635.2591"/>
<text text-anchor="middle" x="3663" y="-791.7056" font-family="Times,serif" font-size="20.00" fill="#000000">application/pdf</text>
<text text-anchor="middle" x="3663" y="-769.7056" font-family="Times,serif" font-size="20.00" fill="#000000">text/html</text>
</g>
<!-- SG_3_Node_9 -->
<g id="node42" class="node">
<title>SG_3_Node_9</title>
<ellipse fill="none" stroke="#000000" cx="3776" cy="-606.4924" rx="34.7971" ry="21.4286"/>
<text text-anchor="middle" x="3776" y="-601.4924" font-family="Times,serif" font-size="20.00" fill="#000000">1.0</text>
</g>
<!-- SG_3_Node_3&#45;&gt;SG_3_Node_9 -->
<g id="edge38" class="edge">
<title>SG_3_Node_3&#45;&gt;SG_3_Node_9</title>
<path fill="none" stroke="#000000" d="M3731.3787,-946.8685C3735.7197,-935.5227 3740.9415,-920.476 3744,-906.7056 3765.4159,-810.2847 3772.6422,-693.1502 3774.9649,-638.0387"/>
<polygon fill="#000000" stroke="#000000" points="3778.4691,-637.9983 3775.3668,-627.8679 3771.4745,-637.7218 3778.4691,-637.9983"/>
<text text-anchor="middle" x="3884" y="-846.7056" font-family="Times,serif" font-size="20.00" fill="#000000">[NA]</text>
<text text-anchor="middle" x="3884" y="-824.7056" font-family="Times,serif" font-size="20.00" fill="#000000">application/javascript</text>
<text text-anchor="middle" x="3884" y="-802.7056" font-family="Times,serif" font-size="20.00" fill="#000000">audio/wav</text>
<text text-anchor="middle" x="3884" y="-780.7056" font-family="Times,serif" font-size="20.00" fill="#000000">empty</text>
<text text-anchor="middle" x="3884" y="-758.7056" font-family="Times,serif" font-size="20.00" fill="#000000">image/png</text>
<text text-anchor="middle" x="3884" y="-736.7056" font-family="Times,serif" font-size="20.00" fill="#000000">text/css</text>
<text text-anchor="middle" x="3884" y="-714.7056" font-family="Times,serif" font-size="20.00" fill="#000000">video/mp4</text>
</g>
<!-- SG_3_Node_10 -->
<g id="node43" class="node">
<title>SG_3_Node_10</title>
<ellipse fill="none" stroke="#000000" cx="3491" cy="-336.066" rx="34.7971" ry="21.4286"/>
<text text-anchor="middle" x="3491" y="-331.066" font-family="Times,serif" font-size="20.00" fill="#000000">0.0</text>
</g>
<!-- SG_3_Node_4&#45;&gt;SG_3_Node_10 -->
<g id="edge39" class="edge">
<title>SG_3_Node_4&#45;&gt;SG_3_Node_10</title>
<path fill="none" stroke="#000000" d="M3556.7774,-588.4499C3543.0255,-578.3743 3527.7565,-564.5655 3519,-548.2792 3487.8513,-490.3456 3486.3902,-411.0763 3488.4547,-367.6694"/>
<polygon fill="#000000" stroke="#000000" points="3491.9629,-367.6248 3489.0397,-357.4412 3484.9743,-367.225 3491.9629,-367.6248"/>
<text text-anchor="middle" x="3554" y="-466.2792" font-family="Times,serif" font-size="20.00" fill="#000000">nosniff</text>
</g>
<!-- SG_3_Node_5 -->
<g id="node44" class="node">
<title>SG_3_Node_5</title>
<polygon fill="none" stroke="#000000" points="3698.5,-354.066 3543.5,-354.066 3543.5,-318.066 3698.5,-318.066 3698.5,-354.066"/>
<text text-anchor="middle" x="3621" y="-331.066" font-family="Times,serif" font-size="20.00" fill="#000000">Content&#45;Type</text>
</g>
<!-- SG_3_Node_4&#45;&gt;SG_3_Node_5 -->
<g id="edge40" class="edge">
<title>SG_3_Node_4&#45;&gt;SG_3_Node_5</title>
<path fill="none" stroke="#000000" d="M3588.3508,-588.3291C3594.3283,-542.1438 3610.143,-419.952 3617.3403,-364.3422"/>
<polygon fill="#000000" stroke="#000000" points="3620.8469,-364.5169 3618.6594,-354.1503 3613.9048,-363.6183 3620.8469,-364.5169"/>
<text text-anchor="middle" x="3645" y="-477.2792" font-family="Times,serif" font-size="20.00" fill="#000000">[NA]</text>
<text text-anchor="middle" x="3645" y="-455.2792" font-family="Times,serif" font-size="20.00" fill="#000000">empty</text>
</g>
<!-- SG_3_Node_11 -->
<g id="node45" class="node">
<title>SG_3_Node_11</title>
<ellipse fill="none" stroke="#000000" cx="3541" cy="-175.6396" rx="34.7971" ry="21.4286"/>
<text text-anchor="middle" x="3541" y="-170.6396" font-family="Times,serif" font-size="20.00" fill="#000000">0.0</text>
</g>
<!-- SG_3_Node_5&#45;&gt;SG_3_Node_11 -->
<g id="edge41" class="edge">
<title>SG_3_Node_5&#45;&gt;SG_3_Node_11</title>
<path fill="none" stroke="#000000" d="M3592.2442,-317.9158C3578.7053,-307.8128 3563.6619,-294.0119 3555,-277.8528 3543.3453,-256.1106 3540.1789,-228.1774 3539.7407,-207.0081"/>
<polygon fill="#000000" stroke="#000000" points="3543.2407,-206.9146 3539.7245,-196.9202 3536.2407,-206.9259 3543.2407,-206.9146"/>
<text text-anchor="middle" x="3632" y="-250.8528" font-family="Times,serif" font-size="20.00" fill="#000000">application/pdf</text>
</g>
<!-- SG_3_Node_12 -->
<g id="node46" class="node">
<title>SG_3_Node_12</title>
<ellipse fill="none" stroke="#000000" cx="3731" cy="-175.6396" rx="34.7971" ry="21.4286"/>
<text text-anchor="middle" x="3731" y="-170.6396" font-family="Times,serif" font-size="20.00" fill="#000000">1.0</text>
</g>
<!-- SG_3_Node_5&#45;&gt;SG_3_Node_12 -->
<g id="edge42" class="edge">
<title>SG_3_Node_5&#45;&gt;SG_3_Node_12</title>
<path fill="none" stroke="#000000" d="M3661.7713,-317.8673C3678.8123,-308.2916 3697.3262,-294.9463 3709,-277.8528 3723.1871,-257.0793 3728.4611,-228.8426 3730.3146,-207.311"/>
<polygon fill="#000000" stroke="#000000" points="3733.8262,-207.2478 3730.9876,-197.0403 3726.8412,-206.79 3733.8262,-207.2478"/>
<text text-anchor="middle" x="3773" y="-250.8528" font-family="Times,serif" font-size="20.00" fill="#000000">text/html</text>
</g>
</g>
</svg>
