<?xml version="1.0" encoding="UTF-8" standalone="no"?>
<!DOCTYPE svg PUBLIC "-//W3C//DTD SVG 1.1//EN"
 "http://www.w3.org/Graphics/SVG/1.1/DTD/svg11.dtd">
<!-- Generated by graphviz version 2.40.1 (20161225.0304)
 -->
<!-- Title: G Pages: 1 -->
<svg width="1304pt" height="1845pt"
 viewBox="0.00 0.00 1303.79 1844.98" xmlns="http://www.w3.org/2000/svg" xmlns:xlink="http://www.w3.org/1999/xlink">
<g id="graph0" class="graph" transform="scale(1 1) rotate(0) translate(4 1840.9848)">
<title>G</title>
<polygon fill="#ffffff" stroke="transparent" points="-4,4 -4,-1840.9848 1299.7859,-1840.9848 1299.7859,4 -4,4"/>
<g id="clust1" class="cluster">
<title>cluster_0</title>
<polygon fill="none" stroke="#000000" points="9.7859,-8 9.7859,-1828.9848 1152.7859,-1828.9848 1152.7859,-8 9.7859,-8"/>
<text text-anchor="middle" x="581.2859" y="-1792.9848" font-family="Times,serif" font-size="40.00" fill="#000000">Tree 0, Class 1</text>
</g>
<!-- SG_0_Node_0 -->
<g id="node1" class="node">
<title>SG_0_Node_0</title>
<polygon fill="none" stroke="#000000" points="596.7859,-1768.9848 454.7859,-1768.9848 454.7859,-1732.9848 596.7859,-1732.9848 596.7859,-1768.9848"/>
<text text-anchor="middle" x="525.7859" y="-1745.9848" font-family="Times,serif" font-size="20.00" fill="#000000">Status&#45;Code</text>
</g>
<!-- SG_0_Node_21 -->
<g id="node2" class="node">
<title>SG_0_Node_21</title>
<ellipse fill="none" stroke="#000000" cx="461.7859" cy="-1593.7716" rx="34.7971" ry="21.4286"/>
<text text-anchor="middle" x="461.7859" y="-1588.7716" font-family="Times,serif" font-size="20.00" fill="#000000">0.0</text>
</g>
<!-- SG_0_Node_0&#45;&gt;SG_0_Node_21 -->
<g id="edge1" class="edge">
<title>SG_0_Node_0&#45;&gt;SG_0_Node_21</title>
<path fill="none" stroke="#000000" d="M503.9938,-1732.7894C493.7352,-1722.9772 482.3393,-1710.0153 475.7859,-1695.9848 465.4583,-1673.8741 462.1583,-1646.3458 461.3307,-1625.4298"/>
<polygon fill="#000000" stroke="#000000" points="464.8237,-1625.0771 461.0992,-1615.1586 457.8255,-1625.2349 464.8237,-1625.0771"/>
<text text-anchor="middle" x="521.7859" y="-1679.9848" font-family="Times,serif" font-size="20.00" fill="#000000">[NA]</text>
<text text-anchor="middle" x="521.7859" y="-1657.9848" font-family="Times,serif" font-size="20.00" fill="#000000">62 levels</text>
</g>
<!-- SG_0_Node_1 -->
<g id="node3" class="node">
<title>SG_0_Node_1</title>
<polygon fill="none" stroke="#000000" points="622.2859,-1611.7716 557.2859,-1611.7716 557.2859,-1575.7716 622.2859,-1575.7716 622.2859,-1611.7716"/>
<text text-anchor="middle" x="589.7859" y="-1588.7716" font-family="Times,serif" font-size="20.00" fill="#000000">body</text>
</g>
<!-- SG_0_Node_0&#45;&gt;SG_0_Node_1 -->
<g id="edge2" class="edge">
<title>SG_0_Node_0&#45;&gt;SG_0_Node_1</title>
<path fill="none" stroke="#000000" d="M543.2161,-1732.4933C551.8214,-1722.4103 561.6478,-1709.2952 567.7859,-1695.9848 578.7104,-1672.295 584.3026,-1642.9895 587.1066,-1621.84"/>
<polygon fill="#000000" stroke="#000000" points="590.5847,-1622.231 588.3012,-1611.8852 583.6345,-1621.3969 590.5847,-1622.231"/>
<text text-anchor="middle" x="601.2859" y="-1668.9848" font-family="Times,serif" font-size="20.00" fill="#000000">200</text>
</g>
<!-- SG_0_Node_2 -->
<g id="node4" class="node">
<title>SG_0_Node_2</title>
<polygon fill="none" stroke="#000000" points="558.2859,-1454.5584 493.2859,-1454.5584 493.2859,-1418.5584 558.2859,-1418.5584 558.2859,-1454.5584"/>
<text text-anchor="middle" x="525.7859" y="-1431.5584" font-family="Times,serif" font-size="20.00" fill="#000000">body</text>
</g>
<!-- SG_0_Node_1&#45;&gt;SG_0_Node_2 -->
<g id="edge3" class="edge">
<title>SG_0_Node_1&#45;&gt;SG_0_Node_2</title>
<path fill="none" stroke="#000000" d="M569.302,-1575.5601C558.7352,-1564.9645 546.6533,-1550.7298 539.7859,-1535.5584 529.6527,-1513.1726 526.4453,-1485.2728 525.6027,-1464.8019"/>
<polygon fill="#000000" stroke="#000000" points="529.0957,-1464.4707 525.3511,-1454.5597 522.0978,-1464.6427 529.0957,-1464.4707"/>
<text text-anchor="middle" x="585.7859" y="-1519.5584" font-family="Times,serif" font-size="20.00" fill="#000000">[NA]</text>
<text text-anchor="middle" x="585.7859" y="-1497.5584" font-family="Times,serif" font-size="20.00" fill="#000000">11 levels</text>
</g>
<!-- SG_0_Node_3 -->
<g id="node5" class="node">
<title>SG_0_Node_3</title>
<polygon fill="none" stroke="#000000" points="1081.2859,-1454.5584 764.2859,-1454.5584 764.2859,-1418.5584 1081.2859,-1418.5584 1081.2859,-1454.5584"/>
<text text-anchor="middle" x="922.7859" y="-1431.5584" font-family="Times,serif" font-size="20.00" fill="#000000">Cross&#45;Origin&#45;Resource&#45;Policy</text>
</g>
<!-- SG_0_Node_1&#45;&gt;SG_0_Node_3 -->
<g id="edge4" class="edge">
<title>SG_0_Node_1&#45;&gt;SG_0_Node_3</title>
<path fill="none" stroke="#000000" d="M622.3216,-1578.4111C681.4043,-1550.5175 806.5542,-1491.4328 875.2259,-1459.0121"/>
<polygon fill="#000000" stroke="#000000" points="876.9795,-1462.0547 884.5282,-1454.6204 873.991,-1455.7246 876.9795,-1462.0547"/>
<text text-anchor="middle" x="1050.2859" y="-1508.5584" font-family="Times,serif" font-size="20.00" fill="#000000">ecocnt_vid=width=100,height=100,duration=2</text>
</g>
<!-- SG_0_Node_22 -->
<g id="node6" class="node">
<title>SG_0_Node_22</title>
<ellipse fill="none" stroke="#000000" cx="52.7859" cy="-1081.3452" rx="34.7971" ry="21.4286"/>
<text text-anchor="middle" x="52.7859" y="-1076.3452" font-family="Times,serif" font-size="20.00" fill="#000000">0.0</text>
</g>
<!-- SG_0_Node_2&#45;&gt;SG_0_Node_22 -->
<g id="edge13" class="edge">
<title>SG_0_Node_2&#45;&gt;SG_0_Node_22</title>
<path fill="none" stroke="#000000" d="M493.0111,-1435.36C388.2096,-1431.195 66.3104,-1415.7009 35.7859,-1381.5584 -32.1101,-1305.6151 13.3792,-1171.0151 38.8469,-1111.3062"/>
<polygon fill="#000000" stroke="#000000" points="42.0931,-1112.6183 42.8911,-1102.0535 35.679,-1109.8147 42.0931,-1112.6183"/>
<text text-anchor="middle" x="308.7859" y="-1365.5584" font-family="Times,serif" font-size="20.00" fill="#000000">[NA]</text>
<text text-anchor="middle" x="308.7859" y="-1343.5584" font-family="Times,serif" font-size="20.00" fill="#000000">ecocnt_css=h1 {color: blue}</text>
<text text-anchor="middle" x="308.7859" y="-1321.5584" font-family="Times,serif" font-size="20.00" fill="#000000">ecocnt_html=meta_refresh=0;http://172.17.0.1:8000</text>
<text text-anchor="middle" x="308.7859" y="-1299.5584" font-family="Times,serif" font-size="20.00" fill="#000000">ecocnt_html=num_frames=1,input_id=test1</text>
<text text-anchor="middle" x="308.7859" y="-1277.5584" font-family="Times,serif" font-size="20.00" fill="#000000">ecocnt_html=num_frames=2</text>
<text text-anchor="middle" x="308.7859" y="-1255.5584" font-family="Times,serif" font-size="20.00" fill="#000000">ecocnt_html=post_message=mes1</text>
<text text-anchor="middle" x="308.7859" y="-1233.5584" font-family="Times,serif" font-size="20.00" fill="#000000">ecocnt_img=width=50,height=50,type=png</text>
<text text-anchor="middle" x="308.7859" y="-1211.5584" font-family="Times,serif" font-size="20.00" fill="#000000">ecocnt_js=.,,.</text>
<text text-anchor="middle" x="308.7859" y="-1189.5584" font-family="Times,serif" font-size="20.00" fill="#000000">ecocnt_js=var a=5;</text>
<text text-anchor="middle" x="308.7859" y="-1167.5584" font-family="Times,serif" font-size="20.00" fill="#000000">ecocnt_pdf=a=a</text>
<text text-anchor="middle" x="308.7859" y="-1145.5584" font-family="Times,serif" font-size="20.00" fill="#000000">empty</text>
</g>
<!-- SG_0_Node_4 -->
<g id="node7" class="node">
<title>SG_0_Node_4</title>
<polygon fill="none" stroke="#000000" points="650.2859,-1099.3452 333.2859,-1099.3452 333.2859,-1063.3452 650.2859,-1063.3452 650.2859,-1099.3452"/>
<text text-anchor="middle" x="491.7859" y="-1076.3452" font-family="Times,serif" font-size="20.00" fill="#000000">Cross&#45;Origin&#45;Resource&#45;Policy</text>
</g>
<!-- SG_0_Node_2&#45;&gt;SG_0_Node_4 -->
<g id="edge14" class="edge">
<title>SG_0_Node_2&#45;&gt;SG_0_Node_4</title>
<path fill="none" stroke="#000000" d="M554.3854,-1418.4208C566.47,-1409.043 579.2424,-1396.4334 585.7859,-1381.5584 629.0946,-1283.1077 638.119,-1233.5236 585.7859,-1139.5584 577.5872,-1124.8376 563.9589,-1113.3676 549.5884,-1104.6499"/>
<polygon fill="#000000" stroke="#000000" points="551.0164,-1101.437 540.5868,-1099.5731 547.5776,-1107.5342 551.0164,-1101.437"/>
<text text-anchor="middle" x="755.2859" y="-1255.5584" font-family="Times,serif" font-size="20.00" fill="#000000">ecocnt_audio=duration=1</text>
</g>
<!-- SG_0_Node_23 -->
<g id="node8" class="node">
<title>SG_0_Node_23</title>
<ellipse fill="none" stroke="#000000" cx="857.7859" cy="-1081.3452" rx="34.7971" ry="21.4286"/>
<text text-anchor="middle" x="857.7859" y="-1076.3452" font-family="Times,serif" font-size="20.00" fill="#000000">0.0</text>
</g>
<!-- SG_0_Node_3&#45;&gt;SG_0_Node_23 -->
<g id="edge5" class="edge">
<title>SG_0_Node_3&#45;&gt;SG_0_Node_23</title>
<path fill="none" stroke="#000000" d="M923.8212,-1418.2219C925.9087,-1370.7369 927.8409,-1240.4298 893.7859,-1139.5584 890.2141,-1128.9789 884.414,-1118.3227 878.5026,-1109.0715"/>
<polygon fill="#000000" stroke="#000000" points="881.3496,-1107.0327 872.8701,-1100.6807 875.5376,-1110.9342 881.3496,-1107.0327"/>
<text text-anchor="middle" x="985.7859" y="-1266.5584" font-family="Times,serif" font-size="20.00" fill="#000000">[NA]</text>
<text text-anchor="middle" x="985.7859" y="-1244.5584" font-family="Times,serif" font-size="20.00" fill="#000000">same&#45;origin</text>
</g>
<!-- SG_0_Node_5 -->
<g id="node9" class="node">
<title>SG_0_Node_5</title>
<polygon fill="none" stroke="#000000" points="1065.2859,-1099.3452 910.2859,-1099.3452 910.2859,-1063.3452 1065.2859,-1063.3452 1065.2859,-1099.3452"/>
<text text-anchor="middle" x="987.7859" y="-1076.3452" font-family="Times,serif" font-size="20.00" fill="#000000">Content&#45;Type</text>
</g>
<!-- SG_0_Node_3&#45;&gt;SG_0_Node_5 -->
<g id="edge6" class="edge">
<title>SG_0_Node_3&#45;&gt;SG_0_Node_5</title>
<path fill="none" stroke="#000000" d="M1003.3506,-1418.4144C1021.9865,-1410.2791 1039.6096,-1398.5251 1050.7859,-1381.5584 1109.9519,-1291.7388 1093.8985,-1238.0952 1050.7859,-1139.5584 1045.1253,-1126.6208 1035.014,-1115.2804 1024.5258,-1106.1291"/>
<polygon fill="#000000" stroke="#000000" points="1026.457,-1103.1871 1016.4996,-1099.5675 1022.0265,-1108.6066 1026.457,-1103.1871"/>
<text text-anchor="middle" x="1120.7859" y="-1255.5584" font-family="Times,serif" font-size="20.00" fill="#000000">empty</text>
</g>
<!-- SG_0_Node_24 -->
<g id="node10" class="node">
<title>SG_0_Node_24</title>
<ellipse fill="none" stroke="#000000" cx="333.7859" cy="-810.9188" rx="34.7971" ry="21.4286"/>
<text text-anchor="middle" x="333.7859" y="-805.9188" font-family="Times,serif" font-size="20.00" fill="#000000">0.0</text>
</g>
<!-- SG_0_Node_4&#45;&gt;SG_0_Node_24 -->
<g id="edge15" class="edge">
<title>SG_0_Node_4&#45;&gt;SG_0_Node_24</title>
<path fill="none" stroke="#000000" d="M411.0532,-1063.2982C389.5821,-1054.6319 368.5602,-1041.8732 354.7859,-1023.132 315.4071,-969.5538 320.946,-886.7021 327.7591,-842.0228"/>
<polygon fill="#000000" stroke="#000000" points="331.2302,-842.4834 329.3997,-832.0479 324.3231,-841.3473 331.2302,-842.4834"/>
<text text-anchor="middle" x="415.7859" y="-941.132" font-family="Times,serif" font-size="20.00" fill="#000000">same&#45;origin</text>
</g>
<!-- SG_0_Node_6 -->
<g id="node11" class="node">
<title>SG_0_Node_6</title>
<polygon fill="none" stroke="#000000" points="555.2859,-828.9188 400.2859,-828.9188 400.2859,-792.9188 555.2859,-792.9188 555.2859,-828.9188"/>
<text text-anchor="middle" x="477.7859" y="-805.9188" font-family="Times,serif" font-size="20.00" fill="#000000">Content&#45;Type</text>
</g>
<!-- SG_0_Node_4&#45;&gt;SG_0_Node_6 -->
<g id="edge16" class="edge">
<title>SG_0_Node_4&#45;&gt;SG_0_Node_6</title>
<path fill="none" stroke="#000000" d="M490.8456,-1063.1819C488.4545,-1016.9966 482.1287,-894.8048 479.2497,-839.1951"/>
<polygon fill="#000000" stroke="#000000" points="482.7345,-838.8088 478.7221,-829.0031 475.7439,-839.1707 482.7345,-838.8088"/>
<text text-anchor="middle" x="519.7859" y="-952.132" font-family="Times,serif" font-size="20.00" fill="#000000">[NA]</text>
<text text-anchor="middle" x="519.7859" y="-930.132" font-family="Times,serif" font-size="20.00" fill="#000000">empty</text>
</g>
<!-- SG_0_Node_7 -->
<g id="node12" class="node">
<title>SG_0_Node_7</title>
<polygon fill="none" stroke="#000000" points="866.7859,-828.9188 604.7859,-828.9188 604.7859,-792.9188 866.7859,-792.9188 866.7859,-828.9188"/>
<text text-anchor="middle" x="735.7859" y="-805.9188" font-family="Times,serif" font-size="20.00" fill="#000000">X&#45;Content&#45;Type&#45;Options</text>
</g>
<!-- SG_0_Node_5&#45;&gt;SG_0_Node_7 -->
<g id="edge7" class="edge">
<title>SG_0_Node_5&#45;&gt;SG_0_Node_7</title>
<path fill="none" stroke="#000000" d="M916.1819,-1063.2921C857.6295,-1048.2332 783.7017,-1028.4137 778.7859,-1023.132 731.4658,-972.29 730.0523,-884.2936 732.9295,-839.2586"/>
<polygon fill="#000000" stroke="#000000" points="736.4382,-839.2763 733.7054,-829.0399 729.4582,-838.7462 736.4382,-839.2763"/>
<text text-anchor="middle" x="855.7859" y="-952.132" font-family="Times,serif" font-size="20.00" fill="#000000">application/pdf</text>
<text text-anchor="middle" x="855.7859" y="-930.132" font-family="Times,serif" font-size="20.00" fill="#000000">text/html</text>
</g>
<!-- SG_0_Node_25 -->
<g id="node13" class="node">
<title>SG_0_Node_25</title>
<ellipse fill="none" stroke="#000000" cx="922.7859" cy="-810.9188" rx="34.7971" ry="21.4286"/>
<text text-anchor="middle" x="922.7859" y="-805.9188" font-family="Times,serif" font-size="20.00" fill="#000000">1.0</text>
</g>
<!-- SG_0_Node_5&#45;&gt;SG_0_Node_25 -->
<g id="edge8" class="edge">
<title>SG_0_Node_5&#45;&gt;SG_0_Node_25</title>
<path fill="none" stroke="#000000" d="M983.4201,-1063.1819C972.4871,-1017.6961 943.8342,-898.4884 930.2006,-841.7669"/>
<polygon fill="#000000" stroke="#000000" points="933.5775,-840.8399 927.8373,-831.9348 926.7713,-842.4758 933.5775,-840.8399"/>
<text text-anchor="middle" x="1083.7859" y="-1007.132" font-family="Times,serif" font-size="20.00" fill="#000000">[NA]</text>
<text text-anchor="middle" x="1083.7859" y="-985.132" font-family="Times,serif" font-size="20.00" fill="#000000">application/javascript</text>
<text text-anchor="middle" x="1083.7859" y="-963.132" font-family="Times,serif" font-size="20.00" fill="#000000">audio/wav</text>
<text text-anchor="middle" x="1083.7859" y="-941.132" font-family="Times,serif" font-size="20.00" fill="#000000">empty</text>
<text text-anchor="middle" x="1083.7859" y="-919.132" font-family="Times,serif" font-size="20.00" fill="#000000">image/png</text>
<text text-anchor="middle" x="1083.7859" y="-897.132" font-family="Times,serif" font-size="20.00" fill="#000000">text/css</text>
<text text-anchor="middle" x="1083.7859" y="-875.132" font-family="Times,serif" font-size="20.00" fill="#000000">video/mp4</text>
</g>
<!-- SG_0_Node_8 -->
<g id="node14" class="node">
<title>SG_0_Node_8</title>
<polygon fill="none" stroke="#000000" points="320.2859,-602.4924 165.2859,-602.4924 165.2859,-566.4924 320.2859,-566.4924 320.2859,-602.4924"/>
<text text-anchor="middle" x="242.7859" y="-579.4924" font-family="Times,serif" font-size="20.00" fill="#000000">Content&#45;Type</text>
</g>
<!-- SG_0_Node_6&#45;&gt;SG_0_Node_8 -->
<g id="edge17" class="edge">
<title>SG_0_Node_6&#45;&gt;SG_0_Node_8</title>
<path fill="none" stroke="#000000" d="M400.1478,-795.1663C372.4899,-786.4163 342.7791,-773.0242 320.7859,-752.7056 279.3594,-714.4335 258.1022,-649.7575 248.8107,-612.7454"/>
<polygon fill="#000000" stroke="#000000" points="252.1263,-611.5602 246.4011,-602.6454 245.3174,-613.1847 252.1263,-611.5602"/>
<text text-anchor="middle" x="397.7859" y="-725.7056" font-family="Times,serif" font-size="20.00" fill="#000000">application/pdf</text>
<text text-anchor="middle" x="397.7859" y="-703.7056" font-family="Times,serif" font-size="20.00" fill="#000000">audio/wav</text>
<text text-anchor="middle" x="397.7859" y="-681.7056" font-family="Times,serif" font-size="20.00" fill="#000000">text/html</text>
<text text-anchor="middle" x="397.7859" y="-659.7056" font-family="Times,serif" font-size="20.00" fill="#000000">video/mp4</text>
</g>
<!-- SG_0_Node_9 -->
<g id="node15" class="node">
<title>SG_0_Node_9</title>
<polygon fill="none" stroke="#000000" points="537.2859,-602.4924 432.2859,-602.4924 432.2859,-566.4924 537.2859,-566.4924 537.2859,-602.4924"/>
<text text-anchor="middle" x="484.7859" y="-579.4924" font-family="Times,serif" font-size="20.00" fill="#000000">Location</text>
</g>
<!-- SG_0_Node_6&#45;&gt;SG_0_Node_9 -->
<g id="edge18" class="edge">
<title>SG_0_Node_6&#45;&gt;SG_0_Node_9</title>
<path fill="none" stroke="#000000" d="M478.3469,-792.7722C479.5629,-753.4395 482.4491,-660.0794 483.9086,-612.8702"/>
<polygon fill="#000000" stroke="#000000" points="487.4114,-612.8289 484.2222,-602.7255 480.4148,-612.6126 487.4114,-612.8289"/>
<text text-anchor="middle" x="593.7859" y="-736.7056" font-family="Times,serif" font-size="20.00" fill="#000000">[NA]</text>
<text text-anchor="middle" x="593.7859" y="-714.7056" font-family="Times,serif" font-size="20.00" fill="#000000">application/javascript</text>
<text text-anchor="middle" x="593.7859" y="-692.7056" font-family="Times,serif" font-size="20.00" fill="#000000">empty</text>
<text text-anchor="middle" x="593.7859" y="-670.7056" font-family="Times,serif" font-size="20.00" fill="#000000">image/png</text>
<text text-anchor="middle" x="593.7859" y="-648.7056" font-family="Times,serif" font-size="20.00" fill="#000000">text/css</text>
</g>
<!-- SG_0_Node_26 -->
<g id="node16" class="node">
<title>SG_0_Node_26</title>
<ellipse fill="none" stroke="#000000" cx="732.7859" cy="-584.4924" rx="34.7971" ry="21.4286"/>
<text text-anchor="middle" x="732.7859" y="-579.4924" font-family="Times,serif" font-size="20.00" fill="#000000">0.0</text>
</g>
<!-- SG_0_Node_7&#45;&gt;SG_0_Node_26 -->
<g id="edge9" class="edge">
<title>SG_0_Node_7&#45;&gt;SG_0_Node_26</title>
<path fill="none" stroke="#000000" d="M735.5455,-792.7722C735.0361,-754.3324 733.8431,-664.29 733.2054,-616.1552"/>
<polygon fill="#000000" stroke="#000000" points="736.703,-615.9461 733.0708,-605.9934 729.7036,-616.0389 736.703,-615.9461"/>
<text text-anchor="middle" x="769.7859" y="-692.7056" font-family="Times,serif" font-size="20.00" fill="#000000">nosniff</text>
</g>
<!-- SG_0_Node_10 -->
<g id="node17" class="node">
<title>SG_0_Node_10</title>
<polygon fill="none" stroke="#000000" points="940.2859,-602.4924 785.2859,-602.4924 785.2859,-566.4924 940.2859,-566.4924 940.2859,-602.4924"/>
<text text-anchor="middle" x="862.7859" y="-579.4924" font-family="Times,serif" font-size="20.00" fill="#000000">Content&#45;Type</text>
</g>
<!-- SG_0_Node_7&#45;&gt;SG_0_Node_10 -->
<g id="edge10" class="edge">
<title>SG_0_Node_7&#45;&gt;SG_0_Node_10</title>
<path fill="none" stroke="#000000" d="M765.9819,-792.8941C780.7266,-782.7358 797.6443,-768.8479 808.7859,-752.7056 838.7856,-709.2408 852.8589,-648.1457 858.8583,-612.8004"/>
<polygon fill="#000000" stroke="#000000" points="862.3495,-613.1326 860.4697,-602.7059 855.4371,-612.0291 862.3495,-613.1326"/>
<text text-anchor="middle" x="883.7859" y="-703.7056" font-family="Times,serif" font-size="20.00" fill="#000000">[NA]</text>
<text text-anchor="middle" x="883.7859" y="-681.7056" font-family="Times,serif" font-size="20.00" fill="#000000">empty</text>
</g>
<!-- SG_0_Node_27 -->
<g id="node18" class="node">
<title>SG_0_Node_27</title>
<ellipse fill="none" stroke="#000000" cx="52.7859" cy="-402.066" rx="34.7971" ry="21.4286"/>
<text text-anchor="middle" x="52.7859" y="-397.066" font-family="Times,serif" font-size="20.00" fill="#000000">0.0</text>
</g>
<!-- SG_0_Node_8&#45;&gt;SG_0_Node_27 -->
<g id="edge29" class="edge">
<title>SG_0_Node_8&#45;&gt;SG_0_Node_27</title>
<path fill="none" stroke="#000000" d="M165.0778,-573.4037C134.4656,-565.2197 101.5046,-550.9968 79.7859,-526.2792 57.5388,-500.9604 52.2266,-461.6417 51.5612,-434.0389"/>
<polygon fill="#000000" stroke="#000000" points="55.0598,-433.7097 51.5131,-423.7262 48.0599,-433.7424 55.0598,-433.7097"/>
<text text-anchor="middle" x="156.7859" y="-510.2792" font-family="Times,serif" font-size="20.00" fill="#000000">application/pdf</text>
<text text-anchor="middle" x="156.7859" y="-488.2792" font-family="Times,serif" font-size="20.00" fill="#000000">text/html</text>
<text text-anchor="middle" x="156.7859" y="-466.2792" font-family="Times,serif" font-size="20.00" fill="#000000">video/mp4</text>
</g>
<!-- SG_0_Node_11 -->
<g id="node19" class="node">
<title>SG_0_Node_11</title>
<polygon fill="none" stroke="#000000" points="367.7859,-420.066 105.7859,-420.066 105.7859,-384.066 367.7859,-384.066 367.7859,-420.066"/>
<text text-anchor="middle" x="236.7859" y="-397.066" font-family="Times,serif" font-size="20.00" fill="#000000">X&#45;Content&#45;Type&#45;Options</text>
</g>
<!-- SG_0_Node_8&#45;&gt;SG_0_Node_11 -->
<g id="edge30" class="edge">
<title>SG_0_Node_8&#45;&gt;SG_0_Node_11</title>
<path fill="none" stroke="#000000" d="M242.1886,-566.3337C241.1419,-534.5079 238.9689,-468.4382 237.7212,-430.5029"/>
<polygon fill="#000000" stroke="#000000" points="241.2076,-430.0308 237.3807,-420.1513 234.2114,-430.2609 241.2076,-430.0308"/>
<text text-anchor="middle" x="292.7859" y="-488.2792" font-family="Times,serif" font-size="20.00" fill="#000000">audio/wav</text>
</g>
<!-- SG_0_Node_12 -->
<g id="node20" class="node">
<title>SG_0_Node_12</title>
<polygon fill="none" stroke="#000000" points="562.2859,-420.066 407.2859,-420.066 407.2859,-384.066 562.2859,-384.066 562.2859,-420.066"/>
<text text-anchor="middle" x="484.7859" y="-397.066" font-family="Times,serif" font-size="20.00" fill="#000000">Content&#45;Type</text>
</g>
<!-- SG_0_Node_9&#45;&gt;SG_0_Node_12 -->
<g id="edge19" class="edge">
<title>SG_0_Node_9&#45;&gt;SG_0_Node_12</title>
<path fill="none" stroke="#000000" d="M484.7859,-566.3337C484.7859,-534.5079 484.7859,-468.4382 484.7859,-430.5029"/>
<polygon fill="#000000" stroke="#000000" points="488.286,-430.1512 484.7859,-420.1513 481.286,-430.1513 488.286,-430.1512"/>
<text text-anchor="middle" x="516.7859" y="-488.2792" font-family="Times,serif" font-size="20.00" fill="#000000">empty</text>
</g>
<!-- SG_0_Node_13 -->
<g id="node21" class="node">
<title>SG_0_Node_13</title>
<polygon fill="none" stroke="#000000" points="885.7859,-420.066 587.7859,-420.066 587.7859,-384.066 885.7859,-384.066 885.7859,-420.066"/>
<text text-anchor="middle" x="736.7859" y="-397.066" font-family="Times,serif" font-size="20.00" fill="#000000">Cross&#45;Origin&#45;Opener&#45;Policy</text>
</g>
<!-- SG_0_Node_9&#45;&gt;SG_0_Node_13 -->
<g id="edge20" class="edge">
<title>SG_0_Node_9&#45;&gt;SG_0_Node_13</title>
<path fill="none" stroke="#000000" d="M506.3523,-566.2872C519.7867,-554.8831 537.3845,-539.8294 552.7859,-526.2792 585.6244,-497.3877 589.9115,-485.3016 625.7859,-460.2792 644.9682,-446.8996 667.6089,-434.4936 687.4229,-424.6021"/>
<polygon fill="#000000" stroke="#000000" points="689.1645,-427.6462 696.5991,-420.0978 686.08,-421.3624 689.1645,-427.6462"/>
<text text-anchor="middle" x="740.7859" y="-499.2792" font-family="Times,serif" font-size="20.00" fill="#000000">[NA]</text>
<text text-anchor="middle" x="740.7859" y="-477.2792" font-family="Times,serif" font-size="20.00" fill="#000000">http://172.17.0.1:8000</text>
</g>
<!-- SG_0_Node_28 -->
<g id="node22" class="node">
<title>SG_0_Node_28</title>
<ellipse fill="none" stroke="#000000" cx="938.7859" cy="-402.066" rx="34.7971" ry="21.4286"/>
<text text-anchor="middle" x="938.7859" y="-397.066" font-family="Times,serif" font-size="20.00" fill="#000000">0.0</text>
</g>
<!-- SG_0_Node_10&#45;&gt;SG_0_Node_28 -->
<g id="edge11" class="edge">
<title>SG_0_Node_10&#45;&gt;SG_0_Node_28</title>
<path fill="none" stroke="#000000" d="M860.601,-566.1012C858.4467,-540.8182 857.6068,-494.5633 874.7859,-460.2792 882.0024,-445.8773 894.4053,-433.3253 906.3822,-423.6009"/>
<polygon fill="#000000" stroke="#000000" points="908.7417,-426.2018 914.537,-417.3325 904.4756,-420.652 908.7417,-426.2018"/>
<text text-anchor="middle" x="951.7859" y="-488.2792" font-family="Times,serif" font-size="20.00" fill="#000000">application/pdf</text>
</g>
<!-- SG_0_Node_29 -->
<g id="node23" class="node">
<title>SG_0_Node_29</title>
<ellipse fill="none" stroke="#000000" cx="1050.7859" cy="-402.066" rx="34.7971" ry="21.4286"/>
<text text-anchor="middle" x="1050.7859" y="-397.066" font-family="Times,serif" font-size="20.00" fill="#000000">1.0</text>
</g>
<!-- SG_0_Node_10&#45;&gt;SG_0_Node_29 -->
<g id="edge12" class="edge">
<title>SG_0_Node_10&#45;&gt;SG_0_Node_29</title>
<path fill="none" stroke="#000000" d="M936.7422,-566.4291C974.9522,-555.6126 1016.1779,-541.1148 1028.7859,-526.2792 1050.446,-500.7921 1054.092,-461.506 1053.5086,-433.9568"/>
<polygon fill="#000000" stroke="#000000" points="1056.9934,-433.5136 1053.085,-423.6661 1049.9994,-433.8016 1056.9934,-433.5136"/>
<text text-anchor="middle" x="1098.7859" y="-488.2792" font-family="Times,serif" font-size="20.00" fill="#000000">text/html</text>
</g>
<!-- SG_0_Node_30 -->
<g id="node24" class="node">
<title>SG_0_Node_30</title>
<ellipse fill="none" stroke="#000000" cx="127.7859" cy="-197.6396" rx="34.7971" ry="21.4286"/>
<text text-anchor="middle" x="127.7859" y="-192.6396" font-family="Times,serif" font-size="20.00" fill="#000000">0.0</text>
</g>
<!-- SG_0_Node_11&#45;&gt;SG_0_Node_30 -->
<g id="edge31" class="edge">
<title>SG_0_Node_11&#45;&gt;SG_0_Node_30</title>
<path fill="none" stroke="#000000" d="M206.69,-383.8764C192.3391,-373.7634 176.0942,-359.9653 165.7859,-343.8528 143.2168,-308.5761 134.0183,-260.4235 130.2913,-229.1809"/>
<polygon fill="#000000" stroke="#000000" points="133.7336,-228.4543 129.1883,-218.884 126.7734,-229.2 133.7336,-228.4543"/>
<text text-anchor="middle" x="197.7859" y="-294.8528" font-family="Times,serif" font-size="20.00" fill="#000000">empty</text>
</g>
<!-- SG_0_Node_31 -->
<g id="node25" class="node">
<title>SG_0_Node_31</title>
<ellipse fill="none" stroke="#000000" cx="232.7859" cy="-197.6396" rx="52.1524" ry="21.4286"/>
<text text-anchor="middle" x="232.7859" y="-192.6396" font-family="Times,serif" font-size="20.00" fill="#000000">0.063</text>
</g>
<!-- SG_0_Node_11&#45;&gt;SG_0_Node_31 -->
<g id="edge32" class="edge">
<title>SG_0_Node_11&#45;&gt;SG_0_Node_31</title>
<path fill="none" stroke="#000000" d="M236.4309,-383.9245C235.7505,-349.1528 234.2552,-272.7321 233.4064,-229.3511"/>
<polygon fill="#000000" stroke="#000000" points="236.9004,-229.0089 233.2054,-219.0793 229.9018,-229.1459 236.9004,-229.0089"/>
<text text-anchor="middle" x="269.7859" y="-305.8528" font-family="Times,serif" font-size="20.00" fill="#000000">[NA]</text>
<text text-anchor="middle" x="269.7859" y="-283.8528" font-family="Times,serif" font-size="20.00" fill="#000000">nosniff</text>
</g>
<!-- SG_0_Node_32 -->
<g id="node26" class="node">
<title>SG_0_Node_32</title>
<ellipse fill="none" stroke="#000000" cx="337.7859" cy="-197.6396" rx="34.7971" ry="21.4286"/>
<text text-anchor="middle" x="337.7859" y="-192.6396" font-family="Times,serif" font-size="20.00" fill="#000000">0.0</text>
</g>
<!-- SG_0_Node_12&#45;&gt;SG_0_Node_32 -->
<g id="edge27" class="edge">
<title>SG_0_Node_12&#45;&gt;SG_0_Node_32</title>
<path fill="none" stroke="#000000" d="M407.0547,-389.5986C380.5767,-381.2279 353.6766,-367.2371 337.7859,-343.8528 314.7129,-309.8995 320.791,-260.4955 328.3974,-228.7112"/>
<polygon fill="#000000" stroke="#000000" points="331.8826,-229.2131 330.9957,-218.6554 325.1052,-227.4618 331.8826,-229.2131"/>
<text text-anchor="middle" x="448.7859" y="-327.8528" font-family="Times,serif" font-size="20.00" fill="#000000">[NA]</text>
<text text-anchor="middle" x="448.7859" y="-305.8528" font-family="Times,serif" font-size="20.00" fill="#000000">application/javascript</text>
<text text-anchor="middle" x="448.7859" y="-283.8528" font-family="Times,serif" font-size="20.00" fill="#000000">empty</text>
<text text-anchor="middle" x="448.7859" y="-261.8528" font-family="Times,serif" font-size="20.00" fill="#000000">text/css</text>
</g>
<!-- SG_0_Node_33 -->
<g id="node27" class="node">
<title>SG_0_Node_33</title>
<ellipse fill="none" stroke="#000000" cx="574.7859" cy="-197.6396" rx="52.1524" ry="21.4286"/>
<text text-anchor="middle" x="574.7859" y="-192.6396" font-family="Times,serif" font-size="20.00" fill="#000000">0.063</text>
</g>
<!-- SG_0_Node_12&#45;&gt;SG_0_Node_33 -->
<g id="edge28" class="edge">
<title>SG_0_Node_12&#45;&gt;SG_0_Node_33</title>
<path fill="none" stroke="#000000" d="M522.0607,-383.8888C537.6879,-374.2489 554.3823,-360.8464 563.7859,-343.8528 583.4108,-308.3879 582.8786,-260.4761 579.6718,-229.3208"/>
<polygon fill="#000000" stroke="#000000" points="583.107,-228.5661 578.4546,-219.0474 576.1556,-229.3898 583.107,-228.5661"/>
<text text-anchor="middle" x="635.2859" y="-294.8528" font-family="Times,serif" font-size="20.00" fill="#000000">image/png</text>
</g>
<!-- SG_0_Node_16 -->
<g id="node28" class="node">
<title>SG_0_Node_16</title>
<polygon fill="none" stroke="#000000" points="836.2859,-215.6396 645.2859,-215.6396 645.2859,-179.6396 836.2859,-179.6396 836.2859,-215.6396"/>
<text text-anchor="middle" x="740.7859" y="-192.6396" font-family="Times,serif" font-size="20.00" fill="#000000">X&#45;Frame&#45;Options</text>
</g>
<!-- SG_0_Node_13&#45;&gt;SG_0_Node_16 -->
<g id="edge21" class="edge">
<title>SG_0_Node_13&#45;&gt;SG_0_Node_16</title>
<path fill="none" stroke="#000000" d="M737.1409,-383.9245C737.8391,-348.2376 739.3958,-268.6807 740.231,-225.996"/>
<polygon fill="#000000" stroke="#000000" points="743.7353,-225.807 740.4317,-215.7404 736.7366,-225.67 743.7353,-225.807"/>
<text text-anchor="middle" x="770.7859" y="-294.8528" font-family="Times,serif" font-size="20.00" fill="#000000">empty</text>
</g>
<!-- SG_0_Node_17 -->
<g id="node29" class="node">
<title>SG_0_Node_17</title>
<polygon fill="none" stroke="#000000" points="1116.7859,-215.6396 854.7859,-215.6396 854.7859,-179.6396 1116.7859,-179.6396 1116.7859,-215.6396"/>
<text text-anchor="middle" x="985.7859" y="-192.6396" font-family="Times,serif" font-size="20.00" fill="#000000">X&#45;Content&#45;Type&#45;Options</text>
</g>
<!-- SG_0_Node_13&#45;&gt;SG_0_Node_17 -->
<g id="edge22" class="edge">
<title>SG_0_Node_13&#45;&gt;SG_0_Node_17</title>
<path fill="none" stroke="#000000" d="M758.883,-383.9245C803.6432,-347.1769 905.0628,-263.9124 955.7613,-222.2895"/>
<polygon fill="#000000" stroke="#000000" points="958.2303,-224.791 963.7383,-215.7404 953.7885,-219.3807 958.2303,-224.791"/>
<text text-anchor="middle" x="973.7859" y="-305.8528" font-family="Times,serif" font-size="20.00" fill="#000000">[NA]</text>
<text text-anchor="middle" x="973.7859" y="-283.8528" font-family="Times,serif" font-size="20.00" fill="#000000">same&#45;origin</text>
</g>
<!-- SG_0_Node_34 -->
<g id="node30" class="node">
<title>SG_0_Node_34</title>
<ellipse fill="none" stroke="#000000" cx="647.7859" cy="-37.2132" rx="34.7971" ry="21.4286"/>
<text text-anchor="middle" x="647.7859" y="-32.2132" font-family="Times,serif" font-size="20.00" fill="#000000">0.0</text>
</g>
<!-- SG_0_Node_16&#45;&gt;SG_0_Node_34 -->
<g id="edge25" class="edge">
<title>SG_0_Node_16&#45;&gt;SG_0_Node_34</title>
<path fill="none" stroke="#000000" d="M723.1825,-179.5801C713.1101,-168.5951 700.7379,-153.9268 691.7859,-139.4264 677.7439,-116.6812 666.0278,-88.6651 658.2251,-67.7196"/>
<polygon fill="#000000" stroke="#000000" points="661.42,-66.2635 654.7161,-58.0594 654.8406,-68.6535 661.42,-66.2635"/>
<text text-anchor="middle" x="716.2859" y="-112.4264" font-family="Times,serif" font-size="20.00" fill="#000000">deny</text>
</g>
<!-- SG_0_Node_35 -->
<g id="node31" class="node">
<title>SG_0_Node_35</title>
<ellipse fill="none" stroke="#000000" cx="752.7859" cy="-37.2132" rx="52.1524" ry="21.4286"/>
<text text-anchor="middle" x="752.7859" y="-32.2132" font-family="Times,serif" font-size="20.00" fill="#000000">0.125</text>
</g>
<!-- SG_0_Node_16&#45;&gt;SG_0_Node_35 -->
<g id="edge26" class="edge">
<title>SG_0_Node_16&#45;&gt;SG_0_Node_35</title>
<path fill="none" stroke="#000000" d="M742.1391,-179.5485C744.1524,-152.6336 747.9641,-101.6751 750.4383,-68.5978"/>
<polygon fill="#000000" stroke="#000000" points="753.9349,-68.7731 751.1906,-58.5399 746.9544,-68.2509 753.9349,-68.7731"/>
<text text-anchor="middle" x="779.7859" y="-123.4264" font-family="Times,serif" font-size="20.00" fill="#000000">[NA]</text>
<text text-anchor="middle" x="779.7859" y="-101.4264" font-family="Times,serif" font-size="20.00" fill="#000000">empty</text>
</g>
<!-- SG_0_Node_36 -->
<g id="node32" class="node">
<title>SG_0_Node_36</title>
<ellipse fill="none" stroke="#000000" cx="881.7859" cy="-37.2132" rx="52.1524" ry="21.4286"/>
<text text-anchor="middle" x="881.7859" y="-32.2132" font-family="Times,serif" font-size="20.00" fill="#000000">0.125</text>
</g>
<!-- SG_0_Node_17&#45;&gt;SG_0_Node_36 -->
<g id="edge23" class="edge">
<title>SG_0_Node_17&#45;&gt;SG_0_Node_36</title>
<path fill="none" stroke="#000000" d="M961.9231,-179.4483C949.2858,-168.8589 934.2584,-154.6236 923.7859,-139.4264 908.7239,-117.5692 897.6745,-89.4813 890.7001,-68.2823"/>
<polygon fill="#000000" stroke="#000000" points="893.955,-66.9665 887.6039,-58.4863 887.2804,-69.0762 893.955,-66.9665"/>
<text text-anchor="middle" x="955.7859" y="-112.4264" font-family="Times,serif" font-size="20.00" fill="#000000">empty</text>
</g>
<!-- SG_0_Node_37 -->
<g id="node33" class="node">
<title>SG_0_Node_37</title>
<ellipse fill="none" stroke="#000000" cx="1004.7859" cy="-37.2132" rx="52.1524" ry="21.4286"/>
<text text-anchor="middle" x="1004.7859" y="-32.2132" font-family="Times,serif" font-size="20.00" fill="#000000">0.375</text>
</g>
<!-- SG_0_Node_17&#45;&gt;SG_0_Node_37 -->
<g id="edge24" class="edge">
<title>SG_0_Node_17&#45;&gt;SG_0_Node_37</title>
<path fill="none" stroke="#000000" d="M987.9285,-179.5485C991.1161,-152.6336 997.1514,-101.6751 1001.0689,-68.5978"/>
<polygon fill="#000000" stroke="#000000" points="1004.5596,-68.8822 1002.2601,-58.5399 997.6081,-68.0588 1004.5596,-68.8822"/>
<text text-anchor="middle" x="1032.7859" y="-123.4264" font-family="Times,serif" font-size="20.00" fill="#000000">[NA]</text>
<text text-anchor="middle" x="1032.7859" y="-101.4264" font-family="Times,serif" font-size="20.00" fill="#000000">nosniff</text>
</g>
</g>
</svg>
