<?xml version="1.0" encoding="UTF-8" standalone="no"?>
<!DOCTYPE svg PUBLIC "-//W3C//DTD SVG 1.1//EN"
 "http://www.w3.org/Graphics/SVG/1.1/DTD/svg11.dtd">
<!-- Generated by graphviz version 2.40.1 (20161225.0304)
 -->
<!-- Title: G Pages: 1 -->
<svg width="2254pt" height="1377pt"
 viewBox="0.00 0.00 2254.00 1376.56" xmlns="http://www.w3.org/2000/svg" xmlns:xlink="http://www.w3.org/1999/xlink">
<g id="graph0" class="graph" transform="scale(1 1) rotate(0) translate(4 1372.5584)">
<title>G</title>
<polygon fill="#ffffff" stroke="transparent" points="-4,4 -4,-1372.5584 2250,-1372.5584 2250,4 -4,4"/>
<g id="clust1" class="cluster">
<title>cluster_0</title>
<polygon fill="none" stroke="#000000" points="8,-8 8,-1360.5584 454,-1360.5584 454,-8 8,-8"/>
<text text-anchor="middle" x="231" y="-1324.5584" font-family="Times,serif" font-size="40.00" fill="#000000">Tree 0, Class 1</text>
</g>
<g id="clust9" class="cluster">
<title>cluster_1</title>
<polygon fill="none" stroke="#000000" points="462,-8 462,-1360.5584 1115,-1360.5584 1115,-8 462,-8"/>
<text text-anchor="middle" x="788.5" y="-1324.5584" font-family="Times,serif" font-size="40.00" fill="#000000">Tree 0, Class 2</text>
</g>
<g id="clust17" class="cluster">
<title>cluster_2</title>
<polygon fill="none" stroke="#000000" points="1123,-8 1123,-1360.5584 2230,-1360.5584 2230,-8 1123,-8"/>
<text text-anchor="middle" x="1676.5" y="-1324.5584" font-family="Times,serif" font-size="40.00" fill="#000000">Tree 0, Class js&#45;NaN</text>
</g>
<!-- SG_0_Node_0 -->
<g id="node1" class="node">
<title>SG_0_Node_0</title>
<polygon fill="none" stroke="#000000" points="203,-1300.5584 61,-1300.5584 61,-1264.5584 203,-1264.5584 203,-1300.5584"/>
<text text-anchor="middle" x="132" y="-1277.5584" font-family="Times,serif" font-size="20.00" fill="#000000">Status&#45;Code</text>
</g>
<!-- SG_0_Node_6 -->
<g id="node2" class="node">
<title>SG_0_Node_6</title>
<ellipse fill="none" stroke="#000000" cx="51" cy="-1125.3452" rx="34.7971" ry="21.4286"/>
<text text-anchor="middle" x="51" y="-1120.3452" font-family="Times,serif" font-size="20.00" fill="#000000">0.0</text>
</g>
<!-- SG_0_Node_0&#45;&gt;SG_0_Node_6 -->
<g id="edge1" class="edge">
<title>SG_0_Node_0&#45;&gt;SG_0_Node_6</title>
<path fill="none" stroke="#000000" d="M89.8484,-1264.4374C74.7712,-1255.6465 59.4343,-1243.4803 51,-1227.5584 39.5591,-1205.9608 40.4288,-1178.0166 43.6743,-1156.8064"/>
<polygon fill="#000000" stroke="#000000" points="47.1673,-1157.1545 45.4748,-1146.6957 40.2758,-1155.9272 47.1673,-1157.1545"/>
<text text-anchor="middle" x="97" y="-1211.5584" font-family="Times,serif" font-size="20.00" fill="#000000">[NA]</text>
<text text-anchor="middle" x="97" y="-1189.5584" font-family="Times,serif" font-size="20.00" fill="#000000">62 levels</text>
</g>
<!-- SG_0_Node_1 -->
<g id="node3" class="node">
<title>SG_0_Node_1</title>
<polygon fill="none" stroke="#000000" points="209.5,-1143.3452 144.5,-1143.3452 144.5,-1107.3452 209.5,-1107.3452 209.5,-1143.3452"/>
<text text-anchor="middle" x="177" y="-1120.3452" font-family="Times,serif" font-size="20.00" fill="#000000">body</text>
</g>
<!-- SG_0_Node_0&#45;&gt;SG_0_Node_1 -->
<g id="edge2" class="edge">
<title>SG_0_Node_0&#45;&gt;SG_0_Node_1</title>
<path fill="none" stroke="#000000" d="M137.1621,-1264.5241C144.9531,-1237.3053 159.7813,-1185.5008 168.985,-1153.3467"/>
<polygon fill="#000000" stroke="#000000" points="172.3725,-1154.2306 171.7595,-1143.6535 165.6427,-1152.3043 172.3725,-1154.2306"/>
<text text-anchor="middle" x="179.5" y="-1200.5584" font-family="Times,serif" font-size="20.00" fill="#000000">200</text>
</g>
<!-- SG_0_Node_7 -->
<g id="node4" class="node">
<title>SG_0_Node_7</title>
<ellipse fill="none" stroke="#000000" cx="51" cy="-766.9188" rx="34.7971" ry="21.4286"/>
<text text-anchor="middle" x="51" y="-761.9188" font-family="Times,serif" font-size="20.00" fill="#000000">0.0</text>
</g>
<!-- SG_0_Node_1&#45;&gt;SG_0_Node_7 -->
<g id="edge3" class="edge">
<title>SG_0_Node_1&#45;&gt;SG_0_Node_7</title>
<path fill="none" stroke="#000000" d="M144.2939,-1118.4375C117.1978,-1110.8304 80.2778,-1095.6849 62,-1067.132 7.9986,-982.7732 28.8286,-856.0311 42.6061,-797.9712"/>
<polygon fill="#000000" stroke="#000000" points="46.0799,-798.5024 45.0769,-787.9551 39.2836,-796.8258 46.0799,-798.5024"/>
<text text-anchor="middle" x="108" y="-952.132" font-family="Times,serif" font-size="20.00" fill="#000000">[NA]</text>
<text text-anchor="middle" x="108" y="-930.132" font-family="Times,serif" font-size="20.00" fill="#000000">11 levels</text>
</g>
<!-- SG_0_Node_2 -->
<g id="node5" class="node">
<title>SG_0_Node_2</title>
<polygon fill="none" stroke="#000000" points="420.5,-784.9188 103.5,-784.9188 103.5,-748.9188 420.5,-748.9188 420.5,-784.9188"/>
<text text-anchor="middle" x="262" y="-761.9188" font-family="Times,serif" font-size="20.00" fill="#000000">Cross&#45;Origin&#45;Resource&#45;Policy</text>
</g>
<!-- SG_0_Node_1&#45;&gt;SG_0_Node_2 -->
<g id="edge4" class="edge">
<title>SG_0_Node_1&#45;&gt;SG_0_Node_2</title>
<path fill="none" stroke="#000000" d="M172.7889,-1107.1467C162.4792,-1058.2937 140.2166,-921.4588 189,-825.132 195.9026,-811.5024 207.6173,-800.0182 219.6654,-790.947"/>
<polygon fill="#000000" stroke="#000000" points="221.8565,-793.6844 228.0045,-785.0558 217.8175,-787.9672 221.8565,-793.6844"/>
<text text-anchor="middle" x="323.5" y="-941.132" font-family="Times,serif" font-size="20.00" fill="#000000">ecocnt_audio=duration=1</text>
</g>
<!-- SG_0_Node_8 -->
<g id="node6" class="node">
<title>SG_0_Node_8</title>
<ellipse fill="none" stroke="#000000" cx="96" cy="-606.4924" rx="34.7971" ry="21.4286"/>
<text text-anchor="middle" x="96" y="-601.4924" font-family="Times,serif" font-size="20.00" fill="#000000">0.0</text>
</g>
<!-- SG_0_Node_2&#45;&gt;SG_0_Node_8 -->
<g id="edge5" class="edge">
<title>SG_0_Node_2&#45;&gt;SG_0_Node_8</title>
<path fill="none" stroke="#000000" d="M172.8313,-748.8376C150.3069,-740.2028 128.2224,-727.4693 113,-708.7056 97.0269,-689.0166 93.4888,-660.0268 93.5352,-637.9446"/>
<polygon fill="#000000" stroke="#000000" points="97.0397,-637.8197 93.8071,-627.7301 90.0422,-637.6334 97.0397,-637.8197"/>
<text text-anchor="middle" x="174" y="-681.7056" font-family="Times,serif" font-size="20.00" fill="#000000">same&#45;origin</text>
</g>
<!-- SG_0_Node_3 -->
<g id="node7" class="node">
<title>SG_0_Node_3</title>
<polygon fill="none" stroke="#000000" points="303.5,-624.4924 148.5,-624.4924 148.5,-588.4924 303.5,-588.4924 303.5,-624.4924"/>
<text text-anchor="middle" x="226" y="-601.4924" font-family="Times,serif" font-size="20.00" fill="#000000">Content&#45;Type</text>
</g>
<!-- SG_0_Node_2&#45;&gt;SG_0_Node_3 -->
<g id="edge6" class="edge">
<title>SG_0_Node_2&#45;&gt;SG_0_Node_3</title>
<path fill="none" stroke="#000000" d="M257.9403,-748.8277C251.7014,-721.0255 239.7055,-667.5683 232.3221,-634.6655"/>
<polygon fill="#000000" stroke="#000000" points="235.7048,-633.7545 230.1001,-624.7636 228.8746,-635.2873 235.7048,-633.7545"/>
<text text-anchor="middle" x="280" y="-692.7056" font-family="Times,serif" font-size="20.00" fill="#000000">[NA]</text>
<text text-anchor="middle" x="280" y="-670.7056" font-family="Times,serif" font-size="20.00" fill="#000000">empty</text>
</g>
<!-- SG_0_Node_4 -->
<g id="node8" class="node">
<title>SG_0_Node_4</title>
<polygon fill="none" stroke="#000000" points="278,-354.066 16,-354.066 16,-318.066 278,-318.066 278,-354.066"/>
<text text-anchor="middle" x="147" y="-331.066" font-family="Times,serif" font-size="20.00" fill="#000000">X&#45;Content&#45;Type&#45;Options</text>
</g>
<!-- SG_0_Node_3&#45;&gt;SG_0_Node_4 -->
<g id="edge7" class="edge">
<title>SG_0_Node_3&#45;&gt;SG_0_Node_4</title>
<path fill="none" stroke="#000000" d="M158.0375,-588.3942C110.718,-575.1095 54.8947,-557.7881 48,-548.2792 7.8225,-492.868 14.0139,-453.6896 48,-394.2792 56.6487,-379.1607 70.9224,-367.5817 85.9753,-358.887"/>
<polygon fill="#000000" stroke="#000000" points="87.7394,-361.9125 94.8916,-354.0961 84.4261,-355.7462 87.7394,-361.9125"/>
<text text-anchor="middle" x="125" y="-477.2792" font-family="Times,serif" font-size="20.00" fill="#000000">application/pdf</text>
<text text-anchor="middle" x="125" y="-455.2792" font-family="Times,serif" font-size="20.00" fill="#000000">text/html</text>
</g>
<!-- SG_0_Node_9 -->
<g id="node9" class="node">
<title>SG_0_Node_9</title>
<ellipse fill="none" stroke="#000000" cx="331" cy="-336.066" rx="34.7971" ry="21.4286"/>
<text text-anchor="middle" x="331" y="-331.066" font-family="Times,serif" font-size="20.00" fill="#000000">1.0</text>
</g>
<!-- SG_0_Node_3&#45;&gt;SG_0_Node_9 -->
<g id="edge8" class="edge">
<title>SG_0_Node_3&#45;&gt;SG_0_Node_9</title>
<path fill="none" stroke="#000000" d="M221.5828,-588.4291C213.1733,-549.7096 198.8255,-457.1388 236,-394.2792 242.8671,-382.6674 270.4539,-366.4273 294.1431,-354.0497"/>
<polygon fill="#000000" stroke="#000000" points="296.0138,-357.0237 303.3132,-349.3446 292.8182,-350.7957 296.0138,-357.0237"/>
<text text-anchor="middle" x="347" y="-532.2792" font-family="Times,serif" font-size="20.00" fill="#000000">[NA]</text>
<text text-anchor="middle" x="347" y="-510.2792" font-family="Times,serif" font-size="20.00" fill="#000000">application/javascript</text>
<text text-anchor="middle" x="347" y="-488.2792" font-family="Times,serif" font-size="20.00" fill="#000000">audio/wav</text>
<text text-anchor="middle" x="347" y="-466.2792" font-family="Times,serif" font-size="20.00" fill="#000000">empty</text>
<text text-anchor="middle" x="347" y="-444.2792" font-family="Times,serif" font-size="20.00" fill="#000000">image/png</text>
<text text-anchor="middle" x="347" y="-422.2792" font-family="Times,serif" font-size="20.00" fill="#000000">text/css</text>
<text text-anchor="middle" x="347" y="-400.2792" font-family="Times,serif" font-size="20.00" fill="#000000">video/mp4</text>
</g>
<!-- SG_0_Node_10 -->
<g id="node10" class="node">
<title>SG_0_Node_10</title>
<ellipse fill="none" stroke="#000000" cx="81" cy="-175.6396" rx="34.7971" ry="21.4286"/>
<text text-anchor="middle" x="81" y="-170.6396" font-family="Times,serif" font-size="20.00" fill="#000000">0.0</text>
</g>
<!-- SG_0_Node_4&#45;&gt;SG_0_Node_10 -->
<g id="edge9" class="edge">
<title>SG_0_Node_4&#45;&gt;SG_0_Node_10</title>
<path fill="none" stroke="#000000" d="M126.1348,-317.915C115.3653,-307.3377 103.0409,-293.1012 96,-277.8528 85.7557,-255.6668 82.167,-228.1433 81.0512,-207.2484"/>
<polygon fill="#000000" stroke="#000000" points="84.539,-206.8527 80.6709,-196.9893 77.5438,-207.1121 84.539,-206.8527"/>
<text text-anchor="middle" x="131" y="-250.8528" font-family="Times,serif" font-size="20.00" fill="#000000">nosniff</text>
</g>
<!-- SG_0_Node_5 -->
<g id="node11" class="node">
<title>SG_0_Node_5</title>
<polygon fill="none" stroke="#000000" points="288.5,-193.6396 133.5,-193.6396 133.5,-157.6396 288.5,-157.6396 288.5,-193.6396"/>
<text text-anchor="middle" x="211" y="-170.6396" font-family="Times,serif" font-size="20.00" fill="#000000">Content&#45;Type</text>
</g>
<!-- SG_0_Node_4&#45;&gt;SG_0_Node_5 -->
<g id="edge10" class="edge">
<title>SG_0_Node_4&#45;&gt;SG_0_Node_5</title>
<path fill="none" stroke="#000000" d="M154.2172,-317.9749C165.3566,-290.0523 186.8194,-236.2521 199.9307,-203.3865"/>
<polygon fill="#000000" stroke="#000000" points="203.2564,-204.4958 203.711,-193.9107 196.7547,-201.902 203.2564,-204.4958"/>
<text text-anchor="middle" x="219" y="-261.8528" font-family="Times,serif" font-size="20.00" fill="#000000">[NA]</text>
<text text-anchor="middle" x="219" y="-239.8528" font-family="Times,serif" font-size="20.00" fill="#000000">empty</text>
</g>
<!-- SG_0_Node_11 -->
<g id="node12" class="node">
<title>SG_0_Node_11</title>
<ellipse fill="none" stroke="#000000" cx="106" cy="-37.2132" rx="34.7971" ry="21.4286"/>
<text text-anchor="middle" x="106" y="-32.2132" font-family="Times,serif" font-size="20.00" fill="#000000">0.0</text>
</g>
<!-- SG_0_Node_5&#45;&gt;SG_0_Node_11 -->
<g id="edge11" class="edge">
<title>SG_0_Node_5&#45;&gt;SG_0_Node_11</title>
<path fill="none" stroke="#000000" d="M154.1612,-157.5419C135.4656,-148.5805 116.7367,-135.6554 106,-117.4264 97.444,-102.8998 96.9802,-84.174 98.8685,-68.4693"/>
<polygon fill="#000000" stroke="#000000" points="102.3923,-68.5892 100.481,-58.1682 95.4765,-67.5065 102.3923,-68.5892"/>
<text text-anchor="middle" x="183" y="-101.4264" font-family="Times,serif" font-size="20.00" fill="#000000">application/pdf</text>
</g>
<!-- SG_0_Node_12 -->
<g id="node13" class="node">
<title>SG_0_Node_12</title>
<ellipse fill="none" stroke="#000000" cx="296" cy="-37.2132" rx="34.7971" ry="21.4286"/>
<text text-anchor="middle" x="296" y="-32.2132" font-family="Times,serif" font-size="20.00" fill="#000000">1.0</text>
</g>
<!-- SG_0_Node_5&#45;&gt;SG_0_Node_12 -->
<g id="edge12" class="edge">
<title>SG_0_Node_5&#45;&gt;SG_0_Node_12</title>
<path fill="none" stroke="#000000" d="M230.7972,-157.4014C241.6776,-146.5833 254.7933,-132.1416 264,-117.4264 273.5895,-102.0994 281.245,-83.4142 286.6608,-67.9351"/>
<polygon fill="#000000" stroke="#000000" points="290.0329,-68.8875 289.8942,-58.2936 283.3962,-66.6618 290.0329,-68.8875"/>
<text text-anchor="middle" x="322" y="-101.4264" font-family="Times,serif" font-size="20.00" fill="#000000">text/html</text>
</g>
<!-- SG_1_Node_0 -->
<g id="node14" class="node">
<title>SG_1_Node_0</title>
<polygon fill="none" stroke="#000000" points="649,-1300.5584 507,-1300.5584 507,-1264.5584 649,-1264.5584 649,-1300.5584"/>
<text text-anchor="middle" x="578" y="-1277.5584" font-family="Times,serif" font-size="20.00" fill="#000000">Status&#45;Code</text>
</g>
<!-- SG_1_Node_6 -->
<g id="node15" class="node">
<title>SG_1_Node_6</title>
<ellipse fill="none" stroke="#000000" cx="505" cy="-1125.3452" rx="34.7971" ry="21.4286"/>
<text text-anchor="middle" x="505" y="-1120.3452" font-family="Times,serif" font-size="20.00" fill="#000000">0.0</text>
</g>
<!-- SG_1_Node_0&#45;&gt;SG_1_Node_6 -->
<g id="edge13" class="edge">
<title>SG_1_Node_0&#45;&gt;SG_1_Node_6</title>
<path fill="none" stroke="#000000" d="M535.3414,-1264.5512C520.0798,-1255.776 504.5513,-1243.5908 496,-1227.5584 484.3284,-1205.6761 488.0131,-1177.3651 493.8036,-1156.0891"/>
<polygon fill="#000000" stroke="#000000" points="497.2287,-1156.853 496.7574,-1146.2687 490.5254,-1154.8368 497.2287,-1156.853"/>
<text text-anchor="middle" x="542" y="-1211.5584" font-family="Times,serif" font-size="20.00" fill="#000000">[NA]</text>
<text text-anchor="middle" x="542" y="-1189.5584" font-family="Times,serif" font-size="20.00" fill="#000000">62 levels</text>
</g>
<!-- SG_1_Node_1 -->
<g id="node16" class="node">
<title>SG_1_Node_1</title>
<polygon fill="none" stroke="#000000" points="648.5,-1143.3452 583.5,-1143.3452 583.5,-1107.3452 648.5,-1107.3452 648.5,-1143.3452"/>
<text text-anchor="middle" x="616" y="-1120.3452" font-family="Times,serif" font-size="20.00" fill="#000000">body</text>
</g>
<!-- SG_1_Node_0&#45;&gt;SG_1_Node_1 -->
<g id="edge14" class="edge">
<title>SG_1_Node_0&#45;&gt;SG_1_Node_1</title>
<path fill="none" stroke="#000000" d="M582.7521,-1264.2464C585.5029,-1253.5591 589.0029,-1239.8091 592,-1227.5584 598.1233,-1202.5297 604.802,-1173.9763 609.5557,-1153.4222"/>
<polygon fill="#000000" stroke="#000000" points="613.0155,-1153.9948 611.853,-1143.464 606.1946,-1152.4213 613.0155,-1153.9948"/>
<text text-anchor="middle" x="621.5" y="-1200.5584" font-family="Times,serif" font-size="20.00" fill="#000000">200</text>
</g>
<!-- SG_1_Node_7 -->
<g id="node17" class="node">
<title>SG_1_Node_7</title>
<ellipse fill="none" stroke="#000000" cx="505" cy="-766.9188" rx="34.7971" ry="21.4286"/>
<text text-anchor="middle" x="505" y="-761.9188" font-family="Times,serif" font-size="20.00" fill="#000000">0.0</text>
</g>
<!-- SG_1_Node_1&#45;&gt;SG_1_Node_7 -->
<g id="edge15" class="edge">
<title>SG_1_Node_1&#45;&gt;SG_1_Node_7</title>
<path fill="none" stroke="#000000" d="M583.3041,-1113.548C552.1422,-1101.5622 508.5872,-1082.6104 499,-1067.132 446.1732,-981.8438 476.1611,-855.1305 494.3066,-797.4712"/>
<polygon fill="#000000" stroke="#000000" points="497.6691,-798.4482 497.4264,-787.8561 491.0109,-796.2877 497.6691,-798.4482"/>
<text text-anchor="middle" x="545" y="-952.132" font-family="Times,serif" font-size="20.00" fill="#000000">[NA]</text>
<text text-anchor="middle" x="545" y="-930.132" font-family="Times,serif" font-size="20.00" fill="#000000">11 levels</text>
</g>
<!-- SG_1_Node_2 -->
<g id="node18" class="node">
<title>SG_1_Node_2</title>
<polygon fill="none" stroke="#000000" points="874.5,-784.9188 557.5,-784.9188 557.5,-748.9188 874.5,-748.9188 874.5,-784.9188"/>
<text text-anchor="middle" x="716" y="-761.9188" font-family="Times,serif" font-size="20.00" fill="#000000">Cross&#45;Origin&#45;Resource&#45;Policy</text>
</g>
<!-- SG_1_Node_1&#45;&gt;SG_1_Node_2 -->
<g id="edge16" class="edge">
<title>SG_1_Node_1&#45;&gt;SG_1_Node_2</title>
<path fill="none" stroke="#000000" d="M611.4073,-1107.2554C599.9824,-1058.0969 574.8634,-919.427 628,-825.132 636.192,-810.5947 649.6964,-799.0323 663.6953,-790.1683"/>
<polygon fill="#000000" stroke="#000000" points="665.6106,-793.1019 672.4325,-784.9955 662.0444,-787.0784 665.6106,-793.1019"/>
<text text-anchor="middle" x="873.5" y="-941.132" font-family="Times,serif" font-size="20.00" fill="#000000">ecocnt_vid=width=100,height=100,duration=2</text>
</g>
<!-- SG_1_Node_8 -->
<g id="node19" class="node">
<title>SG_1_Node_8</title>
<ellipse fill="none" stroke="#000000" cx="598" cy="-606.4924" rx="34.7971" ry="21.4286"/>
<text text-anchor="middle" x="598" y="-601.4924" font-family="Times,serif" font-size="20.00" fill="#000000">0.0</text>
</g>
<!-- SG_1_Node_2&#45;&gt;SG_1_Node_8 -->
<g id="edge17" class="edge">
<title>SG_1_Node_2&#45;&gt;SG_1_Node_8</title>
<path fill="none" stroke="#000000" d="M655.1955,-748.9002C635.6156,-740.0005 615.9185,-727.0952 604,-708.7056 590.4574,-687.8103 589.9389,-659.1787 592.2461,-637.5333"/>
<polygon fill="#000000" stroke="#000000" points="595.7274,-637.9041 593.561,-627.5331 588.7871,-636.9915 595.7274,-637.9041"/>
<text text-anchor="middle" x="665" y="-692.7056" font-family="Times,serif" font-size="20.00" fill="#000000">[NA]</text>
<text text-anchor="middle" x="665" y="-670.7056" font-family="Times,serif" font-size="20.00" fill="#000000">same&#45;origin</text>
</g>
<!-- SG_1_Node_3 -->
<g id="node20" class="node">
<title>SG_1_Node_3</title>
<polygon fill="none" stroke="#000000" points="833.5,-624.4924 678.5,-624.4924 678.5,-588.4924 833.5,-588.4924 833.5,-624.4924"/>
<text text-anchor="middle" x="756" y="-601.4924" font-family="Times,serif" font-size="20.00" fill="#000000">Content&#45;Type</text>
</g>
<!-- SG_1_Node_2&#45;&gt;SG_1_Node_3 -->
<g id="edge18" class="edge">
<title>SG_1_Node_2&#45;&gt;SG_1_Node_3</title>
<path fill="none" stroke="#000000" d="M720.5108,-748.8277C727.4428,-721.0255 740.7716,-667.5683 748.9755,-634.6655"/>
<polygon fill="#000000" stroke="#000000" points="752.421,-635.3133 751.4444,-624.7636 745.629,-633.6197 752.421,-635.3133"/>
<text text-anchor="middle" x="773" y="-681.7056" font-family="Times,serif" font-size="20.00" fill="#000000">empty</text>
</g>
<!-- SG_1_Node_4 -->
<g id="node21" class="node">
<title>SG_1_Node_4</title>
<polygon fill="none" stroke="#000000" points="737,-354.066 475,-354.066 475,-318.066 737,-318.066 737,-354.066"/>
<text text-anchor="middle" x="606" y="-331.066" font-family="Times,serif" font-size="20.00" fill="#000000">X&#45;Content&#45;Type&#45;Options</text>
</g>
<!-- SG_1_Node_3&#45;&gt;SG_1_Node_4 -->
<g id="edge19" class="edge">
<title>SG_1_Node_3&#45;&gt;SG_1_Node_4</title>
<path fill="none" stroke="#000000" d="M688.5742,-588.4499C653.599,-577.5846 616.099,-563.0313 606,-548.2792 567.7543,-492.4116 584.4173,-407.3994 596.8654,-363.8734"/>
<polygon fill="#000000" stroke="#000000" points="600.2339,-364.8251 599.7475,-354.2414 593.5277,-362.8184 600.2339,-364.8251"/>
<text text-anchor="middle" x="683" y="-477.2792" font-family="Times,serif" font-size="20.00" fill="#000000">application/pdf</text>
<text text-anchor="middle" x="683" y="-455.2792" font-family="Times,serif" font-size="20.00" fill="#000000">text/html</text>
</g>
<!-- SG_1_Node_9 -->
<g id="node22" class="node">
<title>SG_1_Node_9</title>
<ellipse fill="none" stroke="#000000" cx="796" cy="-336.066" rx="34.7971" ry="21.4286"/>
<text text-anchor="middle" x="796" y="-331.066" font-family="Times,serif" font-size="20.00" fill="#000000">1.0</text>
</g>
<!-- SG_1_Node_3&#45;&gt;SG_1_Node_9 -->
<g id="edge20" class="edge">
<title>SG_1_Node_3&#45;&gt;SG_1_Node_9</title>
<path fill="none" stroke="#000000" d="M758.6866,-588.3291C765.3842,-543.0489 782.888,-424.7118 791.3228,-367.6871"/>
<polygon fill="#000000" stroke="#000000" points="794.8343,-367.8661 792.8353,-357.4615 787.9097,-366.8418 794.8343,-367.8661"/>
<text text-anchor="middle" x="898" y="-532.2792" font-family="Times,serif" font-size="20.00" fill="#000000">[NA]</text>
<text text-anchor="middle" x="898" y="-510.2792" font-family="Times,serif" font-size="20.00" fill="#000000">application/javascript</text>
<text text-anchor="middle" x="898" y="-488.2792" font-family="Times,serif" font-size="20.00" fill="#000000">audio/wav</text>
<text text-anchor="middle" x="898" y="-466.2792" font-family="Times,serif" font-size="20.00" fill="#000000">empty</text>
<text text-anchor="middle" x="898" y="-444.2792" font-family="Times,serif" font-size="20.00" fill="#000000">image/png</text>
<text text-anchor="middle" x="898" y="-422.2792" font-family="Times,serif" font-size="20.00" fill="#000000">text/css</text>
<text text-anchor="middle" x="898" y="-400.2792" font-family="Times,serif" font-size="20.00" fill="#000000">video/mp4</text>
</g>
<!-- SG_1_Node_10 -->
<g id="node23" class="node">
<title>SG_1_Node_10</title>
<ellipse fill="none" stroke="#000000" cx="535" cy="-175.6396" rx="34.7971" ry="21.4286"/>
<text text-anchor="middle" x="535" y="-170.6396" font-family="Times,serif" font-size="20.00" fill="#000000">0.0</text>
</g>
<!-- SG_1_Node_4&#45;&gt;SG_1_Node_10 -->
<g id="edge21" class="edge">
<title>SG_1_Node_4&#45;&gt;SG_1_Node_10</title>
<path fill="none" stroke="#000000" d="M584.4839,-317.9835C573.3427,-307.427 560.5301,-293.1885 553,-277.8528 542.1299,-255.7149 537.7379,-228.0301 536.0042,-207.0586"/>
<polygon fill="#000000" stroke="#000000" points="539.4953,-206.8069 535.3347,-197.0632 532.5109,-207.2747 539.4953,-206.8069"/>
<text text-anchor="middle" x="588" y="-250.8528" font-family="Times,serif" font-size="20.00" fill="#000000">nosniff</text>
</g>
<!-- SG_1_Node_5 -->
<g id="node24" class="node">
<title>SG_1_Node_5</title>
<polygon fill="none" stroke="#000000" points="742.5,-193.6396 587.5,-193.6396 587.5,-157.6396 742.5,-157.6396 742.5,-193.6396"/>
<text text-anchor="middle" x="665" y="-170.6396" font-family="Times,serif" font-size="20.00" fill="#000000">Content&#45;Type</text>
</g>
<!-- SG_1_Node_4&#45;&gt;SG_1_Node_5 -->
<g id="edge22" class="edge">
<title>SG_1_Node_4&#45;&gt;SG_1_Node_5</title>
<path fill="none" stroke="#000000" d="M612.6534,-317.9749C622.9224,-290.0523 642.7085,-236.2521 654.7955,-203.3865"/>
<polygon fill="#000000" stroke="#000000" points="658.1136,-204.5043 658.2804,-193.9107 651.5438,-202.088 658.1136,-204.5043"/>
<text text-anchor="middle" x="675" y="-261.8528" font-family="Times,serif" font-size="20.00" fill="#000000">[NA]</text>
<text text-anchor="middle" x="675" y="-239.8528" font-family="Times,serif" font-size="20.00" fill="#000000">empty</text>
</g>
<!-- SG_1_Node_11 -->
<g id="node25" class="node">
<title>SG_1_Node_11</title>
<ellipse fill="none" stroke="#000000" cx="585" cy="-37.2132" rx="34.7971" ry="21.4286"/>
<text text-anchor="middle" x="585" y="-32.2132" font-family="Times,serif" font-size="20.00" fill="#000000">0.0</text>
</g>
<!-- SG_1_Node_5&#45;&gt;SG_1_Node_11 -->
<g id="edge23" class="edge">
<title>SG_1_Node_5&#45;&gt;SG_1_Node_11</title>
<path fill="none" stroke="#000000" d="M636.8303,-157.6053C623.27,-147.4445 608.0314,-133.5573 599,-117.4264 590.7516,-102.6941 587.1525,-84.2485 585.6597,-68.7612"/>
<polygon fill="#000000" stroke="#000000" points="589.1371,-68.3184 584.9316,-58.5939 582.155,-68.8185 589.1371,-68.3184"/>
<text text-anchor="middle" x="676" y="-101.4264" font-family="Times,serif" font-size="20.00" fill="#000000">application/pdf</text>
</g>
<!-- SG_1_Node_12 -->
<g id="node26" class="node">
<title>SG_1_Node_12</title>
<ellipse fill="none" stroke="#000000" cx="775" cy="-37.2132" rx="34.7971" ry="21.4286"/>
<text text-anchor="middle" x="775" y="-32.2132" font-family="Times,serif" font-size="20.00" fill="#000000">1.0</text>
</g>
<!-- SG_1_Node_5&#45;&gt;SG_1_Node_12 -->
<g id="edge24" class="edge">
<title>SG_1_Node_5&#45;&gt;SG_1_Node_12</title>
<path fill="none" stroke="#000000" d="M704.4314,-157.6387C721.6264,-147.9647 740.6399,-134.4849 753,-117.4264 763.3558,-103.1341 768.838,-84.2043 771.7396,-68.3234"/>
<polygon fill="#000000" stroke="#000000" points="775.203,-68.8294 773.299,-58.4071 768.2879,-67.7419 775.203,-68.8294"/>
<text text-anchor="middle" x="811" y="-101.4264" font-family="Times,serif" font-size="20.00" fill="#000000">text/html</text>
</g>
<!-- SG_2_Node_0 -->
<g id="node27" class="node">
<title>SG_2_Node_0</title>
<polygon fill="none" stroke="#000000" points="1533,-1300.5584 1391,-1300.5584 1391,-1264.5584 1533,-1264.5584 1533,-1300.5584"/>
<text text-anchor="middle" x="1462" y="-1277.5584" font-family="Times,serif" font-size="20.00" fill="#000000">Status&#45;Code</text>
</g>
<!-- SG_2_Node_1 -->
<g id="node28" class="node">
<title>SG_2_Node_1</title>
<polygon fill="none" stroke="#000000" points="1452.5,-1143.3452 1387.5,-1143.3452 1387.5,-1107.3452 1452.5,-1107.3452 1452.5,-1143.3452"/>
<text text-anchor="middle" x="1420" y="-1120.3452" font-family="Times,serif" font-size="20.00" fill="#000000">body</text>
</g>
<!-- SG_2_Node_0&#45;&gt;SG_2_Node_1 -->
<g id="edge25" class="edge">
<title>SG_2_Node_0&#45;&gt;SG_2_Node_1</title>
<path fill="none" stroke="#000000" d="M1454.2464,-1264.4784C1449.9118,-1253.8684 1444.6618,-1240.1184 1441,-1227.5584 1433.8323,-1202.9733 1428.1773,-1174.3736 1424.5499,-1153.6891"/>
<polygon fill="#000000" stroke="#000000" points="1427.9706,-1152.9272 1422.8406,-1143.6572 1421.0701,-1154.103 1427.9706,-1152.9272"/>
<text text-anchor="middle" x="1460.5" y="-1200.5584" font-family="Times,serif" font-size="20.00" fill="#000000">200</text>
</g>
<!-- SG_2_Node_6 -->
<g id="node29" class="node">
<title>SG_2_Node_6</title>
<ellipse fill="none" stroke="#000000" cx="1505" cy="-1125.3452" rx="34.7971" ry="21.4286"/>
<text text-anchor="middle" x="1505" y="-1120.3452" font-family="Times,serif" font-size="20.00" fill="#000000">1.0</text>
</g>
<!-- SG_2_Node_0&#45;&gt;SG_2_Node_6 -->
<g id="edge26" class="edge">
<title>SG_2_Node_0&#45;&gt;SG_2_Node_6</title>
<path fill="none" stroke="#000000" d="M1468.3523,-1264.333C1471.9697,-1253.6745 1476.4697,-1239.9245 1480,-1227.5584 1486.7474,-1203.9231 1493.308,-1176.8979 1498.0143,-1156.5748"/>
<polygon fill="#000000" stroke="#000000" points="1501.4753,-1157.1406 1500.2975,-1146.6114 1494.6521,-1155.5769 1501.4753,-1157.1406"/>
<text text-anchor="middle" x="1537" y="-1211.5584" font-family="Times,serif" font-size="20.00" fill="#000000">[NA]</text>
<text text-anchor="middle" x="1537" y="-1189.5584" font-family="Times,serif" font-size="20.00" fill="#000000">62 levels</text>
</g>
<!-- SG_2_Node_2 -->
<g id="node30" class="node">
<title>SG_2_Node_2</title>
<polygon fill="none" stroke="#000000" points="1448.5,-784.9188 1131.5,-784.9188 1131.5,-748.9188 1448.5,-748.9188 1448.5,-784.9188"/>
<text text-anchor="middle" x="1290" y="-761.9188" font-family="Times,serif" font-size="20.00" fill="#000000">Cross&#45;Origin&#45;Resource&#45;Policy</text>
</g>
<!-- SG_2_Node_1&#45;&gt;SG_2_Node_2 -->
<g id="edge27" class="edge">
<title>SG_2_Node_1&#45;&gt;SG_2_Node_2</title>
<path fill="none" stroke="#000000" d="M1387.4377,-1122.899C1324.6933,-1117.4368 1190.7679,-1101.8931 1163,-1067.132 1129.4355,-1025.1145 1133.9571,-870.393 1163,-825.132 1173.1126,-809.3723 1188.6762,-797.8237 1205.4831,-789.3796"/>
<polygon fill="#000000" stroke="#000000" points="1207.3232,-792.3843 1214.9216,-785.0008 1204.3773,-786.0344 1207.3232,-792.3843"/>
<text text-anchor="middle" x="1408.5" y="-952.132" font-family="Times,serif" font-size="20.00" fill="#000000">ecocnt_audio=duration=1</text>
<text text-anchor="middle" x="1408.5" y="-930.132" font-family="Times,serif" font-size="20.00" fill="#000000">ecocnt_vid=width=100,height=100,duration=2</text>
</g>
<!-- SG_2_Node_7 -->
<g id="node31" class="node">
<title>SG_2_Node_7</title>
<ellipse fill="none" stroke="#000000" cx="1676" cy="-766.9188" rx="34.7971" ry="21.4286"/>
<text text-anchor="middle" x="1676" y="-761.9188" font-family="Times,serif" font-size="20.00" fill="#000000">1.0</text>
</g>
<!-- SG_2_Node_1&#45;&gt;SG_2_Node_7 -->
<g id="edge28" class="edge">
<title>SG_2_Node_1&#45;&gt;SG_2_Node_7</title>
<path fill="none" stroke="#000000" d="M1452.7554,-1107.3647C1455.5034,-1106.1746 1458.2737,-1105.0763 1461,-1104.132 1543.5294,-1075.5462 1595.9338,-1132.3743 1654,-1067.132 1721.3551,-991.4529 1699.3146,-858.2341 1684.6461,-798.0199"/>
<polygon fill="#000000" stroke="#000000" points="1687.9541,-796.8254 1682.1047,-787.9917 1681.1687,-798.5451 1687.9541,-796.8254"/>
<text text-anchor="middle" x="1973" y="-1051.132" font-family="Times,serif" font-size="20.00" fill="#000000">[NA]</text>
<text text-anchor="middle" x="1973" y="-1029.132" font-family="Times,serif" font-size="20.00" fill="#000000">ecocnt_css=h1 {color: blue}</text>
<text text-anchor="middle" x="1973" y="-1007.132" font-family="Times,serif" font-size="20.00" fill="#000000">ecocnt_html=meta_refresh=0;http://172.17.0.1:8000</text>
<text text-anchor="middle" x="1973" y="-985.132" font-family="Times,serif" font-size="20.00" fill="#000000">ecocnt_html=num_frames=1,input_id=test1</text>
<text text-anchor="middle" x="1973" y="-963.132" font-family="Times,serif" font-size="20.00" fill="#000000">ecocnt_html=num_frames=2</text>
<text text-anchor="middle" x="1973" y="-941.132" font-family="Times,serif" font-size="20.00" fill="#000000">ecocnt_html=post_message=mes1</text>
<text text-anchor="middle" x="1973" y="-919.132" font-family="Times,serif" font-size="20.00" fill="#000000">ecocnt_img=width=50,height=50,type=png</text>
<text text-anchor="middle" x="1973" y="-897.132" font-family="Times,serif" font-size="20.00" fill="#000000">ecocnt_js=.,,.</text>
<text text-anchor="middle" x="1973" y="-875.132" font-family="Times,serif" font-size="20.00" fill="#000000">ecocnt_js=var a=5;</text>
<text text-anchor="middle" x="1973" y="-853.132" font-family="Times,serif" font-size="20.00" fill="#000000">ecocnt_pdf=a=a</text>
<text text-anchor="middle" x="1973" y="-831.132" font-family="Times,serif" font-size="20.00" fill="#000000">empty</text>
</g>
<!-- SG_2_Node_3 -->
<g id="node32" class="node">
<title>SG_2_Node_3</title>
<polygon fill="none" stroke="#000000" points="1326.5,-624.4924 1171.5,-624.4924 1171.5,-588.4924 1326.5,-588.4924 1326.5,-624.4924"/>
<text text-anchor="middle" x="1249" y="-601.4924" font-family="Times,serif" font-size="20.00" fill="#000000">Content&#45;Type</text>
</g>
<!-- SG_2_Node_2&#45;&gt;SG_2_Node_3 -->
<g id="edge29" class="edge">
<title>SG_2_Node_2&#45;&gt;SG_2_Node_3</title>
<path fill="none" stroke="#000000" d="M1285.3765,-748.8277C1278.2711,-721.0255 1264.6091,-667.5683 1256.2002,-634.6655"/>
<polygon fill="#000000" stroke="#000000" points="1259.5367,-633.5855 1253.6695,-624.7636 1252.7547,-635.3188 1259.5367,-633.5855"/>
<text text-anchor="middle" x="1306" y="-681.7056" font-family="Times,serif" font-size="20.00" fill="#000000">empty</text>
</g>
<!-- SG_2_Node_8 -->
<g id="node33" class="node">
<title>SG_2_Node_8</title>
<ellipse fill="none" stroke="#000000" cx="1379" cy="-606.4924" rx="34.7971" ry="21.4286"/>
<text text-anchor="middle" x="1379" y="-601.4924" font-family="Times,serif" font-size="20.00" fill="#000000">1.0</text>
</g>
<!-- SG_2_Node_2&#45;&gt;SG_2_Node_8 -->
<g id="edge30" class="edge">
<title>SG_2_Node_2&#45;&gt;SG_2_Node_8</title>
<path fill="none" stroke="#000000" d="M1309.5845,-748.728C1320.3116,-737.9252 1333.1782,-723.483 1342,-708.7056 1355.3845,-686.2855 1365.1091,-658.2431 1371.2202,-637.2048"/>
<polygon fill="#000000" stroke="#000000" points="1374.6131,-638.0677 1373.9302,-627.4949 1367.8708,-636.1859 1374.6131,-638.0677"/>
<text text-anchor="middle" x="1423" y="-692.7056" font-family="Times,serif" font-size="20.00" fill="#000000">[NA]</text>
<text text-anchor="middle" x="1423" y="-670.7056" font-family="Times,serif" font-size="20.00" fill="#000000">same&#45;origin</text>
</g>
<!-- SG_2_Node_9 -->
<g id="node34" class="node">
<title>SG_2_Node_9</title>
<ellipse fill="none" stroke="#000000" cx="1167" cy="-336.066" rx="34.7971" ry="21.4286"/>
<text text-anchor="middle" x="1167" y="-331.066" font-family="Times,serif" font-size="20.00" fill="#000000">0.0</text>
</g>
<!-- SG_2_Node_3&#45;&gt;SG_2_Node_9 -->
<g id="edge31" class="edge">
<title>SG_2_Node_3&#45;&gt;SG_2_Node_9</title>
<path fill="none" stroke="#000000" d="M1218.1828,-588.2756C1204.3013,-578.3247 1189.2122,-564.6756 1181,-548.2792 1151.6713,-489.7218 1156.2636,-410.4326 1161.851,-367.2522"/>
<polygon fill="#000000" stroke="#000000" points="1165.3185,-367.7274 1163.2349,-357.3395 1158.3858,-366.7595 1165.3185,-367.7274"/>
<text text-anchor="middle" x="1292" y="-532.2792" font-family="Times,serif" font-size="20.00" fill="#000000">[NA]</text>
<text text-anchor="middle" x="1292" y="-510.2792" font-family="Times,serif" font-size="20.00" fill="#000000">application/javascript</text>
<text text-anchor="middle" x="1292" y="-488.2792" font-family="Times,serif" font-size="20.00" fill="#000000">audio/wav</text>
<text text-anchor="middle" x="1292" y="-466.2792" font-family="Times,serif" font-size="20.00" fill="#000000">empty</text>
<text text-anchor="middle" x="1292" y="-444.2792" font-family="Times,serif" font-size="20.00" fill="#000000">image/png</text>
<text text-anchor="middle" x="1292" y="-422.2792" font-family="Times,serif" font-size="20.00" fill="#000000">text/css</text>
<text text-anchor="middle" x="1292" y="-400.2792" font-family="Times,serif" font-size="20.00" fill="#000000">video/mp4</text>
</g>
<!-- SG_2_Node_4 -->
<g id="node35" class="node">
<title>SG_2_Node_4</title>
<polygon fill="none" stroke="#000000" points="1556,-354.066 1294,-354.066 1294,-318.066 1556,-318.066 1556,-354.066"/>
<text text-anchor="middle" x="1425" y="-331.066" font-family="Times,serif" font-size="20.00" fill="#000000">X&#45;Content&#45;Type&#45;Options</text>
</g>
<!-- SG_2_Node_3&#45;&gt;SG_2_Node_4 -->
<g id="edge32" class="edge">
<title>SG_2_Node_3&#45;&gt;SG_2_Node_4</title>
<path fill="none" stroke="#000000" d="M1317.2096,-588.3828C1353.0361,-577.4383 1391.7936,-562.8279 1403,-548.2792 1444.5534,-494.3325 1437.7708,-408.4263 1430.6459,-364.2839"/>
<polygon fill="#000000" stroke="#000000" points="1434.0641,-363.511 1428.9034,-354.2581 1427.1675,-364.7097 1434.0641,-363.511"/>
<text text-anchor="middle" x="1512" y="-477.2792" font-family="Times,serif" font-size="20.00" fill="#000000">application/pdf</text>
<text text-anchor="middle" x="1512" y="-455.2792" font-family="Times,serif" font-size="20.00" fill="#000000">text/html</text>
</g>
<!-- SG_2_Node_5 -->
<g id="node36" class="node">
<title>SG_2_Node_5</title>
<polygon fill="none" stroke="#000000" points="1376.5,-193.6396 1221.5,-193.6396 1221.5,-157.6396 1376.5,-157.6396 1376.5,-193.6396"/>
<text text-anchor="middle" x="1299" y="-170.6396" font-family="Times,serif" font-size="20.00" fill="#000000">Content&#45;Type</text>
</g>
<!-- SG_2_Node_4&#45;&gt;SG_2_Node_5 -->
<g id="edge33" class="edge">
<title>SG_2_Node_4&#45;&gt;SG_2_Node_5</title>
<path fill="none" stroke="#000000" d="M1400.2699,-317.8666C1386.7746,-307.1695 1370.351,-292.8334 1358,-277.8528 1338.8979,-254.6837 1322.3307,-224.5437 1311.6564,-203.0074"/>
<polygon fill="#000000" stroke="#000000" points="1314.6914,-201.2444 1307.1788,-193.7738 1308.3929,-204.2988 1314.6914,-201.2444"/>
<text text-anchor="middle" x="1390" y="-250.8528" font-family="Times,serif" font-size="20.00" fill="#000000">empty</text>
</g>
<!-- SG_2_Node_10 -->
<g id="node37" class="node">
<title>SG_2_Node_10</title>
<ellipse fill="none" stroke="#000000" cx="1429" cy="-175.6396" rx="34.7971" ry="21.4286"/>
<text text-anchor="middle" x="1429" y="-170.6396" font-family="Times,serif" font-size="20.00" fill="#000000">1.0</text>
</g>
<!-- SG_2_Node_4&#45;&gt;SG_2_Node_10 -->
<g id="edge34" class="edge">
<title>SG_2_Node_4&#45;&gt;SG_2_Node_10</title>
<path fill="none" stroke="#000000" d="M1425.4511,-317.9749C1426.1222,-291.06 1427.3927,-240.1015 1428.2175,-207.0242"/>
<polygon fill="#000000" stroke="#000000" points="1431.7178,-207.0505 1428.4682,-196.9663 1424.72,-206.8759 1431.7178,-207.0505"/>
<text text-anchor="middle" x="1462" y="-261.8528" font-family="Times,serif" font-size="20.00" fill="#000000">[NA]</text>
<text text-anchor="middle" x="1462" y="-239.8528" font-family="Times,serif" font-size="20.00" fill="#000000">nosniff</text>
</g>
<!-- SG_2_Node_11 -->
<g id="node38" class="node">
<title>SG_2_Node_11</title>
<ellipse fill="none" stroke="#000000" cx="1173" cy="-37.2132" rx="34.7971" ry="21.4286"/>
<text text-anchor="middle" x="1173" y="-32.2132" font-family="Times,serif" font-size="20.00" fill="#000000">0.0</text>
</g>
<!-- SG_2_Node_5&#45;&gt;SG_2_Node_11 -->
<g id="edge35" class="edge">
<title>SG_2_Node_5&#45;&gt;SG_2_Node_11</title>
<path fill="none" stroke="#000000" d="M1255.2151,-157.4811C1236.655,-147.9132 1216.1029,-134.5628 1202,-117.4264 1190.4987,-103.4511 1183.3692,-84.5357 1179.0587,-68.5832"/>
<polygon fill="#000000" stroke="#000000" points="1182.3944,-67.4897 1176.6155,-58.6097 1175.5954,-69.1553 1182.3944,-67.4897"/>
<text text-anchor="middle" x="1249" y="-101.4264" font-family="Times,serif" font-size="20.00" fill="#000000">text/html</text>
</g>
<!-- SG_2_Node_12 -->
<g id="node39" class="node">
<title>SG_2_Node_12</title>
<ellipse fill="none" stroke="#000000" cx="1303" cy="-37.2132" rx="34.7971" ry="21.4286"/>
<text text-anchor="middle" x="1303" y="-32.2132" font-family="Times,serif" font-size="20.00" fill="#000000">1.0</text>
</g>
<!-- SG_2_Node_5&#45;&gt;SG_2_Node_12 -->
<g id="edge36" class="edge">
<title>SG_2_Node_5&#45;&gt;SG_2_Node_12</title>
<path fill="none" stroke="#000000" d="M1299.5229,-157.5428C1300.1735,-135.0281 1301.2953,-96.2088 1302.0885,-68.7578"/>
<polygon fill="#000000" stroke="#000000" points="1305.5947,-68.5887 1302.3851,-58.4917 1298.5977,-68.3864 1305.5947,-68.5887"/>
<text text-anchor="middle" x="1378" y="-101.4264" font-family="Times,serif" font-size="20.00" fill="#000000">application/pdf</text>
</g>
</g>
</svg>
