<?xml version="1.0" encoding="UTF-8" standalone="no"?>
<!DOCTYPE svg PUBLIC "-//W3C//DTD SVG 1.1//EN"
 "http://www.w3.org/Graphics/SVG/1.1/DTD/svg11.dtd">
<!-- Generated by graphviz version 2.40.1 (20161225.0304)
 -->
<!-- Title: G Pages: 1 -->
<svg width="724pt" height="1179pt"
 viewBox="0.00 0.00 724.00 1178.56" xmlns="http://www.w3.org/2000/svg" xmlns:xlink="http://www.w3.org/1999/xlink">
<g id="graph0" class="graph" transform="scale(1 1) rotate(0) translate(4 1174.5584)">
<title>G</title>
<polygon fill="#ffffff" stroke="transparent" points="-4,4 -4,-1174.5584 720,-1174.5584 720,4 -4,4"/>
<g id="clust1" class="cluster">
<title>cluster_0</title>
<polygon fill="none" stroke="#000000" points="8,-8 8,-1162.5584 661,-1162.5584 661,-8 8,-8"/>
<text text-anchor="middle" x="334.5" y="-1126.5584" font-family="Times,serif" font-size="40.00" fill="#000000">Tree 0, Class 1</text>
</g>
<!-- SG_0_Node_0 -->
<g id="node1" class="node">
<title>SG_0_Node_0</title>
<polygon fill="none" stroke="#000000" points="200,-1102.5584 58,-1102.5584 58,-1066.5584 200,-1066.5584 200,-1102.5584"/>
<text text-anchor="middle" x="129" y="-1079.5584" font-family="Times,serif" font-size="20.00" fill="#000000">Status&#45;Code</text>
</g>
<!-- SG_0_Node_6 -->
<g id="node2" class="node">
<title>SG_0_Node_6</title>
<ellipse fill="none" stroke="#000000" cx="51" cy="-927.3452" rx="34.7971" ry="21.4286"/>
<text text-anchor="middle" x="51" y="-922.3452" font-family="Times,serif" font-size="20.00" fill="#000000">0.0</text>
</g>
<!-- SG_0_Node_0&#45;&gt;SG_0_Node_6 -->
<g id="edge1" class="edge">
<title>SG_0_Node_0&#45;&gt;SG_0_Node_6</title>
<path fill="none" stroke="#000000" d="M83.926,-1066.3973C68.4019,-1057.7038 52.7357,-1045.6159 44,-1029.5584 32.1663,-1007.8063 35.2737,-979.4839 40.5713,-958.1704"/>
<polygon fill="#000000" stroke="#000000" points="44.0005,-958.9011 43.292,-948.3299 37.2536,-957.0356 44.0005,-958.9011"/>
<text text-anchor="middle" x="90" y="-1013.5584" font-family="Times,serif" font-size="20.00" fill="#000000">[NA]</text>
<text text-anchor="middle" x="90" y="-991.5584" font-family="Times,serif" font-size="20.00" fill="#000000">62 levels</text>
</g>
<!-- SG_0_Node_1 -->
<g id="node3" class="node">
<title>SG_0_Node_1</title>
<polygon fill="none" stroke="#000000" points="194.5,-945.3452 129.5,-945.3452 129.5,-909.3452 194.5,-909.3452 194.5,-945.3452"/>
<text text-anchor="middle" x="162" y="-922.3452" font-family="Times,serif" font-size="20.00" fill="#000000">body</text>
</g>
<!-- SG_0_Node_0&#45;&gt;SG_0_Node_1 -->
<g id="edge2" class="edge">
<title>SG_0_Node_0&#45;&gt;SG_0_Node_1</title>
<path fill="none" stroke="#000000" d="M132.7855,-1066.5241C138.4742,-1039.4231 149.2789,-987.9489 156.0344,-955.7653"/>
<polygon fill="#000000" stroke="#000000" points="159.528,-956.1593 158.157,-945.6535 152.6773,-954.7212 159.528,-956.1593"/>
<text text-anchor="middle" x="168.5" y="-1002.5584" font-family="Times,serif" font-size="20.00" fill="#000000">200</text>
</g>
<!-- SG_0_Node_7 -->
<g id="node4" class="node">
<title>SG_0_Node_7</title>
<ellipse fill="none" stroke="#000000" cx="51" cy="-766.9188" rx="34.7971" ry="21.4286"/>
<text text-anchor="middle" x="51" y="-761.9188" font-family="Times,serif" font-size="20.00" fill="#000000">0.0</text>
</g>
<!-- SG_0_Node_1&#45;&gt;SG_0_Node_7 -->
<g id="edge3" class="edge">
<title>SG_0_Node_1&#45;&gt;SG_0_Node_7</title>
<path fill="none" stroke="#000000" d="M139.9396,-909.2294C127.7357,-898.4509 112.8841,-884.0078 102,-869.132 85.6229,-846.7487 71.9189,-818.3168 62.855,-797.1251"/>
<polygon fill="#000000" stroke="#000000" points="65.9848,-795.5367 58.9055,-787.6541 59.524,-798.2309 65.9848,-795.5367"/>
<text text-anchor="middle" x="148" y="-853.132" font-family="Times,serif" font-size="20.00" fill="#000000">[NA]</text>
<text text-anchor="middle" x="148" y="-831.132" font-family="Times,serif" font-size="20.00" fill="#000000">11 levels</text>
</g>
<!-- SG_0_Node_2 -->
<g id="node5" class="node">
<title>SG_0_Node_2</title>
<polygon fill="none" stroke="#000000" points="420.5,-784.9188 103.5,-784.9188 103.5,-748.9188 420.5,-748.9188 420.5,-784.9188"/>
<text text-anchor="middle" x="262" y="-761.9188" font-family="Times,serif" font-size="20.00" fill="#000000">Cross&#45;Origin&#45;Resource&#45;Policy</text>
</g>
<!-- SG_0_Node_1&#45;&gt;SG_0_Node_2 -->
<g id="edge4" class="edge">
<title>SG_0_Node_1&#45;&gt;SG_0_Node_2</title>
<path fill="none" stroke="#000000" d="M173.2769,-909.2541C190.8322,-881.0908 224.7973,-826.6018 245.2312,-793.8204"/>
<polygon fill="#000000" stroke="#000000" points="248.2912,-795.5277 250.6109,-785.19 242.3508,-791.8248 248.2912,-795.5277"/>
<text text-anchor="middle" x="470.5" y="-842.132" font-family="Times,serif" font-size="20.00" fill="#000000">ecocnt_vid=width=100,height=100,duration=2</text>
</g>
<!-- SG_0_Node_8 -->
<g id="node6" class="node">
<title>SG_0_Node_8</title>
<ellipse fill="none" stroke="#000000" cx="144" cy="-606.4924" rx="34.7971" ry="21.4286"/>
<text text-anchor="middle" x="144" y="-601.4924" font-family="Times,serif" font-size="20.00" fill="#000000">0.0</text>
</g>
<!-- SG_0_Node_2&#45;&gt;SG_0_Node_8 -->
<g id="edge5" class="edge">
<title>SG_0_Node_2&#45;&gt;SG_0_Node_8</title>
<path fill="none" stroke="#000000" d="M201.1955,-748.9002C181.6156,-740.0005 161.9185,-727.0952 150,-708.7056 136.4574,-687.8103 135.9389,-659.1787 138.2461,-637.5333"/>
<polygon fill="#000000" stroke="#000000" points="141.7274,-637.9041 139.561,-627.5331 134.7871,-636.9915 141.7274,-637.9041"/>
<text text-anchor="middle" x="211" y="-681.7056" font-family="Times,serif" font-size="20.00" fill="#000000">same&#45;origin</text>
</g>
<!-- SG_0_Node_3 -->
<g id="node7" class="node">
<title>SG_0_Node_3</title>
<polygon fill="none" stroke="#000000" points="379.5,-624.4924 224.5,-624.4924 224.5,-588.4924 379.5,-588.4924 379.5,-624.4924"/>
<text text-anchor="middle" x="302" y="-601.4924" font-family="Times,serif" font-size="20.00" fill="#000000">Content&#45;Type</text>
</g>
<!-- SG_0_Node_2&#45;&gt;SG_0_Node_3 -->
<g id="edge6" class="edge">
<title>SG_0_Node_2&#45;&gt;SG_0_Node_3</title>
<path fill="none" stroke="#000000" d="M266.5108,-748.8277C273.4428,-721.0255 286.7716,-667.5683 294.9755,-634.6655"/>
<polygon fill="#000000" stroke="#000000" points="298.421,-635.3133 297.4444,-624.7636 291.629,-633.6197 298.421,-635.3133"/>
<text text-anchor="middle" x="319" y="-692.7056" font-family="Times,serif" font-size="20.00" fill="#000000">[NA]</text>
<text text-anchor="middle" x="319" y="-670.7056" font-family="Times,serif" font-size="20.00" fill="#000000">empty</text>
</g>
<!-- SG_0_Node_4 -->
<g id="node8" class="node">
<title>SG_0_Node_4</title>
<polygon fill="none" stroke="#000000" points="283,-354.066 21,-354.066 21,-318.066 283,-318.066 283,-354.066"/>
<text text-anchor="middle" x="152" y="-331.066" font-family="Times,serif" font-size="20.00" fill="#000000">X&#45;Content&#45;Type&#45;Options</text>
</g>
<!-- SG_0_Node_3&#45;&gt;SG_0_Node_4 -->
<g id="edge7" class="edge">
<title>SG_0_Node_3&#45;&gt;SG_0_Node_4</title>
<path fill="none" stroke="#000000" d="M234.5742,-588.4499C199.599,-577.5846 162.099,-563.0313 152,-548.2792 113.7543,-492.4116 130.4173,-407.3994 142.8654,-363.8734"/>
<polygon fill="#000000" stroke="#000000" points="146.2339,-364.8251 145.7475,-354.2414 139.5277,-362.8184 146.2339,-364.8251"/>
<text text-anchor="middle" x="229" y="-477.2792" font-family="Times,serif" font-size="20.00" fill="#000000">application/pdf</text>
<text text-anchor="middle" x="229" y="-455.2792" font-family="Times,serif" font-size="20.00" fill="#000000">text/html</text>
</g>
<!-- SG_0_Node_9 -->
<g id="node9" class="node">
<title>SG_0_Node_9</title>
<ellipse fill="none" stroke="#000000" cx="342" cy="-336.066" rx="34.7971" ry="21.4286"/>
<text text-anchor="middle" x="342" y="-331.066" font-family="Times,serif" font-size="20.00" fill="#000000">1.0</text>
</g>
<!-- SG_0_Node_3&#45;&gt;SG_0_Node_9 -->
<g id="edge8" class="edge">
<title>SG_0_Node_3&#45;&gt;SG_0_Node_9</title>
<path fill="none" stroke="#000000" d="M304.6866,-588.3291C311.3842,-543.0489 328.888,-424.7118 337.3228,-367.6871"/>
<polygon fill="#000000" stroke="#000000" points="340.8343,-367.8661 338.8353,-357.4615 333.9097,-366.8418 340.8343,-367.8661"/>
<text text-anchor="middle" x="444" y="-532.2792" font-family="Times,serif" font-size="20.00" fill="#000000">[NA]</text>
<text text-anchor="middle" x="444" y="-510.2792" font-family="Times,serif" font-size="20.00" fill="#000000">application/javascript</text>
<text text-anchor="middle" x="444" y="-488.2792" font-family="Times,serif" font-size="20.00" fill="#000000">audio/wav</text>
<text text-anchor="middle" x="444" y="-466.2792" font-family="Times,serif" font-size="20.00" fill="#000000">empty</text>
<text text-anchor="middle" x="444" y="-444.2792" font-family="Times,serif" font-size="20.00" fill="#000000">image/png</text>
<text text-anchor="middle" x="444" y="-422.2792" font-family="Times,serif" font-size="20.00" fill="#000000">text/css</text>
<text text-anchor="middle" x="444" y="-400.2792" font-family="Times,serif" font-size="20.00" fill="#000000">video/mp4</text>
</g>
<!-- SG_0_Node_10 -->
<g id="node10" class="node">
<title>SG_0_Node_10</title>
<ellipse fill="none" stroke="#000000" cx="81" cy="-175.6396" rx="34.7971" ry="21.4286"/>
<text text-anchor="middle" x="81" y="-170.6396" font-family="Times,serif" font-size="20.00" fill="#000000">0.0</text>
</g>
<!-- SG_0_Node_4&#45;&gt;SG_0_Node_10 -->
<g id="edge9" class="edge">
<title>SG_0_Node_4&#45;&gt;SG_0_Node_10</title>
<path fill="none" stroke="#000000" d="M130.4839,-317.9835C119.3427,-307.427 106.5301,-293.1885 99,-277.8528 88.1299,-255.7149 83.7379,-228.0301 82.0042,-207.0586"/>
<polygon fill="#000000" stroke="#000000" points="85.4953,-206.8069 81.3347,-197.0632 78.5109,-207.2747 85.4953,-206.8069"/>
<text text-anchor="middle" x="134" y="-250.8528" font-family="Times,serif" font-size="20.00" fill="#000000">nosniff</text>
</g>
<!-- SG_0_Node_5 -->
<g id="node11" class="node">
<title>SG_0_Node_5</title>
<polygon fill="none" stroke="#000000" points="288.5,-193.6396 133.5,-193.6396 133.5,-157.6396 288.5,-157.6396 288.5,-193.6396"/>
<text text-anchor="middle" x="211" y="-170.6396" font-family="Times,serif" font-size="20.00" fill="#000000">Content&#45;Type</text>
</g>
<!-- SG_0_Node_4&#45;&gt;SG_0_Node_5 -->
<g id="edge10" class="edge">
<title>SG_0_Node_4&#45;&gt;SG_0_Node_5</title>
<path fill="none" stroke="#000000" d="M158.6534,-317.9749C168.9224,-290.0523 188.7085,-236.2521 200.7955,-203.3865"/>
<polygon fill="#000000" stroke="#000000" points="204.1136,-204.5043 204.2804,-193.9107 197.5438,-202.088 204.1136,-204.5043"/>
<text text-anchor="middle" x="221" y="-261.8528" font-family="Times,serif" font-size="20.00" fill="#000000">[NA]</text>
<text text-anchor="middle" x="221" y="-239.8528" font-family="Times,serif" font-size="20.00" fill="#000000">empty</text>
</g>
<!-- SG_0_Node_11 -->
<g id="node12" class="node">
<title>SG_0_Node_11</title>
<ellipse fill="none" stroke="#000000" cx="131" cy="-37.2132" rx="34.7971" ry="21.4286"/>
<text text-anchor="middle" x="131" y="-32.2132" font-family="Times,serif" font-size="20.00" fill="#000000">0.0</text>
</g>
<!-- SG_0_Node_5&#45;&gt;SG_0_Node_11 -->
<g id="edge11" class="edge">
<title>SG_0_Node_5&#45;&gt;SG_0_Node_11</title>
<path fill="none" stroke="#000000" d="M182.8303,-157.6053C169.27,-147.4445 154.0314,-133.5573 145,-117.4264 136.7516,-102.6941 133.1525,-84.2485 131.6597,-68.7612"/>
<polygon fill="#000000" stroke="#000000" points="135.1371,-68.3184 130.9316,-58.5939 128.155,-68.8185 135.1371,-68.3184"/>
<text text-anchor="middle" x="222" y="-101.4264" font-family="Times,serif" font-size="20.00" fill="#000000">application/pdf</text>
</g>
<!-- SG_0_Node_12 -->
<g id="node13" class="node">
<title>SG_0_Node_12</title>
<ellipse fill="none" stroke="#000000" cx="321" cy="-37.2132" rx="34.7971" ry="21.4286"/>
<text text-anchor="middle" x="321" y="-32.2132" font-family="Times,serif" font-size="20.00" fill="#000000">1.0</text>
</g>
<!-- SG_0_Node_5&#45;&gt;SG_0_Node_12 -->
<g id="edge12" class="edge">
<title>SG_0_Node_5&#45;&gt;SG_0_Node_12</title>
<path fill="none" stroke="#000000" d="M250.4314,-157.6387C267.6264,-147.9647 286.6399,-134.4849 299,-117.4264 309.3558,-103.1341 314.838,-84.2043 317.7396,-68.3234"/>
<polygon fill="#000000" stroke="#000000" points="321.203,-68.8294 319.299,-58.4071 314.2879,-67.7419 321.203,-68.8294"/>
<text text-anchor="middle" x="357" y="-101.4264" font-family="Times,serif" font-size="20.00" fill="#000000">text/html</text>
</g>
</g>
</svg>
