<?xml version="1.0" encoding="UTF-8" standalone="no"?>
<!DOCTYPE svg PUBLIC "-//W3C//DTD SVG 1.1//EN"
 "http://www.w3.org/Graphics/SVG/1.1/DTD/svg11.dtd">
<!-- Generated by graphviz version 2.40.1 (20161225.0304)
 -->
<!-- Title: G Pages: 1 -->
<svg width="1356pt" height="1773pt"
 viewBox="0.00 0.00 1356.00 1772.56" xmlns="http://www.w3.org/2000/svg" xmlns:xlink="http://www.w3.org/1999/xlink">
<g id="graph0" class="graph" transform="scale(1 1) rotate(0) translate(4 1768.5584)">
<title>G</title>
<polygon fill="#ffffff" stroke="transparent" points="-4,4 -4,-1768.5584 1352,-1768.5584 1352,4 -4,4"/>
<g id="clust1" class="cluster">
<title>cluster_0</title>
<polygon fill="none" stroke="#000000" points="8,-8 8,-1756.5584 1300,-1756.5584 1300,-8 8,-8"/>
<text text-anchor="middle" x="654" y="-1720.5584" font-family="Times,serif" font-size="40.00" fill="#000000">Tree 0, Class Access denied</text>
</g>
<!-- SG_0_Node_0 -->
<g id="node1" class="node">
<title>SG_0_Node_0</title>
<polygon fill="none" stroke="#000000" points="442,-1696.5584 300,-1696.5584 300,-1660.5584 442,-1660.5584 442,-1696.5584"/>
<text text-anchor="middle" x="371" y="-1673.5584" font-family="Times,serif" font-size="20.00" fill="#000000">Status&#45;Code</text>
</g>
<!-- SG_0_Node_1 -->
<g id="node2" class="node">
<title>SG_0_Node_1</title>
<polygon fill="none" stroke="#000000" points="399.5,-1542.5584 178.5,-1542.5584 178.5,-1506.5584 399.5,-1506.5584 399.5,-1542.5584"/>
<text text-anchor="middle" x="289" y="-1519.5584" font-family="Times,serif" font-size="20.00" fill="#000000">Content&#45;Disposition</text>
</g>
<!-- SG_0_Node_0&#45;&gt;SG_0_Node_1 -->
<g id="edge1" class="edge">
<title>SG_0_Node_0&#45;&gt;SG_0_Node_1</title>
<path fill="none" stroke="#000000" d="M361.2715,-1660.2879C346.9694,-1633.4278 320.1682,-1583.0938 303.5285,-1551.8437"/>
<polygon fill="#000000" stroke="#000000" points="306.5052,-1549.987 298.7158,-1542.8052 300.3265,-1553.2769 306.5052,-1549.987"/>
<text text-anchor="middle" x="387" y="-1596.5584" font-family="Times,serif" font-size="20.00" fill="#000000">11 levels</text>
</g>
<!-- SG_0_Node_2 -->
<g id="node3" class="node">
<title>SG_0_Node_2</title>
<polygon fill="none" stroke="#000000" points="560,-1542.5584 418,-1542.5584 418,-1506.5584 560,-1506.5584 560,-1542.5584"/>
<text text-anchor="middle" x="489" y="-1519.5584" font-family="Times,serif" font-size="20.00" fill="#000000">Status&#45;Code</text>
</g>
<!-- SG_0_Node_0&#45;&gt;SG_0_Node_2 -->
<g id="edge2" class="edge">
<title>SG_0_Node_0&#45;&gt;SG_0_Node_2</title>
<path fill="none" stroke="#000000" d="M397.2385,-1660.5139C410.2887,-1650.6482 425.6539,-1637.5935 437,-1623.5584 454.7015,-1601.662 469.0358,-1572.801 478.1368,-1551.8944"/>
<polygon fill="#000000" stroke="#000000" points="481.3878,-1553.1927 482.0596,-1542.6192 474.9407,-1550.466 481.3878,-1553.1927"/>
<text text-anchor="middle" x="510" y="-1607.5584" font-family="Times,serif" font-size="20.00" fill="#000000">[NA]</text>
<text text-anchor="middle" x="510" y="-1585.5584" font-family="Times,serif" font-size="20.00" fill="#000000">52 levels</text>
</g>
<!-- SG_0_Node_13 -->
<g id="node4" class="node">
<title>SG_0_Node_13</title>
<ellipse fill="none" stroke="#000000" cx="166" cy="-1367.3452" rx="34.7971" ry="21.4286"/>
<text text-anchor="middle" x="166" y="-1362.3452" font-family="Times,serif" font-size="20.00" fill="#000000">0.0</text>
</g>
<!-- SG_0_Node_1&#45;&gt;SG_0_Node_13 -->
<g id="edge15" class="edge">
<title>SG_0_Node_1&#45;&gt;SG_0_Node_13</title>
<path fill="none" stroke="#000000" d="M225.5345,-1506.5317C207.0742,-1498.2122 188.74,-1486.3285 177,-1469.5584 162.6622,-1449.0774 160.7217,-1420.4068 161.9041,-1398.641"/>
<polygon fill="#000000" stroke="#000000" points="165.4007,-1398.8203 162.6948,-1388.5768 158.4222,-1398.2719 165.4007,-1398.8203"/>
<text text-anchor="middle" x="236" y="-1442.5584" font-family="Times,serif" font-size="20.00" fill="#000000">attachment</text>
</g>
<!-- SG_0_Node_3 -->
<g id="node5" class="node">
<title>SG_0_Node_3</title>
<polygon fill="none" stroke="#000000" points="391,-1385.3452 249,-1385.3452 249,-1349.3452 391,-1349.3452 391,-1385.3452"/>
<text text-anchor="middle" x="320" y="-1362.3452" font-family="Times,serif" font-size="20.00" fill="#000000">Status&#45;Code</text>
</g>
<!-- SG_0_Node_1&#45;&gt;SG_0_Node_3 -->
<g id="edge16" class="edge">
<title>SG_0_Node_1&#45;&gt;SG_0_Node_3</title>
<path fill="none" stroke="#000000" d="M292.5561,-1506.5241C297.9,-1479.4231 308.0499,-1427.9489 314.396,-1395.7653"/>
<polygon fill="#000000" stroke="#000000" points="317.8891,-1396.1417 316.3899,-1385.6535 311.0213,-1394.7875 317.8891,-1396.1417"/>
<text text-anchor="middle" x="340" y="-1453.5584" font-family="Times,serif" font-size="20.00" fill="#000000">[NA]</text>
<text text-anchor="middle" x="340" y="-1431.5584" font-family="Times,serif" font-size="20.00" fill="#000000">empty</text>
</g>
<!-- SG_0_Node_4 -->
<g id="node6" class="node">
<title>SG_0_Node_4</title>
<polygon fill="none" stroke="#000000" points="488.5,-1385.3452 423.5,-1385.3452 423.5,-1349.3452 488.5,-1349.3452 488.5,-1385.3452"/>
<text text-anchor="middle" x="456" y="-1362.3452" font-family="Times,serif" font-size="20.00" fill="#000000">body</text>
</g>
<!-- SG_0_Node_2&#45;&gt;SG_0_Node_4 -->
<g id="edge3" class="edge">
<title>SG_0_Node_2&#45;&gt;SG_0_Node_4</title>
<path fill="none" stroke="#000000" d="M484.9441,-1506.2371C482.5922,-1495.5467 479.5922,-1481.7967 477,-1469.5584 471.6936,-1444.5056 465.8443,-1415.9547 461.6697,-1395.4077"/>
<polygon fill="#000000" stroke="#000000" points="465.0688,-1394.5583 459.6511,-1385.4535 458.2084,-1395.9496 465.0688,-1394.5583"/>
<text text-anchor="middle" x="496.5" y="-1453.5584" font-family="Times,serif" font-size="20.00" fill="#000000">417</text>
<text text-anchor="middle" x="496.5" y="-1431.5584" font-family="Times,serif" font-size="20.00" fill="#000000">507</text>
</g>
<!-- SG_0_Node_14 -->
<g id="node7" class="node">
<title>SG_0_Node_14</title>
<ellipse fill="none" stroke="#000000" cx="541" cy="-1367.3452" rx="34.7971" ry="21.4286"/>
<text text-anchor="middle" x="541" y="-1362.3452" font-family="Times,serif" font-size="20.00" fill="#000000">1.0</text>
</g>
<!-- SG_0_Node_2&#45;&gt;SG_0_Node_14 -->
<g id="edge4" class="edge">
<title>SG_0_Node_2&#45;&gt;SG_0_Node_14</title>
<path fill="none" stroke="#000000" d="M499.1478,-1506.4097C504.7107,-1495.8925 511.3917,-1482.2573 516,-1469.5584 524.4378,-1446.3069 530.9434,-1419.0582 535.2005,-1398.5448"/>
<polygon fill="#000000" stroke="#000000" points="538.6825,-1398.9818 537.22,-1388.4884 531.8195,-1397.6036 538.6825,-1398.9818"/>
<text text-anchor="middle" x="574" y="-1453.5584" font-family="Times,serif" font-size="20.00" fill="#000000">[NA]</text>
<text text-anchor="middle" x="574" y="-1431.5584" font-family="Times,serif" font-size="20.00" fill="#000000">50 levels</text>
</g>
<!-- SG_0_Node_15 -->
<g id="node8" class="node">
<title>SG_0_Node_15</title>
<ellipse fill="none" stroke="#000000" cx="220" cy="-1008.9188" rx="34.7971" ry="21.4286"/>
<text text-anchor="middle" x="220" y="-1003.9188" font-family="Times,serif" font-size="20.00" fill="#000000">0.0</text>
</g>
<!-- SG_0_Node_3&#45;&gt;SG_0_Node_15 -->
<g id="edge17" class="edge">
<title>SG_0_Node_3&#45;&gt;SG_0_Node_15</title>
<path fill="none" stroke="#000000" d="M305.191,-1349.2723C296.8997,-1338.2826 287.044,-1323.6141 281,-1309.132 242.1273,-1215.9886 227.3664,-1095.968 222.3305,-1040.1007"/>
<polygon fill="#000000" stroke="#000000" points="225.8165,-1039.7867 221.4742,-1030.1226 218.8422,-1040.3853 225.8165,-1039.7867"/>
<text text-anchor="middle" x="300.5" y="-1205.132" font-family="Times,serif" font-size="20.00" fill="#000000">204</text>
<text text-anchor="middle" x="300.5" y="-1183.132" font-family="Times,serif" font-size="20.00" fill="#000000">205</text>
<text text-anchor="middle" x="300.5" y="-1161.132" font-family="Times,serif" font-size="20.00" fill="#000000">304</text>
</g>
<!-- SG_0_Node_5 -->
<g id="node9" class="node">
<title>SG_0_Node_5</title>
<polygon fill="none" stroke="#000000" points="427.5,-1026.9188 272.5,-1026.9188 272.5,-990.9188 427.5,-990.9188 427.5,-1026.9188"/>
<text text-anchor="middle" x="350" y="-1003.9188" font-family="Times,serif" font-size="20.00" fill="#000000">Content&#45;Type</text>
</g>
<!-- SG_0_Node_3&#45;&gt;SG_0_Node_5 -->
<g id="edge18" class="edge">
<title>SG_0_Node_3&#45;&gt;SG_0_Node_5</title>
<path fill="none" stroke="#000000" d="M321.5289,-1349.0781C326.4139,-1290.7152 341.6704,-1108.4371 347.6048,-1037.5361"/>
<polygon fill="#000000" stroke="#000000" points="351.1278,-1037.4064 348.4741,-1027.1492 344.1522,-1036.8224 351.1278,-1037.4064"/>
<text text-anchor="middle" x="364.5" y="-1260.132" font-family="Times,serif" font-size="20.00" fill="#000000">200</text>
<text text-anchor="middle" x="364.5" y="-1238.132" font-family="Times,serif" font-size="20.00" fill="#000000">201</text>
<text text-anchor="middle" x="364.5" y="-1216.132" font-family="Times,serif" font-size="20.00" fill="#000000">202</text>
<text text-anchor="middle" x="364.5" y="-1194.132" font-family="Times,serif" font-size="20.00" fill="#000000">203</text>
<text text-anchor="middle" x="364.5" y="-1172.132" font-family="Times,serif" font-size="20.00" fill="#000000">206</text>
<text text-anchor="middle" x="364.5" y="-1150.132" font-family="Times,serif" font-size="20.00" fill="#000000">207</text>
<text text-anchor="middle" x="364.5" y="-1128.132" font-family="Times,serif" font-size="20.00" fill="#000000">208</text>
<text text-anchor="middle" x="364.5" y="-1106.132" font-family="Times,serif" font-size="20.00" fill="#000000">226</text>
</g>
<!-- SG_0_Node_6 -->
<g id="node10" class="node">
<title>SG_0_Node_6</title>
<polygon fill="none" stroke="#000000" points="746.5,-1026.9188 591.5,-1026.9188 591.5,-990.9188 746.5,-990.9188 746.5,-1026.9188"/>
<text text-anchor="middle" x="669" y="-1003.9188" font-family="Times,serif" font-size="20.00" fill="#000000">Content&#45;Type</text>
</g>
<!-- SG_0_Node_4&#45;&gt;SG_0_Node_6 -->
<g id="edge5" class="edge">
<title>SG_0_Node_4&#45;&gt;SG_0_Node_6</title>
<path fill="none" stroke="#000000" d="M449.0937,-1349.0913C431.1744,-1298.314 389.0088,-1153.4724 455,-1067.132 470.7876,-1046.4761 529.471,-1031.4135 581.3995,-1021.7912"/>
<polygon fill="#000000" stroke="#000000" points="582.122,-1025.2174 591.3423,-1019.9985 580.8799,-1018.3285 582.122,-1025.2174"/>
<text text-anchor="middle" x="589.5" y="-1194.132" font-family="Times,serif" font-size="20.00" fill="#000000">ecocnt_audio=duration=1</text>
<text text-anchor="middle" x="589.5" y="-1172.132" font-family="Times,serif" font-size="20.00" fill="#000000">ecocnt_js=.,,.</text>
</g>
<!-- SG_0_Node_16 -->
<g id="node11" class="node">
<title>SG_0_Node_16</title>
<ellipse fill="none" stroke="#000000" cx="799" cy="-1008.9188" rx="34.7971" ry="21.4286"/>
<text text-anchor="middle" x="799" y="-1003.9188" font-family="Times,serif" font-size="20.00" fill="#000000">1.0</text>
</g>
<!-- SG_0_Node_4&#45;&gt;SG_0_Node_16 -->
<g id="edge6" class="edge">
<title>SG_0_Node_4&#45;&gt;SG_0_Node_16</title>
<path fill="none" stroke="#000000" d="M488.7269,-1349.2804C491.4813,-1348.1092 494.2609,-1347.0383 497,-1346.132 594.0465,-1314.0235 648.7746,-1378.3428 724,-1309.132 800.8291,-1238.4459 804.2333,-1102.0798 801.4152,-1040.4829"/>
<polygon fill="#000000" stroke="#000000" points="804.8953,-1040.021 800.8548,-1030.2269 797.9057,-1040.403 804.8953,-1040.021"/>
<text text-anchor="middle" x="1075" y="-1293.132" font-family="Times,serif" font-size="20.00" fill="#000000">[NA]</text>
<text text-anchor="middle" x="1075" y="-1271.132" font-family="Times,serif" font-size="20.00" fill="#000000">ecocnt_css=h1 {color: blue}</text>
<text text-anchor="middle" x="1075" y="-1249.132" font-family="Times,serif" font-size="20.00" fill="#000000">ecocnt_html=meta_refresh=0;http://172.17.0.1:8000</text>
<text text-anchor="middle" x="1075" y="-1227.132" font-family="Times,serif" font-size="20.00" fill="#000000">ecocnt_html=num_frames=1,input_id=test1</text>
<text text-anchor="middle" x="1075" y="-1205.132" font-family="Times,serif" font-size="20.00" fill="#000000">ecocnt_html=num_frames=2</text>
<text text-anchor="middle" x="1075" y="-1183.132" font-family="Times,serif" font-size="20.00" fill="#000000">ecocnt_html=post_message=mes1</text>
<text text-anchor="middle" x="1075" y="-1161.132" font-family="Times,serif" font-size="20.00" fill="#000000">ecocnt_img=width=50,height=50,type=png</text>
<text text-anchor="middle" x="1075" y="-1139.132" font-family="Times,serif" font-size="20.00" fill="#000000">ecocnt_js=var a=5;</text>
<text text-anchor="middle" x="1075" y="-1117.132" font-family="Times,serif" font-size="20.00" fill="#000000">ecocnt_pdf=a=a</text>
<text text-anchor="middle" x="1075" y="-1095.132" font-family="Times,serif" font-size="20.00" fill="#000000">ecocnt_vid=width=100,height=100,duration=2</text>
<text text-anchor="middle" x="1075" y="-1073.132" font-family="Times,serif" font-size="20.00" fill="#000000">empty</text>
</g>
<!-- SG_0_Node_7 -->
<g id="node12" class="node">
<title>SG_0_Node_7</title>
<polygon fill="none" stroke="#000000" points="332.5,-734.4924 267.5,-734.4924 267.5,-698.4924 332.5,-698.4924 332.5,-734.4924"/>
<text text-anchor="middle" x="300" y="-711.4924" font-family="Times,serif" font-size="20.00" fill="#000000">body</text>
</g>
<!-- SG_0_Node_5&#45;&gt;SG_0_Node_7 -->
<g id="edge19" class="edge">
<title>SG_0_Node_5&#45;&gt;SG_0_Node_7</title>
<path fill="none" stroke="#000000" d="M335.4449,-990.6872C327.5933,-979.7589 318.5933,-965.2056 314,-950.7056 291.385,-879.3148 294.0311,-789.6731 297.3196,-744.8108"/>
<polygon fill="#000000" stroke="#000000" points="300.8228,-744.91 298.1323,-734.6624 293.8451,-744.3511 300.8228,-744.91"/>
<text text-anchor="middle" x="346" y="-857.7056" font-family="Times,serif" font-size="20.00" fill="#000000">empty</text>
</g>
<!-- SG_0_Node_17 -->
<g id="node13" class="node">
<title>SG_0_Node_17</title>
<ellipse fill="none" stroke="#000000" cx="400" cy="-716.4924" rx="34.7971" ry="21.4286"/>
<text text-anchor="middle" x="400" y="-711.4924" font-family="Times,serif" font-size="20.00" fill="#000000">1.0</text>
</g>
<!-- SG_0_Node_5&#45;&gt;SG_0_Node_17 -->
<g id="edge20" class="edge">
<title>SG_0_Node_5&#45;&gt;SG_0_Node_17</title>
<path fill="none" stroke="#000000" d="M360.8357,-990.7031C366.9379,-979.5449 374.0974,-964.7528 378,-950.7056 397.5845,-880.2136 400.5327,-793.6907 400.5376,-748.0899"/>
<polygon fill="#000000" stroke="#000000" points="404.037,-747.9241 400.4891,-737.941 397.037,-747.9577 404.037,-747.9241"/>
<text text-anchor="middle" x="511" y="-934.7056" font-family="Times,serif" font-size="20.00" fill="#000000">[NA]</text>
<text text-anchor="middle" x="511" y="-912.7056" font-family="Times,serif" font-size="20.00" fill="#000000">application/javascript</text>
<text text-anchor="middle" x="511" y="-890.7056" font-family="Times,serif" font-size="20.00" fill="#000000">application/pdf</text>
<text text-anchor="middle" x="511" y="-868.7056" font-family="Times,serif" font-size="20.00" fill="#000000">audio/wav</text>
<text text-anchor="middle" x="511" y="-846.7056" font-family="Times,serif" font-size="20.00" fill="#000000">image/png</text>
<text text-anchor="middle" x="511" y="-824.7056" font-family="Times,serif" font-size="20.00" fill="#000000">text/css</text>
<text text-anchor="middle" x="511" y="-802.7056" font-family="Times,serif" font-size="20.00" fill="#000000">text/html</text>
<text text-anchor="middle" x="511" y="-780.7056" font-family="Times,serif" font-size="20.00" fill="#000000">video/mp4</text>
</g>
<!-- SG_0_Node_8 -->
<g id="node14" class="node">
<title>SG_0_Node_8</title>
<polygon fill="none" stroke="#000000" points="998.5,-734.4924 807.5,-734.4924 807.5,-698.4924 998.5,-698.4924 998.5,-734.4924"/>
<text text-anchor="middle" x="903" y="-711.4924" font-family="Times,serif" font-size="20.00" fill="#000000">X&#45;Frame&#45;Options</text>
</g>
<!-- SG_0_Node_6&#45;&gt;SG_0_Node_8 -->
<g id="edge7" class="edge">
<title>SG_0_Node_6&#45;&gt;SG_0_Node_8</title>
<path fill="none" stroke="#000000" d="M673.1515,-990.6286C683.7672,-947.639 715.7107,-838.9609 780,-774.7056 795.4351,-759.2788 815.7453,-747.4056 835.4031,-738.5302"/>
<polygon fill="#000000" stroke="#000000" points="836.8728,-741.7081 844.6716,-734.5367 834.1029,-735.2794 836.8728,-741.7081"/>
<text text-anchor="middle" x="832" y="-868.7056" font-family="Times,serif" font-size="20.00" fill="#000000">audio/wav</text>
<text text-anchor="middle" x="832" y="-846.7056" font-family="Times,serif" font-size="20.00" fill="#000000">text/css</text>
</g>
<!-- SG_0_Node_18 -->
<g id="node15" class="node">
<title>SG_0_Node_18</title>
<ellipse fill="none" stroke="#000000" cx="1051" cy="-716.4924" rx="34.7971" ry="21.4286"/>
<text text-anchor="middle" x="1051" y="-711.4924" font-family="Times,serif" font-size="20.00" fill="#000000">1.0</text>
</g>
<!-- SG_0_Node_6&#45;&gt;SG_0_Node_18 -->
<g id="edge8" class="edge">
<title>SG_0_Node_6&#45;&gt;SG_0_Node_18</title>
<path fill="none" stroke="#000000" d="M740.1189,-990.8834C800.3298,-975.4227 877.8499,-954.9849 884,-950.7056 960.67,-897.3588 1014.4496,-796.947 1037.8622,-746.7153"/>
<polygon fill="#000000" stroke="#000000" points="1041.1615,-747.9166 1042.1377,-737.3669 1034.7956,-745.0053 1041.1615,-747.9166"/>
<text text-anchor="middle" x="1134" y="-923.7056" font-family="Times,serif" font-size="20.00" fill="#000000">[NA]</text>
<text text-anchor="middle" x="1134" y="-901.7056" font-family="Times,serif" font-size="20.00" fill="#000000">application/javascript</text>
<text text-anchor="middle" x="1134" y="-879.7056" font-family="Times,serif" font-size="20.00" fill="#000000">application/pdf</text>
<text text-anchor="middle" x="1134" y="-857.7056" font-family="Times,serif" font-size="20.00" fill="#000000">empty</text>
<text text-anchor="middle" x="1134" y="-835.7056" font-family="Times,serif" font-size="20.00" fill="#000000">image/png</text>
<text text-anchor="middle" x="1134" y="-813.7056" font-family="Times,serif" font-size="20.00" fill="#000000">text/html</text>
<text text-anchor="middle" x="1134" y="-791.7056" font-family="Times,serif" font-size="20.00" fill="#000000">video/mp4</text>
</g>
<!-- SG_0_Node_9 -->
<g id="node16" class="node">
<title>SG_0_Node_9</title>
<polygon fill="none" stroke="#000000" points="278,-376.066 16,-376.066 16,-340.066 278,-340.066 278,-376.066"/>
<text text-anchor="middle" x="147" y="-353.066" font-family="Times,serif" font-size="20.00" fill="#000000">X&#45;Content&#45;Type&#45;Options</text>
</g>
<!-- SG_0_Node_7&#45;&gt;SG_0_Node_9 -->
<g id="edge21" class="edge">
<title>SG_0_Node_7&#45;&gt;SG_0_Node_9</title>
<path fill="none" stroke="#000000" d="M267.1085,-713.8571C205.1774,-708.1396 75.0416,-692.2797 48,-658.2792 -18.9495,-574.101 -5.4067,-509.6383 48,-416.2792 56.6487,-401.1607 70.9224,-389.5817 85.9753,-380.887"/>
<polygon fill="#000000" stroke="#000000" points="87.7394,-383.9125 94.8916,-376.0961 84.4261,-377.7462 87.7394,-383.9125"/>
<text text-anchor="middle" x="293.5" y="-543.2792" font-family="Times,serif" font-size="20.00" fill="#000000">ecocnt_audio=duration=1</text>
<text text-anchor="middle" x="293.5" y="-521.2792" font-family="Times,serif" font-size="20.00" fill="#000000">ecocnt_vid=width=100,height=100,duration=2</text>
</g>
<!-- SG_0_Node_19 -->
<g id="node17" class="node">
<title>SG_0_Node_19</title>
<ellipse fill="none" stroke="#000000" cx="561" cy="-358.066" rx="34.7971" ry="21.4286"/>
<text text-anchor="middle" x="561" y="-353.066" font-family="Times,serif" font-size="20.00" fill="#000000">1.0</text>
</g>
<!-- SG_0_Node_7&#45;&gt;SG_0_Node_19 -->
<g id="edge22" class="edge">
<title>SG_0_Node_7&#45;&gt;SG_0_Node_19</title>
<path fill="none" stroke="#000000" d="M332.5673,-703.136C340.1774,-700.3007 348.3083,-697.4977 356,-695.2792 435.7291,-672.2837 484.1462,-720.5415 539,-658.2792 556.4569,-638.4647 560.0622,-462.7909 560.8065,-389.7264"/>
<polygon fill="#000000" stroke="#000000" points="564.3099,-389.3514 560.9,-379.3203 557.3102,-389.2884 564.3099,-389.3514"/>
<text text-anchor="middle" x="833" y="-642.2792" font-family="Times,serif" font-size="20.00" fill="#000000">[NA]</text>
<text text-anchor="middle" x="833" y="-620.2792" font-family="Times,serif" font-size="20.00" fill="#000000">ecocnt_css=h1 {color: blue}</text>
<text text-anchor="middle" x="833" y="-598.2792" font-family="Times,serif" font-size="20.00" fill="#000000">ecocnt_html=meta_refresh=0;http://172.17.0.1:8000</text>
<text text-anchor="middle" x="833" y="-576.2792" font-family="Times,serif" font-size="20.00" fill="#000000">ecocnt_html=num_frames=1,input_id=test1</text>
<text text-anchor="middle" x="833" y="-554.2792" font-family="Times,serif" font-size="20.00" fill="#000000">ecocnt_html=num_frames=2</text>
<text text-anchor="middle" x="833" y="-532.2792" font-family="Times,serif" font-size="20.00" fill="#000000">ecocnt_html=post_message=mes1</text>
<text text-anchor="middle" x="833" y="-510.2792" font-family="Times,serif" font-size="20.00" fill="#000000">ecocnt_img=width=50,height=50,type=png</text>
<text text-anchor="middle" x="833" y="-488.2792" font-family="Times,serif" font-size="20.00" fill="#000000">ecocnt_js=.,,.</text>
<text text-anchor="middle" x="833" y="-466.2792" font-family="Times,serif" font-size="20.00" fill="#000000">ecocnt_js=var a=5;</text>
<text text-anchor="middle" x="833" y="-444.2792" font-family="Times,serif" font-size="20.00" fill="#000000">ecocnt_pdf=a=a</text>
<text text-anchor="middle" x="833" y="-422.2792" font-family="Times,serif" font-size="20.00" fill="#000000">empty</text>
</g>
<!-- SG_0_Node_10 -->
<g id="node18" class="node">
<title>SG_0_Node_10</title>
<polygon fill="none" stroke="#000000" points="1197.5,-376.066 880.5,-376.066 880.5,-340.066 1197.5,-340.066 1197.5,-376.066"/>
<text text-anchor="middle" x="1039" y="-353.066" font-family="Times,serif" font-size="20.00" fill="#000000">Cross&#45;Origin&#45;Resource&#45;Policy</text>
</g>
<!-- SG_0_Node_8&#45;&gt;SG_0_Node_10 -->
<g id="edge9" class="edge">
<title>SG_0_Node_8&#45;&gt;SG_0_Node_10</title>
<path fill="none" stroke="#000000" d="M985.2194,-698.4516C1039.8377,-685.6361 1102.9548,-668.8851 1111,-658.2792 1176.0015,-572.5879 1157.341,-513.3395 1111,-416.2792 1104.4724,-402.6073 1092.9921,-391.1119 1081.0906,-382.0436"/>
<polygon fill="#000000" stroke="#000000" points="1083.0127,-379.1155 1072.8395,-376.1563 1078.9469,-384.8137 1083.0127,-379.1155"/>
<text text-anchor="middle" x="1185" y="-543.2792" font-family="Times,serif" font-size="20.00" fill="#000000">[NA]</text>
<text text-anchor="middle" x="1185" y="-521.2792" font-family="Times,serif" font-size="20.00" fill="#000000">empty</text>
</g>
<!-- SG_0_Node_20 -->
<g id="node19" class="node">
<title>SG_0_Node_20</title>
<ellipse fill="none" stroke="#000000" cx="1250" cy="-358.066" rx="34.7971" ry="21.4286"/>
<text text-anchor="middle" x="1250" y="-353.066" font-family="Times,serif" font-size="20.00" fill="#000000">1.0</text>
</g>
<!-- SG_0_Node_8&#45;&gt;SG_0_Node_20 -->
<g id="edge10" class="edge">
<title>SG_0_Node_8&#45;&gt;SG_0_Node_20</title>
<path fill="none" stroke="#000000" d="M990.3482,-698.4778C995.9798,-697.3776 1001.5674,-696.3027 1007,-695.2792 1054.4268,-686.3444 1188.176,-693.6589 1221,-658.2792 1290.0411,-583.8627 1271.1472,-449.9943 1257.9071,-389.3903"/>
<polygon fill="#000000" stroke="#000000" points="1261.2406,-388.2659 1255.6036,-379.2951 1254.416,-389.8232 1261.2406,-388.2659"/>
<text text-anchor="middle" x="1294.5" y="-532.2792" font-family="Times,serif" font-size="20.00" fill="#000000">deny</text>
</g>
<!-- SG_0_Node_21 -->
<g id="node20" class="node">
<title>SG_0_Node_21</title>
<ellipse fill="none" stroke="#000000" cx="99" cy="-197.6396" rx="34.7971" ry="21.4286"/>
<text text-anchor="middle" x="99" y="-192.6396" font-family="Times,serif" font-size="20.00" fill="#000000">0.0</text>
</g>
<!-- SG_0_Node_9&#45;&gt;SG_0_Node_21 -->
<g id="edge23" class="edge">
<title>SG_0_Node_9&#45;&gt;SG_0_Node_21</title>
<path fill="none" stroke="#000000" d="M133.8364,-339.8378C126.5211,-328.7948 117.9263,-314.1247 113,-299.8528 105.0872,-276.9288 101.6283,-249.6611 100.1254,-229.0572"/>
<polygon fill="#000000" stroke="#000000" points="103.6111,-228.7151 99.5046,-218.9484 96.6242,-229.1442 103.6111,-228.7151"/>
<text text-anchor="middle" x="145" y="-272.8528" font-family="Times,serif" font-size="20.00" fill="#000000">empty</text>
</g>
<!-- SG_0_Node_22 -->
<g id="node21" class="node">
<title>SG_0_Node_22</title>
<ellipse fill="none" stroke="#000000" cx="199" cy="-197.6396" rx="34.7971" ry="21.4286"/>
<text text-anchor="middle" x="199" y="-192.6396" font-family="Times,serif" font-size="20.00" fill="#000000">1.0</text>
</g>
<!-- SG_0_Node_9&#45;&gt;SG_0_Node_22 -->
<g id="edge24" class="edge">
<title>SG_0_Node_9&#45;&gt;SG_0_Node_22</title>
<path fill="none" stroke="#000000" d="M157.8807,-340.0118C164.2399,-328.7896 171.9779,-313.8747 177,-299.8528 185.2871,-276.7149 190.9623,-249.4597 194.4702,-228.9149"/>
<polygon fill="#000000" stroke="#000000" points="197.958,-229.2726 196.1095,-218.8403 191.0488,-228.1484 197.958,-229.2726"/>
<text text-anchor="middle" x="224" y="-283.8528" font-family="Times,serif" font-size="20.00" fill="#000000">[NA]</text>
<text text-anchor="middle" x="224" y="-261.8528" font-family="Times,serif" font-size="20.00" fill="#000000">nosniff</text>
</g>
<!-- SG_0_Node_11 -->
<g id="node22" class="node">
<title>SG_0_Node_11</title>
<polygon fill="none" stroke="#000000" points="998.5,-215.6396 893.5,-215.6396 893.5,-179.6396 998.5,-179.6396 998.5,-215.6396"/>
<text text-anchor="middle" x="946" y="-192.6396" font-family="Times,serif" font-size="20.00" fill="#000000">Location</text>
</g>
<!-- SG_0_Node_10&#45;&gt;SG_0_Node_11 -->
<g id="edge11" class="edge">
<title>SG_0_Node_10&#45;&gt;SG_0_Node_11</title>
<path fill="none" stroke="#000000" d="M991.1943,-339.9808C973.7411,-330.7776 955.8742,-317.6826 946,-299.8528 933.5141,-277.307 935.1952,-247.4449 938.9875,-225.8244"/>
<polygon fill="#000000" stroke="#000000" points="942.435,-226.4334 940.9659,-215.9409 935.5711,-225.0593 942.435,-226.4334"/>
<text text-anchor="middle" x="1007" y="-283.8528" font-family="Times,serif" font-size="20.00" fill="#000000">[NA]</text>
<text text-anchor="middle" x="1007" y="-261.8528" font-family="Times,serif" font-size="20.00" fill="#000000">same&#45;origin</text>
</g>
<!-- SG_0_Node_23 -->
<g id="node23" class="node">
<title>SG_0_Node_23</title>
<ellipse fill="none" stroke="#000000" cx="1104" cy="-197.6396" rx="34.7971" ry="21.4286"/>
<text text-anchor="middle" x="1104" y="-192.6396" font-family="Times,serif" font-size="20.00" fill="#000000">1.0</text>
</g>
<!-- SG_0_Node_10&#45;&gt;SG_0_Node_23 -->
<g id="edge12" class="edge">
<title>SG_0_Node_10&#45;&gt;SG_0_Node_23</title>
<path fill="none" stroke="#000000" d="M1050.5854,-339.9676C1057.4406,-328.7292 1065.9398,-313.813 1072,-299.8528 1082.0715,-276.6522 1090.4744,-249.2502 1096.1385,-228.6612"/>
<polygon fill="#000000" stroke="#000000" points="1099.5566,-229.4277 1098.7697,-218.8621 1092.796,-227.6124 1099.5566,-229.4277"/>
<text text-anchor="middle" x="1120" y="-272.8528" font-family="Times,serif" font-size="20.00" fill="#000000">empty</text>
</g>
<!-- SG_0_Node_24 -->
<g id="node24" class="node">
<title>SG_0_Node_24</title>
<ellipse fill="none" stroke="#000000" cx="896" cy="-37.2132" rx="43.6818" ry="21.4286"/>
<text text-anchor="middle" x="896" y="-32.2132" font-family="Times,serif" font-size="20.00" fill="#000000">0.97</text>
</g>
<!-- SG_0_Node_11&#45;&gt;SG_0_Node_24 -->
<g id="edge13" class="edge">
<title>SG_0_Node_11&#45;&gt;SG_0_Node_24</title>
<path fill="none" stroke="#000000" d="M932.0384,-179.525C924.2847,-168.521 915.184,-153.8522 910,-139.4264 901.7986,-116.604 898.3564,-89.3305 896.9333,-68.6985"/>
<polygon fill="#000000" stroke="#000000" points="900.4197,-68.359 896.3586,-58.5735 893.431,-68.7557 900.4197,-68.359"/>
<text text-anchor="middle" x="942" y="-123.4264" font-family="Times,serif" font-size="20.00" fill="#000000">[NA]</text>
<text text-anchor="middle" x="942" y="-101.4264" font-family="Times,serif" font-size="20.00" fill="#000000">empty</text>
</g>
<!-- SG_0_Node_25 -->
<g id="node25" class="node">
<title>SG_0_Node_25</title>
<ellipse fill="none" stroke="#000000" cx="996" cy="-37.2132" rx="34.7971" ry="21.4286"/>
<text text-anchor="middle" x="996" y="-32.2132" font-family="Times,serif" font-size="20.00" fill="#000000">1.0</text>
</g>
<!-- SG_0_Node_11&#45;&gt;SG_0_Node_25 -->
<g id="edge14" class="edge">
<title>SG_0_Node_11&#45;&gt;SG_0_Node_25</title>
<path fill="none" stroke="#000000" d="M956.1012,-179.4966C962.0168,-168.242 969.2371,-153.3243 974,-139.4264 981.9679,-116.1767 987.6615,-88.9279 991.2577,-68.414"/>
<polygon fill="#000000" stroke="#000000" points="994.742,-68.7991 992.948,-58.3573 987.8388,-67.6388 994.742,-68.7991"/>
<text text-anchor="middle" x="1100" y="-112.4264" font-family="Times,serif" font-size="20.00" fill="#000000">http://172.17.0.1:8000</text>
</g>
</g>
</svg>
