<?xml version="1.0" encoding="UTF-8" standalone="no"?>
<!DOCTYPE svg PUBLIC "-//W3C//DTD SVG 1.1//EN"
 "http://www.w3.org/Graphics/SVG/1.1/DTD/svg11.dtd">
<!-- Generated by graphviz version 2.40.1 (20161225.0304)
 -->
<!-- Title: G Pages: 1 -->
<svg width="1139pt" height="939pt"
 viewBox="0.00 0.00 1139.00 939.28" xmlns="http://www.w3.org/2000/svg" xmlns:xlink="http://www.w3.org/1999/xlink">
<g id="graph0" class="graph" transform="scale(1 1) rotate(0) translate(4 935.2792)">
<title>G</title>
<polygon fill="#ffffff" stroke="transparent" points="-4,4 -4,-935.2792 1135,-935.2792 1135,4 -4,4"/>
<g id="clust1" class="cluster">
<title>cluster_0</title>
<polygon fill="none" stroke="#000000" points="8,-8 8,-923.2792 1115,-923.2792 1115,-8 8,-8"/>
<text text-anchor="middle" x="561.5" y="-887.2792" font-family="Times,serif" font-size="40.00" fill="#000000">Tree 0, Class [&#39;error&#39;]</text>
</g>
<!-- SG_0_Node_0 -->
<g id="node1" class="node">
<title>SG_0_Node_0</title>
<polygon fill="none" stroke="#000000" points="418,-863.2792 276,-863.2792 276,-827.2792 418,-827.2792 418,-863.2792"/>
<text text-anchor="middle" x="347" y="-840.2792" font-family="Times,serif" font-size="20.00" fill="#000000">Status&#45;Code</text>
</g>
<!-- SG_0_Node_1 -->
<g id="node2" class="node">
<title>SG_0_Node_1</title>
<polygon fill="none" stroke="#000000" points="337.5,-574.066 272.5,-574.066 272.5,-538.066 337.5,-538.066 337.5,-574.066"/>
<text text-anchor="middle" x="305" y="-551.066" font-family="Times,serif" font-size="20.00" fill="#000000">body</text>
</g>
<!-- SG_0_Node_0&#45;&gt;SG_0_Node_1 -->
<g id="edge1" class="edge">
<title>SG_0_Node_0&#45;&gt;SG_0_Node_1</title>
<path fill="none" stroke="#000000" d="M338.6031,-827.0913C334.1135,-816.5614 328.9224,-802.9266 326,-790.2792 309.1455,-717.3361 305.662,-628.7146 305.042,-584.3054"/>
<polygon fill="#000000" stroke="#000000" points="308.5414,-584.2201 304.9412,-574.2557 301.5418,-584.2904 308.5414,-584.2201"/>
<text text-anchor="middle" x="345.5" y="-774.2792" font-family="Times,serif" font-size="20.00" fill="#000000">200</text>
<text text-anchor="middle" x="345.5" y="-752.2792" font-family="Times,serif" font-size="20.00" fill="#000000">201</text>
<text text-anchor="middle" x="345.5" y="-730.2792" font-family="Times,serif" font-size="20.00" fill="#000000">202</text>
<text text-anchor="middle" x="345.5" y="-708.2792" font-family="Times,serif" font-size="20.00" fill="#000000">203</text>
<text text-anchor="middle" x="345.5" y="-686.2792" font-family="Times,serif" font-size="20.00" fill="#000000">206</text>
<text text-anchor="middle" x="345.5" y="-664.2792" font-family="Times,serif" font-size="20.00" fill="#000000">207</text>
<text text-anchor="middle" x="345.5" y="-642.2792" font-family="Times,serif" font-size="20.00" fill="#000000">208</text>
<text text-anchor="middle" x="345.5" y="-620.2792" font-family="Times,serif" font-size="20.00" fill="#000000">226</text>
</g>
<!-- SG_0_Node_3 -->
<g id="node3" class="node">
<title>SG_0_Node_3</title>
<ellipse fill="none" stroke="#000000" cx="390" cy="-556.066" rx="34.7971" ry="21.4286"/>
<text text-anchor="middle" x="390" y="-551.066" font-family="Times,serif" font-size="20.00" fill="#000000">1.0</text>
</g>
<!-- SG_0_Node_0&#45;&gt;SG_0_Node_3 -->
<g id="edge2" class="edge">
<title>SG_0_Node_0&#45;&gt;SG_0_Node_3</title>
<path fill="none" stroke="#000000" d="M353.977,-827.2098C357.8027,-816.6033 362.3027,-802.8533 365,-790.2792 380.3647,-718.6535 386.4678,-632.5835 388.7476,-587.3569"/>
<polygon fill="#000000" stroke="#000000" points="392.247,-587.4503 389.2249,-577.2956 385.2548,-587.1185 392.247,-587.4503"/>
<text text-anchor="middle" x="433" y="-708.2792" font-family="Times,serif" font-size="20.00" fill="#000000">[NA]</text>
<text text-anchor="middle" x="433" y="-686.2792" font-family="Times,serif" font-size="20.00" fill="#000000">55 levels</text>
</g>
<!-- SG_0_Node_2 -->
<g id="node4" class="node">
<title>SG_0_Node_2</title>
<polygon fill="none" stroke="#000000" points="333.5,-215.6396 16.5,-215.6396 16.5,-179.6396 333.5,-179.6396 333.5,-215.6396"/>
<text text-anchor="middle" x="175" y="-192.6396" font-family="Times,serif" font-size="20.00" fill="#000000">Cross&#45;Origin&#45;Resource&#45;Policy</text>
</g>
<!-- SG_0_Node_1&#45;&gt;SG_0_Node_2 -->
<g id="edge3" class="edge">
<title>SG_0_Node_1&#45;&gt;SG_0_Node_2</title>
<path fill="none" stroke="#000000" d="M272.4377,-553.6198C209.6933,-548.1576 75.7679,-532.6138 48,-497.8528 -19.129,-413.8178 -10.0858,-346.3748 48,-255.8528 58.1126,-240.0931 73.6762,-228.5445 90.4831,-220.1004"/>
<polygon fill="#000000" stroke="#000000" points="92.3232,-223.1051 99.9216,-215.7216 89.3773,-216.7552 92.3232,-223.1051"/>
<text text-anchor="middle" x="293.5" y="-382.8528" font-family="Times,serif" font-size="20.00" fill="#000000">ecocnt_audio=duration=1</text>
<text text-anchor="middle" x="293.5" y="-360.8528" font-family="Times,serif" font-size="20.00" fill="#000000">ecocnt_vid=width=100,height=100,duration=2</text>
</g>
<!-- SG_0_Node_4 -->
<g id="node5" class="node">
<title>SG_0_Node_4</title>
<ellipse fill="none" stroke="#000000" cx="561" cy="-197.6396" rx="34.7971" ry="21.4286"/>
<text text-anchor="middle" x="561" y="-192.6396" font-family="Times,serif" font-size="20.00" fill="#000000">1.0</text>
</g>
<!-- SG_0_Node_1&#45;&gt;SG_0_Node_4 -->
<g id="edge4" class="edge">
<title>SG_0_Node_1&#45;&gt;SG_0_Node_4</title>
<path fill="none" stroke="#000000" d="M337.7554,-538.0855C340.5034,-536.8953 343.2737,-535.7971 346,-534.8528 428.5294,-506.2669 480.9338,-563.0951 539,-497.8528 606.3551,-422.1737 584.3146,-288.9549 569.6461,-228.7407"/>
<polygon fill="#000000" stroke="#000000" points="572.9541,-227.5461 567.1047,-218.7124 566.1687,-229.2658 572.9541,-227.5461"/>
<text text-anchor="middle" x="858" y="-481.8528" font-family="Times,serif" font-size="20.00" fill="#000000">[NA]</text>
<text text-anchor="middle" x="858" y="-459.8528" font-family="Times,serif" font-size="20.00" fill="#000000">ecocnt_css=h1 {color: blue}</text>
<text text-anchor="middle" x="858" y="-437.8528" font-family="Times,serif" font-size="20.00" fill="#000000">ecocnt_html=meta_refresh=0;http://172.17.0.1:8000</text>
<text text-anchor="middle" x="858" y="-415.8528" font-family="Times,serif" font-size="20.00" fill="#000000">ecocnt_html=num_frames=1,input_id=test1</text>
<text text-anchor="middle" x="858" y="-393.8528" font-family="Times,serif" font-size="20.00" fill="#000000">ecocnt_html=num_frames=2</text>
<text text-anchor="middle" x="858" y="-371.8528" font-family="Times,serif" font-size="20.00" fill="#000000">ecocnt_html=post_message=mes1</text>
<text text-anchor="middle" x="858" y="-349.8528" font-family="Times,serif" font-size="20.00" fill="#000000">ecocnt_img=width=50,height=50,type=png</text>
<text text-anchor="middle" x="858" y="-327.8528" font-family="Times,serif" font-size="20.00" fill="#000000">ecocnt_js=.,,.</text>
<text text-anchor="middle" x="858" y="-305.8528" font-family="Times,serif" font-size="20.00" fill="#000000">ecocnt_js=var a=5;</text>
<text text-anchor="middle" x="858" y="-283.8528" font-family="Times,serif" font-size="20.00" fill="#000000">ecocnt_pdf=a=a</text>
<text text-anchor="middle" x="858" y="-261.8528" font-family="Times,serif" font-size="20.00" fill="#000000">empty</text>
</g>
<!-- SG_0_Node_5 -->
<g id="node6" class="node">
<title>SG_0_Node_5</title>
<ellipse fill="none" stroke="#000000" cx="125" cy="-37.2132" rx="34.7971" ry="21.4286"/>
<text text-anchor="middle" x="125" y="-32.2132" font-family="Times,serif" font-size="20.00" fill="#000000">0.0</text>
</g>
<!-- SG_0_Node_2&#45;&gt;SG_0_Node_5 -->
<g id="edge5" class="edge">
<title>SG_0_Node_2&#45;&gt;SG_0_Node_5</title>
<path fill="none" stroke="#000000" d="M161.0384,-179.525C153.2847,-168.521 144.184,-153.8522 139,-139.4264 130.7986,-116.604 127.3564,-89.3305 125.9333,-68.6985"/>
<polygon fill="#000000" stroke="#000000" points="129.4197,-68.359 125.3586,-58.5735 122.431,-68.7557 129.4197,-68.359"/>
<text text-anchor="middle" x="171" y="-123.4264" font-family="Times,serif" font-size="20.00" fill="#000000">[NA]</text>
<text text-anchor="middle" x="171" y="-101.4264" font-family="Times,serif" font-size="20.00" fill="#000000">empty</text>
</g>
<!-- SG_0_Node_6 -->
<g id="node7" class="node">
<title>SG_0_Node_6</title>
<ellipse fill="none" stroke="#000000" cx="225" cy="-37.2132" rx="34.7971" ry="21.4286"/>
<text text-anchor="middle" x="225" y="-32.2132" font-family="Times,serif" font-size="20.00" fill="#000000">1.0</text>
</g>
<!-- SG_0_Node_2&#45;&gt;SG_0_Node_6 -->
<g id="edge6" class="edge">
<title>SG_0_Node_2&#45;&gt;SG_0_Node_6</title>
<path fill="none" stroke="#000000" d="M185.1012,-179.4966C191.0168,-168.242 198.2371,-153.3243 203,-139.4264 210.9679,-116.1767 216.6615,-88.9279 220.2577,-68.414"/>
<polygon fill="#000000" stroke="#000000" points="223.742,-68.7991 221.948,-58.3573 216.8388,-67.6388 223.742,-68.7991"/>
<text text-anchor="middle" x="275" y="-112.4264" font-family="Times,serif" font-size="20.00" fill="#000000">same&#45;origin</text>
</g>
</g>
</svg>
