<?xml version="1.0" encoding="UTF-8" standalone="no"?>
<!DOCTYPE svg PUBLIC "-//W3C//DTD SVG 1.1//EN"
 "http://www.w3.org/Graphics/SVG/1.1/DTD/svg11.dtd">
<!-- Generated by graphviz version 2.40.1 (20161225.0304)
 -->
<!-- Title: G Pages: 1 -->
<svg width="643pt" height="1040pt"
 viewBox="0.00 0.00 643.00 1040.13" xmlns="http://www.w3.org/2000/svg" xmlns:xlink="http://www.w3.org/1999/xlink">
<g id="graph0" class="graph" transform="scale(1 1) rotate(0) translate(4 1036.132)">
<title>G</title>
<polygon fill="#ffffff" stroke="transparent" points="-4,4 -4,-1036.132 639,-1036.132 639,4 -4,4"/>
<g id="clust1" class="cluster">
<title>cluster_0</title>
<polygon fill="none" stroke="#000000" points="8,-8 8,-1024.132 627,-1024.132 627,-8 8,-8"/>
<text text-anchor="middle" x="317.5" y="-988.132" font-family="Times,serif" font-size="40.00" fill="#000000">Tree 0, Class [&#39;error&#39;]</text>
</g>
<!-- SG_0_Node_0 -->
<g id="node1" class="node">
<title>SG_0_Node_0</title>
<polygon fill="none" stroke="#000000" points="320.5,-964.132 255.5,-964.132 255.5,-928.132 320.5,-928.132 320.5,-964.132"/>
<text text-anchor="middle" x="288" y="-941.132" font-family="Times,serif" font-size="20.00" fill="#000000">body</text>
</g>
<!-- SG_0_Node_1 -->
<g id="node2" class="node">
<title>SG_0_Node_1</title>
<polygon fill="none" stroke="#000000" points="333.5,-806.9188 16.5,-806.9188 16.5,-770.9188 333.5,-770.9188 333.5,-806.9188"/>
<text text-anchor="middle" x="175" y="-783.9188" font-family="Times,serif" font-size="20.00" fill="#000000">Cross&#45;Origin&#45;Resource&#45;Policy</text>
</g>
<!-- SG_0_Node_0&#45;&gt;SG_0_Node_1 -->
<g id="edge1" class="edge">
<title>SG_0_Node_0&#45;&gt;SG_0_Node_1</title>
<path fill="none" stroke="#000000" d="M255.2948,-943.5561C195.786,-938.1171 73.572,-923.2272 48,-891.132 35.814,-875.8375 37.4389,-863.5906 48,-847.132 58.1126,-831.3723 73.6762,-819.8237 90.4831,-811.3796"/>
<polygon fill="#000000" stroke="#000000" points="92.3232,-814.3843 99.9216,-807.0008 89.3773,-808.0344 92.3232,-814.3843"/>
<text text-anchor="middle" x="276.5" y="-864.132" font-family="Times,serif" font-size="20.00" fill="#000000">ecocnt_img=width=50,height=50,type=png</text>
</g>
<!-- SG_0_Node_5 -->
<g id="node3" class="node">
<title>SG_0_Node_5</title>
<ellipse fill="none" stroke="#000000" cx="527" cy="-788.9188" rx="34.7971" ry="21.4286"/>
<text text-anchor="middle" x="527" y="-783.9188" font-family="Times,serif" font-size="20.00" fill="#000000">1.0</text>
</g>
<!-- SG_0_Node_0&#45;&gt;SG_0_Node_5 -->
<g id="edge2" class="edge">
<title>SG_0_Node_0&#45;&gt;SG_0_Node_5</title>
<path fill="none" stroke="#000000" d="M320.8629,-942.059C375.0564,-934.6716 479.7069,-917.3585 505,-891.132 522.9485,-872.5212 527.7346,-842.9764 528.4489,-820.4269"/>
<polygon fill="#000000" stroke="#000000" points="531.9495,-820.3347 528.518,-810.311 524.9497,-820.2868 531.9495,-820.3347"/>
<text text-anchor="middle" x="571" y="-875.132" font-family="Times,serif" font-size="20.00" fill="#000000">[NA]</text>
<text text-anchor="middle" x="571" y="-853.132" font-family="Times,serif" font-size="20.00" fill="#000000">11 levels</text>
</g>
<!-- SG_0_Node_2 -->
<g id="node4" class="node">
<title>SG_0_Node_2</title>
<polygon fill="none" stroke="#000000" points="202,-646.4924 60,-646.4924 60,-610.4924 202,-610.4924 202,-646.4924"/>
<text text-anchor="middle" x="131" y="-623.4924" font-family="Times,serif" font-size="20.00" fill="#000000">Status&#45;Code</text>
</g>
<!-- SG_0_Node_1&#45;&gt;SG_0_Node_2 -->
<g id="edge3" class="edge">
<title>SG_0_Node_1&#45;&gt;SG_0_Node_2</title>
<path fill="none" stroke="#000000" d="M170.0382,-770.8277C162.4129,-743.0255 147.7512,-689.5683 138.727,-656.6655"/>
<polygon fill="#000000" stroke="#000000" points="142.0316,-655.4816 136.0112,-646.7636 135.2809,-657.3332 142.0316,-655.4816"/>
<text text-anchor="middle" x="190" y="-703.7056" font-family="Times,serif" font-size="20.00" fill="#000000">empty</text>
</g>
<!-- SG_0_Node_6 -->
<g id="node5" class="node">
<title>SG_0_Node_6</title>
<ellipse fill="none" stroke="#000000" cx="255" cy="-628.4924" rx="34.7971" ry="21.4286"/>
<text text-anchor="middle" x="255" y="-623.4924" font-family="Times,serif" font-size="20.00" fill="#000000">1.0</text>
</g>
<!-- SG_0_Node_1&#45;&gt;SG_0_Node_6 -->
<g id="edge4" class="edge">
<title>SG_0_Node_1&#45;&gt;SG_0_Node_6</title>
<path fill="none" stroke="#000000" d="M194.5902,-770.8915C205.2344,-760.1415 217.8497,-745.6976 226,-730.7056 238.0589,-708.524 245.513,-680.8423 249.8391,-659.883"/>
<polygon fill="#000000" stroke="#000000" points="253.3084,-660.3771 251.7711,-649.8944 246.4357,-659.0478 253.3084,-660.3771"/>
<text text-anchor="middle" x="304" y="-714.7056" font-family="Times,serif" font-size="20.00" fill="#000000">[NA]</text>
<text text-anchor="middle" x="304" y="-692.7056" font-family="Times,serif" font-size="20.00" fill="#000000">same&#45;origin</text>
</g>
<!-- SG_0_Node_7 -->
<g id="node6" class="node">
<title>SG_0_Node_7</title>
<ellipse fill="none" stroke="#000000" cx="74" cy="-468.066" rx="34.7971" ry="21.4286"/>
<text text-anchor="middle" x="74" y="-463.066" font-family="Times,serif" font-size="20.00" fill="#000000">0.0</text>
</g>
<!-- SG_0_Node_2&#45;&gt;SG_0_Node_7 -->
<g id="edge5" class="edge">
<title>SG_0_Node_2&#45;&gt;SG_0_Node_7</title>
<path fill="none" stroke="#000000" d="M113.8263,-610.3052C104.6397,-599.5036 94.0101,-585.0613 88,-570.2792 78.8661,-547.8138 75.4777,-520.5197 74.3123,-499.789"/>
<polygon fill="#000000" stroke="#000000" points="77.8014,-499.452 73.8869,-489.6068 70.8075,-499.7442 77.8014,-499.452"/>
<text text-anchor="middle" x="134" y="-554.2792" font-family="Times,serif" font-size="20.00" fill="#000000">[NA]</text>
<text text-anchor="middle" x="134" y="-532.2792" font-family="Times,serif" font-size="20.00" fill="#000000">50 levels</text>
</g>
<!-- SG_0_Node_3 -->
<g id="node7" class="node">
<title>SG_0_Node_3</title>
<polygon fill="none" stroke="#000000" points="273,-486.066 131,-486.066 131,-450.066 273,-450.066 273,-486.066"/>
<text text-anchor="middle" x="202" y="-463.066" font-family="Times,serif" font-size="20.00" fill="#000000">Status&#45;Code</text>
</g>
<!-- SG_0_Node_2&#45;&gt;SG_0_Node_3 -->
<g id="edge6" class="edge">
<title>SG_0_Node_2&#45;&gt;SG_0_Node_3</title>
<path fill="none" stroke="#000000" d="M150.4056,-610.2656C160.688,-599.5601 172.6727,-585.2245 180,-570.2792 191.4841,-546.8555 197.0076,-517.5173 199.6436,-496.2879"/>
<polygon fill="#000000" stroke="#000000" points="203.1288,-496.6135 200.7472,-486.2898 196.1711,-495.8454 203.1288,-496.6135"/>
<text text-anchor="middle" x="240" y="-543.2792" font-family="Times,serif" font-size="20.00" fill="#000000">13 levels</text>
</g>
<!-- SG_0_Node_4 -->
<g id="node8" class="node">
<title>SG_0_Node_4</title>
<polygon fill="none" stroke="#000000" points="195.5,-215.6396 90.5,-215.6396 90.5,-179.6396 195.5,-179.6396 195.5,-215.6396"/>
<text text-anchor="middle" x="143" y="-192.6396" font-family="Times,serif" font-size="20.00" fill="#000000">Location</text>
</g>
<!-- SG_0_Node_3&#45;&gt;SG_0_Node_4 -->
<g id="edge7" class="edge">
<title>SG_0_Node_3&#45;&gt;SG_0_Node_4</title>
<path fill="none" stroke="#000000" d="M188.7369,-449.8716C181.3874,-438.8402 172.7915,-424.1705 168,-409.8528 146.8176,-346.5569 143.0611,-267.4083 142.6992,-225.9556"/>
<polygon fill="#000000" stroke="#000000" points="146.1988,-225.7751 142.6735,-215.784 139.1989,-225.7928 146.1988,-225.7751"/>
<text text-anchor="middle" x="187.5" y="-382.8528" font-family="Times,serif" font-size="20.00" fill="#000000">300</text>
<text text-anchor="middle" x="187.5" y="-360.8528" font-family="Times,serif" font-size="20.00" fill="#000000">301</text>
<text text-anchor="middle" x="187.5" y="-338.8528" font-family="Times,serif" font-size="20.00" fill="#000000">302</text>
<text text-anchor="middle" x="187.5" y="-316.8528" font-family="Times,serif" font-size="20.00" fill="#000000">303</text>
<text text-anchor="middle" x="187.5" y="-294.8528" font-family="Times,serif" font-size="20.00" fill="#000000">307</text>
<text text-anchor="middle" x="187.5" y="-272.8528" font-family="Times,serif" font-size="20.00" fill="#000000">308</text>
</g>
<!-- SG_0_Node_8 -->
<g id="node9" class="node">
<title>SG_0_Node_8</title>
<ellipse fill="none" stroke="#000000" cx="248" cy="-197.6396" rx="34.7971" ry="21.4286"/>
<text text-anchor="middle" x="248" y="-192.6396" font-family="Times,serif" font-size="20.00" fill="#000000">1.0</text>
</g>
<!-- SG_0_Node_3&#45;&gt;SG_0_Node_8 -->
<g id="edge8" class="edge">
<title>SG_0_Node_3&#45;&gt;SG_0_Node_8</title>
<path fill="none" stroke="#000000" d="M205.0896,-449.9027C212.8079,-404.5283 233.0049,-285.7931 242.6816,-228.9059"/>
<polygon fill="#000000" stroke="#000000" points="246.134,-229.4805 244.3606,-219.0351 239.2331,-228.3066 246.134,-229.4805"/>
<text text-anchor="middle" x="257.5" y="-393.8528" font-family="Times,serif" font-size="20.00" fill="#000000">100</text>
<text text-anchor="middle" x="257.5" y="-371.8528" font-family="Times,serif" font-size="20.00" fill="#000000">101</text>
<text text-anchor="middle" x="257.5" y="-349.8528" font-family="Times,serif" font-size="20.00" fill="#000000">102</text>
<text text-anchor="middle" x="257.5" y="-327.8528" font-family="Times,serif" font-size="20.00" fill="#000000">103</text>
<text text-anchor="middle" x="257.5" y="-305.8528" font-family="Times,serif" font-size="20.00" fill="#000000">204</text>
<text text-anchor="middle" x="257.5" y="-283.8528" font-family="Times,serif" font-size="20.00" fill="#000000">205</text>
<text text-anchor="middle" x="257.5" y="-261.8528" font-family="Times,serif" font-size="20.00" fill="#000000">304</text>
</g>
<!-- SG_0_Node_9 -->
<g id="node10" class="node">
<title>SG_0_Node_9</title>
<ellipse fill="none" stroke="#000000" cx="81" cy="-37.2132" rx="34.7971" ry="21.4286"/>
<text text-anchor="middle" x="81" y="-32.2132" font-family="Times,serif" font-size="20.00" fill="#000000">0.0</text>
</g>
<!-- SG_0_Node_4&#45;&gt;SG_0_Node_9 -->
<g id="edge9" class="edge">
<title>SG_0_Node_4&#45;&gt;SG_0_Node_9</title>
<path fill="none" stroke="#000000" d="M119.4437,-179.5137C107.8239,-169.1428 94.8592,-155.0923 88,-139.4264 78.2798,-117.2265 76.9235,-89.7039 77.7814,-68.8128"/>
<polygon fill="#000000" stroke="#000000" points="81.2916,-68.7484 78.3994,-58.556 74.3042,-68.3274 81.2916,-68.7484"/>
<text text-anchor="middle" x="120" y="-123.4264" font-family="Times,serif" font-size="20.00" fill="#000000">[NA]</text>
<text text-anchor="middle" x="120" y="-101.4264" font-family="Times,serif" font-size="20.00" fill="#000000">empty</text>
</g>
<!-- SG_0_Node_10 -->
<g id="node11" class="node">
<title>SG_0_Node_10</title>
<ellipse fill="none" stroke="#000000" cx="181" cy="-37.2132" rx="34.7971" ry="21.4286"/>
<text text-anchor="middle" x="181" y="-32.2132" font-family="Times,serif" font-size="20.00" fill="#000000">1.0</text>
</g>
<!-- SG_0_Node_4&#45;&gt;SG_0_Node_10 -->
<g id="edge10" class="edge">
<title>SG_0_Node_4&#45;&gt;SG_0_Node_10</title>
<path fill="none" stroke="#000000" d="M147.2852,-179.5485C153.678,-152.5596 165.7974,-101.3949 173.6304,-68.3256"/>
<polygon fill="#000000" stroke="#000000" points="177.1111,-68.8157 176.0104,-58.2782 170.2996,-67.2022 177.1111,-68.8157"/>
<text text-anchor="middle" x="282" y="-112.4264" font-family="Times,serif" font-size="20.00" fill="#000000">http://172.17.0.1:8000</text>
</g>
</g>
</svg>
