<?xml version="1.0" encoding="UTF-8" standalone="no"?>
<!DOCTYPE svg PUBLIC "-//W3C//DTD SVG 1.1//EN"
 "http://www.w3.org/Graphics/SVG/1.1/DTD/svg11.dtd">
<!-- Generated by graphviz version 2.40.1 (20161225.0304)
 -->
<!-- Title: G Pages: 1 -->
<svg width="572pt" height="1377pt"
 viewBox="0.00 0.00 572.00 1376.56" xmlns="http://www.w3.org/2000/svg" xmlns:xlink="http://www.w3.org/1999/xlink">
<g id="graph0" class="graph" transform="scale(1 1) rotate(0) translate(4 1372.5584)">
<title>G</title>
<polygon fill="#ffffff" stroke="transparent" points="-4,4 -4,-1372.5584 568,-1372.5584 568,4 -4,4"/>
<g id="clust1" class="cluster">
<title>cluster_0</title>
<polygon fill="none" stroke="#000000" points="8,-8 8,-1360.5584 458,-1360.5584 458,-8 8,-8"/>
<text text-anchor="middle" x="233" y="-1324.5584" font-family="Times,serif" font-size="40.00" fill="#000000">Tree 0, Class [&#39;error&#39;]</text>
</g>
<!-- SG_0_Node_0 -->
<g id="node1" class="node">
<title>SG_0_Node_0</title>
<polygon fill="none" stroke="#000000" points="184,-1300.5584 42,-1300.5584 42,-1264.5584 184,-1264.5584 184,-1300.5584"/>
<text text-anchor="middle" x="113" y="-1277.5584" font-family="Times,serif" font-size="20.00" fill="#000000">Status&#45;Code</text>
</g>
<!-- SG_0_Node_6 -->
<g id="node2" class="node">
<title>SG_0_Node_6</title>
<ellipse fill="none" stroke="#000000" cx="79" cy="-1103.3452" rx="34.7971" ry="21.4286"/>
<text text-anchor="middle" x="79" y="-1098.3452" font-family="Times,serif" font-size="20.00" fill="#000000">0.0</text>
</g>
<!-- SG_0_Node_0&#45;&gt;SG_0_Node_6 -->
<g id="edge1" class="edge">
<title>SG_0_Node_0&#45;&gt;SG_0_Node_6</title>
<path fill="none" stroke="#000000" d="M109.5528,-1264.3883C103.766,-1233.886 92.0336,-1172.0451 84.9102,-1134.4979"/>
<polygon fill="#000000" stroke="#000000" points="88.3347,-1133.7705 83.0321,-1124.5981 81.4574,-1135.0753 88.3347,-1133.7705"/>
<text text-anchor="middle" x="121.5" y="-1211.5584" font-family="Times,serif" font-size="20.00" fill="#000000">100</text>
<text text-anchor="middle" x="121.5" y="-1189.5584" font-family="Times,serif" font-size="20.00" fill="#000000">102</text>
<text text-anchor="middle" x="121.5" y="-1167.5584" font-family="Times,serif" font-size="20.00" fill="#000000">103</text>
</g>
<!-- SG_0_Node_1 -->
<g id="node3" class="node">
<title>SG_0_Node_1</title>
<polygon fill="none" stroke="#000000" points="274,-1121.3452 132,-1121.3452 132,-1085.3452 274,-1085.3452 274,-1121.3452"/>
<text text-anchor="middle" x="203" y="-1098.3452" font-family="Times,serif" font-size="20.00" fill="#000000">Status&#45;Code</text>
</g>
<!-- SG_0_Node_0&#45;&gt;SG_0_Node_1 -->
<g id="edge2" class="edge">
<title>SG_0_Node_0&#45;&gt;SG_0_Node_1</title>
<path fill="none" stroke="#000000" d="M124.0849,-1264.456C130.4465,-1253.8385 138.4465,-1240.0885 145,-1227.5584 162.041,-1194.9768 179.6373,-1156.4825 190.9124,-1131.078"/>
<polygon fill="#000000" stroke="#000000" points="194.2167,-1132.2594 195.0523,-1121.6976 187.8126,-1129.4331 194.2167,-1132.2594"/>
<text text-anchor="middle" x="222" y="-1200.5584" font-family="Times,serif" font-size="20.00" fill="#000000">[NA]</text>
<text text-anchor="middle" x="222" y="-1178.5584" font-family="Times,serif" font-size="20.00" fill="#000000">60 levels</text>
</g>
<!-- SG_0_Node_2 -->
<g id="node4" class="node">
<title>SG_0_Node_2</title>
<polygon fill="none" stroke="#000000" points="202.5,-784.9188 47.5,-784.9188 47.5,-748.9188 202.5,-748.9188 202.5,-784.9188"/>
<text text-anchor="middle" x="125" y="-761.9188" font-family="Times,serif" font-size="20.00" fill="#000000">Content&#45;Type</text>
</g>
<!-- SG_0_Node_1&#45;&gt;SG_0_Node_2 -->
<g id="edge3" class="edge">
<title>SG_0_Node_1&#45;&gt;SG_0_Node_2</title>
<path fill="none" stroke="#000000" d="M190.1145,-1085.3352C182.8011,-1074.25 174.1133,-1059.4623 169,-1045.132 137.7665,-957.5984 128.6576,-846.6951 126.0372,-795.3664"/>
<polygon fill="#000000" stroke="#000000" points="129.519,-794.8896 125.559,-785.0627 122.5265,-795.2142 129.519,-794.8896"/>
<text text-anchor="middle" x="188.5" y="-1029.132" font-family="Times,serif" font-size="20.00" fill="#000000">200</text>
<text text-anchor="middle" x="188.5" y="-1007.132" font-family="Times,serif" font-size="20.00" fill="#000000">201</text>
<text text-anchor="middle" x="188.5" y="-985.132" font-family="Times,serif" font-size="20.00" fill="#000000">202</text>
<text text-anchor="middle" x="188.5" y="-963.132" font-family="Times,serif" font-size="20.00" fill="#000000">203</text>
<text text-anchor="middle" x="188.5" y="-941.132" font-family="Times,serif" font-size="20.00" fill="#000000">204</text>
<text text-anchor="middle" x="188.5" y="-919.132" font-family="Times,serif" font-size="20.00" fill="#000000">205</text>
<text text-anchor="middle" x="188.5" y="-897.132" font-family="Times,serif" font-size="20.00" fill="#000000">206</text>
<text text-anchor="middle" x="188.5" y="-875.132" font-family="Times,serif" font-size="20.00" fill="#000000">207</text>
<text text-anchor="middle" x="188.5" y="-853.132" font-family="Times,serif" font-size="20.00" fill="#000000">208</text>
<text text-anchor="middle" x="188.5" y="-831.132" font-family="Times,serif" font-size="20.00" fill="#000000">226</text>
</g>
<!-- SG_0_Node_7 -->
<g id="node5" class="node">
<title>SG_0_Node_7</title>
<ellipse fill="none" stroke="#000000" cx="255" cy="-766.9188" rx="34.7971" ry="21.4286"/>
<text text-anchor="middle" x="255" y="-761.9188" font-family="Times,serif" font-size="20.00" fill="#000000">1.0</text>
</g>
<!-- SG_0_Node_1&#45;&gt;SG_0_Node_7 -->
<g id="edge4" class="edge">
<title>SG_0_Node_1&#45;&gt;SG_0_Node_7</title>
<path fill="none" stroke="#000000" d="M205.7957,-1085.2575C214.226,-1030.7161 239.4715,-867.3843 250.1476,-798.3125"/>
<polygon fill="#000000" stroke="#000000" points="253.6625,-798.4846 251.7312,-788.0673 246.7446,-797.4153 253.6625,-798.4846"/>
<text text-anchor="middle" x="291" y="-941.132" font-family="Times,serif" font-size="20.00" fill="#000000">[NA]</text>
<text text-anchor="middle" x="291" y="-919.132" font-family="Times,serif" font-size="20.00" fill="#000000">50 levels</text>
</g>
<!-- SG_0_Node_3 -->
<g id="node6" class="node">
<title>SG_0_Node_3</title>
<polygon fill="none" stroke="#000000" points="333.5,-514.4924 16.5,-514.4924 16.5,-478.4924 333.5,-478.4924 333.5,-514.4924"/>
<text text-anchor="middle" x="175" y="-491.4924" font-family="Times,serif" font-size="20.00" fill="#000000">Cross&#45;Origin&#45;Resource&#45;Policy</text>
</g>
<!-- SG_0_Node_2&#45;&gt;SG_0_Node_3 -->
<g id="edge5" class="edge">
<title>SG_0_Node_2&#45;&gt;SG_0_Node_3</title>
<path fill="none" stroke="#000000" d="M121.2564,-748.8802C114.2982,-711.3564 102.21,-622.7281 127,-554.7056 131.3801,-542.6869 139.4034,-531.3665 147.6529,-521.9608"/>
<polygon fill="#000000" stroke="#000000" points="150.311,-524.2421 154.5607,-514.5369 145.1863,-519.4736 150.311,-524.2421"/>
<text text-anchor="middle" x="166.5" y="-637.7056" font-family="Times,serif" font-size="20.00" fill="#000000">empty</text>
<text text-anchor="middle" x="166.5" y="-615.7056" font-family="Times,serif" font-size="20.00" fill="#000000">text/css</text>
</g>
<!-- SG_0_Node_8 -->
<g id="node7" class="node">
<title>SG_0_Node_8</title>
<ellipse fill="none" stroke="#000000" cx="386" cy="-496.4924" rx="34.7971" ry="21.4286"/>
<text text-anchor="middle" x="386" y="-491.4924" font-family="Times,serif" font-size="20.00" fill="#000000">1.0</text>
</g>
<!-- SG_0_Node_2&#45;&gt;SG_0_Node_8 -->
<g id="edge6" class="edge">
<title>SG_0_Node_2&#45;&gt;SG_0_Node_8</title>
<path fill="none" stroke="#000000" d="M153.6621,-748.8327C169.7757,-738.0637 189.8368,-723.6204 206,-708.7056 270.7715,-648.9369 334.6374,-566.5846 365.9954,-524.1885"/>
<polygon fill="#000000" stroke="#000000" points="368.9005,-526.1457 372.0033,-516.0154 363.2604,-521.9997 368.9005,-526.1457"/>
<text text-anchor="middle" x="453" y="-692.7056" font-family="Times,serif" font-size="20.00" fill="#000000">[NA]</text>
<text text-anchor="middle" x="453" y="-670.7056" font-family="Times,serif" font-size="20.00" fill="#000000">application/javascript</text>
<text text-anchor="middle" x="453" y="-648.7056" font-family="Times,serif" font-size="20.00" fill="#000000">application/pdf</text>
<text text-anchor="middle" x="453" y="-626.7056" font-family="Times,serif" font-size="20.00" fill="#000000">audio/wav</text>
<text text-anchor="middle" x="453" y="-604.7056" font-family="Times,serif" font-size="20.00" fill="#000000">image/png</text>
<text text-anchor="middle" x="453" y="-582.7056" font-family="Times,serif" font-size="20.00" fill="#000000">text/html</text>
<text text-anchor="middle" x="453" y="-560.7056" font-family="Times,serif" font-size="20.00" fill="#000000">video/mp4</text>
</g>
<!-- SG_0_Node_4 -->
<g id="node8" class="node">
<title>SG_0_Node_4</title>
<polygon fill="none" stroke="#000000" points="280,-354.066 18,-354.066 18,-318.066 280,-318.066 280,-354.066"/>
<text text-anchor="middle" x="149" y="-331.066" font-family="Times,serif" font-size="20.00" fill="#000000">X&#45;Content&#45;Type&#45;Options</text>
</g>
<!-- SG_0_Node_3&#45;&gt;SG_0_Node_4 -->
<g id="edge7" class="edge">
<title>SG_0_Node_3&#45;&gt;SG_0_Node_4</title>
<path fill="none" stroke="#000000" d="M172.068,-478.4013C167.5622,-450.5991 158.8984,-397.1419 153.566,-364.2391"/>
<polygon fill="#000000" stroke="#000000" points="157.016,-363.6484 151.9612,-354.3371 150.1061,-364.7683 157.016,-363.6484"/>
<text text-anchor="middle" x="197" y="-411.2792" font-family="Times,serif" font-size="20.00" fill="#000000">empty</text>
</g>
<!-- SG_0_Node_9 -->
<g id="node9" class="node">
<title>SG_0_Node_9</title>
<ellipse fill="none" stroke="#000000" cx="333" cy="-336.066" rx="34.7971" ry="21.4286"/>
<text text-anchor="middle" x="333" y="-331.066" font-family="Times,serif" font-size="20.00" fill="#000000">1.0</text>
</g>
<!-- SG_0_Node_3&#45;&gt;SG_0_Node_9 -->
<g id="edge8" class="edge">
<title>SG_0_Node_3&#45;&gt;SG_0_Node_9</title>
<path fill="none" stroke="#000000" d="M193.0693,-478.4416C204.5348,-466.9667 219.669,-451.7817 233,-438.2792 258.6312,-412.3184 287.7877,-382.4814 307.9762,-361.773"/>
<polygon fill="#000000" stroke="#000000" points="310.5126,-364.1852 314.9852,-354.5807 305.4993,-359.2997 310.5126,-364.1852"/>
<text text-anchor="middle" x="336" y="-422.2792" font-family="Times,serif" font-size="20.00" fill="#000000">[NA]</text>
<text text-anchor="middle" x="336" y="-400.2792" font-family="Times,serif" font-size="20.00" fill="#000000">same&#45;origin</text>
</g>
<!-- SG_0_Node_10 -->
<g id="node10" class="node">
<title>SG_0_Node_10</title>
<ellipse fill="none" stroke="#000000" cx="100" cy="-175.6396" rx="34.7971" ry="21.4286"/>
<text text-anchor="middle" x="100" y="-170.6396" font-family="Times,serif" font-size="20.00" fill="#000000">0.0</text>
</g>
<!-- SG_0_Node_4&#45;&gt;SG_0_Node_10 -->
<g id="edge9" class="edge">
<title>SG_0_Node_4&#45;&gt;SG_0_Node_10</title>
<path fill="none" stroke="#000000" d="M143.4743,-317.9749C135.1953,-290.8692 119.468,-239.3779 109.372,-206.3236"/>
<polygon fill="#000000" stroke="#000000" points="112.7026,-205.2461 106.434,-196.7046 106.0079,-207.2909 112.7026,-205.2461"/>
<text text-anchor="middle" x="162" y="-250.8528" font-family="Times,serif" font-size="20.00" fill="#000000">empty</text>
</g>
<!-- SG_0_Node_5 -->
<g id="node11" class="node">
<title>SG_0_Node_5</title>
<polygon fill="none" stroke="#000000" points="307.5,-193.6396 152.5,-193.6396 152.5,-157.6396 307.5,-157.6396 307.5,-193.6396"/>
<text text-anchor="middle" x="230" y="-170.6396" font-family="Times,serif" font-size="20.00" fill="#000000">Content&#45;Type</text>
</g>
<!-- SG_0_Node_4&#45;&gt;SG_0_Node_5 -->
<g id="edge10" class="edge">
<title>SG_0_Node_4&#45;&gt;SG_0_Node_5</title>
<path fill="none" stroke="#000000" d="M167.6427,-317.8244C177.8117,-307.0053 189.9341,-292.5635 198,-277.8528 210.8483,-254.42 219.356,-225.083 224.3473,-203.8563"/>
<polygon fill="#000000" stroke="#000000" points="227.816,-204.3821 226.58,-193.8597 220.9843,-202.8563 227.816,-204.3821"/>
<text text-anchor="middle" x="250" y="-261.8528" font-family="Times,serif" font-size="20.00" fill="#000000">[NA]</text>
<text text-anchor="middle" x="250" y="-239.8528" font-family="Times,serif" font-size="20.00" fill="#000000">nosniff</text>
</g>
<!-- SG_0_Node_11 -->
<g id="node12" class="node">
<title>SG_0_Node_11</title>
<ellipse fill="none" stroke="#000000" cx="172" cy="-37.2132" rx="34.7971" ry="21.4286"/>
<text text-anchor="middle" x="172" y="-32.2132" font-family="Times,serif" font-size="20.00" fill="#000000">0.0</text>
</g>
<!-- SG_0_Node_5&#45;&gt;SG_0_Node_11 -->
<g id="edge11" class="edge">
<title>SG_0_Node_5&#45;&gt;SG_0_Node_11</title>
<path fill="none" stroke="#000000" d="M204.1225,-157.4582C191.9093,-147.2585 178.5914,-133.3809 172,-117.4264 165.6922,-102.1585 165.2302,-83.8169 166.5508,-68.5284"/>
<polygon fill="#000000" stroke="#000000" points="170.0378,-68.8409 167.6999,-58.5072 163.0834,-68.0434 170.0378,-68.8409"/>
<text text-anchor="middle" x="211.5" y="-101.4264" font-family="Times,serif" font-size="20.00" fill="#000000">text/css</text>
</g>
<!-- SG_0_Node_12 -->
<g id="node13" class="node">
<title>SG_0_Node_12</title>
<ellipse fill="none" stroke="#000000" cx="287" cy="-37.2132" rx="34.7971" ry="21.4286"/>
<text text-anchor="middle" x="287" y="-32.2132" font-family="Times,serif" font-size="20.00" fill="#000000">1.0</text>
</g>
<!-- SG_0_Node_5&#45;&gt;SG_0_Node_12 -->
<g id="edge12" class="edge">
<title>SG_0_Node_5&#45;&gt;SG_0_Node_12</title>
<path fill="none" stroke="#000000" d="M237.8917,-157.5979C242.8738,-146.1266 249.403,-130.942 255,-117.4264 261.8232,-100.9497 269.2141,-82.4676 275.1721,-67.4007"/>
<polygon fill="#000000" stroke="#000000" points="278.4477,-68.6349 278.8601,-58.0481 271.9357,-66.067 278.4477,-68.6349"/>
<text text-anchor="middle" x="295" y="-101.4264" font-family="Times,serif" font-size="20.00" fill="#000000">empty</text>
</g>
</g>
</svg>
