<?xml version="1.0" encoding="UTF-8" standalone="no"?>
<!DOCTYPE svg PUBLIC "-//W3C//DTD SVG 1.1//EN"
 "http://www.w3.org/Graphics/SVG/1.1/DTD/svg11.dtd">
<!-- Generated by graphviz version 2.40.1 (20161225.0304)
 -->
<!-- Title: G Pages: 1 -->
<svg width="481pt" height="1443pt"
 viewBox="0.00 0.00 481.00 1442.56" xmlns="http://www.w3.org/2000/svg" xmlns:xlink="http://www.w3.org/1999/xlink">
<g id="graph0" class="graph" transform="scale(1 1) rotate(0) translate(4 1438.5584)">
<title>G</title>
<polygon fill="#ffffff" stroke="transparent" points="-4,4 -4,-1438.5584 477,-1438.5584 477,4 -4,4"/>
<g id="clust1" class="cluster">
<title>cluster_0</title>
<polygon fill="none" stroke="#000000" points="8,-8 8,-1426.5584 458,-1426.5584 458,-8 8,-8"/>
<text text-anchor="middle" x="233" y="-1390.5584" font-family="Times,serif" font-size="40.00" fill="#000000">Tree 0, Class [&#39;error&#39;]</text>
</g>
<!-- SG_0_Node_0 -->
<g id="node1" class="node">
<title>SG_0_Node_0</title>
<polygon fill="none" stroke="#000000" points="282,-1366.5584 140,-1366.5584 140,-1330.5584 282,-1330.5584 282,-1366.5584"/>
<text text-anchor="middle" x="211" y="-1343.5584" font-family="Times,serif" font-size="20.00" fill="#000000">Status&#45;Code</text>
</g>
<!-- SG_0_Node_6 -->
<g id="node2" class="node">
<title>SG_0_Node_6</title>
<ellipse fill="none" stroke="#000000" cx="150" cy="-1169.3452" rx="34.7971" ry="21.4286"/>
<text text-anchor="middle" x="150" y="-1164.3452" font-family="Times,serif" font-size="20.00" fill="#000000">0.0</text>
</g>
<!-- SG_0_Node_0&#45;&gt;SG_0_Node_6 -->
<g id="edge1" class="edge">
<title>SG_0_Node_0&#45;&gt;SG_0_Node_6</title>
<path fill="none" stroke="#000000" d="M204.8153,-1330.3883C194.4053,-1299.8047 173.2715,-1237.7151 160.5016,-1200.198"/>
<polygon fill="#000000" stroke="#000000" points="163.6731,-1198.6534 157.1375,-1190.3145 157.0464,-1200.909 163.6731,-1198.6534"/>
<text text-anchor="middle" x="210.5" y="-1277.5584" font-family="Times,serif" font-size="20.00" fill="#000000">100</text>
<text text-anchor="middle" x="210.5" y="-1255.5584" font-family="Times,serif" font-size="20.00" fill="#000000">102</text>
<text text-anchor="middle" x="210.5" y="-1233.5584" font-family="Times,serif" font-size="20.00" fill="#000000">103</text>
</g>
<!-- SG_0_Node_1 -->
<g id="node3" class="node">
<title>SG_0_Node_1</title>
<polygon fill="none" stroke="#000000" points="345,-1187.3452 203,-1187.3452 203,-1151.3452 345,-1151.3452 345,-1187.3452"/>
<text text-anchor="middle" x="274" y="-1164.3452" font-family="Times,serif" font-size="20.00" fill="#000000">Status&#45;Code</text>
</g>
<!-- SG_0_Node_0&#45;&gt;SG_0_Node_1 -->
<g id="edge2" class="edge">
<title>SG_0_Node_0&#45;&gt;SG_0_Node_1</title>
<path fill="none" stroke="#000000" d="M219.0575,-1330.3789C223.6599,-1319.7357 229.4099,-1305.9857 234,-1293.5584 246.0732,-1260.8709 258.0781,-1222.6234 265.7385,-1197.2964"/>
<polygon fill="#000000" stroke="#000000" points="269.1226,-1198.1962 268.6462,-1187.6121 262.4183,-1196.1832 269.1226,-1198.1962"/>
<text text-anchor="middle" x="302" y="-1266.5584" font-family="Times,serif" font-size="20.00" fill="#000000">[NA]</text>
<text text-anchor="middle" x="302" y="-1244.5584" font-family="Times,serif" font-size="20.00" fill="#000000">60 levels</text>
</g>
<!-- SG_0_Node_2 -->
<g id="node4" class="node">
<title>SG_0_Node_2</title>
<polygon fill="none" stroke="#000000" points="347.5,-850.9188 30.5,-850.9188 30.5,-814.9188 347.5,-814.9188 347.5,-850.9188"/>
<text text-anchor="middle" x="189" y="-827.9188" font-family="Times,serif" font-size="20.00" fill="#000000">Cross&#45;Origin&#45;Resource&#45;Policy</text>
</g>
<!-- SG_0_Node_1&#45;&gt;SG_0_Node_2 -->
<g id="edge3" class="edge">
<title>SG_0_Node_1&#45;&gt;SG_0_Node_2</title>
<path fill="none" stroke="#000000" d="M269.43,-1151.2575C255.4207,-1095.8092 213.0033,-927.9228 196.0813,-860.9462"/>
<polygon fill="#000000" stroke="#000000" points="199.4356,-859.934 193.5926,-851.096 192.6489,-861.6487 199.4356,-859.934"/>
<text text-anchor="middle" x="278.5" y="-1095.132" font-family="Times,serif" font-size="20.00" fill="#000000">200</text>
<text text-anchor="middle" x="278.5" y="-1073.132" font-family="Times,serif" font-size="20.00" fill="#000000">201</text>
<text text-anchor="middle" x="278.5" y="-1051.132" font-family="Times,serif" font-size="20.00" fill="#000000">202</text>
<text text-anchor="middle" x="278.5" y="-1029.132" font-family="Times,serif" font-size="20.00" fill="#000000">203</text>
<text text-anchor="middle" x="278.5" y="-1007.132" font-family="Times,serif" font-size="20.00" fill="#000000">204</text>
<text text-anchor="middle" x="278.5" y="-985.132" font-family="Times,serif" font-size="20.00" fill="#000000">205</text>
<text text-anchor="middle" x="278.5" y="-963.132" font-family="Times,serif" font-size="20.00" fill="#000000">206</text>
<text text-anchor="middle" x="278.5" y="-941.132" font-family="Times,serif" font-size="20.00" fill="#000000">207</text>
<text text-anchor="middle" x="278.5" y="-919.132" font-family="Times,serif" font-size="20.00" fill="#000000">208</text>
<text text-anchor="middle" x="278.5" y="-897.132" font-family="Times,serif" font-size="20.00" fill="#000000">226</text>
</g>
<!-- SG_0_Node_7 -->
<g id="node5" class="node">
<title>SG_0_Node_7</title>
<ellipse fill="none" stroke="#000000" cx="400" cy="-832.9188" rx="34.7971" ry="21.4286"/>
<text text-anchor="middle" x="400" y="-827.9188" font-family="Times,serif" font-size="20.00" fill="#000000">1.0</text>
</g>
<!-- SG_0_Node_1&#45;&gt;SG_0_Node_7 -->
<g id="edge4" class="edge">
<title>SG_0_Node_1&#45;&gt;SG_0_Node_7</title>
<path fill="none" stroke="#000000" d="M283.3489,-1151.2258C289.057,-1139.854 296.324,-1124.8041 302,-1111.132 338.7237,-1022.6737 374.0962,-914.9692 390.4901,-863.3564"/>
<polygon fill="#000000" stroke="#000000" points="393.8327,-864.394 393.5106,-853.8041 387.1584,-862.2835 393.8327,-864.394"/>
<text text-anchor="middle" x="427" y="-1007.132" font-family="Times,serif" font-size="20.00" fill="#000000">[NA]</text>
<text text-anchor="middle" x="427" y="-985.132" font-family="Times,serif" font-size="20.00" fill="#000000">50 levels</text>
</g>
<!-- SG_0_Node_3 -->
<g id="node6" class="node">
<title>SG_0_Node_3</title>
<polygon fill="none" stroke="#000000" points="173.5,-690.4924 18.5,-690.4924 18.5,-654.4924 173.5,-654.4924 173.5,-690.4924"/>
<text text-anchor="middle" x="96" y="-667.4924" font-family="Times,serif" font-size="20.00" fill="#000000">Content&#45;Type</text>
</g>
<!-- SG_0_Node_2&#45;&gt;SG_0_Node_3 -->
<g id="edge5" class="edge">
<title>SG_0_Node_2&#45;&gt;SG_0_Node_3</title>
<path fill="none" stroke="#000000" d="M168.2826,-814.8928C156.9358,-804.1432 143.3269,-789.6993 134,-774.7056 119.5626,-751.4966 109.3235,-721.9562 103.1391,-700.6075"/>
<polygon fill="#000000" stroke="#000000" points="106.4772,-699.5472 100.4283,-690.8489 99.7326,-701.4209 106.4772,-699.5472"/>
<text text-anchor="middle" x="166" y="-758.7056" font-family="Times,serif" font-size="20.00" fill="#000000">[NA]</text>
<text text-anchor="middle" x="166" y="-736.7056" font-family="Times,serif" font-size="20.00" fill="#000000">empty</text>
</g>
<!-- SG_0_Node_8 -->
<g id="node7" class="node">
<title>SG_0_Node_8</title>
<ellipse fill="none" stroke="#000000" cx="226" cy="-672.4924" rx="34.7971" ry="21.4286"/>
<text text-anchor="middle" x="226" y="-667.4924" font-family="Times,serif" font-size="20.00" fill="#000000">1.0</text>
</g>
<!-- SG_0_Node_2&#45;&gt;SG_0_Node_8 -->
<g id="edge6" class="edge">
<title>SG_0_Node_2&#45;&gt;SG_0_Node_8</title>
<path fill="none" stroke="#000000" d="M193.1724,-814.8277C199.397,-787.8389 211.1974,-736.6741 218.8244,-703.6048"/>
<polygon fill="#000000" stroke="#000000" points="222.3047,-704.0883 221.1417,-693.5575 215.4838,-702.5151 222.3047,-704.0883"/>
<text text-anchor="middle" x="273" y="-747.7056" font-family="Times,serif" font-size="20.00" fill="#000000">same&#45;origin</text>
</g>
<!-- SG_0_Node_4 -->
<g id="node8" class="node">
<title>SG_0_Node_4</title>
<polygon fill="none" stroke="#000000" points="278,-442.066 16,-442.066 16,-406.066 278,-406.066 278,-442.066"/>
<text text-anchor="middle" x="147" y="-419.066" font-family="Times,serif" font-size="20.00" fill="#000000">X&#45;Content&#45;Type&#45;Options</text>
</g>
<!-- SG_0_Node_3&#45;&gt;SG_0_Node_4 -->
<g id="edge7" class="edge">
<title>SG_0_Node_3&#45;&gt;SG_0_Node_4</title>
<path fill="none" stroke="#000000" d="M92.1002,-654.4511C85.4557,-619.7786 74.6997,-541.9861 97,-482.2792 101.5158,-470.1887 109.7738,-458.9126 118.2953,-449.5659"/>
<polygon fill="#000000" stroke="#000000" points="120.994,-451.8103 125.4388,-442.1929 115.9666,-446.9394 120.994,-451.8103"/>
<text text-anchor="middle" x="208" y="-598.2792" font-family="Times,serif" font-size="20.00" fill="#000000">[NA]</text>
<text text-anchor="middle" x="208" y="-576.2792" font-family="Times,serif" font-size="20.00" fill="#000000">application/javascript</text>
<text text-anchor="middle" x="208" y="-554.2792" font-family="Times,serif" font-size="20.00" fill="#000000">application/pdf</text>
<text text-anchor="middle" x="208" y="-532.2792" font-family="Times,serif" font-size="20.00" fill="#000000">empty</text>
<text text-anchor="middle" x="208" y="-510.2792" font-family="Times,serif" font-size="20.00" fill="#000000">text/css</text>
<text text-anchor="middle" x="208" y="-488.2792" font-family="Times,serif" font-size="20.00" fill="#000000">text/html</text>
</g>
<!-- SG_0_Node_9 -->
<g id="node9" class="node">
<title>SG_0_Node_9</title>
<ellipse fill="none" stroke="#000000" cx="341" cy="-424.066" rx="34.7971" ry="21.4286"/>
<text text-anchor="middle" x="341" y="-419.066" font-family="Times,serif" font-size="20.00" fill="#000000">1.0</text>
</g>
<!-- SG_0_Node_3&#45;&gt;SG_0_Node_9 -->
<g id="edge8" class="edge">
<title>SG_0_Node_3&#45;&gt;SG_0_Node_9</title>
<path fill="none" stroke="#000000" d="M169.1005,-654.438C233.135,-638.4664 316.425,-617.2431 319,-614.2792 357.3079,-570.1856 353.3943,-497.0147 347.1707,-455.4521"/>
<polygon fill="#000000" stroke="#000000" points="350.5878,-454.6605 345.5192,-445.3568 343.6796,-455.7907 350.5878,-454.6605"/>
<text text-anchor="middle" x="405.5" y="-565.2792" font-family="Times,serif" font-size="20.00" fill="#000000">audio/wav</text>
<text text-anchor="middle" x="405.5" y="-543.2792" font-family="Times,serif" font-size="20.00" fill="#000000">image/png</text>
<text text-anchor="middle" x="405.5" y="-521.2792" font-family="Times,serif" font-size="20.00" fill="#000000">video/mp4</text>
</g>
<!-- SG_0_Node_10 -->
<g id="node10" class="node">
<title>SG_0_Node_10</title>
<ellipse fill="none" stroke="#000000" cx="99" cy="-263.6396" rx="34.7971" ry="21.4286"/>
<text text-anchor="middle" x="99" y="-258.6396" font-family="Times,serif" font-size="20.00" fill="#000000">0.0</text>
</g>
<!-- SG_0_Node_4&#45;&gt;SG_0_Node_10 -->
<g id="edge9" class="edge">
<title>SG_0_Node_4&#45;&gt;SG_0_Node_10</title>
<path fill="none" stroke="#000000" d="M141.5871,-405.9749C133.477,-378.8692 118.0707,-327.3779 108.1807,-294.3236"/>
<polygon fill="#000000" stroke="#000000" points="111.5224,-293.2817 105.3027,-284.7046 104.8161,-295.2883 111.5224,-293.2817"/>
<text text-anchor="middle" x="161" y="-349.8528" font-family="Times,serif" font-size="20.00" fill="#000000">[NA]</text>
<text text-anchor="middle" x="161" y="-327.8528" font-family="Times,serif" font-size="20.00" fill="#000000">empty</text>
</g>
<!-- SG_0_Node_5 -->
<g id="node11" class="node">
<title>SG_0_Node_5</title>
<polygon fill="none" stroke="#000000" points="306.5,-281.6396 151.5,-281.6396 151.5,-245.6396 306.5,-245.6396 306.5,-281.6396"/>
<text text-anchor="middle" x="229" y="-258.6396" font-family="Times,serif" font-size="20.00" fill="#000000">Content&#45;Type</text>
</g>
<!-- SG_0_Node_4&#45;&gt;SG_0_Node_5 -->
<g id="edge10" class="edge">
<title>SG_0_Node_4&#45;&gt;SG_0_Node_5</title>
<path fill="none" stroke="#000000" d="M166.04,-405.8888C176.4219,-395.0904 188.7915,-380.648 197,-365.8528 209.9649,-342.4844 218.4583,-313.1394 223.4146,-291.8934"/>
<polygon fill="#000000" stroke="#000000" points="226.8857,-292.4063 225.6283,-281.8863 220.0509,-290.8943 226.8857,-292.4063"/>
<text text-anchor="middle" x="250" y="-338.8528" font-family="Times,serif" font-size="20.00" fill="#000000">nosniff</text>
</g>
<!-- SG_0_Node_11 -->
<g id="node12" class="node">
<title>SG_0_Node_11</title>
<ellipse fill="none" stroke="#000000" cx="51" cy="-37.2132" rx="34.7971" ry="21.4286"/>
<text text-anchor="middle" x="51" y="-32.2132" font-family="Times,serif" font-size="20.00" fill="#000000">0.0</text>
</g>
<!-- SG_0_Node_5&#45;&gt;SG_0_Node_11 -->
<g id="edge11" class="edge">
<title>SG_0_Node_5&#45;&gt;SG_0_Node_11</title>
<path fill="none" stroke="#000000" d="M155.0501,-245.5841C104.5201,-232.5013 45.4017,-215.4202 38,-205.4264 8.2018,-165.193 23.9913,-103.6947 37.7758,-67.2652"/>
<polygon fill="#000000" stroke="#000000" points="41.1387,-68.2794 41.571,-57.6934 34.6315,-65.6993 41.1387,-68.2794"/>
<text text-anchor="middle" x="149" y="-145.4264" font-family="Times,serif" font-size="20.00" fill="#000000">application/javascript</text>
</g>
<!-- SG_0_Node_12 -->
<g id="node13" class="node">
<title>SG_0_Node_12</title>
<ellipse fill="none" stroke="#000000" cx="296" cy="-37.2132" rx="34.7971" ry="21.4286"/>
<text text-anchor="middle" x="296" y="-32.2132" font-family="Times,serif" font-size="20.00" fill="#000000">1.0</text>
</g>
<!-- SG_0_Node_5&#45;&gt;SG_0_Node_12 -->
<g id="edge12" class="edge">
<title>SG_0_Node_5&#45;&gt;SG_0_Node_12</title>
<path fill="none" stroke="#000000" d="M242.1166,-245.6237C249.5926,-234.5365 258.5328,-219.7486 264,-205.4264 281.4862,-159.6188 289.7235,-103.0114 293.3712,-68.5356"/>
<polygon fill="#000000" stroke="#000000" points="296.8541,-68.8805 294.3611,-58.5831 289.8884,-68.1876 296.8541,-68.8805"/>
<text text-anchor="middle" x="367" y="-189.4264" font-family="Times,serif" font-size="20.00" fill="#000000">[NA]</text>
<text text-anchor="middle" x="367" y="-167.4264" font-family="Times,serif" font-size="20.00" fill="#000000">application/pdf</text>
<text text-anchor="middle" x="367" y="-145.4264" font-family="Times,serif" font-size="20.00" fill="#000000">empty</text>
<text text-anchor="middle" x="367" y="-123.4264" font-family="Times,serif" font-size="20.00" fill="#000000">text/css</text>
<text text-anchor="middle" x="367" y="-101.4264" font-family="Times,serif" font-size="20.00" fill="#000000">text/html</text>
</g>
</g>
</svg>
