<?xml version="1.0" encoding="UTF-8" standalone="no"?>
<!DOCTYPE svg PUBLIC "-//W3C//DTD SVG 1.1//EN"
 "http://www.w3.org/Graphics/SVG/1.1/DTD/svg11.dtd">
<!-- Generated by graphviz version 2.40.1 (20161225.0304)
 -->
<!-- Title: G Pages: 1 -->
<svg width="2373pt" height="1851pt"
 viewBox="0.00 0.00 2373.00 1851.41" xmlns="http://www.w3.org/2000/svg" xmlns:xlink="http://www.w3.org/1999/xlink">
<g id="graph0" class="graph" transform="scale(1 1) rotate(0) translate(4 1847.4113)">
<title>G</title>
<polygon fill="#ffffff" stroke="transparent" points="-4,4 -4,-1847.4113 2369,-1847.4113 2369,4 -4,4"/>
<g id="clust1" class="cluster">
<title>cluster_0</title>
<polygon fill="none" stroke="#000000" points="8,-8 8,-1835.4113 2357,-1835.4113 2357,-8 8,-8"/>
<text text-anchor="middle" x="1182.5" y="-1799.4113" font-family="Times,serif" font-size="40.00" fill="#000000">Tree 0, Class [&#39;Message: mes1 Origin: https://172.17.0.1:44300&#39;, &#39;Message: mes1 Origin: https://172.17.0.1:44300&#39;]</text>
</g>
<!-- SG_0_Node_0 -->
<g id="node1" class="node">
<title>SG_0_Node_0</title>
<polygon fill="none" stroke="#000000" points="211.5,-1775.4113 146.5,-1775.4113 146.5,-1739.4113 211.5,-1739.4113 211.5,-1775.4113"/>
<text text-anchor="middle" x="179" y="-1752.4113" font-family="Times,serif" font-size="20.00" fill="#000000">body</text>
</g>
<!-- SG_0_Node_15 -->
<g id="node2" class="node">
<title>SG_0_Node_15</title>
<ellipse fill="none" stroke="#000000" cx="115" cy="-1600.1981" rx="34.7971" ry="21.4286"/>
<text text-anchor="middle" x="115" y="-1595.1981" font-family="Times,serif" font-size="20.00" fill="#000000">0.0</text>
</g>
<!-- SG_0_Node_0&#45;&gt;SG_0_Node_15 -->
<g id="edge1" class="edge">
<title>SG_0_Node_0&#45;&gt;SG_0_Node_15</title>
<path fill="none" stroke="#000000" d="M157.7021,-1739.1101C147.6635,-1729.271 136.4912,-1716.3169 130,-1702.4113 119.6634,-1680.268 116.0807,-1652.7418 114.9906,-1631.8349"/>
<polygon fill="#000000" stroke="#000000" points="118.4788,-1631.4381 114.6252,-1621.5689 111.4832,-1631.6871 118.4788,-1631.4381"/>
<text text-anchor="middle" x="176" y="-1686.4113" font-family="Times,serif" font-size="20.00" fill="#000000">[NA]</text>
<text text-anchor="middle" x="176" y="-1664.4113" font-family="Times,serif" font-size="20.00" fill="#000000">11 levels</text>
</g>
<!-- SG_0_Node_1 -->
<g id="node3" class="node">
<title>SG_0_Node_1</title>
<polygon fill="none" stroke="#000000" points="322.5,-1618.1981 167.5,-1618.1981 167.5,-1582.1981 322.5,-1582.1981 322.5,-1618.1981"/>
<text text-anchor="middle" x="245" y="-1595.1981" font-family="Times,serif" font-size="20.00" fill="#000000">Content&#45;Type</text>
</g>
<!-- SG_0_Node_0&#45;&gt;SG_0_Node_1 -->
<g id="edge2" class="edge">
<title>SG_0_Node_0&#45;&gt;SG_0_Node_1</title>
<path fill="none" stroke="#000000" d="M196.8067,-1738.963C205.6064,-1728.8919 215.6689,-1715.7744 222,-1702.4113 233.1923,-1678.7874 239.0668,-1649.4737 242.0668,-1628.3044"/>
<polygon fill="#000000" stroke="#000000" points="245.5441,-1628.7047 243.3531,-1618.3389 238.6017,-1627.8086 245.5441,-1628.7047"/>
<text text-anchor="middle" x="415" y="-1675.4113" font-family="Times,serif" font-size="20.00" fill="#000000">ecocnt_html=post_message=mes1</text>
</g>
<!-- SG_0_Node_16 -->
<g id="node4" class="node">
<title>SG_0_Node_16</title>
<ellipse fill="none" stroke="#000000" cx="66" cy="-1329.7716" rx="34.7971" ry="21.4286"/>
<text text-anchor="middle" x="66" y="-1324.7716" font-family="Times,serif" font-size="20.00" fill="#000000">0.0</text>
</g>
<!-- SG_0_Node_1&#45;&gt;SG_0_Node_16 -->
<g id="edge3" class="edge">
<title>SG_0_Node_1&#45;&gt;SG_0_Node_16</title>
<path fill="none" stroke="#000000" d="M176.658,-1582.1241C129.074,-1568.8522 72.9376,-1551.5363 66,-1541.9848 26.931,-1488.1959 42.9384,-1404.8008 55.7904,-1360.2599"/>
<polygon fill="#000000" stroke="#000000" points="59.1699,-1361.1758 58.7088,-1350.591 52.4685,-1359.153 59.1699,-1361.1758"/>
<text text-anchor="middle" x="177" y="-1525.9848" font-family="Times,serif" font-size="20.00" fill="#000000">[NA]</text>
<text text-anchor="middle" x="177" y="-1503.9848" font-family="Times,serif" font-size="20.00" fill="#000000">application/javascript</text>
<text text-anchor="middle" x="177" y="-1481.9848" font-family="Times,serif" font-size="20.00" fill="#000000">application/pdf</text>
<text text-anchor="middle" x="177" y="-1459.9848" font-family="Times,serif" font-size="20.00" fill="#000000">audio/wav</text>
<text text-anchor="middle" x="177" y="-1437.9848" font-family="Times,serif" font-size="20.00" fill="#000000">image/png</text>
<text text-anchor="middle" x="177" y="-1415.9848" font-family="Times,serif" font-size="20.00" fill="#000000">text/css</text>
<text text-anchor="middle" x="177" y="-1393.9848" font-family="Times,serif" font-size="20.00" fill="#000000">video/mp4</text>
</g>
<!-- SG_0_Node_2 -->
<g id="node5" class="node">
<title>SG_0_Node_2</title>
<polygon fill="none" stroke="#000000" points="434.5,-1347.7716 213.5,-1347.7716 213.5,-1311.7716 434.5,-1311.7716 434.5,-1347.7716"/>
<text text-anchor="middle" x="324" y="-1324.7716" font-family="Times,serif" font-size="20.00" fill="#000000">Content&#45;Disposition</text>
</g>
<!-- SG_0_Node_1&#45;&gt;SG_0_Node_2 -->
<g id="edge4" class="edge">
<title>SG_0_Node_1&#45;&gt;SG_0_Node_2</title>
<path fill="none" stroke="#000000" d="M263.9522,-1581.9989C273.9209,-1571.3019 285.4095,-1556.9658 292,-1541.9848 319.121,-1480.3355 323.8961,-1399.9406 324.3603,-1358.0111"/>
<polygon fill="#000000" stroke="#000000" points="327.8603,-1357.9857 324.3955,-1347.9735 320.8604,-1357.9611 327.8603,-1357.9857"/>
<text text-anchor="middle" x="370" y="-1470.9848" font-family="Times,serif" font-size="20.00" fill="#000000">empty</text>
<text text-anchor="middle" x="370" y="-1448.9848" font-family="Times,serif" font-size="20.00" fill="#000000">text/html</text>
</g>
<!-- SG_0_Node_17 -->
<g id="node6" class="node">
<title>SG_0_Node_17</title>
<ellipse fill="none" stroke="#000000" cx="294" cy="-1169.3452" rx="34.7971" ry="21.4286"/>
<text text-anchor="middle" x="294" y="-1164.3452" font-family="Times,serif" font-size="20.00" fill="#000000">0.0</text>
</g>
<!-- SG_0_Node_2&#45;&gt;SG_0_Node_17 -->
<g id="edge5" class="edge">
<title>SG_0_Node_2&#45;&gt;SG_0_Node_17</title>
<path fill="none" stroke="#000000" d="M318.3303,-1311.5687C314.9452,-1300.1654 310.7781,-1285.1119 308,-1271.5584 303.161,-1247.9506 299.5413,-1220.9239 297.1959,-1200.5933"/>
<polygon fill="#000000" stroke="#000000" points="300.6712,-1200.1768 296.0859,-1190.6256 293.7143,-1200.9516 300.6712,-1200.1768"/>
<text text-anchor="middle" x="367" y="-1255.5584" font-family="Times,serif" font-size="20.00" fill="#000000">[NA]</text>
<text text-anchor="middle" x="367" y="-1233.5584" font-family="Times,serif" font-size="20.00" fill="#000000">attachment</text>
</g>
<!-- SG_0_Node_3 -->
<g id="node7" class="node">
<title>SG_0_Node_3</title>
<polygon fill="none" stroke="#000000" points="543.5,-1187.3452 352.5,-1187.3452 352.5,-1151.3452 543.5,-1151.3452 543.5,-1187.3452"/>
<text text-anchor="middle" x="448" y="-1164.3452" font-family="Times,serif" font-size="20.00" fill="#000000">X&#45;Frame&#45;Options</text>
</g>
<!-- SG_0_Node_2&#45;&gt;SG_0_Node_3 -->
<g id="edge6" class="edge">
<title>SG_0_Node_2&#45;&gt;SG_0_Node_3</title>
<path fill="none" stroke="#000000" d="M373.8104,-1311.7124C392.8028,-1302.461 412.9895,-1289.3244 426,-1271.5584 441.7603,-1250.0376 446.676,-1219.5433 448.0042,-1197.4691"/>
<polygon fill="#000000" stroke="#000000" points="451.505,-1197.5149 448.3999,-1187.3853 444.5104,-1197.2404 451.505,-1197.5149"/>
<text text-anchor="middle" x="475" y="-1244.5584" font-family="Times,serif" font-size="20.00" fill="#000000">empty</text>
</g>
<!-- SG_0_Node_4 -->
<g id="node8" class="node">
<title>SG_0_Node_4</title>
<polygon fill="none" stroke="#000000" points="431,-1030.132 289,-1030.132 289,-994.132 431,-994.132 431,-1030.132"/>
<text text-anchor="middle" x="360" y="-1007.132" font-family="Times,serif" font-size="20.00" fill="#000000">Status&#45;Code</text>
</g>
<!-- SG_0_Node_3&#45;&gt;SG_0_Node_4 -->
<g id="edge7" class="edge">
<title>SG_0_Node_3&#45;&gt;SG_0_Node_4</title>
<path fill="none" stroke="#000000" d="M437.9053,-1151.3109C422.5377,-1123.8564 393.1689,-1071.3888 375.2088,-1039.3027"/>
<polygon fill="#000000" stroke="#000000" points="378.1866,-1037.4568 370.2481,-1030.4403 372.0784,-1040.8759 378.1866,-1037.4568"/>
<text text-anchor="middle" x="439" y="-1095.132" font-family="Times,serif" font-size="20.00" fill="#000000">[NA]</text>
<text text-anchor="middle" x="439" y="-1073.132" font-family="Times,serif" font-size="20.00" fill="#000000">deny</text>
</g>
<!-- SG_0_Node_5 -->
<g id="node9" class="node">
<title>SG_0_Node_5</title>
<polygon fill="none" stroke="#000000" points="714,-1030.132 572,-1030.132 572,-994.132 714,-994.132 714,-1030.132"/>
<text text-anchor="middle" x="643" y="-1007.132" font-family="Times,serif" font-size="20.00" fill="#000000">Status&#45;Code</text>
</g>
<!-- SG_0_Node_3&#45;&gt;SG_0_Node_5 -->
<g id="edge8" class="edge">
<title>SG_0_Node_3&#45;&gt;SG_0_Node_5</title>
<path fill="none" stroke="#000000" d="M470.369,-1151.3109C505.3926,-1123.0741 573.2345,-1068.3784 612.6378,-1036.6107"/>
<polygon fill="#000000" stroke="#000000" points="615.0041,-1039.1988 620.5924,-1030.1975 610.6106,-1033.7493 615.0041,-1039.1988"/>
<text text-anchor="middle" x="606" y="-1084.132" font-family="Times,serif" font-size="20.00" fill="#000000">empty</text>
</g>
<!-- SG_0_Node_18 -->
<g id="node10" class="node">
<title>SG_0_Node_18</title>
<ellipse fill="none" stroke="#000000" cx="232" cy="-766.9188" rx="34.7971" ry="21.4286"/>
<text text-anchor="middle" x="232" y="-761.9188" font-family="Times,serif" font-size="20.00" fill="#000000">0.0</text>
</g>
<!-- SG_0_Node_4&#45;&gt;SG_0_Node_18 -->
<g id="edge23" class="edge">
<title>SG_0_Node_4&#45;&gt;SG_0_Node_18</title>
<path fill="none" stroke="#000000" d="M301.6112,-994.1269C283.5847,-985.717 265.4748,-973.7737 254,-957.132 221.1733,-909.524 222.8007,-838.788 227.2155,-798.3379"/>
<polygon fill="#000000" stroke="#000000" points="230.7084,-798.6073 228.4432,-788.2575 223.7598,-797.761 230.7084,-798.6073"/>
<text text-anchor="middle" x="300" y="-897.132" font-family="Times,serif" font-size="20.00" fill="#000000">[NA]</text>
<text text-anchor="middle" x="300" y="-875.132" font-family="Times,serif" font-size="20.00" fill="#000000">57 levels</text>
</g>
<!-- SG_0_Node_6 -->
<g id="node11" class="node">
<title>SG_0_Node_6</title>
<polygon fill="none" stroke="#000000" points="400.5,-784.9188 295.5,-784.9188 295.5,-748.9188 400.5,-748.9188 400.5,-784.9188"/>
<text text-anchor="middle" x="348" y="-761.9188" font-family="Times,serif" font-size="20.00" fill="#000000">Location</text>
</g>
<!-- SG_0_Node_4&#45;&gt;SG_0_Node_6 -->
<g id="edge24" class="edge">
<title>SG_0_Node_4&#45;&gt;SG_0_Node_6</title>
<path fill="none" stroke="#000000" d="M359.1176,-994.1009C357.0501,-951.8534 351.8797,-846.1985 349.3869,-795.259"/>
<polygon fill="#000000" stroke="#000000" points="352.8684,-794.7933 348.8837,-784.9764 345.8767,-795.1355 352.8684,-794.7933"/>
<text text-anchor="middle" x="376.5" y="-941.132" font-family="Times,serif" font-size="20.00" fill="#000000">300</text>
<text text-anchor="middle" x="376.5" y="-919.132" font-family="Times,serif" font-size="20.00" fill="#000000">301</text>
<text text-anchor="middle" x="376.5" y="-897.132" font-family="Times,serif" font-size="20.00" fill="#000000">302</text>
<text text-anchor="middle" x="376.5" y="-875.132" font-family="Times,serif" font-size="20.00" fill="#000000">303</text>
<text text-anchor="middle" x="376.5" y="-853.132" font-family="Times,serif" font-size="20.00" fill="#000000">307</text>
<text text-anchor="middle" x="376.5" y="-831.132" font-family="Times,serif" font-size="20.00" fill="#000000">308</text>
</g>
<!-- SG_0_Node_7 -->
<g id="node12" class="node">
<title>SG_0_Node_7</title>
<polygon fill="none" stroke="#000000" points="714,-784.9188 572,-784.9188 572,-748.9188 714,-748.9188 714,-784.9188"/>
<text text-anchor="middle" x="643" y="-761.9188" font-family="Times,serif" font-size="20.00" fill="#000000">Status&#45;Code</text>
</g>
<!-- SG_0_Node_5&#45;&gt;SG_0_Node_7 -->
<g id="edge9" class="edge">
<title>SG_0_Node_5&#45;&gt;SG_0_Node_7</title>
<path fill="none" stroke="#000000" d="M643,-994.1009C643,-951.8534 643,-846.1985 643,-795.259"/>
<polygon fill="#000000" stroke="#000000" points="646.5001,-794.9763 643,-784.9764 639.5001,-794.9764 646.5001,-794.9763"/>
<text text-anchor="middle" x="689" y="-886.132" font-family="Times,serif" font-size="20.00" fill="#000000">13 levels</text>
</g>
<!-- SG_0_Node_8 -->
<g id="node13" class="node">
<title>SG_0_Node_8</title>
<polygon fill="none" stroke="#000000" points="995,-784.9188 733,-784.9188 733,-748.9188 995,-748.9188 995,-784.9188"/>
<text text-anchor="middle" x="864" y="-761.9188" font-family="Times,serif" font-size="20.00" fill="#000000">X&#45;Content&#45;Type&#45;Options</text>
</g>
<!-- SG_0_Node_5&#45;&gt;SG_0_Node_8 -->
<g id="edge10" class="edge">
<title>SG_0_Node_5&#45;&gt;SG_0_Node_8</title>
<path fill="none" stroke="#000000" d="M684.1215,-993.9869C702.2688,-984.6831 723.0504,-972.1354 739,-957.132 790.8506,-908.3577 831.6257,-834.0364 851.237,-794.2754"/>
<polygon fill="#000000" stroke="#000000" points="854.4342,-795.7036 855.6507,-785.1788 848.1364,-792.6478 854.4342,-795.7036"/>
<text text-anchor="middle" x="881" y="-897.132" font-family="Times,serif" font-size="20.00" fill="#000000">[NA]</text>
<text text-anchor="middle" x="881" y="-875.132" font-family="Times,serif" font-size="20.00" fill="#000000">50 levels</text>
</g>
<!-- SG_0_Node_19 -->
<g id="node14" class="node">
<title>SG_0_Node_19</title>
<ellipse fill="none" stroke="#000000" cx="82" cy="-496.4924" rx="34.7971" ry="21.4286"/>
<text text-anchor="middle" x="82" y="-491.4924" font-family="Times,serif" font-size="20.00" fill="#000000">0.0</text>
</g>
<!-- SG_0_Node_6&#45;&gt;SG_0_Node_19 -->
<g id="edge25" class="edge">
<title>SG_0_Node_6&#45;&gt;SG_0_Node_19</title>
<path fill="none" stroke="#000000" d="M295.4366,-750.9243C288.9118,-749.089 282.3162,-747.3051 276,-745.7056 199.3569,-726.2968 154.584,-767.7462 102,-708.7056 57.4742,-658.7127 65.891,-573.4007 74.6598,-527.6534"/>
<polygon fill="#000000" stroke="#000000" points="78.1169,-528.217 76.6905,-517.7186 71.2587,-526.8151 78.1169,-528.217"/>
<text text-anchor="middle" x="217" y="-626.7056" font-family="Times,serif" font-size="20.00" fill="#000000">http://172.17.0.1:8000</text>
</g>
<!-- SG_0_Node_9 -->
<g id="node15" class="node">
<title>SG_0_Node_9</title>
<polygon fill="none" stroke="#000000" points="410.5,-514.4924 255.5,-514.4924 255.5,-478.4924 410.5,-478.4924 410.5,-514.4924"/>
<text text-anchor="middle" x="333" y="-491.4924" font-family="Times,serif" font-size="20.00" fill="#000000">Content&#45;Type</text>
</g>
<!-- SG_0_Node_6&#45;&gt;SG_0_Node_9 -->
<g id="edge26" class="edge">
<title>SG_0_Node_6&#45;&gt;SG_0_Node_9</title>
<path fill="none" stroke="#000000" d="M346.9925,-748.7555C344.4307,-702.5702 337.653,-580.3784 334.5684,-524.7687"/>
<polygon fill="#000000" stroke="#000000" points="338.0516,-524.3675 334.0031,-514.5767 331.0624,-524.7552 338.0516,-524.3675"/>
<text text-anchor="middle" x="376" y="-637.7056" font-family="Times,serif" font-size="20.00" fill="#000000">[NA]</text>
<text text-anchor="middle" x="376" y="-615.7056" font-family="Times,serif" font-size="20.00" fill="#000000">empty</text>
</g>
<!-- SG_0_Node_20 -->
<g id="node16" class="node">
<title>SG_0_Node_20</title>
<ellipse fill="none" stroke="#000000" cx="582" cy="-496.4924" rx="34.7971" ry="21.4286"/>
<text text-anchor="middle" x="582" y="-491.4924" font-family="Times,serif" font-size="20.00" fill="#000000">0.0</text>
</g>
<!-- SG_0_Node_7&#45;&gt;SG_0_Node_20 -->
<g id="edge15" class="edge">
<title>SG_0_Node_7&#45;&gt;SG_0_Node_20</title>
<path fill="none" stroke="#000000" d="M629.7859,-748.7079C622.4533,-737.6708 613.8579,-723.0009 609,-708.7056 588.0584,-647.0814 583.1355,-570.3817 582.1135,-528.1242"/>
<polygon fill="#000000" stroke="#000000" points="585.609,-527.839 581.9273,-517.9044 578.6102,-527.9666 585.609,-527.839"/>
<text text-anchor="middle" x="628.5" y="-692.7056" font-family="Times,serif" font-size="20.00" fill="#000000">100</text>
<text text-anchor="middle" x="628.5" y="-670.7056" font-family="Times,serif" font-size="20.00" fill="#000000">101</text>
<text text-anchor="middle" x="628.5" y="-648.7056" font-family="Times,serif" font-size="20.00" fill="#000000">102</text>
<text text-anchor="middle" x="628.5" y="-626.7056" font-family="Times,serif" font-size="20.00" fill="#000000">103</text>
<text text-anchor="middle" x="628.5" y="-604.7056" font-family="Times,serif" font-size="20.00" fill="#000000">204</text>
<text text-anchor="middle" x="628.5" y="-582.7056" font-family="Times,serif" font-size="20.00" fill="#000000">205</text>
<text text-anchor="middle" x="628.5" y="-560.7056" font-family="Times,serif" font-size="20.00" fill="#000000">304</text>
</g>
<!-- SG_0_Node_10 -->
<g id="node17" class="node">
<title>SG_0_Node_10</title>
<polygon fill="none" stroke="#000000" points="739.5,-514.4924 634.5,-514.4924 634.5,-478.4924 739.5,-478.4924 739.5,-514.4924"/>
<text text-anchor="middle" x="687" y="-491.4924" font-family="Times,serif" font-size="20.00" fill="#000000">Location</text>
</g>
<!-- SG_0_Node_7&#45;&gt;SG_0_Node_10 -->
<g id="edge16" class="edge">
<title>SG_0_Node_7&#45;&gt;SG_0_Node_10</title>
<path fill="none" stroke="#000000" d="M645.9553,-748.7555C653.4699,-702.5702 673.3512,-580.3784 682.3993,-524.7687"/>
<polygon fill="#000000" stroke="#000000" points="685.9061,-525.009 684.0576,-514.5767 678.997,-523.8848 685.9061,-525.009"/>
<text text-anchor="middle" x="696.5" y="-681.7056" font-family="Times,serif" font-size="20.00" fill="#000000">300</text>
<text text-anchor="middle" x="696.5" y="-659.7056" font-family="Times,serif" font-size="20.00" fill="#000000">301</text>
<text text-anchor="middle" x="696.5" y="-637.7056" font-family="Times,serif" font-size="20.00" fill="#000000">302</text>
<text text-anchor="middle" x="696.5" y="-615.7056" font-family="Times,serif" font-size="20.00" fill="#000000">303</text>
<text text-anchor="middle" x="696.5" y="-593.7056" font-family="Times,serif" font-size="20.00" fill="#000000">307</text>
<text text-anchor="middle" x="696.5" y="-571.7056" font-family="Times,serif" font-size="20.00" fill="#000000">308</text>
</g>
<!-- SG_0_Node_11 -->
<g id="node18" class="node">
<title>SG_0_Node_11</title>
<polygon fill="none" stroke="#000000" points="941.5,-514.4924 786.5,-514.4924 786.5,-478.4924 941.5,-478.4924 941.5,-514.4924"/>
<text text-anchor="middle" x="864" y="-491.4924" font-family="Times,serif" font-size="20.00" fill="#000000">Content&#45;Type</text>
</g>
<!-- SG_0_Node_8&#45;&gt;SG_0_Node_11 -->
<g id="edge11" class="edge">
<title>SG_0_Node_8&#45;&gt;SG_0_Node_11</title>
<path fill="none" stroke="#000000" d="M864,-748.7555C864,-702.5702 864,-580.3784 864,-524.7687"/>
<polygon fill="#000000" stroke="#000000" points="867.5001,-524.5767 864,-514.5767 860.5001,-524.5768 867.5001,-524.5767"/>
<text text-anchor="middle" x="899" y="-626.7056" font-family="Times,serif" font-size="20.00" fill="#000000">nosniff</text>
</g>
<!-- SG_0_Node_21 -->
<g id="node19" class="node">
<title>SG_0_Node_21</title>
<ellipse fill="none" stroke="#000000" cx="994" cy="-496.4924" rx="34.7971" ry="21.4286"/>
<text text-anchor="middle" x="994" y="-491.4924" font-family="Times,serif" font-size="20.00" fill="#000000">1.0</text>
</g>
<!-- SG_0_Node_8&#45;&gt;SG_0_Node_21 -->
<g id="edge12" class="edge">
<title>SG_0_Node_8&#45;&gt;SG_0_Node_21</title>
<path fill="none" stroke="#000000" d="M895.7214,-748.7165C910.581,-738.6862 927.3217,-724.9643 938,-708.7056 975.1991,-652.0665 987.7397,-571.7104 991.9298,-527.9211"/>
<polygon fill="#000000" stroke="#000000" points="995.4244,-528.1351 992.8051,-517.8691 988.4508,-527.5278 995.4244,-528.1351"/>
<text text-anchor="middle" x="1020" y="-637.7056" font-family="Times,serif" font-size="20.00" fill="#000000">[NA]</text>
<text text-anchor="middle" x="1020" y="-615.7056" font-family="Times,serif" font-size="20.00" fill="#000000">empty</text>
</g>
<!-- SG_0_Node_12 -->
<g id="node20" class="node">
<title>SG_0_Node_12</title>
<polygon fill="none" stroke="#000000" points="308,-354.066 46,-354.066 46,-318.066 308,-318.066 308,-354.066"/>
<text text-anchor="middle" x="177" y="-331.066" font-family="Times,serif" font-size="20.00" fill="#000000">X&#45;Content&#45;Type&#45;Options</text>
</g>
<!-- SG_0_Node_9&#45;&gt;SG_0_Node_12 -->
<g id="edge27" class="edge">
<title>SG_0_Node_9&#45;&gt;SG_0_Node_12</title>
<path fill="none" stroke="#000000" d="M313.4828,-478.4302C301.367,-467.0799 285.5732,-452.0326 272,-438.2792 246.8004,-412.7451 218.9671,-382.5507 199.9787,-361.6312"/>
<polygon fill="#000000" stroke="#000000" points="202.4641,-359.1615 193.1582,-354.0968 197.2746,-363.8593 202.4641,-359.1615"/>
<text text-anchor="middle" x="304" y="-411.2792" font-family="Times,serif" font-size="20.00" fill="#000000">empty</text>
</g>
<!-- SG_0_Node_22 -->
<g id="node21" class="node">
<title>SG_0_Node_22</title>
<ellipse fill="none" stroke="#000000" cx="361" cy="-336.066" rx="34.7971" ry="21.4286"/>
<text text-anchor="middle" x="361" y="-331.066" font-family="Times,serif" font-size="20.00" fill="#000000">1.0</text>
</g>
<!-- SG_0_Node_9&#45;&gt;SG_0_Node_22 -->
<g id="edge28" class="edge">
<title>SG_0_Node_9&#45;&gt;SG_0_Node_22</title>
<path fill="none" stroke="#000000" d="M334.9349,-478.3097C337.246,-457.8016 341.4997,-423.4983 347,-394.2792 348.6724,-385.3952 350.8242,-375.8289 352.9367,-367.0693"/>
<polygon fill="#000000" stroke="#000000" points="356.3629,-367.7939 355.3675,-357.2459 349.5679,-366.1124 356.3629,-367.7939"/>
<text text-anchor="middle" x="394" y="-411.2792" font-family="Times,serif" font-size="20.00" fill="#000000">text/html</text>
</g>
<!-- SG_0_Node_23 -->
<g id="node22" class="node">
<title>SG_0_Node_23</title>
<ellipse fill="none" stroke="#000000" cx="463" cy="-336.066" rx="34.7971" ry="21.4286"/>
<text text-anchor="middle" x="463" y="-331.066" font-family="Times,serif" font-size="20.00" fill="#000000">0.0</text>
</g>
<!-- SG_0_Node_10&#45;&gt;SG_0_Node_23 -->
<g id="edge17" class="edge">
<title>SG_0_Node_10&#45;&gt;SG_0_Node_23</title>
<path fill="none" stroke="#000000" d="M636.5436,-478.4598C632.9894,-477.3395 629.4493,-476.2671 626,-475.2792 554.584,-454.8249 509.3519,-496.3319 463,-438.2792 447.2285,-418.5264 449.0079,-389.1104 453.6899,-366.9"/>
<polygon fill="#000000" stroke="#000000" points="457.1458,-367.4972 456.0746,-356.9567 450.3389,-365.8647 457.1458,-367.4972"/>
<text text-anchor="middle" x="578" y="-411.2792" font-family="Times,serif" font-size="20.00" fill="#000000">http://172.17.0.1:8000</text>
</g>
<!-- SG_0_Node_13 -->
<g id="node23" class="node">
<title>SG_0_Node_13</title>
<polygon fill="none" stroke="#000000" points="818,-354.066 556,-354.066 556,-318.066 818,-318.066 818,-354.066"/>
<text text-anchor="middle" x="687" y="-331.066" font-family="Times,serif" font-size="20.00" fill="#000000">X&#45;Content&#45;Type&#45;Options</text>
</g>
<!-- SG_0_Node_10&#45;&gt;SG_0_Node_13 -->
<g id="edge18" class="edge">
<title>SG_0_Node_10&#45;&gt;SG_0_Node_13</title>
<path fill="none" stroke="#000000" d="M690.9563,-478.2427C693.2273,-466.8218 695.85,-451.7662 697,-438.2792 698.6614,-418.7944 698.6614,-413.7641 697,-394.2792 696.1645,-384.4801 694.5515,-373.8529 692.8608,-364.3933"/>
<polygon fill="#000000" stroke="#000000" points="696.2525,-363.4919 690.9563,-354.3158 689.3742,-364.7918 696.2525,-363.4919"/>
<text text-anchor="middle" x="730" y="-422.2792" font-family="Times,serif" font-size="20.00" fill="#000000">[NA]</text>
<text text-anchor="middle" x="730" y="-400.2792" font-family="Times,serif" font-size="20.00" fill="#000000">empty</text>
</g>
<!-- SG_0_Node_24 -->
<g id="node24" class="node">
<title>SG_0_Node_24</title>
<ellipse fill="none" stroke="#000000" cx="871" cy="-336.066" rx="34.7971" ry="21.4286"/>
<text text-anchor="middle" x="871" y="-331.066" font-family="Times,serif" font-size="20.00" fill="#000000">0.0</text>
</g>
<!-- SG_0_Node_11&#45;&gt;SG_0_Node_24 -->
<g id="edge13" class="edge">
<title>SG_0_Node_11&#45;&gt;SG_0_Node_24</title>
<path fill="none" stroke="#000000" d="M864.7894,-478.4013C865.9638,-451.4864 868.1873,-400.5279 869.6306,-367.4506"/>
<polygon fill="#000000" stroke="#000000" points="873.1301,-367.5358 870.0694,-357.3927 866.1367,-367.2306 873.1301,-367.5358"/>
<text text-anchor="middle" x="900" y="-411.2792" font-family="Times,serif" font-size="20.00" fill="#000000">empty</text>
</g>
<!-- SG_0_Node_25 -->
<g id="node25" class="node">
<title>SG_0_Node_25</title>
<ellipse fill="none" stroke="#000000" cx="964" cy="-336.066" rx="34.7971" ry="21.4286"/>
<text text-anchor="middle" x="964" y="-331.066" font-family="Times,serif" font-size="20.00" fill="#000000">1.0</text>
</g>
<!-- SG_0_Node_11&#45;&gt;SG_0_Node_25 -->
<g id="edge14" class="edge">
<title>SG_0_Node_11&#45;&gt;SG_0_Node_25</title>
<path fill="none" stroke="#000000" d="M894.4322,-478.3295C908.9628,-468.2233 925.443,-454.4233 936,-438.2792 949.8692,-417.0702 956.9196,-389.0964 960.4738,-367.776"/>
<polygon fill="#000000" stroke="#000000" points="963.9774,-368.0113 961.9919,-357.6041 957.0541,-366.9779 963.9774,-368.0113"/>
<text text-anchor="middle" x="1001" y="-411.2792" font-family="Times,serif" font-size="20.00" fill="#000000">text/html</text>
</g>
<!-- SG_0_Node_26 -->
<g id="node26" class="node">
<title>SG_0_Node_26</title>
<ellipse fill="none" stroke="#000000" cx="124" cy="-175.6396" rx="34.7971" ry="21.4286"/>
<text text-anchor="middle" x="124" y="-170.6396" font-family="Times,serif" font-size="20.00" fill="#000000">0.0</text>
</g>
<!-- SG_0_Node_12&#45;&gt;SG_0_Node_26 -->
<g id="edge29" class="edge">
<title>SG_0_Node_12&#45;&gt;SG_0_Node_26</title>
<path fill="none" stroke="#000000" d="M161.6489,-317.8759C153.2819,-306.9614 143.5319,-292.4081 138,-277.8528 129.3844,-255.1836 125.9661,-227.9012 124.6575,-207.2269"/>
<polygon fill="#000000" stroke="#000000" points="128.145,-206.8897 124.1491,-197.0773 121.1538,-207.2399 128.145,-206.8897"/>
<text text-anchor="middle" x="173" y="-250.8528" font-family="Times,serif" font-size="20.00" fill="#000000">nosniff</text>
</g>
<!-- SG_0_Node_27 -->
<g id="node27" class="node">
<title>SG_0_Node_27</title>
<ellipse fill="none" stroke="#000000" cx="230" cy="-175.6396" rx="34.7971" ry="21.4286"/>
<text text-anchor="middle" x="230" y="-170.6396" font-family="Times,serif" font-size="20.00" fill="#000000">1.0</text>
</g>
<!-- SG_0_Node_12&#45;&gt;SG_0_Node_27 -->
<g id="edge30" class="edge">
<title>SG_0_Node_12&#45;&gt;SG_0_Node_27</title>
<path fill="none" stroke="#000000" d="M188.2697,-318.0582C194.8505,-306.853 202.8473,-291.9397 208,-277.8528 216.4428,-254.7713 222.109,-227.5128 225.5739,-206.9524"/>
<polygon fill="#000000" stroke="#000000" points="229.0633,-207.2964 227.1882,-196.8688 222.1513,-206.1897 229.0633,-207.2964"/>
<text text-anchor="middle" x="252" y="-261.8528" font-family="Times,serif" font-size="20.00" fill="#000000">[NA]</text>
<text text-anchor="middle" x="252" y="-239.8528" font-family="Times,serif" font-size="20.00" fill="#000000">empty</text>
</g>
<!-- SG_0_Node_14 -->
<g id="node28" class="node">
<title>SG_0_Node_14</title>
<polygon fill="none" stroke="#000000" points="702.5,-193.6396 547.5,-193.6396 547.5,-157.6396 702.5,-157.6396 702.5,-193.6396"/>
<text text-anchor="middle" x="625" y="-170.6396" font-family="Times,serif" font-size="20.00" fill="#000000">Content&#45;Type</text>
</g>
<!-- SG_0_Node_13&#45;&gt;SG_0_Node_14 -->
<g id="edge19" class="edge">
<title>SG_0_Node_13&#45;&gt;SG_0_Node_14</title>
<path fill="none" stroke="#000000" d="M673.8089,-317.9755C666.2257,-306.8617 657.0365,-292.0723 651,-277.8528 640.7779,-253.7739 633.8676,-224.7376 629.7563,-203.7758"/>
<polygon fill="#000000" stroke="#000000" points="633.1891,-203.0915 627.9097,-193.9057 626.3085,-204.3788 633.1891,-203.0915"/>
<text text-anchor="middle" x="686" y="-250.8528" font-family="Times,serif" font-size="20.00" fill="#000000">nosniff</text>
</g>
<!-- SG_0_Node_28 -->
<g id="node29" class="node">
<title>SG_0_Node_28</title>
<ellipse fill="none" stroke="#000000" cx="755" cy="-175.6396" rx="34.7971" ry="21.4286"/>
<text text-anchor="middle" x="755" y="-170.6396" font-family="Times,serif" font-size="20.00" fill="#000000">1.0</text>
</g>
<!-- SG_0_Node_13&#45;&gt;SG_0_Node_28 -->
<g id="edge20" class="edge">
<title>SG_0_Node_13&#45;&gt;SG_0_Node_28</title>
<path fill="none" stroke="#000000" d="M698.882,-317.974C705.925,-306.738 714.68,-291.8219 721,-277.8528 731.4854,-254.6769 740.4269,-227.2734 746.5051,-206.6775"/>
<polygon fill="#000000" stroke="#000000" points="749.924,-207.453 749.3342,-196.8746 743.1985,-205.5119 749.924,-207.453"/>
<text text-anchor="middle" x="769" y="-261.8528" font-family="Times,serif" font-size="20.00" fill="#000000">[NA]</text>
<text text-anchor="middle" x="769" y="-239.8528" font-family="Times,serif" font-size="20.00" fill="#000000">empty</text>
</g>
<!-- SG_0_Node_29 -->
<g id="node30" class="node">
<title>SG_0_Node_29</title>
<ellipse fill="none" stroke="#000000" cx="575" cy="-37.2132" rx="34.7971" ry="21.4286"/>
<text text-anchor="middle" x="575" y="-32.2132" font-family="Times,serif" font-size="20.00" fill="#000000">0.0</text>
</g>
<!-- SG_0_Node_14&#45;&gt;SG_0_Node_29 -->
<g id="edge21" class="edge">
<title>SG_0_Node_14&#45;&gt;SG_0_Node_29</title>
<path fill="none" stroke="#000000" d="M611.2331,-157.453C603.5462,-146.4243 594.4476,-131.7547 589,-117.4264 583.1382,-102.0088 579.7115,-83.9821 577.7178,-68.9275"/>
<polygon fill="#000000" stroke="#000000" points="581.1444,-68.0956 576.5051,-58.5705 574.1919,-68.9097 581.1444,-68.0956"/>
<text text-anchor="middle" x="621" y="-101.4264" font-family="Times,serif" font-size="20.00" fill="#000000">empty</text>
</g>
<!-- SG_0_Node_30 -->
<g id="node31" class="node">
<title>SG_0_Node_30</title>
<ellipse fill="none" stroke="#000000" cx="675" cy="-37.2132" rx="34.7971" ry="21.4286"/>
<text text-anchor="middle" x="675" y="-32.2132" font-family="Times,serif" font-size="20.00" fill="#000000">1.0</text>
</g>
<!-- SG_0_Node_14&#45;&gt;SG_0_Node_30 -->
<g id="edge22" class="edge">
<title>SG_0_Node_14&#45;&gt;SG_0_Node_30</title>
<path fill="none" stroke="#000000" d="M634.8258,-157.3979C640.6407,-146.1073 647.8521,-131.1863 653,-117.4264 658.9612,-101.4927 664.0951,-83.2363 667.9005,-68.1696"/>
<polygon fill="#000000" stroke="#000000" points="671.3343,-68.862 670.3166,-58.3161 664.5357,-67.1949 671.3343,-68.862"/>
<text text-anchor="middle" x="707" y="-101.4264" font-family="Times,serif" font-size="20.00" fill="#000000">text/html</text>
</g>
</g>
</svg>
