<?xml version="1.0" encoding="UTF-8" standalone="no"?>
<!DOCTYPE svg PUBLIC "-//W3C//DTD SVG 1.1//EN"
 "http://www.w3.org/Graphics/SVG/1.1/DTD/svg11.dtd">
<!-- Generated by graphviz version 2.40.1 (20161225.0304)
 -->
<!-- Title: G Pages: 1 -->
<svg width="1290pt" height="1700pt"
 viewBox="0.00 0.00 1290.00 1700.13" xmlns="http://www.w3.org/2000/svg" xmlns:xlink="http://www.w3.org/1999/xlink">
<g id="graph0" class="graph" transform="scale(1 1) rotate(0) translate(4 1696.132)">
<title>G</title>
<polygon fill="#ffffff" stroke="transparent" points="-4,4 -4,-1696.132 1286,-1696.132 1286,4 -4,4"/>
<g id="clust1" class="cluster">
<title>cluster_0</title>
<polygon fill="none" stroke="#000000" points="8,-8 8,-1684.132 1273,-1684.132 1273,-8 8,-8"/>
<text text-anchor="middle" x="640.5" y="-1648.132" font-family="Times,serif" font-size="40.00" fill="#000000">Tree 0, Class [[&#39;Script error.&#39;, 0, 0]]</text>
</g>
<!-- SG_0_Node_0 -->
<g id="node1" class="node">
<title>SG_0_Node_0</title>
<polygon fill="none" stroke="#000000" points="204,-1624.132 62,-1624.132 62,-1588.132 204,-1588.132 204,-1624.132"/>
<text text-anchor="middle" x="133" y="-1601.132" font-family="Times,serif" font-size="20.00" fill="#000000">Status&#45;Code</text>
</g>
<!-- SG_0_Node_7 -->
<g id="node2" class="node">
<title>SG_0_Node_7</title>
<ellipse fill="none" stroke="#000000" cx="85" cy="-1316.9188" rx="34.7971" ry="21.4286"/>
<text text-anchor="middle" x="85" y="-1311.9188" font-family="Times,serif" font-size="20.00" fill="#000000">0.0</text>
</g>
<!-- SG_0_Node_0&#45;&gt;SG_0_Node_7 -->
<g id="edge1" class="edge">
<title>SG_0_Node_0&#45;&gt;SG_0_Node_7</title>
<path fill="none" stroke="#000000" d="M129.9974,-1588.0405C122.0204,-1539.9768 100.2246,-1408.6512 90.1867,-1348.1701"/>
<polygon fill="#000000" stroke="#000000" points="93.6015,-1347.3675 88.5113,-1338.0755 86.6959,-1348.5136 93.6015,-1347.3675"/>
<text text-anchor="middle" x="169" y="-1469.132" font-family="Times,serif" font-size="20.00" fill="#000000">[NA]</text>
<text text-anchor="middle" x="169" y="-1447.132" font-family="Times,serif" font-size="20.00" fill="#000000">55 levels</text>
</g>
<!-- SG_0_Node_1 -->
<g id="node3" class="node">
<title>SG_0_Node_1</title>
<polygon fill="none" stroke="#000000" points="454.5,-1334.9188 137.5,-1334.9188 137.5,-1298.9188 454.5,-1298.9188 454.5,-1334.9188"/>
<text text-anchor="middle" x="296" y="-1311.9188" font-family="Times,serif" font-size="20.00" fill="#000000">Cross&#45;Origin&#45;Resource&#45;Policy</text>
</g>
<!-- SG_0_Node_0&#45;&gt;SG_0_Node_1 -->
<g id="edge2" class="edge">
<title>SG_0_Node_0&#45;&gt;SG_0_Node_1</title>
<path fill="none" stroke="#000000" d="M173.3516,-1587.9005C189.493,-1578.8573 207.0515,-1566.5363 219,-1551.132 268.0412,-1487.9068 286.5188,-1392.1289 292.9192,-1345.054"/>
<polygon fill="#000000" stroke="#000000" points="296.4109,-1345.3406 294.2038,-1334.9783 289.4672,-1344.4553 296.4109,-1345.3406"/>
<text text-anchor="middle" x="307.5" y="-1535.132" font-family="Times,serif" font-size="20.00" fill="#000000">200</text>
<text text-anchor="middle" x="307.5" y="-1513.132" font-family="Times,serif" font-size="20.00" fill="#000000">201</text>
<text text-anchor="middle" x="307.5" y="-1491.132" font-family="Times,serif" font-size="20.00" fill="#000000">202</text>
<text text-anchor="middle" x="307.5" y="-1469.132" font-family="Times,serif" font-size="20.00" fill="#000000">203</text>
<text text-anchor="middle" x="307.5" y="-1447.132" font-family="Times,serif" font-size="20.00" fill="#000000">206</text>
<text text-anchor="middle" x="307.5" y="-1425.132" font-family="Times,serif" font-size="20.00" fill="#000000">207</text>
<text text-anchor="middle" x="307.5" y="-1403.132" font-family="Times,serif" font-size="20.00" fill="#000000">208</text>
<text text-anchor="middle" x="307.5" y="-1381.132" font-family="Times,serif" font-size="20.00" fill="#000000">226</text>
</g>
<!-- SG_0_Node_8 -->
<g id="node4" class="node">
<title>SG_0_Node_8</title>
<ellipse fill="none" stroke="#000000" cx="171" cy="-1156.4924" rx="34.7971" ry="21.4286"/>
<text text-anchor="middle" x="171" y="-1151.4924" font-family="Times,serif" font-size="20.00" fill="#000000">0.0</text>
</g>
<!-- SG_0_Node_1&#45;&gt;SG_0_Node_8 -->
<g id="edge3" class="edge">
<title>SG_0_Node_1&#45;&gt;SG_0_Node_8</title>
<path fill="none" stroke="#000000" d="M234.6337,-1298.8052C214.7534,-1289.8966 194.6017,-1277.0099 182,-1258.7056 167.8229,-1238.1131 165.8672,-1209.4529 167.003,-1187.7196"/>
<polygon fill="#000000" stroke="#000000" points="170.4985,-1187.9098 167.7689,-1177.6726 163.5188,-1187.3776 170.4985,-1187.9098"/>
<text text-anchor="middle" x="243" y="-1231.7056" font-family="Times,serif" font-size="20.00" fill="#000000">same&#45;origin</text>
</g>
<!-- SG_0_Node_2 -->
<g id="node5" class="node">
<title>SG_0_Node_2</title>
<polygon fill="none" stroke="#000000" points="406.5,-1174.4924 251.5,-1174.4924 251.5,-1138.4924 406.5,-1138.4924 406.5,-1174.4924"/>
<text text-anchor="middle" x="329" y="-1151.4924" font-family="Times,serif" font-size="20.00" fill="#000000">Content&#45;Type</text>
</g>
<!-- SG_0_Node_1&#45;&gt;SG_0_Node_2 -->
<g id="edge4" class="edge">
<title>SG_0_Node_1&#45;&gt;SG_0_Node_2</title>
<path fill="none" stroke="#000000" d="M299.7214,-1298.8277C305.4403,-1271.0255 316.4366,-1217.5683 323.2048,-1184.6655"/>
<polygon fill="#000000" stroke="#000000" points="326.6549,-1185.2637 325.2416,-1174.7636 319.7985,-1183.8533 326.6549,-1185.2637"/>
<text text-anchor="middle" x="348" y="-1242.7056" font-family="Times,serif" font-size="20.00" fill="#000000">[NA]</text>
<text text-anchor="middle" x="348" y="-1220.7056" font-family="Times,serif" font-size="20.00" fill="#000000">empty</text>
</g>
<!-- SG_0_Node_9 -->
<g id="node6" class="node">
<title>SG_0_Node_9</title>
<ellipse fill="none" stroke="#000000" cx="227" cy="-908.066" rx="34.7971" ry="21.4286"/>
<text text-anchor="middle" x="227" y="-903.066" font-family="Times,serif" font-size="20.00" fill="#000000">0.0</text>
</g>
<!-- SG_0_Node_2&#45;&gt;SG_0_Node_9 -->
<g id="edge5" class="edge">
<title>SG_0_Node_2&#45;&gt;SG_0_Node_9</title>
<path fill="none" stroke="#000000" d="M283.6614,-1138.4026C266.3603,-1129.092 248.3296,-1115.92 238,-1098.2792 209.0011,-1048.7552 214.2561,-978.9924 220.6552,-939.1698"/>
<polygon fill="#000000" stroke="#000000" points="224.1158,-939.6978 222.3745,-929.247 217.2186,-938.5026 224.1158,-939.6978"/>
<text text-anchor="middle" x="292.5" y="-1049.2792" font-family="Times,serif" font-size="20.00" fill="#000000">audio/wav</text>
<text text-anchor="middle" x="292.5" y="-1027.2792" font-family="Times,serif" font-size="20.00" fill="#000000">image/png</text>
<text text-anchor="middle" x="292.5" y="-1005.2792" font-family="Times,serif" font-size="20.00" fill="#000000">video/mp4</text>
</g>
<!-- SG_0_Node_3 -->
<g id="node7" class="node">
<title>SG_0_Node_3</title>
<polygon fill="none" stroke="#000000" points="542,-926.066 280,-926.066 280,-890.066 542,-890.066 542,-926.066"/>
<text text-anchor="middle" x="411" y="-903.066" font-family="Times,serif" font-size="20.00" fill="#000000">X&#45;Content&#45;Type&#45;Options</text>
</g>
<!-- SG_0_Node_2&#45;&gt;SG_0_Node_3 -->
<g id="edge6" class="edge">
<title>SG_0_Node_2&#45;&gt;SG_0_Node_3</title>
<path fill="none" stroke="#000000" d="M336.1991,-1138.2349C340.629,-1126.8111 346.3323,-1111.7551 351,-1098.2792 370.8383,-1041.0054 391.5991,-973.1245 402.7458,-935.9192"/>
<polygon fill="#000000" stroke="#000000" points="406.1186,-936.8565 405.626,-926.2731 399.4112,-934.8537 406.1186,-936.8565"/>
<text text-anchor="middle" x="504" y="-1082.2792" font-family="Times,serif" font-size="20.00" fill="#000000">[NA]</text>
<text text-anchor="middle" x="504" y="-1060.2792" font-family="Times,serif" font-size="20.00" fill="#000000">application/javascript</text>
<text text-anchor="middle" x="504" y="-1038.2792" font-family="Times,serif" font-size="20.00" fill="#000000">application/pdf</text>
<text text-anchor="middle" x="504" y="-1016.2792" font-family="Times,serif" font-size="20.00" fill="#000000">empty</text>
<text text-anchor="middle" x="504" y="-994.2792" font-family="Times,serif" font-size="20.00" fill="#000000">text/css</text>
<text text-anchor="middle" x="504" y="-972.2792" font-family="Times,serif" font-size="20.00" fill="#000000">text/html</text>
</g>
<!-- SG_0_Node_4 -->
<g id="node8" class="node">
<title>SG_0_Node_4</title>
<polygon fill="none" stroke="#000000" points="301.5,-768.8528 146.5,-768.8528 146.5,-732.8528 301.5,-732.8528 301.5,-768.8528"/>
<text text-anchor="middle" x="224" y="-745.8528" font-family="Times,serif" font-size="20.00" fill="#000000">Content&#45;Type</text>
</g>
<!-- SG_0_Node_3&#45;&gt;SG_0_Node_4 -->
<g id="edge7" class="edge">
<title>SG_0_Node_3&#45;&gt;SG_0_Node_4</title>
<path fill="none" stroke="#000000" d="M389.5487,-890.0317C356.1025,-861.913 291.4472,-807.5565 253.5923,-775.7314"/>
<polygon fill="#000000" stroke="#000000" points="255.395,-772.6744 245.4883,-768.9183 250.8904,-778.0325 255.395,-772.6744"/>
<text text-anchor="middle" x="375" y="-822.8528" font-family="Times,serif" font-size="20.00" fill="#000000">nosniff</text>
</g>
<!-- SG_0_Node_5 -->
<g id="node9" class="node">
<title>SG_0_Node_5</title>
<polygon fill="none" stroke="#000000" points="514.5,-768.8528 449.5,-768.8528 449.5,-732.8528 514.5,-732.8528 514.5,-768.8528"/>
<text text-anchor="middle" x="482" y="-745.8528" font-family="Times,serif" font-size="20.00" fill="#000000">body</text>
</g>
<!-- SG_0_Node_3&#45;&gt;SG_0_Node_5 -->
<g id="edge8" class="edge">
<title>SG_0_Node_3&#45;&gt;SG_0_Node_5</title>
<path fill="none" stroke="#000000" d="M419.1446,-890.0317C431.4903,-862.695 455.0355,-810.5594 469.5422,-778.4377"/>
<polygon fill="#000000" stroke="#000000" points="472.8055,-779.7154 473.7317,-769.1611 466.4259,-776.8342 472.8055,-779.7154"/>
<text text-anchor="middle" x="489" y="-833.8528" font-family="Times,serif" font-size="20.00" fill="#000000">[NA]</text>
<text text-anchor="middle" x="489" y="-811.8528" font-family="Times,serif" font-size="20.00" fill="#000000">empty</text>
</g>
<!-- SG_0_Node_10 -->
<g id="node10" class="node">
<title>SG_0_Node_10</title>
<ellipse fill="none" stroke="#000000" cx="51" cy="-395.6396" rx="34.7971" ry="21.4286"/>
<text text-anchor="middle" x="51" y="-390.6396" font-family="Times,serif" font-size="20.00" fill="#000000">0.0</text>
</g>
<!-- SG_0_Node_4&#45;&gt;SG_0_Node_10 -->
<g id="edge11" class="edge">
<title>SG_0_Node_4&#45;&gt;SG_0_Node_10</title>
<path fill="none" stroke="#000000" d="M147.3146,-732.8328C112.4084,-722.9736 76.5344,-709.9173 66,-695.8528 5.6463,-615.2751 27.7372,-485.6544 42.2892,-426.6655"/>
<polygon fill="#000000" stroke="#000000" points="45.7177,-427.3857 44.8094,-416.8299 38.9367,-425.6482 45.7177,-427.3857"/>
<text text-anchor="middle" x="143" y="-613.8528" font-family="Times,serif" font-size="20.00" fill="#000000">[NA]</text>
<text text-anchor="middle" x="143" y="-591.8528" font-family="Times,serif" font-size="20.00" fill="#000000">application/pdf</text>
<text text-anchor="middle" x="143" y="-569.8528" font-family="Times,serif" font-size="20.00" fill="#000000">empty</text>
<text text-anchor="middle" x="143" y="-547.8528" font-family="Times,serif" font-size="20.00" fill="#000000">text/css</text>
<text text-anchor="middle" x="143" y="-525.8528" font-family="Times,serif" font-size="20.00" fill="#000000">text/html</text>
</g>
<!-- SG_0_Node_6 -->
<g id="node11" class="node">
<title>SG_0_Node_6</title>
<polygon fill="none" stroke="#000000" points="256.5,-413.6396 191.5,-413.6396 191.5,-377.6396 256.5,-377.6396 256.5,-413.6396"/>
<text text-anchor="middle" x="224" y="-390.6396" font-family="Times,serif" font-size="20.00" fill="#000000">body</text>
</g>
<!-- SG_0_Node_4&#45;&gt;SG_0_Node_6 -->
<g id="edge12" class="edge">
<title>SG_0_Node_4&#45;&gt;SG_0_Node_6</title>
<path fill="none" stroke="#000000" d="M224,-732.7494C224,-674.9098 224,-494.2658 224,-424.0003"/>
<polygon fill="#000000" stroke="#000000" points="227.5001,-423.7066 224,-413.7066 220.5001,-423.7066 227.5001,-423.7066"/>
<text text-anchor="middle" x="335" y="-569.8528" font-family="Times,serif" font-size="20.00" fill="#000000">application/javascript</text>
</g>
<!-- SG_0_Node_11 -->
<g id="node12" class="node">
<title>SG_0_Node_11</title>
<ellipse fill="none" stroke="#000000" cx="482" cy="-395.6396" rx="34.7971" ry="21.4286"/>
<text text-anchor="middle" x="482" y="-390.6396" font-family="Times,serif" font-size="20.00" fill="#000000">0.0</text>
</g>
<!-- SG_0_Node_5&#45;&gt;SG_0_Node_11 -->
<g id="edge9" class="edge">
<title>SG_0_Node_5&#45;&gt;SG_0_Node_11</title>
<path fill="none" stroke="#000000" d="M482,-732.7494C482,-675.8666 482,-500.2086 482,-427.5769"/>
<polygon fill="#000000" stroke="#000000" points="485.5001,-427.2358 482,-417.2358 478.5001,-427.2358 485.5001,-427.2358"/>
<text text-anchor="middle" x="582.5" y="-580.8528" font-family="Times,serif" font-size="20.00" fill="#000000">ecocnt_js=var a=5;</text>
<text text-anchor="middle" x="582.5" y="-558.8528" font-family="Times,serif" font-size="20.00" fill="#000000">empty</text>
</g>
<!-- SG_0_Node_12 -->
<g id="node13" class="node">
<title>SG_0_Node_12</title>
<ellipse fill="none" stroke="#000000" cx="719" cy="-395.6396" rx="34.7971" ry="21.4286"/>
<text text-anchor="middle" x="719" y="-390.6396" font-family="Times,serif" font-size="20.00" fill="#000000">1.0</text>
</g>
<!-- SG_0_Node_5&#45;&gt;SG_0_Node_12 -->
<g id="edge10" class="edge">
<title>SG_0_Node_5&#45;&gt;SG_0_Node_12</title>
<path fill="none" stroke="#000000" d="M514.6046,-746.6072C566.6023,-739.1308 664.7288,-721.8988 687,-695.8528 752.8761,-618.8115 737.4847,-486.8465 726.0154,-426.904"/>
<polygon fill="#000000" stroke="#000000" points="729.4097,-426.0291 724.0104,-416.9133 722.5466,-427.4065 729.4097,-426.0291"/>
<text text-anchor="middle" x="1009" y="-679.8528" font-family="Times,serif" font-size="20.00" fill="#000000">[NA]</text>
<text text-anchor="middle" x="1009" y="-657.8528" font-family="Times,serif" font-size="20.00" fill="#000000">ecocnt_audio=duration=1</text>
<text text-anchor="middle" x="1009" y="-635.8528" font-family="Times,serif" font-size="20.00" fill="#000000">ecocnt_css=h1 {color: blue}</text>
<text text-anchor="middle" x="1009" y="-613.8528" font-family="Times,serif" font-size="20.00" fill="#000000">ecocnt_html=meta_refresh=0;http://172.17.0.1:8000</text>
<text text-anchor="middle" x="1009" y="-591.8528" font-family="Times,serif" font-size="20.00" fill="#000000">ecocnt_html=num_frames=1,input_id=test1</text>
<text text-anchor="middle" x="1009" y="-569.8528" font-family="Times,serif" font-size="20.00" fill="#000000">ecocnt_html=num_frames=2</text>
<text text-anchor="middle" x="1009" y="-547.8528" font-family="Times,serif" font-size="20.00" fill="#000000">ecocnt_html=post_message=mes1</text>
<text text-anchor="middle" x="1009" y="-525.8528" font-family="Times,serif" font-size="20.00" fill="#000000">ecocnt_img=width=50,height=50,type=png</text>
<text text-anchor="middle" x="1009" y="-503.8528" font-family="Times,serif" font-size="20.00" fill="#000000">ecocnt_js=.,,.</text>
<text text-anchor="middle" x="1009" y="-481.8528" font-family="Times,serif" font-size="20.00" fill="#000000">ecocnt_pdf=a=a</text>
<text text-anchor="middle" x="1009" y="-459.8528" font-family="Times,serif" font-size="20.00" fill="#000000">ecocnt_vid=width=100,height=100,duration=2</text>
</g>
<!-- SG_0_Node_13 -->
<g id="node14" class="node">
<title>SG_0_Node_13</title>
<ellipse fill="none" stroke="#000000" cx="137" cy="-37.2132" rx="34.7971" ry="21.4286"/>
<text text-anchor="middle" x="137" y="-32.2132" font-family="Times,serif" font-size="20.00" fill="#000000">0.0</text>
</g>
<!-- SG_0_Node_6&#45;&gt;SG_0_Node_13 -->
<g id="edge13" class="edge">
<title>SG_0_Node_6&#45;&gt;SG_0_Node_13</title>
<path fill="none" stroke="#000000" d="M191.1937,-378.2286C176.1629,-368.3927 159.7723,-354.6061 151,-337.4264 105.6539,-248.6208 120.2083,-125.1029 130.5011,-68.1874"/>
<polygon fill="#000000" stroke="#000000" points="133.9407,-68.8344 132.358,-58.3584 127.0623,-67.5349 133.9407,-68.8344"/>
<text text-anchor="middle" x="251.5" y="-222.4264" font-family="Times,serif" font-size="20.00" fill="#000000">ecocnt_js=var a=5;</text>
<text text-anchor="middle" x="251.5" y="-200.4264" font-family="Times,serif" font-size="20.00" fill="#000000">empty</text>
</g>
<!-- SG_0_Node_14 -->
<g id="node15" class="node">
<title>SG_0_Node_14</title>
<ellipse fill="none" stroke="#000000" cx="374" cy="-37.2132" rx="34.7971" ry="21.4286"/>
<text text-anchor="middle" x="374" y="-32.2132" font-family="Times,serif" font-size="20.00" fill="#000000">1.0</text>
</g>
<!-- SG_0_Node_6&#45;&gt;SG_0_Node_14 -->
<g id="edge14" class="edge">
<title>SG_0_Node_6&#45;&gt;SG_0_Node_14</title>
<path fill="none" stroke="#000000" d="M256.5042,-390.4281C286.6352,-383.7372 330.0189,-368.9733 352,-337.4264 409.3765,-255.0805 393.0483,-127.3312 381.3094,-68.6424"/>
<polygon fill="#000000" stroke="#000000" points="384.664,-67.5851 379.1897,-58.5142 377.8124,-69.0191 384.664,-67.5851"/>
<text text-anchor="middle" x="665" y="-321.4264" font-family="Times,serif" font-size="20.00" fill="#000000">[NA]</text>
<text text-anchor="middle" x="665" y="-299.4264" font-family="Times,serif" font-size="20.00" fill="#000000">ecocnt_audio=duration=1</text>
<text text-anchor="middle" x="665" y="-277.4264" font-family="Times,serif" font-size="20.00" fill="#000000">ecocnt_css=h1 {color: blue}</text>
<text text-anchor="middle" x="665" y="-255.4264" font-family="Times,serif" font-size="20.00" fill="#000000">ecocnt_html=meta_refresh=0;http://172.17.0.1:8000</text>
<text text-anchor="middle" x="665" y="-233.4264" font-family="Times,serif" font-size="20.00" fill="#000000">ecocnt_html=num_frames=1,input_id=test1</text>
<text text-anchor="middle" x="665" y="-211.4264" font-family="Times,serif" font-size="20.00" fill="#000000">ecocnt_html=num_frames=2</text>
<text text-anchor="middle" x="665" y="-189.4264" font-family="Times,serif" font-size="20.00" fill="#000000">ecocnt_html=post_message=mes1</text>
<text text-anchor="middle" x="665" y="-167.4264" font-family="Times,serif" font-size="20.00" fill="#000000">ecocnt_img=width=50,height=50,type=png</text>
<text text-anchor="middle" x="665" y="-145.4264" font-family="Times,serif" font-size="20.00" fill="#000000">ecocnt_js=.,,.</text>
<text text-anchor="middle" x="665" y="-123.4264" font-family="Times,serif" font-size="20.00" fill="#000000">ecocnt_pdf=a=a</text>
<text text-anchor="middle" x="665" y="-101.4264" font-family="Times,serif" font-size="20.00" fill="#000000">ecocnt_vid=width=100,height=100,duration=2</text>
</g>
</g>
</svg>
