<?xml version="1.0" encoding="UTF-8" standalone="no"?>
<!DOCTYPE svg PUBLIC "-//W3C//DTD SVG 1.1//EN"
 "http://www.w3.org/Graphics/SVG/1.1/DTD/svg11.dtd">
<!-- Generated by graphviz version 2.40.1 (20161225.0304)
 -->
<!-- Title: G Pages: 1 -->
<svg width="1821pt" height="2509pt"
 viewBox="0.00 0.00 1821.00 2508.69" xmlns="http://www.w3.org/2000/svg" xmlns:xlink="http://www.w3.org/1999/xlink">
<g id="graph0" class="graph" transform="scale(1 1) rotate(0) translate(4 2504.6905)">
<title>G</title>
<polygon fill="#ffffff" stroke="transparent" points="-4,4 -4,-2504.6905 1817,-2504.6905 1817,4 -4,4"/>
<g id="clust1" class="cluster">
<title>cluster_0</title>
<polygon fill="none" stroke="#000000" points="8,-8 8,-2492.6905 1747,-2492.6905 1747,-8 8,-8"/>
<text text-anchor="middle" x="877.5" y="-2456.6905" font-family="Times,serif" font-size="40.00" fill="#000000">Tree 0, Class js&#45;undefined</text>
</g>
<!-- SG_0_Node_0 -->
<g id="node1" class="node">
<title>SG_0_Node_0</title>
<polygon fill="none" stroke="#000000" points="1074,-2432.6905 932,-2432.6905 932,-2396.6905 1074,-2396.6905 1074,-2432.6905"/>
<text text-anchor="middle" x="1003" y="-2409.6905" font-family="Times,serif" font-size="20.00" fill="#000000">Status&#45;Code</text>
</g>
<!-- SG_0_Node_1 -->
<g id="node2" class="node">
<title>SG_0_Node_1</title>
<polygon fill="none" stroke="#000000" points="993.5,-2231.4773 928.5,-2231.4773 928.5,-2195.4773 993.5,-2195.4773 993.5,-2231.4773"/>
<text text-anchor="middle" x="961" y="-2208.4773" font-family="Times,serif" font-size="20.00" fill="#000000">body</text>
</g>
<!-- SG_0_Node_0&#45;&gt;SG_0_Node_1 -->
<g id="edge1" class="edge">
<title>SG_0_Node_0&#45;&gt;SG_0_Node_1</title>
<path fill="none" stroke="#000000" d="M994.9626,-2396.6885C990.5335,-2386.1046 985.2835,-2372.3546 982,-2359.6905 971.5671,-2319.4525 965.9268,-2271.5511 963.1926,-2241.8229"/>
<polygon fill="#000000" stroke="#000000" points="966.669,-2241.3985 962.3133,-2231.7405 959.6955,-2242.0068 966.669,-2241.3985"/>
<text text-anchor="middle" x="1001.5" y="-2343.6905" font-family="Times,serif" font-size="20.00" fill="#000000">202</text>
<text text-anchor="middle" x="1001.5" y="-2321.6905" font-family="Times,serif" font-size="20.00" fill="#000000">203</text>
<text text-anchor="middle" x="1001.5" y="-2299.6905" font-family="Times,serif" font-size="20.00" fill="#000000">207</text>
<text text-anchor="middle" x="1001.5" y="-2277.6905" font-family="Times,serif" font-size="20.00" fill="#000000">226</text>
</g>
<!-- SG_0_Node_26 -->
<g id="node3" class="node">
<title>SG_0_Node_26</title>
<ellipse fill="none" stroke="#000000" cx="1046" cy="-2213.4773" rx="34.7971" ry="21.4286"/>
<text text-anchor="middle" x="1046" y="-2208.4773" font-family="Times,serif" font-size="20.00" fill="#000000">1.0</text>
</g>
<!-- SG_0_Node_0&#45;&gt;SG_0_Node_26 -->
<g id="edge2" class="edge">
<title>SG_0_Node_0&#45;&gt;SG_0_Node_26</title>
<path fill="none" stroke="#000000" d="M1009.681,-2396.5526C1013.408,-2385.9233 1017.908,-2372.1733 1021,-2359.6905 1030.6506,-2320.7301 1037.8169,-2275.0132 1041.9467,-2245.2083"/>
<polygon fill="#000000" stroke="#000000" points="1045.4568,-2245.3685 1043.3298,-2234.9894 1038.52,-2244.4296 1045.4568,-2245.3685"/>
<text text-anchor="middle" x="1083" y="-2321.6905" font-family="Times,serif" font-size="20.00" fill="#000000">[NA]</text>
<text text-anchor="middle" x="1083" y="-2299.6905" font-family="Times,serif" font-size="20.00" fill="#000000">59 levels</text>
</g>
<!-- SG_0_Node_2 -->
<g id="node4" class="node">
<title>SG_0_Node_2</title>
<polygon fill="none" stroke="#000000" points="747.5,-1939.0509 592.5,-1939.0509 592.5,-1903.0509 747.5,-1903.0509 747.5,-1939.0509"/>
<text text-anchor="middle" x="670" y="-1916.0509" font-family="Times,serif" font-size="20.00" fill="#000000">Content&#45;Type</text>
</g>
<!-- SG_0_Node_1&#45;&gt;SG_0_Node_2 -->
<g id="edge3" class="edge">
<title>SG_0_Node_1&#45;&gt;SG_0_Node_2</title>
<path fill="none" stroke="#000000" d="M928.428,-2211.4487C862.232,-2206.5947 715.5726,-2191.872 684,-2155.2641 633.8096,-2097.0691 649.9909,-1997.4494 661.9772,-1949.0649"/>
<polygon fill="#000000" stroke="#000000" points="665.3927,-1949.8373 664.5201,-1939.2784 658.6177,-1948.0768 665.3927,-1949.8373"/>
<text text-anchor="middle" x="957" y="-2106.2641" font-family="Times,serif" font-size="20.00" fill="#000000">ecocnt_css=h1 {color: blue}</text>
<text text-anchor="middle" x="957" y="-2084.2641" font-family="Times,serif" font-size="20.00" fill="#000000">ecocnt_html=meta_refresh=0;http://172.17.0.1:8000</text>
<text text-anchor="middle" x="957" y="-2062.2641" font-family="Times,serif" font-size="20.00" fill="#000000">ecocnt_pdf=a=a</text>
<text text-anchor="middle" x="957" y="-2040.2641" font-family="Times,serif" font-size="20.00" fill="#000000">ecocnt_vid=width=100,height=100,duration=2</text>
<text text-anchor="middle" x="957" y="-2018.2641" font-family="Times,serif" font-size="20.00" fill="#000000">empty</text>
</g>
<!-- SG_0_Node_27 -->
<g id="node5" class="node">
<title>SG_0_Node_27</title>
<ellipse fill="none" stroke="#000000" cx="1252" cy="-1921.0509" rx="34.7971" ry="21.4286"/>
<text text-anchor="middle" x="1252" y="-1916.0509" font-family="Times,serif" font-size="20.00" fill="#000000">1.0</text>
</g>
<!-- SG_0_Node_1&#45;&gt;SG_0_Node_27 -->
<g id="edge4" class="edge">
<title>SG_0_Node_1&#45;&gt;SG_0_Node_27</title>
<path fill="none" stroke="#000000" d="M993.7262,-2195.4104C996.4808,-2194.2396 999.2605,-2193.1694 1002,-2192.2641 1099.4742,-2160.0516 1159.8895,-2230.2533 1230,-2155.2641 1281.6893,-2099.9779 1270.0715,-2002 1259.7159,-1952.1112"/>
<polygon fill="#000000" stroke="#000000" points="1263.1094,-1951.2461 1257.5485,-1942.228 1256.2719,-1952.7457 1263.1094,-1951.2461"/>
<text text-anchor="middle" x="1497.5" y="-2139.2641" font-family="Times,serif" font-size="20.00" fill="#000000">[NA]</text>
<text text-anchor="middle" x="1497.5" y="-2117.2641" font-family="Times,serif" font-size="20.00" fill="#000000">ecocnt_audio=duration=1</text>
<text text-anchor="middle" x="1497.5" y="-2095.2641" font-family="Times,serif" font-size="20.00" fill="#000000">ecocnt_html=num_frames=1,input_id=test1</text>
<text text-anchor="middle" x="1497.5" y="-2073.2641" font-family="Times,serif" font-size="20.00" fill="#000000">ecocnt_html=num_frames=2</text>
<text text-anchor="middle" x="1497.5" y="-2051.2641" font-family="Times,serif" font-size="20.00" fill="#000000">ecocnt_html=post_message=mes1</text>
<text text-anchor="middle" x="1497.5" y="-2029.2641" font-family="Times,serif" font-size="20.00" fill="#000000">ecocnt_img=width=50,height=50,type=png</text>
<text text-anchor="middle" x="1497.5" y="-2007.2641" font-family="Times,serif" font-size="20.00" fill="#000000">ecocnt_js=.,,.</text>
<text text-anchor="middle" x="1497.5" y="-1985.2641" font-family="Times,serif" font-size="20.00" fill="#000000">ecocnt_js=var a=5;</text>
</g>
<!-- SG_0_Node_3 -->
<g id="node6" class="node">
<title>SG_0_Node_3</title>
<polygon fill="none" stroke="#000000" points="689.5,-1712.6245 468.5,-1712.6245 468.5,-1676.6245 689.5,-1676.6245 689.5,-1712.6245"/>
<text text-anchor="middle" x="579" y="-1689.6245" font-family="Times,serif" font-size="20.00" fill="#000000">Content&#45;Disposition</text>
</g>
<!-- SG_0_Node_2&#45;&gt;SG_0_Node_3 -->
<g id="edge5" class="edge">
<title>SG_0_Node_2&#45;&gt;SG_0_Node_3</title>
<path fill="none" stroke="#000000" d="M634.1136,-1902.8901C618.7768,-1893.1825 602.2944,-1879.7205 593,-1862.8377 568.6651,-1818.6345 570.7322,-1757.7943 574.6942,-1722.695"/>
<polygon fill="#000000" stroke="#000000" points="578.1789,-1723.0347 575.9574,-1712.6755 571.2339,-1722.1591 578.1789,-1723.0347"/>
<text text-anchor="middle" x="704" y="-1846.8377" font-family="Times,serif" font-size="20.00" fill="#000000">[NA]</text>
<text text-anchor="middle" x="704" y="-1824.8377" font-family="Times,serif" font-size="20.00" fill="#000000">application/javascript</text>
<text text-anchor="middle" x="704" y="-1802.8377" font-family="Times,serif" font-size="20.00" fill="#000000">application/pdf</text>
<text text-anchor="middle" x="704" y="-1780.8377" font-family="Times,serif" font-size="20.00" fill="#000000">audio/wav</text>
<text text-anchor="middle" x="704" y="-1758.8377" font-family="Times,serif" font-size="20.00" fill="#000000">image/png</text>
</g>
<!-- SG_0_Node_28 -->
<g id="node7" class="node">
<title>SG_0_Node_28</title>
<ellipse fill="none" stroke="#000000" cx="837" cy="-1694.6245" rx="34.7971" ry="21.4286"/>
<text text-anchor="middle" x="837" y="-1689.6245" font-family="Times,serif" font-size="20.00" fill="#000000">1.0</text>
</g>
<!-- SG_0_Node_2&#45;&gt;SG_0_Node_28 -->
<g id="edge6" class="edge">
<title>SG_0_Node_2&#45;&gt;SG_0_Node_28</title>
<path fill="none" stroke="#000000" d="M747.7711,-1906.2986C772.8743,-1897.7113 798.4613,-1884.168 815,-1862.8377 845.5515,-1823.4347 845.3171,-1762.5856 841.6531,-1725.8852"/>
<polygon fill="#000000" stroke="#000000" points="845.1095,-1725.3034 840.4942,-1715.7667 838.1549,-1726.1 845.1095,-1725.3034"/>
<text text-anchor="middle" x="896.5" y="-1835.8377" font-family="Times,serif" font-size="20.00" fill="#000000">empty</text>
<text text-anchor="middle" x="896.5" y="-1813.8377" font-family="Times,serif" font-size="20.00" fill="#000000">text/css</text>
<text text-anchor="middle" x="896.5" y="-1791.8377" font-family="Times,serif" font-size="20.00" fill="#000000">text/html</text>
<text text-anchor="middle" x="896.5" y="-1769.8377" font-family="Times,serif" font-size="20.00" fill="#000000">video/mp4</text>
</g>
<!-- SG_0_Node_4 -->
<g id="node8" class="node">
<title>SG_0_Node_4</title>
<polygon fill="none" stroke="#000000" points="622,-1555.4113 480,-1555.4113 480,-1519.4113 622,-1519.4113 622,-1555.4113"/>
<text text-anchor="middle" x="551" y="-1532.4113" font-family="Times,serif" font-size="20.00" fill="#000000">Status&#45;Code</text>
</g>
<!-- SG_0_Node_3&#45;&gt;SG_0_Node_4 -->
<g id="edge7" class="edge">
<title>SG_0_Node_3&#45;&gt;SG_0_Node_4</title>
<path fill="none" stroke="#000000" d="M574.1353,-1676.3687C571.2096,-1664.9456 567.5677,-1649.8898 565,-1636.4113 560.4842,-1612.7065 556.7445,-1585.5533 554.2696,-1565.6869"/>
<polygon fill="#000000" stroke="#000000" points="557.7421,-1565.2484 553.0606,-1555.744 550.7933,-1566.0934 557.7421,-1565.2484"/>
<text text-anchor="middle" x="624" y="-1609.4113" font-family="Times,serif" font-size="20.00" fill="#000000">attachment</text>
</g>
<!-- SG_0_Node_5 -->
<g id="node9" class="node">
<title>SG_0_Node_5</title>
<polygon fill="none" stroke="#000000" points="737.5,-1555.4113 672.5,-1555.4113 672.5,-1519.4113 737.5,-1519.4113 737.5,-1555.4113"/>
<text text-anchor="middle" x="705" y="-1532.4113" font-family="Times,serif" font-size="20.00" fill="#000000">body</text>
</g>
<!-- SG_0_Node_3&#45;&gt;SG_0_Node_5 -->
<g id="edge8" class="edge">
<title>SG_0_Node_3&#45;&gt;SG_0_Node_5</title>
<path fill="none" stroke="#000000" d="M629.9833,-1676.6012C649.2586,-1667.3814 669.7237,-1654.2582 683,-1636.4113 698.1931,-1615.9877 703.2423,-1587.0578 704.7595,-1565.743"/>
<polygon fill="#000000" stroke="#000000" points="708.2594,-1565.8303 705.2579,-1555.6695 701.2679,-1565.4843 708.2594,-1565.8303"/>
<text text-anchor="middle" x="733" y="-1620.4113" font-family="Times,serif" font-size="20.00" fill="#000000">[NA]</text>
<text text-anchor="middle" x="733" y="-1598.4113" font-family="Times,serif" font-size="20.00" fill="#000000">empty</text>
</g>
<!-- SG_0_Node_6 -->
<g id="node10" class="node">
<title>SG_0_Node_6</title>
<polygon fill="none" stroke="#000000" points="564.5,-1354.1981 409.5,-1354.1981 409.5,-1318.1981 564.5,-1318.1981 564.5,-1354.1981"/>
<text text-anchor="middle" x="487" y="-1331.1981" font-family="Times,serif" font-size="20.00" fill="#000000">Content&#45;Type</text>
</g>
<!-- SG_0_Node_4&#45;&gt;SG_0_Node_6 -->
<g id="edge17" class="edge">
<title>SG_0_Node_4&#45;&gt;SG_0_Node_6</title>
<path fill="none" stroke="#000000" d="M543.2003,-1519.251C538.767,-1508.6142 533.267,-1494.8642 529,-1482.4113 515.1231,-1441.9126 501.9808,-1394.0806 494.2064,-1364.4384"/>
<polygon fill="#000000" stroke="#000000" points="497.4971,-1363.1856 491.5936,-1354.3879 490.7223,-1364.9468 497.4971,-1363.1856"/>
<text text-anchor="middle" x="548.5" y="-1455.4113" font-family="Times,serif" font-size="20.00" fill="#000000">202</text>
<text text-anchor="middle" x="548.5" y="-1433.4113" font-family="Times,serif" font-size="20.00" fill="#000000">203</text>
<text text-anchor="middle" x="548.5" y="-1411.4113" font-family="Times,serif" font-size="20.00" fill="#000000">207</text>
</g>
<!-- SG_0_Node_29 -->
<g id="node11" class="node">
<title>SG_0_Node_29</title>
<ellipse fill="none" stroke="#000000" cx="617" cy="-1336.1981" rx="34.7971" ry="21.4286"/>
<text text-anchor="middle" x="617" y="-1331.1981" font-family="Times,serif" font-size="20.00" fill="#000000">1.0</text>
</g>
<!-- SG_0_Node_4&#45;&gt;SG_0_Node_29 -->
<g id="edge18" class="edge">
<title>SG_0_Node_4&#45;&gt;SG_0_Node_29</title>
<path fill="none" stroke="#000000" d="M556.9735,-1519.2C568.3127,-1484.6302 593.0646,-1409.1694 606.9826,-1366.7378"/>
<polygon fill="#000000" stroke="#000000" points="610.3175,-1367.8005 610.1086,-1357.2077 603.6662,-1365.6187 610.3175,-1367.8005"/>
<text text-anchor="middle" x="616.5" y="-1433.4113" font-family="Times,serif" font-size="20.00" fill="#000000">226</text>
</g>
<!-- SG_0_Node_7 -->
<g id="node12" class="node">
<title>SG_0_Node_7</title>
<polygon fill="none" stroke="#000000" points="1204,-1354.1981 1062,-1354.1981 1062,-1318.1981 1204,-1318.1981 1204,-1354.1981"/>
<text text-anchor="middle" x="1133" y="-1331.1981" font-family="Times,serif" font-size="20.00" fill="#000000">Status&#45;Code</text>
</g>
<!-- SG_0_Node_5&#45;&gt;SG_0_Node_7 -->
<g id="edge9" class="edge">
<title>SG_0_Node_5&#45;&gt;SG_0_Node_7</title>
<path fill="none" stroke="#000000" d="M693.4695,-1519.0776C676.2645,-1489.148 649.0371,-1429.6077 680,-1394.4113 704.1016,-1367.0143 927.7548,-1348.9189 1051.5259,-1340.9135"/>
<polygon fill="#000000" stroke="#000000" points="1051.9644,-1344.3928 1061.7209,-1340.2623 1051.5181,-1337.407 1051.9644,-1344.3928"/>
<text text-anchor="middle" x="953" y="-1433.4113" font-family="Times,serif" font-size="20.00" fill="#000000">ecocnt_html=meta_refresh=0;http://172.17.0.1:8000</text>
</g>
<!-- SG_0_Node_30 -->
<g id="node13" class="node">
<title>SG_0_Node_30</title>
<ellipse fill="none" stroke="#000000" cx="1257" cy="-1336.1981" rx="34.7971" ry="21.4286"/>
<text text-anchor="middle" x="1257" y="-1331.1981" font-family="Times,serif" font-size="20.00" fill="#000000">1.0</text>
</g>
<!-- SG_0_Node_5&#45;&gt;SG_0_Node_30 -->
<g id="edge10" class="edge">
<title>SG_0_Node_5&#45;&gt;SG_0_Node_30</title>
<path fill="none" stroke="#000000" d="M737.6372,-1536.165C846.0894,-1531.7271 1189.643,-1515.1793 1226,-1482.4113 1257.7417,-1453.8029 1261.4741,-1401.4976 1260.0977,-1367.8206"/>
<polygon fill="#000000" stroke="#000000" points="1263.5776,-1367.3735 1259.5003,-1357.5947 1256.5895,-1367.7818 1263.5776,-1367.3735"/>
<text text-anchor="middle" x="1504.5" y="-1466.4113" font-family="Times,serif" font-size="20.00" fill="#000000">ecocnt_css=h1 {color: blue}</text>
<text text-anchor="middle" x="1504.5" y="-1444.4113" font-family="Times,serif" font-size="20.00" fill="#000000">ecocnt_pdf=a=a</text>
<text text-anchor="middle" x="1504.5" y="-1422.4113" font-family="Times,serif" font-size="20.00" fill="#000000">ecocnt_vid=width=100,height=100,duration=2</text>
<text text-anchor="middle" x="1504.5" y="-1400.4113" font-family="Times,serif" font-size="20.00" fill="#000000">empty</text>
</g>
<!-- SG_0_Node_8 -->
<g id="node14" class="node">
<title>SG_0_Node_8</title>
<polygon fill="none" stroke="#000000" points="390.5,-1149.7716 325.5,-1149.7716 325.5,-1113.7716 390.5,-1113.7716 390.5,-1149.7716"/>
<text text-anchor="middle" x="358" y="-1126.7716" font-family="Times,serif" font-size="20.00" fill="#000000">body</text>
</g>
<!-- SG_0_Node_6&#45;&gt;SG_0_Node_8 -->
<g id="edge19" class="edge">
<title>SG_0_Node_6&#45;&gt;SG_0_Node_8</title>
<path fill="none" stroke="#000000" d="M424.6846,-1318.1507C404.7176,-1309.2651 384.5506,-1296.3762 372,-1277.9848 348.0843,-1242.9393 349.342,-1191.686 353.1534,-1160.0965"/>
<polygon fill="#000000" stroke="#000000" points="356.674,-1160.1857 354.5709,-1149.8017 349.7395,-1159.2308 356.674,-1160.1857"/>
<text text-anchor="middle" x="483" y="-1261.9848" font-family="Times,serif" font-size="20.00" fill="#000000">[NA]</text>
<text text-anchor="middle" x="483" y="-1239.9848" font-family="Times,serif" font-size="20.00" fill="#000000">application/javascript</text>
<text text-anchor="middle" x="483" y="-1217.9848" font-family="Times,serif" font-size="20.00" fill="#000000">application/pdf</text>
<text text-anchor="middle" x="483" y="-1195.9848" font-family="Times,serif" font-size="20.00" fill="#000000">image/png</text>
</g>
<!-- SG_0_Node_31 -->
<g id="node15" class="node">
<title>SG_0_Node_31</title>
<ellipse fill="none" stroke="#000000" cx="616" cy="-1131.7716" rx="34.7971" ry="21.4286"/>
<text text-anchor="middle" x="616" y="-1126.7716" font-family="Times,serif" font-size="20.00" fill="#000000">1.0</text>
</g>
<!-- SG_0_Node_6&#45;&gt;SG_0_Node_31 -->
<g id="edge20" class="edge">
<title>SG_0_Node_6&#45;&gt;SG_0_Node_31</title>
<path fill="none" stroke="#000000" d="M541.7485,-1318.1848C561.1662,-1309.11 581.323,-1296.0866 594,-1277.9848 617.7473,-1244.0755 620.3056,-1194.8647 618.9473,-1163.0878"/>
<polygon fill="#000000" stroke="#000000" points="622.4369,-1162.8066 618.3614,-1153.027 615.4487,-1163.2136 622.4369,-1162.8066"/>
<text text-anchor="middle" x="670" y="-1228.9848" font-family="Times,serif" font-size="20.00" fill="#000000">audio/wav</text>
</g>
<!-- SG_0_Node_9 -->
<g id="node16" class="node">
<title>SG_0_Node_9</title>
<polygon fill="none" stroke="#000000" points="1215.5,-1149.7716 1060.5,-1149.7716 1060.5,-1113.7716 1215.5,-1113.7716 1215.5,-1149.7716"/>
<text text-anchor="middle" x="1138" y="-1126.7716" font-family="Times,serif" font-size="20.00" fill="#000000">Content&#45;Type</text>
</g>
<!-- SG_0_Node_7&#45;&gt;SG_0_Node_9 -->
<g id="edge11" class="edge">
<title>SG_0_Node_7&#45;&gt;SG_0_Node_9</title>
<path fill="none" stroke="#000000" d="M1133.4437,-1318.0566C1134.3166,-1282.3697 1136.2624,-1202.8127 1137.3064,-1160.128"/>
<polygon fill="#000000" stroke="#000000" points="1140.8116,-1159.9551 1137.5573,-1149.8725 1133.8137,-1159.7839 1140.8116,-1159.9551"/>
<text text-anchor="middle" x="1155.5" y="-1228.9848" font-family="Times,serif" font-size="20.00" fill="#000000">226</text>
</g>
<!-- SG_0_Node_32 -->
<g id="node17" class="node">
<title>SG_0_Node_32</title>
<ellipse fill="none" stroke="#000000" cx="1268" cy="-1131.7716" rx="34.7971" ry="21.4286"/>
<text text-anchor="middle" x="1268" y="-1126.7716" font-family="Times,serif" font-size="20.00" fill="#000000">1.0</text>
</g>
<!-- SG_0_Node_7&#45;&gt;SG_0_Node_32 -->
<g id="edge12" class="edge">
<title>SG_0_Node_7&#45;&gt;SG_0_Node_32</title>
<path fill="none" stroke="#000000" d="M1148.2996,-1318.0225C1157.5448,-1306.756 1169.3644,-1291.8372 1179,-1277.9848 1206.3738,-1238.6318 1234.588,-1190.8182 1251.7145,-1160.832"/>
<polygon fill="#000000" stroke="#000000" points="1254.7632,-1162.5509 1256.6604,-1152.1273 1248.6771,-1159.0928 1254.7632,-1162.5509"/>
<text text-anchor="middle" x="1253.5" y="-1250.9848" font-family="Times,serif" font-size="20.00" fill="#000000">202</text>
<text text-anchor="middle" x="1253.5" y="-1228.9848" font-family="Times,serif" font-size="20.00" fill="#000000">203</text>
<text text-anchor="middle" x="1253.5" y="-1206.9848" font-family="Times,serif" font-size="20.00" fill="#000000">207</text>
</g>
<!-- SG_0_Node_10 -->
<g id="node18" class="node">
<title>SG_0_Node_10</title>
<polygon fill="none" stroke="#000000" points="465.5,-945.3452 274.5,-945.3452 274.5,-909.3452 465.5,-909.3452 465.5,-945.3452"/>
<text text-anchor="middle" x="370" y="-922.3452" font-family="Times,serif" font-size="20.00" fill="#000000">X&#45;Frame&#45;Options</text>
</g>
<!-- SG_0_Node_8&#45;&gt;SG_0_Node_10 -->
<g id="edge21" class="edge">
<title>SG_0_Node_8&#45;&gt;SG_0_Node_10</title>
<path fill="none" stroke="#000000" d="M325.2789,-1130.6952C252.9307,-1127.5561 83.0097,-1115.7544 48,-1073.5584 23.0264,-1043.4587 22.9247,-1015.5735 48,-985.5584 75.3432,-952.8288 181.3782,-938.4667 264.3922,-932.1854"/>
<polygon fill="#000000" stroke="#000000" points="264.6748,-935.6742 274.3949,-931.4588 264.1675,-928.6926 264.6748,-935.6742"/>
<text text-anchor="middle" x="293.5" y="-1057.5584" font-family="Times,serif" font-size="20.00" fill="#000000">ecocnt_css=h1 {color: blue}</text>
<text text-anchor="middle" x="293.5" y="-1035.5584" font-family="Times,serif" font-size="20.00" fill="#000000">ecocnt_pdf=a=a</text>
<text text-anchor="middle" x="293.5" y="-1013.5584" font-family="Times,serif" font-size="20.00" fill="#000000">ecocnt_vid=width=100,height=100,duration=2</text>
<text text-anchor="middle" x="293.5" y="-991.5584" font-family="Times,serif" font-size="20.00" fill="#000000">empty</text>
</g>
<!-- SG_0_Node_33 -->
<g id="node19" class="node">
<title>SG_0_Node_33</title>
<ellipse fill="none" stroke="#000000" cx="561" cy="-927.3452" rx="34.7971" ry="21.4286"/>
<text text-anchor="middle" x="561" y="-922.3452" font-family="Times,serif" font-size="20.00" fill="#000000">1.0</text>
</g>
<!-- SG_0_Node_8&#45;&gt;SG_0_Node_33 -->
<g id="edge22" class="edge">
<title>SG_0_Node_8&#45;&gt;SG_0_Node_33</title>
<path fill="none" stroke="#000000" d="M390.5216,-1125.5708C437.1832,-1115.9957 519.653,-1096.32 539,-1073.5584 566.035,-1041.752 567.6007,-991.3556 565.1456,-958.821"/>
<polygon fill="#000000" stroke="#000000" points="568.5992,-958.1586 564.1898,-948.525 561.6292,-958.8057 568.5992,-958.1586"/>
<text text-anchor="middle" x="838" y="-1024.5584" font-family="Times,serif" font-size="20.00" fill="#000000">ecocnt_html=meta_refresh=0;http://172.17.0.1:8000</text>
</g>
<!-- SG_0_Node_11 -->
<g id="node20" class="node">
<title>SG_0_Node_11</title>
<polygon fill="none" stroke="#000000" points="1257,-945.3452 995,-945.3452 995,-909.3452 1257,-909.3452 1257,-945.3452"/>
<text text-anchor="middle" x="1126" y="-922.3452" font-family="Times,serif" font-size="20.00" fill="#000000">X&#45;Content&#45;Type&#45;Options</text>
</g>
<!-- SG_0_Node_9&#45;&gt;SG_0_Node_11 -->
<g id="edge13" class="edge">
<title>SG_0_Node_9&#45;&gt;SG_0_Node_11</title>
<path fill="none" stroke="#000000" d="M1136.9351,-1113.6302C1134.8358,-1077.8675 1130.1503,-998.0483 1127.6486,-955.4302"/>
<polygon fill="#000000" stroke="#000000" points="1131.1426,-955.2237 1127.0625,-945.4461 1124.1546,-955.634 1131.1426,-955.2237"/>
<text text-anchor="middle" x="1186" y="-1024.5584" font-family="Times,serif" font-size="20.00" fill="#000000">audio/wav</text>
</g>
<!-- SG_0_Node_34 -->
<g id="node21" class="node">
<title>SG_0_Node_34</title>
<ellipse fill="none" stroke="#000000" cx="1310" cy="-927.3452" rx="34.7971" ry="21.4286"/>
<text text-anchor="middle" x="1310" y="-922.3452" font-family="Times,serif" font-size="20.00" fill="#000000">1.0</text>
</g>
<!-- SG_0_Node_9&#45;&gt;SG_0_Node_34 -->
<g id="edge14" class="edge">
<title>SG_0_Node_9&#45;&gt;SG_0_Node_34</title>
<path fill="none" stroke="#000000" d="M1183.9511,-1113.7445C1203.7752,-1104.1688 1226.0276,-1090.7756 1242,-1073.5584 1273.0107,-1040.1311 1292.087,-990.0541 1301.8622,-958.044"/>
<polygon fill="#000000" stroke="#000000" points="1305.2554,-958.9108 1304.7125,-948.3299 1298.5385,-956.9399 1305.2554,-958.9108"/>
<text text-anchor="middle" x="1403" y="-1057.5584" font-family="Times,serif" font-size="20.00" fill="#000000">[NA]</text>
<text text-anchor="middle" x="1403" y="-1035.5584" font-family="Times,serif" font-size="20.00" fill="#000000">application/javascript</text>
<text text-anchor="middle" x="1403" y="-1013.5584" font-family="Times,serif" font-size="20.00" fill="#000000">application/pdf</text>
<text text-anchor="middle" x="1403" y="-991.5584" font-family="Times,serif" font-size="20.00" fill="#000000">image/png</text>
</g>
<!-- SG_0_Node_12 -->
<g id="node22" class="node">
<title>SG_0_Node_12</title>
<polygon fill="none" stroke="#000000" points="441,-784.9188 299,-784.9188 299,-748.9188 441,-748.9188 441,-784.9188"/>
<text text-anchor="middle" x="370" y="-761.9188" font-family="Times,serif" font-size="20.00" fill="#000000">Status&#45;Code</text>
</g>
<!-- SG_0_Node_10&#45;&gt;SG_0_Node_12 -->
<g id="edge23" class="edge">
<title>SG_0_Node_10&#45;&gt;SG_0_Node_12</title>
<path fill="none" stroke="#000000" d="M370,-909.2541C370,-881.5723 370,-828.457 370,-795.5203"/>
<polygon fill="#000000" stroke="#000000" points="373.5001,-795.1899 370,-785.19 366.5001,-795.19 373.5001,-795.1899"/>
<text text-anchor="middle" x="402" y="-842.132" font-family="Times,serif" font-size="20.00" fill="#000000">empty</text>
</g>
<!-- SG_0_Node_13 -->
<g id="node23" class="node">
<title>SG_0_Node_13</title>
<polygon fill="none" stroke="#000000" points="949.5,-784.9188 884.5,-784.9188 884.5,-748.9188 949.5,-748.9188 949.5,-784.9188"/>
<text text-anchor="middle" x="917" y="-761.9188" font-family="Times,serif" font-size="20.00" fill="#000000">body</text>
</g>
<!-- SG_0_Node_10&#45;&gt;SG_0_Node_13 -->
<g id="edge24" class="edge">
<title>SG_0_Node_10&#45;&gt;SG_0_Node_13</title>
<path fill="none" stroke="#000000" d="M431.4199,-909.3318C543.5548,-876.4444 778.7187,-807.4745 874.7702,-779.3042"/>
<polygon fill="#000000" stroke="#000000" points="875.8226,-782.643 884.4334,-776.4701 873.8526,-775.9259 875.8226,-782.643"/>
<text text-anchor="middle" x="740" y="-853.132" font-family="Times,serif" font-size="20.00" fill="#000000">[NA]</text>
<text text-anchor="middle" x="740" y="-831.132" font-family="Times,serif" font-size="20.00" fill="#000000">deny</text>
</g>
<!-- SG_0_Node_35 -->
<g id="node24" class="node">
<title>SG_0_Node_35</title>
<ellipse fill="none" stroke="#000000" cx="1064" cy="-766.9188" rx="52.1524" ry="21.4286"/>
<text text-anchor="middle" x="1064" y="-761.9188" font-family="Times,serif" font-size="20.00" fill="#000000">0.938</text>
</g>
<!-- SG_0_Node_11&#45;&gt;SG_0_Node_35 -->
<g id="edge15" class="edge">
<title>SG_0_Node_11&#45;&gt;SG_0_Node_35</title>
<path fill="none" stroke="#000000" d="M1103.6861,-909.2549C1092.4526,-898.7967 1079.8052,-884.6537 1073,-869.132 1063.2541,-846.903 1061.3329,-819.3823 1061.668,-798.4994"/>
<polygon fill="#000000" stroke="#000000" points="1065.1747,-798.3613 1062.0194,-788.2472 1058.1788,-798.1214 1065.1747,-798.3613"/>
<text text-anchor="middle" x="1105" y="-842.132" font-family="Times,serif" font-size="20.00" fill="#000000">empty</text>
</g>
<!-- SG_0_Node_36 -->
<g id="node25" class="node">
<title>SG_0_Node_36</title>
<ellipse fill="none" stroke="#000000" cx="1169" cy="-766.9188" rx="34.7971" ry="21.4286"/>
<text text-anchor="middle" x="1169" y="-761.9188" font-family="Times,serif" font-size="20.00" fill="#000000">1.0</text>
</g>
<!-- SG_0_Node_11&#45;&gt;SG_0_Node_36 -->
<g id="edge16" class="edge">
<title>SG_0_Node_11&#45;&gt;SG_0_Node_36</title>
<path fill="none" stroke="#000000" d="M1130.8491,-909.2541C1138.083,-882.2653 1151.797,-831.1005 1160.6608,-798.0312"/>
<polygon fill="#000000" stroke="#000000" points="1164.1454,-798.5491 1163.3538,-787.9839 1157.3841,-796.7368 1164.1454,-798.5491"/>
<text text-anchor="middle" x="1188" y="-853.132" font-family="Times,serif" font-size="20.00" fill="#000000">[NA]</text>
<text text-anchor="middle" x="1188" y="-831.132" font-family="Times,serif" font-size="20.00" fill="#000000">nosniff</text>
</g>
<!-- SG_0_Node_15 -->
<g id="node26" class="node">
<title>SG_0_Node_15</title>
<polygon fill="none" stroke="#000000" points="272.5,-602.4924 207.5,-602.4924 207.5,-566.4924 272.5,-566.4924 272.5,-602.4924"/>
<text text-anchor="middle" x="240" y="-579.4924" font-family="Times,serif" font-size="20.00" fill="#000000">body</text>
</g>
<!-- SG_0_Node_12&#45;&gt;SG_0_Node_15 -->
<g id="edge31" class="edge">
<title>SG_0_Node_12&#45;&gt;SG_0_Node_15</title>
<path fill="none" stroke="#000000" d="M357.0598,-748.7602C333.9909,-716.3879 285.6742,-648.5861 258.8903,-611.0007"/>
<polygon fill="#000000" stroke="#000000" points="261.5416,-608.6903 252.8878,-602.5777 255.8409,-612.7526 261.5416,-608.6903"/>
<text text-anchor="middle" x="347.5" y="-670.7056" font-family="Times,serif" font-size="20.00" fill="#000000">202</text>
</g>
<!-- SG_0_Node_16 -->
<g id="node27" class="node">
<title>SG_0_Node_16</title>
<polygon fill="none" stroke="#000000" points="799.5,-602.4924 734.5,-602.4924 734.5,-566.4924 799.5,-566.4924 799.5,-602.4924"/>
<text text-anchor="middle" x="767" y="-579.4924" font-family="Times,serif" font-size="20.00" fill="#000000">body</text>
</g>
<!-- SG_0_Node_12&#45;&gt;SG_0_Node_16 -->
<g id="edge32" class="edge">
<title>SG_0_Node_12&#45;&gt;SG_0_Node_16</title>
<path fill="none" stroke="#000000" d="M409.5173,-748.7602C484.75,-714.1898 647.9118,-639.2149 725.0197,-603.7829"/>
<polygon fill="#000000" stroke="#000000" points="726.8023,-606.8156 734.4275,-599.4599 723.8795,-600.455 726.8023,-606.8156"/>
<text text-anchor="middle" x="658.5" y="-681.7056" font-family="Times,serif" font-size="20.00" fill="#000000">203</text>
<text text-anchor="middle" x="658.5" y="-659.7056" font-family="Times,serif" font-size="20.00" fill="#000000">207</text>
</g>
<!-- SG_0_Node_17 -->
<g id="node28" class="node">
<title>SG_0_Node_17</title>
<polygon fill="none" stroke="#000000" points="1521,-602.4924 1379,-602.4924 1379,-566.4924 1521,-566.4924 1521,-602.4924"/>
<text text-anchor="middle" x="1450" y="-579.4924" font-family="Times,serif" font-size="20.00" fill="#000000">Status&#45;Code</text>
</g>
<!-- SG_0_Node_13&#45;&gt;SG_0_Node_17 -->
<g id="edge25" class="edge">
<title>SG_0_Node_13&#45;&gt;SG_0_Node_17</title>
<path fill="none" stroke="#000000" d="M912.8304,-748.7813C907.7736,-721.6286 903.0643,-670.6263 931,-642.7056 961.3437,-612.3782 1230.4961,-595.0754 1368.764,-588.1151"/>
<polygon fill="#000000" stroke="#000000" points="1369.0788,-591.6038 1378.8928,-587.6119 1368.7314,-584.6124 1369.0788,-591.6038"/>
<text text-anchor="middle" x="1176.5" y="-670.7056" font-family="Times,serif" font-size="20.00" fill="#000000">ecocnt_vid=width=100,height=100,duration=2</text>
</g>
<!-- SG_0_Node_37 -->
<g id="node29" class="node">
<title>SG_0_Node_37</title>
<ellipse fill="none" stroke="#000000" cx="1574" cy="-584.4924" rx="34.7971" ry="21.4286"/>
<text text-anchor="middle" x="1574" y="-579.4924" font-family="Times,serif" font-size="20.00" fill="#000000">1.0</text>
</g>
<!-- SG_0_Node_13&#45;&gt;SG_0_Node_37 -->
<g id="edge26" class="edge">
<title>SG_0_Node_13&#45;&gt;SG_0_Node_37</title>
<path fill="none" stroke="#000000" d="M949.8321,-757.5615C965.7632,-753.345 985.2519,-748.6602 1003,-745.7056 1187.4091,-715.007 1248.851,-779.1935 1422,-708.7056 1474.7345,-687.2377 1523.3764,-640.8868 1550.8074,-611.2745"/>
<polygon fill="#000000" stroke="#000000" points="1553.4981,-613.5179 1557.6408,-603.7665 1548.3213,-608.8061 1553.4981,-613.5179"/>
<text text-anchor="middle" x="1665.5" y="-692.7056" font-family="Times,serif" font-size="20.00" fill="#000000">ecocnt_css=h1 {color: blue}</text>
<text text-anchor="middle" x="1665.5" y="-670.7056" font-family="Times,serif" font-size="20.00" fill="#000000">ecocnt_pdf=a=a</text>
<text text-anchor="middle" x="1665.5" y="-648.7056" font-family="Times,serif" font-size="20.00" fill="#000000">empty</text>
</g>
<!-- SG_0_Node_18 -->
<g id="node30" class="node">
<title>SG_0_Node_18</title>
<polygon fill="none" stroke="#000000" points="314,-420.066 16,-420.066 16,-384.066 314,-384.066 314,-420.066"/>
<text text-anchor="middle" x="165" y="-397.066" font-family="Times,serif" font-size="20.00" fill="#000000">Cross&#45;Origin&#45;Opener&#45;Policy</text>
</g>
<!-- SG_0_Node_15&#45;&gt;SG_0_Node_18 -->
<g id="edge39" class="edge">
<title>SG_0_Node_15&#45;&gt;SG_0_Node_18</title>
<path fill="none" stroke="#000000" d="M207.1057,-579.3061C157.4331,-570.7274 67.0392,-551.9469 48,-526.2792 30.5245,-502.7197 32.5541,-485.2165 48,-460.2792 57.6768,-444.6562 72.9432,-433.0917 89.2933,-424.5815"/>
<polygon fill="#000000" stroke="#000000" points="90.9723,-427.6576 98.4595,-420.1615 87.9318,-421.3524 90.9723,-427.6576"/>
<text text-anchor="middle" x="133" y="-499.2792" font-family="Times,serif" font-size="20.00" fill="#000000">ecocnt_pdf=a=a</text>
<text text-anchor="middle" x="133" y="-477.2792" font-family="Times,serif" font-size="20.00" fill="#000000">empty</text>
</g>
<!-- SG_0_Node_38 -->
<g id="node31" class="node">
<title>SG_0_Node_38</title>
<ellipse fill="none" stroke="#000000" cx="367" cy="-402.066" rx="34.7971" ry="21.4286"/>
<text text-anchor="middle" x="367" y="-397.066" font-family="Times,serif" font-size="20.00" fill="#000000">1.0</text>
</g>
<!-- SG_0_Node_15&#45;&gt;SG_0_Node_38 -->
<g id="edge40" class="edge">
<title>SG_0_Node_15&#45;&gt;SG_0_Node_38</title>
<path fill="none" stroke="#000000" d="M240.5123,-566.2396C242.1005,-540.2902 248.3042,-492.3328 272,-460.2792 280.0195,-449.4312 307.5029,-433.1226 330.8592,-420.5243"/>
<polygon fill="#000000" stroke="#000000" points="332.7002,-423.5095 339.8871,-415.7249 329.4143,-417.3287 332.7002,-423.5095"/>
<text text-anchor="middle" x="517.5" y="-499.2792" font-family="Times,serif" font-size="20.00" fill="#000000">ecocnt_css=h1 {color: blue}</text>
<text text-anchor="middle" x="517.5" y="-477.2792" font-family="Times,serif" font-size="20.00" fill="#000000">ecocnt_vid=width=100,height=100,duration=2</text>
</g>
<!-- SG_0_Node_19 -->
<g id="node32" class="node">
<title>SG_0_Node_19</title>
<polygon fill="none" stroke="#000000" points="844.5,-420.066 689.5,-420.066 689.5,-384.066 844.5,-384.066 844.5,-420.066"/>
<text text-anchor="middle" x="767" y="-397.066" font-family="Times,serif" font-size="20.00" fill="#000000">Content&#45;Type</text>
</g>
<!-- SG_0_Node_16&#45;&gt;SG_0_Node_19 -->
<g id="edge33" class="edge">
<title>SG_0_Node_16&#45;&gt;SG_0_Node_19</title>
<path fill="none" stroke="#000000" d="M767,-566.3337C767,-534.5079 767,-468.4382 767,-430.5029"/>
<polygon fill="#000000" stroke="#000000" points="770.5001,-430.1512 767,-420.1513 763.5001,-430.1513 770.5001,-430.1512"/>
<text text-anchor="middle" x="914.5" y="-488.2792" font-family="Times,serif" font-size="20.00" fill="#000000">ecocnt_css=h1 {color: blue}</text>
</g>
<!-- SG_0_Node_39 -->
<g id="node33" class="node">
<title>SG_0_Node_39</title>
<ellipse fill="none" stroke="#000000" cx="1098" cy="-402.066" rx="34.7971" ry="21.4286"/>
<text text-anchor="middle" x="1098" y="-397.066" font-family="Times,serif" font-size="20.00" fill="#000000">1.0</text>
</g>
<!-- SG_0_Node_16&#45;&gt;SG_0_Node_39 -->
<g id="edge34" class="edge">
<title>SG_0_Node_16&#45;&gt;SG_0_Node_39</title>
<path fill="none" stroke="#000000" d="M799.6941,-582.4479C869.0681,-577.445 1027.7917,-562.2665 1066,-526.2792 1091.1549,-502.5865 1097.5718,-461.9778 1098.7245,-433.6658"/>
<polygon fill="#000000" stroke="#000000" points="1102.2276,-433.5486 1098.9366,-423.4779 1095.2291,-433.4029 1102.2276,-433.5486"/>
<text text-anchor="middle" x="1340.5" y="-510.2792" font-family="Times,serif" font-size="20.00" fill="#000000">ecocnt_pdf=a=a</text>
<text text-anchor="middle" x="1340.5" y="-488.2792" font-family="Times,serif" font-size="20.00" fill="#000000">ecocnt_vid=width=100,height=100,duration=2</text>
<text text-anchor="middle" x="1340.5" y="-466.2792" font-family="Times,serif" font-size="20.00" fill="#000000">empty</text>
</g>
<!-- SG_0_Node_20 -->
<g id="node34" class="node">
<title>SG_0_Node_20</title>
<polygon fill="none" stroke="#000000" points="1594.5,-420.066 1439.5,-420.066 1439.5,-384.066 1594.5,-384.066 1594.5,-420.066"/>
<text text-anchor="middle" x="1517" y="-397.066" font-family="Times,serif" font-size="20.00" fill="#000000">Content&#45;Type</text>
</g>
<!-- SG_0_Node_17&#45;&gt;SG_0_Node_20 -->
<g id="edge27" class="edge">
<title>SG_0_Node_17&#45;&gt;SG_0_Node_20</title>
<path fill="none" stroke="#000000" d="M1513.1477,-566.4469C1546.8343,-555.4084 1583.3135,-540.6807 1593,-526.2792 1609.371,-501.9393 1605.9851,-486.5819 1593,-460.2792 1586.1852,-446.4752 1574.3526,-435.0395 1562.0254,-426.0654"/>
<polygon fill="#000000" stroke="#000000" points="1563.7052,-422.9752 1553.4677,-420.2469 1559.7694,-428.7639 1563.7052,-422.9752"/>
<text text-anchor="middle" x="1623.5" y="-488.2792" font-family="Times,serif" font-size="20.00" fill="#000000">207</text>
</g>
<!-- SG_0_Node_40 -->
<g id="node35" class="node">
<title>SG_0_Node_40</title>
<ellipse fill="none" stroke="#000000" cx="1700" cy="-402.066" rx="34.7971" ry="21.4286"/>
<text text-anchor="middle" x="1700" y="-397.066" font-family="Times,serif" font-size="20.00" fill="#000000">1.0</text>
</g>
<!-- SG_0_Node_17&#45;&gt;SG_0_Node_40 -->
<g id="edge28" class="edge">
<title>SG_0_Node_17&#45;&gt;SG_0_Node_40</title>
<path fill="none" stroke="#000000" d="M1515.9221,-566.4555C1571.1672,-551.1139 1641.8557,-530.859 1647,-526.2792 1674.1738,-502.0873 1687.878,-461.5846 1694.4576,-433.4335"/>
<polygon fill="#000000" stroke="#000000" points="1697.9543,-433.8223 1696.6437,-423.3088 1691.112,-432.3449 1697.9543,-433.8223"/>
<text text-anchor="middle" x="1705.5" y="-499.2792" font-family="Times,serif" font-size="20.00" fill="#000000">202</text>
<text text-anchor="middle" x="1705.5" y="-477.2792" font-family="Times,serif" font-size="20.00" fill="#000000">203</text>
</g>
<!-- SG_0_Node_21 -->
<g id="node36" class="node">
<title>SG_0_Node_21</title>
<polygon fill="none" stroke="#000000" points="203.5,-237.6396 48.5,-237.6396 48.5,-201.6396 203.5,-201.6396 203.5,-237.6396"/>
<text text-anchor="middle" x="126" y="-214.6396" font-family="Times,serif" font-size="20.00" fill="#000000">Content&#45;Type</text>
</g>
<!-- SG_0_Node_18&#45;&gt;SG_0_Node_21 -->
<g id="edge41" class="edge">
<title>SG_0_Node_18&#45;&gt;SG_0_Node_21</title>
<path fill="none" stroke="#000000" d="M161.1179,-383.9073C154.2849,-351.9449 140.068,-285.4441 131.9753,-247.5896"/>
<polygon fill="#000000" stroke="#000000" points="135.3797,-246.7721 129.8664,-237.7249 128.5344,-248.2356 135.3797,-246.7721"/>
<text text-anchor="middle" x="184" y="-305.8528" font-family="Times,serif" font-size="20.00" fill="#000000">empty</text>
</g>
<!-- SG_0_Node_41 -->
<g id="node37" class="node">
<title>SG_0_Node_41</title>
<ellipse fill="none" stroke="#000000" cx="256" cy="-219.6396" rx="34.7971" ry="21.4286"/>
<text text-anchor="middle" x="256" y="-214.6396" font-family="Times,serif" font-size="20.00" fill="#000000">1.0</text>
</g>
<!-- SG_0_Node_18&#45;&gt;SG_0_Node_41 -->
<g id="edge42" class="edge">
<title>SG_0_Node_18&#45;&gt;SG_0_Node_41</title>
<path fill="none" stroke="#000000" d="M185.9714,-383.9472C197.1734,-373.2753 210.3893,-358.9376 219,-343.8528 235.6668,-314.6549 245.4824,-277.2269 250.7667,-251.122"/>
<polygon fill="#000000" stroke="#000000" points="254.2563,-251.5076 252.6989,-241.0279 247.3811,-250.1915 254.2563,-251.5076"/>
<text text-anchor="middle" x="305" y="-316.8528" font-family="Times,serif" font-size="20.00" fill="#000000">[NA]</text>
<text text-anchor="middle" x="305" y="-294.8528" font-family="Times,serif" font-size="20.00" fill="#000000">same&#45;origin</text>
</g>
<!-- SG_0_Node_22 -->
<g id="node38" class="node">
<title>SG_0_Node_22</title>
<polygon fill="none" stroke="#000000" points="743,-237.6396 601,-237.6396 601,-201.6396 743,-201.6396 743,-237.6396"/>
<text text-anchor="middle" x="672" y="-214.6396" font-family="Times,serif" font-size="20.00" fill="#000000">Status&#45;Code</text>
</g>
<!-- SG_0_Node_19&#45;&gt;SG_0_Node_22 -->
<g id="edge35" class="edge">
<title>SG_0_Node_19&#45;&gt;SG_0_Node_22</title>
<path fill="none" stroke="#000000" d="M729.0931,-383.9262C713.1332,-374.2938 695.9792,-360.8869 686,-343.8528 668.8386,-314.5588 667.4239,-274.68 668.9189,-248.0936"/>
<polygon fill="#000000" stroke="#000000" points="672.4239,-248.1544 669.669,-237.924 665.4428,-247.6394 672.4239,-248.1544"/>
<text text-anchor="middle" x="763" y="-305.8528" font-family="Times,serif" font-size="20.00" fill="#000000">application/pdf</text>
</g>
<!-- SG_0_Node_42 -->
<g id="node39" class="node">
<title>SG_0_Node_42</title>
<ellipse fill="none" stroke="#000000" cx="862" cy="-219.6396" rx="34.7971" ry="21.4286"/>
<text text-anchor="middle" x="862" y="-214.6396" font-family="Times,serif" font-size="20.00" fill="#000000">1.0</text>
</g>
<!-- SG_0_Node_19&#45;&gt;SG_0_Node_42 -->
<g id="edge36" class="edge">
<title>SG_0_Node_19&#45;&gt;SG_0_Node_42</title>
<path fill="none" stroke="#000000" d="M799.2462,-383.8879C813.9504,-373.9461 830.224,-360.2935 840,-343.8528 856.8226,-315.5617 861.4753,-277.6771 862.4495,-251.2142"/>
<polygon fill="#000000" stroke="#000000" points="865.9535,-251.0531 862.6648,-240.9816 858.9551,-250.9057 865.9535,-251.0531"/>
<text text-anchor="middle" x="971" y="-327.8528" font-family="Times,serif" font-size="20.00" fill="#000000">[NA]</text>
<text text-anchor="middle" x="971" y="-305.8528" font-family="Times,serif" font-size="20.00" fill="#000000">application/javascript</text>
<text text-anchor="middle" x="971" y="-283.8528" font-family="Times,serif" font-size="20.00" fill="#000000">image/png</text>
</g>
<!-- SG_0_Node_43 -->
<g id="node40" class="node">
<title>SG_0_Node_43</title>
<ellipse fill="none" stroke="#000000" cx="1372" cy="-219.6396" rx="52.1524" ry="21.4286"/>
<text text-anchor="middle" x="1372" y="-214.6396" font-family="Times,serif" font-size="20.00" fill="#000000">0.938</text>
</g>
<!-- SG_0_Node_20&#45;&gt;SG_0_Node_43 -->
<g id="edge29" class="edge">
<title>SG_0_Node_20&#45;&gt;SG_0_Node_43</title>
<path fill="none" stroke="#000000" d="M1460.2302,-383.9712C1439.8564,-374.8861 1418.386,-361.8769 1404,-343.8528 1382.9063,-317.4248 1375.5776,-278.6478 1373.1058,-251.4689"/>
<polygon fill="#000000" stroke="#000000" points="1376.583,-251.0302 1372.3573,-241.3145 1369.6019,-251.5448 1376.583,-251.0302"/>
<text text-anchor="middle" x="1458.5" y="-305.8528" font-family="Times,serif" font-size="20.00" fill="#000000">image/png</text>
</g>
<!-- SG_0_Node_44 -->
<g id="node41" class="node">
<title>SG_0_Node_44</title>
<ellipse fill="none" stroke="#000000" cx="1517" cy="-219.6396" rx="34.7971" ry="21.4286"/>
<text text-anchor="middle" x="1517" y="-214.6396" font-family="Times,serif" font-size="20.00" fill="#000000">1.0</text>
</g>
<!-- SG_0_Node_20&#45;&gt;SG_0_Node_44 -->
<g id="edge30" class="edge">
<title>SG_0_Node_20&#45;&gt;SG_0_Node_44</title>
<path fill="none" stroke="#000000" d="M1517,-383.9073C1517,-352.9334 1517,-289.5245 1517,-251.1822"/>
<polygon fill="#000000" stroke="#000000" points="1520.5001,-251.0802 1517,-241.0802 1513.5001,-251.0803 1520.5001,-251.0802"/>
<text text-anchor="middle" x="1628" y="-327.8528" font-family="Times,serif" font-size="20.00" fill="#000000">[NA]</text>
<text text-anchor="middle" x="1628" y="-305.8528" font-family="Times,serif" font-size="20.00" fill="#000000">application/javascript</text>
<text text-anchor="middle" x="1628" y="-283.8528" font-family="Times,serif" font-size="20.00" fill="#000000">application/pdf</text>
</g>
<!-- SG_0_Node_45 -->
<g id="node42" class="node">
<title>SG_0_Node_45</title>
<ellipse fill="none" stroke="#000000" cx="76" cy="-37.2132" rx="52.1524" ry="21.4286"/>
<text text-anchor="middle" x="76" y="-32.2132" font-family="Times,serif" font-size="20.00" fill="#000000">0.938</text>
</g>
<!-- SG_0_Node_21&#45;&gt;SG_0_Node_45 -->
<g id="edge43" class="edge">
<title>SG_0_Node_21&#45;&gt;SG_0_Node_45</title>
<path fill="none" stroke="#000000" d="M111.9109,-201.57C104.1134,-190.5814 95.0113,-175.913 90,-161.4264 79.5088,-131.0989 76.4665,-94.3625 75.7682,-68.7404"/>
<polygon fill="#000000" stroke="#000000" points="79.2636,-68.4313 75.5975,-58.491 72.2646,-68.5479 79.2636,-68.4313"/>
<text text-anchor="middle" x="201" y="-145.4264" font-family="Times,serif" font-size="20.00" fill="#000000">[NA]</text>
<text text-anchor="middle" x="201" y="-123.4264" font-family="Times,serif" font-size="20.00" fill="#000000">application/javascript</text>
<text text-anchor="middle" x="201" y="-101.4264" font-family="Times,serif" font-size="20.00" fill="#000000">application/pdf</text>
</g>
<!-- SG_0_Node_46 -->
<g id="node43" class="node">
<title>SG_0_Node_46</title>
<ellipse fill="none" stroke="#000000" cx="334" cy="-37.2132" rx="34.7971" ry="21.4286"/>
<text text-anchor="middle" x="334" y="-32.2132" font-family="Times,serif" font-size="20.00" fill="#000000">1.0</text>
</g>
<!-- SG_0_Node_21&#45;&gt;SG_0_Node_46 -->
<g id="edge44" class="edge">
<title>SG_0_Node_21&#45;&gt;SG_0_Node_46</title>
<path fill="none" stroke="#000000" d="M195.5032,-201.6306C244.8988,-188.2095 303.8715,-170.6683 312,-161.4264 334.2175,-136.1657 337.6934,-96.4974 336.9196,-68.8068"/>
<polygon fill="#000000" stroke="#000000" points="340.399,-68.2939 336.4207,-58.4744 333.4072,-68.6316 340.399,-68.2939"/>
<text text-anchor="middle" x="390.5" y="-123.4264" font-family="Times,serif" font-size="20.00" fill="#000000">image/png</text>
</g>
<!-- SG_0_Node_47 -->
<g id="node44" class="node">
<title>SG_0_Node_47</title>
<ellipse fill="none" stroke="#000000" cx="620" cy="-37.2132" rx="52.1524" ry="21.4286"/>
<text text-anchor="middle" x="620" y="-32.2132" font-family="Times,serif" font-size="20.00" fill="#000000">0.938</text>
</g>
<!-- SG_0_Node_22&#45;&gt;SG_0_Node_47 -->
<g id="edge37" class="edge">
<title>SG_0_Node_22&#45;&gt;SG_0_Node_47</title>
<path fill="none" stroke="#000000" d="M666.8239,-201.4809C657.9714,-170.4246 639.8242,-106.7606 628.9041,-68.4504"/>
<polygon fill="#000000" stroke="#000000" points="632.1367,-67.023 626.0294,-58.3655 625.4048,-68.9419 632.1367,-67.023"/>
<text text-anchor="middle" x="674.5" y="-123.4264" font-family="Times,serif" font-size="20.00" fill="#000000">203</text>
</g>
<!-- SG_0_Node_48 -->
<g id="node45" class="node">
<title>SG_0_Node_48</title>
<ellipse fill="none" stroke="#000000" cx="725" cy="-37.2132" rx="34.7971" ry="21.4286"/>
<text text-anchor="middle" x="725" y="-32.2132" font-family="Times,serif" font-size="20.00" fill="#000000">1.0</text>
</g>
<!-- SG_0_Node_22&#45;&gt;SG_0_Node_48 -->
<g id="edge38" class="edge">
<title>SG_0_Node_22&#45;&gt;SG_0_Node_48</title>
<path fill="none" stroke="#000000" d="M679.9136,-201.5222C684.6906,-190.1511 690.6703,-175.1014 695,-161.4264 704.8437,-130.3358 713.2743,-93.9944 718.669,-68.6837"/>
<polygon fill="#000000" stroke="#000000" points="722.1652,-69.0644 720.7904,-58.5592 715.3139,-67.6288 722.1652,-69.0644"/>
<text text-anchor="middle" x="731.5" y="-123.4264" font-family="Times,serif" font-size="20.00" fill="#000000">207</text>
</g>
</g>
</svg>
