<?xml version="1.0" encoding="UTF-8" standalone="no"?>
<!DOCTYPE svg PUBLIC "-//W3C//DTD SVG 1.1//EN"
 "http://www.w3.org/Graphics/SVG/1.1/DTD/svg11.dtd">
<!-- Generated by graphviz version 2.40.1 (20161225.0304)
 -->
<!-- Title: G Pages: 1 -->
<svg width="728pt" height="1311pt"
 viewBox="0.00 0.00 728.00 1310.56" xmlns="http://www.w3.org/2000/svg" xmlns:xlink="http://www.w3.org/1999/xlink">
<g id="graph0" class="graph" transform="scale(1 1) rotate(0) translate(4 1306.5584)">
<title>G</title>
<polygon fill="#ffffff" stroke="transparent" points="-4,4 -4,-1306.5584 724,-1306.5584 724,4 -4,4"/>
<g id="clust1" class="cluster">
<title>cluster_0</title>
<polygon fill="none" stroke="#000000" points="8,-8 8,-1294.5584 712,-1294.5584 712,-8 8,-8"/>
<text text-anchor="middle" x="360" y="-1258.5584" font-family="Times,serif" font-size="40.00" fill="#000000">Tree 0, Class {&#39;H1&#39;: &#39;rgb(0, 0, 0)&#39;}</text>
</g>
<!-- SG_0_Node_0 -->
<g id="node1" class="node">
<title>SG_0_Node_0</title>
<polygon fill="none" stroke="#000000" points="463.5,-1234.5584 398.5,-1234.5584 398.5,-1198.5584 463.5,-1198.5584 463.5,-1234.5584"/>
<text text-anchor="middle" x="431" y="-1211.5584" font-family="Times,serif" font-size="20.00" fill="#000000">body</text>
</g>
<!-- SG_0_Node_1 -->
<g id="node2" class="node">
<title>SG_0_Node_1</title>
<polygon fill="none" stroke="#000000" points="337,-1077.3452 195,-1077.3452 195,-1041.3452 337,-1041.3452 337,-1077.3452"/>
<text text-anchor="middle" x="266" y="-1054.3452" font-family="Times,serif" font-size="20.00" fill="#000000">Status&#45;Code</text>
</g>
<!-- SG_0_Node_0&#45;&gt;SG_0_Node_1 -->
<g id="edge1" class="edge">
<title>SG_0_Node_0&#45;&gt;SG_0_Node_1</title>
<path fill="none" stroke="#000000" d="M398.4526,-1208.8864C358.7843,-1198.8559 295.1527,-1180.3422 280,-1161.5584 263.3774,-1140.9526 261.283,-1110.066 262.4815,-1087.6403"/>
<polygon fill="#000000" stroke="#000000" points="265.9925,-1087.6363 263.2852,-1077.3932 259.0139,-1087.0889 265.9925,-1087.6363"/>
<text text-anchor="middle" x="427.5" y="-1134.5584" font-family="Times,serif" font-size="20.00" fill="#000000">ecocnt_css=h1 {color: blue}</text>
</g>
<!-- SG_0_Node_6 -->
<g id="node3" class="node">
<title>SG_0_Node_6</title>
<ellipse fill="none" stroke="#000000" cx="597" cy="-1059.3452" rx="34.7971" ry="21.4286"/>
<text text-anchor="middle" x="597" y="-1054.3452" font-family="Times,serif" font-size="20.00" fill="#000000">1.0</text>
</g>
<!-- SG_0_Node_0&#45;&gt;SG_0_Node_6 -->
<g id="edge2" class="edge">
<title>SG_0_Node_0&#45;&gt;SG_0_Node_6</title>
<path fill="none" stroke="#000000" d="M463.5705,-1213.0678C496.6067,-1207.7491 546.7743,-1194.465 575,-1161.5584 591.6557,-1142.1405 596.6403,-1113.1233 597.7563,-1090.9616"/>
<polygon fill="#000000" stroke="#000000" points="601.2618,-1090.7942 598.0275,-1080.7051 594.2643,-1090.6091 601.2618,-1090.7942"/>
<text text-anchor="middle" x="640" y="-1145.5584" font-family="Times,serif" font-size="20.00" fill="#000000">[NA]</text>
<text text-anchor="middle" x="640" y="-1123.5584" font-family="Times,serif" font-size="20.00" fill="#000000">11 levels</text>
</g>
<!-- SG_0_Node_2 -->
<g id="node4" class="node">
<title>SG_0_Node_2</title>
<polygon fill="none" stroke="#000000" points="300.5,-784.9188 145.5,-784.9188 145.5,-748.9188 300.5,-748.9188 300.5,-784.9188"/>
<text text-anchor="middle" x="223" y="-761.9188" font-family="Times,serif" font-size="20.00" fill="#000000">Content&#45;Type</text>
</g>
<!-- SG_0_Node_1&#45;&gt;SG_0_Node_2 -->
<g id="edge3" class="edge">
<title>SG_0_Node_1&#45;&gt;SG_0_Node_2</title>
<path fill="none" stroke="#000000" d="M258.5811,-1041.3038C254.2249,-1029.9613 249.0013,-1014.9149 246,-1001.132 230.0583,-927.923 225.1537,-839.4166 223.6539,-795.094"/>
<polygon fill="#000000" stroke="#000000" points="227.1513,-794.9536 223.3481,-785.065 220.1546,-795.1671 227.1513,-794.9536"/>
<text text-anchor="middle" x="265.5" y="-985.132" font-family="Times,serif" font-size="20.00" fill="#000000">200</text>
<text text-anchor="middle" x="265.5" y="-963.132" font-family="Times,serif" font-size="20.00" fill="#000000">201</text>
<text text-anchor="middle" x="265.5" y="-941.132" font-family="Times,serif" font-size="20.00" fill="#000000">202</text>
<text text-anchor="middle" x="265.5" y="-919.132" font-family="Times,serif" font-size="20.00" fill="#000000">203</text>
<text text-anchor="middle" x="265.5" y="-897.132" font-family="Times,serif" font-size="20.00" fill="#000000">206</text>
<text text-anchor="middle" x="265.5" y="-875.132" font-family="Times,serif" font-size="20.00" fill="#000000">207</text>
<text text-anchor="middle" x="265.5" y="-853.132" font-family="Times,serif" font-size="20.00" fill="#000000">208</text>
<text text-anchor="middle" x="265.5" y="-831.132" font-family="Times,serif" font-size="20.00" fill="#000000">226</text>
</g>
<!-- SG_0_Node_7 -->
<g id="node5" class="node">
<title>SG_0_Node_7</title>
<ellipse fill="none" stroke="#000000" cx="353" cy="-766.9188" rx="34.7971" ry="21.4286"/>
<text text-anchor="middle" x="353" y="-761.9188" font-family="Times,serif" font-size="20.00" fill="#000000">1.0</text>
</g>
<!-- SG_0_Node_1&#45;&gt;SG_0_Node_7 -->
<g id="edge4" class="edge">
<title>SG_0_Node_1&#45;&gt;SG_0_Node_7</title>
<path fill="none" stroke="#000000" d="M272.0589,-1041.301C275.869,-1029.8287 280.8347,-1014.644 285,-1001.132 307.3915,-928.4957 331.8174,-842.5595 344.4138,-797.6939"/>
<polygon fill="#000000" stroke="#000000" points="347.8069,-798.5563 347.1355,-787.9828 341.0666,-796.6672 347.8069,-798.5563"/>
<text text-anchor="middle" x="381" y="-919.132" font-family="Times,serif" font-size="20.00" fill="#000000">[NA]</text>
<text text-anchor="middle" x="381" y="-897.132" font-family="Times,serif" font-size="20.00" fill="#000000">55 levels</text>
</g>
<!-- SG_0_Node_3 -->
<g id="node6" class="node">
<title>SG_0_Node_3</title>
<polygon fill="none" stroke="#000000" points="337.5,-514.4924 20.5,-514.4924 20.5,-478.4924 337.5,-478.4924 337.5,-514.4924"/>
<text text-anchor="middle" x="179" y="-491.4924" font-family="Times,serif" font-size="20.00" fill="#000000">Cross&#45;Origin&#45;Resource&#45;Policy</text>
</g>
<!-- SG_0_Node_2&#45;&gt;SG_0_Node_3 -->
<g id="edge5" class="edge">
<title>SG_0_Node_2&#45;&gt;SG_0_Node_3</title>
<path fill="none" stroke="#000000" d="M220.0447,-748.7555C212.5301,-702.5702 192.6488,-580.3784 183.6007,-524.7687"/>
<polygon fill="#000000" stroke="#000000" points="187.003,-523.8848 181.9424,-514.5767 180.0939,-525.009 187.003,-523.8848"/>
<text text-anchor="middle" x="252.5" y="-637.7056" font-family="Times,serif" font-size="20.00" fill="#000000">empty</text>
<text text-anchor="middle" x="252.5" y="-615.7056" font-family="Times,serif" font-size="20.00" fill="#000000">text/css</text>
</g>
<!-- SG_0_Node_8 -->
<g id="node7" class="node">
<title>SG_0_Node_8</title>
<ellipse fill="none" stroke="#000000" cx="390" cy="-496.4924" rx="34.7971" ry="21.4286"/>
<text text-anchor="middle" x="390" y="-491.4924" font-family="Times,serif" font-size="20.00" fill="#000000">1.0</text>
</g>
<!-- SG_0_Node_2&#45;&gt;SG_0_Node_8 -->
<g id="edge6" class="edge">
<title>SG_0_Node_2&#45;&gt;SG_0_Node_8</title>
<path fill="none" stroke="#000000" d="M251.7735,-748.8885C266.4903,-738.5447 283.8182,-724.4896 296,-708.7056 339.9891,-651.7089 368.3645,-570.8972 381.4927,-527.2792"/>
<polygon fill="#000000" stroke="#000000" points="384.894,-528.1185 384.3564,-517.5373 378.1782,-526.1443 384.894,-528.1185"/>
<text text-anchor="middle" x="483" y="-692.7056" font-family="Times,serif" font-size="20.00" fill="#000000">[NA]</text>
<text text-anchor="middle" x="483" y="-670.7056" font-family="Times,serif" font-size="20.00" fill="#000000">application/javascript</text>
<text text-anchor="middle" x="483" y="-648.7056" font-family="Times,serif" font-size="20.00" fill="#000000">application/pdf</text>
<text text-anchor="middle" x="483" y="-626.7056" font-family="Times,serif" font-size="20.00" fill="#000000">audio/wav</text>
<text text-anchor="middle" x="483" y="-604.7056" font-family="Times,serif" font-size="20.00" fill="#000000">image/png</text>
<text text-anchor="middle" x="483" y="-582.7056" font-family="Times,serif" font-size="20.00" fill="#000000">text/html</text>
<text text-anchor="middle" x="483" y="-560.7056" font-family="Times,serif" font-size="20.00" fill="#000000">video/mp4</text>
</g>
<!-- SG_0_Node_4 -->
<g id="node8" class="node">
<title>SG_0_Node_4</title>
<polygon fill="none" stroke="#000000" points="292,-354.066 30,-354.066 30,-318.066 292,-318.066 292,-354.066"/>
<text text-anchor="middle" x="161" y="-331.066" font-family="Times,serif" font-size="20.00" fill="#000000">X&#45;Content&#45;Type&#45;Options</text>
</g>
<!-- SG_0_Node_3&#45;&gt;SG_0_Node_4 -->
<g id="edge7" class="edge">
<title>SG_0_Node_3&#45;&gt;SG_0_Node_4</title>
<path fill="none" stroke="#000000" d="M176.9702,-478.4013C173.8642,-450.7194 167.9046,-397.6042 164.2091,-364.6675"/>
<polygon fill="#000000" stroke="#000000" points="167.6433,-363.8845 163.05,-354.3371 160.687,-364.6651 167.6433,-363.8845"/>
<text text-anchor="middle" x="204" y="-411.2792" font-family="Times,serif" font-size="20.00" fill="#000000">empty</text>
</g>
<!-- SG_0_Node_9 -->
<g id="node9" class="node">
<title>SG_0_Node_9</title>
<ellipse fill="none" stroke="#000000" cx="345" cy="-336.066" rx="34.7971" ry="21.4286"/>
<text text-anchor="middle" x="345" y="-331.066" font-family="Times,serif" font-size="20.00" fill="#000000">1.0</text>
</g>
<!-- SG_0_Node_3&#45;&gt;SG_0_Node_9 -->
<g id="edge8" class="edge">
<title>SG_0_Node_3&#45;&gt;SG_0_Node_9</title>
<path fill="none" stroke="#000000" d="M198.0055,-478.4477C210.0647,-466.9752 225.9818,-451.7905 240,-438.2792 267.0805,-412.1779 297.9022,-382.1339 319.1119,-361.4065"/>
<polygon fill="#000000" stroke="#000000" points="321.7627,-363.7097 326.4664,-354.2162 316.8691,-358.7044 321.7627,-363.7097"/>
<text text-anchor="middle" x="345" y="-422.2792" font-family="Times,serif" font-size="20.00" fill="#000000">[NA]</text>
<text text-anchor="middle" x="345" y="-400.2792" font-family="Times,serif" font-size="20.00" fill="#000000">same&#45;origin</text>
</g>
<!-- SG_0_Node_10 -->
<g id="node10" class="node">
<title>SG_0_Node_10</title>
<ellipse fill="none" stroke="#000000" cx="99" cy="-175.6396" rx="34.7971" ry="21.4286"/>
<text text-anchor="middle" x="99" y="-170.6396" font-family="Times,serif" font-size="20.00" fill="#000000">0.0</text>
</g>
<!-- SG_0_Node_4&#45;&gt;SG_0_Node_10 -->
<g id="edge9" class="edge">
<title>SG_0_Node_4&#45;&gt;SG_0_Node_10</title>
<path fill="none" stroke="#000000" d="M152.4174,-317.8761C147.154,-306.4777 140.4105,-291.4248 135,-277.8528 125.5235,-254.0816 115.9542,-226.7154 109.0659,-206.2852"/>
<polygon fill="#000000" stroke="#000000" points="112.3093,-204.9479 105.8176,-196.5749 105.6709,-207.1687 112.3093,-204.9479"/>
<text text-anchor="middle" x="167" y="-250.8528" font-family="Times,serif" font-size="20.00" fill="#000000">empty</text>
</g>
<!-- SG_0_Node_5 -->
<g id="node11" class="node">
<title>SG_0_Node_5</title>
<polygon fill="none" stroke="#000000" points="306.5,-193.6396 151.5,-193.6396 151.5,-157.6396 306.5,-157.6396 306.5,-193.6396"/>
<text text-anchor="middle" x="229" y="-170.6396" font-family="Times,serif" font-size="20.00" fill="#000000">Content&#45;Type</text>
</g>
<!-- SG_0_Node_4&#45;&gt;SG_0_Node_5 -->
<g id="edge10" class="edge">
<title>SG_0_Node_4&#45;&gt;SG_0_Node_5</title>
<path fill="none" stroke="#000000" d="M174.7816,-317.997C182.7356,-306.8909 192.4322,-292.1019 199,-277.8528 210.0599,-253.8581 218.1185,-224.812 223.0813,-203.8252"/>
<polygon fill="#000000" stroke="#000000" points="226.5242,-204.4688 225.3311,-193.9414 219.6988,-202.9151 226.5242,-204.4688"/>
<text text-anchor="middle" x="249" y="-261.8528" font-family="Times,serif" font-size="20.00" fill="#000000">[NA]</text>
<text text-anchor="middle" x="249" y="-239.8528" font-family="Times,serif" font-size="20.00" fill="#000000">nosniff</text>
</g>
<!-- SG_0_Node_11 -->
<g id="node12" class="node">
<title>SG_0_Node_11</title>
<ellipse fill="none" stroke="#000000" cx="171" cy="-37.2132" rx="34.7971" ry="21.4286"/>
<text text-anchor="middle" x="171" y="-32.2132" font-family="Times,serif" font-size="20.00" fill="#000000">0.0</text>
</g>
<!-- SG_0_Node_5&#45;&gt;SG_0_Node_11 -->
<g id="edge11" class="edge">
<title>SG_0_Node_5&#45;&gt;SG_0_Node_11</title>
<path fill="none" stroke="#000000" d="M203.1225,-157.4582C190.9093,-147.2585 177.5914,-133.3809 171,-117.4264 164.6922,-102.1585 164.2302,-83.8169 165.5508,-68.5284"/>
<polygon fill="#000000" stroke="#000000" points="169.0378,-68.8409 166.6999,-58.5072 162.0834,-68.0434 169.0378,-68.8409"/>
<text text-anchor="middle" x="210.5" y="-101.4264" font-family="Times,serif" font-size="20.00" fill="#000000">text/css</text>
</g>
<!-- SG_0_Node_12 -->
<g id="node13" class="node">
<title>SG_0_Node_12</title>
<ellipse fill="none" stroke="#000000" cx="286" cy="-37.2132" rx="34.7971" ry="21.4286"/>
<text text-anchor="middle" x="286" y="-32.2132" font-family="Times,serif" font-size="20.00" fill="#000000">1.0</text>
</g>
<!-- SG_0_Node_5&#45;&gt;SG_0_Node_12 -->
<g id="edge12" class="edge">
<title>SG_0_Node_5&#45;&gt;SG_0_Node_12</title>
<path fill="none" stroke="#000000" d="M236.8917,-157.5979C241.8738,-146.1266 248.403,-130.942 254,-117.4264 260.8232,-100.9497 268.2141,-82.4676 274.1721,-67.4007"/>
<polygon fill="#000000" stroke="#000000" points="277.4477,-68.6349 277.8601,-58.0481 270.9357,-66.067 277.4477,-68.6349"/>
<text text-anchor="middle" x="294" y="-101.4264" font-family="Times,serif" font-size="20.00" fill="#000000">empty</text>
</g>
</g>
</svg>
