<?xml version="1.0" encoding="UTF-8" standalone="no"?>
<!DOCTYPE svg PUBLIC "-//W3C//DTD SVG 1.1//EN"
 "http://www.w3.org/Graphics/SVG/1.1/DTD/svg11.dtd">
<!-- Generated by graphviz version 2.40.1 (20161225.0304)
 -->
<!-- Title: G Pages: 1 -->
<svg width="1683pt" height="1873pt"
 viewBox="0.00 0.00 1683.00 1873.41" xmlns="http://www.w3.org/2000/svg" xmlns:xlink="http://www.w3.org/1999/xlink">
<g id="graph0" class="graph" transform="scale(1 1) rotate(0) translate(4 1869.4113)">
<title>G</title>
<polygon fill="#ffffff" stroke="transparent" points="-4,4 -4,-1869.4113 1679,-1869.4113 1679,4 -4,4"/>
<g id="clust1" class="cluster">
<title>cluster_0</title>
<polygon fill="none" stroke="#000000" points="8,-8 8,-1857.4113 1604,-1857.4113 1604,-8 8,-8"/>
<text text-anchor="middle" x="806" y="-1821.4113" font-family="Times,serif" font-size="40.00" fill="#000000">Tree 0, Class js&#45;undefined</text>
</g>
<!-- SG_0_Node_0 -->
<g id="node1" class="node">
<title>SG_0_Node_0</title>
<polygon fill="none" stroke="#000000" points="879,-1797.4113 737,-1797.4113 737,-1761.4113 879,-1761.4113 879,-1797.4113"/>
<text text-anchor="middle" x="808" y="-1774.4113" font-family="Times,serif" font-size="20.00" fill="#000000">Status&#45;Code</text>
</g>
<!-- SG_0_Node_1 -->
<g id="node2" class="node">
<title>SG_0_Node_1</title>
<polygon fill="none" stroke="#000000" points="798.5,-1618.1981 733.5,-1618.1981 733.5,-1582.1981 798.5,-1582.1981 798.5,-1618.1981"/>
<text text-anchor="middle" x="766" y="-1595.1981" font-family="Times,serif" font-size="20.00" fill="#000000">body</text>
</g>
<!-- SG_0_Node_0&#45;&gt;SG_0_Node_1 -->
<g id="edge1" class="edge">
<title>SG_0_Node_0&#45;&gt;SG_0_Node_1</title>
<path fill="none" stroke="#000000" d="M800.0804,-1761.378C795.6905,-1750.7836 790.4405,-1737.0336 787,-1724.4113 778.1929,-1692.1004 772.4084,-1654.002 769.1815,-1628.5998"/>
<polygon fill="#000000" stroke="#000000" points="772.64,-1628.0464 767.9537,-1618.5443 765.6916,-1628.8948 772.64,-1628.0464"/>
<text text-anchor="middle" x="806.5" y="-1708.4113" font-family="Times,serif" font-size="20.00" fill="#000000">201</text>
<text text-anchor="middle" x="806.5" y="-1686.4113" font-family="Times,serif" font-size="20.00" fill="#000000">202</text>
<text text-anchor="middle" x="806.5" y="-1664.4113" font-family="Times,serif" font-size="20.00" fill="#000000">226</text>
</g>
<!-- SG_0_Node_17 -->
<g id="node3" class="node">
<title>SG_0_Node_17</title>
<ellipse fill="none" stroke="#000000" cx="851" cy="-1600.1981" rx="34.7971" ry="21.4286"/>
<text text-anchor="middle" x="851" y="-1595.1981" font-family="Times,serif" font-size="20.00" fill="#000000">1.0</text>
</g>
<!-- SG_0_Node_0&#45;&gt;SG_0_Node_17 -->
<g id="edge2" class="edge">
<title>SG_0_Node_0&#45;&gt;SG_0_Node_17</title>
<path fill="none" stroke="#000000" d="M814.5442,-1761.2385C818.2256,-1750.5975 822.7256,-1736.8475 826,-1724.4113 834.2332,-1693.141 841.2543,-1656.8262 845.7406,-1631.5709"/>
<polygon fill="#000000" stroke="#000000" points="849.2317,-1631.9243 847.5042,-1621.4712 842.3361,-1630.7201 849.2317,-1631.9243"/>
<text text-anchor="middle" x="886" y="-1697.4113" font-family="Times,serif" font-size="20.00" fill="#000000">[NA]</text>
<text text-anchor="middle" x="886" y="-1675.4113" font-family="Times,serif" font-size="20.00" fill="#000000">60 levels</text>
</g>
<!-- SG_0_Node_2 -->
<g id="node4" class="node">
<title>SG_0_Node_2</title>
<polygon fill="none" stroke="#000000" points="596.5,-1303.7716 441.5,-1303.7716 441.5,-1267.7716 596.5,-1267.7716 596.5,-1303.7716"/>
<text text-anchor="middle" x="519" y="-1280.7716" font-family="Times,serif" font-size="20.00" fill="#000000">Content&#45;Type</text>
</g>
<!-- SG_0_Node_1&#45;&gt;SG_0_Node_2 -->
<g id="edge3" class="edge">
<title>SG_0_Node_1&#45;&gt;SG_0_Node_2</title>
<path fill="none" stroke="#000000" d="M733.4682,-1596.7832C675.5761,-1589.9809 558.3545,-1572.6877 533,-1541.9848 478.5979,-1476.107 497.8509,-1365.1359 510.9323,-1313.6105"/>
<polygon fill="#000000" stroke="#000000" points="514.3425,-1314.4049 513.5219,-1303.8419 507.5762,-1312.6111 514.3425,-1314.4049"/>
<text text-anchor="middle" x="762.5" y="-1470.9848" font-family="Times,serif" font-size="20.00" fill="#000000">ecocnt_html=num_frames=1,input_id=test1</text>
<text text-anchor="middle" x="762.5" y="-1448.9848" font-family="Times,serif" font-size="20.00" fill="#000000">ecocnt_img=width=50,height=50,type=png</text>
<text text-anchor="middle" x="762.5" y="-1426.9848" font-family="Times,serif" font-size="20.00" fill="#000000">ecocnt_pdf=a=a</text>
<text text-anchor="middle" x="762.5" y="-1404.9848" font-family="Times,serif" font-size="20.00" fill="#000000">empty</text>
</g>
<!-- SG_0_Node_18 -->
<g id="node5" class="node">
<title>SG_0_Node_18</title>
<ellipse fill="none" stroke="#000000" cx="1014" cy="-1285.7716" rx="34.7971" ry="21.4286"/>
<text text-anchor="middle" x="1014" y="-1280.7716" font-family="Times,serif" font-size="20.00" fill="#000000">1.0</text>
</g>
<!-- SG_0_Node_1&#45;&gt;SG_0_Node_18 -->
<g id="edge4" class="edge">
<title>SG_0_Node_1&#45;&gt;SG_0_Node_18</title>
<path fill="none" stroke="#000000" d="M798.7638,-1582.2416C801.51,-1581.0461 804.2775,-1579.94 807,-1578.9848 886.1221,-1551.2249 936.1121,-1604.4945 992,-1541.9848 1048.073,-1479.2682 1033.5171,-1370.0597 1021.9285,-1316.7842"/>
<polygon fill="#000000" stroke="#000000" points="1025.311,-1315.8748 1019.6722,-1306.9052 1018.4868,-1317.4335 1025.311,-1315.8748"/>
<text text-anchor="middle" x="1305" y="-1525.9848" font-family="Times,serif" font-size="20.00" fill="#000000">[NA]</text>
<text text-anchor="middle" x="1305" y="-1503.9848" font-family="Times,serif" font-size="20.00" fill="#000000">ecocnt_audio=duration=1</text>
<text text-anchor="middle" x="1305" y="-1481.9848" font-family="Times,serif" font-size="20.00" fill="#000000">ecocnt_css=h1 {color: blue}</text>
<text text-anchor="middle" x="1305" y="-1459.9848" font-family="Times,serif" font-size="20.00" fill="#000000">ecocnt_html=meta_refresh=0;http://172.17.0.1:8000</text>
<text text-anchor="middle" x="1305" y="-1437.9848" font-family="Times,serif" font-size="20.00" fill="#000000">ecocnt_html=num_frames=2</text>
<text text-anchor="middle" x="1305" y="-1415.9848" font-family="Times,serif" font-size="20.00" fill="#000000">ecocnt_html=post_message=mes1</text>
<text text-anchor="middle" x="1305" y="-1393.9848" font-family="Times,serif" font-size="20.00" fill="#000000">ecocnt_js=.,,.</text>
<text text-anchor="middle" x="1305" y="-1371.9848" font-family="Times,serif" font-size="20.00" fill="#000000">ecocnt_js=var a=5;</text>
<text text-anchor="middle" x="1305" y="-1349.9848" font-family="Times,serif" font-size="20.00" fill="#000000">ecocnt_vid=width=100,height=100,duration=2</text>
</g>
<!-- SG_0_Node_3 -->
<g id="node6" class="node">
<title>SG_0_Node_3</title>
<polygon fill="none" stroke="#000000" points="624.5,-1055.3452 403.5,-1055.3452 403.5,-1019.3452 624.5,-1019.3452 624.5,-1055.3452"/>
<text text-anchor="middle" x="514" y="-1032.3452" font-family="Times,serif" font-size="20.00" fill="#000000">Content&#45;Disposition</text>
</g>
<!-- SG_0_Node_2&#45;&gt;SG_0_Node_3 -->
<g id="edge5" class="edge">
<title>SG_0_Node_2&#45;&gt;SG_0_Node_3</title>
<path fill="none" stroke="#000000" d="M518.6323,-1267.5043C517.7691,-1224.6134 515.6075,-1117.2146 514.5714,-1065.733"/>
<polygon fill="#000000" stroke="#000000" points="518.0688,-1065.5669 514.3682,-1055.6394 511.0702,-1065.7078 518.0688,-1065.5669"/>
<text text-anchor="middle" x="594" y="-1178.5584" font-family="Times,serif" font-size="20.00" fill="#000000">application/pdf</text>
<text text-anchor="middle" x="594" y="-1156.5584" font-family="Times,serif" font-size="20.00" fill="#000000">empty</text>
<text text-anchor="middle" x="594" y="-1134.5584" font-family="Times,serif" font-size="20.00" fill="#000000">text/html</text>
</g>
<!-- SG_0_Node_19 -->
<g id="node7" class="node">
<title>SG_0_Node_19</title>
<ellipse fill="none" stroke="#000000" cx="704" cy="-1037.3452" rx="34.7971" ry="21.4286"/>
<text text-anchor="middle" x="704" y="-1032.3452" font-family="Times,serif" font-size="20.00" fill="#000000">1.0</text>
</g>
<!-- SG_0_Node_2&#45;&gt;SG_0_Node_19 -->
<g id="edge6" class="edge">
<title>SG_0_Node_2&#45;&gt;SG_0_Node_19</title>
<path fill="none" stroke="#000000" d="M596.6014,-1273.8437C625.3224,-1265.5372 655.5826,-1251.4494 675,-1227.5584 711.9218,-1182.1302 711.8836,-1109.762 708.1854,-1068.6255"/>
<polygon fill="#000000" stroke="#000000" points="711.6624,-1068.2211 707.1585,-1058.6312 704.6991,-1068.9367 711.6624,-1068.2211"/>
<text text-anchor="middle" x="820" y="-1211.5584" font-family="Times,serif" font-size="20.00" fill="#000000">[NA]</text>
<text text-anchor="middle" x="820" y="-1189.5584" font-family="Times,serif" font-size="20.00" fill="#000000">application/javascript</text>
<text text-anchor="middle" x="820" y="-1167.5584" font-family="Times,serif" font-size="20.00" fill="#000000">audio/wav</text>
<text text-anchor="middle" x="820" y="-1145.5584" font-family="Times,serif" font-size="20.00" fill="#000000">image/png</text>
<text text-anchor="middle" x="820" y="-1123.5584" font-family="Times,serif" font-size="20.00" fill="#000000">text/css</text>
<text text-anchor="middle" x="820" y="-1101.5584" font-family="Times,serif" font-size="20.00" fill="#000000">video/mp4</text>
</g>
<!-- SG_0_Node_4 -->
<g id="node8" class="node">
<title>SG_0_Node_4</title>
<polygon fill="none" stroke="#000000" points="608.5,-894.9188 417.5,-894.9188 417.5,-858.9188 608.5,-858.9188 608.5,-894.9188"/>
<text text-anchor="middle" x="513" y="-871.9188" font-family="Times,serif" font-size="20.00" fill="#000000">X&#45;Frame&#45;Options</text>
</g>
<!-- SG_0_Node_3&#45;&gt;SG_0_Node_4 -->
<g id="edge7" class="edge">
<title>SG_0_Node_3&#45;&gt;SG_0_Node_4</title>
<path fill="none" stroke="#000000" d="M513.8872,-1019.2541C513.7147,-991.5723 513.3836,-938.457 513.1783,-905.5203"/>
<polygon fill="#000000" stroke="#000000" points="516.6763,-905.1679 513.1139,-895.19 509.6764,-905.2116 516.6763,-905.1679"/>
<text text-anchor="middle" x="572" y="-952.132" font-family="Times,serif" font-size="20.00" fill="#000000">attachment</text>
</g>
<!-- SG_0_Node_20 -->
<g id="node9" class="node">
<title>SG_0_Node_20</title>
<ellipse fill="none" stroke="#000000" cx="667" cy="-876.9188" rx="34.7971" ry="21.4286"/>
<text text-anchor="middle" x="667" y="-871.9188" font-family="Times,serif" font-size="20.00" fill="#000000">1.0</text>
</g>
<!-- SG_0_Node_3&#45;&gt;SG_0_Node_20 -->
<g id="edge8" class="edge">
<title>SG_0_Node_3&#45;&gt;SG_0_Node_20</title>
<path fill="none" stroke="#000000" d="M575.1714,-1019.2835C596.6415,-1010.2669 619.2962,-997.2957 635,-979.132 652.0354,-959.4281 660.009,-930.6842 663.7371,-908.6926"/>
<polygon fill="#000000" stroke="#000000" points="667.2425,-908.9137 665.2473,-898.5085 660.3182,-907.8868 667.2425,-908.9137"/>
<text text-anchor="middle" x="689" y="-963.132" font-family="Times,serif" font-size="20.00" fill="#000000">[NA]</text>
<text text-anchor="middle" x="689" y="-941.132" font-family="Times,serif" font-size="20.00" fill="#000000">empty</text>
</g>
<!-- SG_0_Node_5 -->
<g id="node10" class="node">
<title>SG_0_Node_5</title>
<polygon fill="none" stroke="#000000" points="643,-737.7056 345,-737.7056 345,-701.7056 643,-701.7056 643,-737.7056"/>
<text text-anchor="middle" x="494" y="-714.7056" font-family="Times,serif" font-size="20.00" fill="#000000">Cross&#45;Origin&#45;Opener&#45;Policy</text>
</g>
<!-- SG_0_Node_4&#45;&gt;SG_0_Node_5 -->
<g id="edge9" class="edge">
<title>SG_0_Node_4&#45;&gt;SG_0_Node_5</title>
<path fill="none" stroke="#000000" d="M510.8205,-858.8845C507.5452,-831.7835 501.3243,-780.3093 497.4347,-748.1257"/>
<polygon fill="#000000" stroke="#000000" points="500.8873,-747.5217 496.2126,-738.0139 493.9378,-748.3616 500.8873,-747.5217"/>
<text text-anchor="middle" x="529.5" y="-791.7056" font-family="Times,serif" font-size="20.00" fill="#000000">deny</text>
</g>
<!-- SG_0_Node_6 -->
<g id="node11" class="node">
<title>SG_0_Node_6</title>
<polygon fill="none" stroke="#000000" points="963.5,-737.7056 898.5,-737.7056 898.5,-701.7056 963.5,-701.7056 963.5,-737.7056"/>
<text text-anchor="middle" x="931" y="-714.7056" font-family="Times,serif" font-size="20.00" fill="#000000">body</text>
</g>
<!-- SG_0_Node_4&#45;&gt;SG_0_Node_6 -->
<g id="edge10" class="edge">
<title>SG_0_Node_4&#45;&gt;SG_0_Node_6</title>
<path fill="none" stroke="#000000" d="M560.9499,-858.8845C643.4148,-827.8688 810.7571,-764.93 888.9574,-735.5182"/>
<polygon fill="#000000" stroke="#000000" points="890.3606,-738.7299 898.4884,-731.9335 887.8964,-732.1779 890.3606,-738.7299"/>
<text text-anchor="middle" x="815" y="-802.7056" font-family="Times,serif" font-size="20.00" fill="#000000">[NA]</text>
<text text-anchor="middle" x="815" y="-780.7056" font-family="Times,serif" font-size="20.00" fill="#000000">empty</text>
</g>
<!-- SG_0_Node_7 -->
<g id="node12" class="node">
<title>SG_0_Node_7</title>
<polygon fill="none" stroke="#000000" points="397,-558.4924 255,-558.4924 255,-522.4924 397,-522.4924 397,-558.4924"/>
<text text-anchor="middle" x="326" y="-535.4924" font-family="Times,serif" font-size="20.00" fill="#000000">Status&#45;Code</text>
</g>
<!-- SG_0_Node_5&#45;&gt;SG_0_Node_7 -->
<g id="edge17" class="edge">
<title>SG_0_Node_5&#45;&gt;SG_0_Node_7</title>
<path fill="none" stroke="#000000" d="M425.3707,-701.6272C404.6382,-693.2905 383.3335,-681.4098 368,-664.7056 343.5381,-638.0569 333.2618,-596.6317 328.9856,-569.0422"/>
<polygon fill="#000000" stroke="#000000" points="332.4139,-568.2817 327.5807,-558.8535 325.4796,-569.2379 332.4139,-568.2817"/>
<text text-anchor="middle" x="429" y="-626.7056" font-family="Times,serif" font-size="20.00" fill="#000000">same&#45;origin</text>
</g>
<!-- SG_0_Node_21 -->
<g id="node13" class="node">
<title>SG_0_Node_21</title>
<ellipse fill="none" stroke="#000000" cx="494" cy="-540.4924" rx="34.7971" ry="21.4286"/>
<text text-anchor="middle" x="494" y="-535.4924" font-family="Times,serif" font-size="20.00" fill="#000000">1.0</text>
</g>
<!-- SG_0_Node_5&#45;&gt;SG_0_Node_21 -->
<g id="edge18" class="edge">
<title>SG_0_Node_5&#45;&gt;SG_0_Node_21</title>
<path fill="none" stroke="#000000" d="M494,-701.5355C494,-671.1635 494,-609.7203 494,-572.1278"/>
<polygon fill="#000000" stroke="#000000" points="497.5001,-571.7453 494,-561.7453 490.5001,-571.7453 497.5001,-571.7453"/>
<text text-anchor="middle" x="526" y="-637.7056" font-family="Times,serif" font-size="20.00" fill="#000000">[NA]</text>
<text text-anchor="middle" x="526" y="-615.7056" font-family="Times,serif" font-size="20.00" fill="#000000">empty</text>
</g>
<!-- SG_0_Node_8 -->
<g id="node14" class="node">
<title>SG_0_Node_8</title>
<polygon fill="none" stroke="#000000" points="1233,-558.4924 1091,-558.4924 1091,-522.4924 1233,-522.4924 1233,-558.4924"/>
<text text-anchor="middle" x="1162" y="-535.4924" font-family="Times,serif" font-size="20.00" fill="#000000">Status&#45;Code</text>
</g>
<!-- SG_0_Node_6&#45;&gt;SG_0_Node_8 -->
<g id="edge11" class="edge">
<title>SG_0_Node_6&#45;&gt;SG_0_Node_8</title>
<path fill="none" stroke="#000000" d="M927.3938,-701.6644C923.3132,-675.6372 920.132,-627.5241 945,-598.7056 962.9622,-577.89 1026.9477,-562.3467 1080.8206,-552.5813"/>
<polygon fill="#000000" stroke="#000000" points="1081.5113,-556.0136 1090.7487,-550.8252 1080.2919,-549.1206 1081.5113,-556.0136"/>
<text text-anchor="middle" x="1030" y="-626.7056" font-family="Times,serif" font-size="20.00" fill="#000000">ecocnt_pdf=a=a</text>
</g>
<!-- SG_0_Node_22 -->
<g id="node15" class="node">
<title>SG_0_Node_22</title>
<ellipse fill="none" stroke="#000000" cx="1286" cy="-540.4924" rx="34.7971" ry="21.4286"/>
<text text-anchor="middle" x="1286" y="-535.4924" font-family="Times,serif" font-size="20.00" fill="#000000">1.0</text>
</g>
<!-- SG_0_Node_6&#45;&gt;SG_0_Node_22 -->
<g id="edge12" class="edge">
<title>SG_0_Node_6&#45;&gt;SG_0_Node_22</title>
<path fill="none" stroke="#000000" d="M963.8187,-713.4082C1001.6187,-705.3704 1064.9425,-689.4654 1115,-664.7056 1170.1828,-637.4107 1226.4844,-592.5388 1258.7349,-564.854"/>
<polygon fill="#000000" stroke="#000000" points="1261.1383,-567.4025 1266.4006,-558.2069 1256.5524,-562.1138 1261.1383,-567.4025"/>
<text text-anchor="middle" x="1445.5" y="-648.7056" font-family="Times,serif" font-size="20.00" fill="#000000">ecocnt_html=num_frames=1,input_id=test1</text>
<text text-anchor="middle" x="1445.5" y="-626.7056" font-family="Times,serif" font-size="20.00" fill="#000000">ecocnt_img=width=50,height=50,type=png</text>
<text text-anchor="middle" x="1445.5" y="-604.7056" font-family="Times,serif" font-size="20.00" fill="#000000">empty</text>
</g>
<!-- SG_0_Node_9 -->
<g id="node16" class="node">
<title>SG_0_Node_9</title>
<polygon fill="none" stroke="#000000" points="211.5,-398.066 56.5,-398.066 56.5,-362.066 211.5,-362.066 211.5,-398.066"/>
<text text-anchor="middle" x="134" y="-375.066" font-family="Times,serif" font-size="20.00" fill="#000000">Content&#45;Type</text>
</g>
<!-- SG_0_Node_7&#45;&gt;SG_0_Node_9 -->
<g id="edge19" class="edge">
<title>SG_0_Node_7&#45;&gt;SG_0_Node_9</title>
<path fill="none" stroke="#000000" d="M304.3484,-522.4013C269.8305,-493.5597 202.2698,-437.1091 163.4075,-404.6376"/>
<polygon fill="#000000" stroke="#000000" points="165.4905,-401.8171 155.5725,-398.091 161.0022,-407.1888 165.4905,-401.8171"/>
<text text-anchor="middle" x="274.5" y="-455.2792" font-family="Times,serif" font-size="20.00" fill="#000000">202</text>
</g>
<!-- SG_0_Node_10 -->
<g id="node17" class="node">
<title>SG_0_Node_10</title>
<polygon fill="none" stroke="#000000" points="358.5,-398.066 293.5,-398.066 293.5,-362.066 358.5,-362.066 358.5,-398.066"/>
<text text-anchor="middle" x="326" y="-375.066" font-family="Times,serif" font-size="20.00" fill="#000000">body</text>
</g>
<!-- SG_0_Node_7&#45;&gt;SG_0_Node_10 -->
<g id="edge20" class="edge">
<title>SG_0_Node_7&#45;&gt;SG_0_Node_10</title>
<path fill="none" stroke="#000000" d="M326,-522.4013C326,-494.7194 326,-441.6042 326,-408.6675"/>
<polygon fill="#000000" stroke="#000000" points="329.5001,-408.3371 326,-398.3371 322.5001,-408.3372 329.5001,-408.3371"/>
<text text-anchor="middle" x="345.5" y="-466.2792" font-family="Times,serif" font-size="20.00" fill="#000000">201</text>
<text text-anchor="middle" x="345.5" y="-444.2792" font-family="Times,serif" font-size="20.00" fill="#000000">226</text>
</g>
<!-- SG_0_Node_11 -->
<g id="node18" class="node">
<title>SG_0_Node_11</title>
<polygon fill="none" stroke="#000000" points="1338.5,-398.066 1183.5,-398.066 1183.5,-362.066 1338.5,-362.066 1338.5,-398.066"/>
<text text-anchor="middle" x="1261" y="-375.066" font-family="Times,serif" font-size="20.00" fill="#000000">Content&#45;Type</text>
</g>
<!-- SG_0_Node_8&#45;&gt;SG_0_Node_11 -->
<g id="edge13" class="edge">
<title>SG_0_Node_8&#45;&gt;SG_0_Node_11</title>
<path fill="none" stroke="#000000" d="M1173.1641,-522.4013C1190.5438,-494.238 1224.1693,-439.749 1244.3989,-406.9676"/>
<polygon fill="#000000" stroke="#000000" points="1247.4517,-408.6853 1249.7248,-398.3371 1241.4946,-405.0091 1247.4517,-408.6853"/>
<text text-anchor="middle" x="1243.5" y="-455.2792" font-family="Times,serif" font-size="20.00" fill="#000000">201</text>
</g>
<!-- SG_0_Node_23 -->
<g id="node19" class="node">
<title>SG_0_Node_23</title>
<ellipse fill="none" stroke="#000000" cx="1391" cy="-380.066" rx="34.7971" ry="21.4286"/>
<text text-anchor="middle" x="1391" y="-375.066" font-family="Times,serif" font-size="20.00" fill="#000000">1.0</text>
</g>
<!-- SG_0_Node_8&#45;&gt;SG_0_Node_23 -->
<g id="edge14" class="edge">
<title>SG_0_Node_8&#45;&gt;SG_0_Node_23</title>
<path fill="none" stroke="#000000" d="M1198.4476,-522.394C1219.1074,-511.621 1245.1198,-497.1778 1267,-482.2792 1302.2212,-458.2965 1339.5534,-426.5477 1363.9406,-404.8363"/>
<polygon fill="#000000" stroke="#000000" points="1366.5851,-407.1661 1371.693,-397.8838 1361.9115,-401.9547 1366.5851,-407.1661"/>
<text text-anchor="middle" x="1342.5" y="-466.2792" font-family="Times,serif" font-size="20.00" fill="#000000">202</text>
<text text-anchor="middle" x="1342.5" y="-444.2792" font-family="Times,serif" font-size="20.00" fill="#000000">226</text>
</g>
<!-- SG_0_Node_12 -->
<g id="node20" class="node">
<title>SG_0_Node_12</title>
<polygon fill="none" stroke="#000000" points="81.5,-215.6396 16.5,-215.6396 16.5,-179.6396 81.5,-179.6396 81.5,-215.6396"/>
<text text-anchor="middle" x="49" y="-192.6396" font-family="Times,serif" font-size="20.00" fill="#000000">body</text>
</g>
<!-- SG_0_Node_9&#45;&gt;SG_0_Node_12 -->
<g id="edge25" class="edge">
<title>SG_0_Node_9&#45;&gt;SG_0_Node_12</title>
<path fill="none" stroke="#000000" d="M104.0292,-361.8432C90.1726,-351.8078 74.8565,-338.0876 66,-321.8528 49.6927,-291.9599 46.9678,-252.2142 47.3147,-225.8219"/>
<polygon fill="#000000" stroke="#000000" points="50.8158,-225.831 47.6055,-215.7342 43.8187,-225.6292 50.8158,-225.831"/>
<text text-anchor="middle" x="98" y="-283.8528" font-family="Times,serif" font-size="20.00" fill="#000000">empty</text>
</g>
<!-- SG_0_Node_24 -->
<g id="node21" class="node">
<title>SG_0_Node_24</title>
<ellipse fill="none" stroke="#000000" cx="134" cy="-197.6396" rx="34.7971" ry="21.4286"/>
<text text-anchor="middle" x="134" y="-192.6396" font-family="Times,serif" font-size="20.00" fill="#000000">1.0</text>
</g>
<!-- SG_0_Node_9&#45;&gt;SG_0_Node_24 -->
<g id="edge26" class="edge">
<title>SG_0_Node_9&#45;&gt;SG_0_Node_24</title>
<path fill="none" stroke="#000000" d="M134,-361.9073C134,-330.9334 134,-267.5245 134,-229.1822"/>
<polygon fill="#000000" stroke="#000000" points="137.5001,-229.0802 134,-219.0802 130.5001,-229.0803 137.5001,-229.0802"/>
<text text-anchor="middle" x="211" y="-294.8528" font-family="Times,serif" font-size="20.00" fill="#000000">application/pdf</text>
<text text-anchor="middle" x="211" y="-272.8528" font-family="Times,serif" font-size="20.00" fill="#000000">text/html</text>
</g>
<!-- SG_0_Node_13 -->
<g id="node22" class="node">
<title>SG_0_Node_13</title>
<polygon fill="none" stroke="#000000" points="932.5,-215.6396 777.5,-215.6396 777.5,-179.6396 932.5,-179.6396 932.5,-215.6396"/>
<text text-anchor="middle" x="855" y="-192.6396" font-family="Times,serif" font-size="20.00" fill="#000000">Content&#45;Type</text>
</g>
<!-- SG_0_Node_10&#45;&gt;SG_0_Node_13 -->
<g id="edge21" class="edge">
<title>SG_0_Node_10&#45;&gt;SG_0_Node_13</title>
<path fill="none" stroke="#000000" d="M321.4947,-361.9738C315.9437,-334.8802 310.3397,-283.9541 338,-255.8528 367.4779,-225.9049 627.2931,-208.7357 766.9925,-201.592"/>
<polygon fill="#000000" stroke="#000000" points="767.4384,-205.0741 777.2493,-201.0745 767.0856,-198.0829 767.4384,-205.0741"/>
<text text-anchor="middle" x="566.5" y="-283.8528" font-family="Times,serif" font-size="20.00" fill="#000000">ecocnt_img=width=50,height=50,type=png</text>
</g>
<!-- SG_0_Node_25 -->
<g id="node23" class="node">
<title>SG_0_Node_25</title>
<ellipse fill="none" stroke="#000000" cx="985" cy="-197.6396" rx="34.7971" ry="21.4286"/>
<text text-anchor="middle" x="985" y="-192.6396" font-family="Times,serif" font-size="20.00" fill="#000000">1.0</text>
</g>
<!-- SG_0_Node_10&#45;&gt;SG_0_Node_25 -->
<g id="edge22" class="edge">
<title>SG_0_Node_10&#45;&gt;SG_0_Node_25</title>
<path fill="none" stroke="#000000" d="M358.7454,-378.0106C459.677,-371.4014 761.2398,-349.5052 795,-321.8528 818.9202,-302.2602 794.7681,-277.3421 817,-255.8528 858.6584,-215.586 888.0465,-239.9683 942,-218.8528 944.374,-217.9237 946.7953,-216.9133 949.2188,-215.8544"/>
<polygon fill="#000000" stroke="#000000" points="950.855,-218.9545 958.4803,-211.5988 947.9323,-212.5938 950.855,-218.9545"/>
<text text-anchor="middle" x="1046.5" y="-305.8528" font-family="Times,serif" font-size="20.00" fill="#000000">ecocnt_html=num_frames=1,input_id=test1</text>
<text text-anchor="middle" x="1046.5" y="-283.8528" font-family="Times,serif" font-size="20.00" fill="#000000">ecocnt_pdf=a=a</text>
<text text-anchor="middle" x="1046.5" y="-261.8528" font-family="Times,serif" font-size="20.00" fill="#000000">empty</text>
</g>
<!-- SG_0_Node_26 -->
<g id="node24" class="node">
<title>SG_0_Node_26</title>
<ellipse fill="none" stroke="#000000" cx="1312" cy="-197.6396" rx="52.1524" ry="21.4286"/>
<text text-anchor="middle" x="1312" y="-192.6396" font-family="Times,serif" font-size="20.00" fill="#000000">0.938</text>
</g>
<!-- SG_0_Node_11&#45;&gt;SG_0_Node_26 -->
<g id="edge15" class="edge">
<title>SG_0_Node_11&#45;&gt;SG_0_Node_26</title>
<path fill="none" stroke="#000000" d="M1267.2016,-362.0645C1271.067,-350.6089 1276.0407,-335.4266 1280,-321.8528 1289.2074,-290.2868 1298.4391,-253.8112 1304.6041,-228.5909"/>
<polygon fill="#000000" stroke="#000000" points="1308.0109,-229.3933 1306.9695,-218.8498 1301.2085,-227.7415 1308.0109,-229.3933"/>
<text text-anchor="middle" x="1374" y="-283.8528" font-family="Times,serif" font-size="20.00" fill="#000000">application/pdf</text>
</g>
<!-- SG_0_Node_27 -->
<g id="node25" class="node">
<title>SG_0_Node_27</title>
<ellipse fill="none" stroke="#000000" cx="1502" cy="-197.6396" rx="34.7971" ry="21.4286"/>
<text text-anchor="middle" x="1502" y="-192.6396" font-family="Times,serif" font-size="20.00" fill="#000000">1.0</text>
</g>
<!-- SG_0_Node_11&#45;&gt;SG_0_Node_27 -->
<g id="edge16" class="edge">
<title>SG_0_Node_11&#45;&gt;SG_0_Node_27</title>
<path fill="none" stroke="#000000" d="M1331.9464,-362.0456C1383.4082,-348.4292 1445.5792,-330.6343 1455,-321.8528 1481.1718,-297.457 1492.8842,-256.9975 1498.0503,-228.9122"/>
<polygon fill="#000000" stroke="#000000" points="1501.5418,-229.2515 1499.7263,-218.8133 1494.6362,-228.1054 1501.5418,-229.2515"/>
<text text-anchor="middle" x="1538" y="-294.8528" font-family="Times,serif" font-size="20.00" fill="#000000">empty</text>
<text text-anchor="middle" x="1538" y="-272.8528" font-family="Times,serif" font-size="20.00" fill="#000000">text/html</text>
</g>
<!-- SG_0_Node_28 -->
<g id="node26" class="node">
<title>SG_0_Node_28</title>
<ellipse fill="none" stroke="#000000" cx="68" cy="-37.2132" rx="52.1524" ry="21.4286"/>
<text text-anchor="middle" x="68" y="-32.2132" font-family="Times,serif" font-size="20.00" fill="#000000">0.875</text>
</g>
<!-- SG_0_Node_12&#45;&gt;SG_0_Node_28 -->
<g id="edge27" class="edge">
<title>SG_0_Node_12&#45;&gt;SG_0_Node_28</title>
<path fill="none" stroke="#000000" d="M46.917,-179.3966C45.0088,-158.8344 43.1478,-124.4827 48,-95.4264 49.5346,-86.2366 52.3438,-76.5541 55.3813,-67.7806"/>
<polygon fill="#000000" stroke="#000000" points="58.6879,-68.9294 58.8521,-58.3358 52.1175,-66.5149 58.6879,-68.9294"/>
<text text-anchor="middle" x="277.5" y="-123.4264" font-family="Times,serif" font-size="20.00" fill="#000000">ecocnt_html=num_frames=1,input_id=test1</text>
<text text-anchor="middle" x="277.5" y="-101.4264" font-family="Times,serif" font-size="20.00" fill="#000000">empty</text>
</g>
<!-- SG_0_Node_29 -->
<g id="node27" class="node">
<title>SG_0_Node_29</title>
<ellipse fill="none" stroke="#000000" cx="529" cy="-37.2132" rx="34.7971" ry="21.4286"/>
<text text-anchor="middle" x="529" y="-32.2132" font-family="Times,serif" font-size="20.00" fill="#000000">1.0</text>
</g>
<!-- SG_0_Node_12&#45;&gt;SG_0_Node_29 -->
<g id="edge28" class="edge">
<title>SG_0_Node_12&#45;&gt;SG_0_Node_29</title>
<path fill="none" stroke="#000000" d="M81.1962,-179.5398C84.1161,-178.3421 87.0757,-177.2768 90,-176.4264 179.3306,-150.4503 437.2831,-201.024 507,-139.4264 526.6997,-122.021 531.1515,-91.5978 531.3026,-68.4553"/>
<polygon fill="#000000" stroke="#000000" points="534.8011,-68.3382 531.1087,-58.4076 527.8024,-68.4733 534.8011,-68.3382"/>
<text text-anchor="middle" x="756.5" y="-123.4264" font-family="Times,serif" font-size="20.00" fill="#000000">ecocnt_img=width=50,height=50,type=png</text>
<text text-anchor="middle" x="756.5" y="-101.4264" font-family="Times,serif" font-size="20.00" fill="#000000">ecocnt_pdf=a=a</text>
</g>
<!-- SG_0_Node_30 -->
<g id="node28" class="node">
<title>SG_0_Node_30</title>
<ellipse fill="none" stroke="#000000" cx="1022" cy="-37.2132" rx="52.1524" ry="21.4286"/>
<text text-anchor="middle" x="1022" y="-32.2132" font-family="Times,serif" font-size="20.00" fill="#000000">0.938</text>
</g>
<!-- SG_0_Node_13&#45;&gt;SG_0_Node_30 -->
<g id="edge23" class="edge">
<title>SG_0_Node_13&#45;&gt;SG_0_Node_30</title>
<path fill="none" stroke="#000000" d="M927.0091,-179.5846C949.7867,-170.7603 973.339,-157.9116 990,-139.4264 1007.6254,-119.8713 1015.543,-90.6835 1019.0996,-68.4985"/>
<polygon fill="#000000" stroke="#000000" points="1022.5721,-68.9378 1020.4825,-58.5511 1015.6388,-67.9739 1022.5721,-68.9378"/>
<text text-anchor="middle" x="1059" y="-112.4264" font-family="Times,serif" font-size="20.00" fill="#000000">text/html</text>
</g>
<!-- SG_0_Node_31 -->
<g id="node29" class="node">
<title>SG_0_Node_31</title>
<ellipse fill="none" stroke="#000000" cx="1152" cy="-37.2132" rx="34.7971" ry="21.4286"/>
<text text-anchor="middle" x="1152" y="-32.2132" font-family="Times,serif" font-size="20.00" fill="#000000">1.0</text>
</g>
<!-- SG_0_Node_13&#45;&gt;SG_0_Node_31 -->
<g id="edge24" class="edge">
<title>SG_0_Node_13&#45;&gt;SG_0_Node_31</title>
<path fill="none" stroke="#000000" d="M927.6936,-179.5661C932.1934,-178.4916 936.6565,-177.4374 941,-176.4264 1015.8883,-158.9956 1051.1035,-188.8562 1110,-139.4264 1131.1545,-121.6722 1141.7983,-91.5651 1147.0631,-68.6115"/>
<polygon fill="#000000" stroke="#000000" points="1150.5278,-69.1399 1149.122,-58.6387 1143.6723,-67.7245 1150.5278,-69.1399"/>
<text text-anchor="middle" x="1215" y="-123.4264" font-family="Times,serif" font-size="20.00" fill="#000000">application/pdf</text>
<text text-anchor="middle" x="1215" y="-101.4264" font-family="Times,serif" font-size="20.00" fill="#000000">empty</text>
</g>
</g>
</svg>
