<?xml version="1.0" encoding="UTF-8" standalone="no"?>
<!DOCTYPE svg PUBLIC "-//W3C//DTD SVG 1.1//EN"
 "http://www.w3.org/Graphics/SVG/1.1/DTD/svg11.dtd">
<!-- Generated by graphviz version 2.40.1 (20161225.0304)
 -->
<!-- Title: G Pages: 1 -->
<svg width="2373pt" height="1851pt"
 viewBox="0.00 0.00 2373.00 1851.41" xmlns="http://www.w3.org/2000/svg" xmlns:xlink="http://www.w3.org/1999/xlink">
<g id="graph0" class="graph" transform="scale(1 1) rotate(0) translate(4 1847.4113)">
<title>G</title>
<polygon fill="#ffffff" stroke="transparent" points="-4,4 -4,-1847.4113 2369,-1847.4113 2369,4 -4,4"/>
<g id="clust1" class="cluster">
<title>cluster_0</title>
<polygon fill="none" stroke="#000000" points="8,-8 8,-1835.4113 2357,-1835.4113 2357,-8 8,-8"/>
<text text-anchor="middle" x="1182.5" y="-1799.4113" font-family="Times,serif" font-size="40.00" fill="#000000">Tree 0, Class [&#39;Message: mes1 Origin: https://172.17.0.1:44300&#39;, &#39;Message: mes1 Origin: https://172.17.0.1:44300&#39;]</text>
</g>
<!-- SG_0_Node_0 -->
<g id="node1" class="node">
<title>SG_0_Node_0</title>
<polygon fill="none" stroke="#000000" points="211.5,-1775.4113 146.5,-1775.4113 146.5,-1739.4113 211.5,-1739.4113 211.5,-1775.4113"/>
<text text-anchor="middle" x="179" y="-1752.4113" font-family="Times,serif" font-size="20.00" fill="#000000">body</text>
</g>
<!-- SG_0_Node_15 -->
<g id="node2" class="node">
<title>SG_0_Node_15</title>
<ellipse fill="none" stroke="#000000" cx="115" cy="-1600.1981" rx="34.7971" ry="21.4286"/>
<text text-anchor="middle" x="115" y="-1595.1981" font-family="Times,serif" font-size="20.00" fill="#000000">0.0</text>
</g>
<!-- SG_0_Node_0&#45;&gt;SG_0_Node_15 -->
<g id="edge1" class="edge">
<title>SG_0_Node_0&#45;&gt;SG_0_Node_15</title>
<path fill="none" stroke="#000000" d="M157.7021,-1739.1101C147.6635,-1729.271 136.4912,-1716.3169 130,-1702.4113 119.6634,-1680.268 116.0807,-1652.7418 114.9906,-1631.8349"/>
<polygon fill="#000000" stroke="#000000" points="118.4788,-1631.4381 114.6252,-1621.5689 111.4832,-1631.6871 118.4788,-1631.4381"/>
<text text-anchor="middle" x="176" y="-1686.4113" font-family="Times,serif" font-size="20.00" fill="#000000">[NA]</text>
<text text-anchor="middle" x="176" y="-1664.4113" font-family="Times,serif" font-size="20.00" fill="#000000">11 levels</text>
</g>
<!-- SG_0_Node_1 -->
<g id="node3" class="node">
<title>SG_0_Node_1</title>
<polygon fill="none" stroke="#000000" points="322.5,-1618.1981 167.5,-1618.1981 167.5,-1582.1981 322.5,-1582.1981 322.5,-1618.1981"/>
<text text-anchor="middle" x="245" y="-1595.1981" font-family="Times,serif" font-size="20.00" fill="#000000">Content&#45;Type</text>
</g>
<!-- SG_0_Node_0&#45;&gt;SG_0_Node_1 -->
<g id="edge2" class="edge">
<title>SG_0_Node_0&#45;&gt;SG_0_Node_1</title>
<path fill="none" stroke="#000000" d="M196.8067,-1738.963C205.6064,-1728.8919 215.6689,-1715.7744 222,-1702.4113 233.1923,-1678.7874 239.0668,-1649.4737 242.0668,-1628.3044"/>
<polygon fill="#000000" stroke="#000000" points="245.5441,-1628.7047 243.3531,-1618.3389 238.6017,-1627.8086 245.5441,-1628.7047"/>
<text text-anchor="middle" x="415" y="-1675.4113" font-family="Times,serif" font-size="20.00" fill="#000000">ecocnt_html=post_message=mes1</text>
</g>
<!-- SG_0_Node_16 -->
<g id="node4" class="node">
<title>SG_0_Node_16</title>
<ellipse fill="none" stroke="#000000" cx="100" cy="-1329.7716" rx="34.7971" ry="21.4286"/>
<text text-anchor="middle" x="100" y="-1324.7716" font-family="Times,serif" font-size="20.00" fill="#000000">0.0</text>
</g>
<!-- SG_0_Node_1&#45;&gt;SG_0_Node_16 -->
<g id="edge3" class="edge">
<title>SG_0_Node_1&#45;&gt;SG_0_Node_16</title>
<path fill="none" stroke="#000000" d="M180.5852,-1582.1343C146.542,-1571.1478 109.7999,-1556.4795 100,-1541.9848 62.938,-1487.1683 77.8791,-1404.8159 90.0976,-1360.5448"/>
<polygon fill="#000000" stroke="#000000" points="93.5388,-1361.2442 92.9556,-1350.6654 86.8145,-1359.2989 93.5388,-1361.2442"/>
<text text-anchor="middle" x="211" y="-1525.9848" font-family="Times,serif" font-size="20.00" fill="#000000">[NA]</text>
<text text-anchor="middle" x="211" y="-1503.9848" font-family="Times,serif" font-size="20.00" fill="#000000">application/javascript</text>
<text text-anchor="middle" x="211" y="-1481.9848" font-family="Times,serif" font-size="20.00" fill="#000000">application/pdf</text>
<text text-anchor="middle" x="211" y="-1459.9848" font-family="Times,serif" font-size="20.00" fill="#000000">audio/wav</text>
<text text-anchor="middle" x="211" y="-1437.9848" font-family="Times,serif" font-size="20.00" fill="#000000">image/png</text>
<text text-anchor="middle" x="211" y="-1415.9848" font-family="Times,serif" font-size="20.00" fill="#000000">text/css</text>
<text text-anchor="middle" x="211" y="-1393.9848" font-family="Times,serif" font-size="20.00" fill="#000000">video/mp4</text>
</g>
<!-- SG_0_Node_2 -->
<g id="node5" class="node">
<title>SG_0_Node_2</title>
<polygon fill="none" stroke="#000000" points="468.5,-1347.7716 247.5,-1347.7716 247.5,-1311.7716 468.5,-1311.7716 468.5,-1347.7716"/>
<text text-anchor="middle" x="358" y="-1324.7716" font-family="Times,serif" font-size="20.00" fill="#000000">Content&#45;Disposition</text>
</g>
<!-- SG_0_Node_1&#45;&gt;SG_0_Node_2 -->
<g id="edge4" class="edge">
<title>SG_0_Node_1&#45;&gt;SG_0_Node_2</title>
<path fill="none" stroke="#000000" d="M282.1962,-1582.1367C298.213,-1572.45 315.6135,-1558.9769 326,-1541.9848 361.4696,-1483.9573 362.627,-1400.792 360.37,-1357.8366"/>
<polygon fill="#000000" stroke="#000000" points="363.8611,-1357.5829 359.7415,-1347.8218 356.8748,-1358.0214 363.8611,-1357.5829"/>
<text text-anchor="middle" x="408" y="-1470.9848" font-family="Times,serif" font-size="20.00" fill="#000000">empty</text>
<text text-anchor="middle" x="408" y="-1448.9848" font-family="Times,serif" font-size="20.00" fill="#000000">text/html</text>
</g>
<!-- SG_0_Node_17 -->
<g id="node6" class="node">
<title>SG_0_Node_17</title>
<ellipse fill="none" stroke="#000000" cx="285" cy="-1169.3452" rx="34.7971" ry="21.4286"/>
<text text-anchor="middle" x="285" y="-1164.3452" font-family="Times,serif" font-size="20.00" fill="#000000">0.0</text>
</g>
<!-- SG_0_Node_2&#45;&gt;SG_0_Node_17 -->
<g id="edge5" class="edge">
<title>SG_0_Node_2&#45;&gt;SG_0_Node_17</title>
<path fill="none" stroke="#000000" d="M332.8865,-1311.5233C320.6263,-1301.2135 306.8583,-1287.2567 299,-1271.5584 288.026,-1249.6361 284.7847,-1221.9364 284.1444,-1200.9042"/>
<polygon fill="#000000" stroke="#000000" points="287.6438,-1200.8301 284.0178,-1190.8751 280.6444,-1200.9185 287.6438,-1200.8301"/>
<text text-anchor="middle" x="358" y="-1255.5584" font-family="Times,serif" font-size="20.00" fill="#000000">[NA]</text>
<text text-anchor="middle" x="358" y="-1233.5584" font-family="Times,serif" font-size="20.00" fill="#000000">attachment</text>
</g>
<!-- SG_0_Node_3 -->
<g id="node7" class="node">
<title>SG_0_Node_3</title>
<polygon fill="none" stroke="#000000" points="534.5,-1187.3452 343.5,-1187.3452 343.5,-1151.3452 534.5,-1151.3452 534.5,-1187.3452"/>
<text text-anchor="middle" x="439" y="-1164.3452" font-family="Times,serif" font-size="20.00" fill="#000000">X&#45;Frame&#45;Options</text>
</g>
<!-- SG_0_Node_2&#45;&gt;SG_0_Node_3 -->
<g id="edge6" class="edge">
<title>SG_0_Node_2&#45;&gt;SG_0_Node_3</title>
<path fill="none" stroke="#000000" d="M382.3308,-1311.5236C394.5298,-1301.1181 408.4826,-1287.0735 417,-1271.5584 429.6288,-1248.5542 435.0101,-1218.9336 437.3021,-1197.5066"/>
<polygon fill="#000000" stroke="#000000" points="440.7993,-1197.6952 438.2193,-1187.4193 433.828,-1197.0613 440.7993,-1197.6952"/>
<text text-anchor="middle" x="464" y="-1244.5584" font-family="Times,serif" font-size="20.00" fill="#000000">empty</text>
</g>
<!-- SG_0_Node_4 -->
<g id="node8" class="node">
<title>SG_0_Node_4</title>
<polygon fill="none" stroke="#000000" points="436,-1030.132 294,-1030.132 294,-994.132 436,-994.132 436,-1030.132"/>
<text text-anchor="middle" x="365" y="-1007.132" font-family="Times,serif" font-size="20.00" fill="#000000">Status&#45;Code</text>
</g>
<!-- SG_0_Node_3&#45;&gt;SG_0_Node_4 -->
<g id="edge7" class="edge">
<title>SG_0_Node_3&#45;&gt;SG_0_Node_4</title>
<path fill="none" stroke="#000000" d="M430.5113,-1151.3109C417.6439,-1123.9742 393.1038,-1071.8387 377.9842,-1039.717"/>
<polygon fill="#000000" stroke="#000000" points="381.0433,-1037.9975 373.6177,-1030.4403 374.7098,-1040.9787 381.0433,-1037.9975"/>
<text text-anchor="middle" x="436" y="-1095.132" font-family="Times,serif" font-size="20.00" fill="#000000">[NA]</text>
<text text-anchor="middle" x="436" y="-1073.132" font-family="Times,serif" font-size="20.00" fill="#000000">deny</text>
</g>
<!-- SG_0_Node_5 -->
<g id="node9" class="node">
<title>SG_0_Node_5</title>
<polygon fill="none" stroke="#000000" points="598,-1030.132 456,-1030.132 456,-994.132 598,-994.132 598,-1030.132"/>
<text text-anchor="middle" x="527" y="-1007.132" font-family="Times,serif" font-size="20.00" fill="#000000">Status&#45;Code</text>
</g>
<!-- SG_0_Node_3&#45;&gt;SG_0_Node_5 -->
<g id="edge8" class="edge">
<title>SG_0_Node_3&#45;&gt;SG_0_Node_5</title>
<path fill="none" stroke="#000000" d="M449.0947,-1151.3109C464.4623,-1123.8564 493.8311,-1071.3888 511.7912,-1039.3027"/>
<polygon fill="#000000" stroke="#000000" points="514.9216,-1040.8759 516.7519,-1030.4403 508.8134,-1037.4568 514.9216,-1040.8759"/>
<text text-anchor="middle" x="528" y="-1084.132" font-family="Times,serif" font-size="20.00" fill="#000000">empty</text>
</g>
<!-- SG_0_Node_18 -->
<g id="node10" class="node">
<title>SG_0_Node_18</title>
<ellipse fill="none" stroke="#000000" cx="237" cy="-766.9188" rx="34.7971" ry="21.4286"/>
<text text-anchor="middle" x="237" y="-761.9188" font-family="Times,serif" font-size="20.00" fill="#000000">0.0</text>
</g>
<!-- SG_0_Node_4&#45;&gt;SG_0_Node_18 -->
<g id="edge23" class="edge">
<title>SG_0_Node_4&#45;&gt;SG_0_Node_18</title>
<path fill="none" stroke="#000000" d="M306.6112,-994.1269C288.5847,-985.717 270.4748,-973.7737 259,-957.132 226.1733,-909.524 227.8007,-838.788 232.2155,-798.3379"/>
<polygon fill="#000000" stroke="#000000" points="235.7084,-798.6073 233.4432,-788.2575 228.7598,-797.761 235.7084,-798.6073"/>
<text text-anchor="middle" x="305" y="-897.132" font-family="Times,serif" font-size="20.00" fill="#000000">[NA]</text>
<text text-anchor="middle" x="305" y="-875.132" font-family="Times,serif" font-size="20.00" fill="#000000">57 levels</text>
</g>
<!-- SG_0_Node_6 -->
<g id="node11" class="node">
<title>SG_0_Node_6</title>
<polygon fill="none" stroke="#000000" points="404.5,-784.9188 299.5,-784.9188 299.5,-748.9188 404.5,-748.9188 404.5,-784.9188"/>
<text text-anchor="middle" x="352" y="-761.9188" font-family="Times,serif" font-size="20.00" fill="#000000">Location</text>
</g>
<!-- SG_0_Node_4&#45;&gt;SG_0_Node_6 -->
<g id="edge24" class="edge">
<title>SG_0_Node_4&#45;&gt;SG_0_Node_6</title>
<path fill="none" stroke="#000000" d="M364.0441,-994.1009C361.8043,-951.8534 356.203,-846.1985 353.5025,-795.259"/>
<polygon fill="#000000" stroke="#000000" points="356.9819,-794.777 352.9573,-784.9764 349.9917,-795.1477 356.9819,-794.777"/>
<text text-anchor="middle" x="381.5" y="-941.132" font-family="Times,serif" font-size="20.00" fill="#000000">300</text>
<text text-anchor="middle" x="381.5" y="-919.132" font-family="Times,serif" font-size="20.00" fill="#000000">301</text>
<text text-anchor="middle" x="381.5" y="-897.132" font-family="Times,serif" font-size="20.00" fill="#000000">302</text>
<text text-anchor="middle" x="381.5" y="-875.132" font-family="Times,serif" font-size="20.00" fill="#000000">303</text>
<text text-anchor="middle" x="381.5" y="-853.132" font-family="Times,serif" font-size="20.00" fill="#000000">307</text>
<text text-anchor="middle" x="381.5" y="-831.132" font-family="Times,serif" font-size="20.00" fill="#000000">308</text>
</g>
<!-- SG_0_Node_7 -->
<g id="node12" class="node">
<title>SG_0_Node_7</title>
<polygon fill="none" stroke="#000000" points="598,-784.9188 456,-784.9188 456,-748.9188 598,-748.9188 598,-784.9188"/>
<text text-anchor="middle" x="527" y="-761.9188" font-family="Times,serif" font-size="20.00" fill="#000000">Status&#45;Code</text>
</g>
<!-- SG_0_Node_5&#45;&gt;SG_0_Node_7 -->
<g id="edge9" class="edge">
<title>SG_0_Node_5&#45;&gt;SG_0_Node_7</title>
<path fill="none" stroke="#000000" d="M527,-994.1009C527,-951.8534 527,-846.1985 527,-795.259"/>
<polygon fill="#000000" stroke="#000000" points="530.5001,-794.9763 527,-784.9764 523.5001,-794.9764 530.5001,-794.9763"/>
<text text-anchor="middle" x="573" y="-886.132" font-family="Times,serif" font-size="20.00" fill="#000000">13 levels</text>
</g>
<!-- SG_0_Node_8 -->
<g id="node13" class="node">
<title>SG_0_Node_8</title>
<polygon fill="none" stroke="#000000" points="879,-784.9188 617,-784.9188 617,-748.9188 879,-748.9188 879,-784.9188"/>
<text text-anchor="middle" x="748" y="-761.9188" font-family="Times,serif" font-size="20.00" fill="#000000">X&#45;Content&#45;Type&#45;Options</text>
</g>
<!-- SG_0_Node_5&#45;&gt;SG_0_Node_8 -->
<g id="edge10" class="edge">
<title>SG_0_Node_5&#45;&gt;SG_0_Node_8</title>
<path fill="none" stroke="#000000" d="M568.1215,-993.9869C586.2688,-984.6831 607.0504,-972.1354 623,-957.132 674.8506,-908.3577 715.6257,-834.0364 735.237,-794.2754"/>
<polygon fill="#000000" stroke="#000000" points="738.4342,-795.7036 739.6507,-785.1788 732.1364,-792.6478 738.4342,-795.7036"/>
<text text-anchor="middle" x="765" y="-897.132" font-family="Times,serif" font-size="20.00" fill="#000000">[NA]</text>
<text text-anchor="middle" x="765" y="-875.132" font-family="Times,serif" font-size="20.00" fill="#000000">50 levels</text>
</g>
<!-- SG_0_Node_19 -->
<g id="node14" class="node">
<title>SG_0_Node_19</title>
<ellipse fill="none" stroke="#000000" cx="86" cy="-496.4924" rx="34.7971" ry="21.4286"/>
<text text-anchor="middle" x="86" y="-491.4924" font-family="Times,serif" font-size="20.00" fill="#000000">0.0</text>
</g>
<!-- SG_0_Node_6&#45;&gt;SG_0_Node_19 -->
<g id="edge25" class="edge">
<title>SG_0_Node_6&#45;&gt;SG_0_Node_19</title>
<path fill="none" stroke="#000000" d="M299.4344,-750.5575C293.2456,-748.8262 286.9997,-747.167 281,-745.7056 195.2929,-724.8293 142.2624,-776.6473 86,-708.7056 43.4002,-657.2627 61.1354,-572.2564 75.1153,-527.0214"/>
<polygon fill="#000000" stroke="#000000" points="78.4566,-528.0638 78.195,-517.4722 71.7945,-525.9152 78.4566,-528.0638"/>
<text text-anchor="middle" x="201" y="-626.7056" font-family="Times,serif" font-size="20.00" fill="#000000">http://172.17.0.1:8000</text>
</g>
<!-- SG_0_Node_9 -->
<g id="node15" class="node">
<title>SG_0_Node_9</title>
<polygon fill="none" stroke="#000000" points="412,-514.4924 150,-514.4924 150,-478.4924 412,-478.4924 412,-514.4924"/>
<text text-anchor="middle" x="281" y="-491.4924" font-family="Times,serif" font-size="20.00" fill="#000000">X&#45;Content&#45;Type&#45;Options</text>
</g>
<!-- SG_0_Node_6&#45;&gt;SG_0_Node_9 -->
<g id="edge26" class="edge">
<title>SG_0_Node_6&#45;&gt;SG_0_Node_9</title>
<path fill="none" stroke="#000000" d="M351.9079,-748.9187C351.1595,-711.467 346.4732,-622.966 320,-554.7056 315.6893,-543.5907 308.9637,-532.4547 302.3039,-522.9427"/>
<polygon fill="#000000" stroke="#000000" points="305.0086,-520.7121 296.2773,-514.7109 299.3605,-524.8472 305.0086,-520.7121"/>
<text text-anchor="middle" x="382" y="-637.7056" font-family="Times,serif" font-size="20.00" fill="#000000">[NA]</text>
<text text-anchor="middle" x="382" y="-615.7056" font-family="Times,serif" font-size="20.00" fill="#000000">empty</text>
</g>
<!-- SG_0_Node_20 -->
<g id="node16" class="node">
<title>SG_0_Node_20</title>
<ellipse fill="none" stroke="#000000" cx="481" cy="-496.4924" rx="34.7971" ry="21.4286"/>
<text text-anchor="middle" x="481" y="-491.4924" font-family="Times,serif" font-size="20.00" fill="#000000">0.0</text>
</g>
<!-- SG_0_Node_7&#45;&gt;SG_0_Node_20 -->
<g id="edge15" class="edge">
<title>SG_0_Node_7&#45;&gt;SG_0_Node_20</title>
<path fill="none" stroke="#000000" d="M520.9372,-748.7433C517.326,-737.3505 512.8967,-722.2981 510,-708.7056 496.4532,-645.1393 487.8862,-569.4494 483.814,-527.8224"/>
<polygon fill="#000000" stroke="#000000" points="487.2876,-527.3783 482.8524,-517.7565 480.3193,-528.0441 487.2876,-527.3783"/>
<text text-anchor="middle" x="529.5" y="-692.7056" font-family="Times,serif" font-size="20.00" fill="#000000">100</text>
<text text-anchor="middle" x="529.5" y="-670.7056" font-family="Times,serif" font-size="20.00" fill="#000000">101</text>
<text text-anchor="middle" x="529.5" y="-648.7056" font-family="Times,serif" font-size="20.00" fill="#000000">102</text>
<text text-anchor="middle" x="529.5" y="-626.7056" font-family="Times,serif" font-size="20.00" fill="#000000">103</text>
<text text-anchor="middle" x="529.5" y="-604.7056" font-family="Times,serif" font-size="20.00" fill="#000000">204</text>
<text text-anchor="middle" x="529.5" y="-582.7056" font-family="Times,serif" font-size="20.00" fill="#000000">205</text>
<text text-anchor="middle" x="529.5" y="-560.7056" font-family="Times,serif" font-size="20.00" fill="#000000">304</text>
</g>
<!-- SG_0_Node_10 -->
<g id="node17" class="node">
<title>SG_0_Node_10</title>
<polygon fill="none" stroke="#000000" points="638.5,-514.4924 533.5,-514.4924 533.5,-478.4924 638.5,-478.4924 638.5,-514.4924"/>
<text text-anchor="middle" x="586" y="-491.4924" font-family="Times,serif" font-size="20.00" fill="#000000">Location</text>
</g>
<!-- SG_0_Node_7&#45;&gt;SG_0_Node_10 -->
<g id="edge16" class="edge">
<title>SG_0_Node_7&#45;&gt;SG_0_Node_10</title>
<path fill="none" stroke="#000000" d="M534.8364,-748.8586C539.5061,-737.509 545.2376,-722.4618 549,-708.7056 566.7061,-643.9671 577.7706,-565.7057 582.8038,-524.6962"/>
<polygon fill="#000000" stroke="#000000" points="586.2952,-524.9761 584.0091,-514.6309 579.3449,-524.1438 586.2952,-524.9761"/>
<text text-anchor="middle" x="597.5" y="-681.7056" font-family="Times,serif" font-size="20.00" fill="#000000">300</text>
<text text-anchor="middle" x="597.5" y="-659.7056" font-family="Times,serif" font-size="20.00" fill="#000000">301</text>
<text text-anchor="middle" x="597.5" y="-637.7056" font-family="Times,serif" font-size="20.00" fill="#000000">302</text>
<text text-anchor="middle" x="597.5" y="-615.7056" font-family="Times,serif" font-size="20.00" fill="#000000">303</text>
<text text-anchor="middle" x="597.5" y="-593.7056" font-family="Times,serif" font-size="20.00" fill="#000000">307</text>
<text text-anchor="middle" x="597.5" y="-571.7056" font-family="Times,serif" font-size="20.00" fill="#000000">308</text>
</g>
<!-- SG_0_Node_11 -->
<g id="node18" class="node">
<title>SG_0_Node_11</title>
<polygon fill="none" stroke="#000000" points="825.5,-514.4924 670.5,-514.4924 670.5,-478.4924 825.5,-478.4924 825.5,-514.4924"/>
<text text-anchor="middle" x="748" y="-491.4924" font-family="Times,serif" font-size="20.00" fill="#000000">Content&#45;Type</text>
</g>
<!-- SG_0_Node_8&#45;&gt;SG_0_Node_11 -->
<g id="edge11" class="edge">
<title>SG_0_Node_8&#45;&gt;SG_0_Node_11</title>
<path fill="none" stroke="#000000" d="M748,-748.7555C748,-702.5702 748,-580.3784 748,-524.7687"/>
<polygon fill="#000000" stroke="#000000" points="751.5001,-524.5767 748,-514.5767 744.5001,-524.5768 751.5001,-524.5767"/>
<text text-anchor="middle" x="783" y="-626.7056" font-family="Times,serif" font-size="20.00" fill="#000000">nosniff</text>
</g>
<!-- SG_0_Node_21 -->
<g id="node19" class="node">
<title>SG_0_Node_21</title>
<ellipse fill="none" stroke="#000000" cx="878" cy="-496.4924" rx="34.7971" ry="21.4286"/>
<text text-anchor="middle" x="878" y="-491.4924" font-family="Times,serif" font-size="20.00" fill="#000000">1.0</text>
</g>
<!-- SG_0_Node_8&#45;&gt;SG_0_Node_21 -->
<g id="edge12" class="edge">
<title>SG_0_Node_8&#45;&gt;SG_0_Node_21</title>
<path fill="none" stroke="#000000" d="M779.7214,-748.7165C794.581,-738.6862 811.3217,-724.9643 822,-708.7056 859.1991,-652.0665 871.7397,-571.7104 875.9298,-527.9211"/>
<polygon fill="#000000" stroke="#000000" points="879.4244,-528.1351 876.8051,-517.8691 872.4508,-527.5278 879.4244,-528.1351"/>
<text text-anchor="middle" x="904" y="-637.7056" font-family="Times,serif" font-size="20.00" fill="#000000">[NA]</text>
<text text-anchor="middle" x="904" y="-615.7056" font-family="Times,serif" font-size="20.00" fill="#000000">empty</text>
</g>
<!-- SG_0_Node_12 -->
<g id="node20" class="node">
<title>SG_0_Node_12</title>
<polygon fill="none" stroke="#000000" points="235.5,-354.066 80.5,-354.066 80.5,-318.066 235.5,-318.066 235.5,-354.066"/>
<text text-anchor="middle" x="158" y="-331.066" font-family="Times,serif" font-size="20.00" fill="#000000">Content&#45;Type</text>
</g>
<!-- SG_0_Node_9&#45;&gt;SG_0_Node_12 -->
<g id="edge27" class="edge">
<title>SG_0_Node_9&#45;&gt;SG_0_Node_12</title>
<path fill="none" stroke="#000000" d="M253.2707,-478.4154C238.7672,-467.9611 221.4845,-453.8175 209,-438.2792 190.878,-415.7243 176.8473,-385.68 168.1305,-364.0083"/>
<polygon fill="#000000" stroke="#000000" points="171.2818,-362.4549 164.3937,-354.4048 164.7582,-364.9933 171.2818,-362.4549"/>
<text text-anchor="middle" x="244" y="-411.2792" font-family="Times,serif" font-size="20.00" fill="#000000">nosniff</text>
</g>
<!-- SG_0_Node_22 -->
<g id="node21" class="node">
<title>SG_0_Node_22</title>
<ellipse fill="none" stroke="#000000" cx="288" cy="-336.066" rx="34.7971" ry="21.4286"/>
<text text-anchor="middle" x="288" y="-331.066" font-family="Times,serif" font-size="20.00" fill="#000000">1.0</text>
</g>
<!-- SG_0_Node_9&#45;&gt;SG_0_Node_22 -->
<g id="edge28" class="edge">
<title>SG_0_Node_9&#45;&gt;SG_0_Node_22</title>
<path fill="none" stroke="#000000" d="M281.7894,-478.4013C282.9638,-451.4864 285.1873,-400.5279 286.6306,-367.4506"/>
<polygon fill="#000000" stroke="#000000" points="290.1301,-367.5358 287.0694,-357.3927 283.1367,-367.2306 290.1301,-367.5358"/>
<text text-anchor="middle" x="317" y="-422.2792" font-family="Times,serif" font-size="20.00" fill="#000000">[NA]</text>
<text text-anchor="middle" x="317" y="-400.2792" font-family="Times,serif" font-size="20.00" fill="#000000">empty</text>
</g>
<!-- SG_0_Node_23 -->
<g id="node22" class="node">
<title>SG_0_Node_23</title>
<ellipse fill="none" stroke="#000000" cx="381" cy="-336.066" rx="34.7971" ry="21.4286"/>
<text text-anchor="middle" x="381" y="-331.066" font-family="Times,serif" font-size="20.00" fill="#000000">0.0</text>
</g>
<!-- SG_0_Node_10&#45;&gt;SG_0_Node_23 -->
<g id="edge17" class="edge">
<title>SG_0_Node_10&#45;&gt;SG_0_Node_23</title>
<path fill="none" stroke="#000000" d="M535.1783,-478.4643C531.7438,-477.3555 528.3276,-476.2834 525,-475.2792 461.739,-456.1883 421.4956,-490.4954 381,-438.2792 365.6034,-418.4264 367.2366,-389.2702 371.7725,-367.1729"/>
<polygon fill="#000000" stroke="#000000" points="375.2191,-367.8048 374.0898,-357.2703 368.4032,-366.2097 375.2191,-367.8048"/>
<text text-anchor="middle" x="496" y="-411.2792" font-family="Times,serif" font-size="20.00" fill="#000000">http://172.17.0.1:8000</text>
</g>
<!-- SG_0_Node_13 -->
<g id="node23" class="node">
<title>SG_0_Node_13</title>
<polygon fill="none" stroke="#000000" points="702,-354.066 440,-354.066 440,-318.066 702,-318.066 702,-354.066"/>
<text text-anchor="middle" x="571" y="-331.066" font-family="Times,serif" font-size="20.00" fill="#000000">X&#45;Content&#45;Type&#45;Options</text>
</g>
<!-- SG_0_Node_10&#45;&gt;SG_0_Node_13 -->
<g id="edge18" class="edge">
<title>SG_0_Node_10&#45;&gt;SG_0_Node_13</title>
<path fill="none" stroke="#000000" d="M597.7169,-478.4519C604.2123,-467.3558 611.6381,-452.5675 615,-438.2792 619.479,-419.2435 621.2186,-412.8197 615,-394.2792 611.074,-382.5741 603.7609,-371.3448 596.2083,-361.9253"/>
<polygon fill="#000000" stroke="#000000" points="598.7352,-359.4941 589.5887,-354.1469 593.4043,-364.0308 598.7352,-359.4941"/>
<text text-anchor="middle" x="651" y="-422.2792" font-family="Times,serif" font-size="20.00" fill="#000000">[NA]</text>
<text text-anchor="middle" x="651" y="-400.2792" font-family="Times,serif" font-size="20.00" fill="#000000">empty</text>
</g>
<!-- SG_0_Node_24 -->
<g id="node24" class="node">
<title>SG_0_Node_24</title>
<ellipse fill="none" stroke="#000000" cx="755" cy="-336.066" rx="34.7971" ry="21.4286"/>
<text text-anchor="middle" x="755" y="-331.066" font-family="Times,serif" font-size="20.00" fill="#000000">0.0</text>
</g>
<!-- SG_0_Node_11&#45;&gt;SG_0_Node_24 -->
<g id="edge13" class="edge">
<title>SG_0_Node_11&#45;&gt;SG_0_Node_24</title>
<path fill="none" stroke="#000000" d="M748.7894,-478.4013C749.9638,-451.4864 752.1873,-400.5279 753.6306,-367.4506"/>
<polygon fill="#000000" stroke="#000000" points="757.1301,-367.5358 754.0694,-357.3927 750.1367,-367.2306 757.1301,-367.5358"/>
<text text-anchor="middle" x="784" y="-411.2792" font-family="Times,serif" font-size="20.00" fill="#000000">empty</text>
</g>
<!-- SG_0_Node_25 -->
<g id="node25" class="node">
<title>SG_0_Node_25</title>
<ellipse fill="none" stroke="#000000" cx="848" cy="-336.066" rx="34.7971" ry="21.4286"/>
<text text-anchor="middle" x="848" y="-331.066" font-family="Times,serif" font-size="20.00" fill="#000000">1.0</text>
</g>
<!-- SG_0_Node_11&#45;&gt;SG_0_Node_25 -->
<g id="edge14" class="edge">
<title>SG_0_Node_11&#45;&gt;SG_0_Node_25</title>
<path fill="none" stroke="#000000" d="M778.4322,-478.3295C792.9628,-468.2233 809.443,-454.4233 820,-438.2792 833.8692,-417.0702 840.9196,-389.0964 844.4738,-367.776"/>
<polygon fill="#000000" stroke="#000000" points="847.9774,-368.0113 845.9919,-357.6041 841.0541,-366.9779 847.9774,-368.0113"/>
<text text-anchor="middle" x="885" y="-411.2792" font-family="Times,serif" font-size="20.00" fill="#000000">text/html</text>
</g>
<!-- SG_0_Node_26 -->
<g id="node26" class="node">
<title>SG_0_Node_26</title>
<ellipse fill="none" stroke="#000000" cx="108" cy="-175.6396" rx="34.7971" ry="21.4286"/>
<text text-anchor="middle" x="108" y="-170.6396" font-family="Times,serif" font-size="20.00" fill="#000000">0.0</text>
</g>
<!-- SG_0_Node_12&#45;&gt;SG_0_Node_26 -->
<g id="edge29" class="edge">
<title>SG_0_Node_12&#45;&gt;SG_0_Node_26</title>
<path fill="none" stroke="#000000" d="M144.0384,-317.9514C136.2847,-306.9474 127.184,-292.2786 122,-277.8528 113.7986,-255.0304 110.3564,-227.7569 108.9333,-207.1249"/>
<polygon fill="#000000" stroke="#000000" points="112.4197,-206.7854 108.3586,-196.9999 105.431,-207.1822 112.4197,-206.7854"/>
<text text-anchor="middle" x="154" y="-250.8528" font-family="Times,serif" font-size="20.00" fill="#000000">empty</text>
</g>
<!-- SG_0_Node_27 -->
<g id="node27" class="node">
<title>SG_0_Node_27</title>
<ellipse fill="none" stroke="#000000" cx="208" cy="-175.6396" rx="34.7971" ry="21.4286"/>
<text text-anchor="middle" x="208" y="-170.6396" font-family="Times,serif" font-size="20.00" fill="#000000">1.0</text>
</g>
<!-- SG_0_Node_12&#45;&gt;SG_0_Node_27 -->
<g id="edge30" class="edge">
<title>SG_0_Node_12&#45;&gt;SG_0_Node_27</title>
<path fill="none" stroke="#000000" d="M168.1012,-317.923C174.0168,-306.6684 181.2371,-291.7507 186,-277.8528 193.9679,-254.6031 199.6615,-227.3543 203.2577,-206.8404"/>
<polygon fill="#000000" stroke="#000000" points="206.742,-207.2255 204.948,-196.7837 199.8388,-206.0652 206.742,-207.2255"/>
<text text-anchor="middle" x="244" y="-250.8528" font-family="Times,serif" font-size="20.00" fill="#000000">text/html</text>
</g>
<!-- SG_0_Node_14 -->
<g id="node28" class="node">
<title>SG_0_Node_14</title>
<polygon fill="none" stroke="#000000" points="586.5,-193.6396 431.5,-193.6396 431.5,-157.6396 586.5,-157.6396 586.5,-193.6396"/>
<text text-anchor="middle" x="509" y="-170.6396" font-family="Times,serif" font-size="20.00" fill="#000000">Content&#45;Type</text>
</g>
<!-- SG_0_Node_13&#45;&gt;SG_0_Node_14 -->
<g id="edge19" class="edge">
<title>SG_0_Node_13&#45;&gt;SG_0_Node_14</title>
<path fill="none" stroke="#000000" d="M557.8089,-317.9755C550.2257,-306.8617 541.0365,-292.0723 535,-277.8528 524.7779,-253.7739 517.8676,-224.7376 513.7563,-203.7758"/>
<polygon fill="#000000" stroke="#000000" points="517.1891,-203.0915 511.9097,-193.9057 510.3085,-204.3788 517.1891,-203.0915"/>
<text text-anchor="middle" x="570" y="-250.8528" font-family="Times,serif" font-size="20.00" fill="#000000">nosniff</text>
</g>
<!-- SG_0_Node_28 -->
<g id="node29" class="node">
<title>SG_0_Node_28</title>
<ellipse fill="none" stroke="#000000" cx="639" cy="-175.6396" rx="34.7971" ry="21.4286"/>
<text text-anchor="middle" x="639" y="-170.6396" font-family="Times,serif" font-size="20.00" fill="#000000">1.0</text>
</g>
<!-- SG_0_Node_13&#45;&gt;SG_0_Node_28 -->
<g id="edge20" class="edge">
<title>SG_0_Node_13&#45;&gt;SG_0_Node_28</title>
<path fill="none" stroke="#000000" d="M582.882,-317.974C589.925,-306.738 598.68,-291.8219 605,-277.8528 615.4854,-254.6769 624.4269,-227.2734 630.5051,-206.6775"/>
<polygon fill="#000000" stroke="#000000" points="633.924,-207.453 633.3342,-196.8746 627.1985,-205.5119 633.924,-207.453"/>
<text text-anchor="middle" x="653" y="-261.8528" font-family="Times,serif" font-size="20.00" fill="#000000">[NA]</text>
<text text-anchor="middle" x="653" y="-239.8528" font-family="Times,serif" font-size="20.00" fill="#000000">empty</text>
</g>
<!-- SG_0_Node_29 -->
<g id="node30" class="node">
<title>SG_0_Node_29</title>
<ellipse fill="none" stroke="#000000" cx="459" cy="-37.2132" rx="34.7971" ry="21.4286"/>
<text text-anchor="middle" x="459" y="-32.2132" font-family="Times,serif" font-size="20.00" fill="#000000">0.0</text>
</g>
<!-- SG_0_Node_14&#45;&gt;SG_0_Node_29 -->
<g id="edge21" class="edge">
<title>SG_0_Node_14&#45;&gt;SG_0_Node_29</title>
<path fill="none" stroke="#000000" d="M495.2331,-157.453C487.5462,-146.4243 478.4476,-131.7547 473,-117.4264 467.1382,-102.0088 463.7115,-83.9821 461.7178,-68.9275"/>
<polygon fill="#000000" stroke="#000000" points="465.1444,-68.0956 460.5051,-58.5705 458.1919,-68.9097 465.1444,-68.0956"/>
<text text-anchor="middle" x="505" y="-101.4264" font-family="Times,serif" font-size="20.00" fill="#000000">empty</text>
</g>
<!-- SG_0_Node_30 -->
<g id="node31" class="node">
<title>SG_0_Node_30</title>
<ellipse fill="none" stroke="#000000" cx="559" cy="-37.2132" rx="34.7971" ry="21.4286"/>
<text text-anchor="middle" x="559" y="-32.2132" font-family="Times,serif" font-size="20.00" fill="#000000">1.0</text>
</g>
<!-- SG_0_Node_14&#45;&gt;SG_0_Node_30 -->
<g id="edge22" class="edge">
<title>SG_0_Node_14&#45;&gt;SG_0_Node_30</title>
<path fill="none" stroke="#000000" d="M518.8258,-157.3979C524.6407,-146.1073 531.8521,-131.1863 537,-117.4264 542.9612,-101.4927 548.0951,-83.2363 551.9005,-68.1696"/>
<polygon fill="#000000" stroke="#000000" points="555.3343,-68.862 554.3166,-58.3161 548.5357,-67.1949 555.3343,-68.862"/>
<text text-anchor="middle" x="591" y="-101.4264" font-family="Times,serif" font-size="20.00" fill="#000000">text/html</text>
</g>
</g>
</svg>
