<?xml version="1.0" encoding="UTF-8" standalone="no"?>
<!DOCTYPE svg PUBLIC "-//W3C//DTD SVG 1.1//EN"
 "http://www.w3.org/Graphics/SVG/1.1/DTD/svg11.dtd">
<!-- Generated by graphviz version 2.40.1 (20161225.0304)
 -->
<!-- Title: G Pages: 1 -->
<svg width="859pt" height="1377pt"
 viewBox="0.00 0.00 859.00 1376.56" xmlns="http://www.w3.org/2000/svg" xmlns:xlink="http://www.w3.org/1999/xlink">
<g id="graph0" class="graph" transform="scale(1 1) rotate(0) translate(4 1372.5584)">
<title>G</title>
<polygon fill="#ffffff" stroke="transparent" points="-4,4 -4,-1372.5584 855,-1372.5584 855,4 -4,4"/>
<g id="clust1" class="cluster">
<title>cluster_0</title>
<polygon fill="none" stroke="#000000" points="8,-8 8,-1360.5584 843,-1360.5584 843,-8 8,-8"/>
<text text-anchor="middle" x="425.5" y="-1324.5584" font-family="Times,serif" font-size="40.00" fill="#000000">Tree 0, Class {&#39;a&#39;: &#39;Var a does not exist&#39;}</text>
</g>
<!-- SG_0_Node_0 -->
<g id="node1" class="node">
<title>SG_0_Node_0</title>
<polygon fill="none" stroke="#000000" points="538.5,-1300.5584 473.5,-1300.5584 473.5,-1264.5584 538.5,-1264.5584 538.5,-1300.5584"/>
<text text-anchor="middle" x="506" y="-1277.5584" font-family="Times,serif" font-size="20.00" fill="#000000">body</text>
</g>
<!-- SG_0_Node_1 -->
<g id="node2" class="node">
<title>SG_0_Node_1</title>
<polygon fill="none" stroke="#000000" points="459,-1143.3452 317,-1143.3452 317,-1107.3452 459,-1107.3452 459,-1143.3452"/>
<text text-anchor="middle" x="388" y="-1120.3452" font-family="Times,serif" font-size="20.00" fill="#000000">Status&#45;Code</text>
</g>
<!-- SG_0_Node_0&#45;&gt;SG_0_Node_1 -->
<g id="edge1" class="edge">
<title>SG_0_Node_0&#45;&gt;SG_0_Node_1</title>
<path fill="none" stroke="#000000" d="M473.3775,-1274.0286C449.6541,-1266.0514 418.8547,-1251.662 402,-1227.5584 386.9167,-1205.9881 384.5369,-1175.5011 385.2462,-1153.4421"/>
<polygon fill="#000000" stroke="#000000" points="388.7458,-1153.5434 385.8005,-1143.3662 381.7564,-1153.1589 388.7458,-1153.5434"/>
<text text-anchor="middle" x="502.5" y="-1200.5584" font-family="Times,serif" font-size="20.00" fill="#000000">ecocnt_js=var a=5;</text>
</g>
<!-- SG_0_Node_6 -->
<g id="node3" class="node">
<title>SG_0_Node_6</title>
<ellipse fill="none" stroke="#000000" cx="625" cy="-1125.3452" rx="34.7971" ry="21.4286"/>
<text text-anchor="middle" x="625" y="-1120.3452" font-family="Times,serif" font-size="20.00" fill="#000000">1.0</text>
</g>
<!-- SG_0_Node_0&#45;&gt;SG_0_Node_6 -->
<g id="edge2" class="edge">
<title>SG_0_Node_0&#45;&gt;SG_0_Node_6</title>
<path fill="none" stroke="#000000" d="M538.7479,-1271.9986C560.2338,-1263.3903 587.1854,-1249.0901 603,-1227.5584 618.0517,-1207.0655 623.2183,-1178.396 624.8112,-1156.6337"/>
<polygon fill="#000000" stroke="#000000" points="628.3103,-1156.7394 625.3337,-1146.5713 621.3197,-1156.3764 628.3103,-1156.7394"/>
<text text-anchor="middle" x="666" y="-1211.5584" font-family="Times,serif" font-size="20.00" fill="#000000">[NA]</text>
<text text-anchor="middle" x="666" y="-1189.5584" font-family="Times,serif" font-size="20.00" fill="#000000">11 levels</text>
</g>
<!-- SG_0_Node_2 -->
<g id="node4" class="node">
<title>SG_0_Node_2</title>
<polygon fill="none" stroke="#000000" points="440.5,-850.9188 123.5,-850.9188 123.5,-814.9188 440.5,-814.9188 440.5,-850.9188"/>
<text text-anchor="middle" x="282" y="-827.9188" font-family="Times,serif" font-size="20.00" fill="#000000">Cross&#45;Origin&#45;Resource&#45;Policy</text>
</g>
<!-- SG_0_Node_1&#45;&gt;SG_0_Node_2 -->
<g id="edge3" class="edge">
<title>SG_0_Node_1&#45;&gt;SG_0_Node_2</title>
<path fill="none" stroke="#000000" d="M381.0831,-1107.2817C376.7097,-1095.802 370.9656,-1080.6162 366,-1067.132 338.6366,-992.8262 307.3922,-904.8492 291.8541,-860.876"/>
<polygon fill="#000000" stroke="#000000" points="295.0598,-859.4425 288.43,-851.1783 288.4591,-861.7731 295.0598,-859.4425"/>
<text text-anchor="middle" x="385.5" y="-1051.132" font-family="Times,serif" font-size="20.00" fill="#000000">200</text>
<text text-anchor="middle" x="385.5" y="-1029.132" font-family="Times,serif" font-size="20.00" fill="#000000">201</text>
<text text-anchor="middle" x="385.5" y="-1007.132" font-family="Times,serif" font-size="20.00" fill="#000000">202</text>
<text text-anchor="middle" x="385.5" y="-985.132" font-family="Times,serif" font-size="20.00" fill="#000000">203</text>
<text text-anchor="middle" x="385.5" y="-963.132" font-family="Times,serif" font-size="20.00" fill="#000000">206</text>
<text text-anchor="middle" x="385.5" y="-941.132" font-family="Times,serif" font-size="20.00" fill="#000000">207</text>
<text text-anchor="middle" x="385.5" y="-919.132" font-family="Times,serif" font-size="20.00" fill="#000000">208</text>
<text text-anchor="middle" x="385.5" y="-897.132" font-family="Times,serif" font-size="20.00" fill="#000000">226</text>
</g>
<!-- SG_0_Node_7 -->
<g id="node5" class="node">
<title>SG_0_Node_7</title>
<ellipse fill="none" stroke="#000000" cx="493" cy="-832.9188" rx="34.7971" ry="21.4286"/>
<text text-anchor="middle" x="493" y="-827.9188" font-family="Times,serif" font-size="20.00" fill="#000000">1.0</text>
</g>
<!-- SG_0_Node_1&#45;&gt;SG_0_Node_7 -->
<g id="edge4" class="edge">
<title>SG_0_Node_1&#45;&gt;SG_0_Node_7</title>
<path fill="none" stroke="#000000" d="M394.5682,-1107.0527C412.0965,-1058.2362 460.1262,-924.4729 481.9491,-863.6956"/>
<polygon fill="#000000" stroke="#000000" points="485.3771,-864.5054 485.4625,-853.9109 478.7889,-862.1397 485.3771,-864.5054"/>
<text text-anchor="middle" x="517" y="-985.132" font-family="Times,serif" font-size="20.00" fill="#000000">[NA]</text>
<text text-anchor="middle" x="517" y="-963.132" font-family="Times,serif" font-size="20.00" fill="#000000">55 levels</text>
</g>
<!-- SG_0_Node_3 -->
<g id="node6" class="node">
<title>SG_0_Node_3</title>
<polygon fill="none" stroke="#000000" points="294.5,-690.4924 139.5,-690.4924 139.5,-654.4924 294.5,-654.4924 294.5,-690.4924"/>
<text text-anchor="middle" x="217" y="-667.4924" font-family="Times,serif" font-size="20.00" fill="#000000">Content&#45;Type</text>
</g>
<!-- SG_0_Node_2&#45;&gt;SG_0_Node_3 -->
<g id="edge5" class="edge">
<title>SG_0_Node_2&#45;&gt;SG_0_Node_3</title>
<path fill="none" stroke="#000000" d="M272.2686,-814.8368C266.3383,-803.4792 258.8096,-788.431 253,-774.7056 242.5858,-750.1018 232.6478,-721.3421 225.8624,-700.6081"/>
<polygon fill="#000000" stroke="#000000" points="229.1126,-699.2835 222.706,-690.8451 222.452,-701.4369 229.1126,-699.2835"/>
<text text-anchor="middle" x="285" y="-758.7056" font-family="Times,serif" font-size="20.00" fill="#000000">[NA]</text>
<text text-anchor="middle" x="285" y="-736.7056" font-family="Times,serif" font-size="20.00" fill="#000000">empty</text>
</g>
<!-- SG_0_Node_8 -->
<g id="node7" class="node">
<title>SG_0_Node_8</title>
<ellipse fill="none" stroke="#000000" cx="347" cy="-672.4924" rx="34.7971" ry="21.4286"/>
<text text-anchor="middle" x="347" y="-667.4924" font-family="Times,serif" font-size="20.00" fill="#000000">1.0</text>
</g>
<!-- SG_0_Node_2&#45;&gt;SG_0_Node_8 -->
<g id="edge6" class="edge">
<title>SG_0_Node_2&#45;&gt;SG_0_Node_8</title>
<path fill="none" stroke="#000000" d="M294.6141,-814.697C301.912,-803.5367 310.8413,-788.7444 317,-774.7056 327.1057,-751.6695 334.9418,-724.2572 340.0671,-703.6223"/>
<polygon fill="#000000" stroke="#000000" points="343.4945,-704.339 342.4307,-693.7978 336.6887,-702.7017 343.4945,-704.339"/>
<text text-anchor="middle" x="393" y="-747.7056" font-family="Times,serif" font-size="20.00" fill="#000000">same&#45;origin</text>
</g>
<!-- SG_0_Node_4 -->
<g id="node8" class="node">
<title>SG_0_Node_4</title>
<polygon fill="none" stroke="#000000" points="300,-442.066 38,-442.066 38,-406.066 300,-406.066 300,-442.066"/>
<text text-anchor="middle" x="169" y="-419.066" font-family="Times,serif" font-size="20.00" fill="#000000">X&#45;Content&#45;Type&#45;Options</text>
</g>
<!-- SG_0_Node_3&#45;&gt;SG_0_Node_4 -->
<g id="edge7" class="edge">
<title>SG_0_Node_3&#45;&gt;SG_0_Node_4</title>
<path fill="none" stroke="#000000" d="M203.5046,-654.373C196.0752,-643.3673 187.4768,-628.6984 183,-614.2792 165.7977,-558.8736 165.5842,-490.2114 167.1629,-452.39"/>
<polygon fill="#000000" stroke="#000000" points="170.6718,-452.2937 167.6682,-442.1336 163.6802,-451.9492 170.6718,-452.2937"/>
<text text-anchor="middle" x="294" y="-598.2792" font-family="Times,serif" font-size="20.00" fill="#000000">[NA]</text>
<text text-anchor="middle" x="294" y="-576.2792" font-family="Times,serif" font-size="20.00" fill="#000000">application/javascript</text>
<text text-anchor="middle" x="294" y="-554.2792" font-family="Times,serif" font-size="20.00" fill="#000000">application/pdf</text>
<text text-anchor="middle" x="294" y="-532.2792" font-family="Times,serif" font-size="20.00" fill="#000000">empty</text>
<text text-anchor="middle" x="294" y="-510.2792" font-family="Times,serif" font-size="20.00" fill="#000000">text/css</text>
<text text-anchor="middle" x="294" y="-488.2792" font-family="Times,serif" font-size="20.00" fill="#000000">text/html</text>
</g>
<!-- SG_0_Node_9 -->
<g id="node9" class="node">
<title>SG_0_Node_9</title>
<ellipse fill="none" stroke="#000000" cx="427" cy="-424.066" rx="34.7971" ry="21.4286"/>
<text text-anchor="middle" x="427" y="-419.066" font-family="Times,serif" font-size="20.00" fill="#000000">1.0</text>
</g>
<!-- SG_0_Node_3&#45;&gt;SG_0_Node_9 -->
<g id="edge8" class="edge">
<title>SG_0_Node_3&#45;&gt;SG_0_Node_9</title>
<path fill="none" stroke="#000000" d="M288.1798,-654.4566C338.0304,-641.1594 397.1026,-623.7929 405,-614.2792 442.3076,-569.3361 438.7668,-496.4818 432.8755,-455.2014"/>
<polygon fill="#000000" stroke="#000000" points="436.3112,-454.5177 431.3089,-445.1782 429.3951,-455.5987 436.3112,-454.5177"/>
<text text-anchor="middle" x="490.5" y="-565.2792" font-family="Times,serif" font-size="20.00" fill="#000000">audio/wav</text>
<text text-anchor="middle" x="490.5" y="-543.2792" font-family="Times,serif" font-size="20.00" fill="#000000">image/png</text>
<text text-anchor="middle" x="490.5" y="-521.2792" font-family="Times,serif" font-size="20.00" fill="#000000">video/mp4</text>
</g>
<!-- SG_0_Node_10 -->
<g id="node10" class="node">
<title>SG_0_Node_10</title>
<ellipse fill="none" stroke="#000000" cx="68" cy="-263.6396" rx="34.7971" ry="21.4286"/>
<text text-anchor="middle" x="68" y="-258.6396" font-family="Times,serif" font-size="20.00" fill="#000000">0.0</text>
</g>
<!-- SG_0_Node_4&#45;&gt;SG_0_Node_10 -->
<g id="edge9" class="edge">
<title>SG_0_Node_4&#45;&gt;SG_0_Node_10</title>
<path fill="none" stroke="#000000" d="M147.0677,-405.8259C135.2212,-395.1161 121.0143,-380.7808 111,-365.8528 96.1608,-343.7326 84.8013,-315.666 77.4948,-294.542"/>
<polygon fill="#000000" stroke="#000000" points="80.7241,-293.1622 74.236,-284.7863 74.0847,-295.38 80.7241,-293.1622"/>
<text text-anchor="middle" x="143" y="-349.8528" font-family="Times,serif" font-size="20.00" fill="#000000">[NA]</text>
<text text-anchor="middle" x="143" y="-327.8528" font-family="Times,serif" font-size="20.00" fill="#000000">empty</text>
</g>
<!-- SG_0_Node_5 -->
<g id="node11" class="node">
<title>SG_0_Node_5</title>
<polygon fill="none" stroke="#000000" points="275.5,-281.6396 120.5,-281.6396 120.5,-245.6396 275.5,-245.6396 275.5,-281.6396"/>
<text text-anchor="middle" x="198" y="-258.6396" font-family="Times,serif" font-size="20.00" fill="#000000">Content&#45;Type</text>
</g>
<!-- SG_0_Node_4&#45;&gt;SG_0_Node_5 -->
<g id="edge10" class="edge">
<title>SG_0_Node_4&#45;&gt;SG_0_Node_5</title>
<path fill="none" stroke="#000000" d="M172.2703,-405.9749C177.2961,-378.1727 186.9594,-324.7154 192.9072,-291.8126"/>
<polygon fill="#000000" stroke="#000000" points="196.3624,-292.3739 194.6972,-281.9107 189.474,-291.1286 196.3624,-292.3739"/>
<text text-anchor="middle" x="222" y="-338.8528" font-family="Times,serif" font-size="20.00" fill="#000000">nosniff</text>
</g>
<!-- SG_0_Node_11 -->
<g id="node12" class="node">
<title>SG_0_Node_11</title>
<ellipse fill="none" stroke="#000000" cx="124" cy="-37.2132" rx="34.7971" ry="21.4286"/>
<text text-anchor="middle" x="124" y="-32.2132" font-family="Times,serif" font-size="20.00" fill="#000000">0.0</text>
</g>
<!-- SG_0_Node_5&#45;&gt;SG_0_Node_11 -->
<g id="edge11" class="edge">
<title>SG_0_Node_5&#45;&gt;SG_0_Node_11</title>
<path fill="none" stroke="#000000" d="M171.8055,-245.3923C159.3232,-235.1752 145.5083,-221.302 138,-205.4264 117.2214,-161.4923 117.4892,-103.8859 120.2548,-68.76"/>
<polygon fill="#000000" stroke="#000000" points="123.7568,-68.8955 121.1728,-58.6206 116.7853,-68.2643 123.7568,-68.8955"/>
<text text-anchor="middle" x="249" y="-145.4264" font-family="Times,serif" font-size="20.00" fill="#000000">application/javascript</text>
</g>
<!-- SG_0_Node_12 -->
<g id="node13" class="node">
<title>SG_0_Node_12</title>
<ellipse fill="none" stroke="#000000" cx="382" cy="-37.2132" rx="34.7971" ry="21.4286"/>
<text text-anchor="middle" x="382" y="-32.2132" font-family="Times,serif" font-size="20.00" fill="#000000">1.0</text>
</g>
<!-- SG_0_Node_5&#45;&gt;SG_0_Node_12 -->
<g id="edge12" class="edge">
<title>SG_0_Node_5&#45;&gt;SG_0_Node_12</title>
<path fill="none" stroke="#000000" d="M270.4425,-245.5789C307.8199,-234.7633 348.0507,-220.2655 360,-205.4264 391.2713,-166.5923 390.8047,-105.5597 386.9009,-68.6697"/>
<polygon fill="#000000" stroke="#000000" points="390.3459,-68.0035 385.6716,-58.4956 383.3965,-68.8433 390.3459,-68.0035"/>
<text text-anchor="middle" x="465" y="-189.4264" font-family="Times,serif" font-size="20.00" fill="#000000">[NA]</text>
<text text-anchor="middle" x="465" y="-167.4264" font-family="Times,serif" font-size="20.00" fill="#000000">application/pdf</text>
<text text-anchor="middle" x="465" y="-145.4264" font-family="Times,serif" font-size="20.00" fill="#000000">empty</text>
<text text-anchor="middle" x="465" y="-123.4264" font-family="Times,serif" font-size="20.00" fill="#000000">text/css</text>
<text text-anchor="middle" x="465" y="-101.4264" font-family="Times,serif" font-size="20.00" fill="#000000">text/html</text>
</g>
</g>
</svg>
