<?xml version="1.0" encoding="UTF-8" standalone="no"?>
<!DOCTYPE svg PUBLIC "-//W3C//DTD SVG 1.1//EN"
 "http://www.w3.org/Graphics/SVG/1.1/DTD/svg11.dtd">
<!-- Generated by graphviz version 2.40.1 (20161225.0304)
 -->
<!-- Title: G Pages: 1 -->
<svg width="1348pt" height="1333pt"
 viewBox="0.00 0.00 1348.00 1332.56" xmlns="http://www.w3.org/2000/svg" xmlns:xlink="http://www.w3.org/1999/xlink">
<g id="graph0" class="graph" transform="scale(1 1) rotate(0) translate(4 1328.5584)">
<title>G</title>
<polygon fill="#ffffff" stroke="transparent" points="-4,4 -4,-1328.5584 1344,-1328.5584 1344,4 -4,4"/>
<g id="clust1" class="cluster">
<title>cluster_0</title>
<polygon fill="none" stroke="#000000" points="8,-8 8,-1316.5584 1332,-1316.5584 1332,-8 8,-8"/>
<text text-anchor="middle" x="670" y="-1280.5584" font-family="Times,serif" font-size="40.00" fill="#000000">Tree 0, Class [&#39;Message: mes1 Origin: https://172.17.0.1:44300&#39;]</text>
</g>
<!-- SG_0_Node_0 -->
<g id="node1" class="node">
<title>SG_0_Node_0</title>
<polygon fill="none" stroke="#000000" points="148.5,-1256.5584 83.5,-1256.5584 83.5,-1220.5584 148.5,-1220.5584 148.5,-1256.5584"/>
<text text-anchor="middle" x="116" y="-1233.5584" font-family="Times,serif" font-size="20.00" fill="#000000">body</text>
</g>
<!-- SG_0_Node_6 -->
<g id="node2" class="node">
<title>SG_0_Node_6</title>
<ellipse fill="none" stroke="#000000" cx="52" cy="-1081.3452" rx="34.7971" ry="21.4286"/>
<text text-anchor="middle" x="52" y="-1076.3452" font-family="Times,serif" font-size="20.00" fill="#000000">0.0</text>
</g>
<!-- SG_0_Node_0&#45;&gt;SG_0_Node_6 -->
<g id="edge1" class="edge">
<title>SG_0_Node_0&#45;&gt;SG_0_Node_6</title>
<path fill="none" stroke="#000000" d="M94.2079,-1220.363C83.9493,-1210.5508 72.5534,-1197.5889 66,-1183.5584 55.6725,-1161.4477 52.3724,-1133.9193 51.5448,-1113.0034"/>
<polygon fill="#000000" stroke="#000000" points="55.0378,-1112.6507 51.3133,-1102.7322 48.0396,-1112.8085 55.0378,-1112.6507"/>
<text text-anchor="middle" x="112" y="-1167.5584" font-family="Times,serif" font-size="20.00" fill="#000000">[NA]</text>
<text text-anchor="middle" x="112" y="-1145.5584" font-family="Times,serif" font-size="20.00" fill="#000000">11 levels</text>
</g>
<!-- SG_0_Node_1 -->
<g id="node3" class="node">
<title>SG_0_Node_1</title>
<polygon fill="none" stroke="#000000" points="251,-1099.3452 109,-1099.3452 109,-1063.3452 251,-1063.3452 251,-1099.3452"/>
<text text-anchor="middle" x="180" y="-1076.3452" font-family="Times,serif" font-size="20.00" fill="#000000">Status&#45;Code</text>
</g>
<!-- SG_0_Node_0&#45;&gt;SG_0_Node_1 -->
<g id="edge2" class="edge">
<title>SG_0_Node_0&#45;&gt;SG_0_Node_1</title>
<path fill="none" stroke="#000000" d="M133.4302,-1220.0669C142.0355,-1209.9839 151.8619,-1196.8688 158,-1183.5584 168.9246,-1159.8686 174.5168,-1130.5631 177.3207,-1109.4136"/>
<polygon fill="#000000" stroke="#000000" points="180.7988,-1109.8046 178.5154,-1099.4588 173.8487,-1108.9704 180.7988,-1109.8046"/>
<text text-anchor="middle" x="351" y="-1156.5584" font-family="Times,serif" font-size="20.00" fill="#000000">ecocnt_html=post_message=mes1</text>
</g>
<!-- SG_0_Node_7 -->
<g id="node4" class="node">
<title>SG_0_Node_7</title>
<ellipse fill="none" stroke="#000000" cx="51" cy="-788.9188" rx="34.7971" ry="21.4286"/>
<text text-anchor="middle" x="51" y="-783.9188" font-family="Times,serif" font-size="20.00" fill="#000000">0.0</text>
</g>
<!-- SG_0_Node_1&#45;&gt;SG_0_Node_7 -->
<g id="edge3" class="edge">
<title>SG_0_Node_1&#45;&gt;SG_0_Node_7</title>
<path fill="none" stroke="#000000" d="M132.4589,-1063.0949C114.4825,-1053.8143 95.5862,-1040.7075 84,-1023.132 42.7114,-960.5003 43.5458,-867.9877 47.4102,-820.1351"/>
<polygon fill="#000000" stroke="#000000" points="50.9048,-820.3515 48.322,-810.0763 43.9334,-819.7195 50.9048,-820.3515"/>
<text text-anchor="middle" x="130" y="-941.132" font-family="Times,serif" font-size="20.00" fill="#000000">[NA]</text>
<text text-anchor="middle" x="130" y="-919.132" font-family="Times,serif" font-size="20.00" fill="#000000">55 levels</text>
</g>
<!-- SG_0_Node_2 -->
<g id="node5" class="node">
<title>SG_0_Node_2</title>
<polygon fill="none" stroke="#000000" points="258.5,-806.9188 103.5,-806.9188 103.5,-770.9188 258.5,-770.9188 258.5,-806.9188"/>
<text text-anchor="middle" x="181" y="-783.9188" font-family="Times,serif" font-size="20.00" fill="#000000">Content&#45;Type</text>
</g>
<!-- SG_0_Node_1&#45;&gt;SG_0_Node_2 -->
<g id="edge4" class="edge">
<title>SG_0_Node_1&#45;&gt;SG_0_Node_2</title>
<path fill="none" stroke="#000000" d="M180.0626,-1063.0527C180.2316,-1013.6139 180.6986,-877.049 180.9026,-817.4074"/>
<polygon fill="#000000" stroke="#000000" points="184.4032,-817.2164 180.9375,-807.2045 177.4032,-817.1924 184.4032,-817.2164"/>
<text text-anchor="middle" x="199.5" y="-1007.132" font-family="Times,serif" font-size="20.00" fill="#000000">200</text>
<text text-anchor="middle" x="199.5" y="-985.132" font-family="Times,serif" font-size="20.00" fill="#000000">201</text>
<text text-anchor="middle" x="199.5" y="-963.132" font-family="Times,serif" font-size="20.00" fill="#000000">202</text>
<text text-anchor="middle" x="199.5" y="-941.132" font-family="Times,serif" font-size="20.00" fill="#000000">203</text>
<text text-anchor="middle" x="199.5" y="-919.132" font-family="Times,serif" font-size="20.00" fill="#000000">206</text>
<text text-anchor="middle" x="199.5" y="-897.132" font-family="Times,serif" font-size="20.00" fill="#000000">207</text>
<text text-anchor="middle" x="199.5" y="-875.132" font-family="Times,serif" font-size="20.00" fill="#000000">208</text>
<text text-anchor="middle" x="199.5" y="-853.132" font-family="Times,serif" font-size="20.00" fill="#000000">226</text>
</g>
<!-- SG_0_Node_8 -->
<g id="node6" class="node">
<title>SG_0_Node_8</title>
<ellipse fill="none" stroke="#000000" cx="116" cy="-518.4924" rx="34.7971" ry="21.4286"/>
<text text-anchor="middle" x="116" y="-513.4924" font-family="Times,serif" font-size="20.00" fill="#000000">0.0</text>
</g>
<!-- SG_0_Node_2&#45;&gt;SG_0_Node_8 -->
<g id="edge5" class="edge">
<title>SG_0_Node_2&#45;&gt;SG_0_Node_8</title>
<path fill="none" stroke="#000000" d="M159.3901,-770.726C148.5402,-760.2377 136.3754,-746.0987 130,-730.7056 105.0578,-670.4835 107.8584,-592.4012 112,-549.7306"/>
<polygon fill="#000000" stroke="#000000" points="115.492,-549.9908 113.0658,-539.6775 108.531,-549.2528 115.492,-549.9908"/>
<text text-anchor="middle" x="241" y="-714.7056" font-family="Times,serif" font-size="20.00" fill="#000000">[NA]</text>
<text text-anchor="middle" x="241" y="-692.7056" font-family="Times,serif" font-size="20.00" fill="#000000">application/javascript</text>
<text text-anchor="middle" x="241" y="-670.7056" font-family="Times,serif" font-size="20.00" fill="#000000">application/pdf</text>
<text text-anchor="middle" x="241" y="-648.7056" font-family="Times,serif" font-size="20.00" fill="#000000">audio/wav</text>
<text text-anchor="middle" x="241" y="-626.7056" font-family="Times,serif" font-size="20.00" fill="#000000">image/png</text>
<text text-anchor="middle" x="241" y="-604.7056" font-family="Times,serif" font-size="20.00" fill="#000000">text/css</text>
<text text-anchor="middle" x="241" y="-582.7056" font-family="Times,serif" font-size="20.00" fill="#000000">video/mp4</text>
</g>
<!-- SG_0_Node_3 -->
<g id="node7" class="node">
<title>SG_0_Node_3</title>
<polygon fill="none" stroke="#000000" points="469.5,-536.4924 278.5,-536.4924 278.5,-500.4924 469.5,-500.4924 469.5,-536.4924"/>
<text text-anchor="middle" x="374" y="-513.4924" font-family="Times,serif" font-size="20.00" fill="#000000">X&#45;Frame&#45;Options</text>
</g>
<!-- SG_0_Node_2&#45;&gt;SG_0_Node_3 -->
<g id="edge6" class="edge">
<title>SG_0_Node_2&#45;&gt;SG_0_Node_3</title>
<path fill="none" stroke="#000000" d="M258.5112,-771.2079C297.7372,-760.6123 339.636,-746.2163 352,-730.7056 394.552,-677.324 387.2373,-590.8133 379.8026,-546.5432"/>
<polygon fill="#000000" stroke="#000000" points="383.2098,-545.7156 377.989,-536.4965 376.3212,-546.9592 383.2098,-545.7156"/>
<text text-anchor="middle" x="432" y="-659.7056" font-family="Times,serif" font-size="20.00" fill="#000000">empty</text>
<text text-anchor="middle" x="432" y="-637.7056" font-family="Times,serif" font-size="20.00" fill="#000000">text/html</text>
</g>
<!-- SG_0_Node_9 -->
<g id="node8" class="node">
<title>SG_0_Node_9</title>
<ellipse fill="none" stroke="#000000" cx="302" cy="-358.066" rx="34.7971" ry="21.4286"/>
<text text-anchor="middle" x="302" y="-353.066" font-family="Times,serif" font-size="20.00" fill="#000000">0.0</text>
</g>
<!-- SG_0_Node_3&#45;&gt;SG_0_Node_9 -->
<g id="edge7" class="edge">
<title>SG_0_Node_3&#45;&gt;SG_0_Node_9</title>
<path fill="none" stroke="#000000" d="M365.8806,-500.4013C353.5961,-473.0296 330.1514,-420.7913 315.3367,-387.7822"/>
<polygon fill="#000000" stroke="#000000" points="318.5087,-386.3017 311.2209,-378.6115 312.1224,-389.1679 318.5087,-386.3017"/>
<text text-anchor="middle" x="371.5" y="-433.2792" font-family="Times,serif" font-size="20.00" fill="#000000">deny</text>
</g>
<!-- SG_0_Node_4 -->
<g id="node9" class="node">
<title>SG_0_Node_4</title>
<polygon fill="none" stroke="#000000" points="575.5,-376.066 354.5,-376.066 354.5,-340.066 575.5,-340.066 575.5,-376.066"/>
<text text-anchor="middle" x="465" y="-353.066" font-family="Times,serif" font-size="20.00" fill="#000000">Content&#45;Disposition</text>
</g>
<!-- SG_0_Node_3&#45;&gt;SG_0_Node_4 -->
<g id="edge8" class="edge">
<title>SG_0_Node_3&#45;&gt;SG_0_Node_4</title>
<path fill="none" stroke="#000000" d="M384.262,-500.4013C400.169,-472.3584 430.8816,-418.2143 449.5013,-385.3891"/>
<polygon fill="#000000" stroke="#000000" points="452.7463,-386.7621 454.6359,-376.3371 446.6576,-383.3084 452.7463,-386.7621"/>
<text text-anchor="middle" x="463" y="-444.2792" font-family="Times,serif" font-size="20.00" fill="#000000">[NA]</text>
<text text-anchor="middle" x="463" y="-422.2792" font-family="Times,serif" font-size="20.00" fill="#000000">empty</text>
</g>
<!-- SG_0_Node_10 -->
<g id="node10" class="node">
<title>SG_0_Node_10</title>
<ellipse fill="none" stroke="#000000" cx="366" cy="-197.6396" rx="34.7971" ry="21.4286"/>
<text text-anchor="middle" x="366" y="-192.6396" font-family="Times,serif" font-size="20.00" fill="#000000">0.0</text>
</g>
<!-- SG_0_Node_4&#45;&gt;SG_0_Node_10 -->
<g id="edge9" class="edge">
<title>SG_0_Node_4&#45;&gt;SG_0_Node_10</title>
<path fill="none" stroke="#000000" d="M444.131,-339.9509C432.6504,-329.1725 418.7918,-314.7295 409,-299.8528 394.3554,-277.6033 382.9801,-249.5472 375.6181,-228.4601"/>
<polygon fill="#000000" stroke="#000000" points="378.8456,-227.0782 372.3296,-218.7241 372.2137,-229.3183 378.8456,-227.0782"/>
<text text-anchor="middle" x="468" y="-272.8528" font-family="Times,serif" font-size="20.00" fill="#000000">attachment</text>
</g>
<!-- SG_0_Node_5 -->
<g id="node11" class="node">
<title>SG_0_Node_5</title>
<polygon fill="none" stroke="#000000" points="735.5,-215.6396 418.5,-215.6396 418.5,-179.6396 735.5,-179.6396 735.5,-215.6396"/>
<text text-anchor="middle" x="577" y="-192.6396" font-family="Times,serif" font-size="20.00" fill="#000000">Cross&#45;Origin&#45;Resource&#45;Policy</text>
</g>
<!-- SG_0_Node_4&#45;&gt;SG_0_Node_5 -->
<g id="edge10" class="edge">
<title>SG_0_Node_4&#45;&gt;SG_0_Node_5</title>
<path fill="none" stroke="#000000" d="M488.1787,-339.8562C500.7589,-329.156 515.9509,-314.82 527,-299.8528 544.1173,-276.6655 557.9636,-246.7096 566.7078,-225.2309"/>
<polygon fill="#000000" stroke="#000000" points="570.0445,-226.3108 570.471,-215.7246 563.5359,-223.7342 570.0445,-226.3108"/>
<text text-anchor="middle" x="584" y="-283.8528" font-family="Times,serif" font-size="20.00" fill="#000000">[NA]</text>
<text text-anchor="middle" x="584" y="-261.8528" font-family="Times,serif" font-size="20.00" fill="#000000">empty</text>
</g>
<!-- SG_0_Node_11 -->
<g id="node12" class="node">
<title>SG_0_Node_11</title>
<ellipse fill="none" stroke="#000000" cx="498" cy="-37.2132" rx="34.7971" ry="21.4286"/>
<text text-anchor="middle" x="498" y="-32.2132" font-family="Times,serif" font-size="20.00" fill="#000000">0.0</text>
</g>
<!-- SG_0_Node_5&#45;&gt;SG_0_Node_11 -->
<g id="edge11" class="edge">
<title>SG_0_Node_5&#45;&gt;SG_0_Node_11</title>
<path fill="none" stroke="#000000" d="M548.6772,-179.4006C535.3428,-169.2751 520.5276,-155.4807 512,-139.4264 500.4278,-117.6402 497.2551,-89.7103 496.7936,-68.5536"/>
<polygon fill="#000000" stroke="#000000" points="500.2934,-68.4624 496.7644,-58.4726 493.2935,-68.4827 500.2934,-68.4624"/>
<text text-anchor="middle" x="573" y="-112.4264" font-family="Times,serif" font-size="20.00" fill="#000000">same&#45;origin</text>
</g>
<!-- SG_0_Node_12 -->
<g id="node13" class="node">
<title>SG_0_Node_12</title>
<ellipse fill="none" stroke="#000000" cx="656" cy="-37.2132" rx="34.7971" ry="21.4286"/>
<text text-anchor="middle" x="656" y="-32.2132" font-family="Times,serif" font-size="20.00" fill="#000000">1.0</text>
</g>
<!-- SG_0_Node_5&#45;&gt;SG_0_Node_12 -->
<g id="edge12" class="edge">
<title>SG_0_Node_5&#45;&gt;SG_0_Node_12</title>
<path fill="none" stroke="#000000" d="M600.2094,-179.4897C612.0596,-169.014 625.6925,-154.8734 634,-139.4264 645.768,-117.545 651.2412,-89.8425 653.7867,-68.7988"/>
<polygon fill="#000000" stroke="#000000" points="657.277,-69.0746 654.8425,-58.7633 650.3154,-68.3422 657.277,-69.0746"/>
<text text-anchor="middle" x="681" y="-123.4264" font-family="Times,serif" font-size="20.00" fill="#000000">[NA]</text>
<text text-anchor="middle" x="681" y="-101.4264" font-family="Times,serif" font-size="20.00" fill="#000000">empty</text>
</g>
</g>
</svg>
