<?xml version="1.0" encoding="UTF-8" standalone="no"?>
<!DOCTYPE svg PUBLIC "-//W3C//DTD SVG 1.1//EN"
 "http://www.w3.org/Graphics/SVG/1.1/DTD/svg11.dtd">
<!-- Generated by graphviz version 2.40.1 (20161225.0304)
 -->
<!-- Title: G Pages: 1 -->
<svg width="1348pt" height="1763pt"
 viewBox="0.00 0.00 1348.00 1763.41" xmlns="http://www.w3.org/2000/svg" xmlns:xlink="http://www.w3.org/1999/xlink">
<g id="graph0" class="graph" transform="scale(1 1) rotate(0) translate(4 1759.4113)">
<title>G</title>
<polygon fill="#ffffff" stroke="transparent" points="-4,4 -4,-1759.4113 1344,-1759.4113 1344,4 -4,4"/>
<g id="clust1" class="cluster">
<title>cluster_0</title>
<polygon fill="none" stroke="#000000" points="8,-8 8,-1747.4113 1332,-1747.4113 1332,-8 8,-8"/>
<text text-anchor="middle" x="670" y="-1711.4113" font-family="Times,serif" font-size="40.00" fill="#000000">Tree 0, Class [&#39;Message: mes1 Origin: https://172.17.0.1:44300&#39;]</text>
</g>
<!-- SG_0_Node_0 -->
<g id="node1" class="node">
<title>SG_0_Node_0</title>
<polygon fill="none" stroke="#000000" points="326.5,-1687.4113 261.5,-1687.4113 261.5,-1651.4113 326.5,-1651.4113 326.5,-1687.4113"/>
<text text-anchor="middle" x="294" y="-1664.4113" font-family="Times,serif" font-size="20.00" fill="#000000">body</text>
</g>
<!-- SG_0_Node_13 -->
<g id="node2" class="node">
<title>SG_0_Node_13</title>
<ellipse fill="none" stroke="#000000" cx="230" cy="-1512.1981" rx="34.7971" ry="21.4286"/>
<text text-anchor="middle" x="230" y="-1507.1981" font-family="Times,serif" font-size="20.00" fill="#000000">0.0</text>
</g>
<!-- SG_0_Node_0&#45;&gt;SG_0_Node_13 -->
<g id="edge1" class="edge">
<title>SG_0_Node_0&#45;&gt;SG_0_Node_13</title>
<path fill="none" stroke="#000000" d="M272.7021,-1651.1101C262.6635,-1641.271 251.4912,-1628.3169 245,-1614.4113 234.6634,-1592.268 231.0807,-1564.7418 229.9906,-1543.8349"/>
<polygon fill="#000000" stroke="#000000" points="233.4788,-1543.4381 229.6252,-1533.5689 226.4832,-1543.6871 233.4788,-1543.4381"/>
<text text-anchor="middle" x="291" y="-1598.4113" font-family="Times,serif" font-size="20.00" fill="#000000">[NA]</text>
<text text-anchor="middle" x="291" y="-1576.4113" font-family="Times,serif" font-size="20.00" fill="#000000">11 levels</text>
</g>
<!-- SG_0_Node_1 -->
<g id="node3" class="node">
<title>SG_0_Node_1</title>
<polygon fill="none" stroke="#000000" points="437.5,-1530.1981 282.5,-1530.1981 282.5,-1494.1981 437.5,-1494.1981 437.5,-1530.1981"/>
<text text-anchor="middle" x="360" y="-1507.1981" font-family="Times,serif" font-size="20.00" fill="#000000">Content&#45;Type</text>
</g>
<!-- SG_0_Node_0&#45;&gt;SG_0_Node_1 -->
<g id="edge2" class="edge">
<title>SG_0_Node_0&#45;&gt;SG_0_Node_1</title>
<path fill="none" stroke="#000000" d="M311.8067,-1650.963C320.6064,-1640.8919 330.6689,-1627.7744 337,-1614.4113 348.1923,-1590.7874 354.0668,-1561.4737 357.0668,-1540.3044"/>
<polygon fill="#000000" stroke="#000000" points="360.5441,-1540.7047 358.3531,-1530.3389 353.6017,-1539.8086 360.5441,-1540.7047"/>
<text text-anchor="middle" x="530" y="-1587.4113" font-family="Times,serif" font-size="20.00" fill="#000000">ecocnt_html=post_message=mes1</text>
</g>
<!-- SG_0_Node_14 -->
<g id="node4" class="node">
<title>SG_0_Node_14</title>
<ellipse fill="none" stroke="#000000" cx="231" cy="-1241.7716" rx="34.7971" ry="21.4286"/>
<text text-anchor="middle" x="231" y="-1236.7716" font-family="Times,serif" font-size="20.00" fill="#000000">0.0</text>
</g>
<!-- SG_0_Node_1&#45;&gt;SG_0_Node_14 -->
<g id="edge3" class="edge">
<title>SG_0_Node_1&#45;&gt;SG_0_Node_14</title>
<path fill="none" stroke="#000000" d="M296.7751,-1494.088C276.98,-1485.2292 257.1538,-1472.3731 245,-1453.9848 208.5291,-1398.8057 216.2447,-1316.9376 224.1653,-1272.7516"/>
<polygon fill="#000000" stroke="#000000" points="227.6116,-1273.3636 226.0516,-1262.8843 220.7361,-1272.0492 227.6116,-1273.3636"/>
<text text-anchor="middle" x="356" y="-1437.9848" font-family="Times,serif" font-size="20.00" fill="#000000">[NA]</text>
<text text-anchor="middle" x="356" y="-1415.9848" font-family="Times,serif" font-size="20.00" fill="#000000">application/javascript</text>
<text text-anchor="middle" x="356" y="-1393.9848" font-family="Times,serif" font-size="20.00" fill="#000000">application/pdf</text>
<text text-anchor="middle" x="356" y="-1371.9848" font-family="Times,serif" font-size="20.00" fill="#000000">audio/wav</text>
<text text-anchor="middle" x="356" y="-1349.9848" font-family="Times,serif" font-size="20.00" fill="#000000">image/png</text>
<text text-anchor="middle" x="356" y="-1327.9848" font-family="Times,serif" font-size="20.00" fill="#000000">text/css</text>
<text text-anchor="middle" x="356" y="-1305.9848" font-family="Times,serif" font-size="20.00" fill="#000000">video/mp4</text>
</g>
<!-- SG_0_Node_2 -->
<g id="node5" class="node">
<title>SG_0_Node_2</title>
<polygon fill="none" stroke="#000000" points="638,-1259.7716 340,-1259.7716 340,-1223.7716 638,-1223.7716 638,-1259.7716"/>
<text text-anchor="middle" x="489" y="-1236.7716" font-family="Times,serif" font-size="20.00" fill="#000000">Cross&#45;Origin&#45;Opener&#45;Policy</text>
</g>
<!-- SG_0_Node_1&#45;&gt;SG_0_Node_2 -->
<g id="edge4" class="edge">
<title>SG_0_Node_1&#45;&gt;SG_0_Node_2</title>
<path fill="none" stroke="#000000" d="M416.0288,-1494.0947C435.2383,-1485.0732 454.919,-1472.1097 467,-1453.9848 504.5929,-1397.585 499.6831,-1313.3838 493.8252,-1269.9448"/>
<polygon fill="#000000" stroke="#000000" points="497.2545,-1269.2074 492.3407,-1259.821 490.3286,-1270.223 497.2545,-1269.2074"/>
<text text-anchor="middle" x="544" y="-1382.9848" font-family="Times,serif" font-size="20.00" fill="#000000">empty</text>
<text text-anchor="middle" x="544" y="-1360.9848" font-family="Times,serif" font-size="20.00" fill="#000000">text/html</text>
</g>
<!-- SG_0_Node_15 -->
<g id="node6" class="node">
<title>SG_0_Node_15</title>
<ellipse fill="none" stroke="#000000" cx="408" cy="-1081.3452" rx="34.7971" ry="21.4286"/>
<text text-anchor="middle" x="408" y="-1076.3452" font-family="Times,serif" font-size="20.00" fill="#000000">0.0</text>
</g>
<!-- SG_0_Node_2&#45;&gt;SG_0_Node_15 -->
<g id="edge5" class="edge">
<title>SG_0_Node_2&#45;&gt;SG_0_Node_15</title>
<path fill="none" stroke="#000000" d="M461.6303,-1223.5948C448.4666,-1213.3963 433.6934,-1199.5185 425,-1183.5584 413.1485,-1161.8003 409.1287,-1133.8683 407.944,-1112.7036"/>
<polygon fill="#000000" stroke="#000000" points="411.4381,-1112.4786 407.5623,-1102.6182 404.4431,-1112.7435 411.4381,-1112.4786"/>
<text text-anchor="middle" x="486" y="-1167.5584" font-family="Times,serif" font-size="20.00" fill="#000000">[NA]</text>
<text text-anchor="middle" x="486" y="-1145.5584" font-family="Times,serif" font-size="20.00" fill="#000000">same&#45;origin</text>
</g>
<!-- SG_0_Node_3 -->
<g id="node7" class="node">
<title>SG_0_Node_3</title>
<polygon fill="none" stroke="#000000" points="681.5,-1099.3452 460.5,-1099.3452 460.5,-1063.3452 681.5,-1063.3452 681.5,-1099.3452"/>
<text text-anchor="middle" x="571" y="-1076.3452" font-family="Times,serif" font-size="20.00" fill="#000000">Content&#45;Disposition</text>
</g>
<!-- SG_0_Node_2&#45;&gt;SG_0_Node_3 -->
<g id="edge6" class="edge">
<title>SG_0_Node_2&#45;&gt;SG_0_Node_3</title>
<path fill="none" stroke="#000000" d="M512.5065,-1223.6356C524.5324,-1213.164 538.4088,-1199.0228 547,-1183.5584 559.798,-1160.5218 565.7953,-1130.9054 568.5914,-1109.4881"/>
<polygon fill="#000000" stroke="#000000" points="572.0854,-1109.7409 569.7519,-1099.4062 565.1313,-1108.9404 572.0854,-1109.7409"/>
<text text-anchor="middle" x="594" y="-1156.5584" font-family="Times,serif" font-size="20.00" fill="#000000">empty</text>
</g>
<!-- SG_0_Node_16 -->
<g id="node8" class="node">
<title>SG_0_Node_16</title>
<ellipse fill="none" stroke="#000000" cx="494" cy="-920.9188" rx="34.7971" ry="21.4286"/>
<text text-anchor="middle" x="494" y="-915.9188" font-family="Times,serif" font-size="20.00" fill="#000000">0.0</text>
</g>
<!-- SG_0_Node_3&#45;&gt;SG_0_Node_16 -->
<g id="edge7" class="edge">
<title>SG_0_Node_3&#45;&gt;SG_0_Node_16</title>
<path fill="none" stroke="#000000" d="M543.8671,-1063.1841C530.8587,-1052.9898 516.3288,-1039.1109 508,-1023.132 496.5976,-1001.2564 493.412,-973.3334 492.9023,-952.202"/>
<polygon fill="#000000" stroke="#000000" points="496.402,-952.1154 492.8464,-942.1351 489.4021,-952.1544 496.402,-952.1154"/>
<text text-anchor="middle" x="567" y="-1007.132" font-family="Times,serif" font-size="20.00" fill="#000000">[NA]</text>
<text text-anchor="middle" x="567" y="-985.132" font-family="Times,serif" font-size="20.00" fill="#000000">attachment</text>
</g>
<!-- SG_0_Node_4 -->
<g id="node9" class="node">
<title>SG_0_Node_4</title>
<polygon fill="none" stroke="#000000" points="719,-938.9188 577,-938.9188 577,-902.9188 719,-902.9188 719,-938.9188"/>
<text text-anchor="middle" x="648" y="-915.9188" font-family="Times,serif" font-size="20.00" fill="#000000">Status&#45;Code</text>
</g>
<!-- SG_0_Node_3&#45;&gt;SG_0_Node_4 -->
<g id="edge8" class="edge">
<title>SG_0_Node_3&#45;&gt;SG_0_Node_4</title>
<path fill="none" stroke="#000000" d="M593.1074,-1063.2971C604.6021,-1052.751 617.9049,-1038.5114 626,-1023.132 638.1509,-1000.0472 643.5925,-970.6674 646.0284,-949.3363"/>
<polygon fill="#000000" stroke="#000000" points="649.5214,-949.5792 647.0236,-939.2831 642.5555,-948.8896 649.5214,-949.5792"/>
<text text-anchor="middle" x="672" y="-996.132" font-family="Times,serif" font-size="20.00" fill="#000000">empty</text>
</g>
<!-- SG_0_Node_5 -->
<g id="node10" class="node">
<title>SG_0_Node_5</title>
<polygon fill="none" stroke="#000000" points="606,-781.7056 464,-781.7056 464,-745.7056 606,-745.7056 606,-781.7056"/>
<text text-anchor="middle" x="535" y="-758.7056" font-family="Times,serif" font-size="20.00" fill="#000000">Status&#45;Code</text>
</g>
<!-- SG_0_Node_4&#45;&gt;SG_0_Node_5 -->
<g id="edge9" class="edge">
<title>SG_0_Node_4&#45;&gt;SG_0_Node_5</title>
<path fill="none" stroke="#000000" d="M635.0375,-902.8845C615.2193,-875.3122 577.2679,-822.5115 554.2333,-790.4643"/>
<polygon fill="#000000" stroke="#000000" points="556.838,-788.0912 548.1594,-782.0139 551.1539,-792.1768 556.838,-788.0912"/>
<text text-anchor="middle" x="651" y="-835.7056" font-family="Times,serif" font-size="20.00" fill="#000000">13 levels</text>
</g>
<!-- SG_0_Node_6 -->
<g id="node11" class="node">
<title>SG_0_Node_6</title>
<polygon fill="none" stroke="#000000" points="893,-781.7056 631,-781.7056 631,-745.7056 893,-745.7056 893,-781.7056"/>
<text text-anchor="middle" x="762" y="-758.7056" font-family="Times,serif" font-size="20.00" fill="#000000">X&#45;Content&#45;Type&#45;Options</text>
</g>
<!-- SG_0_Node_4&#45;&gt;SG_0_Node_6 -->
<g id="edge10" class="edge">
<title>SG_0_Node_4&#45;&gt;SG_0_Node_6</title>
<path fill="none" stroke="#000000" d="M666.1118,-902.81C676.8121,-891.6898 690.3124,-876.8999 701,-862.7056 718.4808,-839.4893 735.5903,-811.079 747.2187,-790.6571"/>
<polygon fill="#000000" stroke="#000000" points="750.302,-792.3146 752.1574,-781.8835 744.202,-788.8809 750.302,-792.3146"/>
<text text-anchor="middle" x="775" y="-846.7056" font-family="Times,serif" font-size="20.00" fill="#000000">[NA]</text>
<text text-anchor="middle" x="775" y="-824.7056" font-family="Times,serif" font-size="20.00" fill="#000000">50 levels</text>
</g>
<!-- SG_0_Node_17 -->
<g id="node12" class="node">
<title>SG_0_Node_17</title>
<ellipse fill="none" stroke="#000000" cx="430" cy="-496.4924" rx="34.7971" ry="21.4286"/>
<text text-anchor="middle" x="430" y="-491.4924" font-family="Times,serif" font-size="20.00" fill="#000000">0.0</text>
</g>
<!-- SG_0_Node_5&#45;&gt;SG_0_Node_17 -->
<g id="edge17" class="edge">
<title>SG_0_Node_5&#45;&gt;SG_0_Node_17</title>
<path fill="none" stroke="#000000" d="M517.9632,-745.5835C509.1618,-735.4007 498.8588,-722.0787 492,-708.7056 461.0767,-648.4127 443.3187,-570.3572 435.274,-527.7101"/>
<polygon fill="#000000" stroke="#000000" points="438.6785,-526.8698 433.4359,-517.6629 431.7927,-528.1295 438.6785,-526.8698"/>
<text text-anchor="middle" x="511.5" y="-692.7056" font-family="Times,serif" font-size="20.00" fill="#000000">100</text>
<text text-anchor="middle" x="511.5" y="-670.7056" font-family="Times,serif" font-size="20.00" fill="#000000">101</text>
<text text-anchor="middle" x="511.5" y="-648.7056" font-family="Times,serif" font-size="20.00" fill="#000000">102</text>
<text text-anchor="middle" x="511.5" y="-626.7056" font-family="Times,serif" font-size="20.00" fill="#000000">103</text>
<text text-anchor="middle" x="511.5" y="-604.7056" font-family="Times,serif" font-size="20.00" fill="#000000">204</text>
<text text-anchor="middle" x="511.5" y="-582.7056" font-family="Times,serif" font-size="20.00" fill="#000000">205</text>
<text text-anchor="middle" x="511.5" y="-560.7056" font-family="Times,serif" font-size="20.00" fill="#000000">304</text>
</g>
<!-- SG_0_Node_7 -->
<g id="node13" class="node">
<title>SG_0_Node_7</title>
<polygon fill="none" stroke="#000000" points="587.5,-514.4924 482.5,-514.4924 482.5,-478.4924 587.5,-478.4924 587.5,-514.4924"/>
<text text-anchor="middle" x="535" y="-491.4924" font-family="Times,serif" font-size="20.00" fill="#000000">Location</text>
</g>
<!-- SG_0_Node_5&#45;&gt;SG_0_Node_7 -->
<g id="edge18" class="edge">
<title>SG_0_Node_5&#45;&gt;SG_0_Node_7</title>
<path fill="none" stroke="#000000" d="M535,-745.339C535,-699.4638 535,-579.6173 535,-524.7089"/>
<polygon fill="#000000" stroke="#000000" points="538.5001,-524.6342 535,-514.6343 531.5001,-524.6343 538.5001,-524.6342"/>
<text text-anchor="middle" x="554.5" y="-681.7056" font-family="Times,serif" font-size="20.00" fill="#000000">300</text>
<text text-anchor="middle" x="554.5" y="-659.7056" font-family="Times,serif" font-size="20.00" fill="#000000">301</text>
<text text-anchor="middle" x="554.5" y="-637.7056" font-family="Times,serif" font-size="20.00" fill="#000000">302</text>
<text text-anchor="middle" x="554.5" y="-615.7056" font-family="Times,serif" font-size="20.00" fill="#000000">303</text>
<text text-anchor="middle" x="554.5" y="-593.7056" font-family="Times,serif" font-size="20.00" fill="#000000">307</text>
<text text-anchor="middle" x="554.5" y="-571.7056" font-family="Times,serif" font-size="20.00" fill="#000000">308</text>
</g>
<!-- SG_0_Node_8 -->
<g id="node14" class="node">
<title>SG_0_Node_8</title>
<polygon fill="none" stroke="#000000" points="839.5,-514.4924 684.5,-514.4924 684.5,-478.4924 839.5,-478.4924 839.5,-514.4924"/>
<text text-anchor="middle" x="762" y="-491.4924" font-family="Times,serif" font-size="20.00" fill="#000000">Content&#45;Type</text>
</g>
<!-- SG_0_Node_6&#45;&gt;SG_0_Node_8 -->
<g id="edge11" class="edge">
<title>SG_0_Node_6&#45;&gt;SG_0_Node_8</title>
<path fill="none" stroke="#000000" d="M762,-745.339C762,-699.4638 762,-579.6173 762,-524.7089"/>
<polygon fill="#000000" stroke="#000000" points="765.5001,-524.6342 762,-514.6343 758.5001,-524.6343 765.5001,-524.6342"/>
<text text-anchor="middle" x="797" y="-626.7056" font-family="Times,serif" font-size="20.00" fill="#000000">nosniff</text>
</g>
<!-- SG_0_Node_9 -->
<g id="node15" class="node">
<title>SG_0_Node_9</title>
<polygon fill="none" stroke="#000000" points="1004,-514.4924 862,-514.4924 862,-478.4924 1004,-478.4924 1004,-514.4924"/>
<text text-anchor="middle" x="933" y="-491.4924" font-family="Times,serif" font-size="20.00" fill="#000000">Status&#45;Code</text>
</g>
<!-- SG_0_Node_6&#45;&gt;SG_0_Node_9 -->
<g id="edge12" class="edge">
<title>SG_0_Node_6&#45;&gt;SG_0_Node_9</title>
<path fill="none" stroke="#000000" d="M793.34,-745.5474C807.7519,-736.0056 824.2211,-723.2661 836,-708.7056 882.6029,-651.0975 912.1308,-567.47 925.1919,-524.4175"/>
<polygon fill="#000000" stroke="#000000" points="928.6058,-525.2151 928.0871,-514.633 921.8935,-523.2289 928.6058,-525.2151"/>
<text text-anchor="middle" x="946" y="-637.7056" font-family="Times,serif" font-size="20.00" fill="#000000">[NA]</text>
<text text-anchor="middle" x="946" y="-615.7056" font-family="Times,serif" font-size="20.00" fill="#000000">empty</text>
</g>
<!-- SG_0_Node_18 -->
<g id="node16" class="node">
<title>SG_0_Node_18</title>
<ellipse fill="none" stroke="#000000" cx="269" cy="-336.066" rx="34.7971" ry="21.4286"/>
<text text-anchor="middle" x="269" y="-331.066" font-family="Times,serif" font-size="20.00" fill="#000000">0.0</text>
</g>
<!-- SG_0_Node_7&#45;&gt;SG_0_Node_18 -->
<g id="edge19" class="edge">
<title>SG_0_Node_7&#45;&gt;SG_0_Node_18</title>
<path fill="none" stroke="#000000" d="M484.9026,-478.4732C481.2304,-477.3363 477.5684,-476.2577 474,-475.2792 394.3948,-453.4517 350.9701,-496.037 292,-438.2792 273.4905,-420.1502 268.4581,-390.551 267.6357,-367.8585"/>
<polygon fill="#000000" stroke="#000000" points="271.1335,-367.631 267.5249,-357.6697 264.1339,-367.7072 271.1335,-367.631"/>
<text text-anchor="middle" x="407" y="-411.2792" font-family="Times,serif" font-size="20.00" fill="#000000">http://172.17.0.1:8000</text>
</g>
<!-- SG_0_Node_10 -->
<g id="node17" class="node">
<title>SG_0_Node_10</title>
<polygon fill="none" stroke="#000000" points="653,-354.066 391,-354.066 391,-318.066 653,-318.066 653,-354.066"/>
<text text-anchor="middle" x="522" y="-331.066" font-family="Times,serif" font-size="20.00" fill="#000000">X&#45;Content&#45;Type&#45;Options</text>
</g>
<!-- SG_0_Node_7&#45;&gt;SG_0_Node_10 -->
<g id="edge20" class="edge">
<title>SG_0_Node_7&#45;&gt;SG_0_Node_10</title>
<path fill="none" stroke="#000000" d="M533.534,-478.4013C531.2908,-450.7194 526.9867,-397.6042 524.3177,-364.6675"/>
<polygon fill="#000000" stroke="#000000" points="527.7769,-364.0218 523.4806,-354.3371 520.7998,-364.5872 527.7769,-364.0218"/>
<text text-anchor="middle" x="562" y="-422.2792" font-family="Times,serif" font-size="20.00" fill="#000000">[NA]</text>
<text text-anchor="middle" x="562" y="-400.2792" font-family="Times,serif" font-size="20.00" fill="#000000">empty</text>
</g>
<!-- SG_0_Node_19 -->
<g id="node18" class="node">
<title>SG_0_Node_19</title>
<ellipse fill="none" stroke="#000000" cx="706" cy="-336.066" rx="34.7971" ry="21.4286"/>
<text text-anchor="middle" x="706" y="-331.066" font-family="Times,serif" font-size="20.00" fill="#000000">0.0</text>
</g>
<!-- SG_0_Node_8&#45;&gt;SG_0_Node_19 -->
<g id="edge15" class="edge">
<title>SG_0_Node_8&#45;&gt;SG_0_Node_19</title>
<path fill="none" stroke="#000000" d="M739.0472,-478.3028C727.7783,-467.9139 715.2973,-453.8665 709,-438.2792 699.9394,-415.8519 699.6736,-388.344 701.4075,-367.5164"/>
<polygon fill="#000000" stroke="#000000" points="704.9171,-367.6022 702.4605,-357.2961 697.9539,-366.8847 704.9171,-367.6022"/>
<text text-anchor="middle" x="741" y="-411.2792" font-family="Times,serif" font-size="20.00" fill="#000000">empty</text>
</g>
<!-- SG_0_Node_20 -->
<g id="node19" class="node">
<title>SG_0_Node_20</title>
<ellipse fill="none" stroke="#000000" cx="803" cy="-336.066" rx="34.7971" ry="21.4286"/>
<text text-anchor="middle" x="803" y="-331.066" font-family="Times,serif" font-size="20.00" fill="#000000">1.0</text>
</g>
<!-- SG_0_Node_8&#45;&gt;SG_0_Node_20 -->
<g id="edge16" class="edge">
<title>SG_0_Node_8&#45;&gt;SG_0_Node_20</title>
<path fill="none" stroke="#000000" d="M766.6235,-478.4013C773.521,-451.4125 786.5972,-400.2477 795.0486,-367.1784"/>
<polygon fill="#000000" stroke="#000000" points="798.5313,-367.6863 797.6164,-357.1311 791.7492,-365.953 798.5313,-367.6863"/>
<text text-anchor="middle" x="834" y="-411.2792" font-family="Times,serif" font-size="20.00" fill="#000000">text/html</text>
</g>
<!-- SG_0_Node_21 -->
<g id="node20" class="node">
<title>SG_0_Node_21</title>
<ellipse fill="none" stroke="#000000" cx="920" cy="-336.066" rx="52.1524" ry="21.4286"/>
<text text-anchor="middle" x="920" y="-331.066" font-family="Times,serif" font-size="20.00" fill="#000000">0.938</text>
</g>
<!-- SG_0_Node_9&#45;&gt;SG_0_Node_21 -->
<g id="edge13" class="edge">
<title>SG_0_Node_9&#45;&gt;SG_0_Node_21</title>
<path fill="none" stroke="#000000" d="M931.534,-478.4013C929.353,-451.4864 925.2236,-400.5279 922.5432,-367.4506"/>
<polygon fill="#000000" stroke="#000000" points="926.0245,-367.0773 921.7282,-357.3927 919.0474,-367.6428 926.0245,-367.0773"/>
<text text-anchor="middle" x="947.5" y="-411.2792" font-family="Times,serif" font-size="20.00" fill="#000000">501</text>
</g>
<!-- SG_0_Node_22 -->
<g id="node21" class="node">
<title>SG_0_Node_22</title>
<ellipse fill="none" stroke="#000000" cx="1025" cy="-336.066" rx="34.7971" ry="21.4286"/>
<text text-anchor="middle" x="1025" y="-331.066" font-family="Times,serif" font-size="20.00" fill="#000000">1.0</text>
</g>
<!-- SG_0_Node_9&#45;&gt;SG_0_Node_22 -->
<g id="edge14" class="edge">
<title>SG_0_Node_9&#45;&gt;SG_0_Node_22</title>
<path fill="none" stroke="#000000" d="M945.4199,-478.4123C953.0659,-467.0553 962.9163,-452.0072 971,-438.2792 985.066,-414.3919 999.6736,-386.5256 1010.1435,-365.928"/>
<polygon fill="#000000" stroke="#000000" points="1013.4032,-367.2374 1014.788,-356.7334 1007.1551,-364.0813 1013.4032,-367.2374"/>
<text text-anchor="middle" x="1040" y="-422.2792" font-family="Times,serif" font-size="20.00" fill="#000000">[NA]</text>
<text text-anchor="middle" x="1040" y="-400.2792" font-family="Times,serif" font-size="20.00" fill="#000000">49 levels</text>
</g>
<!-- SG_0_Node_12 -->
<g id="node22" class="node">
<title>SG_0_Node_12</title>
<polygon fill="none" stroke="#000000" points="537.5,-193.6396 382.5,-193.6396 382.5,-157.6396 537.5,-157.6396 537.5,-193.6396"/>
<text text-anchor="middle" x="460" y="-170.6396" font-family="Times,serif" font-size="20.00" fill="#000000">Content&#45;Type</text>
</g>
<!-- SG_0_Node_10&#45;&gt;SG_0_Node_12 -->
<g id="edge21" class="edge">
<title>SG_0_Node_10&#45;&gt;SG_0_Node_12</title>
<path fill="none" stroke="#000000" d="M508.8089,-317.9755C501.2257,-306.8617 492.0365,-292.0723 486,-277.8528 475.7779,-253.7739 468.8676,-224.7376 464.7563,-203.7758"/>
<polygon fill="#000000" stroke="#000000" points="468.1891,-203.0915 462.9097,-193.9057 461.3085,-204.3788 468.1891,-203.0915"/>
<text text-anchor="middle" x="521" y="-250.8528" font-family="Times,serif" font-size="20.00" fill="#000000">nosniff</text>
</g>
<!-- SG_0_Node_23 -->
<g id="node23" class="node">
<title>SG_0_Node_23</title>
<ellipse fill="none" stroke="#000000" cx="590" cy="-175.6396" rx="34.7971" ry="21.4286"/>
<text text-anchor="middle" x="590" y="-170.6396" font-family="Times,serif" font-size="20.00" fill="#000000">1.0</text>
</g>
<!-- SG_0_Node_10&#45;&gt;SG_0_Node_23 -->
<g id="edge22" class="edge">
<title>SG_0_Node_10&#45;&gt;SG_0_Node_23</title>
<path fill="none" stroke="#000000" d="M533.882,-317.974C540.925,-306.738 549.68,-291.8219 556,-277.8528 566.4854,-254.6769 575.4269,-227.2734 581.5051,-206.6775"/>
<polygon fill="#000000" stroke="#000000" points="584.924,-207.453 584.3342,-196.8746 578.1985,-205.5119 584.924,-207.453"/>
<text text-anchor="middle" x="604" y="-261.8528" font-family="Times,serif" font-size="20.00" fill="#000000">[NA]</text>
<text text-anchor="middle" x="604" y="-239.8528" font-family="Times,serif" font-size="20.00" fill="#000000">empty</text>
</g>
<!-- SG_0_Node_24 -->
<g id="node24" class="node">
<title>SG_0_Node_24</title>
<ellipse fill="none" stroke="#000000" cx="410" cy="-37.2132" rx="34.7971" ry="21.4286"/>
<text text-anchor="middle" x="410" y="-32.2132" font-family="Times,serif" font-size="20.00" fill="#000000">0.0</text>
</g>
<!-- SG_0_Node_12&#45;&gt;SG_0_Node_24 -->
<g id="edge23" class="edge">
<title>SG_0_Node_12&#45;&gt;SG_0_Node_24</title>
<path fill="none" stroke="#000000" d="M446.2331,-157.453C438.5462,-146.4243 429.4476,-131.7547 424,-117.4264 418.1382,-102.0088 414.7115,-83.9821 412.7178,-68.9275"/>
<polygon fill="#000000" stroke="#000000" points="416.1444,-68.0956 411.5051,-58.5705 409.1919,-68.9097 416.1444,-68.0956"/>
<text text-anchor="middle" x="456" y="-101.4264" font-family="Times,serif" font-size="20.00" fill="#000000">empty</text>
</g>
<!-- SG_0_Node_25 -->
<g id="node25" class="node">
<title>SG_0_Node_25</title>
<ellipse fill="none" stroke="#000000" cx="510" cy="-37.2132" rx="34.7971" ry="21.4286"/>
<text text-anchor="middle" x="510" y="-32.2132" font-family="Times,serif" font-size="20.00" fill="#000000">1.0</text>
</g>
<!-- SG_0_Node_12&#45;&gt;SG_0_Node_25 -->
<g id="edge24" class="edge">
<title>SG_0_Node_12&#45;&gt;SG_0_Node_25</title>
<path fill="none" stroke="#000000" d="M469.8258,-157.3979C475.6407,-146.1073 482.8521,-131.1863 488,-117.4264 493.9612,-101.4927 499.0951,-83.2363 502.9005,-68.1696"/>
<polygon fill="#000000" stroke="#000000" points="506.3343,-68.862 505.3166,-58.3161 499.5357,-67.1949 506.3343,-68.862"/>
<text text-anchor="middle" x="542" y="-101.4264" font-family="Times,serif" font-size="20.00" fill="#000000">text/html</text>
</g>
</g>
</svg>
