<?xml version="1.0" encoding="UTF-8" standalone="no"?>
<!DOCTYPE svg PUBLIC "-//W3C//DTD SVG 1.1//EN"
 "http://www.w3.org/Graphics/SVG/1.1/DTD/svg11.dtd">
<!-- Generated by graphviz version 2.40.1 (20161225.0304)
 -->
<!-- Title: G Pages: 1 -->
<svg width="2239pt" height="939pt"
 viewBox="0.00 0.00 2239.00 939.28" xmlns="http://www.w3.org/2000/svg" xmlns:xlink="http://www.w3.org/1999/xlink">
<g id="graph0" class="graph" transform="scale(1 1) rotate(0) translate(4 935.2792)">
<title>G</title>
<polygon fill="#ffffff" stroke="transparent" points="-4,4 -4,-935.2792 2235,-935.2792 2235,4 -4,4"/>
<g id="clust1" class="cluster">
<title>cluster_0</title>
<polygon fill="none" stroke="#000000" points="8,-8 8,-923.2792 439,-923.2792 439,-8 8,-8"/>
<text text-anchor="middle" x="223.5" y="-887.2792" font-family="Times,serif" font-size="40.00" fill="#000000">Tree 0, Class 1</text>
</g>
<g id="clust6" class="cluster">
<title>cluster_1</title>
<polygon fill="none" stroke="#000000" points="447,-8 447,-923.2792 1100,-923.2792 1100,-8 447,-8"/>
<text text-anchor="middle" x="773.5" y="-887.2792" font-family="Times,serif" font-size="40.00" fill="#000000">Tree 0, Class 2</text>
</g>
<g id="clust11" class="cluster">
<title>cluster_2</title>
<polygon fill="none" stroke="#000000" points="1108,-8 1108,-923.2792 2215,-923.2792 2215,-8 1108,-8"/>
<text text-anchor="middle" x="1661.5" y="-887.2792" font-family="Times,serif" font-size="40.00" fill="#000000">Tree 0, Class js&#45;NaN</text>
</g>
<!-- SG_0_Node_0 -->
<g id="node1" class="node">
<title>SG_0_Node_0</title>
<polygon fill="none" stroke="#000000" points="137.5,-863.2792 72.5,-863.2792 72.5,-827.2792 137.5,-827.2792 137.5,-863.2792"/>
<text text-anchor="middle" x="105" y="-840.2792" font-family="Times,serif" font-size="20.00" fill="#000000">body</text>
</g>
<!-- SG_0_Node_3 -->
<g id="node2" class="node">
<title>SG_0_Node_3</title>
<ellipse fill="none" stroke="#000000" cx="51" cy="-556.066" rx="34.7971" ry="21.4286"/>
<text text-anchor="middle" x="51" y="-551.066" font-family="Times,serif" font-size="20.00" fill="#000000">0.0</text>
</g>
<!-- SG_0_Node_0&#45;&gt;SG_0_Node_3 -->
<g id="edge1" class="edge">
<title>SG_0_Node_0&#45;&gt;SG_0_Node_3</title>
<path fill="none" stroke="#000000" d="M78.0988,-827.0967C66.5238,-817.6308 54.2358,-804.9616 48,-790.2792 19.2415,-722.5663 32.6268,-633.5922 42.9538,-587.2213"/>
<polygon fill="#000000" stroke="#000000" points="46.4303,-587.7241 45.2901,-577.1908 39.6128,-586.1362 46.4303,-587.7241"/>
<text text-anchor="middle" x="94" y="-708.2792" font-family="Times,serif" font-size="20.00" fill="#000000">[NA]</text>
<text text-anchor="middle" x="94" y="-686.2792" font-family="Times,serif" font-size="20.00" fill="#000000">11 levels</text>
</g>
<!-- SG_0_Node_1 -->
<g id="node3" class="node">
<title>SG_0_Node_1</title>
<polygon fill="none" stroke="#000000" points="246,-574.066 104,-574.066 104,-538.066 246,-538.066 246,-574.066"/>
<text text-anchor="middle" x="175" y="-551.066" font-family="Times,serif" font-size="20.00" fill="#000000">Status&#45;Code</text>
</g>
<!-- SG_0_Node_0&#45;&gt;SG_0_Node_1 -->
<g id="edge2" class="edge">
<title>SG_0_Node_0&#45;&gt;SG_0_Node_1</title>
<path fill="none" stroke="#000000" d="M119.4026,-826.9766C126.7233,-816.741 135.0884,-803.4261 140,-790.2792 166.4517,-719.4751 172.9618,-629.5775 174.5301,-584.5243"/>
<polygon fill="#000000" stroke="#000000" points="178.0343,-584.4278 174.8257,-574.3305 171.0372,-584.2248 178.0343,-584.4278"/>
<text text-anchor="middle" x="306.5" y="-697.2792" font-family="Times,serif" font-size="20.00" fill="#000000">ecocnt_audio=duration=1</text>
</g>
<!-- SG_0_Node_4 -->
<g id="node4" class="node">
<title>SG_0_Node_4</title>
<ellipse fill="none" stroke="#000000" cx="56" cy="-197.6396" rx="34.7971" ry="21.4286"/>
<text text-anchor="middle" x="56" y="-192.6396" font-family="Times,serif" font-size="20.00" fill="#000000">0.0</text>
</g>
<!-- SG_0_Node_1&#45;&gt;SG_0_Node_4 -->
<g id="edge3" class="edge">
<title>SG_0_Node_1&#45;&gt;SG_0_Node_4</title>
<path fill="none" stroke="#000000" d="M136.7146,-537.9787C120.5757,-528.357 103.1993,-514.9438 93,-497.8528 41.5712,-411.6733 46.3072,-286.8608 52.013,-229.12"/>
<polygon fill="#000000" stroke="#000000" points="55.4967,-229.4582 53.0764,-219.1436 48.5362,-228.7162 55.4967,-229.4582"/>
<text text-anchor="middle" x="139" y="-382.8528" font-family="Times,serif" font-size="20.00" fill="#000000">[NA]</text>
<text text-anchor="middle" x="139" y="-360.8528" font-family="Times,serif" font-size="20.00" fill="#000000">55 levels</text>
</g>
<!-- SG_0_Node_2 -->
<g id="node5" class="node">
<title>SG_0_Node_2</title>
<polygon fill="none" stroke="#000000" points="425.5,-215.6396 108.5,-215.6396 108.5,-179.6396 425.5,-179.6396 425.5,-215.6396"/>
<text text-anchor="middle" x="267" y="-192.6396" font-family="Times,serif" font-size="20.00" fill="#000000">Cross&#45;Origin&#45;Resource&#45;Policy</text>
</g>
<!-- SG_0_Node_1&#45;&gt;SG_0_Node_2 -->
<g id="edge4" class="edge">
<title>SG_0_Node_1&#45;&gt;SG_0_Node_2</title>
<path fill="none" stroke="#000000" d="M179.6888,-537.7988C194.7,-479.3159 241.6486,-296.4073 259.7666,-225.8206"/>
<polygon fill="#000000" stroke="#000000" points="263.2245,-226.4262 262.3207,-215.87 256.4443,-224.6858 263.2245,-226.4262"/>
<text text-anchor="middle" x="271.5" y="-448.8528" font-family="Times,serif" font-size="20.00" fill="#000000">200</text>
<text text-anchor="middle" x="271.5" y="-426.8528" font-family="Times,serif" font-size="20.00" fill="#000000">201</text>
<text text-anchor="middle" x="271.5" y="-404.8528" font-family="Times,serif" font-size="20.00" fill="#000000">202</text>
<text text-anchor="middle" x="271.5" y="-382.8528" font-family="Times,serif" font-size="20.00" fill="#000000">203</text>
<text text-anchor="middle" x="271.5" y="-360.8528" font-family="Times,serif" font-size="20.00" fill="#000000">206</text>
<text text-anchor="middle" x="271.5" y="-338.8528" font-family="Times,serif" font-size="20.00" fill="#000000">207</text>
<text text-anchor="middle" x="271.5" y="-316.8528" font-family="Times,serif" font-size="20.00" fill="#000000">208</text>
<text text-anchor="middle" x="271.5" y="-294.8528" font-family="Times,serif" font-size="20.00" fill="#000000">226</text>
</g>
<!-- SG_0_Node_5 -->
<g id="node6" class="node">
<title>SG_0_Node_5</title>
<ellipse fill="none" stroke="#000000" cx="159" cy="-37.2132" rx="34.7971" ry="21.4286"/>
<text text-anchor="middle" x="159" y="-32.2132" font-family="Times,serif" font-size="20.00" fill="#000000">0.0</text>
</g>
<!-- SG_0_Node_2&#45;&gt;SG_0_Node_5 -->
<g id="edge5" class="edge">
<title>SG_0_Node_2&#45;&gt;SG_0_Node_5</title>
<path fill="none" stroke="#000000" d="M207.7274,-179.5089C188.7866,-170.5987 169.9186,-157.7154 159,-139.4264 146.3362,-118.2142 147.4461,-89.8445 151.0941,-68.3754"/>
<polygon fill="#000000" stroke="#000000" points="154.5502,-68.9386 153.0396,-58.452 147.681,-67.5918 154.5502,-68.9386"/>
<text text-anchor="middle" x="220" y="-112.4264" font-family="Times,serif" font-size="20.00" fill="#000000">same&#45;origin</text>
</g>
<!-- SG_0_Node_6 -->
<g id="node7" class="node">
<title>SG_0_Node_6</title>
<ellipse fill="none" stroke="#000000" cx="317" cy="-37.2132" rx="34.7971" ry="21.4286"/>
<text text-anchor="middle" x="317" y="-32.2132" font-family="Times,serif" font-size="20.00" fill="#000000">1.0</text>
</g>
<!-- SG_0_Node_2&#45;&gt;SG_0_Node_6 -->
<g id="edge6" class="edge">
<title>SG_0_Node_2&#45;&gt;SG_0_Node_6</title>
<path fill="none" stroke="#000000" d="M272.6384,-179.5485C281.0865,-152.4428 297.1347,-100.9515 307.4368,-67.8972"/>
<polygon fill="#000000" stroke="#000000" points="310.8005,-68.8668 310.4347,-58.2782 304.1176,-66.7838 310.8005,-68.8668"/>
<text text-anchor="middle" x="330" y="-123.4264" font-family="Times,serif" font-size="20.00" fill="#000000">[NA]</text>
<text text-anchor="middle" x="330" y="-101.4264" font-family="Times,serif" font-size="20.00" fill="#000000">empty</text>
</g>
<!-- SG_1_Node_0 -->
<g id="node8" class="node">
<title>SG_1_Node_0</title>
<polygon fill="none" stroke="#000000" points="576.5,-863.2792 511.5,-863.2792 511.5,-827.2792 576.5,-827.2792 576.5,-863.2792"/>
<text text-anchor="middle" x="544" y="-840.2792" font-family="Times,serif" font-size="20.00" fill="#000000">body</text>
</g>
<!-- SG_1_Node_3 -->
<g id="node9" class="node">
<title>SG_1_Node_3</title>
<ellipse fill="none" stroke="#000000" cx="490" cy="-556.066" rx="34.7971" ry="21.4286"/>
<text text-anchor="middle" x="490" y="-551.066" font-family="Times,serif" font-size="20.00" fill="#000000">0.0</text>
</g>
<!-- SG_1_Node_0&#45;&gt;SG_1_Node_3 -->
<g id="edge7" class="edge">
<title>SG_1_Node_0&#45;&gt;SG_1_Node_3</title>
<path fill="none" stroke="#000000" d="M517.0988,-827.0967C505.5238,-817.6308 493.2358,-804.9616 487,-790.2792 458.2415,-722.5663 471.6268,-633.5922 481.9538,-587.2213"/>
<polygon fill="#000000" stroke="#000000" points="485.4303,-587.7241 484.2901,-577.1908 478.6128,-586.1362 485.4303,-587.7241"/>
<text text-anchor="middle" x="533" y="-708.2792" font-family="Times,serif" font-size="20.00" fill="#000000">[NA]</text>
<text text-anchor="middle" x="533" y="-686.2792" font-family="Times,serif" font-size="20.00" fill="#000000">11 levels</text>
</g>
<!-- SG_1_Node_1 -->
<g id="node10" class="node">
<title>SG_1_Node_1</title>
<polygon fill="none" stroke="#000000" points="685,-574.066 543,-574.066 543,-538.066 685,-538.066 685,-574.066"/>
<text text-anchor="middle" x="614" y="-551.066" font-family="Times,serif" font-size="20.00" fill="#000000">Status&#45;Code</text>
</g>
<!-- SG_1_Node_0&#45;&gt;SG_1_Node_1 -->
<g id="edge8" class="edge">
<title>SG_1_Node_0&#45;&gt;SG_1_Node_1</title>
<path fill="none" stroke="#000000" d="M558.4026,-826.9766C565.7233,-816.741 574.0884,-803.4261 579,-790.2792 605.4517,-719.4751 611.9618,-629.5775 613.5301,-584.5243"/>
<polygon fill="#000000" stroke="#000000" points="617.0343,-584.4278 613.8257,-574.3305 610.0372,-584.2248 617.0343,-584.4278"/>
<text text-anchor="middle" x="856.5" y="-697.2792" font-family="Times,serif" font-size="20.00" fill="#000000">ecocnt_vid=width=100,height=100,duration=2</text>
</g>
<!-- SG_1_Node_4 -->
<g id="node11" class="node">
<title>SG_1_Node_4</title>
<ellipse fill="none" stroke="#000000" cx="552" cy="-197.6396" rx="34.7971" ry="21.4286"/>
<text text-anchor="middle" x="552" y="-192.6396" font-family="Times,serif" font-size="20.00" fill="#000000">0.0</text>
</g>
<!-- SG_1_Node_1&#45;&gt;SG_1_Node_4 -->
<g id="edge9" class="edge">
<title>SG_1_Node_1&#45;&gt;SG_1_Node_4</title>
<path fill="none" stroke="#000000" d="M610.8402,-537.7988C600.8678,-480.1476 569.9802,-301.5845 557.4073,-228.8996"/>
<polygon fill="#000000" stroke="#000000" points="560.8432,-228.2279 555.6898,-218.9708 553.9456,-229.4211 560.8432,-228.2279"/>
<text text-anchor="middle" x="649" y="-382.8528" font-family="Times,serif" font-size="20.00" fill="#000000">[NA]</text>
<text text-anchor="middle" x="649" y="-360.8528" font-family="Times,serif" font-size="20.00" fill="#000000">55 levels</text>
</g>
<!-- SG_1_Node_2 -->
<g id="node12" class="node">
<title>SG_1_Node_2</title>
<polygon fill="none" stroke="#000000" points="921.5,-215.6396 604.5,-215.6396 604.5,-179.6396 921.5,-179.6396 921.5,-215.6396"/>
<text text-anchor="middle" x="763" y="-192.6396" font-family="Times,serif" font-size="20.00" fill="#000000">Cross&#45;Origin&#45;Resource&#45;Policy</text>
</g>
<!-- SG_1_Node_1&#45;&gt;SG_1_Node_2 -->
<g id="edge10" class="edge">
<title>SG_1_Node_1&#45;&gt;SG_1_Node_2</title>
<path fill="none" stroke="#000000" d="M652.9711,-537.8402C669.556,-528.1905 687.6529,-514.7938 699,-497.8528 756.8121,-411.5407 763.6894,-282.6019 763.6809,-226.0014"/>
<polygon fill="#000000" stroke="#000000" points="767.1808,-225.9633 763.6053,-215.9901 760.181,-226.0163 767.1808,-225.9633"/>
<text text-anchor="middle" x="782.5" y="-448.8528" font-family="Times,serif" font-size="20.00" fill="#000000">200</text>
<text text-anchor="middle" x="782.5" y="-426.8528" font-family="Times,serif" font-size="20.00" fill="#000000">201</text>
<text text-anchor="middle" x="782.5" y="-404.8528" font-family="Times,serif" font-size="20.00" fill="#000000">202</text>
<text text-anchor="middle" x="782.5" y="-382.8528" font-family="Times,serif" font-size="20.00" fill="#000000">203</text>
<text text-anchor="middle" x="782.5" y="-360.8528" font-family="Times,serif" font-size="20.00" fill="#000000">206</text>
<text text-anchor="middle" x="782.5" y="-338.8528" font-family="Times,serif" font-size="20.00" fill="#000000">207</text>
<text text-anchor="middle" x="782.5" y="-316.8528" font-family="Times,serif" font-size="20.00" fill="#000000">208</text>
<text text-anchor="middle" x="782.5" y="-294.8528" font-family="Times,serif" font-size="20.00" fill="#000000">226</text>
</g>
<!-- SG_1_Node_5 -->
<g id="node13" class="node">
<title>SG_1_Node_5</title>
<ellipse fill="none" stroke="#000000" cx="684" cy="-37.2132" rx="34.7971" ry="21.4286"/>
<text text-anchor="middle" x="684" y="-32.2132" font-family="Times,serif" font-size="20.00" fill="#000000">0.0</text>
</g>
<!-- SG_1_Node_2&#45;&gt;SG_1_Node_5 -->
<g id="edge11" class="edge">
<title>SG_1_Node_2&#45;&gt;SG_1_Node_5</title>
<path fill="none" stroke="#000000" d="M734.6772,-179.4006C721.3428,-169.2751 706.5276,-155.4807 698,-139.4264 686.4278,-117.6402 683.2551,-89.7103 682.7936,-68.5536"/>
<polygon fill="#000000" stroke="#000000" points="686.2934,-68.4624 682.7644,-58.4726 679.2935,-68.4827 686.2934,-68.4624"/>
<text text-anchor="middle" x="759" y="-112.4264" font-family="Times,serif" font-size="20.00" fill="#000000">same&#45;origin</text>
</g>
<!-- SG_1_Node_6 -->
<g id="node14" class="node">
<title>SG_1_Node_6</title>
<ellipse fill="none" stroke="#000000" cx="842" cy="-37.2132" rx="34.7971" ry="21.4286"/>
<text text-anchor="middle" x="842" y="-32.2132" font-family="Times,serif" font-size="20.00" fill="#000000">1.0</text>
</g>
<!-- SG_1_Node_2&#45;&gt;SG_1_Node_6 -->
<g id="edge12" class="edge">
<title>SG_1_Node_2&#45;&gt;SG_1_Node_6</title>
<path fill="none" stroke="#000000" d="M786.2094,-179.4897C798.0596,-169.014 811.6925,-154.8734 820,-139.4264 831.768,-117.545 837.2412,-89.8425 839.7867,-68.7988"/>
<polygon fill="#000000" stroke="#000000" points="843.277,-69.0746 840.8425,-58.7633 836.3154,-68.3422 843.277,-69.0746"/>
<text text-anchor="middle" x="867" y="-123.4264" font-family="Times,serif" font-size="20.00" fill="#000000">[NA]</text>
<text text-anchor="middle" x="867" y="-101.4264" font-family="Times,serif" font-size="20.00" fill="#000000">empty</text>
</g>
<!-- SG_2_Node_0 -->
<g id="node15" class="node">
<title>SG_2_Node_0</title>
<polygon fill="none" stroke="#000000" points="1518,-863.2792 1376,-863.2792 1376,-827.2792 1518,-827.2792 1518,-863.2792"/>
<text text-anchor="middle" x="1447" y="-840.2792" font-family="Times,serif" font-size="20.00" fill="#000000">Status&#45;Code</text>
</g>
<!-- SG_2_Node_1 -->
<g id="node16" class="node">
<title>SG_2_Node_1</title>
<polygon fill="none" stroke="#000000" points="1437.5,-574.066 1372.5,-574.066 1372.5,-538.066 1437.5,-538.066 1437.5,-574.066"/>
<text text-anchor="middle" x="1405" y="-551.066" font-family="Times,serif" font-size="20.00" fill="#000000">body</text>
</g>
<!-- SG_2_Node_0&#45;&gt;SG_2_Node_1 -->
<g id="edge13" class="edge">
<title>SG_2_Node_0&#45;&gt;SG_2_Node_1</title>
<path fill="none" stroke="#000000" d="M1438.6031,-827.0913C1434.1135,-816.5614 1428.9224,-802.9266 1426,-790.2792 1409.1455,-717.3361 1405.662,-628.7146 1405.042,-584.3054"/>
<polygon fill="#000000" stroke="#000000" points="1408.5414,-584.2201 1404.9412,-574.2557 1401.5418,-584.2904 1408.5414,-584.2201"/>
<text text-anchor="middle" x="1445.5" y="-774.2792" font-family="Times,serif" font-size="20.00" fill="#000000">200</text>
<text text-anchor="middle" x="1445.5" y="-752.2792" font-family="Times,serif" font-size="20.00" fill="#000000">201</text>
<text text-anchor="middle" x="1445.5" y="-730.2792" font-family="Times,serif" font-size="20.00" fill="#000000">202</text>
<text text-anchor="middle" x="1445.5" y="-708.2792" font-family="Times,serif" font-size="20.00" fill="#000000">203</text>
<text text-anchor="middle" x="1445.5" y="-686.2792" font-family="Times,serif" font-size="20.00" fill="#000000">206</text>
<text text-anchor="middle" x="1445.5" y="-664.2792" font-family="Times,serif" font-size="20.00" fill="#000000">207</text>
<text text-anchor="middle" x="1445.5" y="-642.2792" font-family="Times,serif" font-size="20.00" fill="#000000">208</text>
<text text-anchor="middle" x="1445.5" y="-620.2792" font-family="Times,serif" font-size="20.00" fill="#000000">226</text>
</g>
<!-- SG_2_Node_3 -->
<g id="node17" class="node">
<title>SG_2_Node_3</title>
<ellipse fill="none" stroke="#000000" cx="1490" cy="-556.066" rx="34.7971" ry="21.4286"/>
<text text-anchor="middle" x="1490" y="-551.066" font-family="Times,serif" font-size="20.00" fill="#000000">1.0</text>
</g>
<!-- SG_2_Node_0&#45;&gt;SG_2_Node_3 -->
<g id="edge14" class="edge">
<title>SG_2_Node_0&#45;&gt;SG_2_Node_3</title>
<path fill="none" stroke="#000000" d="M1453.977,-827.2098C1457.8027,-816.6033 1462.3027,-802.8533 1465,-790.2792 1480.3647,-718.6535 1486.4678,-632.5835 1488.7476,-587.3569"/>
<polygon fill="#000000" stroke="#000000" points="1492.247,-587.4503 1489.2249,-577.2956 1485.2548,-587.1185 1492.247,-587.4503"/>
<text text-anchor="middle" x="1533" y="-708.2792" font-family="Times,serif" font-size="20.00" fill="#000000">[NA]</text>
<text text-anchor="middle" x="1533" y="-686.2792" font-family="Times,serif" font-size="20.00" fill="#000000">55 levels</text>
</g>
<!-- SG_2_Node_2 -->
<g id="node18" class="node">
<title>SG_2_Node_2</title>
<polygon fill="none" stroke="#000000" points="1433.5,-215.6396 1116.5,-215.6396 1116.5,-179.6396 1433.5,-179.6396 1433.5,-215.6396"/>
<text text-anchor="middle" x="1275" y="-192.6396" font-family="Times,serif" font-size="20.00" fill="#000000">Cross&#45;Origin&#45;Resource&#45;Policy</text>
</g>
<!-- SG_2_Node_1&#45;&gt;SG_2_Node_2 -->
<g id="edge15" class="edge">
<title>SG_2_Node_1&#45;&gt;SG_2_Node_2</title>
<path fill="none" stroke="#000000" d="M1372.4377,-553.6198C1309.6933,-548.1576 1175.7679,-532.6138 1148,-497.8528 1114.4355,-455.8353 1118.9571,-301.1138 1148,-255.8528 1158.1126,-240.0931 1173.6762,-228.5445 1190.4831,-220.1004"/>
<polygon fill="#000000" stroke="#000000" points="1192.3232,-223.1051 1199.9216,-215.7216 1189.3773,-216.7552 1192.3232,-223.1051"/>
<text text-anchor="middle" x="1393.5" y="-382.8528" font-family="Times,serif" font-size="20.00" fill="#000000">ecocnt_audio=duration=1</text>
<text text-anchor="middle" x="1393.5" y="-360.8528" font-family="Times,serif" font-size="20.00" fill="#000000">ecocnt_vid=width=100,height=100,duration=2</text>
</g>
<!-- SG_2_Node_4 -->
<g id="node19" class="node">
<title>SG_2_Node_4</title>
<ellipse fill="none" stroke="#000000" cx="1661" cy="-197.6396" rx="34.7971" ry="21.4286"/>
<text text-anchor="middle" x="1661" y="-192.6396" font-family="Times,serif" font-size="20.00" fill="#000000">1.0</text>
</g>
<!-- SG_2_Node_1&#45;&gt;SG_2_Node_4 -->
<g id="edge16" class="edge">
<title>SG_2_Node_1&#45;&gt;SG_2_Node_4</title>
<path fill="none" stroke="#000000" d="M1437.7554,-538.0855C1440.5034,-536.8953 1443.2737,-535.7971 1446,-534.8528 1528.5294,-506.2669 1580.9338,-563.0951 1639,-497.8528 1706.3551,-422.1737 1684.3146,-288.9549 1669.6461,-228.7407"/>
<polygon fill="#000000" stroke="#000000" points="1672.9541,-227.5461 1667.1047,-218.7124 1666.1687,-229.2658 1672.9541,-227.5461"/>
<text text-anchor="middle" x="1958" y="-481.8528" font-family="Times,serif" font-size="20.00" fill="#000000">[NA]</text>
<text text-anchor="middle" x="1958" y="-459.8528" font-family="Times,serif" font-size="20.00" fill="#000000">ecocnt_css=h1 {color: blue}</text>
<text text-anchor="middle" x="1958" y="-437.8528" font-family="Times,serif" font-size="20.00" fill="#000000">ecocnt_html=meta_refresh=0;http://172.17.0.1:8000</text>
<text text-anchor="middle" x="1958" y="-415.8528" font-family="Times,serif" font-size="20.00" fill="#000000">ecocnt_html=num_frames=1,input_id=test1</text>
<text text-anchor="middle" x="1958" y="-393.8528" font-family="Times,serif" font-size="20.00" fill="#000000">ecocnt_html=num_frames=2</text>
<text text-anchor="middle" x="1958" y="-371.8528" font-family="Times,serif" font-size="20.00" fill="#000000">ecocnt_html=post_message=mes1</text>
<text text-anchor="middle" x="1958" y="-349.8528" font-family="Times,serif" font-size="20.00" fill="#000000">ecocnt_img=width=50,height=50,type=png</text>
<text text-anchor="middle" x="1958" y="-327.8528" font-family="Times,serif" font-size="20.00" fill="#000000">ecocnt_js=.,,.</text>
<text text-anchor="middle" x="1958" y="-305.8528" font-family="Times,serif" font-size="20.00" fill="#000000">ecocnt_js=var a=5;</text>
<text text-anchor="middle" x="1958" y="-283.8528" font-family="Times,serif" font-size="20.00" fill="#000000">ecocnt_pdf=a=a</text>
<text text-anchor="middle" x="1958" y="-261.8528" font-family="Times,serif" font-size="20.00" fill="#000000">empty</text>
</g>
<!-- SG_2_Node_5 -->
<g id="node20" class="node">
<title>SG_2_Node_5</title>
<ellipse fill="none" stroke="#000000" cx="1225" cy="-37.2132" rx="34.7971" ry="21.4286"/>
<text text-anchor="middle" x="1225" y="-32.2132" font-family="Times,serif" font-size="20.00" fill="#000000">0.0</text>
</g>
<!-- SG_2_Node_2&#45;&gt;SG_2_Node_5 -->
<g id="edge17" class="edge">
<title>SG_2_Node_2&#45;&gt;SG_2_Node_5</title>
<path fill="none" stroke="#000000" d="M1261.0384,-179.525C1253.2847,-168.521 1244.184,-153.8522 1239,-139.4264 1230.7986,-116.604 1227.3564,-89.3305 1225.9333,-68.6985"/>
<polygon fill="#000000" stroke="#000000" points="1229.4197,-68.359 1225.3586,-58.5735 1222.431,-68.7557 1229.4197,-68.359"/>
<text text-anchor="middle" x="1271" y="-123.4264" font-family="Times,serif" font-size="20.00" fill="#000000">[NA]</text>
<text text-anchor="middle" x="1271" y="-101.4264" font-family="Times,serif" font-size="20.00" fill="#000000">empty</text>
</g>
<!-- SG_2_Node_6 -->
<g id="node21" class="node">
<title>SG_2_Node_6</title>
<ellipse fill="none" stroke="#000000" cx="1325" cy="-37.2132" rx="34.7971" ry="21.4286"/>
<text text-anchor="middle" x="1325" y="-32.2132" font-family="Times,serif" font-size="20.00" fill="#000000">1.0</text>
</g>
<!-- SG_2_Node_2&#45;&gt;SG_2_Node_6 -->
<g id="edge18" class="edge">
<title>SG_2_Node_2&#45;&gt;SG_2_Node_6</title>
<path fill="none" stroke="#000000" d="M1285.1012,-179.4966C1291.0168,-168.242 1298.2371,-153.3243 1303,-139.4264 1310.9679,-116.1767 1316.6615,-88.9279 1320.2577,-68.414"/>
<polygon fill="#000000" stroke="#000000" points="1323.742,-68.7991 1321.948,-58.3573 1316.8388,-67.6388 1323.742,-68.7991"/>
<text text-anchor="middle" x="1375" y="-112.4264" font-family="Times,serif" font-size="20.00" fill="#000000">same&#45;origin</text>
</g>
</g>
</svg>
