<?xml version="1.0" encoding="UTF-8" standalone="no"?>
<!DOCTYPE svg PUBLIC "-//W3C//DTD SVG 1.1//EN"
 "http://www.w3.org/Graphics/SVG/1.1/DTD/svg11.dtd">
<!-- Generated by graphviz version 2.40.1 (20161225.0304)
 -->
<!-- Title: G Pages: 1 -->
<svg width="455pt" height="741pt"
 viewBox="0.00 0.00 455.00 741.28" xmlns="http://www.w3.org/2000/svg" xmlns:xlink="http://www.w3.org/1999/xlink">
<g id="graph0" class="graph" transform="scale(1 1) rotate(0) translate(4 737.2792)">
<title>G</title>
<polygon fill="#ffffff" stroke="transparent" points="-4,4 -4,-737.2792 451,-737.2792 451,4 -4,4"/>
<g id="clust1" class="cluster">
<title>cluster_0</title>
<polygon fill="none" stroke="#000000" points="8,-8 8,-725.2792 439,-725.2792 439,-8 8,-8"/>
<text text-anchor="middle" x="223.5" y="-689.2792" font-family="Times,serif" font-size="40.00" fill="#000000">Tree 0, Class 0</text>
</g>
<!-- SG_0_Node_0 -->
<g id="node1" class="node">
<title>SG_0_Node_0</title>
<polygon fill="none" stroke="#000000" points="226.5,-665.2792 161.5,-665.2792 161.5,-629.2792 226.5,-629.2792 226.5,-665.2792"/>
<text text-anchor="middle" x="194" y="-642.2792" font-family="Times,serif" font-size="20.00" fill="#000000">body</text>
</g>
<!-- SG_0_Node_1 -->
<g id="node2" class="node">
<title>SG_0_Node_1</title>
<polygon fill="none" stroke="#000000" points="246,-508.066 104,-508.066 104,-472.066 246,-472.066 246,-508.066"/>
<text text-anchor="middle" x="175" y="-485.066" font-family="Times,serif" font-size="20.00" fill="#000000">Status&#45;Code</text>
</g>
<!-- SG_0_Node_0&#45;&gt;SG_0_Node_1 -->
<g id="edge1" class="edge">
<title>SG_0_Node_0&#45;&gt;SG_0_Node_1</title>
<path fill="none" stroke="#000000" d="M161.439,-639.5877C122.6046,-629.6782 61.2538,-611.4352 48,-592.2792 36.8733,-576.1977 37.4389,-564.7378 48,-548.2792 58.9254,-531.2528 76.2132,-519.1417 94.5576,-510.5503"/>
<polygon fill="#000000" stroke="#000000" points="96.1381,-513.6799 103.9203,-506.4905 93.3533,-507.2577 96.1381,-513.6799"/>
<text text-anchor="middle" x="182.5" y="-565.2792" font-family="Times,serif" font-size="20.00" fill="#000000">ecocnt_audio=duration=1</text>
</g>
<!-- SG_0_Node_3 -->
<g id="node3" class="node">
<title>SG_0_Node_3</title>
<ellipse fill="none" stroke="#000000" cx="339" cy="-490.066" rx="34.7971" ry="21.4286"/>
<text text-anchor="middle" x="339" y="-485.066" font-family="Times,serif" font-size="20.00" fill="#000000">1.0</text>
</g>
<!-- SG_0_Node_0&#45;&gt;SG_0_Node_3 -->
<g id="edge2" class="edge">
<title>SG_0_Node_0&#45;&gt;SG_0_Node_3</title>
<path fill="none" stroke="#000000" d="M226.7669,-641.2356C254.9306,-634.2974 294.4637,-620.0821 317,-592.2792 333.0109,-572.5267 338.0871,-543.7873 339.4012,-521.8099"/>
<polygon fill="#000000" stroke="#000000" points="342.9055,-521.7552 339.7756,-511.6332 335.9103,-521.4978 342.9055,-521.7552"/>
<text text-anchor="middle" x="381" y="-576.2792" font-family="Times,serif" font-size="20.00" fill="#000000">[NA]</text>
<text text-anchor="middle" x="381" y="-554.2792" font-family="Times,serif" font-size="20.00" fill="#000000">11 levels</text>
</g>
<!-- SG_0_Node_2 -->
<g id="node4" class="node">
<title>SG_0_Node_2</title>
<polygon fill="none" stroke="#000000" points="333.5,-215.6396 16.5,-215.6396 16.5,-179.6396 333.5,-179.6396 333.5,-215.6396"/>
<text text-anchor="middle" x="175" y="-192.6396" font-family="Times,serif" font-size="20.00" fill="#000000">Cross&#45;Origin&#45;Resource&#45;Policy</text>
</g>
<!-- SG_0_Node_1&#45;&gt;SG_0_Node_2 -->
<g id="edge3" class="edge">
<title>SG_0_Node_1&#45;&gt;SG_0_Node_2</title>
<path fill="none" stroke="#000000" d="M175,-471.7734C175,-422.3347 175,-285.7698 175,-226.1281"/>
<polygon fill="#000000" stroke="#000000" points="178.5001,-225.9252 175,-215.9253 171.5001,-225.9253 178.5001,-225.9252"/>
<text text-anchor="middle" x="194.5" y="-415.8528" font-family="Times,serif" font-size="20.00" fill="#000000">200</text>
<text text-anchor="middle" x="194.5" y="-393.8528" font-family="Times,serif" font-size="20.00" fill="#000000">201</text>
<text text-anchor="middle" x="194.5" y="-371.8528" font-family="Times,serif" font-size="20.00" fill="#000000">202</text>
<text text-anchor="middle" x="194.5" y="-349.8528" font-family="Times,serif" font-size="20.00" fill="#000000">203</text>
<text text-anchor="middle" x="194.5" y="-327.8528" font-family="Times,serif" font-size="20.00" fill="#000000">206</text>
<text text-anchor="middle" x="194.5" y="-305.8528" font-family="Times,serif" font-size="20.00" fill="#000000">207</text>
<text text-anchor="middle" x="194.5" y="-283.8528" font-family="Times,serif" font-size="20.00" fill="#000000">208</text>
<text text-anchor="middle" x="194.5" y="-261.8528" font-family="Times,serif" font-size="20.00" fill="#000000">226</text>
</g>
<!-- SG_0_Node_4 -->
<g id="node5" class="node">
<title>SG_0_Node_4</title>
<ellipse fill="none" stroke="#000000" cx="386" cy="-197.6396" rx="34.7971" ry="21.4286"/>
<text text-anchor="middle" x="386" y="-192.6396" font-family="Times,serif" font-size="20.00" fill="#000000">1.0</text>
</g>
<!-- SG_0_Node_1&#45;&gt;SG_0_Node_4 -->
<g id="edge4" class="edge">
<title>SG_0_Node_1&#45;&gt;SG_0_Node_4</title>
<path fill="none" stroke="#000000" d="M188.4298,-472.0208C196.9432,-460.5481 208.1653,-445.3634 218,-431.8528 272.1142,-357.5125 335.0983,-269.2248 366.3396,-225.3119"/>
<polygon fill="#000000" stroke="#000000" points="369.2091,-227.3161 372.1526,-217.1383 363.5046,-223.2591 369.2091,-227.3161"/>
<text text-anchor="middle" x="388" y="-349.8528" font-family="Times,serif" font-size="20.00" fill="#000000">[NA]</text>
<text text-anchor="middle" x="388" y="-327.8528" font-family="Times,serif" font-size="20.00" fill="#000000">55 levels</text>
</g>
<!-- SG_0_Node_5 -->
<g id="node6" class="node">
<title>SG_0_Node_5</title>
<ellipse fill="none" stroke="#000000" cx="125" cy="-37.2132" rx="34.7971" ry="21.4286"/>
<text text-anchor="middle" x="125" y="-32.2132" font-family="Times,serif" font-size="20.00" fill="#000000">0.0</text>
</g>
<!-- SG_0_Node_2&#45;&gt;SG_0_Node_5 -->
<g id="edge5" class="edge">
<title>SG_0_Node_2&#45;&gt;SG_0_Node_5</title>
<path fill="none" stroke="#000000" d="M161.0384,-179.525C153.2847,-168.521 144.184,-153.8522 139,-139.4264 130.7986,-116.604 127.3564,-89.3305 125.9333,-68.6985"/>
<polygon fill="#000000" stroke="#000000" points="129.4197,-68.359 125.3586,-58.5735 122.431,-68.7557 129.4197,-68.359"/>
<text text-anchor="middle" x="171" y="-112.4264" font-family="Times,serif" font-size="20.00" fill="#000000">empty</text>
</g>
<!-- SG_0_Node_6 -->
<g id="node7" class="node">
<title>SG_0_Node_6</title>
<ellipse fill="none" stroke="#000000" cx="225" cy="-37.2132" rx="34.7971" ry="21.4286"/>
<text text-anchor="middle" x="225" y="-32.2132" font-family="Times,serif" font-size="20.00" fill="#000000">1.0</text>
</g>
<!-- SG_0_Node_2&#45;&gt;SG_0_Node_6 -->
<g id="edge6" class="edge">
<title>SG_0_Node_2&#45;&gt;SG_0_Node_6</title>
<path fill="none" stroke="#000000" d="M185.1012,-179.4966C191.0168,-168.242 198.2371,-153.3243 203,-139.4264 210.9679,-116.1767 216.6615,-88.9279 220.2577,-68.414"/>
<polygon fill="#000000" stroke="#000000" points="223.742,-68.7991 221.948,-58.3573 216.8388,-67.6388 223.742,-68.7991"/>
<text text-anchor="middle" x="275" y="-123.4264" font-family="Times,serif" font-size="20.00" fill="#000000">[NA]</text>
<text text-anchor="middle" x="275" y="-101.4264" font-family="Times,serif" font-size="20.00" fill="#000000">same&#45;origin</text>
</g>
</g>
</svg>
