<?xml version="1.0" encoding="UTF-8" standalone="no"?>
<!DOCTYPE svg PUBLIC "-//W3C//DTD SVG 1.1//EN"
 "http://www.w3.org/Graphics/SVG/1.1/DTD/svg11.dtd">
<!-- Generated by graphviz version 2.40.1 (20161225.0304)
 -->
<!-- Title: G Pages: 1 -->
<svg width="455pt" height="741pt"
 viewBox="0.00 0.00 455.00 741.28" xmlns="http://www.w3.org/2000/svg" xmlns:xlink="http://www.w3.org/1999/xlink">
<g id="graph0" class="graph" transform="scale(1 1) rotate(0) translate(4 737.2792)">
<title>G</title>
<polygon fill="#ffffff" stroke="transparent" points="-4,4 -4,-737.2792 451,-737.2792 451,4 -4,4"/>
<g id="clust1" class="cluster">
<title>cluster_0</title>
<polygon fill="none" stroke="#000000" points="8,-8 8,-725.2792 439,-725.2792 439,-8 8,-8"/>
<text text-anchor="middle" x="223.5" y="-689.2792" font-family="Times,serif" font-size="40.00" fill="#000000">Tree 0, Class 1</text>
</g>
<!-- SG_0_Node_0 -->
<g id="node1" class="node">
<title>SG_0_Node_0</title>
<polygon fill="none" stroke="#000000" points="138.5,-665.2792 73.5,-665.2792 73.5,-629.2792 138.5,-629.2792 138.5,-665.2792"/>
<text text-anchor="middle" x="106" y="-642.2792" font-family="Times,serif" font-size="20.00" fill="#000000">body</text>
</g>
<!-- SG_0_Node_3 -->
<g id="node2" class="node">
<title>SG_0_Node_3</title>
<ellipse fill="none" stroke="#000000" cx="51" cy="-490.066" rx="34.7971" ry="21.4286"/>
<text text-anchor="middle" x="51" y="-485.066" font-family="Times,serif" font-size="20.00" fill="#000000">0.0</text>
</g>
<!-- SG_0_Node_0&#45;&gt;SG_0_Node_3 -->
<g id="edge1" class="edge">
<title>SG_0_Node_0&#45;&gt;SG_0_Node_3</title>
<path fill="none" stroke="#000000" d="M78.6374,-629.1922C66.8616,-619.7473 54.357,-607.0681 48,-592.2792 38.4039,-569.9549 39.9269,-542.2831 43.4221,-521.3639"/>
<polygon fill="#000000" stroke="#000000" points="46.8875,-521.8757 45.3185,-511.3976 40.0108,-520.5671 46.8875,-521.8757"/>
<text text-anchor="middle" x="94" y="-576.2792" font-family="Times,serif" font-size="20.00" fill="#000000">[NA]</text>
<text text-anchor="middle" x="94" y="-554.2792" font-family="Times,serif" font-size="20.00" fill="#000000">11 levels</text>
</g>
<!-- SG_0_Node_1 -->
<g id="node3" class="node">
<title>SG_0_Node_1</title>
<polygon fill="none" stroke="#000000" points="246,-508.066 104,-508.066 104,-472.066 246,-472.066 246,-508.066"/>
<text text-anchor="middle" x="175" y="-485.066" font-family="Times,serif" font-size="20.00" fill="#000000">Status&#45;Code</text>
</g>
<!-- SG_0_Node_0&#45;&gt;SG_0_Node_1 -->
<g id="edge2" class="edge">
<title>SG_0_Node_0&#45;&gt;SG_0_Node_1</title>
<path fill="none" stroke="#000000" d="M118.7198,-629.0266C125.6214,-618.5891 133.9523,-605.0657 140,-592.2792 151.4572,-568.0554 161.0269,-539.0359 167.2476,-518.1174"/>
<polygon fill="#000000" stroke="#000000" points="170.6794,-518.8501 170.1068,-508.2707 163.957,-516.8981 170.6794,-518.8501"/>
<text text-anchor="middle" x="291.5" y="-565.2792" font-family="Times,serif" font-size="20.00" fill="#000000">ecocnt_audio=duration=1</text>
</g>
<!-- SG_0_Node_4 -->
<g id="node4" class="node">
<title>SG_0_Node_4</title>
<ellipse fill="none" stroke="#000000" cx="56" cy="-197.6396" rx="34.7971" ry="21.4286"/>
<text text-anchor="middle" x="56" y="-192.6396" font-family="Times,serif" font-size="20.00" fill="#000000">0.0</text>
</g>
<!-- SG_0_Node_1&#45;&gt;SG_0_Node_4 -->
<g id="edge3" class="edge">
<title>SG_0_Node_1&#45;&gt;SG_0_Node_4</title>
<path fill="none" stroke="#000000" d="M139.7459,-471.8574C124.2477,-462.0655 107.2697,-448.5479 97,-431.8528 57.6714,-367.9182 53.5274,-276.6431 54.4271,-229.1236"/>
<polygon fill="#000000" stroke="#000000" points="57.9334,-228.9433 54.7149,-218.8491 50.9361,-228.7472 57.9334,-228.9433"/>
<text text-anchor="middle" x="143" y="-349.8528" font-family="Times,serif" font-size="20.00" fill="#000000">[NA]</text>
<text text-anchor="middle" x="143" y="-327.8528" font-family="Times,serif" font-size="20.00" fill="#000000">55 levels</text>
</g>
<!-- SG_0_Node_2 -->
<g id="node5" class="node">
<title>SG_0_Node_2</title>
<polygon fill="none" stroke="#000000" points="425.5,-215.6396 108.5,-215.6396 108.5,-179.6396 425.5,-179.6396 425.5,-215.6396"/>
<text text-anchor="middle" x="267" y="-192.6396" font-family="Times,serif" font-size="20.00" fill="#000000">Cross&#45;Origin&#45;Resource&#45;Policy</text>
</g>
<!-- SG_0_Node_1&#45;&gt;SG_0_Node_2 -->
<g id="edge4" class="edge">
<title>SG_0_Node_1&#45;&gt;SG_0_Node_2</title>
<path fill="none" stroke="#000000" d="M180.755,-471.7734C196.3411,-422.2322 239.4518,-285.2027 258.1537,-225.7579"/>
<polygon fill="#000000" stroke="#000000" points="261.5847,-226.5147 261.2472,-215.9253 254.9074,-224.4139 261.5847,-226.5147"/>
<text text-anchor="middle" x="267.5" y="-415.8528" font-family="Times,serif" font-size="20.00" fill="#000000">200</text>
<text text-anchor="middle" x="267.5" y="-393.8528" font-family="Times,serif" font-size="20.00" fill="#000000">201</text>
<text text-anchor="middle" x="267.5" y="-371.8528" font-family="Times,serif" font-size="20.00" fill="#000000">202</text>
<text text-anchor="middle" x="267.5" y="-349.8528" font-family="Times,serif" font-size="20.00" fill="#000000">203</text>
<text text-anchor="middle" x="267.5" y="-327.8528" font-family="Times,serif" font-size="20.00" fill="#000000">206</text>
<text text-anchor="middle" x="267.5" y="-305.8528" font-family="Times,serif" font-size="20.00" fill="#000000">207</text>
<text text-anchor="middle" x="267.5" y="-283.8528" font-family="Times,serif" font-size="20.00" fill="#000000">208</text>
<text text-anchor="middle" x="267.5" y="-261.8528" font-family="Times,serif" font-size="20.00" fill="#000000">226</text>
</g>
<!-- SG_0_Node_5 -->
<g id="node6" class="node">
<title>SG_0_Node_5</title>
<ellipse fill="none" stroke="#000000" cx="159" cy="-37.2132" rx="34.7971" ry="21.4286"/>
<text text-anchor="middle" x="159" y="-32.2132" font-family="Times,serif" font-size="20.00" fill="#000000">0.0</text>
</g>
<!-- SG_0_Node_2&#45;&gt;SG_0_Node_5 -->
<g id="edge5" class="edge">
<title>SG_0_Node_2&#45;&gt;SG_0_Node_5</title>
<path fill="none" stroke="#000000" d="M207.7274,-179.5089C188.7866,-170.5987 169.9186,-157.7154 159,-139.4264 146.3362,-118.2142 147.4461,-89.8445 151.0941,-68.3754"/>
<polygon fill="#000000" stroke="#000000" points="154.5502,-68.9386 153.0396,-58.452 147.681,-67.5918 154.5502,-68.9386"/>
<text text-anchor="middle" x="220" y="-112.4264" font-family="Times,serif" font-size="20.00" fill="#000000">same&#45;origin</text>
</g>
<!-- SG_0_Node_6 -->
<g id="node7" class="node">
<title>SG_0_Node_6</title>
<ellipse fill="none" stroke="#000000" cx="317" cy="-37.2132" rx="34.7971" ry="21.4286"/>
<text text-anchor="middle" x="317" y="-32.2132" font-family="Times,serif" font-size="20.00" fill="#000000">1.0</text>
</g>
<!-- SG_0_Node_2&#45;&gt;SG_0_Node_6 -->
<g id="edge6" class="edge">
<title>SG_0_Node_2&#45;&gt;SG_0_Node_6</title>
<path fill="none" stroke="#000000" d="M272.6384,-179.5485C281.0865,-152.4428 297.1347,-100.9515 307.4368,-67.8972"/>
<polygon fill="#000000" stroke="#000000" points="310.8005,-68.8668 310.4347,-58.2782 304.1176,-66.7838 310.8005,-68.8668"/>
<text text-anchor="middle" x="330" y="-123.4264" font-family="Times,serif" font-size="20.00" fill="#000000">[NA]</text>
<text text-anchor="middle" x="330" y="-101.4264" font-family="Times,serif" font-size="20.00" fill="#000000">empty</text>
</g>
</g>
</svg>
