<?xml version="1.0" encoding="UTF-8" standalone="no"?>
<!DOCTYPE svg PUBLIC "-//W3C//DTD SVG 1.1//EN"
 "http://www.w3.org/Graphics/SVG/1.1/DTD/svg11.dtd">
<!-- Generated by graphviz version 2.40.1 (20161225.0304)
 -->
<!-- Title: G Pages: 1 -->
<svg width="1132pt" height="939pt"
 viewBox="0.00 0.00 1132.35 939.28" xmlns="http://www.w3.org/2000/svg" xmlns:xlink="http://www.w3.org/1999/xlink">
<g id="graph0" class="graph" transform="scale(1 1) rotate(0) translate(4 935.2792)">
<title>G</title>
<polygon fill="#ffffff" stroke="transparent" points="-4,4 -4,-935.2792 1128.3474,-935.2792 1128.3474,4 -4,4"/>
<g id="clust1" class="cluster">
<title>cluster_0</title>
<polygon fill="none" stroke="#000000" points="9.3474,-8 9.3474,-923.2792 1116.3474,-923.2792 1116.3474,-8 9.3474,-8"/>
<text text-anchor="middle" x="562.8474" y="-887.2792" font-family="Times,serif" font-size="40.00" fill="#000000">Tree 0, Class 1</text>
</g>
<!-- SG_0_Node_0 -->
<g id="node1" class="node">
<title>SG_0_Node_0</title>
<polygon fill="none" stroke="#000000" points="406.3474,-863.2792 264.3474,-863.2792 264.3474,-827.2792 406.3474,-827.2792 406.3474,-863.2792"/>
<text text-anchor="middle" x="335.3474" y="-840.2792" font-family="Times,serif" font-size="20.00" fill="#000000">Status&#45;Code</text>
</g>
<!-- SG_0_Node_3 -->
<g id="node2" class="node">
<title>SG_0_Node_3</title>
<ellipse fill="none" stroke="#000000" cx="271.3474" cy="-556.066" rx="34.7971" ry="21.4286"/>
<text text-anchor="middle" x="271.3474" y="-551.066" font-family="Times,serif" font-size="20.00" fill="#000000">0.0</text>
</g>
<!-- SG_0_Node_0&#45;&gt;SG_0_Node_3 -->
<g id="edge1" class="edge">
<title>SG_0_Node_0&#45;&gt;SG_0_Node_3</title>
<path fill="none" stroke="#000000" d="M312.8379,-827.0424C302.5331,-817.3103 291.3099,-804.4308 285.3474,-790.2792 256.8079,-722.5428 261.5455,-633.932 266.8281,-587.5273"/>
<polygon fill="#000000" stroke="#000000" points="270.3167,-587.8324 268.0569,-577.4814 263.3685,-586.9824 270.3167,-587.8324"/>
<text text-anchor="middle" x="331.3474" y="-708.2792" font-family="Times,serif" font-size="20.00" fill="#000000">[NA]</text>
<text text-anchor="middle" x="331.3474" y="-686.2792" font-family="Times,serif" font-size="20.00" fill="#000000">55 levels</text>
</g>
<!-- SG_0_Node_1 -->
<g id="node3" class="node">
<title>SG_0_Node_1</title>
<polygon fill="none" stroke="#000000" points="431.8474,-574.066 366.8474,-574.066 366.8474,-538.066 431.8474,-538.066 431.8474,-574.066"/>
<text text-anchor="middle" x="399.3474" y="-551.066" font-family="Times,serif" font-size="20.00" fill="#000000">body</text>
</g>
<!-- SG_0_Node_0&#45;&gt;SG_0_Node_1 -->
<g id="edge2" class="edge">
<title>SG_0_Node_0&#45;&gt;SG_0_Node_1</title>
<path fill="none" stroke="#000000" d="M353.4335,-827.0669C362.2182,-817.0603 372.0072,-803.9293 377.3474,-790.2792 404.7711,-720.1812 404.1109,-629.6207 401.5902,-584.3935"/>
<polygon fill="#000000" stroke="#000000" points="405.0677,-583.9268 400.9434,-574.1677 398.0817,-584.3687 405.0677,-583.9268"/>
<text text-anchor="middle" x="421.8474" y="-774.2792" font-family="Times,serif" font-size="20.00" fill="#000000">200</text>
<text text-anchor="middle" x="421.8474" y="-752.2792" font-family="Times,serif" font-size="20.00" fill="#000000">201</text>
<text text-anchor="middle" x="421.8474" y="-730.2792" font-family="Times,serif" font-size="20.00" fill="#000000">202</text>
<text text-anchor="middle" x="421.8474" y="-708.2792" font-family="Times,serif" font-size="20.00" fill="#000000">203</text>
<text text-anchor="middle" x="421.8474" y="-686.2792" font-family="Times,serif" font-size="20.00" fill="#000000">206</text>
<text text-anchor="middle" x="421.8474" y="-664.2792" font-family="Times,serif" font-size="20.00" fill="#000000">207</text>
<text text-anchor="middle" x="421.8474" y="-642.2792" font-family="Times,serif" font-size="20.00" fill="#000000">208</text>
<text text-anchor="middle" x="421.8474" y="-620.2792" font-family="Times,serif" font-size="20.00" fill="#000000">226</text>
</g>
<!-- SG_0_Node_4 -->
<g id="node4" class="node">
<title>SG_0_Node_4</title>
<ellipse fill="none" stroke="#000000" cx="52.3474" cy="-197.6396" rx="34.7971" ry="21.4286"/>
<text text-anchor="middle" x="52.3474" y="-192.6396" font-family="Times,serif" font-size="20.00" fill="#000000">0.0</text>
</g>
<!-- SG_0_Node_1&#45;&gt;SG_0_Node_4 -->
<g id="edge3" class="edge">
<title>SG_0_Node_1&#45;&gt;SG_0_Node_4</title>
<path fill="none" stroke="#000000" d="M366.833,-546.9191C351.3368,-542.8007 332.4832,-538.1373 315.3474,-534.8528 253.7063,-523.038 76.7186,-545.0506 35.3474,-497.8528 -31.801,-421.2476 13.2962,-286.9948 38.5352,-227.4883"/>
<polygon fill="#000000" stroke="#000000" points="41.7664,-228.8343 42.5429,-218.2679 35.3466,-226.0438 41.7664,-228.8343"/>
<text text-anchor="middle" x="308.3474" y="-481.8528" font-family="Times,serif" font-size="20.00" fill="#000000">[NA]</text>
<text text-anchor="middle" x="308.3474" y="-459.8528" font-family="Times,serif" font-size="20.00" fill="#000000">ecocnt_css=h1 {color: blue}</text>
<text text-anchor="middle" x="308.3474" y="-437.8528" font-family="Times,serif" font-size="20.00" fill="#000000">ecocnt_html=meta_refresh=0;http://172.17.0.1:8000</text>
<text text-anchor="middle" x="308.3474" y="-415.8528" font-family="Times,serif" font-size="20.00" fill="#000000">ecocnt_html=num_frames=1,input_id=test1</text>
<text text-anchor="middle" x="308.3474" y="-393.8528" font-family="Times,serif" font-size="20.00" fill="#000000">ecocnt_html=num_frames=2</text>
<text text-anchor="middle" x="308.3474" y="-371.8528" font-family="Times,serif" font-size="20.00" fill="#000000">ecocnt_html=post_message=mes1</text>
<text text-anchor="middle" x="308.3474" y="-349.8528" font-family="Times,serif" font-size="20.00" fill="#000000">ecocnt_img=width=50,height=50,type=png</text>
<text text-anchor="middle" x="308.3474" y="-327.8528" font-family="Times,serif" font-size="20.00" fill="#000000">ecocnt_js=.,,.</text>
<text text-anchor="middle" x="308.3474" y="-305.8528" font-family="Times,serif" font-size="20.00" fill="#000000">ecocnt_js=var a=5;</text>
<text text-anchor="middle" x="308.3474" y="-283.8528" font-family="Times,serif" font-size="20.00" fill="#000000">ecocnt_pdf=a=a</text>
<text text-anchor="middle" x="308.3474" y="-261.8528" font-family="Times,serif" font-size="20.00" fill="#000000">empty</text>
</g>
<!-- SG_0_Node_2 -->
<g id="node5" class="node">
<title>SG_0_Node_2</title>
<polygon fill="none" stroke="#000000" points="775.8474,-215.6396 458.8474,-215.6396 458.8474,-179.6396 775.8474,-179.6396 775.8474,-215.6396"/>
<text text-anchor="middle" x="617.3474" y="-192.6396" font-family="Times,serif" font-size="20.00" fill="#000000">Cross&#45;Origin&#45;Resource&#45;Policy</text>
</g>
<!-- SG_0_Node_1&#45;&gt;SG_0_Node_2 -->
<g id="edge4" class="edge">
<title>SG_0_Node_1&#45;&gt;SG_0_Node_2</title>
<path fill="none" stroke="#000000" d="M432.0931,-550.254C480.0495,-541.0404 565.823,-521.6622 585.3474,-497.8528 650.7412,-418.107 634.518,-283.6058 623.5064,-225.6217"/>
<polygon fill="#000000" stroke="#000000" points="626.9192,-224.8386 621.5318,-215.7157 620.0543,-226.207 626.9192,-224.8386"/>
<text text-anchor="middle" x="878.8474" y="-382.8528" font-family="Times,serif" font-size="20.00" fill="#000000">ecocnt_audio=duration=1</text>
<text text-anchor="middle" x="878.8474" y="-360.8528" font-family="Times,serif" font-size="20.00" fill="#000000">ecocnt_vid=width=100,height=100,duration=2</text>
</g>
<!-- SG_0_Node_5 -->
<g id="node6" class="node">
<title>SG_0_Node_5</title>
<ellipse fill="none" stroke="#000000" cx="538.3474" cy="-37.2132" rx="34.7971" ry="21.4286"/>
<text text-anchor="middle" x="538.3474" y="-32.2132" font-family="Times,serif" font-size="20.00" fill="#000000">0.0</text>
</g>
<!-- SG_0_Node_2&#45;&gt;SG_0_Node_5 -->
<g id="edge5" class="edge">
<title>SG_0_Node_2&#45;&gt;SG_0_Node_5</title>
<path fill="none" stroke="#000000" d="M589.0246,-179.4006C575.6902,-169.2751 560.875,-155.4807 552.3474,-139.4264 540.7751,-117.6402 537.6025,-89.7103 537.141,-68.5536"/>
<polygon fill="#000000" stroke="#000000" points="540.6408,-68.4624 537.1117,-58.4726 533.6408,-68.4827 540.6408,-68.4624"/>
<text text-anchor="middle" x="613.3474" y="-112.4264" font-family="Times,serif" font-size="20.00" fill="#000000">same&#45;origin</text>
</g>
<!-- SG_0_Node_6 -->
<g id="node7" class="node">
<title>SG_0_Node_6</title>
<ellipse fill="none" stroke="#000000" cx="696.3474" cy="-37.2132" rx="34.7971" ry="21.4286"/>
<text text-anchor="middle" x="696.3474" y="-32.2132" font-family="Times,serif" font-size="20.00" fill="#000000">1.0</text>
</g>
<!-- SG_0_Node_2&#45;&gt;SG_0_Node_6 -->
<g id="edge6" class="edge">
<title>SG_0_Node_2&#45;&gt;SG_0_Node_6</title>
<path fill="none" stroke="#000000" d="M640.5567,-179.4897C652.407,-169.014 666.0399,-154.8734 674.3474,-139.4264 686.1154,-117.545 691.5886,-89.8425 694.1341,-68.7988"/>
<polygon fill="#000000" stroke="#000000" points="697.6243,-69.0746 695.1899,-58.7633 690.6628,-68.3422 697.6243,-69.0746"/>
<text text-anchor="middle" x="721.3474" y="-123.4264" font-family="Times,serif" font-size="20.00" fill="#000000">[NA]</text>
<text text-anchor="middle" x="721.3474" y="-101.4264" font-family="Times,serif" font-size="20.00" fill="#000000">empty</text>
</g>
</g>
</svg>
