<?xml version="1.0" encoding="UTF-8" standalone="no"?>
<!DOCTYPE svg PUBLIC "-//W3C//DTD SVG 1.1//EN"
 "http://www.w3.org/Graphics/SVG/1.1/DTD/svg11.dtd">
<!-- Generated by graphviz version 2.40.1 (20161225.0304)
 -->
<!-- Title: G Pages: 1 -->
<svg width="630pt" height="1465pt"
 viewBox="0.00 0.00 630.00 1464.56" xmlns="http://www.w3.org/2000/svg" xmlns:xlink="http://www.w3.org/1999/xlink">
<g id="graph0" class="graph" transform="scale(1 1) rotate(0) translate(4 1460.5584)">
<title>G</title>
<polygon fill="#ffffff" stroke="transparent" points="-4,4 -4,-1460.5584 626,-1460.5584 626,4 -4,4"/>
<g id="clust1" class="cluster">
<title>cluster_0</title>
<polygon fill="none" stroke="#000000" points="8,-8 8,-1448.5584 585,-1448.5584 585,-8 8,-8"/>
<text text-anchor="middle" x="296.5" y="-1412.5584" font-family="Times,serif" font-size="40.00" fill="#000000">Tree 0, Class [&#39;error&#39;]</text>
</g>
<!-- SG_0_Node_0 -->
<g id="node1" class="node">
<title>SG_0_Node_0</title>
<polygon fill="none" stroke="#000000" points="437,-1388.5584 295,-1388.5584 295,-1352.5584 437,-1352.5584 437,-1388.5584"/>
<text text-anchor="middle" x="366" y="-1365.5584" font-family="Times,serif" font-size="20.00" fill="#000000">Status&#45;Code</text>
</g>
<!-- SG_0_Node_1 -->
<g id="node2" class="node">
<title>SG_0_Node_1</title>
<polygon fill="none" stroke="#000000" points="446.5,-1231.3452 129.5,-1231.3452 129.5,-1195.3452 446.5,-1195.3452 446.5,-1231.3452"/>
<text text-anchor="middle" x="288" y="-1208.3452" font-family="Times,serif" font-size="20.00" fill="#000000">Cross&#45;Origin&#45;Resource&#45;Policy</text>
</g>
<!-- SG_0_Node_0&#45;&gt;SG_0_Node_1 -->
<g id="edge1" class="edge">
<title>SG_0_Node_0&#45;&gt;SG_0_Node_1</title>
<path fill="none" stroke="#000000" d="M357.0524,-1352.5241C343.4896,-1325.1874 317.6229,-1273.0519 301.686,-1240.9302"/>
<polygon fill="#000000" stroke="#000000" points="304.6633,-1239.056 297.0835,-1231.6535 298.3927,-1242.1672 304.6633,-1239.056"/>
<text text-anchor="middle" x="384" y="-1288.5584" font-family="Times,serif" font-size="20.00" fill="#000000">18 levels</text>
</g>
<!-- SG_0_Node_9 -->
<g id="node3" class="node">
<title>SG_0_Node_9</title>
<ellipse fill="none" stroke="#000000" cx="499" cy="-1213.3452" rx="34.7971" ry="21.4286"/>
<text text-anchor="middle" x="499" y="-1208.3452" font-family="Times,serif" font-size="20.00" fill="#000000">1.0</text>
</g>
<!-- SG_0_Node_0&#45;&gt;SG_0_Node_9 -->
<g id="edge2" class="edge">
<title>SG_0_Node_0&#45;&gt;SG_0_Node_9</title>
<path fill="none" stroke="#000000" d="M392.2514,-1352.487C405.645,-1342.519 421.6667,-1329.38 434,-1315.5584 453.8803,-1293.2792 471.7035,-1264.2704 483.6358,-1242.8507"/>
<polygon fill="#000000" stroke="#000000" points="486.8102,-1244.3402 488.5336,-1233.8865 480.6674,-1240.9838 486.8102,-1244.3402"/>
<text text-anchor="middle" x="512" y="-1299.5584" font-family="Times,serif" font-size="20.00" fill="#000000">[NA]</text>
<text text-anchor="middle" x="512" y="-1277.5584" font-family="Times,serif" font-size="20.00" fill="#000000">45 levels</text>
</g>
<!-- SG_0_Node_2 -->
<g id="node4" class="node">
<title>SG_0_Node_2</title>
<polygon fill="none" stroke="#000000" points="323.5,-1070.9188 168.5,-1070.9188 168.5,-1034.9188 323.5,-1034.9188 323.5,-1070.9188"/>
<text text-anchor="middle" x="246" y="-1047.9188" font-family="Times,serif" font-size="20.00" fill="#000000">Content&#45;Type</text>
</g>
<!-- SG_0_Node_1&#45;&gt;SG_0_Node_2 -->
<g id="edge3" class="edge">
<title>SG_0_Node_1&#45;&gt;SG_0_Node_2</title>
<path fill="none" stroke="#000000" d="M283.2637,-1195.2541C275.985,-1167.4519 261.9898,-1113.9947 253.3758,-1081.0919"/>
<polygon fill="#000000" stroke="#000000" points="256.7021,-1079.9775 250.7834,-1071.19 249.9303,-1081.7504 256.7021,-1079.9775"/>
<text text-anchor="middle" x="304" y="-1139.132" font-family="Times,serif" font-size="20.00" fill="#000000">[NA]</text>
<text text-anchor="middle" x="304" y="-1117.132" font-family="Times,serif" font-size="20.00" fill="#000000">empty</text>
</g>
<!-- SG_0_Node_10 -->
<g id="node5" class="node">
<title>SG_0_Node_10</title>
<ellipse fill="none" stroke="#000000" cx="376" cy="-1052.9188" rx="34.7971" ry="21.4286"/>
<text text-anchor="middle" x="376" y="-1047.9188" font-family="Times,serif" font-size="20.00" fill="#000000">1.0</text>
</g>
<!-- SG_0_Node_1&#45;&gt;SG_0_Node_10 -->
<g id="edge4" class="edge">
<title>SG_0_Node_1&#45;&gt;SG_0_Node_10</title>
<path fill="none" stroke="#000000" d="M307.6334,-1195.1835C318.3763,-1184.3901 331.2423,-1169.9475 340,-1155.132 353.246,-1132.7235 362.6897,-1104.6803 368.5719,-1083.6386"/>
<polygon fill="#000000" stroke="#000000" points="371.9666,-1084.4921 371.1745,-1073.9269 365.2052,-1082.6801 371.9666,-1084.4921"/>
<text text-anchor="middle" x="420" y="-1128.132" font-family="Times,serif" font-size="20.00" fill="#000000">same&#45;origin</text>
</g>
<!-- SG_0_Node_3 -->
<g id="node6" class="node">
<title>SG_0_Node_3</title>
<polygon fill="none" stroke="#000000" points="247,-825.7056 105,-825.7056 105,-789.7056 247,-789.7056 247,-825.7056"/>
<text text-anchor="middle" x="176" y="-802.7056" font-family="Times,serif" font-size="20.00" fill="#000000">Status&#45;Code</text>
</g>
<!-- SG_0_Node_2&#45;&gt;SG_0_Node_3 -->
<g id="edge5" class="edge">
<title>SG_0_Node_2&#45;&gt;SG_0_Node_3</title>
<path fill="none" stroke="#000000" d="M222.0603,-1034.8588C210.242,-1024.5066 197.0394,-1010.4529 190,-994.7056 166.7218,-942.6318 168.749,-874.246 172.3473,-836.267"/>
<polygon fill="#000000" stroke="#000000" points="175.8667,-836.2661 173.436,-825.9539 168.9054,-835.5312 175.8667,-836.2661"/>
<text text-anchor="middle" x="301" y="-945.7056" font-family="Times,serif" font-size="20.00" fill="#000000">application/javascript</text>
<text text-anchor="middle" x="301" y="-923.7056" font-family="Times,serif" font-size="20.00" fill="#000000">application/pdf</text>
<text text-anchor="middle" x="301" y="-901.7056" font-family="Times,serif" font-size="20.00" fill="#000000">text/html</text>
</g>
<!-- SG_0_Node_4 -->
<g id="node7" class="node">
<title>SG_0_Node_4</title>
<polygon fill="none" stroke="#000000" points="511.5,-825.7056 356.5,-825.7056 356.5,-789.7056 511.5,-789.7056 511.5,-825.7056"/>
<text text-anchor="middle" x="434" y="-802.7056" font-family="Times,serif" font-size="20.00" fill="#000000">Content&#45;Type</text>
</g>
<!-- SG_0_Node_2&#45;&gt;SG_0_Node_4 -->
<g id="edge6" class="edge">
<title>SG_0_Node_2&#45;&gt;SG_0_Node_4</title>
<path fill="none" stroke="#000000" d="M307.2932,-1034.8703C351.6552,-1021.2382 405.0076,-1003.4359 412,-994.7056 448.5958,-949.0143 444.7572,-875.74 439.1466,-835.8323"/>
<polygon fill="#000000" stroke="#000000" points="442.5739,-835.0925 437.5885,-825.7439 435.656,-836.161 442.5739,-835.0925"/>
<text text-anchor="middle" x="496.5" y="-978.7056" font-family="Times,serif" font-size="20.00" fill="#000000">[NA]</text>
<text text-anchor="middle" x="496.5" y="-956.7056" font-family="Times,serif" font-size="20.00" fill="#000000">audio/wav</text>
<text text-anchor="middle" x="496.5" y="-934.7056" font-family="Times,serif" font-size="20.00" fill="#000000">empty</text>
<text text-anchor="middle" x="496.5" y="-912.7056" font-family="Times,serif" font-size="20.00" fill="#000000">image/png</text>
<text text-anchor="middle" x="496.5" y="-890.7056" font-family="Times,serif" font-size="20.00" fill="#000000">text/css</text>
<text text-anchor="middle" x="496.5" y="-868.7056" font-family="Times,serif" font-size="20.00" fill="#000000">video/mp4</text>
</g>
<!-- SG_0_Node_11 -->
<g id="node8" class="node">
<title>SG_0_Node_11</title>
<ellipse fill="none" stroke="#000000" cx="51" cy="-584.4924" rx="34.7971" ry="21.4286"/>
<text text-anchor="middle" x="51" y="-579.4924" font-family="Times,serif" font-size="20.00" fill="#000000">0.0</text>
</g>
<!-- SG_0_Node_3&#45;&gt;SG_0_Node_11 -->
<g id="edge15" class="edge">
<title>SG_0_Node_3&#45;&gt;SG_0_Node_11</title>
<path fill="none" stroke="#000000" d="M112.558,-789.5937C94.3473,-781.2831 76.3632,-769.4262 65,-752.7056 37.2654,-711.895 39.958,-651.9986 45.0503,-615.778"/>
<polygon fill="#000000" stroke="#000000" points="48.5261,-616.2036 46.6015,-605.785 41.609,-615.1298 48.5261,-616.2036"/>
<text text-anchor="middle" x="111" y="-692.7056" font-family="Times,serif" font-size="20.00" fill="#000000">13 levels</text>
</g>
<!-- SG_0_Node_5 -->
<g id="node9" class="node">
<title>SG_0_Node_5</title>
<polygon fill="none" stroke="#000000" points="208.5,-602.4924 103.5,-602.4924 103.5,-566.4924 208.5,-566.4924 208.5,-602.4924"/>
<text text-anchor="middle" x="156" y="-579.4924" font-family="Times,serif" font-size="20.00" fill="#000000">Location</text>
</g>
<!-- SG_0_Node_3&#45;&gt;SG_0_Node_5 -->
<g id="edge16" class="edge">
<title>SG_0_Node_3&#45;&gt;SG_0_Node_5</title>
<path fill="none" stroke="#000000" d="M174.3633,-789.4392C170.8753,-750.5108 162.6895,-659.1511 158.5267,-612.6918"/>
<polygon fill="#000000" stroke="#000000" points="162.0098,-612.346 157.6312,-602.6982 155.0377,-612.9707 162.0098,-612.346"/>
<text text-anchor="middle" x="190.5" y="-736.7056" font-family="Times,serif" font-size="20.00" fill="#000000">301</text>
<text text-anchor="middle" x="190.5" y="-714.7056" font-family="Times,serif" font-size="20.00" fill="#000000">302</text>
<text text-anchor="middle" x="190.5" y="-692.7056" font-family="Times,serif" font-size="20.00" fill="#000000">303</text>
<text text-anchor="middle" x="190.5" y="-670.7056" font-family="Times,serif" font-size="20.00" fill="#000000">307</text>
<text text-anchor="middle" x="190.5" y="-648.7056" font-family="Times,serif" font-size="20.00" fill="#000000">308</text>
</g>
<!-- SG_0_Node_6 -->
<g id="node10" class="node">
<title>SG_0_Node_6</title>
<polygon fill="none" stroke="#000000" points="489,-602.4924 227,-602.4924 227,-566.4924 489,-566.4924 489,-602.4924"/>
<text text-anchor="middle" x="358" y="-579.4924" font-family="Times,serif" font-size="20.00" fill="#000000">X&#45;Content&#45;Type&#45;Options</text>
</g>
<!-- SG_0_Node_4&#45;&gt;SG_0_Node_6 -->
<g id="edge7" class="edge">
<title>SG_0_Node_4&#45;&gt;SG_0_Node_6</title>
<path fill="none" stroke="#000000" d="M401.8256,-789.5975C388.6321,-780.3735 374.6781,-767.8792 367,-752.7056 344.3235,-707.8918 348.0213,-647.5038 352.9126,-612.6043"/>
<polygon fill="#000000" stroke="#000000" points="356.3847,-613.0522 354.441,-602.6372 349.4656,-611.9911 356.3847,-613.0522"/>
<text text-anchor="middle" x="406.5" y="-703.7056" font-family="Times,serif" font-size="20.00" fill="#000000">empty</text>
<text text-anchor="middle" x="406.5" y="-681.7056" font-family="Times,serif" font-size="20.00" fill="#000000">text/css</text>
</g>
<!-- SG_0_Node_12 -->
<g id="node11" class="node">
<title>SG_0_Node_12</title>
<ellipse fill="none" stroke="#000000" cx="542" cy="-584.4924" rx="34.7971" ry="21.4286"/>
<text text-anchor="middle" x="542" y="-579.4924" font-family="Times,serif" font-size="20.00" fill="#000000">1.0</text>
</g>
<!-- SG_0_Node_4&#45;&gt;SG_0_Node_12 -->
<g id="edge8" class="edge">
<title>SG_0_Node_4&#45;&gt;SG_0_Node_12</title>
<path fill="none" stroke="#000000" d="M442.8381,-789.4392C461.502,-750.8648 505.075,-660.8086 527.7373,-613.9705"/>
<polygon fill="#000000" stroke="#000000" points="530.9035,-615.4624 532.1084,-604.9363 524.6023,-612.4136 530.9035,-615.4624"/>
<text text-anchor="middle" x="567.5" y="-725.7056" font-family="Times,serif" font-size="20.00" fill="#000000">[NA]</text>
<text text-anchor="middle" x="567.5" y="-703.7056" font-family="Times,serif" font-size="20.00" fill="#000000">audio/wav</text>
<text text-anchor="middle" x="567.5" y="-681.7056" font-family="Times,serif" font-size="20.00" fill="#000000">image/png</text>
<text text-anchor="middle" x="567.5" y="-659.7056" font-family="Times,serif" font-size="20.00" fill="#000000">video/mp4</text>
</g>
<!-- SG_0_Node_13 -->
<g id="node12" class="node">
<title>SG_0_Node_13</title>
<ellipse fill="none" stroke="#000000" cx="51" cy="-424.066" rx="34.7971" ry="21.4286"/>
<text text-anchor="middle" x="51" y="-419.066" font-family="Times,serif" font-size="20.00" fill="#000000">0.0</text>
</g>
<!-- SG_0_Node_5&#45;&gt;SG_0_Node_13 -->
<g id="edge17" class="edge">
<title>SG_0_Node_5&#45;&gt;SG_0_Node_13</title>
<path fill="none" stroke="#000000" d="M114.3935,-566.2933C97.4073,-556.7834 79.1676,-543.4897 68,-526.2792 54.4297,-505.3658 50.5699,-477.1407 49.884,-455.6492"/>
<polygon fill="#000000" stroke="#000000" points="53.3813,-455.3633 49.7766,-445.4005 46.3817,-455.4367 53.3813,-455.3633"/>
<text text-anchor="middle" x="100" y="-499.2792" font-family="Times,serif" font-size="20.00" fill="#000000">empty</text>
</g>
<!-- SG_0_Node_14 -->
<g id="node13" class="node">
<title>SG_0_Node_14</title>
<ellipse fill="none" stroke="#000000" cx="139" cy="-424.066" rx="34.7971" ry="21.4286"/>
<text text-anchor="middle" x="139" y="-419.066" font-family="Times,serif" font-size="20.00" fill="#000000">1.0</text>
</g>
<!-- SG_0_Node_5&#45;&gt;SG_0_Node_14 -->
<g id="edge18" class="edge">
<title>SG_0_Node_5&#45;&gt;SG_0_Node_14</title>
<path fill="none" stroke="#000000" d="M149.2833,-566.4332C145.426,-555.0841 140.9677,-540.037 139,-526.2792 135.635,-502.7524 135.7909,-475.8666 136.7047,-455.5757"/>
<polygon fill="#000000" stroke="#000000" points="140.2134,-455.5056 137.2547,-445.3323 133.2235,-455.1302 140.2134,-455.5056"/>
<text text-anchor="middle" x="254" y="-510.2792" font-family="Times,serif" font-size="20.00" fill="#000000">[NA]</text>
<text text-anchor="middle" x="254" y="-488.2792" font-family="Times,serif" font-size="20.00" fill="#000000">http://172.17.0.1:8000</text>
</g>
<!-- SG_0_Node_7 -->
<g id="node14" class="node">
<title>SG_0_Node_7</title>
<polygon fill="none" stroke="#000000" points="430,-442.066 288,-442.066 288,-406.066 430,-406.066 430,-442.066"/>
<text text-anchor="middle" x="359" y="-419.066" font-family="Times,serif" font-size="20.00" fill="#000000">Status&#45;Code</text>
</g>
<!-- SG_0_Node_6&#45;&gt;SG_0_Node_7 -->
<g id="edge9" class="edge">
<title>SG_0_Node_6&#45;&gt;SG_0_Node_7</title>
<path fill="none" stroke="#000000" d="M363.9291,-566.3693C367.3336,-554.9961 371.2675,-539.9461 373,-526.2792 375.4593,-506.8789 375.3023,-501.6988 373,-482.2792 371.8137,-472.273 369.5184,-461.4979 367.1241,-451.9708"/>
<polygon fill="#000000" stroke="#000000" points="370.4838,-450.9854 364.535,-442.2183 363.7182,-452.7816 370.4838,-450.9854"/>
<text text-anchor="middle" x="406" y="-499.2792" font-family="Times,serif" font-size="20.00" fill="#000000">empty</text>
</g>
<!-- SG_0_Node_15 -->
<g id="node15" class="node">
<title>SG_0_Node_15</title>
<ellipse fill="none" stroke="#000000" cx="505" cy="-424.066" rx="34.7971" ry="21.4286"/>
<text text-anchor="middle" x="505" y="-419.066" font-family="Times,serif" font-size="20.00" fill="#000000">1.0</text>
</g>
<!-- SG_0_Node_6&#45;&gt;SG_0_Node_15 -->
<g id="edge10" class="edge">
<title>SG_0_Node_6&#45;&gt;SG_0_Node_15</title>
<path fill="none" stroke="#000000" d="M390.7118,-566.255C407.3344,-555.9481 427.1098,-541.9907 442,-526.2792 462.4848,-504.6646 479.7258,-475.3433 490.9641,-453.6476"/>
<polygon fill="#000000" stroke="#000000" points="494.1664,-455.0707 495.55,-444.5666 487.9179,-451.9152 494.1664,-455.0707"/>
<text text-anchor="middle" x="509" y="-510.2792" font-family="Times,serif" font-size="20.00" fill="#000000">[NA]</text>
<text text-anchor="middle" x="509" y="-488.2792" font-family="Times,serif" font-size="20.00" fill="#000000">nosniff</text>
</g>
<!-- SG_0_Node_16 -->
<g id="node16" class="node">
<title>SG_0_Node_16</title>
<ellipse fill="none" stroke="#000000" cx="231" cy="-197.6396" rx="34.7971" ry="21.4286"/>
<text text-anchor="middle" x="231" y="-192.6396" font-family="Times,serif" font-size="20.00" fill="#000000">0.0</text>
</g>
<!-- SG_0_Node_7&#45;&gt;SG_0_Node_16 -->
<g id="edge11" class="edge">
<title>SG_0_Node_7&#45;&gt;SG_0_Node_16</title>
<path fill="none" stroke="#000000" d="M305.4043,-406.0488C286.2468,-396.9511 266.3616,-383.9128 254,-365.8528 225.9671,-324.8976 224.8604,-265.0468 227.3868,-228.8744"/>
<polygon fill="#000000" stroke="#000000" points="230.8757,-229.1518 228.2187,-218.8955 223.8999,-228.5701 230.8757,-229.1518"/>
<text text-anchor="middle" x="300" y="-305.8528" font-family="Times,serif" font-size="20.00" fill="#000000">13 levels</text>
</g>
<!-- SG_0_Node_8 -->
<g id="node17" class="node">
<title>SG_0_Node_8</title>
<polygon fill="none" stroke="#000000" points="399.5,-215.6396 294.5,-215.6396 294.5,-179.6396 399.5,-179.6396 399.5,-215.6396"/>
<text text-anchor="middle" x="347" y="-192.6396" font-family="Times,serif" font-size="20.00" fill="#000000">Location</text>
</g>
<!-- SG_0_Node_7&#45;&gt;SG_0_Node_8 -->
<g id="edge12" class="edge">
<title>SG_0_Node_7&#45;&gt;SG_0_Node_8</title>
<path fill="none" stroke="#000000" d="M358.0383,-405.9193C355.9537,-366.5867 351.0059,-273.2266 348.5039,-226.0173"/>
<polygon fill="#000000" stroke="#000000" points="351.9907,-225.6734 347.9663,-215.8727 345.0005,-226.044 351.9907,-225.6734"/>
<text text-anchor="middle" x="374.5" y="-349.8528" font-family="Times,serif" font-size="20.00" fill="#000000">301</text>
<text text-anchor="middle" x="374.5" y="-327.8528" font-family="Times,serif" font-size="20.00" fill="#000000">302</text>
<text text-anchor="middle" x="374.5" y="-305.8528" font-family="Times,serif" font-size="20.00" fill="#000000">303</text>
<text text-anchor="middle" x="374.5" y="-283.8528" font-family="Times,serif" font-size="20.00" fill="#000000">307</text>
<text text-anchor="middle" x="374.5" y="-261.8528" font-family="Times,serif" font-size="20.00" fill="#000000">308</text>
</g>
<!-- SG_0_Node_17 -->
<g id="node18" class="node">
<title>SG_0_Node_17</title>
<ellipse fill="none" stroke="#000000" cx="247" cy="-37.2132" rx="34.7971" ry="21.4286"/>
<text text-anchor="middle" x="247" y="-32.2132" font-family="Times,serif" font-size="20.00" fill="#000000">0.0</text>
</g>
<!-- SG_0_Node_8&#45;&gt;SG_0_Node_17 -->
<g id="edge13" class="edge">
<title>SG_0_Node_8&#45;&gt;SG_0_Node_17</title>
<path fill="none" stroke="#000000" d="M319.1919,-179.4969C305.3723,-169.2159 289.4393,-155.2532 279,-139.4264 264.8342,-117.9501 256.6333,-89.8314 252.0876,-68.5235"/>
<polygon fill="#000000" stroke="#000000" points="255.5126,-67.8007 250.1396,-58.6694 248.6455,-69.1583 255.5126,-67.8007"/>
<text text-anchor="middle" x="311" y="-112.4264" font-family="Times,serif" font-size="20.00" fill="#000000">empty</text>
</g>
<!-- SG_0_Node_18 -->
<g id="node19" class="node">
<title>SG_0_Node_18</title>
<ellipse fill="none" stroke="#000000" cx="347" cy="-37.2132" rx="34.7971" ry="21.4286"/>
<text text-anchor="middle" x="347" y="-32.2132" font-family="Times,serif" font-size="20.00" fill="#000000">1.0</text>
</g>
<!-- SG_0_Node_8&#45;&gt;SG_0_Node_18 -->
<g id="edge14" class="edge">
<title>SG_0_Node_8&#45;&gt;SG_0_Node_18</title>
<path fill="none" stroke="#000000" d="M347,-179.5485C347,-152.6336 347,-101.6751 347,-68.5978"/>
<polygon fill="#000000" stroke="#000000" points="350.5001,-68.5399 347,-58.5399 343.5001,-68.5399 350.5001,-68.5399"/>
<text text-anchor="middle" x="462" y="-123.4264" font-family="Times,serif" font-size="20.00" fill="#000000">[NA]</text>
<text text-anchor="middle" x="462" y="-101.4264" font-family="Times,serif" font-size="20.00" fill="#000000">http://172.17.0.1:8000</text>
</g>
</g>
</svg>
