<?xml version="1.0" encoding="UTF-8" standalone="no"?>
<!DOCTYPE svg PUBLIC "-//W3C//DTD SVG 1.1//EN"
 "http://www.w3.org/Graphics/SVG/1.1/DTD/svg11.dtd">
<!-- Generated by graphviz version 2.40.1 (20161225.0304)
 -->
<!-- Title: G Pages: 1 -->
<svg width="696pt" height="1238pt"
 viewBox="0.00 0.00 696.00 1238.13" xmlns="http://www.w3.org/2000/svg" xmlns:xlink="http://www.w3.org/1999/xlink">
<g id="graph0" class="graph" transform="scale(1 1) rotate(0) translate(4 1234.132)">
<title>G</title>
<polygon fill="#ffffff" stroke="transparent" points="-4,4 -4,-1234.132 692,-1234.132 692,4 -4,4"/>
<g id="clust1" class="cluster">
<title>cluster_0</title>
<polygon fill="none" stroke="#000000" points="8,-8 8,-1222.132 657,-1222.132 657,-8 8,-8"/>
<text text-anchor="middle" x="332.5" y="-1186.132" font-family="Times,serif" font-size="40.00" fill="#000000">Tree 0, Class [&#39;error&#39;]</text>
</g>
<!-- SG_0_Node_0 -->
<g id="node1" class="node">
<title>SG_0_Node_0</title>
<polygon fill="none" stroke="#000000" points="367,-1162.132 225,-1162.132 225,-1126.132 367,-1126.132 367,-1162.132"/>
<text text-anchor="middle" x="296" y="-1139.132" font-family="Times,serif" font-size="20.00" fill="#000000">Status&#45;Code</text>
</g>
<!-- SG_0_Node_1 -->
<g id="node2" class="node">
<title>SG_0_Node_1</title>
<polygon fill="none" stroke="#000000" points="369.5,-1004.9188 52.5,-1004.9188 52.5,-968.9188 369.5,-968.9188 369.5,-1004.9188"/>
<text text-anchor="middle" x="211" y="-981.9188" font-family="Times,serif" font-size="20.00" fill="#000000">Cross&#45;Origin&#45;Resource&#45;Policy</text>
</g>
<!-- SG_0_Node_0&#45;&gt;SG_0_Node_1 -->
<g id="edge1" class="edge">
<title>SG_0_Node_0&#45;&gt;SG_0_Node_1</title>
<path fill="none" stroke="#000000" d="M286.2494,-1126.0977C271.4057,-1098.6432 243.0382,-1046.1756 225.6903,-1014.0895"/>
<polygon fill="#000000" stroke="#000000" points="228.7336,-1012.3591 220.8987,-1005.2271 222.576,-1015.6884 228.7336,-1012.3591"/>
<text text-anchor="middle" x="312" y="-1062.132" font-family="Times,serif" font-size="20.00" fill="#000000">18 levels</text>
</g>
<!-- SG_0_Node_8 -->
<g id="node3" class="node">
<title>SG_0_Node_8</title>
<ellipse fill="none" stroke="#000000" cx="422" cy="-986.9188" rx="34.7971" ry="21.4286"/>
<text text-anchor="middle" x="422" y="-981.9188" font-family="Times,serif" font-size="20.00" fill="#000000">1.0</text>
</g>
<!-- SG_0_Node_0&#45;&gt;SG_0_Node_8 -->
<g id="edge2" class="edge">
<title>SG_0_Node_0&#45;&gt;SG_0_Node_8</title>
<path fill="none" stroke="#000000" d="M321.6438,-1126.1065C334.6884,-1116.151 350.2296,-1103.0094 362,-1089.132 380.8985,-1066.8507 397.2909,-1037.8421 408.1434,-1016.423"/>
<polygon fill="#000000" stroke="#000000" points="411.2814,-1017.9731 412.5876,-1007.4591 405.0099,-1014.8638 411.2814,-1017.9731"/>
<text text-anchor="middle" x="437" y="-1073.132" font-family="Times,serif" font-size="20.00" fill="#000000">[NA]</text>
<text text-anchor="middle" x="437" y="-1051.132" font-family="Times,serif" font-size="20.00" fill="#000000">45 levels</text>
</g>
<!-- SG_0_Node_2 -->
<g id="node4" class="node">
<title>SG_0_Node_2</title>
<polygon fill="none" stroke="#000000" points="298,-844.4924 36,-844.4924 36,-808.4924 298,-808.4924 298,-844.4924"/>
<text text-anchor="middle" x="167" y="-821.4924" font-family="Times,serif" font-size="20.00" fill="#000000">X&#45;Content&#45;Type&#45;Options</text>
</g>
<!-- SG_0_Node_1&#45;&gt;SG_0_Node_2 -->
<g id="edge3" class="edge">
<title>SG_0_Node_1&#45;&gt;SG_0_Node_2</title>
<path fill="none" stroke="#000000" d="M206.0382,-968.8277C198.4129,-941.0255 183.7512,-887.5683 174.727,-854.6655"/>
<polygon fill="#000000" stroke="#000000" points="178.0316,-853.4816 172.0112,-844.7636 171.2809,-855.3332 178.0316,-853.4816"/>
<text text-anchor="middle" x="226" y="-901.7056" font-family="Times,serif" font-size="20.00" fill="#000000">empty</text>
</g>
<!-- SG_0_Node_9 -->
<g id="node5" class="node">
<title>SG_0_Node_9</title>
<ellipse fill="none" stroke="#000000" cx="351" cy="-826.4924" rx="34.7971" ry="21.4286"/>
<text text-anchor="middle" x="351" y="-821.4924" font-family="Times,serif" font-size="20.00" fill="#000000">1.0</text>
</g>
<!-- SG_0_Node_1&#45;&gt;SG_0_Node_9 -->
<g id="edge4" class="edge">
<title>SG_0_Node_1&#45;&gt;SG_0_Node_9</title>
<path fill="none" stroke="#000000" d="M226.8653,-968.8382C236.9381,-957.3518 250.2444,-942.1651 262,-928.7056 284.4098,-903.0477 309.9383,-873.7188 327.8902,-853.0778"/>
<polygon fill="#000000" stroke="#000000" points="330.6928,-855.1888 334.6137,-845.3461 325.4106,-850.5954 330.6928,-855.1888"/>
<text text-anchor="middle" x="361" y="-912.7056" font-family="Times,serif" font-size="20.00" fill="#000000">[NA]</text>
<text text-anchor="middle" x="361" y="-890.7056" font-family="Times,serif" font-size="20.00" fill="#000000">same&#45;origin</text>
</g>
<!-- SG_0_Node_3 -->
<g id="node6" class="node">
<title>SG_0_Node_3</title>
<polygon fill="none" stroke="#000000" points="195,-687.2792 53,-687.2792 53,-651.2792 195,-651.2792 195,-687.2792"/>
<text text-anchor="middle" x="124" y="-664.2792" font-family="Times,serif" font-size="20.00" fill="#000000">Status&#45;Code</text>
</g>
<!-- SG_0_Node_2&#45;&gt;SG_0_Node_3 -->
<g id="edge5" class="edge">
<title>SG_0_Node_2&#45;&gt;SG_0_Node_3</title>
<path fill="none" stroke="#000000" d="M162.0674,-808.4581C154.6226,-781.2393 140.4534,-729.4348 131.6588,-697.2806"/>
<polygon fill="#000000" stroke="#000000" points="135.0219,-696.3098 129.0076,-687.5875 128.2699,-698.1566 135.0219,-696.3098"/>
<text text-anchor="middle" x="182" y="-752.2792" font-family="Times,serif" font-size="20.00" fill="#000000">[NA]</text>
<text text-anchor="middle" x="182" y="-730.2792" font-family="Times,serif" font-size="20.00" fill="#000000">empty</text>
</g>
<!-- SG_0_Node_4 -->
<g id="node7" class="node">
<title>SG_0_Node_4</title>
<polygon fill="none" stroke="#000000" points="368.5,-687.2792 213.5,-687.2792 213.5,-651.2792 368.5,-651.2792 368.5,-687.2792"/>
<text text-anchor="middle" x="291" y="-664.2792" font-family="Times,serif" font-size="20.00" fill="#000000">Content&#45;Type</text>
</g>
<!-- SG_0_Node_2&#45;&gt;SG_0_Node_4 -->
<g id="edge6" class="edge">
<title>SG_0_Node_2&#45;&gt;SG_0_Node_4</title>
<path fill="none" stroke="#000000" d="M183.4806,-808.477C193.6715,-797.1444 206.8835,-782.0991 218,-768.2792 237.2379,-744.3629 257.885,-716.095 272.2946,-695.9009"/>
<polygon fill="#000000" stroke="#000000" points="275.3197,-697.686 278.2572,-687.5065 269.6128,-693.6323 275.3197,-697.686"/>
<text text-anchor="middle" x="286" y="-741.2792" font-family="Times,serif" font-size="20.00" fill="#000000">nosniff</text>
</g>
<!-- SG_0_Node_10 -->
<g id="node8" class="node">
<title>SG_0_Node_10</title>
<ellipse fill="none" stroke="#000000" cx="51" cy="-424.066" rx="34.7971" ry="21.4286"/>
<text text-anchor="middle" x="51" y="-419.066" font-family="Times,serif" font-size="20.00" fill="#000000">0.0</text>
</g>
<!-- SG_0_Node_3&#45;&gt;SG_0_Node_10 -->
<g id="edge13" class="edge">
<title>SG_0_Node_3&#45;&gt;SG_0_Node_10</title>
<path fill="none" stroke="#000000" d="M75.9228,-651.0829C59.984,-642.4792 44.0223,-630.4609 35,-614.2792 6.8666,-563.8214 24.4678,-493.8803 38.5624,-454.388"/>
<polygon fill="#000000" stroke="#000000" points="41.923,-455.3927 42.131,-444.7999 35.3627,-452.951 41.923,-455.3927"/>
<text text-anchor="middle" x="81" y="-543.2792" font-family="Times,serif" font-size="20.00" fill="#000000">13 levels</text>
</g>
<!-- SG_0_Node_5 -->
<g id="node9" class="node">
<title>SG_0_Node_5</title>
<polygon fill="none" stroke="#000000" points="208.5,-442.066 103.5,-442.066 103.5,-406.066 208.5,-406.066 208.5,-442.066"/>
<text text-anchor="middle" x="156" y="-419.066" font-family="Times,serif" font-size="20.00" fill="#000000">Location</text>
</g>
<!-- SG_0_Node_3&#45;&gt;SG_0_Node_5 -->
<g id="edge14" class="edge">
<title>SG_0_Node_3&#45;&gt;SG_0_Node_5</title>
<path fill="none" stroke="#000000" d="M126.353,-651.2481C131.8778,-608.912 145.712,-502.9024 152.3434,-452.0866"/>
<polygon fill="#000000" stroke="#000000" points="155.82,-452.4924 153.6435,-442.1236 148.8788,-451.5865 155.82,-452.4924"/>
<text text-anchor="middle" x="167.5" y="-587.2792" font-family="Times,serif" font-size="20.00" fill="#000000">301</text>
<text text-anchor="middle" x="167.5" y="-565.2792" font-family="Times,serif" font-size="20.00" fill="#000000">302</text>
<text text-anchor="middle" x="167.5" y="-543.2792" font-family="Times,serif" font-size="20.00" fill="#000000">303</text>
<text text-anchor="middle" x="167.5" y="-521.2792" font-family="Times,serif" font-size="20.00" fill="#000000">307</text>
<text text-anchor="middle" x="167.5" y="-499.2792" font-family="Times,serif" font-size="20.00" fill="#000000">308</text>
</g>
<!-- SG_0_Node_6 -->
<g id="node10" class="node">
<title>SG_0_Node_6</title>
<polygon fill="none" stroke="#000000" points="424,-442.066 282,-442.066 282,-406.066 424,-406.066 424,-442.066"/>
<text text-anchor="middle" x="353" y="-419.066" font-family="Times,serif" font-size="20.00" fill="#000000">Status&#45;Code</text>
</g>
<!-- SG_0_Node_4&#45;&gt;SG_0_Node_6 -->
<g id="edge7" class="edge">
<title>SG_0_Node_4&#45;&gt;SG_0_Node_6</title>
<path fill="none" stroke="#000000" d="M273.2562,-651.1065C264.7477,-641.1108 255.4545,-627.9775 251,-614.2792 232.8577,-558.4882 221.54,-533.0127 251,-482.2792 259.8157,-467.0976 274.2396,-455.5431 289.5021,-446.8931"/>
<polygon fill="#000000" stroke="#000000" points="291.331,-449.8858 298.5493,-442.1304 288.0701,-443.6917 291.331,-449.8858"/>
<text text-anchor="middle" x="328" y="-565.2792" font-family="Times,serif" font-size="20.00" fill="#000000">application/pdf</text>
<text text-anchor="middle" x="328" y="-543.2792" font-family="Times,serif" font-size="20.00" fill="#000000">text/css</text>
<text text-anchor="middle" x="328" y="-521.2792" font-family="Times,serif" font-size="20.00" fill="#000000">text/html</text>
</g>
<!-- SG_0_Node_11 -->
<g id="node11" class="node">
<title>SG_0_Node_11</title>
<ellipse fill="none" stroke="#000000" cx="477" cy="-424.066" rx="34.7971" ry="21.4286"/>
<text text-anchor="middle" x="477" y="-419.066" font-family="Times,serif" font-size="20.00" fill="#000000">1.0</text>
</g>
<!-- SG_0_Node_4&#45;&gt;SG_0_Node_11 -->
<g id="edge8" class="edge">
<title>SG_0_Node_4&#45;&gt;SG_0_Node_11</title>
<path fill="none" stroke="#000000" d="M349.2808,-651.2065C369.102,-642.6589 390.0089,-630.6456 405,-614.2792 446.7956,-568.6494 465.1087,-496.3556 472.5034,-455.2861"/>
<polygon fill="#000000" stroke="#000000" points="475.974,-455.7533 474.1946,-445.309 469.0725,-454.5834 475.974,-455.7533"/>
<text text-anchor="middle" x="577" y="-598.2792" font-family="Times,serif" font-size="20.00" fill="#000000">[NA]</text>
<text text-anchor="middle" x="577" y="-576.2792" font-family="Times,serif" font-size="20.00" fill="#000000">application/javascript</text>
<text text-anchor="middle" x="577" y="-554.2792" font-family="Times,serif" font-size="20.00" fill="#000000">audio/wav</text>
<text text-anchor="middle" x="577" y="-532.2792" font-family="Times,serif" font-size="20.00" fill="#000000">empty</text>
<text text-anchor="middle" x="577" y="-510.2792" font-family="Times,serif" font-size="20.00" fill="#000000">image/png</text>
<text text-anchor="middle" x="577" y="-488.2792" font-family="Times,serif" font-size="20.00" fill="#000000">video/mp4</text>
</g>
<!-- SG_0_Node_12 -->
<g id="node12" class="node">
<title>SG_0_Node_12</title>
<ellipse fill="none" stroke="#000000" cx="51" cy="-197.6396" rx="34.7971" ry="21.4286"/>
<text text-anchor="middle" x="51" y="-192.6396" font-family="Times,serif" font-size="20.00" fill="#000000">0.0</text>
</g>
<!-- SG_0_Node_5&#45;&gt;SG_0_Node_12 -->
<g id="edge15" class="edge">
<title>SG_0_Node_5&#45;&gt;SG_0_Node_12</title>
<path fill="none" stroke="#000000" d="M109.3196,-405.8706C91.8092,-396.5985 73.6009,-383.483 63,-365.8528 37.7739,-323.8993 40.3809,-264.9909 45.2246,-229.1721"/>
<polygon fill="#000000" stroke="#000000" points="48.7519,-229.2496 46.7712,-218.8416 41.8291,-228.2131 48.7519,-229.2496"/>
<text text-anchor="middle" x="95" y="-316.8528" font-family="Times,serif" font-size="20.00" fill="#000000">[NA]</text>
<text text-anchor="middle" x="95" y="-294.8528" font-family="Times,serif" font-size="20.00" fill="#000000">empty</text>
</g>
<!-- SG_0_Node_13 -->
<g id="node13" class="node">
<title>SG_0_Node_13</title>
<ellipse fill="none" stroke="#000000" cx="138" cy="-197.6396" rx="34.7971" ry="21.4286"/>
<text text-anchor="middle" x="138" y="-192.6396" font-family="Times,serif" font-size="20.00" fill="#000000">1.0</text>
</g>
<!-- SG_0_Node_5&#45;&gt;SG_0_Node_13 -->
<g id="edge16" class="edge">
<title>SG_0_Node_5&#45;&gt;SG_0_Node_13</title>
<path fill="none" stroke="#000000" d="M148.0007,-405.8586C143.4889,-394.5805 138.3058,-379.6607 136,-365.8528 128.1216,-318.6743 131.1421,-263.0147 134.3409,-229.0346"/>
<polygon fill="#000000" stroke="#000000" points="137.8517,-229.1026 135.3721,-218.8021 130.887,-228.4007 137.8517,-229.1026"/>
<text text-anchor="middle" x="251" y="-305.8528" font-family="Times,serif" font-size="20.00" fill="#000000">http://172.17.0.1:8000</text>
</g>
<!-- SG_0_Node_14 -->
<g id="node14" class="node">
<title>SG_0_Node_14</title>
<ellipse fill="none" stroke="#000000" cx="358" cy="-197.6396" rx="34.7971" ry="21.4286"/>
<text text-anchor="middle" x="358" y="-192.6396" font-family="Times,serif" font-size="20.00" fill="#000000">0.0</text>
</g>
<!-- SG_0_Node_6&#45;&gt;SG_0_Node_14 -->
<g id="edge9" class="edge">
<title>SG_0_Node_6&#45;&gt;SG_0_Node_14</title>
<path fill="none" stroke="#000000" d="M359.7167,-406.0068C363.574,-394.6577 368.0323,-379.6105 370,-365.8528 376.922,-317.4564 374.9608,-304.4894 370,-255.8528 369.0894,-246.9249 367.4125,-237.3445 365.5952,-228.5854"/>
<polygon fill="#000000" stroke="#000000" points="369.0023,-227.7825 363.4347,-218.7686 362.1659,-229.2871 369.0023,-227.7825"/>
<text text-anchor="middle" x="420" y="-305.8528" font-family="Times,serif" font-size="20.00" fill="#000000">13 levels</text>
</g>
<!-- SG_0_Node_7 -->
<g id="node15" class="node">
<title>SG_0_Node_7</title>
<polygon fill="none" stroke="#000000" points="515.5,-215.6396 410.5,-215.6396 410.5,-179.6396 515.5,-179.6396 515.5,-215.6396"/>
<text text-anchor="middle" x="463" y="-192.6396" font-family="Times,serif" font-size="20.00" fill="#000000">Location</text>
</g>
<!-- SG_0_Node_6&#45;&gt;SG_0_Node_7 -->
<g id="edge10" class="edge">
<title>SG_0_Node_6&#45;&gt;SG_0_Node_7</title>
<path fill="none" stroke="#000000" d="M419.5405,-405.9705C439.2109,-397.1843 458.5312,-384.369 470,-365.8528 496.6856,-322.7692 484.0127,-260.8836 473.0541,-225.4276"/>
<polygon fill="#000000" stroke="#000000" points="476.3246,-224.1673 469.8984,-215.7438 469.6691,-226.3362 476.3246,-224.1673"/>
<text text-anchor="middle" x="504.5" y="-349.8528" font-family="Times,serif" font-size="20.00" fill="#000000">301</text>
<text text-anchor="middle" x="504.5" y="-327.8528" font-family="Times,serif" font-size="20.00" fill="#000000">302</text>
<text text-anchor="middle" x="504.5" y="-305.8528" font-family="Times,serif" font-size="20.00" fill="#000000">303</text>
<text text-anchor="middle" x="504.5" y="-283.8528" font-family="Times,serif" font-size="20.00" fill="#000000">307</text>
<text text-anchor="middle" x="504.5" y="-261.8528" font-family="Times,serif" font-size="20.00" fill="#000000">308</text>
</g>
<!-- SG_0_Node_15 -->
<g id="node16" class="node">
<title>SG_0_Node_15</title>
<ellipse fill="none" stroke="#000000" cx="319" cy="-37.2132" rx="34.7971" ry="21.4286"/>
<text text-anchor="middle" x="319" y="-32.2132" font-family="Times,serif" font-size="20.00" fill="#000000">0.0</text>
</g>
<!-- SG_0_Node_7&#45;&gt;SG_0_Node_15 -->
<g id="edge11" class="edge">
<title>SG_0_Node_7&#45;&gt;SG_0_Node_15</title>
<path fill="none" stroke="#000000" d="M421.8337,-179.5366C403.2461,-169.7678 382.1178,-156.2392 367,-139.4264 348.5547,-118.9131 335.8845,-90.0687 328.2136,-68.2496"/>
<polygon fill="#000000" stroke="#000000" points="331.4345,-66.8453 324.9422,-58.4727 324.7963,-69.0665 331.4345,-66.8453"/>
<text text-anchor="middle" x="399" y="-112.4264" font-family="Times,serif" font-size="20.00" fill="#000000">empty</text>
</g>
<!-- SG_0_Node_16 -->
<g id="node17" class="node">
<title>SG_0_Node_16</title>
<ellipse fill="none" stroke="#000000" cx="419" cy="-37.2132" rx="34.7971" ry="21.4286"/>
<text text-anchor="middle" x="419" y="-32.2132" font-family="Times,serif" font-size="20.00" fill="#000000">1.0</text>
</g>
<!-- SG_0_Node_7&#45;&gt;SG_0_Node_16 -->
<g id="edge12" class="edge">
<title>SG_0_Node_7&#45;&gt;SG_0_Node_16</title>
<path fill="none" stroke="#000000" d="M458.0382,-179.5485C450.636,-152.5596 436.6031,-101.3949 427.5332,-68.3256"/>
<polygon fill="#000000" stroke="#000000" points="430.7979,-66.9963 424.7775,-58.2782 424.0472,-68.8479 430.7979,-66.9963"/>
<text text-anchor="middle" x="561" y="-123.4264" font-family="Times,serif" font-size="20.00" fill="#000000">[NA]</text>
<text text-anchor="middle" x="561" y="-101.4264" font-family="Times,serif" font-size="20.00" fill="#000000">http://172.17.0.1:8000</text>
</g>
</g>
</svg>
