<?xml version="1.0" encoding="UTF-8" standalone="no"?>
<!DOCTYPE svg PUBLIC "-//W3C//DTD SVG 1.1//EN"
 "http://www.w3.org/Graphics/SVG/1.1/DTD/svg11.dtd">
<!-- Generated by graphviz version 2.40.1 (20161225.0304)
 -->
<!-- Title: G Pages: 1 -->
<svg width="662pt" height="1779pt"
 viewBox="0.00 0.00 662.00 1778.98" xmlns="http://www.w3.org/2000/svg" xmlns:xlink="http://www.w3.org/1999/xlink">
<g id="graph0" class="graph" transform="scale(1 1) rotate(0) translate(4 1774.9848)">
<title>G</title>
<polygon fill="#ffffff" stroke="transparent" points="-4,4 -4,-1774.9848 658,-1774.9848 658,4 -4,4"/>
<g id="clust1" class="cluster">
<title>cluster_0</title>
<polygon fill="none" stroke="#000000" points="8,-8 8,-1762.9848 628,-1762.9848 628,-8 8,-8"/>
<text text-anchor="middle" x="318" y="-1726.9848" font-family="Times,serif" font-size="40.00" fill="#000000">Tree 0, Class [&#39;error&#39;]</text>
</g>
<!-- SG_0_Node_0 -->
<g id="node1" class="node">
<title>SG_0_Node_0</title>
<polygon fill="none" stroke="#000000" points="320.5,-1702.9848 255.5,-1702.9848 255.5,-1666.9848 320.5,-1666.9848 320.5,-1702.9848"/>
<text text-anchor="middle" x="288" y="-1679.9848" font-family="Times,serif" font-size="20.00" fill="#000000">body</text>
</g>
<!-- SG_0_Node_1 -->
<g id="node2" class="node">
<title>SG_0_Node_1</title>
<polygon fill="none" stroke="#000000" points="333.5,-1545.7716 16.5,-1545.7716 16.5,-1509.7716 333.5,-1509.7716 333.5,-1545.7716"/>
<text text-anchor="middle" x="175" y="-1522.7716" font-family="Times,serif" font-size="20.00" fill="#000000">Cross&#45;Origin&#45;Resource&#45;Policy</text>
</g>
<!-- SG_0_Node_0&#45;&gt;SG_0_Node_1 -->
<g id="edge1" class="edge">
<title>SG_0_Node_0&#45;&gt;SG_0_Node_1</title>
<path fill="none" stroke="#000000" d="M255.4293,-1682.3873C196.1656,-1676.9122 74.4562,-1661.9646 49,-1629.9848 36.821,-1614.6848 38.4637,-1602.4592 49,-1585.9848 59.0781,-1570.2269 74.6294,-1558.6729 91.408,-1550.2223"/>
<polygon fill="#000000" stroke="#000000" points="93.2381,-1553.2312 100.8287,-1545.8398 90.2855,-1546.8843 93.2381,-1553.2312"/>
<text text-anchor="middle" x="277.5" y="-1602.9848" font-family="Times,serif" font-size="20.00" fill="#000000">ecocnt_img=width=50,height=50,type=png</text>
</g>
<!-- SG_0_Node_11 -->
<g id="node3" class="node">
<title>SG_0_Node_11</title>
<ellipse fill="none" stroke="#000000" cx="528" cy="-1527.7716" rx="34.7971" ry="21.4286"/>
<text text-anchor="middle" x="528" y="-1522.7716" font-family="Times,serif" font-size="20.00" fill="#000000">1.0</text>
</g>
<!-- SG_0_Node_0&#45;&gt;SG_0_Node_11 -->
<g id="edge2" class="edge">
<title>SG_0_Node_0&#45;&gt;SG_0_Node_11</title>
<path fill="none" stroke="#000000" d="M320.5783,-1680.9919C374.8923,-1673.6698 480.5152,-1656.3812 506,-1629.9848 523.9587,-1611.3839 528.7436,-1581.8379 529.4549,-1559.2855"/>
<polygon fill="#000000" stroke="#000000" points="532.9555,-1559.1913 529.5225,-1549.1681 525.9557,-1559.1444 532.9555,-1559.1913"/>
<text text-anchor="middle" x="572" y="-1613.9848" font-family="Times,serif" font-size="20.00" fill="#000000">[NA]</text>
<text text-anchor="middle" x="572" y="-1591.9848" font-family="Times,serif" font-size="20.00" fill="#000000">11 levels</text>
</g>
<!-- SG_0_Node_2 -->
<g id="node4" class="node">
<title>SG_0_Node_2</title>
<polygon fill="none" stroke="#000000" points="211.5,-1385.3452 56.5,-1385.3452 56.5,-1349.3452 211.5,-1349.3452 211.5,-1385.3452"/>
<text text-anchor="middle" x="134" y="-1362.3452" font-family="Times,serif" font-size="20.00" fill="#000000">Content&#45;Type</text>
</g>
<!-- SG_0_Node_1&#45;&gt;SG_0_Node_2 -->
<g id="edge3" class="edge">
<title>SG_0_Node_1&#45;&gt;SG_0_Node_2</title>
<path fill="none" stroke="#000000" d="M170.3765,-1509.6805C163.2711,-1481.8783 149.6091,-1428.4211 141.2002,-1395.5183"/>
<polygon fill="#000000" stroke="#000000" points="144.5367,-1394.4383 138.6695,-1385.6164 137.7547,-1396.1716 144.5367,-1394.4383"/>
<text text-anchor="middle" x="191" y="-1442.5584" font-family="Times,serif" font-size="20.00" fill="#000000">empty</text>
</g>
<!-- SG_0_Node_12 -->
<g id="node5" class="node">
<title>SG_0_Node_12</title>
<ellipse fill="none" stroke="#000000" cx="264" cy="-1367.3452" rx="34.7971" ry="21.4286"/>
<text text-anchor="middle" x="264" y="-1362.3452" font-family="Times,serif" font-size="20.00" fill="#000000">1.0</text>
</g>
<!-- SG_0_Node_1&#45;&gt;SG_0_Node_12 -->
<g id="edge4" class="edge">
<title>SG_0_Node_1&#45;&gt;SG_0_Node_12</title>
<path fill="none" stroke="#000000" d="M194.5845,-1509.5808C205.3116,-1498.778 218.1782,-1484.3358 227,-1469.5584 240.3845,-1447.1383 250.1091,-1419.0959 256.2202,-1398.0576"/>
<polygon fill="#000000" stroke="#000000" points="259.6131,-1398.9205 258.9302,-1388.3477 252.8708,-1397.0387 259.6131,-1398.9205"/>
<text text-anchor="middle" x="308" y="-1453.5584" font-family="Times,serif" font-size="20.00" fill="#000000">[NA]</text>
<text text-anchor="middle" x="308" y="-1431.5584" font-family="Times,serif" font-size="20.00" fill="#000000">same&#45;origin</text>
</g>
<!-- SG_0_Node_3 -->
<g id="node6" class="node">
<title>SG_0_Node_3</title>
<polygon fill="none" stroke="#000000" points="202,-1118.132 60,-1118.132 60,-1082.132 202,-1082.132 202,-1118.132"/>
<text text-anchor="middle" x="131" y="-1095.132" font-family="Times,serif" font-size="20.00" fill="#000000">Status&#45;Code</text>
</g>
<!-- SG_0_Node_2&#45;&gt;SG_0_Node_3 -->
<g id="edge5" class="edge">
<title>SG_0_Node_2&#45;&gt;SG_0_Node_3</title>
<path fill="none" stroke="#000000" d="M133.7938,-1348.9786C133.2788,-1303.1034 131.9332,-1183.2569 131.3168,-1128.3485"/>
<polygon fill="#000000" stroke="#000000" points="134.8158,-1128.2339 131.2037,-1118.2739 127.8163,-1128.3126 134.8158,-1128.2339"/>
<text text-anchor="middle" x="244" y="-1293.132" font-family="Times,serif" font-size="20.00" fill="#000000">[NA]</text>
<text text-anchor="middle" x="244" y="-1271.132" font-family="Times,serif" font-size="20.00" fill="#000000">application/javascript</text>
<text text-anchor="middle" x="244" y="-1249.132" font-family="Times,serif" font-size="20.00" fill="#000000">audio/wav</text>
<text text-anchor="middle" x="244" y="-1227.132" font-family="Times,serif" font-size="20.00" fill="#000000">empty</text>
<text text-anchor="middle" x="244" y="-1205.132" font-family="Times,serif" font-size="20.00" fill="#000000">image/png</text>
<text text-anchor="middle" x="244" y="-1183.132" font-family="Times,serif" font-size="20.00" fill="#000000">text/css</text>
<text text-anchor="middle" x="244" y="-1161.132" font-family="Times,serif" font-size="20.00" fill="#000000">video/mp4</text>
</g>
<!-- SG_0_Node_4 -->
<g id="node7" class="node">
<title>SG_0_Node_4</title>
<polygon fill="none" stroke="#000000" points="520,-1118.132 258,-1118.132 258,-1082.132 520,-1082.132 520,-1118.132"/>
<text text-anchor="middle" x="389" y="-1095.132" font-family="Times,serif" font-size="20.00" fill="#000000">X&#45;Content&#45;Type&#45;Options</text>
</g>
<!-- SG_0_Node_2&#45;&gt;SG_0_Node_4 -->
<g id="edge6" class="edge">
<title>SG_0_Node_2&#45;&gt;SG_0_Node_4</title>
<path fill="none" stroke="#000000" d="M205.546,-1349.3271C270.9192,-1332.7898 357.6608,-1310.6282 359,-1309.132 404.0582,-1258.7927 399.7876,-1172.6091 393.8613,-1128.2838"/>
<polygon fill="#000000" stroke="#000000" points="397.2993,-1127.6048 392.3884,-1118.2169 390.3731,-1128.6182 397.2993,-1127.6048"/>
<text text-anchor="middle" x="474" y="-1238.132" font-family="Times,serif" font-size="20.00" fill="#000000">application/pdf</text>
<text text-anchor="middle" x="474" y="-1216.132" font-family="Times,serif" font-size="20.00" fill="#000000">text/html</text>
</g>
<!-- SG_0_Node_13 -->
<g id="node8" class="node">
<title>SG_0_Node_13</title>
<ellipse fill="none" stroke="#000000" cx="74" cy="-942.9188" rx="34.7971" ry="21.4286"/>
<text text-anchor="middle" x="74" y="-937.9188" font-family="Times,serif" font-size="20.00" fill="#000000">0.0</text>
</g>
<!-- SG_0_Node_3&#45;&gt;SG_0_Node_13 -->
<g id="edge17" class="edge">
<title>SG_0_Node_3&#45;&gt;SG_0_Node_13</title>
<path fill="none" stroke="#000000" d="M112.7207,-1081.8955C103.7918,-1071.8823 93.7561,-1058.7527 88,-1045.132 78.5597,-1022.7936 75.1891,-995.4921 74.1084,-974.7264"/>
<polygon fill="#000000" stroke="#000000" points="77.5984,-974.388 73.732,-964.5239 70.6031,-974.6461 77.5984,-974.388"/>
<text text-anchor="middle" x="134" y="-1029.132" font-family="Times,serif" font-size="20.00" fill="#000000">[NA]</text>
<text text-anchor="middle" x="134" y="-1007.132" font-family="Times,serif" font-size="20.00" fill="#000000">50 levels</text>
</g>
<!-- SG_0_Node_5 -->
<g id="node9" class="node">
<title>SG_0_Node_5</title>
<polygon fill="none" stroke="#000000" points="273,-960.9188 131,-960.9188 131,-924.9188 273,-924.9188 273,-960.9188"/>
<text text-anchor="middle" x="202" y="-937.9188" font-family="Times,serif" font-size="20.00" fill="#000000">Status&#45;Code</text>
</g>
<!-- SG_0_Node_3&#45;&gt;SG_0_Node_5 -->
<g id="edge18" class="edge">
<title>SG_0_Node_3&#45;&gt;SG_0_Node_5</title>
<path fill="none" stroke="#000000" d="M151.9107,-1081.6423C161.8506,-1071.7551 173.0515,-1058.8149 180,-1045.132 191.812,-1021.8719 197.2952,-992.5137 199.8328,-971.2352"/>
<polygon fill="#000000" stroke="#000000" points="203.322,-971.5207 200.8831,-961.2104 196.3601,-970.7913 203.322,-971.5207"/>
<text text-anchor="middle" x="240" y="-1018.132" font-family="Times,serif" font-size="20.00" fill="#000000">13 levels</text>
</g>
<!-- SG_0_Node_6 -->
<g id="node10" class="node">
<title>SG_0_Node_6</title>
<polygon fill="none" stroke="#000000" points="452.5,-960.9188 297.5,-960.9188 297.5,-924.9188 452.5,-924.9188 452.5,-960.9188"/>
<text text-anchor="middle" x="375" y="-937.9188" font-family="Times,serif" font-size="20.00" fill="#000000">Content&#45;Type</text>
</g>
<!-- SG_0_Node_4&#45;&gt;SG_0_Node_6 -->
<g id="edge7" class="edge">
<title>SG_0_Node_4&#45;&gt;SG_0_Node_6</title>
<path fill="none" stroke="#000000" d="M387.394,-1082.0977C384.9807,-1054.9967 380.3968,-1003.5225 377.5308,-971.3389"/>
<polygon fill="#000000" stroke="#000000" points="381.0037,-970.8772 376.6304,-961.2271 374.0313,-971.4982 381.0037,-970.8772"/>
<text text-anchor="middle" x="416" y="-1018.132" font-family="Times,serif" font-size="20.00" fill="#000000">empty</text>
</g>
<!-- SG_0_Node_14 -->
<g id="node11" class="node">
<title>SG_0_Node_14</title>
<ellipse fill="none" stroke="#000000" cx="505" cy="-942.9188" rx="34.7971" ry="21.4286"/>
<text text-anchor="middle" x="505" y="-937.9188" font-family="Times,serif" font-size="20.00" fill="#000000">1.0</text>
</g>
<!-- SG_0_Node_4&#45;&gt;SG_0_Node_14 -->
<g id="edge8" class="edge">
<title>SG_0_Node_4&#45;&gt;SG_0_Node_14</title>
<path fill="none" stroke="#000000" d="M414.029,-1081.9054C426.4816,-1071.9917 441.1494,-1058.9488 452,-1045.132 469.344,-1023.0468 483.613,-994.4198 492.959,-973.0818"/>
<polygon fill="#000000" stroke="#000000" points="496.1967,-974.4119 496.9,-963.8404 489.7577,-971.6659 496.1967,-974.4119"/>
<text text-anchor="middle" x="513" y="-1029.132" font-family="Times,serif" font-size="20.00" fill="#000000">[NA]</text>
<text text-anchor="middle" x="513" y="-1007.132" font-family="Times,serif" font-size="20.00" fill="#000000">nosniff</text>
</g>
<!-- SG_0_Node_7 -->
<g id="node12" class="node">
<title>SG_0_Node_7</title>
<polygon fill="none" stroke="#000000" points="175.5,-668.4924 70.5,-668.4924 70.5,-632.4924 175.5,-632.4924 175.5,-668.4924"/>
<text text-anchor="middle" x="123" y="-645.4924" font-family="Times,serif" font-size="20.00" fill="#000000">Location</text>
</g>
<!-- SG_0_Node_5&#45;&gt;SG_0_Node_7 -->
<g id="edge19" class="edge">
<title>SG_0_Node_5&#45;&gt;SG_0_Node_7</title>
<path fill="none" stroke="#000000" d="M187.4417,-924.8462C179.3187,-913.8567 169.7143,-899.1882 164,-884.7056 136.1462,-814.1115 127.1535,-724.1222 124.297,-679.0007"/>
<polygon fill="#000000" stroke="#000000" points="127.7783,-678.5727 123.7085,-668.7907 120.7899,-678.9756 127.7783,-678.5727"/>
<text text-anchor="middle" x="183.5" y="-835.7056" font-family="Times,serif" font-size="20.00" fill="#000000">301</text>
<text text-anchor="middle" x="183.5" y="-813.7056" font-family="Times,serif" font-size="20.00" fill="#000000">302</text>
<text text-anchor="middle" x="183.5" y="-791.7056" font-family="Times,serif" font-size="20.00" fill="#000000">303</text>
<text text-anchor="middle" x="183.5" y="-769.7056" font-family="Times,serif" font-size="20.00" fill="#000000">307</text>
<text text-anchor="middle" x="183.5" y="-747.7056" font-family="Times,serif" font-size="20.00" fill="#000000">308</text>
</g>
<!-- SG_0_Node_15 -->
<g id="node13" class="node">
<title>SG_0_Node_15</title>
<ellipse fill="none" stroke="#000000" cx="228" cy="-650.4924" rx="34.7971" ry="21.4286"/>
<text text-anchor="middle" x="228" y="-645.4924" font-family="Times,serif" font-size="20.00" fill="#000000">1.0</text>
</g>
<!-- SG_0_Node_5&#45;&gt;SG_0_Node_15 -->
<g id="edge20" class="edge">
<title>SG_0_Node_5&#45;&gt;SG_0_Node_15</title>
<path fill="none" stroke="#000000" d="M203.6264,-924.6262C207.9473,-876.0286 219.7533,-743.244 225.1905,-682.0909"/>
<polygon fill="#000000" stroke="#000000" points="228.6986,-682.1549 226.098,-671.8842 221.7261,-681.5349 228.6986,-682.1549"/>
<text text-anchor="middle" x="241.5" y="-868.7056" font-family="Times,serif" font-size="20.00" fill="#000000">100</text>
<text text-anchor="middle" x="241.5" y="-846.7056" font-family="Times,serif" font-size="20.00" fill="#000000">101</text>
<text text-anchor="middle" x="241.5" y="-824.7056" font-family="Times,serif" font-size="20.00" fill="#000000">102</text>
<text text-anchor="middle" x="241.5" y="-802.7056" font-family="Times,serif" font-size="20.00" fill="#000000">103</text>
<text text-anchor="middle" x="241.5" y="-780.7056" font-family="Times,serif" font-size="20.00" fill="#000000">204</text>
<text text-anchor="middle" x="241.5" y="-758.7056" font-family="Times,serif" font-size="20.00" fill="#000000">205</text>
<text text-anchor="middle" x="241.5" y="-736.7056" font-family="Times,serif" font-size="20.00" fill="#000000">304</text>
<text text-anchor="middle" x="241.5" y="-714.7056" font-family="Times,serif" font-size="20.00" fill="#000000">407</text>
</g>
<!-- SG_0_Node_8 -->
<g id="node14" class="node">
<title>SG_0_Node_8</title>
<polygon fill="none" stroke="#000000" points="453,-668.4924 311,-668.4924 311,-632.4924 453,-632.4924 453,-668.4924"/>
<text text-anchor="middle" x="382" y="-645.4924" font-family="Times,serif" font-size="20.00" fill="#000000">Status&#45;Code</text>
</g>
<!-- SG_0_Node_6&#45;&gt;SG_0_Node_8 -->
<g id="edge9" class="edge">
<title>SG_0_Node_6&#45;&gt;SG_0_Node_8</title>
<path fill="none" stroke="#000000" d="M364.8861,-924.6729C359.2821,-913.5041 352.8802,-898.7113 350,-884.7056 334.2436,-808.0868 330.5484,-784.4707 350,-708.7056 352.8036,-697.7856 358.1323,-686.7168 363.6487,-677.2052"/>
<polygon fill="#000000" stroke="#000000" points="366.6708,-678.9723 368.919,-668.6187 360.7049,-675.3105 366.6708,-678.9723"/>
<text text-anchor="middle" x="397" y="-791.7056" font-family="Times,serif" font-size="20.00" fill="#000000">text/html</text>
</g>
<!-- SG_0_Node_16 -->
<g id="node15" class="node">
<title>SG_0_Node_16</title>
<ellipse fill="none" stroke="#000000" cx="506" cy="-650.4924" rx="34.7971" ry="21.4286"/>
<text text-anchor="middle" x="506" y="-645.4924" font-family="Times,serif" font-size="20.00" fill="#000000">1.0</text>
</g>
<!-- SG_0_Node_6&#45;&gt;SG_0_Node_16 -->
<g id="edge10" class="edge">
<title>SG_0_Node_6&#45;&gt;SG_0_Node_16</title>
<path fill="none" stroke="#000000" d="M403.8645,-924.7947C417.8865,-914.6102 433.8561,-900.7289 444,-884.7056 484.8071,-820.247 498.9127,-729.5609 503.6689,-682.1658"/>
<polygon fill="#000000" stroke="#000000" points="507.1814,-682.1913 504.6184,-671.9112 500.2112,-681.5459 507.1814,-682.1913"/>
<text text-anchor="middle" x="577" y="-791.7056" font-family="Times,serif" font-size="20.00" fill="#000000">application/pdf</text>
</g>
<!-- SG_0_Node_17 -->
<g id="node16" class="node">
<title>SG_0_Node_17</title>
<ellipse fill="none" stroke="#000000" cx="51" cy="-490.066" rx="34.7971" ry="21.4286"/>
<text text-anchor="middle" x="51" y="-485.066" font-family="Times,serif" font-size="20.00" fill="#000000">0.0</text>
</g>
<!-- SG_0_Node_7&#45;&gt;SG_0_Node_17 -->
<g id="edge21" class="edge">
<title>SG_0_Node_7&#45;&gt;SG_0_Node_17</title>
<path fill="none" stroke="#000000" d="M95.2183,-632.2427C82.2099,-622.1144 67.8749,-608.3208 60,-592.2792 49.2551,-570.3914 47.4273,-542.6894 48.0529,-521.6475"/>
<polygon fill="#000000" stroke="#000000" points="51.5508,-521.7736 48.5488,-511.6129 44.5593,-521.4279 51.5508,-521.7736"/>
<text text-anchor="middle" x="92" y="-576.2792" font-family="Times,serif" font-size="20.00" fill="#000000">[NA]</text>
<text text-anchor="middle" x="92" y="-554.2792" font-family="Times,serif" font-size="20.00" fill="#000000">empty</text>
</g>
<!-- SG_0_Node_18 -->
<g id="node17" class="node">
<title>SG_0_Node_18</title>
<ellipse fill="none" stroke="#000000" cx="138" cy="-490.066" rx="34.7971" ry="21.4286"/>
<text text-anchor="middle" x="138" y="-485.066" font-family="Times,serif" font-size="20.00" fill="#000000">1.0</text>
</g>
<!-- SG_0_Node_7&#45;&gt;SG_0_Node_18 -->
<g id="edge22" class="edge">
<title>SG_0_Node_7&#45;&gt;SG_0_Node_18</title>
<path fill="none" stroke="#000000" d="M124.6915,-632.4013C127.2081,-605.4864 131.9728,-554.5279 135.0655,-521.4506"/>
<polygon fill="#000000" stroke="#000000" points="138.5597,-521.6752 136.0059,-511.3927 131.5901,-521.0234 138.5597,-521.6752"/>
<text text-anchor="middle" x="247" y="-565.2792" font-family="Times,serif" font-size="20.00" fill="#000000">http://172.17.0.1:8000</text>
</g>
<!-- SG_0_Node_19 -->
<g id="node18" class="node">
<title>SG_0_Node_19</title>
<ellipse fill="none" stroke="#000000" cx="400" cy="-490.066" rx="34.7971" ry="21.4286"/>
<text text-anchor="middle" x="400" y="-485.066" font-family="Times,serif" font-size="20.00" fill="#000000">0.0</text>
</g>
<!-- SG_0_Node_8&#45;&gt;SG_0_Node_19 -->
<g id="edge11" class="edge">
<title>SG_0_Node_8&#45;&gt;SG_0_Node_19</title>
<path fill="none" stroke="#000000" d="M384.0298,-632.4013C387.0497,-605.4864 392.7673,-554.5279 396.4786,-521.4506"/>
<polygon fill="#000000" stroke="#000000" points="399.9702,-521.7206 397.6071,-511.3927 393.0138,-520.9401 399.9702,-521.7206"/>
<text text-anchor="middle" x="439" y="-576.2792" font-family="Times,serif" font-size="20.00" fill="#000000">[NA]</text>
<text text-anchor="middle" x="439" y="-554.2792" font-family="Times,serif" font-size="20.00" fill="#000000">50 levels</text>
</g>
<!-- SG_0_Node_9 -->
<g id="node19" class="node">
<title>SG_0_Node_9</title>
<polygon fill="none" stroke="#000000" points="597,-508.066 455,-508.066 455,-472.066 597,-472.066 597,-508.066"/>
<text text-anchor="middle" x="526" y="-485.066" font-family="Times,serif" font-size="20.00" fill="#000000">Status&#45;Code</text>
</g>
<!-- SG_0_Node_8&#45;&gt;SG_0_Node_9 -->
<g id="edge12" class="edge">
<title>SG_0_Node_8&#45;&gt;SG_0_Node_9</title>
<path fill="none" stroke="#000000" d="M432.1896,-632.3738C452.1493,-623.0303 473.907,-609.8415 489,-592.2792 507.1581,-571.1504 516.6778,-540.4013 521.4839,-518.1527"/>
<polygon fill="#000000" stroke="#000000" points="524.9271,-518.782 523.4282,-508.2937 518.0594,-517.4275 524.9271,-518.782"/>
<text text-anchor="middle" x="558" y="-565.2792" font-family="Times,serif" font-size="20.00" fill="#000000">13 levels</text>
</g>
<!-- SG_0_Node_10 -->
<g id="node20" class="node">
<title>SG_0_Node_10</title>
<polygon fill="none" stroke="#000000" points="442.5,-215.6396 337.5,-215.6396 337.5,-179.6396 442.5,-179.6396 442.5,-215.6396"/>
<text text-anchor="middle" x="390" y="-192.6396" font-family="Times,serif" font-size="20.00" fill="#000000">Location</text>
</g>
<!-- SG_0_Node_9&#45;&gt;SG_0_Node_10 -->
<g id="edge13" class="edge">
<title>SG_0_Node_9&#45;&gt;SG_0_Node_10</title>
<path fill="none" stroke="#000000" d="M510.7687,-472.0184C501.8971,-460.9199 490.9325,-446.1314 483,-431.8528 443.6757,-361.0683 412.6016,-270.212 398.4031,-225.3061"/>
<polygon fill="#000000" stroke="#000000" points="401.7187,-224.1816 395.3964,-215.6799 395.0371,-226.2686 401.7187,-224.1816"/>
<text text-anchor="middle" x="502.5" y="-382.8528" font-family="Times,serif" font-size="20.00" fill="#000000">301</text>
<text text-anchor="middle" x="502.5" y="-360.8528" font-family="Times,serif" font-size="20.00" fill="#000000">302</text>
<text text-anchor="middle" x="502.5" y="-338.8528" font-family="Times,serif" font-size="20.00" fill="#000000">303</text>
<text text-anchor="middle" x="502.5" y="-316.8528" font-family="Times,serif" font-size="20.00" fill="#000000">307</text>
<text text-anchor="middle" x="502.5" y="-294.8528" font-family="Times,serif" font-size="20.00" fill="#000000">308</text>
</g>
<!-- SG_0_Node_20 -->
<g id="node21" class="node">
<title>SG_0_Node_20</title>
<ellipse fill="none" stroke="#000000" cx="526" cy="-197.6396" rx="34.7971" ry="21.4286"/>
<text text-anchor="middle" x="526" y="-192.6396" font-family="Times,serif" font-size="20.00" fill="#000000">1.0</text>
</g>
<!-- SG_0_Node_9&#45;&gt;SG_0_Node_20 -->
<g id="edge14" class="edge">
<title>SG_0_Node_9&#45;&gt;SG_0_Node_20</title>
<path fill="none" stroke="#000000" d="M526,-471.7734C526,-423.1758 526,-290.3912 526,-229.2381"/>
<polygon fill="#000000" stroke="#000000" points="529.5001,-229.0313 526,-219.0313 522.5001,-229.0314 529.5001,-229.0313"/>
<text text-anchor="middle" x="545.5" y="-415.8528" font-family="Times,serif" font-size="20.00" fill="#000000">100</text>
<text text-anchor="middle" x="545.5" y="-393.8528" font-family="Times,serif" font-size="20.00" fill="#000000">101</text>
<text text-anchor="middle" x="545.5" y="-371.8528" font-family="Times,serif" font-size="20.00" fill="#000000">102</text>
<text text-anchor="middle" x="545.5" y="-349.8528" font-family="Times,serif" font-size="20.00" fill="#000000">103</text>
<text text-anchor="middle" x="545.5" y="-327.8528" font-family="Times,serif" font-size="20.00" fill="#000000">204</text>
<text text-anchor="middle" x="545.5" y="-305.8528" font-family="Times,serif" font-size="20.00" fill="#000000">205</text>
<text text-anchor="middle" x="545.5" y="-283.8528" font-family="Times,serif" font-size="20.00" fill="#000000">304</text>
<text text-anchor="middle" x="545.5" y="-261.8528" font-family="Times,serif" font-size="20.00" fill="#000000">407</text>
</g>
<!-- SG_0_Node_21 -->
<g id="node22" class="node">
<title>SG_0_Node_21</title>
<ellipse fill="none" stroke="#000000" cx="290" cy="-37.2132" rx="34.7971" ry="21.4286"/>
<text text-anchor="middle" x="290" y="-32.2132" font-family="Times,serif" font-size="20.00" fill="#000000">0.0</text>
</g>
<!-- SG_0_Node_10&#45;&gt;SG_0_Node_21 -->
<g id="edge15" class="edge">
<title>SG_0_Node_10&#45;&gt;SG_0_Node_21</title>
<path fill="none" stroke="#000000" d="M362.1919,-179.4969C348.3723,-169.2159 332.4393,-155.2532 322,-139.4264 307.8342,-117.9501 299.6333,-89.8314 295.0876,-68.5235"/>
<polygon fill="#000000" stroke="#000000" points="298.5126,-67.8007 293.1396,-58.6694 291.6455,-69.1583 298.5126,-67.8007"/>
<text text-anchor="middle" x="354" y="-112.4264" font-family="Times,serif" font-size="20.00" fill="#000000">empty</text>
</g>
<!-- SG_0_Node_22 -->
<g id="node23" class="node">
<title>SG_0_Node_22</title>
<ellipse fill="none" stroke="#000000" cx="390" cy="-37.2132" rx="34.7971" ry="21.4286"/>
<text text-anchor="middle" x="390" y="-32.2132" font-family="Times,serif" font-size="20.00" fill="#000000">1.0</text>
</g>
<!-- SG_0_Node_10&#45;&gt;SG_0_Node_22 -->
<g id="edge16" class="edge">
<title>SG_0_Node_10&#45;&gt;SG_0_Node_22</title>
<path fill="none" stroke="#000000" d="M390,-179.5485C390,-152.6336 390,-101.6751 390,-68.5978"/>
<polygon fill="#000000" stroke="#000000" points="393.5001,-68.5399 390,-58.5399 386.5001,-68.5399 393.5001,-68.5399"/>
<text text-anchor="middle" x="505" y="-123.4264" font-family="Times,serif" font-size="20.00" fill="#000000">[NA]</text>
<text text-anchor="middle" x="505" y="-101.4264" font-family="Times,serif" font-size="20.00" fill="#000000">http://172.17.0.1:8000</text>
</g>
</g>
</svg>
