<?xml version="1.0" encoding="UTF-8" standalone="no"?>
<!DOCTYPE svg PUBLIC "-//W3C//DTD SVG 1.1//EN"
 "http://www.w3.org/Graphics/SVG/1.1/DTD/svg11.dtd">
<!-- Generated by graphviz version 2.40.1 (20161225.0304)
 -->
<!-- Title: G Pages: 1 -->
<svg width="1652pt" height="1801pt"
 viewBox="0.00 0.00 1652.00 1800.98" xmlns="http://www.w3.org/2000/svg" xmlns:xlink="http://www.w3.org/1999/xlink">
<g id="graph0" class="graph" transform="scale(1 1) rotate(0) translate(4 1796.9848)">
<title>G</title>
<polygon fill="#ffffff" stroke="transparent" points="-4,4 -4,-1796.9848 1648,-1796.9848 1648,4 -4,4"/>
<g id="clust1" class="cluster">
<title>cluster_0</title>
<polygon fill="none" stroke="#000000" points="8,-8 8,-1784.9848 1636,-1784.9848 1636,-8 8,-8"/>
<text text-anchor="middle" x="822" y="-1748.9848" font-family="Times,serif" font-size="40.00" fill="#000000">Tree 0, Class URL: http://172.17.0.1:8000 Directive: frame&#45;src StatusCode: 200</text>
</g>
<!-- SG_0_Node_0 -->
<g id="node1" class="node">
<title>SG_0_Node_0</title>
<polygon fill="none" stroke="#000000" points="567,-1724.9848 425,-1724.9848 425,-1688.9848 567,-1688.9848 567,-1724.9848"/>
<text text-anchor="middle" x="496" y="-1701.9848" font-family="Times,serif" font-size="20.00" fill="#000000">Status&#45;Code</text>
</g>
<!-- SG_0_Node_1 -->
<g id="node2" class="node">
<title>SG_0_Node_1</title>
<polygon fill="none" stroke="#000000" points="238.5,-1504.9848 173.5,-1504.9848 173.5,-1468.9848 238.5,-1468.9848 238.5,-1504.9848"/>
<text text-anchor="middle" x="206" y="-1481.9848" font-family="Times,serif" font-size="20.00" fill="#000000">body</text>
</g>
<!-- SG_0_Node_0&#45;&gt;SG_0_Node_1 -->
<g id="edge1" class="edge">
<title>SG_0_Node_0&#45;&gt;SG_0_Node_1</title>
<path fill="none" stroke="#000000" d="M472.2681,-1688.9813C420.4369,-1649.6611 297.0633,-1556.0674 238.2522,-1511.452"/>
<polygon fill="#000000" stroke="#000000" points="240.1421,-1508.4926 230.0598,-1505.2371 235.9114,-1514.0695 240.1421,-1508.4926"/>
<text text-anchor="middle" x="468" y="-1602.9848" font-family="Times,serif" font-size="20.00" fill="#000000">[NA]</text>
<text text-anchor="middle" x="468" y="-1580.9848" font-family="Times,serif" font-size="20.00" fill="#000000">58 levels</text>
</g>
<!-- SG_0_Node_2 -->
<g id="node3" class="node">
<title>SG_0_Node_2</title>
<polygon fill="none" stroke="#000000" points="840.5,-1504.9848 735.5,-1504.9848 735.5,-1468.9848 840.5,-1468.9848 840.5,-1504.9848"/>
<text text-anchor="middle" x="788" y="-1481.9848" font-family="Times,serif" font-size="20.00" fill="#000000">Location</text>
</g>
<!-- SG_0_Node_0&#45;&gt;SG_0_Node_2 -->
<g id="edge2" class="edge">
<title>SG_0_Node_0&#45;&gt;SG_0_Node_2</title>
<path fill="none" stroke="#000000" d="M519.8956,-1688.9813C572.0843,-1649.6611 696.3087,-1556.0674 755.5254,-1511.452"/>
<polygon fill="#000000" stroke="#000000" points="757.8935,-1514.0501 763.7742,-1505.2371 753.6812,-1508.4593 757.8935,-1514.0501"/>
<text text-anchor="middle" x="733.5" y="-1635.9848" font-family="Times,serif" font-size="20.00" fill="#000000">301</text>
<text text-anchor="middle" x="733.5" y="-1613.9848" font-family="Times,serif" font-size="20.00" fill="#000000">302</text>
<text text-anchor="middle" x="733.5" y="-1591.9848" font-family="Times,serif" font-size="20.00" fill="#000000">303</text>
<text text-anchor="middle" x="733.5" y="-1569.9848" font-family="Times,serif" font-size="20.00" fill="#000000">307</text>
<text text-anchor="middle" x="733.5" y="-1547.9848" font-family="Times,serif" font-size="20.00" fill="#000000">308</text>
</g>
<!-- SG_0_Node_15 -->
<g id="node4" class="node">
<title>SG_0_Node_15</title>
<ellipse fill="none" stroke="#000000" cx="77" cy="-1329.7716" rx="34.7971" ry="21.4286"/>
<text text-anchor="middle" x="77" y="-1324.7716" font-family="Times,serif" font-size="20.00" fill="#000000">0.0</text>
</g>
<!-- SG_0_Node_1&#45;&gt;SG_0_Node_15 -->
<g id="edge17" class="edge">
<title>SG_0_Node_1&#45;&gt;SG_0_Node_15</title>
<path fill="none" stroke="#000000" d="M173.3407,-1475.434C152.52,-1466.5287 126.4546,-1452.2743 110,-1431.9848 93.5468,-1411.6972 85.219,-1383.0083 81.0506,-1361.1864"/>
<polygon fill="#000000" stroke="#000000" points="84.4596,-1360.3576 79.321,-1351.0923 77.5602,-1361.5398 84.4596,-1360.3576"/>
<text text-anchor="middle" x="156" y="-1415.9848" font-family="Times,serif" font-size="20.00" fill="#000000">[NA]</text>
<text text-anchor="middle" x="156" y="-1393.9848" font-family="Times,serif" font-size="20.00" fill="#000000">11 levels</text>
</g>
<!-- SG_0_Node_3 -->
<g id="node5" class="node">
<title>SG_0_Node_3</title>
<polygon fill="none" stroke="#000000" points="284.5,-1347.7716 129.5,-1347.7716 129.5,-1311.7716 284.5,-1311.7716 284.5,-1347.7716"/>
<text text-anchor="middle" x="207" y="-1324.7716" font-family="Times,serif" font-size="20.00" fill="#000000">Content&#45;Type</text>
</g>
<!-- SG_0_Node_1&#45;&gt;SG_0_Node_3 -->
<g id="edge18" class="edge">
<title>SG_0_Node_1&#45;&gt;SG_0_Node_3</title>
<path fill="none" stroke="#000000" d="M206.1147,-1468.9505C206.2871,-1441.8495 206.6145,-1390.3753 206.8192,-1358.1917"/>
<polygon fill="#000000" stroke="#000000" points="210.3198,-1358.102 206.8835,-1348.0799 203.3199,-1358.0574 210.3198,-1358.102"/>
<text text-anchor="middle" x="479" y="-1404.9848" font-family="Times,serif" font-size="20.00" fill="#000000">ecocnt_html=meta_refresh=0;http://172.17.0.1:8000</text>
</g>
<!-- SG_0_Node_4 -->
<g id="node6" class="node">
<title>SG_0_Node_4</title>
<polygon fill="none" stroke="#000000" points="820.5,-1347.7716 755.5,-1347.7716 755.5,-1311.7716 820.5,-1311.7716 820.5,-1347.7716"/>
<text text-anchor="middle" x="788" y="-1324.7716" font-family="Times,serif" font-size="20.00" fill="#000000">body</text>
</g>
<!-- SG_0_Node_2&#45;&gt;SG_0_Node_4 -->
<g id="edge3" class="edge">
<title>SG_0_Node_2&#45;&gt;SG_0_Node_4</title>
<path fill="none" stroke="#000000" d="M788,-1468.9505C788,-1441.8495 788,-1390.3753 788,-1358.1917"/>
<polygon fill="#000000" stroke="#000000" points="791.5001,-1358.0799 788,-1348.0799 784.5001,-1358.08 791.5001,-1358.0799"/>
<text text-anchor="middle" x="820" y="-1415.9848" font-family="Times,serif" font-size="20.00" fill="#000000">[NA]</text>
<text text-anchor="middle" x="820" y="-1393.9848" font-family="Times,serif" font-size="20.00" fill="#000000">empty</text>
</g>
<!-- SG_0_Node_16 -->
<g id="node7" class="node">
<title>SG_0_Node_16</title>
<ellipse fill="none" stroke="#000000" cx="888" cy="-1329.7716" rx="34.7971" ry="21.4286"/>
<text text-anchor="middle" x="888" y="-1324.7716" font-family="Times,serif" font-size="20.00" fill="#000000">1.0</text>
</g>
<!-- SG_0_Node_2&#45;&gt;SG_0_Node_16 -->
<g id="edge4" class="edge">
<title>SG_0_Node_2&#45;&gt;SG_0_Node_16</title>
<path fill="none" stroke="#000000" d="M817.5385,-1468.9426C830.9504,-1459.4273 846.0124,-1446.6765 856,-1431.9848 870.554,-1410.5762 878.7422,-1382.2237 883.1841,-1360.8112"/>
<polygon fill="#000000" stroke="#000000" points="886.6353,-1361.3973 885.0752,-1350.918 879.7598,-1360.083 886.6353,-1361.3973"/>
<text text-anchor="middle" x="991" y="-1404.9848" font-family="Times,serif" font-size="20.00" fill="#000000">http://172.17.0.1:8000</text>
</g>
<!-- SG_0_Node_17 -->
<g id="node8" class="node">
<title>SG_0_Node_17</title>
<ellipse fill="none" stroke="#000000" cx="66" cy="-1059.3452" rx="34.7971" ry="21.4286"/>
<text text-anchor="middle" x="66" y="-1054.3452" font-family="Times,serif" font-size="20.00" fill="#000000">0.0</text>
</g>
<!-- SG_0_Node_3&#45;&gt;SG_0_Node_17 -->
<g id="edge19" class="edge">
<title>SG_0_Node_3&#45;&gt;SG_0_Node_17</title>
<path fill="none" stroke="#000000" d="M145.1086,-1311.7451C111.7826,-1300.6541 75.572,-1285.866 66,-1271.5584 29.2062,-1216.5615 44.0392,-1134.2818 56.1693,-1090.0702"/>
<polygon fill="#000000" stroke="#000000" points="59.6062,-1090.7825 59.0066,-1080.2047 52.8789,-1088.8478 59.6062,-1090.7825"/>
<text text-anchor="middle" x="177" y="-1255.5584" font-family="Times,serif" font-size="20.00" fill="#000000">[NA]</text>
<text text-anchor="middle" x="177" y="-1233.5584" font-family="Times,serif" font-size="20.00" fill="#000000">application/javascript</text>
<text text-anchor="middle" x="177" y="-1211.5584" font-family="Times,serif" font-size="20.00" fill="#000000">application/pdf</text>
<text text-anchor="middle" x="177" y="-1189.5584" font-family="Times,serif" font-size="20.00" fill="#000000">audio/wav</text>
<text text-anchor="middle" x="177" y="-1167.5584" font-family="Times,serif" font-size="20.00" fill="#000000">image/png</text>
<text text-anchor="middle" x="177" y="-1145.5584" font-family="Times,serif" font-size="20.00" fill="#000000">text/css</text>
<text text-anchor="middle" x="177" y="-1123.5584" font-family="Times,serif" font-size="20.00" fill="#000000">video/mp4</text>
</g>
<!-- SG_0_Node_5 -->
<g id="node9" class="node">
<title>SG_0_Node_5</title>
<polygon fill="none" stroke="#000000" points="419.5,-1077.3452 228.5,-1077.3452 228.5,-1041.3452 419.5,-1041.3452 419.5,-1077.3452"/>
<text text-anchor="middle" x="324" y="-1054.3452" font-family="Times,serif" font-size="20.00" fill="#000000">X&#45;Frame&#45;Options</text>
</g>
<!-- SG_0_Node_3&#45;&gt;SG_0_Node_5 -->
<g id="edge20" class="edge">
<title>SG_0_Node_3&#45;&gt;SG_0_Node_5</title>
<path fill="none" stroke="#000000" d="M238.9928,-1311.5518C260.1968,-1298.8166 285.3021,-1282.2421 292,-1271.5584 328.1247,-1213.9365 329.0031,-1130.5984 326.5319,-1087.5104"/>
<polygon fill="#000000" stroke="#000000" points="330.0192,-1087.2035 325.8509,-1077.4631 323.0353,-1087.677 330.0192,-1087.2035"/>
<text text-anchor="middle" x="374" y="-1200.5584" font-family="Times,serif" font-size="20.00" fill="#000000">empty</text>
<text text-anchor="middle" x="374" y="-1178.5584" font-family="Times,serif" font-size="20.00" fill="#000000">text/html</text>
</g>
<!-- SG_0_Node_18 -->
<g id="node10" class="node">
<title>SG_0_Node_18</title>
<ellipse fill="none" stroke="#000000" cx="684" cy="-1059.3452" rx="34.7971" ry="21.4286"/>
<text text-anchor="middle" x="684" y="-1054.3452" font-family="Times,serif" font-size="20.00" fill="#000000">0.0</text>
</g>
<!-- SG_0_Node_4&#45;&gt;SG_0_Node_18 -->
<g id="edge5" class="edge">
<title>SG_0_Node_4&#45;&gt;SG_0_Node_18</title>
<path fill="none" stroke="#000000" d="M755.2806,-1317.8846C734.8007,-1308.6019 709.9259,-1293.5469 697,-1271.5584 663.6477,-1214.8224 670.4477,-1134.1761 677.6482,-1090.4473"/>
<polygon fill="#000000" stroke="#000000" points="681.1269,-1090.8734 679.4151,-1080.4178 674.2331,-1089.6588 681.1269,-1090.8734"/>
<text text-anchor="middle" x="743" y="-1200.5584" font-family="Times,serif" font-size="20.00" fill="#000000">[NA]</text>
<text text-anchor="middle" x="743" y="-1178.5584" font-family="Times,serif" font-size="20.00" fill="#000000">11 levels</text>
</g>
<!-- SG_0_Node_6 -->
<g id="node11" class="node">
<title>SG_0_Node_6</title>
<polygon fill="none" stroke="#000000" points="891.5,-1077.3452 736.5,-1077.3452 736.5,-1041.3452 891.5,-1041.3452 891.5,-1077.3452"/>
<text text-anchor="middle" x="814" y="-1054.3452" font-family="Times,serif" font-size="20.00" fill="#000000">Content&#45;Type</text>
</g>
<!-- SG_0_Node_4&#45;&gt;SG_0_Node_6 -->
<g id="edge6" class="edge">
<title>SG_0_Node_4&#45;&gt;SG_0_Node_6</title>
<path fill="none" stroke="#000000" d="M789.7463,-1311.6083C794.1868,-1265.423 805.9348,-1143.2312 811.2814,-1087.6215"/>
<polygon fill="#000000" stroke="#000000" points="814.7881,-1087.7186 812.2613,-1077.4295 807.8202,-1087.0486 814.7881,-1087.7186"/>
<text text-anchor="middle" x="1081" y="-1189.5584" font-family="Times,serif" font-size="20.00" fill="#000000">ecocnt_html=meta_refresh=0;http://172.17.0.1:8000</text>
</g>
<!-- SG_0_Node_19 -->
<g id="node12" class="node">
<title>SG_0_Node_19</title>
<ellipse fill="none" stroke="#000000" cx="273" cy="-788.9188" rx="34.7971" ry="21.4286"/>
<text text-anchor="middle" x="273" y="-783.9188" font-family="Times,serif" font-size="20.00" fill="#000000">0.0</text>
</g>
<!-- SG_0_Node_5&#45;&gt;SG_0_Node_19 -->
<g id="edge21" class="edge">
<title>SG_0_Node_5&#45;&gt;SG_0_Node_19</title>
<path fill="none" stroke="#000000" d="M320.5746,-1041.1819C312.0174,-995.8075 289.625,-877.0723 278.8965,-820.1851"/>
<polygon fill="#000000" stroke="#000000" points="282.3277,-819.4925 277.035,-810.3144 275.449,-820.7898 282.3277,-819.4925"/>
<text text-anchor="middle" x="336.5" y="-919.132" font-family="Times,serif" font-size="20.00" fill="#000000">deny</text>
</g>
<!-- SG_0_Node_7 -->
<g id="node13" class="node">
<title>SG_0_Node_7</title>
<polygon fill="none" stroke="#000000" points="546.5,-806.9188 325.5,-806.9188 325.5,-770.9188 546.5,-770.9188 546.5,-806.9188"/>
<text text-anchor="middle" x="436" y="-783.9188" font-family="Times,serif" font-size="20.00" fill="#000000">Content&#45;Disposition</text>
</g>
<!-- SG_0_Node_5&#45;&gt;SG_0_Node_7 -->
<g id="edge22" class="edge">
<title>SG_0_Node_5&#45;&gt;SG_0_Node_7</title>
<path fill="none" stroke="#000000" d="M338.7488,-1041.3425C347.2879,-1030.2599 357.7474,-1015.4723 365,-1001.132 396.6943,-938.464 419.0294,-858.489 429.4199,-816.8943"/>
<polygon fill="#000000" stroke="#000000" points="432.8782,-817.487 431.8601,-806.9412 426.0795,-815.8201 432.8782,-817.487"/>
<text text-anchor="middle" x="453" y="-930.132" font-family="Times,serif" font-size="20.00" fill="#000000">[NA]</text>
<text text-anchor="middle" x="453" y="-908.132" font-family="Times,serif" font-size="20.00" fill="#000000">empty</text>
</g>
<!-- SG_0_Node_20 -->
<g id="node14" class="node">
<title>SG_0_Node_20</title>
<ellipse fill="none" stroke="#000000" cx="606" cy="-788.9188" rx="34.7971" ry="21.4286"/>
<text text-anchor="middle" x="606" y="-783.9188" font-family="Times,serif" font-size="20.00" fill="#000000">0.0</text>
</g>
<!-- SG_0_Node_6&#45;&gt;SG_0_Node_20 -->
<g id="edge7" class="edge">
<title>SG_0_Node_6&#45;&gt;SG_0_Node_20</title>
<path fill="none" stroke="#000000" d="M741.6131,-1041.286C683.3045,-1026.3947 610.32,-1006.8271 606,-1001.132 565.8224,-948.166 582.284,-864.4338 595.5007,-819.6221"/>
<polygon fill="#000000" stroke="#000000" points="598.899,-820.4791 598.5019,-809.8917 592.21,-818.4159 598.899,-820.4791"/>
<text text-anchor="middle" x="717" y="-985.132" font-family="Times,serif" font-size="20.00" fill="#000000">[NA]</text>
<text text-anchor="middle" x="717" y="-963.132" font-family="Times,serif" font-size="20.00" fill="#000000">application/javascript</text>
<text text-anchor="middle" x="717" y="-941.132" font-family="Times,serif" font-size="20.00" fill="#000000">application/pdf</text>
<text text-anchor="middle" x="717" y="-919.132" font-family="Times,serif" font-size="20.00" fill="#000000">audio/wav</text>
<text text-anchor="middle" x="717" y="-897.132" font-family="Times,serif" font-size="20.00" fill="#000000">image/png</text>
<text text-anchor="middle" x="717" y="-875.132" font-family="Times,serif" font-size="20.00" fill="#000000">text/css</text>
<text text-anchor="middle" x="717" y="-853.132" font-family="Times,serif" font-size="20.00" fill="#000000">video/mp4</text>
</g>
<!-- SG_0_Node_8 -->
<g id="node15" class="node">
<title>SG_0_Node_8</title>
<polygon fill="none" stroke="#000000" points="959.5,-806.9188 768.5,-806.9188 768.5,-770.9188 959.5,-770.9188 959.5,-806.9188"/>
<text text-anchor="middle" x="864" y="-783.9188" font-family="Times,serif" font-size="20.00" fill="#000000">X&#45;Frame&#45;Options</text>
</g>
<!-- SG_0_Node_6&#45;&gt;SG_0_Node_8 -->
<g id="edge8" class="edge">
<title>SG_0_Node_6&#45;&gt;SG_0_Node_8</title>
<path fill="none" stroke="#000000" d="M820.3876,-1041.1838C824.1993,-1029.7962 828.8877,-1014.7445 832,-1001.132 846.9035,-935.9479 856.6375,-857.8656 861.1258,-817.0031"/>
<polygon fill="#000000" stroke="#000000" points="864.6148,-817.2927 862.2033,-806.9759 857.6548,-816.5447 864.6148,-817.2927"/>
<text text-anchor="middle" x="904" y="-930.132" font-family="Times,serif" font-size="20.00" fill="#000000">empty</text>
<text text-anchor="middle" x="904" y="-908.132" font-family="Times,serif" font-size="20.00" fill="#000000">text/html</text>
</g>
<!-- SG_0_Node_21 -->
<g id="node16" class="node">
<title>SG_0_Node_21</title>
<ellipse fill="none" stroke="#000000" cx="346" cy="-628.4924" rx="34.7971" ry="21.4286"/>
<text text-anchor="middle" x="346" y="-623.4924" font-family="Times,serif" font-size="20.00" fill="#000000">0.0</text>
</g>
<!-- SG_0_Node_7&#45;&gt;SG_0_Node_21 -->
<g id="edge23" class="edge">
<title>SG_0_Node_7&#45;&gt;SG_0_Node_21</title>
<path fill="none" stroke="#000000" d="M390.1705,-770.7464C373.1247,-761.4777 355.6057,-748.3587 346,-730.7056 334.192,-709.0054 335.227,-680.6784 338.6284,-659.35"/>
<polygon fill="#000000" stroke="#000000" points="342.073,-659.9701 340.4424,-649.5015 335.1888,-658.7021 342.073,-659.9701"/>
<text text-anchor="middle" x="405" y="-703.7056" font-family="Times,serif" font-size="20.00" fill="#000000">attachment</text>
</g>
<!-- SG_0_Node_9 -->
<g id="node17" class="node">
<title>SG_0_Node_9</title>
<polygon fill="none" stroke="#000000" points="571,-646.4924 429,-646.4924 429,-610.4924 571,-610.4924 571,-646.4924"/>
<text text-anchor="middle" x="500" y="-623.4924" font-family="Times,serif" font-size="20.00" fill="#000000">Status&#45;Code</text>
</g>
<!-- SG_0_Node_7&#45;&gt;SG_0_Node_9 -->
<g id="edge24" class="edge">
<title>SG_0_Node_7&#45;&gt;SG_0_Node_9</title>
<path fill="none" stroke="#000000" d="M447.1996,-770.7756C453.8343,-759.5209 462.0748,-744.6032 468,-730.7056 478.4185,-706.2689 487.1745,-677.2742 492.8789,-656.4191"/>
<polygon fill="#000000" stroke="#000000" points="496.3006,-657.1716 495.5021,-646.6069 489.5381,-655.3636 496.3006,-657.1716"/>
<text text-anchor="middle" x="515" y="-714.7056" font-family="Times,serif" font-size="20.00" fill="#000000">[NA]</text>
<text text-anchor="middle" x="515" y="-692.7056" font-family="Times,serif" font-size="20.00" fill="#000000">empty</text>
</g>
<!-- SG_0_Node_22 -->
<g id="node18" class="node">
<title>SG_0_Node_22</title>
<ellipse fill="none" stroke="#000000" cx="783" cy="-628.4924" rx="34.7971" ry="21.4286"/>
<text text-anchor="middle" x="783" y="-623.4924" font-family="Times,serif" font-size="20.00" fill="#000000">0.0</text>
</g>
<!-- SG_0_Node_8&#45;&gt;SG_0_Node_22 -->
<g id="edge9" class="edge">
<title>SG_0_Node_8&#45;&gt;SG_0_Node_22</title>
<path fill="none" stroke="#000000" d="M854.8657,-770.8277C841.008,-743.3814 814.5265,-690.9329 797.8678,-657.9392"/>
<polygon fill="#000000" stroke="#000000" points="800.8748,-656.1292 793.2433,-648.78 794.6261,-659.2843 800.8748,-656.1292"/>
<text text-anchor="middle" x="858.5" y="-703.7056" font-family="Times,serif" font-size="20.00" fill="#000000">deny</text>
</g>
<!-- SG_0_Node_10 -->
<g id="node19" class="node">
<title>SG_0_Node_10</title>
<polygon fill="none" stroke="#000000" points="1056.5,-646.4924 835.5,-646.4924 835.5,-610.4924 1056.5,-610.4924 1056.5,-646.4924"/>
<text text-anchor="middle" x="946" y="-623.4924" font-family="Times,serif" font-size="20.00" fill="#000000">Content&#45;Disposition</text>
</g>
<!-- SG_0_Node_8&#45;&gt;SG_0_Node_10 -->
<g id="edge10" class="edge">
<title>SG_0_Node_8&#45;&gt;SG_0_Node_10</title>
<path fill="none" stroke="#000000" d="M873.247,-770.8277C887.5809,-742.7848 915.256,-688.6407 932.0341,-655.8155"/>
<polygon fill="#000000" stroke="#000000" points="935.2261,-657.2608 936.6609,-646.7636 928.9931,-654.0748 935.2261,-657.2608"/>
<text text-anchor="middle" x="947" y="-714.7056" font-family="Times,serif" font-size="20.00" fill="#000000">[NA]</text>
<text text-anchor="middle" x="947" y="-692.7056" font-family="Times,serif" font-size="20.00" fill="#000000">empty</text>
</g>
<!-- SG_0_Node_23 -->
<g id="node20" class="node">
<title>SG_0_Node_23</title>
<ellipse fill="none" stroke="#000000" cx="421" cy="-336.066" rx="34.7971" ry="21.4286"/>
<text text-anchor="middle" x="421" y="-331.066" font-family="Times,serif" font-size="20.00" fill="#000000">0.0</text>
</g>
<!-- SG_0_Node_9&#45;&gt;SG_0_Node_23 -->
<g id="edge25" class="edge">
<title>SG_0_Node_9&#45;&gt;SG_0_Node_23</title>
<path fill="none" stroke="#000000" d="M495.0582,-610.1998C481.8703,-561.3834 445.7337,-427.6201 429.3145,-366.8428"/>
<polygon fill="#000000" stroke="#000000" points="432.6581,-365.7991 426.6711,-357.0581 425.9003,-367.6248 432.6581,-365.7991"/>
<text text-anchor="middle" x="503.5" y="-554.2792" font-family="Times,serif" font-size="20.00" fill="#000000">100</text>
<text text-anchor="middle" x="503.5" y="-532.2792" font-family="Times,serif" font-size="20.00" fill="#000000">101</text>
<text text-anchor="middle" x="503.5" y="-510.2792" font-family="Times,serif" font-size="20.00" fill="#000000">102</text>
<text text-anchor="middle" x="503.5" y="-488.2792" font-family="Times,serif" font-size="20.00" fill="#000000">103</text>
<text text-anchor="middle" x="503.5" y="-466.2792" font-family="Times,serif" font-size="20.00" fill="#000000">204</text>
<text text-anchor="middle" x="503.5" y="-444.2792" font-family="Times,serif" font-size="20.00" fill="#000000">205</text>
<text text-anchor="middle" x="503.5" y="-422.2792" font-family="Times,serif" font-size="20.00" fill="#000000">304</text>
<text text-anchor="middle" x="503.5" y="-400.2792" font-family="Times,serif" font-size="20.00" fill="#000000">407</text>
</g>
<!-- SG_0_Node_11 -->
<g id="node21" class="node">
<title>SG_0_Node_11</title>
<polygon fill="none" stroke="#000000" points="736,-354.066 474,-354.066 474,-318.066 736,-318.066 736,-354.066"/>
<text text-anchor="middle" x="605" y="-331.066" font-family="Times,serif" font-size="20.00" fill="#000000">X&#45;Content&#45;Type&#45;Options</text>
</g>
<!-- SG_0_Node_9&#45;&gt;SG_0_Node_11 -->
<g id="edge26" class="edge">
<title>SG_0_Node_9&#45;&gt;SG_0_Node_11</title>
<path fill="none" stroke="#000000" d="M509.0485,-610.3702C514.5655,-598.9973 521.5744,-583.9473 527,-570.2792 556.0579,-497.0773 583.591,-408.2808 596.815,-363.9993"/>
<polygon fill="#000000" stroke="#000000" points="600.2219,-364.8213 599.713,-354.2386 593.5114,-362.8289 600.2219,-364.8213"/>
<text text-anchor="middle" x="633" y="-488.2792" font-family="Times,serif" font-size="20.00" fill="#000000">[NA]</text>
<text text-anchor="middle" x="633" y="-466.2792" font-family="Times,serif" font-size="20.00" fill="#000000">50 levels</text>
</g>
<!-- SG_0_Node_24 -->
<g id="node22" class="node">
<title>SG_0_Node_24</title>
<ellipse fill="none" stroke="#000000" cx="854" cy="-336.066" rx="34.7971" ry="21.4286"/>
<text text-anchor="middle" x="854" y="-331.066" font-family="Times,serif" font-size="20.00" fill="#000000">0.0</text>
</g>
<!-- SG_0_Node_10&#45;&gt;SG_0_Node_24 -->
<g id="edge11" class="edge">
<title>SG_0_Node_10&#45;&gt;SG_0_Node_24</title>
<path fill="none" stroke="#000000" d="M922.8363,-610.4545C911.0881,-600.0116 897.7085,-585.8666 890,-570.2792 857.0081,-503.5665 852.6672,-414.179 852.9593,-367.4795"/>
<polygon fill="#000000" stroke="#000000" points="856.4604,-367.4224 853.1005,-357.3745 849.461,-367.3245 856.4604,-367.4224"/>
<text text-anchor="middle" x="949" y="-477.2792" font-family="Times,serif" font-size="20.00" fill="#000000">attachment</text>
</g>
<!-- SG_0_Node_12 -->
<g id="node23" class="node">
<title>SG_0_Node_12</title>
<polygon fill="none" stroke="#000000" points="1169,-354.066 907,-354.066 907,-318.066 1169,-318.066 1169,-354.066"/>
<text text-anchor="middle" x="1038" y="-331.066" font-family="Times,serif" font-size="20.00" fill="#000000">X&#45;Content&#45;Type&#45;Options</text>
</g>
<!-- SG_0_Node_10&#45;&gt;SG_0_Node_12 -->
<g id="edge12" class="edge">
<title>SG_0_Node_10&#45;&gt;SG_0_Node_12</title>
<path fill="none" stroke="#000000" d="M972.7618,-610.2747C985.5795,-600.0654 999.8749,-586.1902 1008,-570.2792 1042.5204,-502.68 1042.7994,-410.3449 1040.3101,-364.4174"/>
<polygon fill="#000000" stroke="#000000" points="1043.7949,-364.0637 1039.6743,-354.303 1036.8087,-364.5029 1043.7949,-364.0637"/>
<text text-anchor="middle" x="1073" y="-488.2792" font-family="Times,serif" font-size="20.00" fill="#000000">[NA]</text>
<text text-anchor="middle" x="1073" y="-466.2792" font-family="Times,serif" font-size="20.00" fill="#000000">empty</text>
</g>
<!-- SG_0_Node_13 -->
<g id="node24" class="node">
<title>SG_0_Node_13</title>
<polygon fill="none" stroke="#000000" points="620.5,-193.6396 465.5,-193.6396 465.5,-157.6396 620.5,-157.6396 620.5,-193.6396"/>
<text text-anchor="middle" x="543" y="-170.6396" font-family="Times,serif" font-size="20.00" fill="#000000">Content&#45;Type</text>
</g>
<!-- SG_0_Node_11&#45;&gt;SG_0_Node_13 -->
<g id="edge27" class="edge">
<title>SG_0_Node_11&#45;&gt;SG_0_Node_13</title>
<path fill="none" stroke="#000000" d="M591.8089,-317.9755C584.2257,-306.8617 575.0365,-292.0723 569,-277.8528 558.7779,-253.7739 551.8676,-224.7376 547.7563,-203.7758"/>
<polygon fill="#000000" stroke="#000000" points="551.1891,-203.0915 545.9097,-193.9057 544.3085,-204.3788 551.1891,-203.0915"/>
<text text-anchor="middle" x="604" y="-250.8528" font-family="Times,serif" font-size="20.00" fill="#000000">nosniff</text>
</g>
<!-- SG_0_Node_25 -->
<g id="node25" class="node">
<title>SG_0_Node_25</title>
<ellipse fill="none" stroke="#000000" cx="673" cy="-175.6396" rx="34.7971" ry="21.4286"/>
<text text-anchor="middle" x="673" y="-170.6396" font-family="Times,serif" font-size="20.00" fill="#000000">1.0</text>
</g>
<!-- SG_0_Node_11&#45;&gt;SG_0_Node_25 -->
<g id="edge28" class="edge">
<title>SG_0_Node_11&#45;&gt;SG_0_Node_25</title>
<path fill="none" stroke="#000000" d="M616.882,-317.974C623.925,-306.738 632.68,-291.8219 639,-277.8528 649.4854,-254.6769 658.4269,-227.2734 664.5051,-206.6775"/>
<polygon fill="#000000" stroke="#000000" points="667.924,-207.453 667.3342,-196.8746 661.1985,-205.5119 667.924,-207.453"/>
<text text-anchor="middle" x="687" y="-261.8528" font-family="Times,serif" font-size="20.00" fill="#000000">[NA]</text>
<text text-anchor="middle" x="687" y="-239.8528" font-family="Times,serif" font-size="20.00" fill="#000000">empty</text>
</g>
<!-- SG_0_Node_14 -->
<g id="node26" class="node">
<title>SG_0_Node_14</title>
<polygon fill="none" stroke="#000000" points="1053.5,-193.6396 898.5,-193.6396 898.5,-157.6396 1053.5,-157.6396 1053.5,-193.6396"/>
<text text-anchor="middle" x="976" y="-170.6396" font-family="Times,serif" font-size="20.00" fill="#000000">Content&#45;Type</text>
</g>
<!-- SG_0_Node_12&#45;&gt;SG_0_Node_14 -->
<g id="edge13" class="edge">
<title>SG_0_Node_12&#45;&gt;SG_0_Node_14</title>
<path fill="none" stroke="#000000" d="M1024.8089,-317.9755C1017.2257,-306.8617 1008.0365,-292.0723 1002,-277.8528 991.7779,-253.7739 984.8676,-224.7376 980.7563,-203.7758"/>
<polygon fill="#000000" stroke="#000000" points="984.1891,-203.0915 978.9097,-193.9057 977.3085,-204.3788 984.1891,-203.0915"/>
<text text-anchor="middle" x="1037" y="-250.8528" font-family="Times,serif" font-size="20.00" fill="#000000">nosniff</text>
</g>
<!-- SG_0_Node_26 -->
<g id="node27" class="node">
<title>SG_0_Node_26</title>
<ellipse fill="none" stroke="#000000" cx="1106" cy="-175.6396" rx="34.7971" ry="21.4286"/>
<text text-anchor="middle" x="1106" y="-170.6396" font-family="Times,serif" font-size="20.00" fill="#000000">1.0</text>
</g>
<!-- SG_0_Node_12&#45;&gt;SG_0_Node_26 -->
<g id="edge14" class="edge">
<title>SG_0_Node_12&#45;&gt;SG_0_Node_26</title>
<path fill="none" stroke="#000000" d="M1049.882,-317.974C1056.925,-306.738 1065.68,-291.8219 1072,-277.8528 1082.4854,-254.6769 1091.4269,-227.2734 1097.5051,-206.6775"/>
<polygon fill="#000000" stroke="#000000" points="1100.924,-207.453 1100.3342,-196.8746 1094.1985,-205.5119 1100.924,-207.453"/>
<text text-anchor="middle" x="1120" y="-261.8528" font-family="Times,serif" font-size="20.00" fill="#000000">[NA]</text>
<text text-anchor="middle" x="1120" y="-239.8528" font-family="Times,serif" font-size="20.00" fill="#000000">empty</text>
</g>
<!-- SG_0_Node_27 -->
<g id="node28" class="node">
<title>SG_0_Node_27</title>
<ellipse fill="none" stroke="#000000" cx="493" cy="-37.2132" rx="34.7971" ry="21.4286"/>
<text text-anchor="middle" x="493" y="-32.2132" font-family="Times,serif" font-size="20.00" fill="#000000">0.0</text>
</g>
<!-- SG_0_Node_13&#45;&gt;SG_0_Node_27 -->
<g id="edge29" class="edge">
<title>SG_0_Node_13&#45;&gt;SG_0_Node_27</title>
<path fill="none" stroke="#000000" d="M529.2331,-157.453C521.5462,-146.4243 512.4476,-131.7547 507,-117.4264 501.1382,-102.0088 497.7115,-83.9821 495.7178,-68.9275"/>
<polygon fill="#000000" stroke="#000000" points="499.1444,-68.0956 494.5051,-58.5705 492.1919,-68.9097 499.1444,-68.0956"/>
<text text-anchor="middle" x="539" y="-101.4264" font-family="Times,serif" font-size="20.00" fill="#000000">empty</text>
</g>
<!-- SG_0_Node_28 -->
<g id="node29" class="node">
<title>SG_0_Node_28</title>
<ellipse fill="none" stroke="#000000" cx="593" cy="-37.2132" rx="34.7971" ry="21.4286"/>
<text text-anchor="middle" x="593" y="-32.2132" font-family="Times,serif" font-size="20.00" fill="#000000">1.0</text>
</g>
<!-- SG_0_Node_13&#45;&gt;SG_0_Node_28 -->
<g id="edge30" class="edge">
<title>SG_0_Node_13&#45;&gt;SG_0_Node_28</title>
<path fill="none" stroke="#000000" d="M552.8258,-157.3979C558.6407,-146.1073 565.8521,-131.1863 571,-117.4264 576.9612,-101.4927 582.0951,-83.2363 585.9005,-68.1696"/>
<polygon fill="#000000" stroke="#000000" points="589.3343,-68.862 588.3166,-58.3161 582.5357,-67.1949 589.3343,-68.862"/>
<text text-anchor="middle" x="625" y="-101.4264" font-family="Times,serif" font-size="20.00" fill="#000000">text/html</text>
</g>
<!-- SG_0_Node_29 -->
<g id="node30" class="node">
<title>SG_0_Node_29</title>
<ellipse fill="none" stroke="#000000" cx="926" cy="-37.2132" rx="34.7971" ry="21.4286"/>
<text text-anchor="middle" x="926" y="-32.2132" font-family="Times,serif" font-size="20.00" fill="#000000">0.0</text>
</g>
<!-- SG_0_Node_14&#45;&gt;SG_0_Node_29 -->
<g id="edge15" class="edge">
<title>SG_0_Node_14&#45;&gt;SG_0_Node_29</title>
<path fill="none" stroke="#000000" d="M962.2331,-157.453C954.5462,-146.4243 945.4476,-131.7547 940,-117.4264 934.1382,-102.0088 930.7115,-83.9821 928.7178,-68.9275"/>
<polygon fill="#000000" stroke="#000000" points="932.1444,-68.0956 927.5051,-58.5705 925.1919,-68.9097 932.1444,-68.0956"/>
<text text-anchor="middle" x="972" y="-101.4264" font-family="Times,serif" font-size="20.00" fill="#000000">empty</text>
</g>
<!-- SG_0_Node_30 -->
<g id="node31" class="node">
<title>SG_0_Node_30</title>
<ellipse fill="none" stroke="#000000" cx="1026" cy="-37.2132" rx="34.7971" ry="21.4286"/>
<text text-anchor="middle" x="1026" y="-32.2132" font-family="Times,serif" font-size="20.00" fill="#000000">1.0</text>
</g>
<!-- SG_0_Node_14&#45;&gt;SG_0_Node_30 -->
<g id="edge16" class="edge">
<title>SG_0_Node_14&#45;&gt;SG_0_Node_30</title>
<path fill="none" stroke="#000000" d="M985.8258,-157.3979C991.6407,-146.1073 998.8521,-131.1863 1004,-117.4264 1009.9612,-101.4927 1015.0951,-83.2363 1018.9005,-68.1696"/>
<polygon fill="#000000" stroke="#000000" points="1022.3343,-68.862 1021.3166,-58.3161 1015.5357,-67.1949 1022.3343,-68.862"/>
<text text-anchor="middle" x="1058" y="-101.4264" font-family="Times,serif" font-size="20.00" fill="#000000">text/html</text>
</g>
</g>
</svg>
