<?xml version="1.0" encoding="UTF-8" standalone="no"?>
<!DOCTYPE svg PUBLIC "-//W3C//DTD SVG 1.1//EN"
 "http://www.w3.org/Graphics/SVG/1.1/DTD/svg11.dtd">
<!-- Generated by graphviz version 2.40.1 (20161225.0304)
 -->
<!-- Title: G Pages: 1 -->
<svg width="1348pt" height="1785pt"
 viewBox="0.00 0.00 1348.00 1785.41" xmlns="http://www.w3.org/2000/svg" xmlns:xlink="http://www.w3.org/1999/xlink">
<g id="graph0" class="graph" transform="scale(1 1) rotate(0) translate(4 1781.4113)">
<title>G</title>
<polygon fill="#ffffff" stroke="transparent" points="-4,4 -4,-1781.4113 1344,-1781.4113 1344,4 -4,4"/>
<g id="clust1" class="cluster">
<title>cluster_0</title>
<polygon fill="none" stroke="#000000" points="8,-8 8,-1769.4113 1332,-1769.4113 1332,-8 8,-8"/>
<text text-anchor="middle" x="670" y="-1733.4113" font-family="Times,serif" font-size="40.00" fill="#000000">Tree 0, Class [&#39;Message: mes1 Origin: https://172.17.0.1:44300&#39;]</text>
</g>
<!-- SG_0_Node_0 -->
<g id="node1" class="node">
<title>SG_0_Node_0</title>
<polygon fill="none" stroke="#000000" points="211.5,-1709.4113 146.5,-1709.4113 146.5,-1673.4113 211.5,-1673.4113 211.5,-1709.4113"/>
<text text-anchor="middle" x="179" y="-1686.4113" font-family="Times,serif" font-size="20.00" fill="#000000">body</text>
</g>
<!-- SG_0_Node_11 -->
<g id="node2" class="node">
<title>SG_0_Node_11</title>
<ellipse fill="none" stroke="#000000" cx="115" cy="-1534.1981" rx="34.7971" ry="21.4286"/>
<text text-anchor="middle" x="115" y="-1529.1981" font-family="Times,serif" font-size="20.00" fill="#000000">0.0</text>
</g>
<!-- SG_0_Node_0&#45;&gt;SG_0_Node_11 -->
<g id="edge1" class="edge">
<title>SG_0_Node_0&#45;&gt;SG_0_Node_11</title>
<path fill="none" stroke="#000000" d="M157.7021,-1673.1101C147.6635,-1663.271 136.4912,-1650.3169 130,-1636.4113 119.6634,-1614.268 116.0807,-1586.7418 114.9906,-1565.8349"/>
<polygon fill="#000000" stroke="#000000" points="118.4788,-1565.4381 114.6252,-1555.5689 111.4832,-1565.6871 118.4788,-1565.4381"/>
<text text-anchor="middle" x="176" y="-1620.4113" font-family="Times,serif" font-size="20.00" fill="#000000">[NA]</text>
<text text-anchor="middle" x="176" y="-1598.4113" font-family="Times,serif" font-size="20.00" fill="#000000">11 levels</text>
</g>
<!-- SG_0_Node_1 -->
<g id="node3" class="node">
<title>SG_0_Node_1</title>
<polygon fill="none" stroke="#000000" points="322.5,-1552.1981 167.5,-1552.1981 167.5,-1516.1981 322.5,-1516.1981 322.5,-1552.1981"/>
<text text-anchor="middle" x="245" y="-1529.1981" font-family="Times,serif" font-size="20.00" fill="#000000">Content&#45;Type</text>
</g>
<!-- SG_0_Node_0&#45;&gt;SG_0_Node_1 -->
<g id="edge2" class="edge">
<title>SG_0_Node_0&#45;&gt;SG_0_Node_1</title>
<path fill="none" stroke="#000000" d="M196.8067,-1672.963C205.6064,-1662.8919 215.6689,-1649.7744 222,-1636.4113 233.1923,-1612.7874 239.0668,-1583.4737 242.0668,-1562.3044"/>
<polygon fill="#000000" stroke="#000000" points="245.5441,-1562.7047 243.3531,-1552.3389 238.6017,-1561.8086 245.5441,-1562.7047"/>
<text text-anchor="middle" x="415" y="-1609.4113" font-family="Times,serif" font-size="20.00" fill="#000000">ecocnt_html=post_message=mes1</text>
</g>
<!-- SG_0_Node_12 -->
<g id="node4" class="node">
<title>SG_0_Node_12</title>
<ellipse fill="none" stroke="#000000" cx="71" cy="-1263.7716" rx="34.7971" ry="21.4286"/>
<text text-anchor="middle" x="71" y="-1258.7716" font-family="Times,serif" font-size="20.00" fill="#000000">0.0</text>
</g>
<!-- SG_0_Node_1&#45;&gt;SG_0_Node_12 -->
<g id="edge3" class="edge">
<title>SG_0_Node_1&#45;&gt;SG_0_Node_12</title>
<path fill="none" stroke="#000000" d="M179.0353,-1516.1414C132.6725,-1502.7872 77.7466,-1485.3561 71,-1475.9848 32.158,-1422.0318 48.0724,-1338.7039 60.8497,-1294.217"/>
<polygon fill="#000000" stroke="#000000" points="64.2256,-1295.1445 63.7511,-1284.5603 57.5216,-1293.1302 64.2256,-1295.1445"/>
<text text-anchor="middle" x="182" y="-1459.9848" font-family="Times,serif" font-size="20.00" fill="#000000">[NA]</text>
<text text-anchor="middle" x="182" y="-1437.9848" font-family="Times,serif" font-size="20.00" fill="#000000">application/javascript</text>
<text text-anchor="middle" x="182" y="-1415.9848" font-family="Times,serif" font-size="20.00" fill="#000000">application/pdf</text>
<text text-anchor="middle" x="182" y="-1393.9848" font-family="Times,serif" font-size="20.00" fill="#000000">audio/wav</text>
<text text-anchor="middle" x="182" y="-1371.9848" font-family="Times,serif" font-size="20.00" fill="#000000">image/png</text>
<text text-anchor="middle" x="182" y="-1349.9848" font-family="Times,serif" font-size="20.00" fill="#000000">text/css</text>
<text text-anchor="middle" x="182" y="-1327.9848" font-family="Times,serif" font-size="20.00" fill="#000000">video/mp4</text>
</g>
<!-- SG_0_Node_2 -->
<g id="node5" class="node">
<title>SG_0_Node_2</title>
<polygon fill="none" stroke="#000000" points="424.5,-1281.7716 233.5,-1281.7716 233.5,-1245.7716 424.5,-1245.7716 424.5,-1281.7716"/>
<text text-anchor="middle" x="329" y="-1258.7716" font-family="Times,serif" font-size="20.00" fill="#000000">X&#45;Frame&#45;Options</text>
</g>
<!-- SG_0_Node_1&#45;&gt;SG_0_Node_2 -->
<g id="edge4" class="edge">
<title>SG_0_Node_1&#45;&gt;SG_0_Node_2</title>
<path fill="none" stroke="#000000" d="M266.2535,-1516.1114C277.2278,-1505.5536 289.7945,-1491.3152 297,-1475.9848 325.7223,-1414.8756 329.8154,-1333.9385 329.756,-1291.8701"/>
<polygon fill="#000000" stroke="#000000" points="333.2553,-1291.7724 329.6596,-1281.8064 326.2556,-1291.8395 333.2553,-1291.7724"/>
<text text-anchor="middle" x="376" y="-1404.9848" font-family="Times,serif" font-size="20.00" fill="#000000">empty</text>
<text text-anchor="middle" x="376" y="-1382.9848" font-family="Times,serif" font-size="20.00" fill="#000000">text/html</text>
</g>
<!-- SG_0_Node_13 -->
<g id="node6" class="node">
<title>SG_0_Node_13</title>
<ellipse fill="none" stroke="#000000" cx="234" cy="-1103.3452" rx="34.7971" ry="21.4286"/>
<text text-anchor="middle" x="234" y="-1098.3452" font-family="Times,serif" font-size="20.00" fill="#000000">0.0</text>
</g>
<!-- SG_0_Node_2&#45;&gt;SG_0_Node_13 -->
<g id="edge5" class="edge">
<title>SG_0_Node_2&#45;&gt;SG_0_Node_13</title>
<path fill="none" stroke="#000000" d="M318.287,-1245.6805C301.9199,-1218.0416 270.5386,-1165.048 251.0278,-1132.1"/>
<polygon fill="#000000" stroke="#000000" points="253.9688,-1130.1974 245.8618,-1123.3763 247.9456,-1133.7642 253.9688,-1130.1974"/>
<text text-anchor="middle" x="319" y="-1189.5584" font-family="Times,serif" font-size="20.00" fill="#000000">[NA]</text>
<text text-anchor="middle" x="319" y="-1167.5584" font-family="Times,serif" font-size="20.00" fill="#000000">deny</text>
</g>
<!-- SG_0_Node_3 -->
<g id="node7" class="node">
<title>SG_0_Node_3</title>
<polygon fill="none" stroke="#000000" points="507.5,-1121.3452 286.5,-1121.3452 286.5,-1085.3452 507.5,-1085.3452 507.5,-1121.3452"/>
<text text-anchor="middle" x="397" y="-1098.3452" font-family="Times,serif" font-size="20.00" fill="#000000">Content&#45;Disposition</text>
</g>
<!-- SG_0_Node_2&#45;&gt;SG_0_Node_3 -->
<g id="edge6" class="edge">
<title>SG_0_Node_2&#45;&gt;SG_0_Node_3</title>
<path fill="none" stroke="#000000" d="M336.6683,-1245.6805C348.5038,-1217.758 371.3081,-1163.9578 385.2389,-1131.0921"/>
<polygon fill="#000000" stroke="#000000" points="388.5752,-1132.1894 389.2554,-1121.6164 382.1303,-1129.4575 388.5752,-1132.1894"/>
<text text-anchor="middle" x="403" y="-1178.5584" font-family="Times,serif" font-size="20.00" fill="#000000">empty</text>
</g>
<!-- SG_0_Node_14 -->
<g id="node8" class="node">
<title>SG_0_Node_14</title>
<ellipse fill="none" stroke="#000000" cx="320" cy="-942.9188" rx="34.7971" ry="21.4286"/>
<text text-anchor="middle" x="320" y="-937.9188" font-family="Times,serif" font-size="20.00" fill="#000000">0.0</text>
</g>
<!-- SG_0_Node_3&#45;&gt;SG_0_Node_14 -->
<g id="edge7" class="edge">
<title>SG_0_Node_3&#45;&gt;SG_0_Node_14</title>
<path fill="none" stroke="#000000" d="M369.8671,-1085.1841C356.8587,-1074.9898 342.3288,-1061.1109 334,-1045.132 322.5976,-1023.2564 319.412,-995.3334 318.9023,-974.202"/>
<polygon fill="#000000" stroke="#000000" points="322.402,-974.1154 318.8464,-964.1351 315.4021,-974.1544 322.402,-974.1154"/>
<text text-anchor="middle" x="393" y="-1018.132" font-family="Times,serif" font-size="20.00" fill="#000000">attachment</text>
</g>
<!-- SG_0_Node_4 -->
<g id="node9" class="node">
<title>SG_0_Node_4</title>
<polygon fill="none" stroke="#000000" points="545,-960.9188 403,-960.9188 403,-924.9188 545,-924.9188 545,-960.9188"/>
<text text-anchor="middle" x="474" y="-937.9188" font-family="Times,serif" font-size="20.00" fill="#000000">Status&#45;Code</text>
</g>
<!-- SG_0_Node_3&#45;&gt;SG_0_Node_4 -->
<g id="edge8" class="edge">
<title>SG_0_Node_3&#45;&gt;SG_0_Node_4</title>
<path fill="none" stroke="#000000" d="M419.1074,-1085.2971C430.6021,-1074.751 443.9049,-1060.5114 452,-1045.132 464.1509,-1022.0472 469.5925,-992.6674 472.0284,-971.3363"/>
<polygon fill="#000000" stroke="#000000" points="475.5214,-971.5792 473.0236,-961.2831 468.5555,-970.8896 475.5214,-971.5792"/>
<text text-anchor="middle" x="498" y="-1029.132" font-family="Times,serif" font-size="20.00" fill="#000000">[NA]</text>
<text text-anchor="middle" x="498" y="-1007.132" font-family="Times,serif" font-size="20.00" fill="#000000">empty</text>
</g>
<!-- SG_0_Node_5 -->
<g id="node10" class="node">
<title>SG_0_Node_5</title>
<polygon fill="none" stroke="#000000" points="417,-803.7056 275,-803.7056 275,-767.7056 417,-767.7056 417,-803.7056"/>
<text text-anchor="middle" x="346" y="-780.7056" font-family="Times,serif" font-size="20.00" fill="#000000">Status&#45;Code</text>
</g>
<!-- SG_0_Node_4&#45;&gt;SG_0_Node_5 -->
<g id="edge9" class="edge">
<title>SG_0_Node_4&#45;&gt;SG_0_Node_5</title>
<path fill="none" stroke="#000000" d="M448.5768,-924.7782C434.6928,-914.0996 417.778,-899.7623 405,-884.7056 386.2509,-862.6131 369.8334,-833.8341 359.1097,-813.0039"/>
<polygon fill="#000000" stroke="#000000" points="362.221,-811.4004 354.5953,-804.0451 355.9698,-814.5505 362.221,-811.4004"/>
<text text-anchor="middle" x="451" y="-857.7056" font-family="Times,serif" font-size="20.00" fill="#000000">13 levels</text>
</g>
<!-- SG_0_Node_6 -->
<g id="node11" class="node">
<title>SG_0_Node_6</title>
<polygon fill="none" stroke="#000000" points="625.5,-803.7056 470.5,-803.7056 470.5,-767.7056 625.5,-767.7056 625.5,-803.7056"/>
<text text-anchor="middle" x="548" y="-780.7056" font-family="Times,serif" font-size="20.00" fill="#000000">Content&#45;Type</text>
</g>
<!-- SG_0_Node_4&#45;&gt;SG_0_Node_6 -->
<g id="edge10" class="edge">
<title>SG_0_Node_4&#45;&gt;SG_0_Node_6</title>
<path fill="none" stroke="#000000" d="M482.4887,-924.8845C495.3561,-897.5478 519.8962,-845.4123 535.0158,-813.2906"/>
<polygon fill="#000000" stroke="#000000" points="538.2902,-814.5523 539.3823,-804.0139 531.9567,-811.5711 538.2902,-814.5523"/>
<text text-anchor="middle" x="567" y="-868.7056" font-family="Times,serif" font-size="20.00" fill="#000000">[NA]</text>
<text text-anchor="middle" x="567" y="-846.7056" font-family="Times,serif" font-size="20.00" fill="#000000">50 levels</text>
</g>
<!-- SG_0_Node_15 -->
<g id="node12" class="node">
<title>SG_0_Node_15</title>
<ellipse fill="none" stroke="#000000" cx="241" cy="-496.4924" rx="34.7971" ry="21.4286"/>
<text text-anchor="middle" x="241" y="-491.4924" font-family="Times,serif" font-size="20.00" fill="#000000">0.0</text>
</g>
<!-- SG_0_Node_5&#45;&gt;SG_0_Node_15 -->
<g id="edge15" class="edge">
<title>SG_0_Node_5&#45;&gt;SG_0_Node_15</title>
<path fill="none" stroke="#000000" d="M328.8269,-767.6523C319.9856,-757.4896 309.688,-744.165 303,-730.7056 269.2251,-662.7351 252.26,-574.2202 245.1879,-527.8926"/>
<polygon fill="#000000" stroke="#000000" points="248.6309,-527.2479 243.7121,-517.8641 241.7055,-528.2671 248.6309,-527.2479"/>
<text text-anchor="middle" x="322.5" y="-714.7056" font-family="Times,serif" font-size="20.00" fill="#000000">100</text>
<text text-anchor="middle" x="322.5" y="-692.7056" font-family="Times,serif" font-size="20.00" fill="#000000">101</text>
<text text-anchor="middle" x="322.5" y="-670.7056" font-family="Times,serif" font-size="20.00" fill="#000000">102</text>
<text text-anchor="middle" x="322.5" y="-648.7056" font-family="Times,serif" font-size="20.00" fill="#000000">103</text>
<text text-anchor="middle" x="322.5" y="-626.7056" font-family="Times,serif" font-size="20.00" fill="#000000">204</text>
<text text-anchor="middle" x="322.5" y="-604.7056" font-family="Times,serif" font-size="20.00" fill="#000000">205</text>
<text text-anchor="middle" x="322.5" y="-582.7056" font-family="Times,serif" font-size="20.00" fill="#000000">304</text>
<text text-anchor="middle" x="322.5" y="-560.7056" font-family="Times,serif" font-size="20.00" fill="#000000">407</text>
</g>
<!-- SG_0_Node_7 -->
<g id="node13" class="node">
<title>SG_0_Node_7</title>
<polygon fill="none" stroke="#000000" points="398.5,-514.4924 293.5,-514.4924 293.5,-478.4924 398.5,-478.4924 398.5,-514.4924"/>
<text text-anchor="middle" x="346" y="-491.4924" font-family="Times,serif" font-size="20.00" fill="#000000">Location</text>
</g>
<!-- SG_0_Node_5&#45;&gt;SG_0_Node_7 -->
<g id="edge16" class="edge">
<title>SG_0_Node_5&#45;&gt;SG_0_Node_7</title>
<path fill="none" stroke="#000000" d="M346,-767.614C346,-718.7186 346,-583.6542 346,-524.6679"/>
<polygon fill="#000000" stroke="#000000" points="349.5001,-524.5771 346,-514.5772 342.5001,-524.5772 349.5001,-524.5771"/>
<text text-anchor="middle" x="365.5" y="-681.7056" font-family="Times,serif" font-size="20.00" fill="#000000">301</text>
<text text-anchor="middle" x="365.5" y="-659.7056" font-family="Times,serif" font-size="20.00" fill="#000000">302</text>
<text text-anchor="middle" x="365.5" y="-637.7056" font-family="Times,serif" font-size="20.00" fill="#000000">303</text>
<text text-anchor="middle" x="365.5" y="-615.7056" font-family="Times,serif" font-size="20.00" fill="#000000">307</text>
<text text-anchor="middle" x="365.5" y="-593.7056" font-family="Times,serif" font-size="20.00" fill="#000000">308</text>
</g>
<!-- SG_0_Node_8 -->
<g id="node14" class="node">
<title>SG_0_Node_8</title>
<polygon fill="none" stroke="#000000" points="679,-514.4924 417,-514.4924 417,-478.4924 679,-478.4924 679,-514.4924"/>
<text text-anchor="middle" x="548" y="-491.4924" font-family="Times,serif" font-size="20.00" fill="#000000">X&#45;Content&#45;Type&#45;Options</text>
</g>
<!-- SG_0_Node_6&#45;&gt;SG_0_Node_8 -->
<g id="edge11" class="edge">
<title>SG_0_Node_6&#45;&gt;SG_0_Node_8</title>
<path fill="none" stroke="#000000" d="M548,-767.614C548,-718.7186 548,-583.6542 548,-524.6679"/>
<polygon fill="#000000" stroke="#000000" points="551.5001,-524.5771 548,-514.5772 544.5001,-524.5772 551.5001,-524.5771"/>
<text text-anchor="middle" x="580" y="-637.7056" font-family="Times,serif" font-size="20.00" fill="#000000">empty</text>
</g>
<!-- SG_0_Node_16 -->
<g id="node15" class="node">
<title>SG_0_Node_16</title>
<ellipse fill="none" stroke="#000000" cx="732" cy="-496.4924" rx="34.7971" ry="21.4286"/>
<text text-anchor="middle" x="732" y="-491.4924" font-family="Times,serif" font-size="20.00" fill="#000000">1.0</text>
</g>
<!-- SG_0_Node_6&#45;&gt;SG_0_Node_16 -->
<g id="edge12" class="edge">
<title>SG_0_Node_6&#45;&gt;SG_0_Node_16</title>
<path fill="none" stroke="#000000" d="M575.5397,-767.6721C588.9568,-757.9012 604.6101,-744.9273 616,-730.7056 667.9274,-665.868 704.9074,-573.9906 721.7634,-526.9026"/>
<polygon fill="#000000" stroke="#000000" points="725.1284,-527.8839 725.1467,-517.2891 718.5254,-525.56 725.1284,-527.8839"/>
<text text-anchor="middle" x="757" y="-637.7056" font-family="Times,serif" font-size="20.00" fill="#000000">text/html</text>
</g>
<!-- SG_0_Node_17 -->
<g id="node16" class="node">
<title>SG_0_Node_17</title>
<ellipse fill="none" stroke="#000000" cx="85" cy="-336.066" rx="34.7971" ry="21.4286"/>
<text text-anchor="middle" x="85" y="-331.066" font-family="Times,serif" font-size="20.00" fill="#000000">0.0</text>
</g>
<!-- SG_0_Node_7&#45;&gt;SG_0_Node_17 -->
<g id="edge17" class="edge">
<title>SG_0_Node_7&#45;&gt;SG_0_Node_17</title>
<path fill="none" stroke="#000000" d="M295.5564,-478.4149C291.999,-477.3053 288.4548,-476.2476 285,-475.2792 209.7085,-454.1755 169.8035,-492.015 113,-438.2792 93.8458,-420.1595 87.362,-390.2967 85.3654,-367.5159"/>
<polygon fill="#000000" stroke="#000000" points="88.8437,-367.0603 84.7218,-357.3002 81.8575,-367.5005 88.8437,-367.0603"/>
<text text-anchor="middle" x="228" y="-422.2792" font-family="Times,serif" font-size="20.00" fill="#000000">[NA]</text>
<text text-anchor="middle" x="228" y="-400.2792" font-family="Times,serif" font-size="20.00" fill="#000000">http://172.17.0.1:8000</text>
</g>
<!-- SG_0_Node_9 -->
<g id="node17" class="node">
<title>SG_0_Node_9</title>
<polygon fill="none" stroke="#000000" points="482,-354.066 220,-354.066 220,-318.066 482,-318.066 482,-354.066"/>
<text text-anchor="middle" x="351" y="-331.066" font-family="Times,serif" font-size="20.00" fill="#000000">X&#45;Content&#45;Type&#45;Options</text>
</g>
<!-- SG_0_Node_7&#45;&gt;SG_0_Node_9 -->
<g id="edge18" class="edge">
<title>SG_0_Node_7&#45;&gt;SG_0_Node_9</title>
<path fill="none" stroke="#000000" d="M346.5638,-478.4013C347.4266,-450.7194 349.082,-397.6042 350.1086,-364.6675"/>
<polygon fill="#000000" stroke="#000000" points="353.6172,-364.4414 350.4305,-354.3371 346.6206,-364.2232 353.6172,-364.4414"/>
<text text-anchor="middle" x="381" y="-411.2792" font-family="Times,serif" font-size="20.00" fill="#000000">empty</text>
</g>
<!-- SG_0_Node_18 -->
<g id="node18" class="node">
<title>SG_0_Node_18</title>
<ellipse fill="none" stroke="#000000" cx="544" cy="-336.066" rx="34.7971" ry="21.4286"/>
<text text-anchor="middle" x="544" y="-331.066" font-family="Times,serif" font-size="20.00" fill="#000000">0.0</text>
</g>
<!-- SG_0_Node_8&#45;&gt;SG_0_Node_18 -->
<g id="edge13" class="edge">
<title>SG_0_Node_8&#45;&gt;SG_0_Node_18</title>
<path fill="none" stroke="#000000" d="M547.5489,-478.4013C546.8778,-451.4864 545.6073,-400.5279 544.7825,-367.4506"/>
<polygon fill="#000000" stroke="#000000" points="548.28,-367.3023 544.5318,-357.3927 541.2822,-367.4769 548.28,-367.3023"/>
<text text-anchor="middle" x="581" y="-411.2792" font-family="Times,serif" font-size="20.00" fill="#000000">nosniff</text>
</g>
<!-- SG_0_Node_19 -->
<g id="node19" class="node">
<title>SG_0_Node_19</title>
<ellipse fill="none" stroke="#000000" cx="650" cy="-336.066" rx="34.7971" ry="21.4286"/>
<text text-anchor="middle" x="650" y="-331.066" font-family="Times,serif" font-size="20.00" fill="#000000">1.0</text>
</g>
<!-- SG_0_Node_8&#45;&gt;SG_0_Node_19 -->
<g id="edge14" class="edge">
<title>SG_0_Node_8&#45;&gt;SG_0_Node_19</title>
<path fill="none" stroke="#000000" d="M578.3088,-478.248C592.808,-468.121 609.2972,-454.327 620,-438.2792 634.1976,-416.9913 641.8116,-388.8573 645.8114,-367.4957"/>
<polygon fill="#000000" stroke="#000000" points="649.2658,-368.059 647.4975,-357.6128 642.3655,-366.8816 649.2658,-368.059"/>
<text text-anchor="middle" x="671" y="-422.2792" font-family="Times,serif" font-size="20.00" fill="#000000">[NA]</text>
<text text-anchor="middle" x="671" y="-400.2792" font-family="Times,serif" font-size="20.00" fill="#000000">empty</text>
</g>
<!-- SG_0_Node_10 -->
<g id="node20" class="node">
<title>SG_0_Node_10</title>
<polygon fill="none" stroke="#000000" points="363.5,-193.6396 208.5,-193.6396 208.5,-157.6396 363.5,-157.6396 363.5,-193.6396"/>
<text text-anchor="middle" x="286" y="-170.6396" font-family="Times,serif" font-size="20.00" fill="#000000">Content&#45;Type</text>
</g>
<!-- SG_0_Node_9&#45;&gt;SG_0_Node_10 -->
<g id="edge19" class="edge">
<title>SG_0_Node_9&#45;&gt;SG_0_Node_10</title>
<path fill="none" stroke="#000000" d="M339.4146,-317.9676C332.5594,-306.7292 324.0602,-291.813 318,-277.8528 307.4217,-253.4849 298.6843,-224.4821 293.0275,-203.6065"/>
<polygon fill="#000000" stroke="#000000" points="296.3702,-202.5563 290.4301,-193.7832 289.6027,-204.3457 296.3702,-202.5563"/>
<text text-anchor="middle" x="353" y="-250.8528" font-family="Times,serif" font-size="20.00" fill="#000000">nosniff</text>
</g>
<!-- SG_0_Node_20 -->
<g id="node21" class="node">
<title>SG_0_Node_20</title>
<ellipse fill="none" stroke="#000000" cx="416" cy="-175.6396" rx="34.7971" ry="21.4286"/>
<text text-anchor="middle" x="416" y="-170.6396" font-family="Times,serif" font-size="20.00" fill="#000000">1.0</text>
</g>
<!-- SG_0_Node_9&#45;&gt;SG_0_Node_20 -->
<g id="edge20" class="edge">
<title>SG_0_Node_9&#45;&gt;SG_0_Node_20</title>
<path fill="none" stroke="#000000" d="M364.4864,-317.9868C372.2551,-306.877 381.6979,-292.0878 388,-277.8528 398.1311,-254.9687 405.401,-227.5469 409.99,-206.8697"/>
<polygon fill="#000000" stroke="#000000" points="413.4276,-207.5312 412.0873,-197.0215 406.5811,-206.0732 413.4276,-207.5312"/>
<text text-anchor="middle" x="435" y="-261.8528" font-family="Times,serif" font-size="20.00" fill="#000000">[NA]</text>
<text text-anchor="middle" x="435" y="-239.8528" font-family="Times,serif" font-size="20.00" fill="#000000">empty</text>
</g>
<!-- SG_0_Node_21 -->
<g id="node22" class="node">
<title>SG_0_Node_21</title>
<ellipse fill="none" stroke="#000000" cx="236" cy="-37.2132" rx="34.7971" ry="21.4286"/>
<text text-anchor="middle" x="236" y="-32.2132" font-family="Times,serif" font-size="20.00" fill="#000000">0.0</text>
</g>
<!-- SG_0_Node_10&#45;&gt;SG_0_Node_21 -->
<g id="edge21" class="edge">
<title>SG_0_Node_10&#45;&gt;SG_0_Node_21</title>
<path fill="none" stroke="#000000" d="M272.2331,-157.453C264.5462,-146.4243 255.4476,-131.7547 250,-117.4264 244.1382,-102.0088 240.7115,-83.9821 238.7178,-68.9275"/>
<polygon fill="#000000" stroke="#000000" points="242.1444,-68.0956 237.5051,-58.5705 235.1919,-68.9097 242.1444,-68.0956"/>
<text text-anchor="middle" x="282" y="-101.4264" font-family="Times,serif" font-size="20.00" fill="#000000">empty</text>
</g>
<!-- SG_0_Node_22 -->
<g id="node23" class="node">
<title>SG_0_Node_22</title>
<ellipse fill="none" stroke="#000000" cx="336" cy="-37.2132" rx="34.7971" ry="21.4286"/>
<text text-anchor="middle" x="336" y="-32.2132" font-family="Times,serif" font-size="20.00" fill="#000000">1.0</text>
</g>
<!-- SG_0_Node_10&#45;&gt;SG_0_Node_22 -->
<g id="edge22" class="edge">
<title>SG_0_Node_10&#45;&gt;SG_0_Node_22</title>
<path fill="none" stroke="#000000" d="M295.8258,-157.3979C301.6407,-146.1073 308.8521,-131.1863 314,-117.4264 319.9612,-101.4927 325.0951,-83.2363 328.9005,-68.1696"/>
<polygon fill="#000000" stroke="#000000" points="332.3343,-68.862 331.3166,-58.3161 325.5357,-67.1949 332.3343,-68.862"/>
<text text-anchor="middle" x="368" y="-101.4264" font-family="Times,serif" font-size="20.00" fill="#000000">text/html</text>
</g>
</g>
</svg>
