<?xml version="1.0" encoding="UTF-8" standalone="no"?>
<!DOCTYPE svg PUBLIC "-//W3C//DTD SVG 1.1//EN"
 "http://www.w3.org/Graphics/SVG/1.1/DTD/svg11.dtd">
<!-- Generated by graphviz version 2.40.1 (20161225.0304)
 -->
<!-- Title: G Pages: 1 -->
<svg width="2373pt" height="1785pt"
 viewBox="0.00 0.00 2373.00 1785.41" xmlns="http://www.w3.org/2000/svg" xmlns:xlink="http://www.w3.org/1999/xlink">
<g id="graph0" class="graph" transform="scale(1 1) rotate(0) translate(4 1781.4113)">
<title>G</title>
<polygon fill="#ffffff" stroke="transparent" points="-4,4 -4,-1781.4113 2369,-1781.4113 2369,4 -4,4"/>
<g id="clust1" class="cluster">
<title>cluster_0</title>
<polygon fill="none" stroke="#000000" points="8,-8 8,-1769.4113 2357,-1769.4113 2357,-8 8,-8"/>
<text text-anchor="middle" x="1182.5" y="-1733.4113" font-family="Times,serif" font-size="40.00" fill="#000000">Tree 0, Class [&#39;Message: mes1 Origin: https://172.17.0.1:44300&#39;, &#39;Message: mes1 Origin: https://172.17.0.1:44300&#39;]</text>
</g>
<!-- SG_0_Node_0 -->
<g id="node1" class="node">
<title>SG_0_Node_0</title>
<polygon fill="none" stroke="#000000" points="211.5,-1709.4113 146.5,-1709.4113 146.5,-1673.4113 211.5,-1673.4113 211.5,-1709.4113"/>
<text text-anchor="middle" x="179" y="-1686.4113" font-family="Times,serif" font-size="20.00" fill="#000000">body</text>
</g>
<!-- SG_0_Node_11 -->
<g id="node2" class="node">
<title>SG_0_Node_11</title>
<ellipse fill="none" stroke="#000000" cx="115" cy="-1534.1981" rx="34.7971" ry="21.4286"/>
<text text-anchor="middle" x="115" y="-1529.1981" font-family="Times,serif" font-size="20.00" fill="#000000">0.0</text>
</g>
<!-- SG_0_Node_0&#45;&gt;SG_0_Node_11 -->
<g id="edge1" class="edge">
<title>SG_0_Node_0&#45;&gt;SG_0_Node_11</title>
<path fill="none" stroke="#000000" d="M157.7021,-1673.1101C147.6635,-1663.271 136.4912,-1650.3169 130,-1636.4113 119.6634,-1614.268 116.0807,-1586.7418 114.9906,-1565.8349"/>
<polygon fill="#000000" stroke="#000000" points="118.4788,-1565.4381 114.6252,-1555.5689 111.4832,-1565.6871 118.4788,-1565.4381"/>
<text text-anchor="middle" x="176" y="-1620.4113" font-family="Times,serif" font-size="20.00" fill="#000000">[NA]</text>
<text text-anchor="middle" x="176" y="-1598.4113" font-family="Times,serif" font-size="20.00" fill="#000000">11 levels</text>
</g>
<!-- SG_0_Node_1 -->
<g id="node3" class="node">
<title>SG_0_Node_1</title>
<polygon fill="none" stroke="#000000" points="322.5,-1552.1981 167.5,-1552.1981 167.5,-1516.1981 322.5,-1516.1981 322.5,-1552.1981"/>
<text text-anchor="middle" x="245" y="-1529.1981" font-family="Times,serif" font-size="20.00" fill="#000000">Content&#45;Type</text>
</g>
<!-- SG_0_Node_0&#45;&gt;SG_0_Node_1 -->
<g id="edge2" class="edge">
<title>SG_0_Node_0&#45;&gt;SG_0_Node_1</title>
<path fill="none" stroke="#000000" d="M196.8067,-1672.963C205.6064,-1662.8919 215.6689,-1649.7744 222,-1636.4113 233.1923,-1612.7874 239.0668,-1583.4737 242.0668,-1562.3044"/>
<polygon fill="#000000" stroke="#000000" points="245.5441,-1562.7047 243.3531,-1552.3389 238.6017,-1561.8086 245.5441,-1562.7047"/>
<text text-anchor="middle" x="415" y="-1609.4113" font-family="Times,serif" font-size="20.00" fill="#000000">ecocnt_html=post_message=mes1</text>
</g>
<!-- SG_0_Node_12 -->
<g id="node4" class="node">
<title>SG_0_Node_12</title>
<ellipse fill="none" stroke="#000000" cx="62" cy="-1263.7716" rx="34.7971" ry="21.4286"/>
<text text-anchor="middle" x="62" y="-1258.7716" font-family="Times,serif" font-size="20.00" fill="#000000">0.0</text>
</g>
<!-- SG_0_Node_1&#45;&gt;SG_0_Node_12 -->
<g id="edge3" class="edge">
<title>SG_0_Node_1&#45;&gt;SG_0_Node_12</title>
<path fill="none" stroke="#000000" d="M174.8878,-1516.1524C126.2996,-1502.9408 69.097,-1485.6899 62,-1475.9848 22.7579,-1422.3221 38.8362,-1338.8753 51.7452,-1294.2928"/>
<polygon fill="#000000" stroke="#000000" points="55.1275,-1295.1997 54.6765,-1284.6145 48.428,-1293.1706 55.1275,-1295.1997"/>
<text text-anchor="middle" x="173" y="-1459.9848" font-family="Times,serif" font-size="20.00" fill="#000000">[NA]</text>
<text text-anchor="middle" x="173" y="-1437.9848" font-family="Times,serif" font-size="20.00" fill="#000000">application/javascript</text>
<text text-anchor="middle" x="173" y="-1415.9848" font-family="Times,serif" font-size="20.00" fill="#000000">application/pdf</text>
<text text-anchor="middle" x="173" y="-1393.9848" font-family="Times,serif" font-size="20.00" fill="#000000">audio/wav</text>
<text text-anchor="middle" x="173" y="-1371.9848" font-family="Times,serif" font-size="20.00" fill="#000000">image/png</text>
<text text-anchor="middle" x="173" y="-1349.9848" font-family="Times,serif" font-size="20.00" fill="#000000">text/css</text>
<text text-anchor="middle" x="173" y="-1327.9848" font-family="Times,serif" font-size="20.00" fill="#000000">video/mp4</text>
</g>
<!-- SG_0_Node_2 -->
<g id="node5" class="node">
<title>SG_0_Node_2</title>
<polygon fill="none" stroke="#000000" points="415.5,-1281.7716 224.5,-1281.7716 224.5,-1245.7716 415.5,-1245.7716 415.5,-1281.7716"/>
<text text-anchor="middle" x="320" y="-1258.7716" font-family="Times,serif" font-size="20.00" fill="#000000">X&#45;Frame&#45;Options</text>
</g>
<!-- SG_0_Node_1&#45;&gt;SG_0_Node_2 -->
<g id="edge4" class="edge">
<title>SG_0_Node_1&#45;&gt;SG_0_Node_2</title>
<path fill="none" stroke="#000000" d="M262.0976,-1515.9796C271.2596,-1505.1678 281.89,-1490.7259 288,-1475.9848 313.7342,-1413.8986 319.0904,-1333.9465 320.0094,-1292.13"/>
<polygon fill="#000000" stroke="#000000" points="323.5127,-1291.9238 320.1608,-1281.8732 316.5135,-1291.8204 323.5127,-1291.9238"/>
<text text-anchor="middle" x="365" y="-1404.9848" font-family="Times,serif" font-size="20.00" fill="#000000">empty</text>
<text text-anchor="middle" x="365" y="-1382.9848" font-family="Times,serif" font-size="20.00" fill="#000000">text/html</text>
</g>
<!-- SG_0_Node_13 -->
<g id="node6" class="node">
<title>SG_0_Node_13</title>
<ellipse fill="none" stroke="#000000" cx="229" cy="-1103.3452" rx="34.7971" ry="21.4286"/>
<text text-anchor="middle" x="229" y="-1098.3452" font-family="Times,serif" font-size="20.00" fill="#000000">0.0</text>
</g>
<!-- SG_0_Node_2&#45;&gt;SG_0_Node_13 -->
<g id="edge5" class="edge">
<title>SG_0_Node_2&#45;&gt;SG_0_Node_13</title>
<path fill="none" stroke="#000000" d="M309.738,-1245.6805C294.1026,-1218.1165 264.163,-1165.335 245.463,-1132.3683"/>
<polygon fill="#000000" stroke="#000000" points="248.4862,-1130.6041 240.5079,-1123.6329 242.3975,-1134.0578 248.4862,-1130.6041"/>
<text text-anchor="middle" x="310.5" y="-1178.5584" font-family="Times,serif" font-size="20.00" fill="#000000">deny</text>
</g>
<!-- SG_0_Node_3 -->
<g id="node7" class="node">
<title>SG_0_Node_3</title>
<polygon fill="none" stroke="#000000" points="502.5,-1121.3452 281.5,-1121.3452 281.5,-1085.3452 502.5,-1085.3452 502.5,-1121.3452"/>
<text text-anchor="middle" x="392" y="-1098.3452" font-family="Times,serif" font-size="20.00" fill="#000000">Content&#45;Disposition</text>
</g>
<!-- SG_0_Node_2&#45;&gt;SG_0_Node_3 -->
<g id="edge6" class="edge">
<title>SG_0_Node_2&#45;&gt;SG_0_Node_3</title>
<path fill="none" stroke="#000000" d="M328.1194,-1245.6805C340.6511,-1217.758 364.7969,-1163.9578 379.5471,-1131.0921"/>
<polygon fill="#000000" stroke="#000000" points="382.8984,-1132.1728 383.7998,-1121.6164 376.5121,-1129.3065 382.8984,-1132.1728"/>
<text text-anchor="middle" x="397" y="-1189.5584" font-family="Times,serif" font-size="20.00" fill="#000000">[NA]</text>
<text text-anchor="middle" x="397" y="-1167.5584" font-family="Times,serif" font-size="20.00" fill="#000000">empty</text>
</g>
<!-- SG_0_Node_14 -->
<g id="node8" class="node">
<title>SG_0_Node_14</title>
<ellipse fill="none" stroke="#000000" cx="315" cy="-942.9188" rx="34.7971" ry="21.4286"/>
<text text-anchor="middle" x="315" y="-937.9188" font-family="Times,serif" font-size="20.00" fill="#000000">0.0</text>
</g>
<!-- SG_0_Node_3&#45;&gt;SG_0_Node_14 -->
<g id="edge7" class="edge">
<title>SG_0_Node_3&#45;&gt;SG_0_Node_14</title>
<path fill="none" stroke="#000000" d="M364.8671,-1085.1841C351.8587,-1074.9898 337.3288,-1061.1109 329,-1045.132 317.5976,-1023.2564 314.412,-995.3334 313.9023,-974.202"/>
<polygon fill="#000000" stroke="#000000" points="317.402,-974.1154 313.8464,-964.1351 310.4021,-974.1544 317.402,-974.1154"/>
<text text-anchor="middle" x="388" y="-1018.132" font-family="Times,serif" font-size="20.00" fill="#000000">attachment</text>
</g>
<!-- SG_0_Node_4 -->
<g id="node9" class="node">
<title>SG_0_Node_4</title>
<polygon fill="none" stroke="#000000" points="540,-960.9188 398,-960.9188 398,-924.9188 540,-924.9188 540,-960.9188"/>
<text text-anchor="middle" x="469" y="-937.9188" font-family="Times,serif" font-size="20.00" fill="#000000">Status&#45;Code</text>
</g>
<!-- SG_0_Node_3&#45;&gt;SG_0_Node_4 -->
<g id="edge8" class="edge">
<title>SG_0_Node_3&#45;&gt;SG_0_Node_4</title>
<path fill="none" stroke="#000000" d="M414.1074,-1085.2971C425.6021,-1074.751 438.9049,-1060.5114 447,-1045.132 459.1509,-1022.0472 464.5925,-992.6674 467.0284,-971.3363"/>
<polygon fill="#000000" stroke="#000000" points="470.5214,-971.5792 468.0236,-961.2831 463.5555,-970.8896 470.5214,-971.5792"/>
<text text-anchor="middle" x="493" y="-1029.132" font-family="Times,serif" font-size="20.00" fill="#000000">[NA]</text>
<text text-anchor="middle" x="493" y="-1007.132" font-family="Times,serif" font-size="20.00" fill="#000000">empty</text>
</g>
<!-- SG_0_Node_5 -->
<g id="node10" class="node">
<title>SG_0_Node_5</title>
<polygon fill="none" stroke="#000000" points="406,-803.7056 264,-803.7056 264,-767.7056 406,-767.7056 406,-803.7056"/>
<text text-anchor="middle" x="335" y="-780.7056" font-family="Times,serif" font-size="20.00" fill="#000000">Status&#45;Code</text>
</g>
<!-- SG_0_Node_4&#45;&gt;SG_0_Node_5 -->
<g id="edge9" class="edge">
<title>SG_0_Node_4&#45;&gt;SG_0_Node_5</title>
<path fill="none" stroke="#000000" d="M446.8517,-924.8697C433.9861,-913.8883 417.8354,-899.2201 405,-884.7056 384.7145,-861.7666 364.8798,-832.9297 351.534,-812.3051"/>
<polygon fill="#000000" stroke="#000000" points="354.3901,-810.2747 346.055,-803.7342 348.4922,-814.0449 354.3901,-810.2747"/>
<text text-anchor="middle" x="451" y="-857.7056" font-family="Times,serif" font-size="20.00" fill="#000000">13 levels</text>
</g>
<!-- SG_0_Node_6 -->
<g id="node11" class="node">
<title>SG_0_Node_6</title>
<polygon fill="none" stroke="#000000" points="686,-803.7056 424,-803.7056 424,-767.7056 686,-767.7056 686,-803.7056"/>
<text text-anchor="middle" x="555" y="-780.7056" font-family="Times,serif" font-size="20.00" fill="#000000">X&#45;Content&#45;Type&#45;Options</text>
</g>
<!-- SG_0_Node_4&#45;&gt;SG_0_Node_6 -->
<g id="edge10" class="edge">
<title>SG_0_Node_4&#45;&gt;SG_0_Node_6</title>
<path fill="none" stroke="#000000" d="M478.8653,-924.8845C493.8837,-897.43 522.5849,-844.9623 540.1369,-812.8763"/>
<polygon fill="#000000" stroke="#000000" points="543.2563,-814.4668 544.9849,-804.0139 537.115,-811.1073 543.2563,-814.4668"/>
<text text-anchor="middle" x="570" y="-868.7056" font-family="Times,serif" font-size="20.00" fill="#000000">[NA]</text>
<text text-anchor="middle" x="570" y="-846.7056" font-family="Times,serif" font-size="20.00" fill="#000000">50 levels</text>
</g>
<!-- SG_0_Node_15 -->
<g id="node12" class="node">
<title>SG_0_Node_15</title>
<ellipse fill="none" stroke="#000000" cx="241" cy="-496.4924" rx="34.7971" ry="21.4286"/>
<text text-anchor="middle" x="241" y="-491.4924" font-family="Times,serif" font-size="20.00" fill="#000000">0.0</text>
</g>
<!-- SG_0_Node_5&#45;&gt;SG_0_Node_15 -->
<g id="edge15" class="edge">
<title>SG_0_Node_5&#45;&gt;SG_0_Node_15</title>
<path fill="none" stroke="#000000" d="M318.4665,-767.6161C309.9898,-757.4429 300.1774,-744.1197 294,-730.7056 262.533,-662.3756 249.0938,-574.008 243.9019,-527.7986"/>
<polygon fill="#000000" stroke="#000000" points="247.376,-527.3689 242.8342,-517.797 240.4156,-528.1121 247.376,-527.3689"/>
<text text-anchor="middle" x="313.5" y="-714.7056" font-family="Times,serif" font-size="20.00" fill="#000000">100</text>
<text text-anchor="middle" x="313.5" y="-692.7056" font-family="Times,serif" font-size="20.00" fill="#000000">101</text>
<text text-anchor="middle" x="313.5" y="-670.7056" font-family="Times,serif" font-size="20.00" fill="#000000">102</text>
<text text-anchor="middle" x="313.5" y="-648.7056" font-family="Times,serif" font-size="20.00" fill="#000000">103</text>
<text text-anchor="middle" x="313.5" y="-626.7056" font-family="Times,serif" font-size="20.00" fill="#000000">204</text>
<text text-anchor="middle" x="313.5" y="-604.7056" font-family="Times,serif" font-size="20.00" fill="#000000">205</text>
<text text-anchor="middle" x="313.5" y="-582.7056" font-family="Times,serif" font-size="20.00" fill="#000000">304</text>
<text text-anchor="middle" x="313.5" y="-560.7056" font-family="Times,serif" font-size="20.00" fill="#000000">407</text>
</g>
<!-- SG_0_Node_7 -->
<g id="node13" class="node">
<title>SG_0_Node_7</title>
<polygon fill="none" stroke="#000000" points="398.5,-514.4924 293.5,-514.4924 293.5,-478.4924 398.5,-478.4924 398.5,-514.4924"/>
<text text-anchor="middle" x="346" y="-491.4924" font-family="Times,serif" font-size="20.00" fill="#000000">Location</text>
</g>
<!-- SG_0_Node_5&#45;&gt;SG_0_Node_7 -->
<g id="edge16" class="edge">
<title>SG_0_Node_5&#45;&gt;SG_0_Node_7</title>
<path fill="none" stroke="#000000" d="M335.6881,-767.614C337.5478,-718.7186 342.6849,-583.6542 344.9284,-524.6679"/>
<polygon fill="#000000" stroke="#000000" points="348.4295,-524.703 345.3122,-514.5772 341.4345,-524.4369 348.4295,-524.703"/>
<text text-anchor="middle" x="362.5" y="-681.7056" font-family="Times,serif" font-size="20.00" fill="#000000">301</text>
<text text-anchor="middle" x="362.5" y="-659.7056" font-family="Times,serif" font-size="20.00" fill="#000000">302</text>
<text text-anchor="middle" x="362.5" y="-637.7056" font-family="Times,serif" font-size="20.00" fill="#000000">303</text>
<text text-anchor="middle" x="362.5" y="-615.7056" font-family="Times,serif" font-size="20.00" fill="#000000">307</text>
<text text-anchor="middle" x="362.5" y="-593.7056" font-family="Times,serif" font-size="20.00" fill="#000000">308</text>
</g>
<!-- SG_0_Node_8 -->
<g id="node14" class="node">
<title>SG_0_Node_8</title>
<polygon fill="none" stroke="#000000" points="622.5,-514.4924 467.5,-514.4924 467.5,-478.4924 622.5,-478.4924 622.5,-514.4924"/>
<text text-anchor="middle" x="545" y="-491.4924" font-family="Times,serif" font-size="20.00" fill="#000000">Content&#45;Type</text>
</g>
<!-- SG_0_Node_6&#45;&gt;SG_0_Node_8 -->
<g id="edge11" class="edge">
<title>SG_0_Node_6&#45;&gt;SG_0_Node_8</title>
<path fill="none" stroke="#000000" d="M554.3745,-767.614C552.6838,-718.7186 548.0138,-583.6542 545.9742,-524.6679"/>
<polygon fill="#000000" stroke="#000000" points="549.4689,-524.4502 545.6253,-514.5772 542.4731,-524.6922 549.4689,-524.4502"/>
<text text-anchor="middle" x="587" y="-637.7056" font-family="Times,serif" font-size="20.00" fill="#000000">nosniff</text>
</g>
<!-- SG_0_Node_16 -->
<g id="node15" class="node">
<title>SG_0_Node_16</title>
<ellipse fill="none" stroke="#000000" cx="675" cy="-496.4924" rx="34.7971" ry="21.4286"/>
<text text-anchor="middle" x="675" y="-491.4924" font-family="Times,serif" font-size="20.00" fill="#000000">1.0</text>
</g>
<!-- SG_0_Node_6&#45;&gt;SG_0_Node_16 -->
<g id="edge12" class="edge">
<title>SG_0_Node_6&#45;&gt;SG_0_Node_16</title>
<path fill="none" stroke="#000000" d="M587.6001,-767.6218C601.4631,-758.3303 616.5736,-745.7754 626,-730.7056 665.9572,-666.827 673.8918,-575.899 675.1224,-528.3137"/>
<polygon fill="#000000" stroke="#000000" points="678.6269,-528.0748 675.2999,-518.0159 671.628,-527.9541 678.6269,-528.0748"/>
<text text-anchor="middle" x="705" y="-648.7056" font-family="Times,serif" font-size="20.00" fill="#000000">[NA]</text>
<text text-anchor="middle" x="705" y="-626.7056" font-family="Times,serif" font-size="20.00" fill="#000000">empty</text>
</g>
<!-- SG_0_Node_17 -->
<g id="node16" class="node">
<title>SG_0_Node_17</title>
<ellipse fill="none" stroke="#000000" cx="90" cy="-336.066" rx="34.7971" ry="21.4286"/>
<text text-anchor="middle" x="90" y="-331.066" font-family="Times,serif" font-size="20.00" fill="#000000">0.0</text>
</g>
<!-- SG_0_Node_7&#45;&gt;SG_0_Node_17 -->
<g id="edge17" class="edge">
<title>SG_0_Node_7&#45;&gt;SG_0_Node_17</title>
<path fill="none" stroke="#000000" d="M295.5537,-478.4245C291.997,-477.3126 288.4536,-476.2518 285,-475.2792 210.5704,-454.32 170.3712,-492.2523 115,-438.2792 96.366,-420.1158 90.7285,-390.5205 89.3937,-367.8382"/>
<polygon fill="#000000" stroke="#000000" points="92.8854,-367.5303 89.0487,-357.6546 85.8894,-367.7674 92.8854,-367.5303"/>
<text text-anchor="middle" x="230" y="-422.2792" font-family="Times,serif" font-size="20.00" fill="#000000">[NA]</text>
<text text-anchor="middle" x="230" y="-400.2792" font-family="Times,serif" font-size="20.00" fill="#000000">http://172.17.0.1:8000</text>
</g>
<!-- SG_0_Node_9 -->
<g id="node17" class="node">
<title>SG_0_Node_9</title>
<polygon fill="none" stroke="#000000" points="487,-354.066 225,-354.066 225,-318.066 487,-318.066 487,-354.066"/>
<text text-anchor="middle" x="356" y="-331.066" font-family="Times,serif" font-size="20.00" fill="#000000">X&#45;Content&#45;Type&#45;Options</text>
</g>
<!-- SG_0_Node_7&#45;&gt;SG_0_Node_9 -->
<g id="edge18" class="edge">
<title>SG_0_Node_7&#45;&gt;SG_0_Node_9</title>
<path fill="none" stroke="#000000" d="M347.1277,-478.4013C348.8532,-450.7194 352.1641,-397.6042 354.2172,-364.6675"/>
<polygon fill="#000000" stroke="#000000" points="357.7321,-364.5356 354.8611,-354.3371 350.7456,-364.1 357.7321,-364.5356"/>
<text text-anchor="middle" x="384" y="-411.2792" font-family="Times,serif" font-size="20.00" fill="#000000">empty</text>
</g>
<!-- SG_0_Node_18 -->
<g id="node18" class="node">
<title>SG_0_Node_18</title>
<ellipse fill="none" stroke="#000000" cx="541" cy="-336.066" rx="34.7971" ry="21.4286"/>
<text text-anchor="middle" x="541" y="-331.066" font-family="Times,serif" font-size="20.00" fill="#000000">0.0</text>
</g>
<!-- SG_0_Node_8&#45;&gt;SG_0_Node_18 -->
<g id="edge13" class="edge">
<title>SG_0_Node_8&#45;&gt;SG_0_Node_18</title>
<path fill="none" stroke="#000000" d="M544.5489,-478.4013C543.8778,-451.4864 542.6073,-400.5279 541.7825,-367.4506"/>
<polygon fill="#000000" stroke="#000000" points="545.28,-367.3023 541.5318,-357.3927 538.2822,-367.4769 545.28,-367.3023"/>
<text text-anchor="middle" x="575" y="-411.2792" font-family="Times,serif" font-size="20.00" fill="#000000">empty</text>
</g>
<!-- SG_0_Node_19 -->
<g id="node19" class="node">
<title>SG_0_Node_19</title>
<ellipse fill="none" stroke="#000000" cx="641" cy="-336.066" rx="34.7971" ry="21.4286"/>
<text text-anchor="middle" x="641" y="-331.066" font-family="Times,serif" font-size="20.00" fill="#000000">1.0</text>
</g>
<!-- SG_0_Node_8&#45;&gt;SG_0_Node_19 -->
<g id="edge14" class="edge">
<title>SG_0_Node_8&#45;&gt;SG_0_Node_19</title>
<path fill="none" stroke="#000000" d="M572.0928,-478.2665C585.534,-467.9628 600.9925,-454.0048 611,-438.2792 624.6755,-416.7899 632.3195,-388.8375 636.4636,-367.5965"/>
<polygon fill="#000000" stroke="#000000" points="639.9597,-367.9291 638.2766,-357.4688 633.0692,-366.6956 639.9597,-367.9291"/>
<text text-anchor="middle" x="676" y="-411.2792" font-family="Times,serif" font-size="20.00" fill="#000000">text/html</text>
</g>
<!-- SG_0_Node_10 -->
<g id="node20" class="node">
<title>SG_0_Node_10</title>
<polygon fill="none" stroke="#000000" points="371.5,-193.6396 216.5,-193.6396 216.5,-157.6396 371.5,-157.6396 371.5,-193.6396"/>
<text text-anchor="middle" x="294" y="-170.6396" font-family="Times,serif" font-size="20.00" fill="#000000">Content&#45;Type</text>
</g>
<!-- SG_0_Node_9&#45;&gt;SG_0_Node_10 -->
<g id="edge19" class="edge">
<title>SG_0_Node_9&#45;&gt;SG_0_Node_10</title>
<path fill="none" stroke="#000000" d="M342.8089,-317.9755C335.2257,-306.8617 326.0365,-292.0723 320,-277.8528 309.7779,-253.7739 302.8676,-224.7376 298.7563,-203.7758"/>
<polygon fill="#000000" stroke="#000000" points="302.1891,-203.0915 296.9097,-193.9057 295.3085,-204.3788 302.1891,-203.0915"/>
<text text-anchor="middle" x="355" y="-250.8528" font-family="Times,serif" font-size="20.00" fill="#000000">nosniff</text>
</g>
<!-- SG_0_Node_20 -->
<g id="node21" class="node">
<title>SG_0_Node_20</title>
<ellipse fill="none" stroke="#000000" cx="424" cy="-175.6396" rx="34.7971" ry="21.4286"/>
<text text-anchor="middle" x="424" y="-170.6396" font-family="Times,serif" font-size="20.00" fill="#000000">1.0</text>
</g>
<!-- SG_0_Node_9&#45;&gt;SG_0_Node_20 -->
<g id="edge20" class="edge">
<title>SG_0_Node_9&#45;&gt;SG_0_Node_20</title>
<path fill="none" stroke="#000000" d="M367.882,-317.974C374.925,-306.738 383.68,-291.8219 390,-277.8528 400.4854,-254.6769 409.4269,-227.2734 415.5051,-206.6775"/>
<polygon fill="#000000" stroke="#000000" points="418.924,-207.453 418.3342,-196.8746 412.1985,-205.5119 418.924,-207.453"/>
<text text-anchor="middle" x="438" y="-261.8528" font-family="Times,serif" font-size="20.00" fill="#000000">[NA]</text>
<text text-anchor="middle" x="438" y="-239.8528" font-family="Times,serif" font-size="20.00" fill="#000000">empty</text>
</g>
<!-- SG_0_Node_21 -->
<g id="node22" class="node">
<title>SG_0_Node_21</title>
<ellipse fill="none" stroke="#000000" cx="244" cy="-37.2132" rx="34.7971" ry="21.4286"/>
<text text-anchor="middle" x="244" y="-32.2132" font-family="Times,serif" font-size="20.00" fill="#000000">0.0</text>
</g>
<!-- SG_0_Node_10&#45;&gt;SG_0_Node_21 -->
<g id="edge21" class="edge">
<title>SG_0_Node_10&#45;&gt;SG_0_Node_21</title>
<path fill="none" stroke="#000000" d="M280.2331,-157.453C272.5462,-146.4243 263.4476,-131.7547 258,-117.4264 252.1382,-102.0088 248.7115,-83.9821 246.7178,-68.9275"/>
<polygon fill="#000000" stroke="#000000" points="250.1444,-68.0956 245.5051,-58.5705 243.1919,-68.9097 250.1444,-68.0956"/>
<text text-anchor="middle" x="290" y="-101.4264" font-family="Times,serif" font-size="20.00" fill="#000000">empty</text>
</g>
<!-- SG_0_Node_22 -->
<g id="node23" class="node">
<title>SG_0_Node_22</title>
<ellipse fill="none" stroke="#000000" cx="344" cy="-37.2132" rx="34.7971" ry="21.4286"/>
<text text-anchor="middle" x="344" y="-32.2132" font-family="Times,serif" font-size="20.00" fill="#000000">1.0</text>
</g>
<!-- SG_0_Node_10&#45;&gt;SG_0_Node_22 -->
<g id="edge22" class="edge">
<title>SG_0_Node_10&#45;&gt;SG_0_Node_22</title>
<path fill="none" stroke="#000000" d="M303.8258,-157.3979C309.6407,-146.1073 316.8521,-131.1863 322,-117.4264 327.9612,-101.4927 333.0951,-83.2363 336.9005,-68.1696"/>
<polygon fill="#000000" stroke="#000000" points="340.3343,-68.862 339.3166,-58.3161 333.5357,-67.1949 340.3343,-68.862"/>
<text text-anchor="middle" x="376" y="-101.4264" font-family="Times,serif" font-size="20.00" fill="#000000">text/html</text>
</g>
</g>
</svg>
