<?xml version="1.0" encoding="UTF-8" standalone="no"?>
<!DOCTYPE svg PUBLIC "-//W3C//DTD SVG 1.1//EN"
 "http://www.w3.org/Graphics/SVG/1.1/DTD/svg11.dtd">
<!-- Generated by graphviz version 2.40.1 (20161225.0304)
 -->
<!-- Title: G Pages: 1 -->
<svg width="728pt" height="1867pt"
 viewBox="0.00 0.00 728.00 1866.98" xmlns="http://www.w3.org/2000/svg" xmlns:xlink="http://www.w3.org/1999/xlink">
<g id="graph0" class="graph" transform="scale(1 1) rotate(0) translate(4 1862.9848)">
<title>G</title>
<polygon fill="#ffffff" stroke="transparent" points="-4,4 -4,-1862.9848 724,-1862.9848 724,4 -4,4"/>
<g id="clust1" class="cluster">
<title>cluster_0</title>
<polygon fill="none" stroke="#000000" points="8,-8 8,-1850.9848 712,-1850.9848 712,-8 8,-8"/>
<text text-anchor="middle" x="360" y="-1814.9848" font-family="Times,serif" font-size="40.00" fill="#000000">Tree 0, Class {&#39;H1&#39;: &#39;rgb(0, 0, 0)&#39;}</text>
</g>
<!-- SG_0_Node_0 -->
<g id="node1" class="node">
<title>SG_0_Node_0</title>
<polygon fill="none" stroke="#000000" points="466.5,-1790.9848 401.5,-1790.9848 401.5,-1754.9848 466.5,-1754.9848 466.5,-1790.9848"/>
<text text-anchor="middle" x="434" y="-1767.9848" font-family="Times,serif" font-size="20.00" fill="#000000">body</text>
</g>
<!-- SG_0_Node_1 -->
<g id="node2" class="node">
<title>SG_0_Node_1</title>
<polygon fill="none" stroke="#000000" points="340,-1633.7716 198,-1633.7716 198,-1597.7716 340,-1597.7716 340,-1633.7716"/>
<text text-anchor="middle" x="269" y="-1610.7716" font-family="Times,serif" font-size="20.00" fill="#000000">Status&#45;Code</text>
</g>
<!-- SG_0_Node_0&#45;&gt;SG_0_Node_1 -->
<g id="edge1" class="edge">
<title>SG_0_Node_0&#45;&gt;SG_0_Node_1</title>
<path fill="none" stroke="#000000" d="M401.4526,-1765.3128C361.7843,-1755.2823 298.1527,-1736.7686 283,-1717.9848 266.3774,-1697.379 264.283,-1666.4924 265.4815,-1644.0668"/>
<polygon fill="#000000" stroke="#000000" points="268.9925,-1644.0627 266.2852,-1633.8196 262.0139,-1643.5153 268.9925,-1644.0627"/>
<text text-anchor="middle" x="430.5" y="-1690.9848" font-family="Times,serif" font-size="20.00" fill="#000000">ecocnt_css=h1 {color: blue}</text>
</g>
<!-- SG_0_Node_10 -->
<g id="node3" class="node">
<title>SG_0_Node_10</title>
<ellipse fill="none" stroke="#000000" cx="600" cy="-1615.7716" rx="34.7971" ry="21.4286"/>
<text text-anchor="middle" x="600" y="-1610.7716" font-family="Times,serif" font-size="20.00" fill="#000000">1.0</text>
</g>
<!-- SG_0_Node_0&#45;&gt;SG_0_Node_10 -->
<g id="edge2" class="edge">
<title>SG_0_Node_0&#45;&gt;SG_0_Node_10</title>
<path fill="none" stroke="#000000" d="M466.5705,-1769.4942C499.6067,-1764.1755 549.7743,-1750.8914 578,-1717.9848 594.6557,-1698.5669 599.6403,-1669.5497 600.7563,-1647.388"/>
<polygon fill="#000000" stroke="#000000" points="604.2618,-1647.2206 601.0275,-1637.1315 597.2643,-1647.0355 604.2618,-1647.2206"/>
<text text-anchor="middle" x="643" y="-1701.9848" font-family="Times,serif" font-size="20.00" fill="#000000">[NA]</text>
<text text-anchor="middle" x="643" y="-1679.9848" font-family="Times,serif" font-size="20.00" fill="#000000">11 levels</text>
</g>
<!-- SG_0_Node_2 -->
<g id="node4" class="node">
<title>SG_0_Node_2</title>
<polygon fill="none" stroke="#000000" points="343.5,-1473.3452 188.5,-1473.3452 188.5,-1437.3452 343.5,-1437.3452 343.5,-1473.3452"/>
<text text-anchor="middle" x="266" y="-1450.3452" font-family="Times,serif" font-size="20.00" fill="#000000">Content&#45;Type</text>
</g>
<!-- SG_0_Node_1&#45;&gt;SG_0_Node_2 -->
<g id="edge3" class="edge">
<title>SG_0_Node_1&#45;&gt;SG_0_Node_2</title>
<path fill="none" stroke="#000000" d="M268.6617,-1597.6805C268.144,-1569.9987 267.1508,-1516.8834 266.5349,-1483.9467"/>
<polygon fill="#000000" stroke="#000000" points="270.0281,-1483.5491 266.3417,-1473.6164 263.0293,-1483.6801 270.0281,-1483.5491"/>
<text text-anchor="middle" x="313" y="-1530.5584" font-family="Times,serif" font-size="20.00" fill="#000000">15 levels</text>
</g>
<!-- SG_0_Node_11 -->
<g id="node5" class="node">
<title>SG_0_Node_11</title>
<ellipse fill="none" stroke="#000000" cx="396" cy="-1455.3452" rx="34.7971" ry="21.4286"/>
<text text-anchor="middle" x="396" y="-1450.3452" font-family="Times,serif" font-size="20.00" fill="#000000">1.0</text>
</g>
<!-- SG_0_Node_1&#45;&gt;SG_0_Node_11 -->
<g id="edge4" class="edge">
<title>SG_0_Node_1&#45;&gt;SG_0_Node_11</title>
<path fill="none" stroke="#000000" d="M311.706,-1597.5587C329.7454,-1587.9803 349.6274,-1574.6367 363,-1557.5584 379.1037,-1536.9923 387.4645,-1508.3297 391.7345,-1486.5887"/>
<polygon fill="#000000" stroke="#000000" points="395.2169,-1486.9954 393.518,-1476.5376 388.3246,-1485.7723 395.2169,-1486.9954"/>
<text text-anchor="middle" x="430" y="-1541.5584" font-family="Times,serif" font-size="20.00" fill="#000000">[NA]</text>
<text text-anchor="middle" x="430" y="-1519.5584" font-family="Times,serif" font-size="20.00" fill="#000000">48 levels</text>
</g>
<!-- SG_0_Node_3 -->
<g id="node6" class="node">
<title>SG_0_Node_3</title>
<polygon fill="none" stroke="#000000" points="394.5,-1202.9188 77.5,-1202.9188 77.5,-1166.9188 394.5,-1166.9188 394.5,-1202.9188"/>
<text text-anchor="middle" x="236" y="-1179.9188" font-family="Times,serif" font-size="20.00" fill="#000000">Cross&#45;Origin&#45;Resource&#45;Policy</text>
</g>
<!-- SG_0_Node_2&#45;&gt;SG_0_Node_3 -->
<g id="edge5" class="edge">
<title>SG_0_Node_2&#45;&gt;SG_0_Node_3</title>
<path fill="none" stroke="#000000" d="M263.985,-1437.1819C258.8614,-1390.9966 245.306,-1268.8048 239.1368,-1213.1951"/>
<polygon fill="#000000" stroke="#000000" points="242.5875,-1212.5562 238.0062,-1203.0031 235.6302,-1213.3281 242.5875,-1212.5562"/>
<text text-anchor="middle" x="298.5" y="-1326.132" font-family="Times,serif" font-size="20.00" fill="#000000">empty</text>
<text text-anchor="middle" x="298.5" y="-1304.132" font-family="Times,serif" font-size="20.00" fill="#000000">text/css</text>
</g>
<!-- SG_0_Node_12 -->
<g id="node7" class="node">
<title>SG_0_Node_12</title>
<ellipse fill="none" stroke="#000000" cx="447" cy="-1184.9188" rx="34.7971" ry="21.4286"/>
<text text-anchor="middle" x="447" y="-1179.9188" font-family="Times,serif" font-size="20.00" fill="#000000">1.0</text>
</g>
<!-- SG_0_Node_2&#45;&gt;SG_0_Node_12 -->
<g id="edge6" class="edge">
<title>SG_0_Node_2&#45;&gt;SG_0_Node_12</title>
<path fill="none" stroke="#000000" d="M295.7101,-1437.3186C310.962,-1426.9758 329.0139,-1412.9205 342,-1397.132 388.7538,-1340.2887 421.4715,-1259.147 436.9158,-1215.5042"/>
<polygon fill="#000000" stroke="#000000" points="440.2361,-1216.6121 440.209,-1206.0173 433.6231,-1214.3166 440.2361,-1216.6121"/>
<text text-anchor="middle" x="537" y="-1381.132" font-family="Times,serif" font-size="20.00" fill="#000000">[NA]</text>
<text text-anchor="middle" x="537" y="-1359.132" font-family="Times,serif" font-size="20.00" fill="#000000">application/javascript</text>
<text text-anchor="middle" x="537" y="-1337.132" font-family="Times,serif" font-size="20.00" fill="#000000">application/pdf</text>
<text text-anchor="middle" x="537" y="-1315.132" font-family="Times,serif" font-size="20.00" fill="#000000">audio/wav</text>
<text text-anchor="middle" x="537" y="-1293.132" font-family="Times,serif" font-size="20.00" fill="#000000">image/png</text>
<text text-anchor="middle" x="537" y="-1271.132" font-family="Times,serif" font-size="20.00" fill="#000000">text/html</text>
<text text-anchor="middle" x="537" y="-1249.132" font-family="Times,serif" font-size="20.00" fill="#000000">video/mp4</text>
</g>
<!-- SG_0_Node_4 -->
<g id="node8" class="node">
<title>SG_0_Node_4</title>
<polygon fill="none" stroke="#000000" points="316,-1042.4924 54,-1042.4924 54,-1006.4924 316,-1006.4924 316,-1042.4924"/>
<text text-anchor="middle" x="185" y="-1019.4924" font-family="Times,serif" font-size="20.00" fill="#000000">X&#45;Content&#45;Type&#45;Options</text>
</g>
<!-- SG_0_Node_3&#45;&gt;SG_0_Node_4 -->
<g id="edge7" class="edge">
<title>SG_0_Node_3&#45;&gt;SG_0_Node_4</title>
<path fill="none" stroke="#000000" d="M222.5385,-1166.7106C215.0387,-1155.6744 206.192,-1141.0045 201,-1126.7056 192.2821,-1102.6963 188.3125,-1073.8196 186.506,-1052.8924"/>
<polygon fill="#000000" stroke="#000000" points="189.9829,-1052.4516 185.7448,-1042.7413 183.0024,-1052.9751 189.9829,-1052.4516"/>
<text text-anchor="middle" x="233" y="-1099.7056" font-family="Times,serif" font-size="20.00" fill="#000000">empty</text>
</g>
<!-- SG_0_Node_13 -->
<g id="node9" class="node">
<title>SG_0_Node_13</title>
<ellipse fill="none" stroke="#000000" cx="369" cy="-1024.4924" rx="34.7971" ry="21.4286"/>
<text text-anchor="middle" x="369" y="-1019.4924" font-family="Times,serif" font-size="20.00" fill="#000000">1.0</text>
</g>
<!-- SG_0_Node_3&#45;&gt;SG_0_Node_13 -->
<g id="edge8" class="edge">
<title>SG_0_Node_3&#45;&gt;SG_0_Node_13</title>
<path fill="none" stroke="#000000" d="M250.9983,-1166.8277C274.3585,-1138.6503 319.5656,-1084.1209 346.7382,-1051.3449"/>
<polygon fill="#000000" stroke="#000000" points="349.5458,-1053.4422 353.2337,-1043.5099 344.1569,-1048.9746 349.5458,-1053.4422"/>
<text text-anchor="middle" x="381" y="-1110.7056" font-family="Times,serif" font-size="20.00" fill="#000000">[NA]</text>
<text text-anchor="middle" x="381" y="-1088.7056" font-family="Times,serif" font-size="20.00" fill="#000000">same&#45;origin</text>
</g>
<!-- SG_0_Node_5 -->
<g id="node10" class="node">
<title>SG_0_Node_5</title>
<polygon fill="none" stroke="#000000" points="227,-885.2792 85,-885.2792 85,-849.2792 227,-849.2792 227,-885.2792"/>
<text text-anchor="middle" x="156" y="-862.2792" font-family="Times,serif" font-size="20.00" fill="#000000">Status&#45;Code</text>
</g>
<!-- SG_0_Node_4&#45;&gt;SG_0_Node_5 -->
<g id="edge9" class="edge">
<title>SG_0_Node_4&#45;&gt;SG_0_Node_5</title>
<path fill="none" stroke="#000000" d="M181.6733,-1006.4581C176.6742,-979.3571 167.1791,-927.8829 161.2425,-895.6993"/>
<polygon fill="#000000" stroke="#000000" points="164.6332,-894.7867 159.3772,-885.5875 157.7494,-896.0565 164.6332,-894.7867"/>
<text text-anchor="middle" x="206" y="-939.2792" font-family="Times,serif" font-size="20.00" fill="#000000">empty</text>
</g>
<!-- SG_0_Node_6 -->
<g id="node11" class="node">
<title>SG_0_Node_6</title>
<polygon fill="none" stroke="#000000" points="487.5,-885.2792 332.5,-885.2792 332.5,-849.2792 487.5,-849.2792 487.5,-885.2792"/>
<text text-anchor="middle" x="410" y="-862.2792" font-family="Times,serif" font-size="20.00" fill="#000000">Content&#45;Type</text>
</g>
<!-- SG_0_Node_4&#45;&gt;SG_0_Node_6 -->
<g id="edge10" class="edge">
<title>SG_0_Node_4&#45;&gt;SG_0_Node_6</title>
<path fill="none" stroke="#000000" d="M210.8104,-1006.4581C251.4758,-978.0441 330.4855,-922.838 375.8189,-891.1624"/>
<polygon fill="#000000" stroke="#000000" points="377.9525,-893.9414 384.1451,-885.3447 373.9431,-888.2033 377.9525,-893.9414"/>
<text text-anchor="middle" x="365" y="-950.2792" font-family="Times,serif" font-size="20.00" fill="#000000">[NA]</text>
<text text-anchor="middle" x="365" y="-928.2792" font-family="Times,serif" font-size="20.00" fill="#000000">nosniff</text>
</g>
<!-- SG_0_Node_14 -->
<g id="node12" class="node">
<title>SG_0_Node_14</title>
<ellipse fill="none" stroke="#000000" cx="51" cy="-534.066" rx="34.7971" ry="21.4286"/>
<text text-anchor="middle" x="51" y="-529.066" font-family="Times,serif" font-size="20.00" fill="#000000">0.0</text>
</g>
<!-- SG_0_Node_5&#45;&gt;SG_0_Node_14 -->
<g id="edge17" class="edge">
<title>SG_0_Node_5&#45;&gt;SG_0_Node_14</title>
<path fill="none" stroke="#000000" d="M138.1819,-848.8364C129.3792,-838.7667 119.3172,-825.6489 113,-812.2792 73.443,-728.5618 58.5891,-618.5978 53.4593,-565.4769"/>
<polygon fill="#000000" stroke="#000000" points="56.928,-564.9745 52.5326,-555.3344 49.9571,-565.6114 56.928,-564.9745"/>
<text text-anchor="middle" x="132.5" y="-796.2792" font-family="Times,serif" font-size="20.00" fill="#000000">200</text>
<text text-anchor="middle" x="132.5" y="-774.2792" font-family="Times,serif" font-size="20.00" fill="#000000">201</text>
<text text-anchor="middle" x="132.5" y="-752.2792" font-family="Times,serif" font-size="20.00" fill="#000000">202</text>
<text text-anchor="middle" x="132.5" y="-730.2792" font-family="Times,serif" font-size="20.00" fill="#000000">203</text>
<text text-anchor="middle" x="132.5" y="-708.2792" font-family="Times,serif" font-size="20.00" fill="#000000">206</text>
<text text-anchor="middle" x="132.5" y="-686.2792" font-family="Times,serif" font-size="20.00" fill="#000000">207</text>
<text text-anchor="middle" x="132.5" y="-664.2792" font-family="Times,serif" font-size="20.00" fill="#000000">208</text>
<text text-anchor="middle" x="132.5" y="-642.2792" font-family="Times,serif" font-size="20.00" fill="#000000">226</text>
<text text-anchor="middle" x="132.5" y="-620.2792" font-family="Times,serif" font-size="20.00" fill="#000000">300</text>
<text text-anchor="middle" x="132.5" y="-598.2792" font-family="Times,serif" font-size="20.00" fill="#000000">305</text>
</g>
<!-- SG_0_Node_7 -->
<g id="node13" class="node">
<title>SG_0_Node_7</title>
<polygon fill="none" stroke="#000000" points="208.5,-552.066 103.5,-552.066 103.5,-516.066 208.5,-516.066 208.5,-552.066"/>
<text text-anchor="middle" x="156" y="-529.066" font-family="Times,serif" font-size="20.00" fill="#000000">Location</text>
</g>
<!-- SG_0_Node_5&#45;&gt;SG_0_Node_7 -->
<g id="edge18" class="edge">
<title>SG_0_Node_5&#45;&gt;SG_0_Node_7</title>
<path fill="none" stroke="#000000" d="M156,-848.8896C156,-793.7042 156,-629.2285 156,-562.5838"/>
<polygon fill="#000000" stroke="#000000" points="159.5001,-562.3988 156,-552.3988 152.5001,-562.3988 159.5001,-562.3988"/>
<text text-anchor="middle" x="175.5" y="-741.2792" font-family="Times,serif" font-size="20.00" fill="#000000">301</text>
<text text-anchor="middle" x="175.5" y="-719.2792" font-family="Times,serif" font-size="20.00" fill="#000000">302</text>
<text text-anchor="middle" x="175.5" y="-697.2792" font-family="Times,serif" font-size="20.00" fill="#000000">303</text>
<text text-anchor="middle" x="175.5" y="-675.2792" font-family="Times,serif" font-size="20.00" fill="#000000">307</text>
<text text-anchor="middle" x="175.5" y="-653.2792" font-family="Times,serif" font-size="20.00" fill="#000000">308</text>
</g>
<!-- SG_0_Node_8 -->
<g id="node14" class="node">
<title>SG_0_Node_8</title>
<polygon fill="none" stroke="#000000" points="481,-552.066 339,-552.066 339,-516.066 481,-516.066 481,-552.066"/>
<text text-anchor="middle" x="410" y="-529.066" font-family="Times,serif" font-size="20.00" fill="#000000">Status&#45;Code</text>
</g>
<!-- SG_0_Node_6&#45;&gt;SG_0_Node_8 -->
<g id="edge11" class="edge">
<title>SG_0_Node_6&#45;&gt;SG_0_Node_8</title>
<path fill="none" stroke="#000000" d="M410,-848.8896C410,-793.7042 410,-629.2285 410,-562.5838"/>
<polygon fill="#000000" stroke="#000000" points="413.5001,-562.3988 410,-552.3988 406.5001,-562.3988 413.5001,-562.3988"/>
<text text-anchor="middle" x="449.5" y="-697.2792" font-family="Times,serif" font-size="20.00" fill="#000000">text/css</text>
</g>
<!-- SG_0_Node_15 -->
<g id="node15" class="node">
<title>SG_0_Node_15</title>
<ellipse fill="none" stroke="#000000" cx="534" cy="-534.066" rx="34.7971" ry="21.4286"/>
<text text-anchor="middle" x="534" y="-529.066" font-family="Times,serif" font-size="20.00" fill="#000000">1.0</text>
</g>
<!-- SG_0_Node_6&#45;&gt;SG_0_Node_15 -->
<g id="edge12" class="edge">
<title>SG_0_Node_6&#45;&gt;SG_0_Node_15</title>
<path fill="none" stroke="#000000" d="M451.1098,-849.187C466.6529,-840.2886 482.9893,-828.0375 493,-812.2792 542.4546,-734.4306 541.2479,-619.981 537.2184,-565.3373"/>
<polygon fill="#000000" stroke="#000000" points="540.6956,-564.9147 536.389,-555.2346 533.719,-565.4874 540.6956,-564.9147"/>
<text text-anchor="middle" x="570" y="-697.2792" font-family="Times,serif" font-size="20.00" fill="#000000">empty</text>
</g>
<!-- SG_0_Node_16 -->
<g id="node16" class="node">
<title>SG_0_Node_16</title>
<ellipse fill="none" stroke="#000000" cx="51" cy="-197.6396" rx="34.7971" ry="21.4286"/>
<text text-anchor="middle" x="51" y="-192.6396" font-family="Times,serif" font-size="20.00" fill="#000000">0.0</text>
</g>
<!-- SG_0_Node_7&#45;&gt;SG_0_Node_16 -->
<g id="edge19" class="edge">
<title>SG_0_Node_7&#45;&gt;SG_0_Node_16</title>
<path fill="none" stroke="#000000" d="M119.7615,-515.9468C104.2495,-506.248 87.5404,-492.7814 78,-475.8528 33.1038,-396.1882 39.6732,-283.0619 46.2679,-228.899"/>
<polygon fill="#000000" stroke="#000000" points="49.7519,-229.2481 47.5719,-218.88 42.8104,-228.3446 49.7519,-229.2481"/>
<text text-anchor="middle" x="110" y="-360.8528" font-family="Times,serif" font-size="20.00" fill="#000000">empty</text>
</g>
<!-- SG_0_Node_17 -->
<g id="node17" class="node">
<title>SG_0_Node_17</title>
<ellipse fill="none" stroke="#000000" cx="144" cy="-197.6396" rx="34.7971" ry="21.4286"/>
<text text-anchor="middle" x="144" y="-192.6396" font-family="Times,serif" font-size="20.00" fill="#000000">1.0</text>
</g>
<!-- SG_0_Node_7&#45;&gt;SG_0_Node_17 -->
<g id="edge20" class="edge">
<title>SG_0_Node_7&#45;&gt;SG_0_Node_17</title>
<path fill="none" stroke="#000000" d="M155.3548,-515.9783C153.414,-461.5664 147.6112,-298.8804 145.1374,-229.5271"/>
<polygon fill="#000000" stroke="#000000" points="148.6244,-229.0974 144.7701,-219.2285 141.6288,-229.347 148.6244,-229.0974"/>
<text text-anchor="middle" x="268" y="-371.8528" font-family="Times,serif" font-size="20.00" fill="#000000">[NA]</text>
<text text-anchor="middle" x="268" y="-349.8528" font-family="Times,serif" font-size="20.00" fill="#000000">http://172.17.0.1:8000</text>
</g>
<!-- SG_0_Node_18 -->
<g id="node18" class="node">
<title>SG_0_Node_18</title>
<ellipse fill="none" stroke="#000000" cx="374" cy="-197.6396" rx="34.7971" ry="21.4286"/>
<text text-anchor="middle" x="374" y="-192.6396" font-family="Times,serif" font-size="20.00" fill="#000000">0.0</text>
</g>
<!-- SG_0_Node_8&#45;&gt;SG_0_Node_18 -->
<g id="edge13" class="edge">
<title>SG_0_Node_8&#45;&gt;SG_0_Node_18</title>
<path fill="none" stroke="#000000" d="M409.3679,-516.0649C407.6228,-471.6478 401.8457,-353.3567 387,-255.8528 385.6444,-246.9495 383.7095,-237.377 381.7454,-228.6176"/>
<polygon fill="#000000" stroke="#000000" points="385.1355,-227.7431 379.4592,-218.7971 378.3178,-229.3303 385.1355,-227.7431"/>
<text text-anchor="middle" x="426.5" y="-459.8528" font-family="Times,serif" font-size="20.00" fill="#000000">200</text>
<text text-anchor="middle" x="426.5" y="-437.8528" font-family="Times,serif" font-size="20.00" fill="#000000">201</text>
<text text-anchor="middle" x="426.5" y="-415.8528" font-family="Times,serif" font-size="20.00" fill="#000000">202</text>
<text text-anchor="middle" x="426.5" y="-393.8528" font-family="Times,serif" font-size="20.00" fill="#000000">203</text>
<text text-anchor="middle" x="426.5" y="-371.8528" font-family="Times,serif" font-size="20.00" fill="#000000">206</text>
<text text-anchor="middle" x="426.5" y="-349.8528" font-family="Times,serif" font-size="20.00" fill="#000000">207</text>
<text text-anchor="middle" x="426.5" y="-327.8528" font-family="Times,serif" font-size="20.00" fill="#000000">208</text>
<text text-anchor="middle" x="426.5" y="-305.8528" font-family="Times,serif" font-size="20.00" fill="#000000">226</text>
<text text-anchor="middle" x="426.5" y="-283.8528" font-family="Times,serif" font-size="20.00" fill="#000000">300</text>
<text text-anchor="middle" x="426.5" y="-261.8528" font-family="Times,serif" font-size="20.00" fill="#000000">305</text>
</g>
<!-- SG_0_Node_9 -->
<g id="node19" class="node">
<title>SG_0_Node_9</title>
<polygon fill="none" stroke="#000000" points="531.5,-215.6396 426.5,-215.6396 426.5,-179.6396 531.5,-179.6396 531.5,-215.6396"/>
<text text-anchor="middle" x="479" y="-192.6396" font-family="Times,serif" font-size="20.00" fill="#000000">Location</text>
</g>
<!-- SG_0_Node_8&#45;&gt;SG_0_Node_9 -->
<g id="edge14" class="edge">
<title>SG_0_Node_8&#45;&gt;SG_0_Node_9</title>
<path fill="none" stroke="#000000" d="M425.9309,-516.0056C434.5745,-505.1344 444.5745,-490.5811 450,-475.8528 481.9703,-389.0651 482.4222,-277.4267 480.5577,-225.9479"/>
<polygon fill="#000000" stroke="#000000" points="484.0526,-225.7506 480.1352,-215.9067 477.0588,-226.045 484.0526,-225.7506"/>
<text text-anchor="middle" x="500.5" y="-404.8528" font-family="Times,serif" font-size="20.00" fill="#000000">301</text>
<text text-anchor="middle" x="500.5" y="-382.8528" font-family="Times,serif" font-size="20.00" fill="#000000">302</text>
<text text-anchor="middle" x="500.5" y="-360.8528" font-family="Times,serif" font-size="20.00" fill="#000000">303</text>
<text text-anchor="middle" x="500.5" y="-338.8528" font-family="Times,serif" font-size="20.00" fill="#000000">307</text>
<text text-anchor="middle" x="500.5" y="-316.8528" font-family="Times,serif" font-size="20.00" fill="#000000">308</text>
</g>
<!-- SG_0_Node_19 -->
<g id="node20" class="node">
<title>SG_0_Node_19</title>
<ellipse fill="none" stroke="#000000" cx="374" cy="-37.2132" rx="34.7971" ry="21.4286"/>
<text text-anchor="middle" x="374" y="-32.2132" font-family="Times,serif" font-size="20.00" fill="#000000">0.0</text>
</g>
<!-- SG_0_Node_9&#45;&gt;SG_0_Node_19 -->
<g id="edge15" class="edge">
<title>SG_0_Node_9&#45;&gt;SG_0_Node_19</title>
<path fill="none" stroke="#000000" d="M449.2334,-179.5257C434.6949,-169.3439 418.0079,-155.4619 407,-139.4264 392.3076,-118.0236 383.8358,-89.6705 379.164,-68.2564"/>
<polygon fill="#000000" stroke="#000000" points="382.5761,-67.4712 377.1652,-58.3623 375.7147,-68.8574 382.5761,-67.4712"/>
<text text-anchor="middle" x="439" y="-112.4264" font-family="Times,serif" font-size="20.00" fill="#000000">empty</text>
</g>
<!-- SG_0_Node_20 -->
<g id="node21" class="node">
<title>SG_0_Node_20</title>
<ellipse fill="none" stroke="#000000" cx="474" cy="-37.2132" rx="34.7971" ry="21.4286"/>
<text text-anchor="middle" x="474" y="-32.2132" font-family="Times,serif" font-size="20.00" fill="#000000">1.0</text>
</g>
<!-- SG_0_Node_9&#45;&gt;SG_0_Node_20 -->
<g id="edge16" class="edge">
<title>SG_0_Node_9&#45;&gt;SG_0_Node_20</title>
<path fill="none" stroke="#000000" d="M478.4362,-179.5485C477.5973,-152.6336 476.0091,-101.6751 474.9782,-68.5978"/>
<polygon fill="#000000" stroke="#000000" points="478.4746,-68.426 474.6647,-58.5399 471.478,-68.6441 478.4746,-68.426"/>
<text text-anchor="middle" x="592" y="-123.4264" font-family="Times,serif" font-size="20.00" fill="#000000">[NA]</text>
<text text-anchor="middle" x="592" y="-101.4264" font-family="Times,serif" font-size="20.00" fill="#000000">http://172.17.0.1:8000</text>
</g>
</g>
</svg>
