<?xml version="1.0" encoding="UTF-8" standalone="no"?>
<!DOCTYPE svg PUBLIC "-//W3C//DTD SVG 1.1//EN"
 "http://www.w3.org/Graphics/SVG/1.1/DTD/svg11.dtd">
<!-- Generated by graphviz version 2.40.1 (20161225.0304)
 -->
<!-- Title: G Pages: 1 -->
<svg width="1141pt" height="1669pt"
 viewBox="0.00 0.00 1141.00 1668.98" xmlns="http://www.w3.org/2000/svg" xmlns:xlink="http://www.w3.org/1999/xlink">
<g id="graph0" class="graph" transform="scale(1 1) rotate(0) translate(4 1664.9848)">
<title>G</title>
<polygon fill="#ffffff" stroke="transparent" points="-4,4 -4,-1664.9848 1137,-1664.9848 1137,4 -4,4"/>
<g id="clust1" class="cluster">
<title>cluster_0</title>
<polygon fill="none" stroke="#000000" points="8,-8 8,-1652.9848 1115,-1652.9848 1115,-8 8,-8"/>
<text text-anchor="middle" x="561.5" y="-1616.9848" font-family="Times,serif" font-size="40.00" fill="#000000">Tree 0, Class js&#45;undefined</text>
</g>
<!-- SG_0_Node_0 -->
<g id="node1" class="node">
<title>SG_0_Node_0</title>
<polygon fill="none" stroke="#000000" points="176,-1592.9848 34,-1592.9848 34,-1556.9848 176,-1556.9848 176,-1592.9848"/>
<text text-anchor="middle" x="105" y="-1569.9848" font-family="Times,serif" font-size="20.00" fill="#000000">Status&#45;Code</text>
</g>
<!-- SG_0_Node_1 -->
<g id="node2" class="node">
<title>SG_0_Node_1</title>
<polygon fill="none" stroke="#000000" points="109.5,-1435.7716 44.5,-1435.7716 44.5,-1399.7716 109.5,-1399.7716 109.5,-1435.7716"/>
<text text-anchor="middle" x="77" y="-1412.7716" font-family="Times,serif" font-size="20.00" fill="#000000">body</text>
</g>
<!-- SG_0_Node_0&#45;&gt;SG_0_Node_1 -->
<g id="edge1" class="edge">
<title>SG_0_Node_0&#45;&gt;SG_0_Node_1</title>
<path fill="none" stroke="#000000" d="M101.788,-1556.9505C96.9613,-1529.8495 87.7936,-1478.3753 82.0617,-1446.1917"/>
<polygon fill="#000000" stroke="#000000" points="85.46,-1445.3113 80.2607,-1436.0799 78.5685,-1446.5387 85.46,-1445.3113"/>
<text text-anchor="middle" x="114.5" y="-1503.9848" font-family="Times,serif" font-size="20.00" fill="#000000">408</text>
<text text-anchor="middle" x="114.5" y="-1481.9848" font-family="Times,serif" font-size="20.00" fill="#000000">414</text>
</g>
<!-- SG_0_Node_12 -->
<g id="node3" class="node">
<title>SG_0_Node_12</title>
<ellipse fill="none" stroke="#000000" cx="162" cy="-1417.7716" rx="34.7971" ry="21.4286"/>
<text text-anchor="middle" x="162" y="-1412.7716" font-family="Times,serif" font-size="20.00" fill="#000000">1.0</text>
</g>
<!-- SG_0_Node_0&#45;&gt;SG_0_Node_12 -->
<g id="edge2" class="edge">
<title>SG_0_Node_0&#45;&gt;SG_0_Node_12</title>
<path fill="none" stroke="#000000" d="M117.3467,-1556.8269C123.9596,-1546.419 131.7929,-1532.8937 137,-1519.9848 146.2531,-1497.0456 152.7116,-1469.7788 156.7433,-1449.1791"/>
<polygon fill="#000000" stroke="#000000" points="160.2353,-1449.5456 158.6323,-1439.0728 153.3545,-1448.2595 160.2353,-1449.5456"/>
<text text-anchor="middle" x="196" y="-1503.9848" font-family="Times,serif" font-size="20.00" fill="#000000">[NA]</text>
<text text-anchor="middle" x="196" y="-1481.9848" font-family="Times,serif" font-size="20.00" fill="#000000">61 levels</text>
</g>
<!-- SG_0_Node_2 -->
<g id="node4" class="node">
<title>SG_0_Node_2</title>
<polygon fill="none" stroke="#000000" points="259.5,-1077.3452 104.5,-1077.3452 104.5,-1041.3452 259.5,-1041.3452 259.5,-1077.3452"/>
<text text-anchor="middle" x="182" y="-1054.3452" font-family="Times,serif" font-size="20.00" fill="#000000">Content&#45;Type</text>
</g>
<!-- SG_0_Node_1&#45;&gt;SG_0_Node_2 -->
<g id="edge3" class="edge">
<title>SG_0_Node_1&#45;&gt;SG_0_Node_2</title>
<path fill="none" stroke="#000000" d="M65.2831,-1399.7311C58.7877,-1388.6351 51.3619,-1373.8467 48,-1359.5584 23.3655,-1254.862 -10.9866,-1207.4961 48,-1117.5584 59.1265,-1100.5937 76.3816,-1088.5471 94.8494,-1080.0016"/>
<polygon fill="#000000" stroke="#000000" points="96.4723,-1083.1142 104.2899,-1075.9633 93.7192,-1076.6783 96.4723,-1083.1142"/>
<text text-anchor="middle" x="293.5" y="-1244.5584" font-family="Times,serif" font-size="20.00" fill="#000000">ecocnt_js=var a=5;</text>
<text text-anchor="middle" x="293.5" y="-1222.5584" font-family="Times,serif" font-size="20.00" fill="#000000">ecocnt_vid=width=100,height=100,duration=2</text>
</g>
<!-- SG_0_Node_13 -->
<g id="node5" class="node">
<title>SG_0_Node_13</title>
<ellipse fill="none" stroke="#000000" cx="561" cy="-1059.3452" rx="34.7971" ry="21.4286"/>
<text text-anchor="middle" x="561" y="-1054.3452" font-family="Times,serif" font-size="20.00" fill="#000000">1.0</text>
</g>
<!-- SG_0_Node_1&#45;&gt;SG_0_Node_13 -->
<g id="edge4" class="edge">
<title>SG_0_Node_1&#45;&gt;SG_0_Node_13</title>
<path fill="none" stroke="#000000" d="M109.1955,-1399.6692C112.1155,-1398.472 115.0753,-1397.4076 118,-1396.5584 208.1918,-1370.3729 473.0748,-1426.4473 539,-1359.5584 610.4371,-1287.0771 585.9225,-1151.152 570.0974,-1090.2444"/>
<polygon fill="#000000" stroke="#000000" points="573.4404,-1089.1982 567.4584,-1080.4537 566.6816,-1091.02 573.4404,-1089.1982"/>
<text text-anchor="middle" x="860" y="-1343.5584" font-family="Times,serif" font-size="20.00" fill="#000000">[NA]</text>
<text text-anchor="middle" x="860" y="-1321.5584" font-family="Times,serif" font-size="20.00" fill="#000000">ecocnt_audio=duration=1</text>
<text text-anchor="middle" x="860" y="-1299.5584" font-family="Times,serif" font-size="20.00" fill="#000000">ecocnt_css=h1 {color: blue}</text>
<text text-anchor="middle" x="860" y="-1277.5584" font-family="Times,serif" font-size="20.00" fill="#000000">ecocnt_html=meta_refresh=0;http://172.17.0.1:8000</text>
<text text-anchor="middle" x="860" y="-1255.5584" font-family="Times,serif" font-size="20.00" fill="#000000">ecocnt_html=num_frames=1,input_id=test1</text>
<text text-anchor="middle" x="860" y="-1233.5584" font-family="Times,serif" font-size="20.00" fill="#000000">ecocnt_html=num_frames=2</text>
<text text-anchor="middle" x="860" y="-1211.5584" font-family="Times,serif" font-size="20.00" fill="#000000">ecocnt_html=post_message=mes1</text>
<text text-anchor="middle" x="860" y="-1189.5584" font-family="Times,serif" font-size="20.00" fill="#000000">ecocnt_img=width=50,height=50,type=png</text>
<text text-anchor="middle" x="860" y="-1167.5584" font-family="Times,serif" font-size="20.00" fill="#000000">ecocnt_js=.,,.</text>
<text text-anchor="middle" x="860" y="-1145.5584" font-family="Times,serif" font-size="20.00" fill="#000000">ecocnt_pdf=a=a</text>
<text text-anchor="middle" x="860" y="-1123.5584" font-family="Times,serif" font-size="20.00" fill="#000000">empty</text>
</g>
<!-- SG_0_Node_3 -->
<g id="node6" class="node">
<title>SG_0_Node_3</title>
<polygon fill="none" stroke="#000000" points="313,-806.9188 51,-806.9188 51,-770.9188 313,-770.9188 313,-806.9188"/>
<text text-anchor="middle" x="182" y="-783.9188" font-family="Times,serif" font-size="20.00" fill="#000000">X&#45;Content&#45;Type&#45;Options</text>
</g>
<!-- SG_0_Node_2&#45;&gt;SG_0_Node_3 -->
<g id="edge5" class="edge">
<title>SG_0_Node_2&#45;&gt;SG_0_Node_3</title>
<path fill="none" stroke="#000000" d="M182,-1041.1819C182,-994.9966 182,-872.8048 182,-817.1951"/>
<polygon fill="#000000" stroke="#000000" points="185.5001,-817.0031 182,-807.0031 178.5001,-817.0032 185.5001,-817.0031"/>
<text text-anchor="middle" x="235.5" y="-930.132" font-family="Times,serif" font-size="20.00" fill="#000000">audio/wav</text>
<text text-anchor="middle" x="235.5" y="-908.132" font-family="Times,serif" font-size="20.00" fill="#000000">video/mp4</text>
</g>
<!-- SG_0_Node_14 -->
<g id="node7" class="node">
<title>SG_0_Node_14</title>
<ellipse fill="none" stroke="#000000" cx="366" cy="-788.9188" rx="34.7971" ry="21.4286"/>
<text text-anchor="middle" x="366" y="-783.9188" font-family="Times,serif" font-size="20.00" fill="#000000">1.0</text>
</g>
<!-- SG_0_Node_2&#45;&gt;SG_0_Node_14 -->
<g id="edge6" class="edge">
<title>SG_0_Node_2&#45;&gt;SG_0_Node_14</title>
<path fill="none" stroke="#000000" d="M235.3348,-1041.2207C255.7463,-1031.9859 277.7602,-1018.8786 293,-1001.132 338.5884,-948.0448 356.1405,-864.9952 362.5566,-820.154"/>
<polygon fill="#000000" stroke="#000000" points="366.0391,-820.5166 363.8936,-810.1413 359.1007,-819.59 366.0391,-820.5166"/>
<text text-anchor="middle" x="468" y="-985.132" font-family="Times,serif" font-size="20.00" fill="#000000">[NA]</text>
<text text-anchor="middle" x="468" y="-963.132" font-family="Times,serif" font-size="20.00" fill="#000000">application/javascript</text>
<text text-anchor="middle" x="468" y="-941.132" font-family="Times,serif" font-size="20.00" fill="#000000">application/pdf</text>
<text text-anchor="middle" x="468" y="-919.132" font-family="Times,serif" font-size="20.00" fill="#000000">empty</text>
<text text-anchor="middle" x="468" y="-897.132" font-family="Times,serif" font-size="20.00" fill="#000000">image/png</text>
<text text-anchor="middle" x="468" y="-875.132" font-family="Times,serif" font-size="20.00" fill="#000000">text/css</text>
<text text-anchor="middle" x="468" y="-853.132" font-family="Times,serif" font-size="20.00" fill="#000000">text/html</text>
</g>
<!-- SG_0_Node_4 -->
<g id="node8" class="node">
<title>SG_0_Node_4</title>
<polygon fill="none" stroke="#000000" points="253,-646.4924 111,-646.4924 111,-610.4924 253,-610.4924 253,-646.4924"/>
<text text-anchor="middle" x="182" y="-623.4924" font-family="Times,serif" font-size="20.00" fill="#000000">Status&#45;Code</text>
</g>
<!-- SG_0_Node_3&#45;&gt;SG_0_Node_4 -->
<g id="edge7" class="edge">
<title>SG_0_Node_3&#45;&gt;SG_0_Node_4</title>
<path fill="none" stroke="#000000" d="M182,-770.8277C182,-743.1459 182,-690.0306 182,-657.0939"/>
<polygon fill="#000000" stroke="#000000" points="185.5001,-656.7635 182,-646.7636 178.5001,-656.7636 185.5001,-656.7635"/>
<text text-anchor="middle" x="217" y="-703.7056" font-family="Times,serif" font-size="20.00" fill="#000000">nosniff</text>
</g>
<!-- SG_0_Node_15 -->
<g id="node9" class="node">
<title>SG_0_Node_15</title>
<ellipse fill="none" stroke="#000000" cx="306" cy="-628.4924" rx="34.7971" ry="21.4286"/>
<text text-anchor="middle" x="306" y="-623.4924" font-family="Times,serif" font-size="20.00" fill="#000000">1.0</text>
</g>
<!-- SG_0_Node_3&#45;&gt;SG_0_Node_15 -->
<g id="edge8" class="edge">
<title>SG_0_Node_3&#45;&gt;SG_0_Node_15</title>
<path fill="none" stroke="#000000" d="M210.9351,-770.7709C225.7876,-760.3937 243.3641,-746.3443 256,-730.7056 273.3631,-709.2163 286.6774,-680.7017 295.1847,-659.2508"/>
<polygon fill="#000000" stroke="#000000" points="298.5548,-660.237 298.862,-649.6466 292.0176,-657.734 298.5548,-660.237"/>
<text text-anchor="middle" x="315" y="-714.7056" font-family="Times,serif" font-size="20.00" fill="#000000">[NA]</text>
<text text-anchor="middle" x="315" y="-692.7056" font-family="Times,serif" font-size="20.00" fill="#000000">empty</text>
</g>
<!-- SG_0_Node_5 -->
<g id="node10" class="node">
<title>SG_0_Node_5</title>
<polygon fill="none" stroke="#000000" points="292.5,-511.2792 71.5,-511.2792 71.5,-475.2792 292.5,-475.2792 292.5,-511.2792"/>
<text text-anchor="middle" x="182" y="-488.2792" font-family="Times,serif" font-size="20.00" fill="#000000">Content&#45;Disposition</text>
</g>
<!-- SG_0_Node_4&#45;&gt;SG_0_Node_5 -->
<g id="edge9" class="edge">
<title>SG_0_Node_4&#45;&gt;SG_0_Node_5</title>
<path fill="none" stroke="#000000" d="M182,-610.257C182,-587.5756 182,-548.5929 182,-521.9109"/>
<polygon fill="#000000" stroke="#000000" points="185.5001,-521.6576 182,-511.6576 178.5001,-521.6576 185.5001,-521.6576"/>
<text text-anchor="middle" x="201.5" y="-554.2792" font-family="Times,serif" font-size="20.00" fill="#000000">408</text>
</g>
<!-- SG_0_Node_6 -->
<g id="node11" class="node">
<title>SG_0_Node_6</title>
<polygon fill="none" stroke="#000000" points="411.5,-511.2792 346.5,-511.2792 346.5,-475.2792 411.5,-475.2792 411.5,-511.2792"/>
<text text-anchor="middle" x="379" y="-488.2792" font-family="Times,serif" font-size="20.00" fill="#000000">body</text>
</g>
<!-- SG_0_Node_4&#45;&gt;SG_0_Node_6 -->
<g id="edge10" class="edge">
<title>SG_0_Node_4&#45;&gt;SG_0_Node_6</title>
<path fill="none" stroke="#000000" d="M208.5683,-610.257C243.6211,-586.1981 305.3966,-543.7978 344.1601,-517.192"/>
<polygon fill="#000000" stroke="#000000" points="346.2746,-519.9858 352.5388,-511.4412 342.3133,-514.2145 346.2746,-519.9858"/>
<text text-anchor="middle" x="317.5" y="-554.2792" font-family="Times,serif" font-size="20.00" fill="#000000">414</text>
</g>
<!-- SG_0_Node_7 -->
<g id="node12" class="node">
<title>SG_0_Node_7</title>
<polygon fill="none" stroke="#000000" points="333.5,-354.066 16.5,-354.066 16.5,-318.066 333.5,-318.066 333.5,-354.066"/>
<text text-anchor="middle" x="175" y="-331.066" font-family="Times,serif" font-size="20.00" fill="#000000">Cross&#45;Origin&#45;Resource&#45;Policy</text>
</g>
<!-- SG_0_Node_5&#45;&gt;SG_0_Node_7 -->
<g id="edge17" class="edge">
<title>SG_0_Node_5&#45;&gt;SG_0_Node_7</title>
<path fill="none" stroke="#000000" d="M162.4982,-474.8475C153.4819,-464.975 143.7375,-452.0306 139,-438.2792 132.6303,-419.7901 133.6535,-413.0897 139,-394.2792 142.1513,-383.192 148.083,-372.1491 154.2357,-362.7088"/>
<polygon fill="#000000" stroke="#000000" points="157.3107,-364.4156 160.1188,-354.1997 151.5529,-360.4347 157.3107,-364.4156"/>
<text text-anchor="middle" x="171" y="-411.2792" font-family="Times,serif" font-size="20.00" fill="#000000">empty</text>
</g>
<!-- SG_0_Node_16 -->
<g id="node13" class="node">
<title>SG_0_Node_16</title>
<ellipse fill="none" stroke="#000000" cx="386" cy="-336.066" rx="34.7971" ry="21.4286"/>
<text text-anchor="middle" x="386" y="-331.066" font-family="Times,serif" font-size="20.00" fill="#000000">1.0</text>
</g>
<!-- SG_0_Node_5&#45;&gt;SG_0_Node_16 -->
<g id="edge18" class="edge">
<title>SG_0_Node_5&#45;&gt;SG_0_Node_16</title>
<path fill="none" stroke="#000000" d="M191.3083,-475.253C203.3722,-453.4474 226.3031,-416.8616 255,-394.2792 288.3419,-368.0415 304.4022,-374.8949 343,-357.2792 345.092,-356.3244 347.2332,-355.3287 349.3887,-354.312"/>
<polygon fill="#000000" stroke="#000000" points="351.3225,-357.266 358.8216,-349.7817 348.292,-350.956 351.3225,-357.266"/>
<text text-anchor="middle" x="314" y="-422.2792" font-family="Times,serif" font-size="20.00" fill="#000000">[NA]</text>
<text text-anchor="middle" x="314" y="-400.2792" font-family="Times,serif" font-size="20.00" fill="#000000">attachment</text>
</g>
<!-- SG_0_Node_8 -->
<g id="node14" class="node">
<title>SG_0_Node_8</title>
<polygon fill="none" stroke="#000000" points="629.5,-354.066 438.5,-354.066 438.5,-318.066 629.5,-318.066 629.5,-354.066"/>
<text text-anchor="middle" x="534" y="-331.066" font-family="Times,serif" font-size="20.00" fill="#000000">X&#45;Frame&#45;Options</text>
</g>
<!-- SG_0_Node_6&#45;&gt;SG_0_Node_8 -->
<g id="edge11" class="edge">
<title>SG_0_Node_6&#45;&gt;SG_0_Node_8</title>
<path fill="none" stroke="#000000" d="M376.5539,-475.1616C374.6723,-453.6007 374.9103,-417.5939 393,-394.2792 405.4867,-378.1859 423.198,-366.5081 441.8673,-358.0453"/>
<polygon fill="#000000" stroke="#000000" points="443.2442,-361.2633 451.0905,-354.1439 440.517,-354.8163 443.2442,-361.2633"/>
<text text-anchor="middle" x="493.5" y="-411.2792" font-family="Times,serif" font-size="20.00" fill="#000000">ecocnt_js=var a=5;</text>
</g>
<!-- SG_0_Node_17 -->
<g id="node15" class="node">
<title>SG_0_Node_17</title>
<ellipse fill="none" stroke="#000000" cx="682" cy="-336.066" rx="34.7971" ry="21.4286"/>
<text text-anchor="middle" x="682" y="-331.066" font-family="Times,serif" font-size="20.00" fill="#000000">1.0</text>
</g>
<!-- SG_0_Node_6&#45;&gt;SG_0_Node_17 -->
<g id="edge12" class="edge">
<title>SG_0_Node_6&#45;&gt;SG_0_Node_17</title>
<path fill="none" stroke="#000000" d="M411.6063,-491.0319C455.9091,-486.6868 536.2122,-474.125 594,-438.2792 623.8192,-419.7824 648.8819,-387.9161 664.5389,-364.6708"/>
<polygon fill="#000000" stroke="#000000" points="667.5165,-366.5124 670.0693,-356.2297 661.6613,-362.6762 667.5165,-366.5124"/>
<text text-anchor="middle" x="887.5" y="-411.2792" font-family="Times,serif" font-size="20.00" fill="#000000">ecocnt_vid=width=100,height=100,duration=2</text>
</g>
<!-- SG_0_Node_18 -->
<g id="node16" class="node">
<title>SG_0_Node_18</title>
<ellipse fill="none" stroke="#000000" cx="137" cy="-175.6396" rx="52.1524" ry="21.4286"/>
<text text-anchor="middle" x="137" y="-170.6396" font-family="Times,serif" font-size="20.00" fill="#000000">0.938</text>
</g>
<!-- SG_0_Node_7&#45;&gt;SG_0_Node_18 -->
<g id="edge19" class="edge">
<title>SG_0_Node_7&#45;&gt;SG_0_Node_18</title>
<path fill="none" stroke="#000000" d="M166.0905,-317.8716C160.9282,-306.5982 154.7311,-291.6787 151,-277.8528 144.7213,-254.5864 141.1752,-227.5423 139.2238,-207.1182"/>
<polygon fill="#000000" stroke="#000000" points="142.7051,-206.7513 138.3426,-197.0963 135.732,-207.3644 142.7051,-206.7513"/>
<text text-anchor="middle" x="212" y="-250.8528" font-family="Times,serif" font-size="20.00" fill="#000000">same&#45;origin</text>
</g>
<!-- SG_0_Node_19 -->
<g id="node17" class="node">
<title>SG_0_Node_19</title>
<ellipse fill="none" stroke="#000000" cx="295" cy="-175.6396" rx="34.7971" ry="21.4286"/>
<text text-anchor="middle" x="295" y="-170.6396" font-family="Times,serif" font-size="20.00" fill="#000000">1.0</text>
</g>
<!-- SG_0_Node_7&#45;&gt;SG_0_Node_19 -->
<g id="edge20" class="edge">
<title>SG_0_Node_7&#45;&gt;SG_0_Node_19</title>
<path fill="none" stroke="#000000" d="M222.1205,-317.9778C240.5915,-308.6393 260.3496,-295.446 273,-277.8528 287.7529,-257.3356 292.9662,-228.9049 294.6526,-207.2357"/>
<polygon fill="#000000" stroke="#000000" points="298.1495,-207.3883 295.2234,-197.2055 291.1608,-206.9905 298.1495,-207.3883"/>
<text text-anchor="middle" x="322" y="-261.8528" font-family="Times,serif" font-size="20.00" fill="#000000">[NA]</text>
<text text-anchor="middle" x="322" y="-239.8528" font-family="Times,serif" font-size="20.00" fill="#000000">empty</text>
</g>
<!-- SG_0_Node_10 -->
<g id="node18" class="node">
<title>SG_0_Node_10</title>
<polygon fill="none" stroke="#000000" points="533.5,-193.6396 378.5,-193.6396 378.5,-157.6396 533.5,-157.6396 533.5,-193.6396"/>
<text text-anchor="middle" x="456" y="-170.6396" font-family="Times,serif" font-size="20.00" fill="#000000">Content&#45;Type</text>
</g>
<!-- SG_0_Node_8&#45;&gt;SG_0_Node_10 -->
<g id="edge13" class="edge">
<title>SG_0_Node_8&#45;&gt;SG_0_Node_10</title>
<path fill="none" stroke="#000000" d="M515.2057,-317.9062C504.9878,-307.1134 492.867,-292.6709 485,-277.8528 472.569,-254.4381 464.9556,-225.0988 460.6684,-203.8667"/>
<polygon fill="#000000" stroke="#000000" points="464.0742,-203.0404 458.7732,-193.8671 457.1967,-204.344 464.0742,-203.0404"/>
<text text-anchor="middle" x="517" y="-250.8528" font-family="Times,serif" font-size="20.00" fill="#000000">empty</text>
</g>
<!-- SG_0_Node_20 -->
<g id="node19" class="node">
<title>SG_0_Node_20</title>
<ellipse fill="none" stroke="#000000" cx="586" cy="-175.6396" rx="34.7971" ry="21.4286"/>
<text text-anchor="middle" x="586" y="-170.6396" font-family="Times,serif" font-size="20.00" fill="#000000">1.0</text>
</g>
<!-- SG_0_Node_8&#45;&gt;SG_0_Node_20 -->
<g id="edge14" class="edge">
<title>SG_0_Node_8&#45;&gt;SG_0_Node_20</title>
<path fill="none" stroke="#000000" d="M539.864,-317.9749C548.6499,-290.8692 565.3401,-239.3779 576.0542,-206.3236"/>
<polygon fill="#000000" stroke="#000000" points="579.418,-207.2966 579.1721,-196.7046 572.7591,-205.1382 579.418,-207.2966"/>
<text text-anchor="middle" x="591" y="-261.8528" font-family="Times,serif" font-size="20.00" fill="#000000">[NA]</text>
<text text-anchor="middle" x="591" y="-239.8528" font-family="Times,serif" font-size="20.00" fill="#000000">deny</text>
</g>
<!-- SG_0_Node_21 -->
<g id="node20" class="node">
<title>SG_0_Node_21</title>
<ellipse fill="none" stroke="#000000" cx="386" cy="-37.2132" rx="52.1524" ry="21.4286"/>
<text text-anchor="middle" x="386" y="-32.2132" font-family="Times,serif" font-size="20.00" fill="#000000">0.938</text>
</g>
<!-- SG_0_Node_10&#45;&gt;SG_0_Node_21 -->
<g id="edge15" class="edge">
<title>SG_0_Node_10&#45;&gt;SG_0_Node_21</title>
<path fill="none" stroke="#000000" d="M432.9621,-157.5387C421.2507,-147.0774 407.8662,-132.9348 400,-117.4264 392.4142,-102.4709 388.8526,-84.1522 387.2144,-68.7983"/>
<polygon fill="#000000" stroke="#000000" points="390.6924,-68.3895 386.3618,-58.7202 383.7174,-68.9797 390.6924,-68.3895"/>
<text text-anchor="middle" x="452" y="-101.4264" font-family="Times,serif" font-size="20.00" fill="#000000">audio/wav</text>
</g>
<!-- SG_0_Node_22 -->
<g id="node21" class="node">
<title>SG_0_Node_22</title>
<ellipse fill="none" stroke="#000000" cx="526" cy="-37.2132" rx="34.7971" ry="21.4286"/>
<text text-anchor="middle" x="526" y="-32.2132" font-family="Times,serif" font-size="20.00" fill="#000000">1.0</text>
</g>
<!-- SG_0_Node_10&#45;&gt;SG_0_Node_22 -->
<g id="edge16" class="edge">
<title>SG_0_Node_10&#45;&gt;SG_0_Node_22</title>
<path fill="none" stroke="#000000" d="M474.4449,-157.4405C484.4654,-146.6351 496.3384,-132.1929 504,-117.4264 511.889,-102.2215 517.1907,-83.8845 520.6089,-68.5829"/>
<polygon fill="#000000" stroke="#000000" points="524.0859,-69.0517 522.6831,-58.5502 517.2309,-67.6344 524.0859,-69.0517"/>
<text text-anchor="middle" x="565.5" y="-101.4264" font-family="Times,serif" font-size="20.00" fill="#000000">video/mp4</text>
</g>
</g>
</svg>
