<?xml version="1.0" encoding="UTF-8" standalone="no"?>
<!DOCTYPE svg PUBLIC "-//W3C//DTD SVG 1.1//EN"
 "http://www.w3.org/Graphics/SVG/1.1/DTD/svg11.dtd">
<!-- Generated by graphviz version 2.40.1 (20161225.0304)
 -->
<!-- Title: G Pages: 1 -->
<svg width="1348pt" height="1829pt"
 viewBox="0.00 0.00 1348.00 1829.41" xmlns="http://www.w3.org/2000/svg" xmlns:xlink="http://www.w3.org/1999/xlink">
<g id="graph0" class="graph" transform="scale(1 1) rotate(0) translate(4 1825.4113)">
<title>G</title>
<polygon fill="#ffffff" stroke="transparent" points="-4,4 -4,-1825.4113 1344,-1825.4113 1344,4 -4,4"/>
<g id="clust1" class="cluster">
<title>cluster_0</title>
<polygon fill="none" stroke="#000000" points="8,-8 8,-1813.4113 1332,-1813.4113 1332,-8 8,-8"/>
<text text-anchor="middle" x="670" y="-1777.4113" font-family="Times,serif" font-size="40.00" fill="#000000">Tree 0, Class [&#39;Message: mes1 Origin: https://172.17.0.1:44300&#39;]</text>
</g>
<!-- SG_0_Node_0 -->
<g id="node1" class="node">
<title>SG_0_Node_0</title>
<polygon fill="none" stroke="#000000" points="267.5,-1753.4113 202.5,-1753.4113 202.5,-1717.4113 267.5,-1717.4113 267.5,-1753.4113"/>
<text text-anchor="middle" x="235" y="-1730.4113" font-family="Times,serif" font-size="20.00" fill="#000000">body</text>
</g>
<!-- SG_0_Node_15 -->
<g id="node2" class="node">
<title>SG_0_Node_15</title>
<ellipse fill="none" stroke="#000000" cx="171" cy="-1578.1981" rx="34.7971" ry="21.4286"/>
<text text-anchor="middle" x="171" y="-1573.1981" font-family="Times,serif" font-size="20.00" fill="#000000">0.0</text>
</g>
<!-- SG_0_Node_0&#45;&gt;SG_0_Node_15 -->
<g id="edge1" class="edge">
<title>SG_0_Node_0&#45;&gt;SG_0_Node_15</title>
<path fill="none" stroke="#000000" d="M213.7021,-1717.1101C203.6635,-1707.271 192.4912,-1694.3169 186,-1680.4113 175.6634,-1658.268 172.0807,-1630.7418 170.9906,-1609.8349"/>
<polygon fill="#000000" stroke="#000000" points="174.4788,-1609.4381 170.6252,-1599.5689 167.4832,-1609.6871 174.4788,-1609.4381"/>
<text text-anchor="middle" x="232" y="-1664.4113" font-family="Times,serif" font-size="20.00" fill="#000000">[NA]</text>
<text text-anchor="middle" x="232" y="-1642.4113" font-family="Times,serif" font-size="20.00" fill="#000000">11 levels</text>
</g>
<!-- SG_0_Node_1 -->
<g id="node3" class="node">
<title>SG_0_Node_1</title>
<polygon fill="none" stroke="#000000" points="378.5,-1596.1981 223.5,-1596.1981 223.5,-1560.1981 378.5,-1560.1981 378.5,-1596.1981"/>
<text text-anchor="middle" x="301" y="-1573.1981" font-family="Times,serif" font-size="20.00" fill="#000000">Content&#45;Type</text>
</g>
<!-- SG_0_Node_0&#45;&gt;SG_0_Node_1 -->
<g id="edge2" class="edge">
<title>SG_0_Node_0&#45;&gt;SG_0_Node_1</title>
<path fill="none" stroke="#000000" d="M252.8067,-1716.963C261.6064,-1706.8919 271.6689,-1693.7744 278,-1680.4113 289.1923,-1656.7874 295.0668,-1627.4737 298.0668,-1606.3044"/>
<polygon fill="#000000" stroke="#000000" points="301.5441,-1606.7047 299.3531,-1596.3389 294.6017,-1605.8086 301.5441,-1606.7047"/>
<text text-anchor="middle" x="471" y="-1653.4113" font-family="Times,serif" font-size="20.00" fill="#000000">ecocnt_html=post_message=mes1</text>
</g>
<!-- SG_0_Node_16 -->
<g id="node4" class="node">
<title>SG_0_Node_16</title>
<ellipse fill="none" stroke="#000000" cx="78" cy="-1307.7716" rx="34.7971" ry="21.4286"/>
<text text-anchor="middle" x="78" y="-1302.7716" font-family="Times,serif" font-size="20.00" fill="#000000">0.0</text>
</g>
<!-- SG_0_Node_1&#45;&gt;SG_0_Node_16 -->
<g id="edge3" class="edge">
<title>SG_0_Node_1&#45;&gt;SG_0_Node_16</title>
<path fill="none" stroke="#000000" d="M229.1448,-1560.1769C166.2111,-1544.2293 84.3818,-1523.0228 82,-1519.9848 40.9747,-1467.6577 55.7963,-1383.6637 68.1188,-1338.6419"/>
<polygon fill="#000000" stroke="#000000" points="71.5306,-1339.4413 70.9253,-1328.8638 64.8023,-1337.5101 71.5306,-1339.4413"/>
<text text-anchor="middle" x="193" y="-1503.9848" font-family="Times,serif" font-size="20.00" fill="#000000">[NA]</text>
<text text-anchor="middle" x="193" y="-1481.9848" font-family="Times,serif" font-size="20.00" fill="#000000">application/javascript</text>
<text text-anchor="middle" x="193" y="-1459.9848" font-family="Times,serif" font-size="20.00" fill="#000000">application/pdf</text>
<text text-anchor="middle" x="193" y="-1437.9848" font-family="Times,serif" font-size="20.00" fill="#000000">audio/wav</text>
<text text-anchor="middle" x="193" y="-1415.9848" font-family="Times,serif" font-size="20.00" fill="#000000">image/png</text>
<text text-anchor="middle" x="193" y="-1393.9848" font-family="Times,serif" font-size="20.00" fill="#000000">text/css</text>
<text text-anchor="middle" x="193" y="-1371.9848" font-family="Times,serif" font-size="20.00" fill="#000000">video/mp4</text>
</g>
<!-- SG_0_Node_2 -->
<g id="node5" class="node">
<title>SG_0_Node_2</title>
<polygon fill="none" stroke="#000000" points="485,-1325.7716 187,-1325.7716 187,-1289.7716 485,-1289.7716 485,-1325.7716"/>
<text text-anchor="middle" x="336" y="-1302.7716" font-family="Times,serif" font-size="20.00" fill="#000000">Cross&#45;Origin&#45;Opener&#45;Policy</text>
</g>
<!-- SG_0_Node_1&#45;&gt;SG_0_Node_2 -->
<g id="edge4" class="edge">
<title>SG_0_Node_1&#45;&gt;SG_0_Node_2</title>
<path fill="none" stroke="#000000" d="M303.3508,-1560.0347C309.3283,-1513.8494 325.143,-1391.6576 332.3403,-1336.0479"/>
<polygon fill="#000000" stroke="#000000" points="335.8469,-1336.2225 333.6594,-1325.8559 328.9048,-1335.324 335.8469,-1336.2225"/>
<text text-anchor="middle" x="375" y="-1448.9848" font-family="Times,serif" font-size="20.00" fill="#000000">empty</text>
<text text-anchor="middle" x="375" y="-1426.9848" font-family="Times,serif" font-size="20.00" fill="#000000">text/html</text>
</g>
<!-- SG_0_Node_17 -->
<g id="node6" class="node">
<title>SG_0_Node_17</title>
<ellipse fill="none" stroke="#000000" cx="201" cy="-1147.3452" rx="34.7971" ry="21.4286"/>
<text text-anchor="middle" x="201" y="-1142.3452" font-family="Times,serif" font-size="20.00" fill="#000000">0.0</text>
</g>
<!-- SG_0_Node_2&#45;&gt;SG_0_Node_17 -->
<g id="edge5" class="edge">
<title>SG_0_Node_2&#45;&gt;SG_0_Node_17</title>
<path fill="none" stroke="#000000" d="M275.2645,-1289.7291C254.8257,-1280.7735 233.7449,-1267.8379 220,-1249.5584 204.8052,-1229.3506 200.5503,-1200.6542 199.8125,-1178.8091"/>
<polygon fill="#000000" stroke="#000000" points="203.3111,-1178.6632 199.7003,-1168.7027 196.3116,-1178.741 203.3111,-1178.6632"/>
<text text-anchor="middle" x="281" y="-1233.5584" font-family="Times,serif" font-size="20.00" fill="#000000">[NA]</text>
<text text-anchor="middle" x="281" y="-1211.5584" font-family="Times,serif" font-size="20.00" fill="#000000">same&#45;origin</text>
</g>
<!-- SG_0_Node_3 -->
<g id="node7" class="node">
<title>SG_0_Node_3</title>
<polygon fill="none" stroke="#000000" points="474.5,-1165.3452 253.5,-1165.3452 253.5,-1129.3452 474.5,-1129.3452 474.5,-1165.3452"/>
<text text-anchor="middle" x="364" y="-1142.3452" font-family="Times,serif" font-size="20.00" fill="#000000">Content&#45;Disposition</text>
</g>
<!-- SG_0_Node_2&#45;&gt;SG_0_Node_3 -->
<g id="edge6" class="edge">
<title>SG_0_Node_2&#45;&gt;SG_0_Node_3</title>
<path fill="none" stroke="#000000" d="M339.1575,-1289.6805C344.01,-1261.8783 353.3401,-1208.4211 359.0828,-1175.5183"/>
<polygon fill="#000000" stroke="#000000" points="362.5395,-1176.0693 360.8111,-1165.6164 355.6437,-1174.8656 362.5395,-1176.0693"/>
<text text-anchor="middle" x="385" y="-1222.5584" font-family="Times,serif" font-size="20.00" fill="#000000">empty</text>
</g>
<!-- SG_0_Node_18 -->
<g id="node8" class="node">
<title>SG_0_Node_18</title>
<ellipse fill="none" stroke="#000000" cx="261" cy="-986.9188" rx="34.7971" ry="21.4286"/>
<text text-anchor="middle" x="261" y="-981.9188" font-family="Times,serif" font-size="20.00" fill="#000000">0.0</text>
</g>
<!-- SG_0_Node_3&#45;&gt;SG_0_Node_18 -->
<g id="edge7" class="edge">
<title>SG_0_Node_3&#45;&gt;SG_0_Node_18</title>
<path fill="none" stroke="#000000" d="M308.7583,-1129.2697C290.2365,-1120.2717 271.6105,-1107.3167 261,-1089.132 248.5495,-1067.7939 249.6408,-1039.4352 253.2273,-1018.0025"/>
<polygon fill="#000000" stroke="#000000" points="256.6802,-1018.5807 255.14,-1008.0984 249.8072,-1017.2533 256.6802,-1018.5807"/>
<text text-anchor="middle" x="320" y="-1062.132" font-family="Times,serif" font-size="20.00" fill="#000000">attachment</text>
</g>
<!-- SG_0_Node_4 -->
<g id="node9" class="node">
<title>SG_0_Node_4</title>
<polygon fill="none" stroke="#000000" points="486,-1004.9188 344,-1004.9188 344,-968.9188 486,-968.9188 486,-1004.9188"/>
<text text-anchor="middle" x="415" y="-981.9188" font-family="Times,serif" font-size="20.00" fill="#000000">Status&#45;Code</text>
</g>
<!-- SG_0_Node_3&#45;&gt;SG_0_Node_4 -->
<g id="edge8" class="edge">
<title>SG_0_Node_3&#45;&gt;SG_0_Node_4</title>
<path fill="none" stroke="#000000" d="M369.9616,-1129.2704C373.734,-1117.7863 378.6941,-1102.5999 383,-1089.132 391.0414,-1063.9804 400.0082,-1035.2806 406.3992,-1014.7086"/>
<polygon fill="#000000" stroke="#000000" points="409.7803,-1015.6221 409.4011,-1005.0341 403.0948,-1013.5476 409.7803,-1015.6221"/>
<text text-anchor="middle" x="428" y="-1073.132" font-family="Times,serif" font-size="20.00" fill="#000000">[NA]</text>
<text text-anchor="middle" x="428" y="-1051.132" font-family="Times,serif" font-size="20.00" fill="#000000">empty</text>
</g>
<!-- SG_0_Node_5 -->
<g id="node10" class="node">
<title>SG_0_Node_5</title>
<polygon fill="none" stroke="#000000" points="385,-847.7056 243,-847.7056 243,-811.7056 385,-811.7056 385,-847.7056"/>
<text text-anchor="middle" x="314" y="-824.7056" font-family="Times,serif" font-size="20.00" fill="#000000">Status&#45;Code</text>
</g>
<!-- SG_0_Node_4&#45;&gt;SG_0_Node_5 -->
<g id="edge9" class="edge">
<title>SG_0_Node_4&#45;&gt;SG_0_Node_5</title>
<path fill="none" stroke="#000000" d="M403.414,-968.8845C385.7005,-941.3122 351.7792,-888.5115 331.1908,-856.4643"/>
<polygon fill="#000000" stroke="#000000" points="334.1118,-854.5355 325.762,-848.0139 328.2224,-858.3191 334.1118,-854.5355"/>
<text text-anchor="middle" x="423" y="-901.7056" font-family="Times,serif" font-size="20.00" fill="#000000">13 levels</text>
</g>
<!-- SG_0_Node_6 -->
<g id="node11" class="node">
<title>SG_0_Node_6</title>
<polygon fill="none" stroke="#000000" points="593.5,-847.7056 438.5,-847.7056 438.5,-811.7056 593.5,-811.7056 593.5,-847.7056"/>
<text text-anchor="middle" x="516" y="-824.7056" font-family="Times,serif" font-size="20.00" fill="#000000">Content&#45;Type</text>
</g>
<!-- SG_0_Node_4&#45;&gt;SG_0_Node_6 -->
<g id="edge10" class="edge">
<title>SG_0_Node_4&#45;&gt;SG_0_Node_6</title>
<path fill="none" stroke="#000000" d="M436.5847,-968.8884C448.4657,-958.1374 462.8195,-943.6936 473,-928.7056 488.1107,-906.4593 499.7932,-878.042 507.1421,-857.3644"/>
<polygon fill="#000000" stroke="#000000" points="510.4559,-858.491 510.3978,-847.8963 503.8363,-856.2148 510.4559,-858.491"/>
<text text-anchor="middle" x="542" y="-912.7056" font-family="Times,serif" font-size="20.00" fill="#000000">[NA]</text>
<text text-anchor="middle" x="542" y="-890.7056" font-family="Times,serif" font-size="20.00" fill="#000000">50 levels</text>
</g>
<!-- SG_0_Node_19 -->
<g id="node12" class="node">
<title>SG_0_Node_19</title>
<ellipse fill="none" stroke="#000000" cx="209" cy="-540.4924" rx="34.7971" ry="21.4286"/>
<text text-anchor="middle" x="209" y="-535.4924" font-family="Times,serif" font-size="20.00" fill="#000000">0.0</text>
</g>
<!-- SG_0_Node_5&#45;&gt;SG_0_Node_19 -->
<g id="edge17" class="edge">
<title>SG_0_Node_5&#45;&gt;SG_0_Node_19</title>
<path fill="none" stroke="#000000" d="M296.8269,-811.6523C287.9856,-801.4896 277.688,-788.165 271,-774.7056 237.2251,-706.7351 220.26,-618.2202 213.1879,-571.8926"/>
<polygon fill="#000000" stroke="#000000" points="216.6309,-571.2479 211.7121,-561.8641 209.7055,-572.2671 216.6309,-571.2479"/>
<text text-anchor="middle" x="290.5" y="-758.7056" font-family="Times,serif" font-size="20.00" fill="#000000">100</text>
<text text-anchor="middle" x="290.5" y="-736.7056" font-family="Times,serif" font-size="20.00" fill="#000000">101</text>
<text text-anchor="middle" x="290.5" y="-714.7056" font-family="Times,serif" font-size="20.00" fill="#000000">102</text>
<text text-anchor="middle" x="290.5" y="-692.7056" font-family="Times,serif" font-size="20.00" fill="#000000">103</text>
<text text-anchor="middle" x="290.5" y="-670.7056" font-family="Times,serif" font-size="20.00" fill="#000000">204</text>
<text text-anchor="middle" x="290.5" y="-648.7056" font-family="Times,serif" font-size="20.00" fill="#000000">205</text>
<text text-anchor="middle" x="290.5" y="-626.7056" font-family="Times,serif" font-size="20.00" fill="#000000">304</text>
<text text-anchor="middle" x="290.5" y="-604.7056" font-family="Times,serif" font-size="20.00" fill="#000000">407</text>
</g>
<!-- SG_0_Node_7 -->
<g id="node13" class="node">
<title>SG_0_Node_7</title>
<polygon fill="none" stroke="#000000" points="366.5,-558.4924 261.5,-558.4924 261.5,-522.4924 366.5,-522.4924 366.5,-558.4924"/>
<text text-anchor="middle" x="314" y="-535.4924" font-family="Times,serif" font-size="20.00" fill="#000000">Location</text>
</g>
<!-- SG_0_Node_5&#45;&gt;SG_0_Node_7 -->
<g id="edge18" class="edge">
<title>SG_0_Node_5&#45;&gt;SG_0_Node_7</title>
<path fill="none" stroke="#000000" d="M314,-811.614C314,-762.7186 314,-627.6542 314,-568.6679"/>
<polygon fill="#000000" stroke="#000000" points="317.5001,-568.5771 314,-558.5772 310.5001,-568.5772 317.5001,-568.5771"/>
<text text-anchor="middle" x="333.5" y="-725.7056" font-family="Times,serif" font-size="20.00" fill="#000000">301</text>
<text text-anchor="middle" x="333.5" y="-703.7056" font-family="Times,serif" font-size="20.00" fill="#000000">302</text>
<text text-anchor="middle" x="333.5" y="-681.7056" font-family="Times,serif" font-size="20.00" fill="#000000">303</text>
<text text-anchor="middle" x="333.5" y="-659.7056" font-family="Times,serif" font-size="20.00" fill="#000000">307</text>
<text text-anchor="middle" x="333.5" y="-637.7056" font-family="Times,serif" font-size="20.00" fill="#000000">308</text>
</g>
<!-- SG_0_Node_8 -->
<g id="node14" class="node">
<title>SG_0_Node_8</title>
<polygon fill="none" stroke="#000000" points="647,-558.4924 385,-558.4924 385,-522.4924 647,-522.4924 647,-558.4924"/>
<text text-anchor="middle" x="516" y="-535.4924" font-family="Times,serif" font-size="20.00" fill="#000000">X&#45;Content&#45;Type&#45;Options</text>
</g>
<!-- SG_0_Node_6&#45;&gt;SG_0_Node_8 -->
<g id="edge11" class="edge">
<title>SG_0_Node_6&#45;&gt;SG_0_Node_8</title>
<path fill="none" stroke="#000000" d="M516,-811.614C516,-762.7186 516,-627.6542 516,-568.6679"/>
<polygon fill="#000000" stroke="#000000" points="519.5001,-568.5771 516,-558.5772 512.5001,-568.5772 519.5001,-568.5771"/>
<text text-anchor="middle" x="548" y="-681.7056" font-family="Times,serif" font-size="20.00" fill="#000000">empty</text>
</g>
<!-- SG_0_Node_20 -->
<g id="node15" class="node">
<title>SG_0_Node_20</title>
<ellipse fill="none" stroke="#000000" cx="700" cy="-540.4924" rx="34.7971" ry="21.4286"/>
<text text-anchor="middle" x="700" y="-535.4924" font-family="Times,serif" font-size="20.00" fill="#000000">1.0</text>
</g>
<!-- SG_0_Node_6&#45;&gt;SG_0_Node_20 -->
<g id="edge12" class="edge">
<title>SG_0_Node_6&#45;&gt;SG_0_Node_20</title>
<path fill="none" stroke="#000000" d="M543.5397,-811.6721C556.9568,-801.9012 572.6101,-788.9273 584,-774.7056 635.9274,-709.868 672.9074,-617.9906 689.7634,-570.9026"/>
<polygon fill="#000000" stroke="#000000" points="693.1284,-571.8839 693.1467,-561.2891 686.5254,-569.56 693.1284,-571.8839"/>
<text text-anchor="middle" x="725" y="-681.7056" font-family="Times,serif" font-size="20.00" fill="#000000">text/html</text>
</g>
<!-- SG_0_Node_21 -->
<g id="node16" class="node">
<title>SG_0_Node_21</title>
<ellipse fill="none" stroke="#000000" cx="51" cy="-380.066" rx="34.7971" ry="21.4286"/>
<text text-anchor="middle" x="51" y="-375.066" font-family="Times,serif" font-size="20.00" fill="#000000">0.0</text>
</g>
<!-- SG_0_Node_7&#45;&gt;SG_0_Node_21 -->
<g id="edge19" class="edge">
<title>SG_0_Node_7&#45;&gt;SG_0_Node_21</title>
<path fill="none" stroke="#000000" d="M263.5564,-522.4149C259.999,-521.3053 256.4548,-520.2476 253,-519.2792 177.7085,-498.1755 138.2877,-535.4985 81,-482.2792 61.583,-464.2412 54.5039,-434.3686 52.0341,-411.5635"/>
<polygon fill="#000000" stroke="#000000" points="55.4999,-411.008 51.1768,-401.3353 48.5244,-411.5927 55.4999,-411.008"/>
<text text-anchor="middle" x="196" y="-455.2792" font-family="Times,serif" font-size="20.00" fill="#000000">http://172.17.0.1:8000</text>
</g>
<!-- SG_0_Node_9 -->
<g id="node17" class="node">
<title>SG_0_Node_9</title>
<polygon fill="none" stroke="#000000" points="448,-398.066 186,-398.066 186,-362.066 448,-362.066 448,-398.066"/>
<text text-anchor="middle" x="317" y="-375.066" font-family="Times,serif" font-size="20.00" fill="#000000">X&#45;Content&#45;Type&#45;Options</text>
</g>
<!-- SG_0_Node_7&#45;&gt;SG_0_Node_9 -->
<g id="edge20" class="edge">
<title>SG_0_Node_7&#45;&gt;SG_0_Node_9</title>
<path fill="none" stroke="#000000" d="M314.3383,-522.4013C314.856,-494.7194 315.8492,-441.6042 316.4651,-408.6675"/>
<polygon fill="#000000" stroke="#000000" points="319.9707,-408.4009 316.6583,-398.3371 312.9719,-408.2699 319.9707,-408.4009"/>
<text text-anchor="middle" x="347" y="-466.2792" font-family="Times,serif" font-size="20.00" fill="#000000">[NA]</text>
<text text-anchor="middle" x="347" y="-444.2792" font-family="Times,serif" font-size="20.00" fill="#000000">empty</text>
</g>
<!-- SG_0_Node_22 -->
<g id="node18" class="node">
<title>SG_0_Node_22</title>
<ellipse fill="none" stroke="#000000" cx="510" cy="-380.066" rx="34.7971" ry="21.4286"/>
<text text-anchor="middle" x="510" y="-375.066" font-family="Times,serif" font-size="20.00" fill="#000000">0.0</text>
</g>
<!-- SG_0_Node_8&#45;&gt;SG_0_Node_22 -->
<g id="edge13" class="edge">
<title>SG_0_Node_8&#45;&gt;SG_0_Node_22</title>
<path fill="none" stroke="#000000" d="M515.3234,-522.4013C514.3168,-495.4864 512.4109,-444.5279 511.1738,-411.4506"/>
<polygon fill="#000000" stroke="#000000" points="514.669,-411.2549 510.7976,-401.3927 507.6739,-411.5166 514.669,-411.2549"/>
<text text-anchor="middle" x="548" y="-455.2792" font-family="Times,serif" font-size="20.00" fill="#000000">nosniff</text>
</g>
<!-- SG_0_Node_10 -->
<g id="node19" class="node">
<title>SG_0_Node_10</title>
<polygon fill="none" stroke="#000000" points="705,-398.066 563,-398.066 563,-362.066 705,-362.066 705,-398.066"/>
<text text-anchor="middle" x="634" y="-375.066" font-family="Times,serif" font-size="20.00" fill="#000000">Status&#45;Code</text>
</g>
<!-- SG_0_Node_8&#45;&gt;SG_0_Node_10 -->
<g id="edge14" class="edge">
<title>SG_0_Node_8&#45;&gt;SG_0_Node_10</title>
<path fill="none" stroke="#000000" d="M543.8765,-522.2471C558.1593,-511.8424 575.0177,-497.7977 587,-482.2792 604.415,-459.7248 617.2453,-429.6804 625.0604,-408.0086"/>
<polygon fill="#000000" stroke="#000000" points="628.4212,-408.9998 628.3944,-398.405 621.8083,-406.704 628.4212,-408.9998"/>
<text text-anchor="middle" x="644" y="-466.2792" font-family="Times,serif" font-size="20.00" fill="#000000">[NA]</text>
<text text-anchor="middle" x="644" y="-444.2792" font-family="Times,serif" font-size="20.00" fill="#000000">empty</text>
</g>
<!-- SG_0_Node_11 -->
<g id="node20" class="node">
<title>SG_0_Node_11</title>
<polygon fill="none" stroke="#000000" points="236.5,-237.6396 81.5,-237.6396 81.5,-201.6396 236.5,-201.6396 236.5,-237.6396"/>
<text text-anchor="middle" x="159" y="-214.6396" font-family="Times,serif" font-size="20.00" fill="#000000">Content&#45;Type</text>
</g>
<!-- SG_0_Node_9&#45;&gt;SG_0_Node_11 -->
<g id="edge21" class="edge">
<title>SG_0_Node_9&#45;&gt;SG_0_Node_11</title>
<path fill="none" stroke="#000000" d="M292.7495,-361.9364C278.5869,-350.9273 260.6731,-336.2582 246,-321.8528 221.3375,-297.6402 196.0504,-267.1755 179.1402,-245.8298"/>
<polygon fill="#000000" stroke="#000000" points="181.7996,-243.5493 172.8699,-237.8473 176.2948,-247.8733 181.7996,-243.5493"/>
<text text-anchor="middle" x="281" y="-294.8528" font-family="Times,serif" font-size="20.00" fill="#000000">nosniff</text>
</g>
<!-- SG_0_Node_12 -->
<g id="node21" class="node">
<title>SG_0_Node_12</title>
<polygon fill="none" stroke="#000000" points="397,-237.6396 255,-237.6396 255,-201.6396 397,-201.6396 397,-237.6396"/>
<text text-anchor="middle" x="326" y="-214.6396" font-family="Times,serif" font-size="20.00" fill="#000000">Status&#45;Code</text>
</g>
<!-- SG_0_Node_9&#45;&gt;SG_0_Node_12 -->
<g id="edge22" class="edge">
<title>SG_0_Node_9&#45;&gt;SG_0_Node_12</title>
<path fill="none" stroke="#000000" d="M318.0149,-361.9749C319.5679,-334.293 322.5477,-281.1778 324.3954,-248.2411"/>
<polygon fill="#000000" stroke="#000000" points="327.9093,-248.0911 324.975,-237.9107 320.9203,-247.699 327.9093,-248.0911"/>
<text text-anchor="middle" x="354" y="-305.8528" font-family="Times,serif" font-size="20.00" fill="#000000">[NA]</text>
<text text-anchor="middle" x="354" y="-283.8528" font-family="Times,serif" font-size="20.00" fill="#000000">empty</text>
</g>
<!-- SG_0_Node_23 -->
<g id="node22" class="node">
<title>SG_0_Node_23</title>
<ellipse fill="none" stroke="#000000" cx="585" cy="-219.6396" rx="52.1524" ry="21.4286"/>
<text text-anchor="middle" x="585" y="-214.6396" font-family="Times,serif" font-size="20.00" fill="#000000">0.938</text>
</g>
<!-- SG_0_Node_10&#45;&gt;SG_0_Node_23 -->
<g id="edge15" class="edge">
<title>SG_0_Node_10&#45;&gt;SG_0_Node_23</title>
<path fill="none" stroke="#000000" d="M627.5292,-362.0566C623.4825,-350.5979 618.2503,-335.4152 614,-321.8528 606.5442,-298.0617 598.8772,-270.8995 593.3005,-250.5582"/>
<polygon fill="#000000" stroke="#000000" points="596.6697,-249.6097 590.664,-240.8815 589.9159,-251.4499 596.6697,-249.6097"/>
<text text-anchor="middle" x="633.5" y="-305.8528" font-family="Times,serif" font-size="20.00" fill="#000000">200</text>
<text text-anchor="middle" x="633.5" y="-283.8528" font-family="Times,serif" font-size="20.00" fill="#000000">305</text>
</g>
<!-- SG_0_Node_24 -->
<g id="node23" class="node">
<title>SG_0_Node_24</title>
<ellipse fill="none" stroke="#000000" cx="690" cy="-219.6396" rx="34.7971" ry="21.4286"/>
<text text-anchor="middle" x="690" y="-214.6396" font-family="Times,serif" font-size="20.00" fill="#000000">1.0</text>
</g>
<!-- SG_0_Node_10&#45;&gt;SG_0_Node_24 -->
<g id="edge16" class="edge">
<title>SG_0_Node_10&#45;&gt;SG_0_Node_24</title>
<path fill="none" stroke="#000000" d="M640.3151,-361.9749C649.8028,-334.7949 667.8495,-283.0955 679.3839,-250.0523"/>
<polygon fill="#000000" stroke="#000000" points="682.7465,-251.0391 682.7377,-240.4442 676.1375,-248.7321 682.7465,-251.0391"/>
<text text-anchor="middle" x="715" y="-305.8528" font-family="Times,serif" font-size="20.00" fill="#000000">[NA]</text>
<text text-anchor="middle" x="715" y="-283.8528" font-family="Times,serif" font-size="20.00" fill="#000000">48 levels</text>
</g>
<!-- SG_0_Node_25 -->
<g id="node24" class="node">
<title>SG_0_Node_25</title>
<ellipse fill="none" stroke="#000000" cx="69" cy="-37.2132" rx="34.7971" ry="21.4286"/>
<text text-anchor="middle" x="69" y="-32.2132" font-family="Times,serif" font-size="20.00" fill="#000000">0.0</text>
</g>
<!-- SG_0_Node_11&#45;&gt;SG_0_Node_25 -->
<g id="edge25" class="edge">
<title>SG_0_Node_11&#45;&gt;SG_0_Node_25</title>
<path fill="none" stroke="#000000" d="M131.4287,-201.4223C118.1191,-191.2132 103.1002,-177.3379 94,-161.4264 77.6828,-132.896 71.8965,-95.3563 69.9067,-69.0427"/>
<polygon fill="#000000" stroke="#000000" points="73.3879,-68.6259 69.2829,-58.8586 66.401,-69.0539 73.3879,-68.6259"/>
<text text-anchor="middle" x="126" y="-123.4264" font-family="Times,serif" font-size="20.00" fill="#000000">empty</text>
</g>
<!-- SG_0_Node_26 -->
<g id="node25" class="node">
<title>SG_0_Node_26</title>
<ellipse fill="none" stroke="#000000" cx="169" cy="-37.2132" rx="34.7971" ry="21.4286"/>
<text text-anchor="middle" x="169" y="-32.2132" font-family="Times,serif" font-size="20.00" fill="#000000">1.0</text>
</g>
<!-- SG_0_Node_11&#45;&gt;SG_0_Node_26 -->
<g id="edge26" class="edge">
<title>SG_0_Node_11&#45;&gt;SG_0_Node_26</title>
<path fill="none" stroke="#000000" d="M159.9954,-201.4809C161.6933,-170.507 165.1691,-107.0981 167.2709,-68.7558"/>
<polygon fill="#000000" stroke="#000000" points="170.772,-68.8304 167.8247,-58.6538 163.7825,-68.4472 170.772,-68.8304"/>
<text text-anchor="middle" x="212" y="-123.4264" font-family="Times,serif" font-size="20.00" fill="#000000">text/html</text>
</g>
<!-- SG_0_Node_27 -->
<g id="node26" class="node">
<title>SG_0_Node_27</title>
<ellipse fill="none" stroke="#000000" cx="310" cy="-37.2132" rx="52.1524" ry="21.4286"/>
<text text-anchor="middle" x="310" y="-32.2132" font-family="Times,serif" font-size="20.00" fill="#000000">0.938</text>
</g>
<!-- SG_0_Node_12&#45;&gt;SG_0_Node_27 -->
<g id="edge23" class="edge">
<title>SG_0_Node_12&#45;&gt;SG_0_Node_27</title>
<path fill="none" stroke="#000000" d="M324.4074,-201.4809C321.6907,-170.507 316.1294,-107.0981 312.7665,-68.7558"/>
<polygon fill="#000000" stroke="#000000" points="316.2409,-68.3097 311.8805,-58.6538 309.2677,-68.9214 316.2409,-68.3097"/>
<text text-anchor="middle" x="339.5" y="-134.4264" font-family="Times,serif" font-size="20.00" fill="#000000">301</text>
<text text-anchor="middle" x="339.5" y="-112.4264" font-family="Times,serif" font-size="20.00" fill="#000000">302</text>
</g>
<!-- SG_0_Node_28 -->
<g id="node27" class="node">
<title>SG_0_Node_28</title>
<ellipse fill="none" stroke="#000000" cx="415" cy="-37.2132" rx="34.7971" ry="21.4286"/>
<text text-anchor="middle" x="415" y="-32.2132" font-family="Times,serif" font-size="20.00" fill="#000000">1.0</text>
</g>
<!-- SG_0_Node_12&#45;&gt;SG_0_Node_28 -->
<g id="edge24" class="edge">
<title>SG_0_Node_12&#45;&gt;SG_0_Node_28</title>
<path fill="none" stroke="#000000" d="M338.6552,-201.5018C346.219,-190.249 355.7375,-175.3314 363,-161.4264 379.1475,-130.5101 394.1354,-93.4406 403.8308,-67.8907"/>
<polygon fill="#000000" stroke="#000000" points="407.1684,-68.9585 407.4024,-58.3662 400.614,-66.5006 407.1684,-68.9585"/>
<text text-anchor="middle" x="411.5" y="-145.4264" font-family="Times,serif" font-size="20.00" fill="#000000">303</text>
<text text-anchor="middle" x="411.5" y="-123.4264" font-family="Times,serif" font-size="20.00" fill="#000000">307</text>
<text text-anchor="middle" x="411.5" y="-101.4264" font-family="Times,serif" font-size="20.00" fill="#000000">308</text>
</g>
</g>
</svg>
