<?xml version="1.0" encoding="UTF-8" standalone="no"?>
<!DOCTYPE svg PUBLIC "-//W3C//DTD SVG 1.1//EN"
 "http://www.w3.org/Graphics/SVG/1.1/DTD/svg11.dtd">
<!-- Generated by graphviz version 2.40.1 (20161225.0304)
 -->
<!-- Title: G Pages: 1 -->
<svg width="677pt" height="1179pt"
 viewBox="0.00 0.00 677.00 1178.56" xmlns="http://www.w3.org/2000/svg" xmlns:xlink="http://www.w3.org/1999/xlink">
<g id="graph0" class="graph" transform="scale(1 1) rotate(0) translate(4 1174.5584)">
<title>G</title>
<polygon fill="#ffffff" stroke="transparent" points="-4,4 -4,-1174.5584 673,-1174.5584 673,4 -4,4"/>
<g id="clust1" class="cluster">
<title>cluster_0</title>
<polygon fill="none" stroke="#000000" points="8,-8 8,-1162.5584 661,-1162.5584 661,-8 8,-8"/>
<text text-anchor="middle" x="334.5" y="-1126.5584" font-family="Times,serif" font-size="40.00" fill="#000000">Tree 0, Class 0</text>
</g>
<!-- SG_0_Node_0 -->
<g id="node1" class="node">
<title>SG_0_Node_0</title>
<polygon fill="none" stroke="#000000" points="378,-1102.5584 236,-1102.5584 236,-1066.5584 378,-1066.5584 378,-1102.5584"/>
<text text-anchor="middle" x="307" y="-1079.5584" font-family="Times,serif" font-size="20.00" fill="#000000">Status&#45;Code</text>
</g>
<!-- SG_0_Node_1 -->
<g id="node2" class="node">
<title>SG_0_Node_1</title>
<polygon fill="none" stroke="#000000" points="297.5,-945.3452 232.5,-945.3452 232.5,-909.3452 297.5,-909.3452 297.5,-945.3452"/>
<text text-anchor="middle" x="265" y="-922.3452" font-family="Times,serif" font-size="20.00" fill="#000000">body</text>
</g>
<!-- SG_0_Node_0&#45;&gt;SG_0_Node_1 -->
<g id="edge1" class="edge">
<title>SG_0_Node_0&#45;&gt;SG_0_Node_1</title>
<path fill="none" stroke="#000000" d="M299.2464,-1066.4784C294.9118,-1055.8684 289.6618,-1042.1184 286,-1029.5584 278.8323,-1004.9733 273.1773,-976.3736 269.5499,-955.6891"/>
<polygon fill="#000000" stroke="#000000" points="272.9706,-954.9272 267.8406,-945.6572 266.0701,-956.103 272.9706,-954.9272"/>
<text text-anchor="middle" x="305.5" y="-1002.5584" font-family="Times,serif" font-size="20.00" fill="#000000">200</text>
</g>
<!-- SG_0_Node_6 -->
<g id="node3" class="node">
<title>SG_0_Node_6</title>
<ellipse fill="none" stroke="#000000" cx="350" cy="-927.3452" rx="34.7971" ry="21.4286"/>
<text text-anchor="middle" x="350" y="-922.3452" font-family="Times,serif" font-size="20.00" fill="#000000">1.0</text>
</g>
<!-- SG_0_Node_0&#45;&gt;SG_0_Node_6 -->
<g id="edge2" class="edge">
<title>SG_0_Node_0&#45;&gt;SG_0_Node_6</title>
<path fill="none" stroke="#000000" d="M313.3523,-1066.333C316.9697,-1055.6745 321.4697,-1041.9245 325,-1029.5584 331.7474,-1005.9231 338.308,-978.8979 343.0143,-958.5748"/>
<polygon fill="#000000" stroke="#000000" points="346.4753,-959.1406 345.2975,-948.6114 339.6521,-957.5769 346.4753,-959.1406"/>
<text text-anchor="middle" x="382" y="-1013.5584" font-family="Times,serif" font-size="20.00" fill="#000000">[NA]</text>
<text text-anchor="middle" x="382" y="-991.5584" font-family="Times,serif" font-size="20.00" fill="#000000">62 levels</text>
</g>
<!-- SG_0_Node_2 -->
<g id="node4" class="node">
<title>SG_0_Node_2</title>
<polygon fill="none" stroke="#000000" points="333.5,-784.9188 16.5,-784.9188 16.5,-748.9188 333.5,-748.9188 333.5,-784.9188"/>
<text text-anchor="middle" x="175" y="-761.9188" font-family="Times,serif" font-size="20.00" fill="#000000">Cross&#45;Origin&#45;Resource&#45;Policy</text>
</g>
<!-- SG_0_Node_1&#45;&gt;SG_0_Node_2 -->
<g id="edge3" class="edge">
<title>SG_0_Node_1&#45;&gt;SG_0_Node_2</title>
<path fill="none" stroke="#000000" d="M232.3632,-923.4218C177.4525,-916.0762 70.3755,-898.3012 48,-869.132 36.0976,-853.6158 37.4389,-841.5906 48,-825.132 58.1126,-809.3723 73.6762,-797.8237 90.4831,-789.3796"/>
<polygon fill="#000000" stroke="#000000" points="92.3232,-792.3843 99.9216,-785.0008 89.3773,-786.0344 92.3232,-792.3843"/>
<text text-anchor="middle" x="293.5" y="-842.132" font-family="Times,serif" font-size="20.00" fill="#000000">ecocnt_vid=width=100,height=100,duration=2</text>
</g>
<!-- SG_0_Node_7 -->
<g id="node5" class="node">
<title>SG_0_Node_7</title>
<ellipse fill="none" stroke="#000000" cx="561" cy="-766.9188" rx="34.7971" ry="21.4286"/>
<text text-anchor="middle" x="561" y="-761.9188" font-family="Times,serif" font-size="20.00" fill="#000000">1.0</text>
</g>
<!-- SG_0_Node_1&#45;&gt;SG_0_Node_7 -->
<g id="edge4" class="edge">
<title>SG_0_Node_1&#45;&gt;SG_0_Node_7</title>
<path fill="none" stroke="#000000" d="M297.7228,-909.268C300.4781,-908.0995 303.259,-907.0327 306,-906.132 405.6132,-873.4002 462.8644,-941.226 539,-869.132 557.888,-851.2467 562.5234,-821.3559 562.9444,-798.5051"/>
<polygon fill="#000000" stroke="#000000" points="566.4425,-798.227 562.8671,-788.2537 559.4427,-798.2798 566.4425,-798.227"/>
<text text-anchor="middle" x="606" y="-853.132" font-family="Times,serif" font-size="20.00" fill="#000000">[NA]</text>
<text text-anchor="middle" x="606" y="-831.132" font-family="Times,serif" font-size="20.00" fill="#000000">11 levels</text>
</g>
<!-- SG_0_Node_3 -->
<g id="node6" class="node">
<title>SG_0_Node_3</title>
<polygon fill="none" stroke="#000000" points="211.5,-624.4924 56.5,-624.4924 56.5,-588.4924 211.5,-588.4924 211.5,-624.4924"/>
<text text-anchor="middle" x="134" y="-601.4924" font-family="Times,serif" font-size="20.00" fill="#000000">Content&#45;Type</text>
</g>
<!-- SG_0_Node_2&#45;&gt;SG_0_Node_3 -->
<g id="edge5" class="edge">
<title>SG_0_Node_2&#45;&gt;SG_0_Node_3</title>
<path fill="none" stroke="#000000" d="M170.3765,-748.8277C163.2711,-721.0255 149.6091,-667.5683 141.2002,-634.6655"/>
<polygon fill="#000000" stroke="#000000" points="144.5367,-633.5855 138.6695,-624.7636 137.7547,-635.3188 144.5367,-633.5855"/>
<text text-anchor="middle" x="191" y="-681.7056" font-family="Times,serif" font-size="20.00" fill="#000000">empty</text>
</g>
<!-- SG_0_Node_8 -->
<g id="node7" class="node">
<title>SG_0_Node_8</title>
<ellipse fill="none" stroke="#000000" cx="264" cy="-606.4924" rx="34.7971" ry="21.4286"/>
<text text-anchor="middle" x="264" y="-601.4924" font-family="Times,serif" font-size="20.00" fill="#000000">1.0</text>
</g>
<!-- SG_0_Node_2&#45;&gt;SG_0_Node_8 -->
<g id="edge6" class="edge">
<title>SG_0_Node_2&#45;&gt;SG_0_Node_8</title>
<path fill="none" stroke="#000000" d="M194.5845,-748.728C205.3116,-737.9252 218.1782,-723.483 227,-708.7056 240.3845,-686.2855 250.1091,-658.2431 256.2202,-637.2048"/>
<polygon fill="#000000" stroke="#000000" points="259.6131,-638.0677 258.9302,-627.4949 252.8708,-636.1859 259.6131,-638.0677"/>
<text text-anchor="middle" x="308" y="-692.7056" font-family="Times,serif" font-size="20.00" fill="#000000">[NA]</text>
<text text-anchor="middle" x="308" y="-670.7056" font-family="Times,serif" font-size="20.00" fill="#000000">same&#45;origin</text>
</g>
<!-- SG_0_Node_9 -->
<g id="node8" class="node">
<title>SG_0_Node_9</title>
<ellipse fill="none" stroke="#000000" cx="52" cy="-336.066" rx="34.7971" ry="21.4286"/>
<text text-anchor="middle" x="52" y="-331.066" font-family="Times,serif" font-size="20.00" fill="#000000">0.0</text>
</g>
<!-- SG_0_Node_3&#45;&gt;SG_0_Node_9 -->
<g id="edge7" class="edge">
<title>SG_0_Node_3&#45;&gt;SG_0_Node_9</title>
<path fill="none" stroke="#000000" d="M103.1828,-588.2756C89.3013,-578.3247 74.2122,-564.6756 66,-548.2792 36.6713,-489.7218 41.2636,-410.4326 46.851,-367.2522"/>
<polygon fill="#000000" stroke="#000000" points="50.3185,-367.7274 48.2349,-357.3395 43.3858,-366.7595 50.3185,-367.7274"/>
<text text-anchor="middle" x="177" y="-532.2792" font-family="Times,serif" font-size="20.00" fill="#000000">[NA]</text>
<text text-anchor="middle" x="177" y="-510.2792" font-family="Times,serif" font-size="20.00" fill="#000000">application/javascript</text>
<text text-anchor="middle" x="177" y="-488.2792" font-family="Times,serif" font-size="20.00" fill="#000000">audio/wav</text>
<text text-anchor="middle" x="177" y="-466.2792" font-family="Times,serif" font-size="20.00" fill="#000000">empty</text>
<text text-anchor="middle" x="177" y="-444.2792" font-family="Times,serif" font-size="20.00" fill="#000000">image/png</text>
<text text-anchor="middle" x="177" y="-422.2792" font-family="Times,serif" font-size="20.00" fill="#000000">text/css</text>
<text text-anchor="middle" x="177" y="-400.2792" font-family="Times,serif" font-size="20.00" fill="#000000">video/mp4</text>
</g>
<!-- SG_0_Node_4 -->
<g id="node9" class="node">
<title>SG_0_Node_4</title>
<polygon fill="none" stroke="#000000" points="441,-354.066 179,-354.066 179,-318.066 441,-318.066 441,-354.066"/>
<text text-anchor="middle" x="310" y="-331.066" font-family="Times,serif" font-size="20.00" fill="#000000">X&#45;Content&#45;Type&#45;Options</text>
</g>
<!-- SG_0_Node_3&#45;&gt;SG_0_Node_4 -->
<g id="edge8" class="edge">
<title>SG_0_Node_3&#45;&gt;SG_0_Node_4</title>
<path fill="none" stroke="#000000" d="M202.2096,-588.3828C238.0361,-577.4383 276.7936,-562.8279 288,-548.2792 329.5534,-494.3325 322.7708,-408.4263 315.6459,-364.2839"/>
<polygon fill="#000000" stroke="#000000" points="319.0641,-363.511 313.9034,-354.2581 312.1675,-364.7097 319.0641,-363.511"/>
<text text-anchor="middle" x="397" y="-477.2792" font-family="Times,serif" font-size="20.00" fill="#000000">application/pdf</text>
<text text-anchor="middle" x="397" y="-455.2792" font-family="Times,serif" font-size="20.00" fill="#000000">text/html</text>
</g>
<!-- SG_0_Node_5 -->
<g id="node10" class="node">
<title>SG_0_Node_5</title>
<polygon fill="none" stroke="#000000" points="265.5,-193.6396 110.5,-193.6396 110.5,-157.6396 265.5,-157.6396 265.5,-193.6396"/>
<text text-anchor="middle" x="188" y="-170.6396" font-family="Times,serif" font-size="20.00" fill="#000000">Content&#45;Type</text>
</g>
<!-- SG_0_Node_4&#45;&gt;SG_0_Node_5 -->
<g id="edge9" class="edge">
<title>SG_0_Node_4&#45;&gt;SG_0_Node_5</title>
<path fill="none" stroke="#000000" d="M285.5286,-317.908C272.2003,-307.2239 256.024,-292.8869 244,-277.8528 225.4784,-254.6944 209.8102,-224.5529 199.7986,-203.0133"/>
<polygon fill="#000000" stroke="#000000" points="202.927,-201.4373 195.6067,-193.778 196.5528,-204.3306 202.927,-201.4373"/>
<text text-anchor="middle" x="276" y="-250.8528" font-family="Times,serif" font-size="20.00" fill="#000000">empty</text>
</g>
<!-- SG_0_Node_10 -->
<g id="node11" class="node">
<title>SG_0_Node_10</title>
<ellipse fill="none" stroke="#000000" cx="318" cy="-175.6396" rx="34.7971" ry="21.4286"/>
<text text-anchor="middle" x="318" y="-170.6396" font-family="Times,serif" font-size="20.00" fill="#000000">1.0</text>
</g>
<!-- SG_0_Node_4&#45;&gt;SG_0_Node_10 -->
<g id="edge10" class="edge">
<title>SG_0_Node_4&#45;&gt;SG_0_Node_10</title>
<path fill="none" stroke="#000000" d="M310.9022,-317.9749C312.2443,-291.06 314.7855,-240.1015 316.4349,-207.0242"/>
<polygon fill="#000000" stroke="#000000" points="319.934,-207.1282 316.9365,-196.9663 312.9427,-206.7795 319.934,-207.1282"/>
<text text-anchor="middle" x="350" y="-261.8528" font-family="Times,serif" font-size="20.00" fill="#000000">[NA]</text>
<text text-anchor="middle" x="350" y="-239.8528" font-family="Times,serif" font-size="20.00" fill="#000000">nosniff</text>
</g>
<!-- SG_0_Node_11 -->
<g id="node12" class="node">
<title>SG_0_Node_11</title>
<ellipse fill="none" stroke="#000000" cx="65" cy="-37.2132" rx="34.7971" ry="21.4286"/>
<text text-anchor="middle" x="65" y="-32.2132" font-family="Times,serif" font-size="20.00" fill="#000000">0.0</text>
</g>
<!-- SG_0_Node_5&#45;&gt;SG_0_Node_11 -->
<g id="edge11" class="edge">
<title>SG_0_Node_5&#45;&gt;SG_0_Node_11</title>
<path fill="none" stroke="#000000" d="M145.512,-157.6235C127.1914,-148.0161 106.839,-134.5945 93,-117.4264 81.6857,-103.3904 74.7926,-84.4722 70.6781,-68.5334"/>
<polygon fill="#000000" stroke="#000000" points="74.0348,-67.5158 68.357,-58.5708 67.2174,-69.1042 74.0348,-67.5158"/>
<text text-anchor="middle" x="140" y="-101.4264" font-family="Times,serif" font-size="20.00" fill="#000000">text/html</text>
</g>
<!-- SG_0_Node_12 -->
<g id="node13" class="node">
<title>SG_0_Node_12</title>
<ellipse fill="none" stroke="#000000" cx="195" cy="-37.2132" rx="34.7971" ry="21.4286"/>
<text text-anchor="middle" x="195" y="-32.2132" font-family="Times,serif" font-size="20.00" fill="#000000">1.0</text>
</g>
<!-- SG_0_Node_5&#45;&gt;SG_0_Node_12 -->
<g id="edge12" class="edge">
<title>SG_0_Node_5&#45;&gt;SG_0_Node_12</title>
<path fill="none" stroke="#000000" d="M188.9151,-157.5428C190.0537,-135.0281 192.0167,-96.2088 193.4048,-68.7578"/>
<polygon fill="#000000" stroke="#000000" points="196.9144,-68.6557 193.924,-58.4917 189.9233,-68.3022 196.9144,-68.6557"/>
<text text-anchor="middle" x="268" y="-101.4264" font-family="Times,serif" font-size="20.00" fill="#000000">application/pdf</text>
</g>
</g>
</svg>
