<?xml version="1.0" encoding="UTF-8" standalone="no"?>
<!DOCTYPE svg PUBLIC "-//W3C//DTD SVG 1.1//EN"
 "http://www.w3.org/Graphics/SVG/1.1/DTD/svg11.dtd">
<!-- Generated by graphviz version 2.40.1 (20161225.0304)
 -->
<!-- Title: G Pages: 1 -->
<svg width="2313pt" height="1377pt"
 viewBox="0.00 0.00 2313.00 1376.56" xmlns="http://www.w3.org/2000/svg" xmlns:xlink="http://www.w3.org/1999/xlink">
<g id="graph0" class="graph" transform="scale(1 1) rotate(0) translate(4 1372.5584)">
<title>G</title>
<polygon fill="#ffffff" stroke="transparent" points="-4,4 -4,-1372.5584 2309,-1372.5584 2309,4 -4,4"/>
<g id="clust1" class="cluster">
<title>cluster_0</title>
<polygon fill="none" stroke="#000000" points="8,-8 8,-1360.5584 1115,-1360.5584 1115,-8 8,-8"/>
<text text-anchor="middle" x="561.5" y="-1324.5584" font-family="Times,serif" font-size="40.00" fill="#000000">Tree 0, Class 0</text>
</g>
<g id="clust9" class="cluster">
<title>cluster_1</title>
<polygon fill="none" stroke="#000000" points="1123,-8 1123,-1360.5584 1569,-1360.5584 1569,-8 1123,-8"/>
<text text-anchor="middle" x="1346" y="-1324.5584" font-family="Times,serif" font-size="40.00" fill="#000000">Tree 0, Class 1</text>
</g>
<g id="clust17" class="cluster">
<title>cluster_2</title>
<polygon fill="none" stroke="#000000" points="1577,-8 1577,-1360.5584 2230,-1360.5584 2230,-8 1577,-8"/>
<text text-anchor="middle" x="1903.5" y="-1324.5584" font-family="Times,serif" font-size="40.00" fill="#000000">Tree 0, Class 4</text>
</g>
<!-- SG_0_Node_0 -->
<g id="node1" class="node">
<title>SG_0_Node_0</title>
<polygon fill="none" stroke="#000000" points="176,-1300.5584 34,-1300.5584 34,-1264.5584 176,-1264.5584 176,-1300.5584"/>
<text text-anchor="middle" x="105" y="-1277.5584" font-family="Times,serif" font-size="20.00" fill="#000000">Status&#45;Code</text>
</g>
<!-- SG_0_Node_1 -->
<g id="node2" class="node">
<title>SG_0_Node_1</title>
<polygon fill="none" stroke="#000000" points="109.5,-1143.3452 44.5,-1143.3452 44.5,-1107.3452 109.5,-1107.3452 109.5,-1143.3452"/>
<text text-anchor="middle" x="77" y="-1120.3452" font-family="Times,serif" font-size="20.00" fill="#000000">body</text>
</g>
<!-- SG_0_Node_0&#45;&gt;SG_0_Node_1 -->
<g id="edge1" class="edge">
<title>SG_0_Node_0&#45;&gt;SG_0_Node_1</title>
<path fill="none" stroke="#000000" d="M101.788,-1264.5241C96.9613,-1237.4231 87.7936,-1185.9489 82.0617,-1153.7653"/>
<polygon fill="#000000" stroke="#000000" points="85.46,-1152.8849 80.2607,-1143.6535 78.5685,-1154.1123 85.46,-1152.8849"/>
<text text-anchor="middle" x="114.5" y="-1200.5584" font-family="Times,serif" font-size="20.00" fill="#000000">200</text>
</g>
<!-- SG_0_Node_6 -->
<g id="node3" class="node">
<title>SG_0_Node_6</title>
<ellipse fill="none" stroke="#000000" cx="162" cy="-1125.3452" rx="34.7971" ry="21.4286"/>
<text text-anchor="middle" x="162" y="-1120.3452" font-family="Times,serif" font-size="20.00" fill="#000000">1.0</text>
</g>
<!-- SG_0_Node_0&#45;&gt;SG_0_Node_6 -->
<g id="edge2" class="edge">
<title>SG_0_Node_0&#45;&gt;SG_0_Node_6</title>
<path fill="none" stroke="#000000" d="M117.3467,-1264.4005C123.9596,-1253.9926 131.7929,-1240.4673 137,-1227.5584 146.2531,-1204.6192 152.7116,-1177.3524 156.7433,-1156.7527"/>
<polygon fill="#000000" stroke="#000000" points="160.2353,-1157.1192 158.6323,-1146.6464 153.3545,-1155.833 160.2353,-1157.1192"/>
<text text-anchor="middle" x="196" y="-1211.5584" font-family="Times,serif" font-size="20.00" fill="#000000">[NA]</text>
<text text-anchor="middle" x="196" y="-1189.5584" font-family="Times,serif" font-size="20.00" fill="#000000">62 levels</text>
</g>
<!-- SG_0_Node_2 -->
<g id="node4" class="node">
<title>SG_0_Node_2</title>
<polygon fill="none" stroke="#000000" points="333.5,-784.9188 16.5,-784.9188 16.5,-748.9188 333.5,-748.9188 333.5,-784.9188"/>
<text text-anchor="middle" x="175" y="-761.9188" font-family="Times,serif" font-size="20.00" fill="#000000">Cross&#45;Origin&#45;Resource&#45;Policy</text>
</g>
<!-- SG_0_Node_1&#45;&gt;SG_0_Node_2 -->
<g id="edge3" class="edge">
<title>SG_0_Node_1&#45;&gt;SG_0_Node_2</title>
<path fill="none" stroke="#000000" d="M65.2831,-1107.3047C58.7877,-1096.2087 51.3619,-1081.4203 48,-1067.132 23.3655,-962.4356 -10.0858,-915.6541 48,-825.132 58.1126,-809.3723 73.6762,-797.8237 90.4831,-789.3796"/>
<polygon fill="#000000" stroke="#000000" points="92.3232,-792.3843 99.9216,-785.0008 89.3773,-786.0344 92.3232,-792.3843"/>
<text text-anchor="middle" x="293.5" y="-952.132" font-family="Times,serif" font-size="20.00" fill="#000000">ecocnt_audio=duration=1</text>
<text text-anchor="middle" x="293.5" y="-930.132" font-family="Times,serif" font-size="20.00" fill="#000000">ecocnt_vid=width=100,height=100,duration=2</text>
</g>
<!-- SG_0_Node_7 -->
<g id="node5" class="node">
<title>SG_0_Node_7</title>
<ellipse fill="none" stroke="#000000" cx="561" cy="-766.9188" rx="34.7971" ry="21.4286"/>
<text text-anchor="middle" x="561" y="-761.9188" font-family="Times,serif" font-size="20.00" fill="#000000">1.0</text>
</g>
<!-- SG_0_Node_1&#45;&gt;SG_0_Node_7 -->
<g id="edge4" class="edge">
<title>SG_0_Node_1&#45;&gt;SG_0_Node_7</title>
<path fill="none" stroke="#000000" d="M109.1955,-1107.2428C112.1155,-1106.0456 115.0753,-1104.9812 118,-1104.132 208.1918,-1077.9465 473.0748,-1134.0208 539,-1067.132 575.6497,-1029.9467 568.4908,-867.9198 563.5825,-798.5846"/>
<polygon fill="#000000" stroke="#000000" points="567.049,-798.0007 562.8212,-788.2859 560.0681,-798.5168 567.049,-798.0007"/>
<text text-anchor="middle" x="840" y="-1051.132" font-family="Times,serif" font-size="20.00" fill="#000000">[NA]</text>
<text text-anchor="middle" x="840" y="-1029.132" font-family="Times,serif" font-size="20.00" fill="#000000">ecocnt_css=h1 {color: blue}</text>
<text text-anchor="middle" x="840" y="-1007.132" font-family="Times,serif" font-size="20.00" fill="#000000">ecocnt_html=meta_refresh=0;http://172.17.0.1:8000</text>
<text text-anchor="middle" x="840" y="-985.132" font-family="Times,serif" font-size="20.00" fill="#000000">ecocnt_html=num_frames=1,input_id=test1</text>
<text text-anchor="middle" x="840" y="-963.132" font-family="Times,serif" font-size="20.00" fill="#000000">ecocnt_html=num_frames=2</text>
<text text-anchor="middle" x="840" y="-941.132" font-family="Times,serif" font-size="20.00" fill="#000000">ecocnt_html=post_message=mes1</text>
<text text-anchor="middle" x="840" y="-919.132" font-family="Times,serif" font-size="20.00" fill="#000000">ecocnt_img=width=50,height=50,type=png</text>
<text text-anchor="middle" x="840" y="-897.132" font-family="Times,serif" font-size="20.00" fill="#000000">ecocnt_js=.,,.</text>
<text text-anchor="middle" x="840" y="-875.132" font-family="Times,serif" font-size="20.00" fill="#000000">ecocnt_js=var a=5;</text>
<text text-anchor="middle" x="840" y="-853.132" font-family="Times,serif" font-size="20.00" fill="#000000">ecocnt_pdf=a=a</text>
<text text-anchor="middle" x="840" y="-831.132" font-family="Times,serif" font-size="20.00" fill="#000000">empty</text>
</g>
<!-- SG_0_Node_3 -->
<g id="node6" class="node">
<title>SG_0_Node_3</title>
<polygon fill="none" stroke="#000000" points="211.5,-624.4924 56.5,-624.4924 56.5,-588.4924 211.5,-588.4924 211.5,-624.4924"/>
<text text-anchor="middle" x="134" y="-601.4924" font-family="Times,serif" font-size="20.00" fill="#000000">Content&#45;Type</text>
</g>
<!-- SG_0_Node_2&#45;&gt;SG_0_Node_3 -->
<g id="edge5" class="edge">
<title>SG_0_Node_2&#45;&gt;SG_0_Node_3</title>
<path fill="none" stroke="#000000" d="M170.3765,-748.8277C163.2711,-721.0255 149.6091,-667.5683 141.2002,-634.6655"/>
<polygon fill="#000000" stroke="#000000" points="144.5367,-633.5855 138.6695,-624.7636 137.7547,-635.3188 144.5367,-633.5855"/>
<text text-anchor="middle" x="191" y="-692.7056" font-family="Times,serif" font-size="20.00" fill="#000000">[NA]</text>
<text text-anchor="middle" x="191" y="-670.7056" font-family="Times,serif" font-size="20.00" fill="#000000">empty</text>
</g>
<!-- SG_0_Node_8 -->
<g id="node7" class="node">
<title>SG_0_Node_8</title>
<ellipse fill="none" stroke="#000000" cx="264" cy="-606.4924" rx="34.7971" ry="21.4286"/>
<text text-anchor="middle" x="264" y="-601.4924" font-family="Times,serif" font-size="20.00" fill="#000000">1.0</text>
</g>
<!-- SG_0_Node_2&#45;&gt;SG_0_Node_8 -->
<g id="edge6" class="edge">
<title>SG_0_Node_2&#45;&gt;SG_0_Node_8</title>
<path fill="none" stroke="#000000" d="M194.5845,-748.728C205.3116,-737.9252 218.1782,-723.483 227,-708.7056 240.3845,-686.2855 250.1091,-658.2431 256.2202,-637.2048"/>
<polygon fill="#000000" stroke="#000000" points="259.6131,-638.0677 258.9302,-627.4949 252.8708,-636.1859 259.6131,-638.0677"/>
<text text-anchor="middle" x="308" y="-681.7056" font-family="Times,serif" font-size="20.00" fill="#000000">same&#45;origin</text>
</g>
<!-- SG_0_Node_9 -->
<g id="node8" class="node">
<title>SG_0_Node_9</title>
<ellipse fill="none" stroke="#000000" cx="51" cy="-336.066" rx="34.7971" ry="21.4286"/>
<text text-anchor="middle" x="51" y="-331.066" font-family="Times,serif" font-size="20.00" fill="#000000">0.0</text>
</g>
<!-- SG_0_Node_3&#45;&gt;SG_0_Node_9 -->
<g id="edge7" class="edge">
<title>SG_0_Node_3&#45;&gt;SG_0_Node_9</title>
<path fill="none" stroke="#000000" d="M102.7372,-588.3712C88.6533,-578.4429 73.3416,-564.7852 65,-548.2792 35.4606,-489.8278 40.1342,-410.4977 45.7914,-367.2822"/>
<polygon fill="#000000" stroke="#000000" points="49.2597,-367.7522 47.1922,-357.361 42.3284,-366.7735 49.2597,-367.7522"/>
<text text-anchor="middle" x="176" y="-532.2792" font-family="Times,serif" font-size="20.00" fill="#000000">[NA]</text>
<text text-anchor="middle" x="176" y="-510.2792" font-family="Times,serif" font-size="20.00" fill="#000000">application/javascript</text>
<text text-anchor="middle" x="176" y="-488.2792" font-family="Times,serif" font-size="20.00" fill="#000000">audio/wav</text>
<text text-anchor="middle" x="176" y="-466.2792" font-family="Times,serif" font-size="20.00" fill="#000000">empty</text>
<text text-anchor="middle" x="176" y="-444.2792" font-family="Times,serif" font-size="20.00" fill="#000000">image/png</text>
<text text-anchor="middle" x="176" y="-422.2792" font-family="Times,serif" font-size="20.00" fill="#000000">text/css</text>
<text text-anchor="middle" x="176" y="-400.2792" font-family="Times,serif" font-size="20.00" fill="#000000">video/mp4</text>
</g>
<!-- SG_0_Node_4 -->
<g id="node9" class="node">
<title>SG_0_Node_4</title>
<polygon fill="none" stroke="#000000" points="440,-354.066 178,-354.066 178,-318.066 440,-318.066 440,-354.066"/>
<text text-anchor="middle" x="309" y="-331.066" font-family="Times,serif" font-size="20.00" fill="#000000">X&#45;Content&#45;Type&#45;Options</text>
</g>
<!-- SG_0_Node_3&#45;&gt;SG_0_Node_4 -->
<g id="edge8" class="edge">
<title>SG_0_Node_3&#45;&gt;SG_0_Node_4</title>
<path fill="none" stroke="#000000" d="M201.3561,-588.4581C237.0669,-577.4817 275.8296,-562.8136 287,-548.2792 328.4951,-494.2876 321.738,-408.401 314.632,-364.2732"/>
<polygon fill="#000000" stroke="#000000" points="318.0512,-363.5058 312.894,-354.2508 311.1541,-364.7018 318.0512,-363.5058"/>
<text text-anchor="middle" x="396" y="-477.2792" font-family="Times,serif" font-size="20.00" fill="#000000">application/pdf</text>
<text text-anchor="middle" x="396" y="-455.2792" font-family="Times,serif" font-size="20.00" fill="#000000">text/html</text>
</g>
<!-- SG_0_Node_5 -->
<g id="node10" class="node">
<title>SG_0_Node_5</title>
<polygon fill="none" stroke="#000000" points="289.5,-193.6396 134.5,-193.6396 134.5,-157.6396 289.5,-157.6396 289.5,-193.6396"/>
<text text-anchor="middle" x="212" y="-170.6396" font-family="Times,serif" font-size="20.00" fill="#000000">Content&#45;Type</text>
</g>
<!-- SG_0_Node_4&#45;&gt;SG_0_Node_5 -->
<g id="edge9" class="edge">
<title>SG_0_Node_4&#45;&gt;SG_0_Node_5</title>
<path fill="none" stroke="#000000" d="M288.0358,-318.0129C276.5246,-307.2546 262.667,-292.8109 253,-277.8528 238.0169,-254.6689 226.8934,-225.1252 220.0416,-203.769"/>
<polygon fill="#000000" stroke="#000000" points="223.3209,-202.5262 217.0229,-194.0064 216.6333,-204.5941 223.3209,-202.5262"/>
<text text-anchor="middle" x="285" y="-250.8528" font-family="Times,serif" font-size="20.00" fill="#000000">empty</text>
</g>
<!-- SG_0_Node_10 -->
<g id="node11" class="node">
<title>SG_0_Node_10</title>
<ellipse fill="none" stroke="#000000" cx="342" cy="-175.6396" rx="34.7971" ry="21.4286"/>
<text text-anchor="middle" x="342" y="-170.6396" font-family="Times,serif" font-size="20.00" fill="#000000">1.0</text>
</g>
<!-- SG_0_Node_4&#45;&gt;SG_0_Node_10 -->
<g id="edge10" class="edge">
<title>SG_0_Node_4&#45;&gt;SG_0_Node_10</title>
<path fill="none" stroke="#000000" d="M312.7214,-317.9749C318.273,-290.986 328.7977,-239.8213 335.6001,-206.752"/>
<polygon fill="#000000" stroke="#000000" points="339.0802,-207.2048 337.6669,-196.7046 332.2238,-205.7944 339.0802,-207.2048"/>
<text text-anchor="middle" x="364" y="-261.8528" font-family="Times,serif" font-size="20.00" fill="#000000">[NA]</text>
<text text-anchor="middle" x="364" y="-239.8528" font-family="Times,serif" font-size="20.00" fill="#000000">nosniff</text>
</g>
<!-- SG_0_Node_11 -->
<g id="node12" class="node">
<title>SG_0_Node_11</title>
<ellipse fill="none" stroke="#000000" cx="115" cy="-37.2132" rx="34.7971" ry="21.4286"/>
<text text-anchor="middle" x="115" y="-32.2132" font-family="Times,serif" font-size="20.00" fill="#000000">0.0</text>
</g>
<!-- SG_0_Node_5&#45;&gt;SG_0_Node_11 -->
<g id="edge11" class="edge">
<title>SG_0_Node_5&#45;&gt;SG_0_Node_11</title>
<path fill="none" stroke="#000000" d="M173.0973,-157.5681C156.6287,-147.9496 138.7909,-134.5345 128,-117.4264 118.9496,-103.0778 115.5333,-84.5106 114.455,-68.8538"/>
<polygon fill="#000000" stroke="#000000" points="117.9404,-68.4184 114.0415,-58.5671 110.9461,-68.6997 117.9404,-68.4184"/>
<text text-anchor="middle" x="175" y="-101.4264" font-family="Times,serif" font-size="20.00" fill="#000000">text/html</text>
</g>
<!-- SG_0_Node_12 -->
<g id="node13" class="node">
<title>SG_0_Node_12</title>
<ellipse fill="none" stroke="#000000" cx="245" cy="-37.2132" rx="34.7971" ry="21.4286"/>
<text text-anchor="middle" x="245" y="-32.2132" font-family="Times,serif" font-size="20.00" fill="#000000">1.0</text>
</g>
<!-- SG_0_Node_5&#45;&gt;SG_0_Node_12 -->
<g id="edge12" class="edge">
<title>SG_0_Node_5&#45;&gt;SG_0_Node_12</title>
<path fill="none" stroke="#000000" d="M216.3142,-157.5428C221.7053,-134.9285 231.0178,-95.8649 237.5667,-68.3941"/>
<polygon fill="#000000" stroke="#000000" points="241.0129,-69.0308 239.9273,-58.4917 234.2037,-67.4075 241.0129,-69.0308"/>
<text text-anchor="middle" x="307" y="-101.4264" font-family="Times,serif" font-size="20.00" fill="#000000">application/pdf</text>
</g>
<!-- SG_1_Node_0 -->
<g id="node14" class="node">
<title>SG_1_Node_0</title>
<polygon fill="none" stroke="#000000" points="1318,-1300.5584 1176,-1300.5584 1176,-1264.5584 1318,-1264.5584 1318,-1300.5584"/>
<text text-anchor="middle" x="1247" y="-1277.5584" font-family="Times,serif" font-size="20.00" fill="#000000">Status&#45;Code</text>
</g>
<!-- SG_1_Node_6 -->
<g id="node15" class="node">
<title>SG_1_Node_6</title>
<ellipse fill="none" stroke="#000000" cx="1166" cy="-1125.3452" rx="34.7971" ry="21.4286"/>
<text text-anchor="middle" x="1166" y="-1120.3452" font-family="Times,serif" font-size="20.00" fill="#000000">0.0</text>
</g>
<!-- SG_1_Node_0&#45;&gt;SG_1_Node_6 -->
<g id="edge13" class="edge">
<title>SG_1_Node_0&#45;&gt;SG_1_Node_6</title>
<path fill="none" stroke="#000000" d="M1204.8484,-1264.4374C1189.7712,-1255.6465 1174.4343,-1243.4803 1166,-1227.5584 1154.5591,-1205.9608 1155.4288,-1178.0166 1158.6743,-1156.8064"/>
<polygon fill="#000000" stroke="#000000" points="1162.1673,-1157.1545 1160.4748,-1146.6957 1155.2758,-1155.9272 1162.1673,-1157.1545"/>
<text text-anchor="middle" x="1212" y="-1211.5584" font-family="Times,serif" font-size="20.00" fill="#000000">[NA]</text>
<text text-anchor="middle" x="1212" y="-1189.5584" font-family="Times,serif" font-size="20.00" fill="#000000">62 levels</text>
</g>
<!-- SG_1_Node_1 -->
<g id="node16" class="node">
<title>SG_1_Node_1</title>
<polygon fill="none" stroke="#000000" points="1324.5,-1143.3452 1259.5,-1143.3452 1259.5,-1107.3452 1324.5,-1107.3452 1324.5,-1143.3452"/>
<text text-anchor="middle" x="1292" y="-1120.3452" font-family="Times,serif" font-size="20.00" fill="#000000">body</text>
</g>
<!-- SG_1_Node_0&#45;&gt;SG_1_Node_1 -->
<g id="edge14" class="edge">
<title>SG_1_Node_0&#45;&gt;SG_1_Node_1</title>
<path fill="none" stroke="#000000" d="M1252.1621,-1264.5241C1259.9531,-1237.3053 1274.7813,-1185.5008 1283.985,-1153.3467"/>
<polygon fill="#000000" stroke="#000000" points="1287.3725,-1154.2306 1286.7595,-1143.6535 1280.6427,-1152.3043 1287.3725,-1154.2306"/>
<text text-anchor="middle" x="1294.5" y="-1200.5584" font-family="Times,serif" font-size="20.00" fill="#000000">200</text>
</g>
<!-- SG_1_Node_7 -->
<g id="node17" class="node">
<title>SG_1_Node_7</title>
<ellipse fill="none" stroke="#000000" cx="1166" cy="-766.9188" rx="34.7971" ry="21.4286"/>
<text text-anchor="middle" x="1166" y="-761.9188" font-family="Times,serif" font-size="20.00" fill="#000000">0.0</text>
</g>
<!-- SG_1_Node_1&#45;&gt;SG_1_Node_7 -->
<g id="edge15" class="edge">
<title>SG_1_Node_1&#45;&gt;SG_1_Node_7</title>
<path fill="none" stroke="#000000" d="M1259.2939,-1118.4375C1232.1978,-1110.8304 1195.2778,-1095.6849 1177,-1067.132 1122.9986,-982.7732 1143.8286,-856.0311 1157.6061,-797.9712"/>
<polygon fill="#000000" stroke="#000000" points="1161.0799,-798.5024 1160.0769,-787.9551 1154.2836,-796.8258 1161.0799,-798.5024"/>
<text text-anchor="middle" x="1223" y="-952.132" font-family="Times,serif" font-size="20.00" fill="#000000">[NA]</text>
<text text-anchor="middle" x="1223" y="-930.132" font-family="Times,serif" font-size="20.00" fill="#000000">11 levels</text>
</g>
<!-- SG_1_Node_2 -->
<g id="node18" class="node">
<title>SG_1_Node_2</title>
<polygon fill="none" stroke="#000000" points="1535.5,-784.9188 1218.5,-784.9188 1218.5,-748.9188 1535.5,-748.9188 1535.5,-784.9188"/>
<text text-anchor="middle" x="1377" y="-761.9188" font-family="Times,serif" font-size="20.00" fill="#000000">Cross&#45;Origin&#45;Resource&#45;Policy</text>
</g>
<!-- SG_1_Node_1&#45;&gt;SG_1_Node_2 -->
<g id="edge16" class="edge">
<title>SG_1_Node_1&#45;&gt;SG_1_Node_2</title>
<path fill="none" stroke="#000000" d="M1287.7889,-1107.1467C1277.4792,-1058.2937 1255.2166,-921.4588 1304,-825.132 1310.9026,-811.5024 1322.6173,-800.0182 1334.6654,-790.947"/>
<polygon fill="#000000" stroke="#000000" points="1336.8565,-793.6844 1343.0045,-785.0558 1332.8175,-787.9672 1336.8565,-793.6844"/>
<text text-anchor="middle" x="1438.5" y="-941.132" font-family="Times,serif" font-size="20.00" fill="#000000">ecocnt_audio=duration=1</text>
</g>
<!-- SG_1_Node_8 -->
<g id="node19" class="node">
<title>SG_1_Node_8</title>
<ellipse fill="none" stroke="#000000" cx="1210" cy="-606.4924" rx="34.7971" ry="21.4286"/>
<text text-anchor="middle" x="1210" y="-601.4924" font-family="Times,serif" font-size="20.00" fill="#000000">0.0</text>
</g>
<!-- SG_1_Node_2&#45;&gt;SG_1_Node_8 -->
<g id="edge17" class="edge">
<title>SG_1_Node_2&#45;&gt;SG_1_Node_8</title>
<path fill="none" stroke="#000000" d="M1286.8522,-748.8086C1264.3122,-740.1773 1242.2443,-727.4529 1227,-708.7056 1211.0047,-689.0347 1207.4688,-660.043 1207.5217,-637.9555"/>
<polygon fill="#000000" stroke="#000000" points="1211.0263,-637.8289 1207.7971,-627.7382 1204.0288,-637.6403 1211.0263,-637.8289"/>
<text text-anchor="middle" x="1288" y="-681.7056" font-family="Times,serif" font-size="20.00" fill="#000000">same&#45;origin</text>
</g>
<!-- SG_1_Node_3 -->
<g id="node20" class="node">
<title>SG_1_Node_3</title>
<polygon fill="none" stroke="#000000" points="1417.5,-624.4924 1262.5,-624.4924 1262.5,-588.4924 1417.5,-588.4924 1417.5,-624.4924"/>
<text text-anchor="middle" x="1340" y="-601.4924" font-family="Times,serif" font-size="20.00" fill="#000000">Content&#45;Type</text>
</g>
<!-- SG_1_Node_2&#45;&gt;SG_1_Node_3 -->
<g id="edge18" class="edge">
<title>SG_1_Node_2&#45;&gt;SG_1_Node_3</title>
<path fill="none" stroke="#000000" d="M1372.8276,-748.8277C1366.4154,-721.0255 1354.0862,-667.5683 1346.4977,-634.6655"/>
<polygon fill="#000000" stroke="#000000" points="1349.8719,-633.7212 1344.214,-624.7636 1343.0509,-635.2944 1349.8719,-633.7212"/>
<text text-anchor="middle" x="1395" y="-692.7056" font-family="Times,serif" font-size="20.00" fill="#000000">[NA]</text>
<text text-anchor="middle" x="1395" y="-670.7056" font-family="Times,serif" font-size="20.00" fill="#000000">empty</text>
</g>
<!-- SG_1_Node_4 -->
<g id="node21" class="node">
<title>SG_1_Node_4</title>
<polygon fill="none" stroke="#000000" points="1393,-354.066 1131,-354.066 1131,-318.066 1393,-318.066 1393,-354.066"/>
<text text-anchor="middle" x="1262" y="-331.066" font-family="Times,serif" font-size="20.00" fill="#000000">X&#45;Content&#45;Type&#45;Options</text>
</g>
<!-- SG_1_Node_3&#45;&gt;SG_1_Node_4 -->
<g id="edge19" class="edge">
<title>SG_1_Node_3&#45;&gt;SG_1_Node_4</title>
<path fill="none" stroke="#000000" d="M1272.4169,-588.37C1225.3621,-575.0725 1169.8518,-557.7456 1163,-548.2792 1122.8687,-492.8345 1129.0139,-453.6896 1163,-394.2792 1171.6487,-379.1607 1185.9224,-367.5817 1200.9753,-358.887"/>
<polygon fill="#000000" stroke="#000000" points="1202.7394,-361.9125 1209.8916,-354.0961 1199.4261,-355.7462 1202.7394,-361.9125"/>
<text text-anchor="middle" x="1240" y="-477.2792" font-family="Times,serif" font-size="20.00" fill="#000000">application/pdf</text>
<text text-anchor="middle" x="1240" y="-455.2792" font-family="Times,serif" font-size="20.00" fill="#000000">text/html</text>
</g>
<!-- SG_1_Node_9 -->
<g id="node22" class="node">
<title>SG_1_Node_9</title>
<ellipse fill="none" stroke="#000000" cx="1446" cy="-336.066" rx="34.7971" ry="21.4286"/>
<text text-anchor="middle" x="1446" y="-331.066" font-family="Times,serif" font-size="20.00" fill="#000000">1.0</text>
</g>
<!-- SG_1_Node_3&#45;&gt;SG_1_Node_9 -->
<g id="edge20" class="edge">
<title>SG_1_Node_3&#45;&gt;SG_1_Node_9</title>
<path fill="none" stroke="#000000" d="M1335.6894,-588.4179C1327.5042,-549.6765 1313.6692,-457.0659 1351,-394.2792 1357.8944,-382.6836 1385.4788,-366.442 1409.1601,-354.0597"/>
<polygon fill="#000000" stroke="#000000" points="1411.0299,-357.0341 1418.3268,-349.3526 1407.8323,-350.8071 1411.0299,-357.0341"/>
<text text-anchor="middle" x="1462" y="-532.2792" font-family="Times,serif" font-size="20.00" fill="#000000">[NA]</text>
<text text-anchor="middle" x="1462" y="-510.2792" font-family="Times,serif" font-size="20.00" fill="#000000">application/javascript</text>
<text text-anchor="middle" x="1462" y="-488.2792" font-family="Times,serif" font-size="20.00" fill="#000000">audio/wav</text>
<text text-anchor="middle" x="1462" y="-466.2792" font-family="Times,serif" font-size="20.00" fill="#000000">empty</text>
<text text-anchor="middle" x="1462" y="-444.2792" font-family="Times,serif" font-size="20.00" fill="#000000">image/png</text>
<text text-anchor="middle" x="1462" y="-422.2792" font-family="Times,serif" font-size="20.00" fill="#000000">text/css</text>
<text text-anchor="middle" x="1462" y="-400.2792" font-family="Times,serif" font-size="20.00" fill="#000000">video/mp4</text>
</g>
<!-- SG_1_Node_10 -->
<g id="node23" class="node">
<title>SG_1_Node_10</title>
<ellipse fill="none" stroke="#000000" cx="1196" cy="-175.6396" rx="34.7971" ry="21.4286"/>
<text text-anchor="middle" x="1196" y="-170.6396" font-family="Times,serif" font-size="20.00" fill="#000000">0.0</text>
</g>
<!-- SG_1_Node_4&#45;&gt;SG_1_Node_10 -->
<g id="edge21" class="edge">
<title>SG_1_Node_4&#45;&gt;SG_1_Node_10</title>
<path fill="none" stroke="#000000" d="M1241.1348,-317.915C1230.3653,-307.3377 1218.0409,-293.1012 1211,-277.8528 1200.7557,-255.6668 1197.167,-228.1433 1196.0512,-207.2484"/>
<polygon fill="#000000" stroke="#000000" points="1199.539,-206.8527 1195.6709,-196.9893 1192.5438,-207.1121 1199.539,-206.8527"/>
<text text-anchor="middle" x="1246" y="-250.8528" font-family="Times,serif" font-size="20.00" fill="#000000">nosniff</text>
</g>
<!-- SG_1_Node_5 -->
<g id="node24" class="node">
<title>SG_1_Node_5</title>
<polygon fill="none" stroke="#000000" points="1403.5,-193.6396 1248.5,-193.6396 1248.5,-157.6396 1403.5,-157.6396 1403.5,-193.6396"/>
<text text-anchor="middle" x="1326" y="-170.6396" font-family="Times,serif" font-size="20.00" fill="#000000">Content&#45;Type</text>
</g>
<!-- SG_1_Node_4&#45;&gt;SG_1_Node_5 -->
<g id="edge22" class="edge">
<title>SG_1_Node_4&#45;&gt;SG_1_Node_5</title>
<path fill="none" stroke="#000000" d="M1269.2172,-317.9749C1280.3566,-290.0523 1301.8194,-236.2521 1314.9307,-203.3865"/>
<polygon fill="#000000" stroke="#000000" points="1318.2564,-204.4958 1318.711,-193.9107 1311.7547,-201.902 1318.2564,-204.4958"/>
<text text-anchor="middle" x="1334" y="-261.8528" font-family="Times,serif" font-size="20.00" fill="#000000">[NA]</text>
<text text-anchor="middle" x="1334" y="-239.8528" font-family="Times,serif" font-size="20.00" fill="#000000">empty</text>
</g>
<!-- SG_1_Node_11 -->
<g id="node25" class="node">
<title>SG_1_Node_11</title>
<ellipse fill="none" stroke="#000000" cx="1221" cy="-37.2132" rx="34.7971" ry="21.4286"/>
<text text-anchor="middle" x="1221" y="-32.2132" font-family="Times,serif" font-size="20.00" fill="#000000">0.0</text>
</g>
<!-- SG_1_Node_5&#45;&gt;SG_1_Node_11 -->
<g id="edge23" class="edge">
<title>SG_1_Node_5&#45;&gt;SG_1_Node_11</title>
<path fill="none" stroke="#000000" d="M1269.1612,-157.5419C1250.4656,-148.5805 1231.7367,-135.6554 1221,-117.4264 1212.444,-102.8998 1211.9802,-84.174 1213.8685,-68.4693"/>
<polygon fill="#000000" stroke="#000000" points="1217.3923,-68.5892 1215.481,-58.1682 1210.4765,-67.5065 1217.3923,-68.5892"/>
<text text-anchor="middle" x="1298" y="-101.4264" font-family="Times,serif" font-size="20.00" fill="#000000">application/pdf</text>
</g>
<!-- SG_1_Node_12 -->
<g id="node26" class="node">
<title>SG_1_Node_12</title>
<ellipse fill="none" stroke="#000000" cx="1411" cy="-37.2132" rx="34.7971" ry="21.4286"/>
<text text-anchor="middle" x="1411" y="-32.2132" font-family="Times,serif" font-size="20.00" fill="#000000">1.0</text>
</g>
<!-- SG_1_Node_5&#45;&gt;SG_1_Node_12 -->
<g id="edge24" class="edge">
<title>SG_1_Node_5&#45;&gt;SG_1_Node_12</title>
<path fill="none" stroke="#000000" d="M1345.7972,-157.4014C1356.6776,-146.5833 1369.7933,-132.1416 1379,-117.4264 1388.5895,-102.0994 1396.245,-83.4142 1401.6608,-67.9351"/>
<polygon fill="#000000" stroke="#000000" points="1405.0329,-68.8875 1404.8942,-58.2936 1398.3962,-66.6618 1405.0329,-68.8875"/>
<text text-anchor="middle" x="1437" y="-101.4264" font-family="Times,serif" font-size="20.00" fill="#000000">text/html</text>
</g>
<!-- SG_2_Node_0 -->
<g id="node27" class="node">
<title>SG_2_Node_0</title>
<polygon fill="none" stroke="#000000" points="1769,-1300.5584 1627,-1300.5584 1627,-1264.5584 1769,-1264.5584 1769,-1300.5584"/>
<text text-anchor="middle" x="1698" y="-1277.5584" font-family="Times,serif" font-size="20.00" fill="#000000">Status&#45;Code</text>
</g>
<!-- SG_2_Node_6 -->
<g id="node28" class="node">
<title>SG_2_Node_6</title>
<ellipse fill="none" stroke="#000000" cx="1620" cy="-1125.3452" rx="34.7971" ry="21.4286"/>
<text text-anchor="middle" x="1620" y="-1120.3452" font-family="Times,serif" font-size="20.00" fill="#000000">0.0</text>
</g>
<!-- SG_2_Node_0&#45;&gt;SG_2_Node_6 -->
<g id="edge25" class="edge">
<title>SG_2_Node_0&#45;&gt;SG_2_Node_6</title>
<path fill="none" stroke="#000000" d="M1652.926,-1264.3973C1637.4019,-1255.7038 1621.7357,-1243.6159 1613,-1227.5584 1601.1663,-1205.8063 1604.2737,-1177.4839 1609.5713,-1156.1704"/>
<polygon fill="#000000" stroke="#000000" points="1613.0005,-1156.9011 1612.292,-1146.3299 1606.2536,-1155.0356 1613.0005,-1156.9011"/>
<text text-anchor="middle" x="1659" y="-1211.5584" font-family="Times,serif" font-size="20.00" fill="#000000">[NA]</text>
<text text-anchor="middle" x="1659" y="-1189.5584" font-family="Times,serif" font-size="20.00" fill="#000000">62 levels</text>
</g>
<!-- SG_2_Node_1 -->
<g id="node29" class="node">
<title>SG_2_Node_1</title>
<polygon fill="none" stroke="#000000" points="1763.5,-1143.3452 1698.5,-1143.3452 1698.5,-1107.3452 1763.5,-1107.3452 1763.5,-1143.3452"/>
<text text-anchor="middle" x="1731" y="-1120.3452" font-family="Times,serif" font-size="20.00" fill="#000000">body</text>
</g>
<!-- SG_2_Node_0&#45;&gt;SG_2_Node_1 -->
<g id="edge26" class="edge">
<title>SG_2_Node_0&#45;&gt;SG_2_Node_1</title>
<path fill="none" stroke="#000000" d="M1701.7855,-1264.5241C1707.4742,-1237.4231 1718.2789,-1185.9489 1725.0344,-1153.7653"/>
<polygon fill="#000000" stroke="#000000" points="1728.528,-1154.1593 1727.157,-1143.6535 1721.6773,-1152.7212 1728.528,-1154.1593"/>
<text text-anchor="middle" x="1737.5" y="-1200.5584" font-family="Times,serif" font-size="20.00" fill="#000000">200</text>
</g>
<!-- SG_2_Node_7 -->
<g id="node30" class="node">
<title>SG_2_Node_7</title>
<ellipse fill="none" stroke="#000000" cx="1620" cy="-766.9188" rx="34.7971" ry="21.4286"/>
<text text-anchor="middle" x="1620" y="-761.9188" font-family="Times,serif" font-size="20.00" fill="#000000">0.0</text>
</g>
<!-- SG_2_Node_1&#45;&gt;SG_2_Node_7 -->
<g id="edge27" class="edge">
<title>SG_2_Node_1&#45;&gt;SG_2_Node_7</title>
<path fill="none" stroke="#000000" d="M1698.4157,-1110.0673C1681.346,-1100.2842 1661.7974,-1085.889 1651,-1067.132 1601.0438,-980.3491 1608.3974,-855.834 1615.3357,-798.2829"/>
<polygon fill="#000000" stroke="#000000" points="1618.8102,-798.7047 1616.6125,-788.3403 1611.8672,-797.8131 1618.8102,-798.7047"/>
<text text-anchor="middle" x="1697" y="-952.132" font-family="Times,serif" font-size="20.00" fill="#000000">[NA]</text>
<text text-anchor="middle" x="1697" y="-930.132" font-family="Times,serif" font-size="20.00" fill="#000000">11 levels</text>
</g>
<!-- SG_2_Node_2 -->
<g id="node31" class="node">
<title>SG_2_Node_2</title>
<polygon fill="none" stroke="#000000" points="1989.5,-784.9188 1672.5,-784.9188 1672.5,-748.9188 1989.5,-748.9188 1989.5,-784.9188"/>
<text text-anchor="middle" x="1831" y="-761.9188" font-family="Times,serif" font-size="20.00" fill="#000000">Cross&#45;Origin&#45;Resource&#45;Policy</text>
</g>
<!-- SG_2_Node_1&#45;&gt;SG_2_Node_2 -->
<g id="edge28" class="edge">
<title>SG_2_Node_1&#45;&gt;SG_2_Node_2</title>
<path fill="none" stroke="#000000" d="M1736.0965,-1107.0781C1752.4131,-1048.5951 1803.4441,-865.6865 1823.1376,-795.0999"/>
<polygon fill="#000000" stroke="#000000" points="1826.5976,-795.722 1825.9138,-785.1492 1819.8551,-793.8408 1826.5976,-795.722"/>
<text text-anchor="middle" x="2059.5" y="-941.132" font-family="Times,serif" font-size="20.00" fill="#000000">ecocnt_vid=width=100,height=100,duration=2</text>
</g>
<!-- SG_2_Node_8 -->
<g id="node32" class="node">
<title>SG_2_Node_8</title>
<ellipse fill="none" stroke="#000000" cx="1713" cy="-606.4924" rx="34.7971" ry="21.4286"/>
<text text-anchor="middle" x="1713" y="-601.4924" font-family="Times,serif" font-size="20.00" fill="#000000">0.0</text>
</g>
<!-- SG_2_Node_2&#45;&gt;SG_2_Node_8 -->
<g id="edge29" class="edge">
<title>SG_2_Node_2&#45;&gt;SG_2_Node_8</title>
<path fill="none" stroke="#000000" d="M1770.1955,-748.9002C1750.6156,-740.0005 1730.9185,-727.0952 1719,-708.7056 1705.4574,-687.8103 1704.9389,-659.1787 1707.2461,-637.5333"/>
<polygon fill="#000000" stroke="#000000" points="1710.7274,-637.9041 1708.561,-627.5331 1703.7871,-636.9915 1710.7274,-637.9041"/>
<text text-anchor="middle" x="1780" y="-681.7056" font-family="Times,serif" font-size="20.00" fill="#000000">same&#45;origin</text>
</g>
<!-- SG_2_Node_3 -->
<g id="node33" class="node">
<title>SG_2_Node_3</title>
<polygon fill="none" stroke="#000000" points="1948.5,-624.4924 1793.5,-624.4924 1793.5,-588.4924 1948.5,-588.4924 1948.5,-624.4924"/>
<text text-anchor="middle" x="1871" y="-601.4924" font-family="Times,serif" font-size="20.00" fill="#000000">Content&#45;Type</text>
</g>
<!-- SG_2_Node_2&#45;&gt;SG_2_Node_3 -->
<g id="edge30" class="edge">
<title>SG_2_Node_2&#45;&gt;SG_2_Node_3</title>
<path fill="none" stroke="#000000" d="M1835.5108,-748.8277C1842.4428,-721.0255 1855.7716,-667.5683 1863.9755,-634.6655"/>
<polygon fill="#000000" stroke="#000000" points="1867.421,-635.3133 1866.4444,-624.7636 1860.629,-633.6197 1867.421,-635.3133"/>
<text text-anchor="middle" x="1888" y="-692.7056" font-family="Times,serif" font-size="20.00" fill="#000000">[NA]</text>
<text text-anchor="middle" x="1888" y="-670.7056" font-family="Times,serif" font-size="20.00" fill="#000000">empty</text>
</g>
<!-- SG_2_Node_4 -->
<g id="node34" class="node">
<title>SG_2_Node_4</title>
<polygon fill="none" stroke="#000000" points="1852,-354.066 1590,-354.066 1590,-318.066 1852,-318.066 1852,-354.066"/>
<text text-anchor="middle" x="1721" y="-331.066" font-family="Times,serif" font-size="20.00" fill="#000000">X&#45;Content&#45;Type&#45;Options</text>
</g>
<!-- SG_2_Node_3&#45;&gt;SG_2_Node_4 -->
<g id="edge31" class="edge">
<title>SG_2_Node_3&#45;&gt;SG_2_Node_4</title>
<path fill="none" stroke="#000000" d="M1803.5742,-588.4499C1768.599,-577.5846 1731.099,-563.0313 1721,-548.2792 1682.7543,-492.4116 1699.4173,-407.3994 1711.8654,-363.8734"/>
<polygon fill="#000000" stroke="#000000" points="1715.2339,-364.8251 1714.7475,-354.2414 1708.5277,-362.8184 1715.2339,-364.8251"/>
<text text-anchor="middle" x="1798" y="-477.2792" font-family="Times,serif" font-size="20.00" fill="#000000">application/pdf</text>
<text text-anchor="middle" x="1798" y="-455.2792" font-family="Times,serif" font-size="20.00" fill="#000000">text/html</text>
</g>
<!-- SG_2_Node_9 -->
<g id="node35" class="node">
<title>SG_2_Node_9</title>
<ellipse fill="none" stroke="#000000" cx="1911" cy="-336.066" rx="34.7971" ry="21.4286"/>
<text text-anchor="middle" x="1911" y="-331.066" font-family="Times,serif" font-size="20.00" fill="#000000">1.0</text>
</g>
<!-- SG_2_Node_3&#45;&gt;SG_2_Node_9 -->
<g id="edge32" class="edge">
<title>SG_2_Node_3&#45;&gt;SG_2_Node_9</title>
<path fill="none" stroke="#000000" d="M1873.6866,-588.3291C1880.3842,-543.0489 1897.888,-424.7118 1906.3228,-367.6871"/>
<polygon fill="#000000" stroke="#000000" points="1909.8343,-367.8661 1907.8353,-357.4615 1902.9097,-366.8418 1909.8343,-367.8661"/>
<text text-anchor="middle" x="2013" y="-532.2792" font-family="Times,serif" font-size="20.00" fill="#000000">[NA]</text>
<text text-anchor="middle" x="2013" y="-510.2792" font-family="Times,serif" font-size="20.00" fill="#000000">application/javascript</text>
<text text-anchor="middle" x="2013" y="-488.2792" font-family="Times,serif" font-size="20.00" fill="#000000">audio/wav</text>
<text text-anchor="middle" x="2013" y="-466.2792" font-family="Times,serif" font-size="20.00" fill="#000000">empty</text>
<text text-anchor="middle" x="2013" y="-444.2792" font-family="Times,serif" font-size="20.00" fill="#000000">image/png</text>
<text text-anchor="middle" x="2013" y="-422.2792" font-family="Times,serif" font-size="20.00" fill="#000000">text/css</text>
<text text-anchor="middle" x="2013" y="-400.2792" font-family="Times,serif" font-size="20.00" fill="#000000">video/mp4</text>
</g>
<!-- SG_2_Node_10 -->
<g id="node36" class="node">
<title>SG_2_Node_10</title>
<ellipse fill="none" stroke="#000000" cx="1650" cy="-175.6396" rx="34.7971" ry="21.4286"/>
<text text-anchor="middle" x="1650" y="-170.6396" font-family="Times,serif" font-size="20.00" fill="#000000">0.0</text>
</g>
<!-- SG_2_Node_4&#45;&gt;SG_2_Node_10 -->
<g id="edge33" class="edge">
<title>SG_2_Node_4&#45;&gt;SG_2_Node_10</title>
<path fill="none" stroke="#000000" d="M1699.4839,-317.9835C1688.3427,-307.427 1675.5301,-293.1885 1668,-277.8528 1657.1299,-255.7149 1652.7379,-228.0301 1651.0042,-207.0586"/>
<polygon fill="#000000" stroke="#000000" points="1654.4953,-206.8069 1650.3347,-197.0632 1647.5109,-207.2747 1654.4953,-206.8069"/>
<text text-anchor="middle" x="1703" y="-250.8528" font-family="Times,serif" font-size="20.00" fill="#000000">nosniff</text>
</g>
<!-- SG_2_Node_5 -->
<g id="node37" class="node">
<title>SG_2_Node_5</title>
<polygon fill="none" stroke="#000000" points="1857.5,-193.6396 1702.5,-193.6396 1702.5,-157.6396 1857.5,-157.6396 1857.5,-193.6396"/>
<text text-anchor="middle" x="1780" y="-170.6396" font-family="Times,serif" font-size="20.00" fill="#000000">Content&#45;Type</text>
</g>
<!-- SG_2_Node_4&#45;&gt;SG_2_Node_5 -->
<g id="edge34" class="edge">
<title>SG_2_Node_4&#45;&gt;SG_2_Node_5</title>
<path fill="none" stroke="#000000" d="M1727.6534,-317.9749C1737.9224,-290.0523 1757.7085,-236.2521 1769.7955,-203.3865"/>
<polygon fill="#000000" stroke="#000000" points="1773.1136,-204.5043 1773.2804,-193.9107 1766.5438,-202.088 1773.1136,-204.5043"/>
<text text-anchor="middle" x="1790" y="-261.8528" font-family="Times,serif" font-size="20.00" fill="#000000">[NA]</text>
<text text-anchor="middle" x="1790" y="-239.8528" font-family="Times,serif" font-size="20.00" fill="#000000">empty</text>
</g>
<!-- SG_2_Node_11 -->
<g id="node38" class="node">
<title>SG_2_Node_11</title>
<ellipse fill="none" stroke="#000000" cx="1700" cy="-37.2132" rx="34.7971" ry="21.4286"/>
<text text-anchor="middle" x="1700" y="-32.2132" font-family="Times,serif" font-size="20.00" fill="#000000">0.0</text>
</g>
<!-- SG_2_Node_5&#45;&gt;SG_2_Node_11 -->
<g id="edge35" class="edge">
<title>SG_2_Node_5&#45;&gt;SG_2_Node_11</title>
<path fill="none" stroke="#000000" d="M1751.8303,-157.6053C1738.27,-147.4445 1723.0314,-133.5573 1714,-117.4264 1705.7516,-102.6941 1702.1525,-84.2485 1700.6597,-68.7612"/>
<polygon fill="#000000" stroke="#000000" points="1704.1371,-68.3184 1699.9316,-58.5939 1697.155,-68.8185 1704.1371,-68.3184"/>
<text text-anchor="middle" x="1791" y="-101.4264" font-family="Times,serif" font-size="20.00" fill="#000000">application/pdf</text>
</g>
<!-- SG_2_Node_12 -->
<g id="node39" class="node">
<title>SG_2_Node_12</title>
<ellipse fill="none" stroke="#000000" cx="1890" cy="-37.2132" rx="34.7971" ry="21.4286"/>
<text text-anchor="middle" x="1890" y="-32.2132" font-family="Times,serif" font-size="20.00" fill="#000000">1.0</text>
</g>
<!-- SG_2_Node_5&#45;&gt;SG_2_Node_12 -->
<g id="edge36" class="edge">
<title>SG_2_Node_5&#45;&gt;SG_2_Node_12</title>
<path fill="none" stroke="#000000" d="M1819.4314,-157.6387C1836.6264,-147.9647 1855.6399,-134.4849 1868,-117.4264 1878.3558,-103.1341 1883.838,-84.2043 1886.7396,-68.3234"/>
<polygon fill="#000000" stroke="#000000" points="1890.203,-68.8294 1888.299,-58.4071 1883.2879,-67.7419 1890.203,-68.8294"/>
<text text-anchor="middle" x="1926" y="-101.4264" font-family="Times,serif" font-size="20.00" fill="#000000">text/html</text>
</g>
</g>
</svg>
