<?xml version="1.0" encoding="UTF-8" standalone="no"?>
<!DOCTYPE svg PUBLIC "-//W3C//DTD SVG 1.1//EN"
 "http://www.w3.org/Graphics/SVG/1.1/DTD/svg11.dtd">
<!-- Generated by graphviz version 2.40.1 (20161225.0304)
 -->
<!-- Title: G Pages: 1 -->
<svg width="1304pt" height="1553pt"
 viewBox="0.00 0.00 1303.79 1552.56" xmlns="http://www.w3.org/2000/svg" xmlns:xlink="http://www.w3.org/1999/xlink">
<g id="graph0" class="graph" transform="scale(1 1) rotate(0) translate(4 1548.5584)">
<title>G</title>
<polygon fill="#ffffff" stroke="transparent" points="-4,4 -4,-1548.5584 1299.7859,-1548.5584 1299.7859,4 -4,4"/>
<g id="clust1" class="cluster">
<title>cluster_0</title>
<polygon fill="none" stroke="#000000" points="9.7859,-8 9.7859,-1536.5584 1152.7859,-1536.5584 1152.7859,-8 9.7859,-8"/>
<text text-anchor="middle" x="581.2859" y="-1500.5584" font-family="Times,serif" font-size="40.00" fill="#000000">Tree 0, Class 1</text>
</g>
<!-- SG_0_Node_0 -->
<g id="node1" class="node">
<title>SG_0_Node_0</title>
<polygon fill="none" stroke="#000000" points="596.7859,-1476.5584 454.7859,-1476.5584 454.7859,-1440.5584 596.7859,-1440.5584 596.7859,-1476.5584"/>
<text text-anchor="middle" x="525.7859" y="-1453.5584" font-family="Times,serif" font-size="20.00" fill="#000000">Status&#45;Code</text>
</g>
<!-- SG_0_Node_12 -->
<g id="node2" class="node">
<title>SG_0_Node_12</title>
<ellipse fill="none" stroke="#000000" cx="461.7859" cy="-1301.3452" rx="34.7971" ry="21.4286"/>
<text text-anchor="middle" x="461.7859" y="-1296.3452" font-family="Times,serif" font-size="20.00" fill="#000000">0.0</text>
</g>
<!-- SG_0_Node_0&#45;&gt;SG_0_Node_12 -->
<g id="edge1" class="edge">
<title>SG_0_Node_0&#45;&gt;SG_0_Node_12</title>
<path fill="none" stroke="#000000" d="M503.9938,-1440.363C493.7352,-1430.5508 482.3393,-1417.5889 475.7859,-1403.5584 465.4583,-1381.4477 462.1583,-1353.9193 461.3307,-1333.0034"/>
<polygon fill="#000000" stroke="#000000" points="464.8237,-1332.6507 461.0992,-1322.7322 457.8255,-1332.8085 464.8237,-1332.6507"/>
<text text-anchor="middle" x="521.7859" y="-1387.5584" font-family="Times,serif" font-size="20.00" fill="#000000">[NA]</text>
<text text-anchor="middle" x="521.7859" y="-1365.5584" font-family="Times,serif" font-size="20.00" fill="#000000">62 levels</text>
</g>
<!-- SG_0_Node_1 -->
<g id="node3" class="node">
<title>SG_0_Node_1</title>
<polygon fill="none" stroke="#000000" points="622.2859,-1319.3452 557.2859,-1319.3452 557.2859,-1283.3452 622.2859,-1283.3452 622.2859,-1319.3452"/>
<text text-anchor="middle" x="589.7859" y="-1296.3452" font-family="Times,serif" font-size="20.00" fill="#000000">body</text>
</g>
<!-- SG_0_Node_0&#45;&gt;SG_0_Node_1 -->
<g id="edge2" class="edge">
<title>SG_0_Node_0&#45;&gt;SG_0_Node_1</title>
<path fill="none" stroke="#000000" d="M543.2161,-1440.0669C551.8214,-1429.9839 561.6478,-1416.8688 567.7859,-1403.5584 578.7104,-1379.8686 584.3026,-1350.5631 587.1066,-1329.4136"/>
<polygon fill="#000000" stroke="#000000" points="590.5847,-1329.8046 588.3012,-1319.4588 583.6345,-1328.9704 590.5847,-1329.8046"/>
<text text-anchor="middle" x="601.2859" y="-1376.5584" font-family="Times,serif" font-size="20.00" fill="#000000">200</text>
</g>
<!-- SG_0_Node_2 -->
<g id="node4" class="node">
<title>SG_0_Node_2</title>
<polygon fill="none" stroke="#000000" points="558.2859,-1162.132 493.2859,-1162.132 493.2859,-1126.132 558.2859,-1126.132 558.2859,-1162.132"/>
<text text-anchor="middle" x="525.7859" y="-1139.132" font-family="Times,serif" font-size="20.00" fill="#000000">body</text>
</g>
<!-- SG_0_Node_1&#45;&gt;SG_0_Node_2 -->
<g id="edge3" class="edge">
<title>SG_0_Node_1&#45;&gt;SG_0_Node_2</title>
<path fill="none" stroke="#000000" d="M569.302,-1283.1337C558.7352,-1272.5381 546.6533,-1258.3034 539.7859,-1243.132 529.6527,-1220.7462 526.4453,-1192.8464 525.6027,-1172.3755"/>
<polygon fill="#000000" stroke="#000000" points="529.0957,-1172.0443 525.3511,-1162.1333 522.0978,-1172.2162 529.0957,-1172.0443"/>
<text text-anchor="middle" x="585.7859" y="-1227.132" font-family="Times,serif" font-size="20.00" fill="#000000">[NA]</text>
<text text-anchor="middle" x="585.7859" y="-1205.132" font-family="Times,serif" font-size="20.00" fill="#000000">11 levels</text>
</g>
<!-- SG_0_Node_3 -->
<g id="node5" class="node">
<title>SG_0_Node_3</title>
<polygon fill="none" stroke="#000000" points="1081.2859,-1162.132 764.2859,-1162.132 764.2859,-1126.132 1081.2859,-1126.132 1081.2859,-1162.132"/>
<text text-anchor="middle" x="922.7859" y="-1139.132" font-family="Times,serif" font-size="20.00" fill="#000000">Cross&#45;Origin&#45;Resource&#45;Policy</text>
</g>
<!-- SG_0_Node_1&#45;&gt;SG_0_Node_3 -->
<g id="edge4" class="edge">
<title>SG_0_Node_1&#45;&gt;SG_0_Node_3</title>
<path fill="none" stroke="#000000" d="M622.3216,-1285.9847C681.4043,-1258.0911 806.5542,-1199.0064 875.2259,-1166.5857"/>
<polygon fill="#000000" stroke="#000000" points="876.9795,-1169.6283 884.5282,-1162.1939 873.991,-1163.2982 876.9795,-1169.6283"/>
<text text-anchor="middle" x="1050.2859" y="-1216.132" font-family="Times,serif" font-size="20.00" fill="#000000">ecocnt_vid=width=100,height=100,duration=2</text>
</g>
<!-- SG_0_Node_13 -->
<g id="node6" class="node">
<title>SG_0_Node_13</title>
<ellipse fill="none" stroke="#000000" cx="52.7859" cy="-788.9188" rx="34.7971" ry="21.4286"/>
<text text-anchor="middle" x="52.7859" y="-783.9188" font-family="Times,serif" font-size="20.00" fill="#000000">0.0</text>
</g>
<!-- SG_0_Node_2&#45;&gt;SG_0_Node_13 -->
<g id="edge13" class="edge">
<title>SG_0_Node_2&#45;&gt;SG_0_Node_13</title>
<path fill="none" stroke="#000000" d="M493.0111,-1142.9336C388.2096,-1138.7686 66.3104,-1123.2745 35.7859,-1089.132 -32.1101,-1013.1887 13.3792,-878.5887 38.8469,-818.8798"/>
<polygon fill="#000000" stroke="#000000" points="42.0931,-820.1919 42.8911,-809.6271 35.679,-817.3883 42.0931,-820.1919"/>
<text text-anchor="middle" x="308.7859" y="-1073.132" font-family="Times,serif" font-size="20.00" fill="#000000">[NA]</text>
<text text-anchor="middle" x="308.7859" y="-1051.132" font-family="Times,serif" font-size="20.00" fill="#000000">ecocnt_css=h1 {color: blue}</text>
<text text-anchor="middle" x="308.7859" y="-1029.132" font-family="Times,serif" font-size="20.00" fill="#000000">ecocnt_html=meta_refresh=0;http://172.17.0.1:8000</text>
<text text-anchor="middle" x="308.7859" y="-1007.132" font-family="Times,serif" font-size="20.00" fill="#000000">ecocnt_html=num_frames=1,input_id=test1</text>
<text text-anchor="middle" x="308.7859" y="-985.132" font-family="Times,serif" font-size="20.00" fill="#000000">ecocnt_html=num_frames=2</text>
<text text-anchor="middle" x="308.7859" y="-963.132" font-family="Times,serif" font-size="20.00" fill="#000000">ecocnt_html=post_message=mes1</text>
<text text-anchor="middle" x="308.7859" y="-941.132" font-family="Times,serif" font-size="20.00" fill="#000000">ecocnt_img=width=50,height=50,type=png</text>
<text text-anchor="middle" x="308.7859" y="-919.132" font-family="Times,serif" font-size="20.00" fill="#000000">ecocnt_js=.,,.</text>
<text text-anchor="middle" x="308.7859" y="-897.132" font-family="Times,serif" font-size="20.00" fill="#000000">ecocnt_js=var a=5;</text>
<text text-anchor="middle" x="308.7859" y="-875.132" font-family="Times,serif" font-size="20.00" fill="#000000">ecocnt_pdf=a=a</text>
<text text-anchor="middle" x="308.7859" y="-853.132" font-family="Times,serif" font-size="20.00" fill="#000000">empty</text>
</g>
<!-- SG_0_Node_4 -->
<g id="node7" class="node">
<title>SG_0_Node_4</title>
<polygon fill="none" stroke="#000000" points="616.2859,-806.9188 461.2859,-806.9188 461.2859,-770.9188 616.2859,-770.9188 616.2859,-806.9188"/>
<text text-anchor="middle" x="538.7859" y="-783.9188" font-family="Times,serif" font-size="20.00" fill="#000000">Content&#45;Type</text>
</g>
<!-- SG_0_Node_2&#45;&gt;SG_0_Node_4 -->
<g id="edge14" class="edge">
<title>SG_0_Node_2&#45;&gt;SG_0_Node_4</title>
<path fill="none" stroke="#000000" d="M554.3854,-1125.9944C566.47,-1116.6165 579.2424,-1104.007 585.7859,-1089.132 629.0946,-990.6813 621.6149,-948.5445 585.7859,-847.132 581.5603,-835.1717 573.7192,-823.8652 565.6359,-814.4542"/>
<polygon fill="#000000" stroke="#000000" points="568.1856,-812.0559 558.863,-807.0221 563.0117,-816.7709 568.1856,-812.0559"/>
<text text-anchor="middle" x="749.2859" y="-963.132" font-family="Times,serif" font-size="20.00" fill="#000000">ecocnt_audio=duration=1</text>
</g>
<!-- SG_0_Node_14 -->
<g id="node8" class="node">
<title>SG_0_Node_14</title>
<ellipse fill="none" stroke="#000000" cx="857.7859" cy="-788.9188" rx="34.7971" ry="21.4286"/>
<text text-anchor="middle" x="857.7859" y="-783.9188" font-family="Times,serif" font-size="20.00" fill="#000000">0.0</text>
</g>
<!-- SG_0_Node_3&#45;&gt;SG_0_Node_14 -->
<g id="edge5" class="edge">
<title>SG_0_Node_3&#45;&gt;SG_0_Node_14</title>
<path fill="none" stroke="#000000" d="M922.8774,-1125.9315C922.6412,-1078.7701 918.9671,-949.1682 887.7859,-847.132 884.7526,-837.206 880.0678,-826.9566 875.295,-817.8768"/>
<polygon fill="#000000" stroke="#000000" points="878.2428,-815.9739 870.355,-808.9006 872.1102,-819.349 878.2428,-815.9739"/>
<text text-anchor="middle" x="982.7859" y="-963.132" font-family="Times,serif" font-size="20.00" fill="#000000">same&#45;origin</text>
</g>
<!-- SG_0_Node_5 -->
<g id="node9" class="node">
<title>SG_0_Node_5</title>
<polygon fill="none" stroke="#000000" points="1065.2859,-806.9188 910.2859,-806.9188 910.2859,-770.9188 1065.2859,-770.9188 1065.2859,-806.9188"/>
<text text-anchor="middle" x="987.7859" y="-783.9188" font-family="Times,serif" font-size="20.00" fill="#000000">Content&#45;Type</text>
</g>
<!-- SG_0_Node_3&#45;&gt;SG_0_Node_5 -->
<g id="edge6" class="edge">
<title>SG_0_Node_3&#45;&gt;SG_0_Node_5</title>
<path fill="none" stroke="#000000" d="M1000.5285,-1126.0306C1019.0868,-1117.8807 1036.7082,-1106.1089 1047.7859,-1089.132 1106.5619,-999.0566 1089.6954,-946.1865 1047.7859,-847.132 1042.378,-834.3503 1032.6385,-822.995 1022.5579,-813.7839"/>
<polygon fill="#000000" stroke="#000000" points="1024.7174,-811.0251 1014.8488,-807.17 1020.1594,-816.3378 1024.7174,-811.0251"/>
<text text-anchor="middle" x="1117.7859" y="-974.132" font-family="Times,serif" font-size="20.00" fill="#000000">[NA]</text>
<text text-anchor="middle" x="1117.7859" y="-952.132" font-family="Times,serif" font-size="20.00" fill="#000000">empty</text>
</g>
<!-- SG_0_Node_15 -->
<g id="node10" class="node">
<title>SG_0_Node_15</title>
<ellipse fill="none" stroke="#000000" cx="280.7859" cy="-518.4924" rx="34.7971" ry="21.4286"/>
<text text-anchor="middle" x="280.7859" y="-513.4924" font-family="Times,serif" font-size="20.00" fill="#000000">0.0</text>
</g>
<!-- SG_0_Node_4&#45;&gt;SG_0_Node_15 -->
<g id="edge15" class="edge">
<title>SG_0_Node_4&#45;&gt;SG_0_Node_15</title>
<path fill="none" stroke="#000000" d="M461.0261,-781.9404C393.4821,-774.0777 303.0797,-758.5901 280.7859,-730.7056 239.1649,-678.6472 256.3687,-594.189 270.0425,-549.1203"/>
<polygon fill="#000000" stroke="#000000" points="273.4576,-549.9296 273.1442,-539.3394 266.7851,-547.8136 273.4576,-549.9296"/>
<text text-anchor="middle" x="391.7859" y="-714.7056" font-family="Times,serif" font-size="20.00" fill="#000000">[NA]</text>
<text text-anchor="middle" x="391.7859" y="-692.7056" font-family="Times,serif" font-size="20.00" fill="#000000">application/javascript</text>
<text text-anchor="middle" x="391.7859" y="-670.7056" font-family="Times,serif" font-size="20.00" fill="#000000">application/pdf</text>
<text text-anchor="middle" x="391.7859" y="-648.7056" font-family="Times,serif" font-size="20.00" fill="#000000">audio/wav</text>
<text text-anchor="middle" x="391.7859" y="-626.7056" font-family="Times,serif" font-size="20.00" fill="#000000">empty</text>
<text text-anchor="middle" x="391.7859" y="-604.7056" font-family="Times,serif" font-size="20.00" fill="#000000">image/png</text>
<text text-anchor="middle" x="391.7859" y="-582.7056" font-family="Times,serif" font-size="20.00" fill="#000000">text/html</text>
</g>
<!-- SG_0_Node_6 -->
<g id="node11" class="node">
<title>SG_0_Node_6</title>
<polygon fill="none" stroke="#000000" points="586.2859,-536.4924 395.2859,-536.4924 395.2859,-500.4924 586.2859,-500.4924 586.2859,-536.4924"/>
<text text-anchor="middle" x="490.7859" y="-513.4924" font-family="Times,serif" font-size="20.00" fill="#000000">X&#45;Frame&#45;Options</text>
</g>
<!-- SG_0_Node_4&#45;&gt;SG_0_Node_6 -->
<g id="edge16" class="edge">
<title>SG_0_Node_4&#45;&gt;SG_0_Node_6</title>
<path fill="none" stroke="#000000" d="M536.8006,-770.9033C532.5897,-734.1474 521.8953,-647.9628 506.7859,-576.7056 504.6783,-566.7664 501.8727,-556.0074 499.1999,-546.4747"/>
<polygon fill="#000000" stroke="#000000" points="502.5189,-545.3518 496.3911,-536.7089 495.7916,-547.2867 502.5189,-545.3518"/>
<text text-anchor="middle" x="585.2859" y="-659.7056" font-family="Times,serif" font-size="20.00" fill="#000000">text/css</text>
<text text-anchor="middle" x="585.2859" y="-637.7056" font-family="Times,serif" font-size="20.00" fill="#000000">video/mp4</text>
</g>
<!-- SG_0_Node_7 -->
<g id="node12" class="node">
<title>SG_0_Node_7</title>
<polygon fill="none" stroke="#000000" points="866.7859,-536.4924 604.7859,-536.4924 604.7859,-500.4924 866.7859,-500.4924 866.7859,-536.4924"/>
<text text-anchor="middle" x="735.7859" y="-513.4924" font-family="Times,serif" font-size="20.00" fill="#000000">X&#45;Content&#45;Type&#45;Options</text>
</g>
<!-- SG_0_Node_5&#45;&gt;SG_0_Node_7 -->
<g id="edge7" class="edge">
<title>SG_0_Node_5&#45;&gt;SG_0_Node_7</title>
<path fill="none" stroke="#000000" d="M916.1819,-770.8657C857.6295,-755.8068 783.7017,-735.9873 778.7859,-730.7056 731.4658,-679.8636 730.0523,-591.8672 732.9295,-546.8321"/>
<polygon fill="#000000" stroke="#000000" points="736.4382,-546.8498 733.7054,-536.6135 729.4582,-546.3198 736.4382,-546.8498"/>
<text text-anchor="middle" x="855.7859" y="-659.7056" font-family="Times,serif" font-size="20.00" fill="#000000">application/pdf</text>
<text text-anchor="middle" x="855.7859" y="-637.7056" font-family="Times,serif" font-size="20.00" fill="#000000">text/html</text>
</g>
<!-- SG_0_Node_16 -->
<g id="node13" class="node">
<title>SG_0_Node_16</title>
<ellipse fill="none" stroke="#000000" cx="922.7859" cy="-518.4924" rx="34.7971" ry="21.4286"/>
<text text-anchor="middle" x="922.7859" y="-513.4924" font-family="Times,serif" font-size="20.00" fill="#000000">1.0</text>
</g>
<!-- SG_0_Node_5&#45;&gt;SG_0_Node_16 -->
<g id="edge8" class="edge">
<title>SG_0_Node_5&#45;&gt;SG_0_Node_16</title>
<path fill="none" stroke="#000000" d="M983.4201,-770.7555C972.4871,-725.2697 943.8342,-606.062 930.2006,-549.3405"/>
<polygon fill="#000000" stroke="#000000" points="933.5775,-548.4134 927.8373,-539.5084 926.7713,-550.0494 933.5775,-548.4134"/>
<text text-anchor="middle" x="1083.7859" y="-714.7056" font-family="Times,serif" font-size="20.00" fill="#000000">[NA]</text>
<text text-anchor="middle" x="1083.7859" y="-692.7056" font-family="Times,serif" font-size="20.00" fill="#000000">application/javascript</text>
<text text-anchor="middle" x="1083.7859" y="-670.7056" font-family="Times,serif" font-size="20.00" fill="#000000">audio/wav</text>
<text text-anchor="middle" x="1083.7859" y="-648.7056" font-family="Times,serif" font-size="20.00" fill="#000000">empty</text>
<text text-anchor="middle" x="1083.7859" y="-626.7056" font-family="Times,serif" font-size="20.00" fill="#000000">image/png</text>
<text text-anchor="middle" x="1083.7859" y="-604.7056" font-family="Times,serif" font-size="20.00" fill="#000000">text/css</text>
<text text-anchor="middle" x="1083.7859" y="-582.7056" font-family="Times,serif" font-size="20.00" fill="#000000">video/mp4</text>
</g>
<!-- SG_0_Node_17 -->
<g id="node14" class="node">
<title>SG_0_Node_17</title>
<ellipse fill="none" stroke="#000000" cx="298.7859" cy="-358.066" rx="34.7971" ry="21.4286"/>
<text text-anchor="middle" x="298.7859" y="-353.066" font-family="Times,serif" font-size="20.00" fill="#000000">0.0</text>
</g>
<!-- SG_0_Node_6&#45;&gt;SG_0_Node_17 -->
<g id="edge17" class="edge">
<title>SG_0_Node_6&#45;&gt;SG_0_Node_17</title>
<path fill="none" stroke="#000000" d="M469.1343,-500.4013C434.3417,-471.3302 365.9784,-414.209 327.2711,-381.867"/>
<polygon fill="#000000" stroke="#000000" points="329.4023,-379.0867 319.4843,-375.3606 324.9139,-384.4584 329.4023,-379.0867"/>
<text text-anchor="middle" x="444.2859" y="-433.2792" font-family="Times,serif" font-size="20.00" fill="#000000">deny</text>
</g>
<!-- SG_0_Node_8 -->
<g id="node15" class="node">
<title>SG_0_Node_8</title>
<polygon fill="none" stroke="#000000" points="668.2859,-376.066 351.2859,-376.066 351.2859,-340.066 668.2859,-340.066 668.2859,-376.066"/>
<text text-anchor="middle" x="509.7859" y="-353.066" font-family="Times,serif" font-size="20.00" fill="#000000">Cross&#45;Origin&#45;Resource&#45;Policy</text>
</g>
<!-- SG_0_Node_6&#45;&gt;SG_0_Node_8 -->
<g id="edge18" class="edge">
<title>SG_0_Node_6&#45;&gt;SG_0_Node_8</title>
<path fill="none" stroke="#000000" d="M492.9285,-500.4013C496.207,-472.7194 502.4976,-419.6042 506.3985,-386.6675"/>
<polygon fill="#000000" stroke="#000000" points="509.9215,-386.6794 507.622,-376.3371 502.97,-385.8561 509.9215,-386.6794"/>
<text text-anchor="middle" x="534.7859" y="-444.2792" font-family="Times,serif" font-size="20.00" fill="#000000">[NA]</text>
<text text-anchor="middle" x="534.7859" y="-422.2792" font-family="Times,serif" font-size="20.00" fill="#000000">empty</text>
</g>
<!-- SG_0_Node_18 -->
<g id="node16" class="node">
<title>SG_0_Node_18</title>
<ellipse fill="none" stroke="#000000" cx="728.7859" cy="-358.066" rx="34.7971" ry="21.4286"/>
<text text-anchor="middle" x="728.7859" y="-353.066" font-family="Times,serif" font-size="20.00" fill="#000000">0.0</text>
</g>
<!-- SG_0_Node_7&#45;&gt;SG_0_Node_18 -->
<g id="edge9" class="edge">
<title>SG_0_Node_7&#45;&gt;SG_0_Node_18</title>
<path fill="none" stroke="#000000" d="M734.9965,-500.4013C733.8221,-473.4864 731.5986,-422.5279 730.1553,-389.4506"/>
<polygon fill="#000000" stroke="#000000" points="733.6491,-389.2306 729.7164,-379.3927 726.6558,-389.5358 733.6491,-389.2306"/>
<text text-anchor="middle" x="767.7859" y="-433.2792" font-family="Times,serif" font-size="20.00" fill="#000000">nosniff</text>
</g>
<!-- SG_0_Node_9 -->
<g id="node17" class="node">
<title>SG_0_Node_9</title>
<polygon fill="none" stroke="#000000" points="936.2859,-376.066 781.2859,-376.066 781.2859,-340.066 936.2859,-340.066 936.2859,-376.066"/>
<text text-anchor="middle" x="858.7859" y="-353.066" font-family="Times,serif" font-size="20.00" fill="#000000">Content&#45;Type</text>
</g>
<!-- SG_0_Node_7&#45;&gt;SG_0_Node_9 -->
<g id="edge10" class="edge">
<title>SG_0_Node_7&#45;&gt;SG_0_Node_9</title>
<path fill="none" stroke="#000000" d="M763.0692,-500.3069C777.3536,-489.8207 794.3986,-475.6815 806.7859,-460.2792 825.0725,-437.5417 839.4638,-407.3391 848.4266,-385.6705"/>
<polygon fill="#000000" stroke="#000000" points="851.6817,-386.9568 852.1572,-376.3726 845.1851,-384.3501 851.6817,-386.9568"/>
<text text-anchor="middle" x="865.7859" y="-444.2792" font-family="Times,serif" font-size="20.00" fill="#000000">[NA]</text>
<text text-anchor="middle" x="865.7859" y="-422.2792" font-family="Times,serif" font-size="20.00" fill="#000000">empty</text>
</g>
<!-- SG_0_Node_19 -->
<g id="node18" class="node">
<title>SG_0_Node_19</title>
<ellipse fill="none" stroke="#000000" cx="351.7859" cy="-197.6396" rx="34.7971" ry="21.4286"/>
<text text-anchor="middle" x="351.7859" y="-192.6396" font-family="Times,serif" font-size="20.00" fill="#000000">0.0</text>
</g>
<!-- SG_0_Node_8&#45;&gt;SG_0_Node_19 -->
<g id="edge19" class="edge">
<title>SG_0_Node_8&#45;&gt;SG_0_Node_19</title>
<path fill="none" stroke="#000000" d="M460.0996,-340.0288C439.42,-330.5802 416.4099,-317.2894 399.7859,-299.8528 380.5465,-279.673 367.8696,-250.369 360.4015,-228.3064"/>
<polygon fill="#000000" stroke="#000000" points="363.7194,-227.1908 357.3319,-218.738 357.054,-229.3292 363.7194,-227.1908"/>
<text text-anchor="middle" x="460.7859" y="-272.8528" font-family="Times,serif" font-size="20.00" fill="#000000">same&#45;origin</text>
</g>
<!-- SG_0_Node_10 -->
<g id="node19" class="node">
<title>SG_0_Node_10</title>
<polygon fill="none" stroke="#000000" points="702.7859,-215.6396 404.7859,-215.6396 404.7859,-179.6396 702.7859,-179.6396 702.7859,-215.6396"/>
<text text-anchor="middle" x="553.7859" y="-192.6396" font-family="Times,serif" font-size="20.00" fill="#000000">Cross&#45;Origin&#45;Opener&#45;Policy</text>
</g>
<!-- SG_0_Node_8&#45;&gt;SG_0_Node_10 -->
<g id="edge20" class="edge">
<title>SG_0_Node_8&#45;&gt;SG_0_Node_10</title>
<path fill="none" stroke="#000000" d="M514.7477,-339.9749C522.373,-312.1727 537.0347,-258.7154 546.0589,-225.8126"/>
<polygon fill="#000000" stroke="#000000" points="549.5049,-226.4804 548.7747,-215.9107 542.7542,-224.6288 549.5049,-226.4804"/>
<text text-anchor="middle" x="568.7859" y="-283.8528" font-family="Times,serif" font-size="20.00" fill="#000000">[NA]</text>
<text text-anchor="middle" x="568.7859" y="-261.8528" font-family="Times,serif" font-size="20.00" fill="#000000">empty</text>
</g>
<!-- SG_0_Node_20 -->
<g id="node20" class="node">
<title>SG_0_Node_20</title>
<ellipse fill="none" stroke="#000000" cx="824.7859" cy="-197.6396" rx="34.7971" ry="21.4286"/>
<text text-anchor="middle" x="824.7859" y="-192.6396" font-family="Times,serif" font-size="20.00" fill="#000000">0.0</text>
</g>
<!-- SG_0_Node_9&#45;&gt;SG_0_Node_20 -->
<g id="edge11" class="edge">
<title>SG_0_Node_9&#45;&gt;SG_0_Node_20</title>
<path fill="none" stroke="#000000" d="M851.552,-339.9824C847.2655,-328.6241 842.0501,-313.5758 838.7859,-299.8528 833.2092,-276.4082 829.6273,-249.3732 827.4837,-228.9979"/>
<polygon fill="#000000" stroke="#000000" points="830.9624,-228.6093 826.4909,-219.0043 823.9967,-229.3013 830.9624,-228.6093"/>
<text text-anchor="middle" x="915.7859" y="-272.8528" font-family="Times,serif" font-size="20.00" fill="#000000">application/pdf</text>
</g>
<!-- SG_0_Node_21 -->
<g id="node21" class="node">
<title>SG_0_Node_21</title>
<ellipse fill="none" stroke="#000000" cx="1014.7859" cy="-197.6396" rx="34.7971" ry="21.4286"/>
<text text-anchor="middle" x="1014.7859" y="-192.6396" font-family="Times,serif" font-size="20.00" fill="#000000">1.0</text>
</g>
<!-- SG_0_Node_9&#45;&gt;SG_0_Node_21 -->
<g id="edge12" class="edge">
<title>SG_0_Node_9&#45;&gt;SG_0_Node_21</title>
<path fill="none" stroke="#000000" d="M933.3492,-339.9292C955.358,-331.1772 977.5936,-318.3925 992.7859,-299.8528 1008.9018,-280.1859 1013.9681,-251.4384 1015.2517,-229.4362"/>
<polygon fill="#000000" stroke="#000000" points="1018.7564,-229.3631 1015.6099,-219.2463 1011.7607,-229.1171 1018.7564,-229.3631"/>
<text text-anchor="middle" x="1058.7859" y="-272.8528" font-family="Times,serif" font-size="20.00" fill="#000000">text/html</text>
</g>
<!-- SG_0_Node_22 -->
<g id="node22" class="node">
<title>SG_0_Node_22</title>
<ellipse fill="none" stroke="#000000" cx="501.7859" cy="-37.2132" rx="34.7971" ry="21.4286"/>
<text text-anchor="middle" x="501.7859" y="-32.2132" font-family="Times,serif" font-size="20.00" fill="#000000">0.0</text>
</g>
<!-- SG_0_Node_10&#45;&gt;SG_0_Node_22 -->
<g id="edge21" class="edge">
<title>SG_0_Node_10&#45;&gt;SG_0_Node_22</title>
<path fill="none" stroke="#000000" d="M540.3746,-179.4129C532.8922,-168.3704 524.046,-153.7004 518.7859,-139.4264 510.3637,-116.5719 506.095,-89.3002 503.9422,-68.6771"/>
<polygon fill="#000000" stroke="#000000" points="507.412,-68.189 502.9985,-58.5572 500.4422,-68.839 507.412,-68.189"/>
<text text-anchor="middle" x="550.7859" y="-112.4264" font-family="Times,serif" font-size="20.00" fill="#000000">empty</text>
</g>
<!-- SG_0_Node_23 -->
<g id="node23" class="node">
<title>SG_0_Node_23</title>
<ellipse fill="none" stroke="#000000" cx="606.7859" cy="-37.2132" rx="52.1524" ry="21.4286"/>
<text text-anchor="middle" x="606.7859" y="-32.2132" font-family="Times,serif" font-size="20.00" fill="#000000">0.125</text>
</g>
<!-- SG_0_Node_10&#45;&gt;SG_0_Node_23 -->
<g id="edge22" class="edge">
<title>SG_0_Node_10&#45;&gt;SG_0_Node_23</title>
<path fill="none" stroke="#000000" d="M564.1843,-179.5073C570.2878,-168.2565 577.764,-153.3391 582.7859,-139.4264 591.1126,-116.3581 597.3162,-89.3038 601.3283,-68.8256"/>
<polygon fill="#000000" stroke="#000000" points="604.8103,-69.2479 603.2262,-58.7721 597.9318,-67.9492 604.8103,-69.2479"/>
<text text-anchor="middle" x="655.7859" y="-123.4264" font-family="Times,serif" font-size="20.00" fill="#000000">[NA]</text>
<text text-anchor="middle" x="655.7859" y="-101.4264" font-family="Times,serif" font-size="20.00" fill="#000000">same&#45;origin</text>
</g>
</g>
</svg>
