<?xml version="1.0" encoding="UTF-8" standalone="no"?>
<!DOCTYPE svg PUBLIC "-//W3C//DTD SVG 1.1//EN"
 "http://www.w3.org/Graphics/SVG/1.1/DTD/svg11.dtd">
<!-- Generated by graphviz version 2.40.1 (20161225.0304)
 -->
<!-- Title: G Pages: 1 -->
<svg width="1304pt" height="2049pt"
 viewBox="0.00 0.00 1303.79 2049.41" xmlns="http://www.w3.org/2000/svg" xmlns:xlink="http://www.w3.org/1999/xlink">
<g id="graph0" class="graph" transform="scale(1 1) rotate(0) translate(4 2045.4113)">
<title>G</title>
<polygon fill="#ffffff" stroke="transparent" points="-4,4 -4,-2045.4113 1299.7859,-2045.4113 1299.7859,4 -4,4"/>
<g id="clust1" class="cluster">
<title>cluster_0</title>
<polygon fill="none" stroke="#000000" points="9.7859,-8 9.7859,-2033.4113 1152.7859,-2033.4113 1152.7859,-8 9.7859,-8"/>
<text text-anchor="middle" x="581.2859" y="-1997.4113" font-family="Times,serif" font-size="40.00" fill="#000000">Tree 0, Class 1</text>
</g>
<!-- SG_0_Node_0 -->
<g id="node1" class="node">
<title>SG_0_Node_0</title>
<polygon fill="none" stroke="#000000" points="596.7859,-1973.4113 454.7859,-1973.4113 454.7859,-1937.4113 596.7859,-1937.4113 596.7859,-1973.4113"/>
<text text-anchor="middle" x="525.7859" y="-1950.4113" font-family="Times,serif" font-size="20.00" fill="#000000">Status&#45;Code</text>
</g>
<!-- SG_0_Node_23 -->
<g id="node2" class="node">
<title>SG_0_Node_23</title>
<ellipse fill="none" stroke="#000000" cx="461.7859" cy="-1798.1981" rx="34.7971" ry="21.4286"/>
<text text-anchor="middle" x="461.7859" y="-1793.1981" font-family="Times,serif" font-size="20.00" fill="#000000">0.0</text>
</g>
<!-- SG_0_Node_0&#45;&gt;SG_0_Node_23 -->
<g id="edge1" class="edge">
<title>SG_0_Node_0&#45;&gt;SG_0_Node_23</title>
<path fill="none" stroke="#000000" d="M503.9938,-1937.2158C493.7352,-1927.4036 482.3393,-1914.4417 475.7859,-1900.4113 465.4583,-1878.3005 462.1583,-1850.7722 461.3307,-1829.8562"/>
<polygon fill="#000000" stroke="#000000" points="464.8237,-1829.5035 461.0992,-1819.585 457.8255,-1829.6614 464.8237,-1829.5035"/>
<text text-anchor="middle" x="521.7859" y="-1884.4113" font-family="Times,serif" font-size="20.00" fill="#000000">[NA]</text>
<text text-anchor="middle" x="521.7859" y="-1862.4113" font-family="Times,serif" font-size="20.00" fill="#000000">62 levels</text>
</g>
<!-- SG_0_Node_1 -->
<g id="node3" class="node">
<title>SG_0_Node_1</title>
<polygon fill="none" stroke="#000000" points="622.2859,-1816.1981 557.2859,-1816.1981 557.2859,-1780.1981 622.2859,-1780.1981 622.2859,-1816.1981"/>
<text text-anchor="middle" x="589.7859" y="-1793.1981" font-family="Times,serif" font-size="20.00" fill="#000000">body</text>
</g>
<!-- SG_0_Node_0&#45;&gt;SG_0_Node_1 -->
<g id="edge2" class="edge">
<title>SG_0_Node_0&#45;&gt;SG_0_Node_1</title>
<path fill="none" stroke="#000000" d="M543.2161,-1936.9197C551.8214,-1926.8367 561.6478,-1913.7216 567.7859,-1900.4113 578.7104,-1876.7214 584.3026,-1847.4159 587.1066,-1826.2664"/>
<polygon fill="#000000" stroke="#000000" points="590.5847,-1826.6574 588.3012,-1816.3116 583.6345,-1825.8233 590.5847,-1826.6574"/>
<text text-anchor="middle" x="601.2859" y="-1873.4113" font-family="Times,serif" font-size="20.00" fill="#000000">200</text>
</g>
<!-- SG_0_Node_2 -->
<g id="node4" class="node">
<title>SG_0_Node_2</title>
<polygon fill="none" stroke="#000000" points="558.2859,-1658.9848 493.2859,-1658.9848 493.2859,-1622.9848 558.2859,-1622.9848 558.2859,-1658.9848"/>
<text text-anchor="middle" x="525.7859" y="-1635.9848" font-family="Times,serif" font-size="20.00" fill="#000000">body</text>
</g>
<!-- SG_0_Node_1&#45;&gt;SG_0_Node_2 -->
<g id="edge3" class="edge">
<title>SG_0_Node_1&#45;&gt;SG_0_Node_2</title>
<path fill="none" stroke="#000000" d="M569.302,-1779.9865C558.7352,-1769.3909 546.6533,-1755.1562 539.7859,-1739.9848 529.6527,-1717.599 526.4453,-1689.6992 525.6027,-1669.2284"/>
<polygon fill="#000000" stroke="#000000" points="529.0957,-1668.8971 525.3511,-1658.9861 522.0978,-1669.0691 529.0957,-1668.8971"/>
<text text-anchor="middle" x="585.7859" y="-1723.9848" font-family="Times,serif" font-size="20.00" fill="#000000">[NA]</text>
<text text-anchor="middle" x="585.7859" y="-1701.9848" font-family="Times,serif" font-size="20.00" fill="#000000">11 levels</text>
</g>
<!-- SG_0_Node_3 -->
<g id="node5" class="node">
<title>SG_0_Node_3</title>
<polygon fill="none" stroke="#000000" points="1081.2859,-1658.9848 764.2859,-1658.9848 764.2859,-1622.9848 1081.2859,-1622.9848 1081.2859,-1658.9848"/>
<text text-anchor="middle" x="922.7859" y="-1635.9848" font-family="Times,serif" font-size="20.00" fill="#000000">Cross&#45;Origin&#45;Resource&#45;Policy</text>
</g>
<!-- SG_0_Node_1&#45;&gt;SG_0_Node_3 -->
<g id="edge4" class="edge">
<title>SG_0_Node_1&#45;&gt;SG_0_Node_3</title>
<path fill="none" stroke="#000000" d="M622.3216,-1782.8375C681.4043,-1754.9439 806.5542,-1695.8592 875.2259,-1663.4385"/>
<polygon fill="#000000" stroke="#000000" points="876.9795,-1666.4811 884.5282,-1659.0468 873.991,-1660.1511 876.9795,-1666.4811"/>
<text text-anchor="middle" x="1050.2859" y="-1712.9848" font-family="Times,serif" font-size="20.00" fill="#000000">ecocnt_vid=width=100,height=100,duration=2</text>
</g>
<!-- SG_0_Node_24 -->
<g id="node6" class="node">
<title>SG_0_Node_24</title>
<ellipse fill="none" stroke="#000000" cx="52.7859" cy="-1285.7716" rx="34.7971" ry="21.4286"/>
<text text-anchor="middle" x="52.7859" y="-1280.7716" font-family="Times,serif" font-size="20.00" fill="#000000">0.0</text>
</g>
<!-- SG_0_Node_2&#45;&gt;SG_0_Node_24 -->
<g id="edge13" class="edge">
<title>SG_0_Node_2&#45;&gt;SG_0_Node_24</title>
<path fill="none" stroke="#000000" d="M493.0111,-1639.7864C388.2096,-1635.6214 66.3104,-1620.1273 35.7859,-1585.9848 -32.1101,-1510.0415 13.3792,-1375.4415 38.8469,-1315.7326"/>
<polygon fill="#000000" stroke="#000000" points="42.0931,-1317.0447 42.8911,-1306.4799 35.679,-1314.2411 42.0931,-1317.0447"/>
<text text-anchor="middle" x="308.7859" y="-1569.9848" font-family="Times,serif" font-size="20.00" fill="#000000">[NA]</text>
<text text-anchor="middle" x="308.7859" y="-1547.9848" font-family="Times,serif" font-size="20.00" fill="#000000">ecocnt_css=h1 {color: blue}</text>
<text text-anchor="middle" x="308.7859" y="-1525.9848" font-family="Times,serif" font-size="20.00" fill="#000000">ecocnt_html=meta_refresh=0;http://172.17.0.1:8000</text>
<text text-anchor="middle" x="308.7859" y="-1503.9848" font-family="Times,serif" font-size="20.00" fill="#000000">ecocnt_html=num_frames=1,input_id=test1</text>
<text text-anchor="middle" x="308.7859" y="-1481.9848" font-family="Times,serif" font-size="20.00" fill="#000000">ecocnt_html=num_frames=2</text>
<text text-anchor="middle" x="308.7859" y="-1459.9848" font-family="Times,serif" font-size="20.00" fill="#000000">ecocnt_html=post_message=mes1</text>
<text text-anchor="middle" x="308.7859" y="-1437.9848" font-family="Times,serif" font-size="20.00" fill="#000000">ecocnt_img=width=50,height=50,type=png</text>
<text text-anchor="middle" x="308.7859" y="-1415.9848" font-family="Times,serif" font-size="20.00" fill="#000000">ecocnt_js=.,,.</text>
<text text-anchor="middle" x="308.7859" y="-1393.9848" font-family="Times,serif" font-size="20.00" fill="#000000">ecocnt_js=var a=5;</text>
<text text-anchor="middle" x="308.7859" y="-1371.9848" font-family="Times,serif" font-size="20.00" fill="#000000">ecocnt_pdf=a=a</text>
<text text-anchor="middle" x="308.7859" y="-1349.9848" font-family="Times,serif" font-size="20.00" fill="#000000">empty</text>
</g>
<!-- SG_0_Node_4 -->
<g id="node7" class="node">
<title>SG_0_Node_4</title>
<polygon fill="none" stroke="#000000" points="673.2859,-1303.7716 356.2859,-1303.7716 356.2859,-1267.7716 673.2859,-1267.7716 673.2859,-1303.7716"/>
<text text-anchor="middle" x="514.7859" y="-1280.7716" font-family="Times,serif" font-size="20.00" fill="#000000">Cross&#45;Origin&#45;Resource&#45;Policy</text>
</g>
<!-- SG_0_Node_2&#45;&gt;SG_0_Node_4 -->
<g id="edge14" class="edge">
<title>SG_0_Node_2&#45;&gt;SG_0_Node_4</title>
<path fill="none" stroke="#000000" d="M554.3854,-1622.8472C566.47,-1613.4694 579.2424,-1600.8598 585.7859,-1585.9848 629.0946,-1487.5341 631.7943,-1441.2033 585.7859,-1343.9848 579.3594,-1330.4054 568.0413,-1318.9344 556.3044,-1309.8599"/>
<polygon fill="#000000" stroke="#000000" points="558.3184,-1306.997 548.1669,-1303.964 554.2113,-1312.6655 558.3184,-1306.997"/>
<text text-anchor="middle" x="753.2859" y="-1459.9848" font-family="Times,serif" font-size="20.00" fill="#000000">ecocnt_audio=duration=1</text>
</g>
<!-- SG_0_Node_25 -->
<g id="node8" class="node">
<title>SG_0_Node_25</title>
<ellipse fill="none" stroke="#000000" cx="857.7859" cy="-1285.7716" rx="34.7971" ry="21.4286"/>
<text text-anchor="middle" x="857.7859" y="-1280.7716" font-family="Times,serif" font-size="20.00" fill="#000000">0.0</text>
</g>
<!-- SG_0_Node_3&#45;&gt;SG_0_Node_25 -->
<g id="edge5" class="edge">
<title>SG_0_Node_3&#45;&gt;SG_0_Node_25</title>
<path fill="none" stroke="#000000" d="M923.5116,-1622.6927C924.8362,-1575.3133 924.9252,-1445.2362 891.7859,-1343.9848 888.4001,-1333.6401 882.9872,-1323.1289 877.4668,-1313.9374"/>
<polygon fill="#000000" stroke="#000000" points="880.2769,-1311.8318 871.9818,-1305.2408 874.3562,-1315.5662 880.2769,-1311.8318"/>
<text text-anchor="middle" x="984.7859" y="-1459.9848" font-family="Times,serif" font-size="20.00" fill="#000000">same&#45;origin</text>
</g>
<!-- SG_0_Node_5 -->
<g id="node9" class="node">
<title>SG_0_Node_5</title>
<polygon fill="none" stroke="#000000" points="1065.2859,-1303.7716 910.2859,-1303.7716 910.2859,-1267.7716 1065.2859,-1267.7716 1065.2859,-1303.7716"/>
<text text-anchor="middle" x="987.7859" y="-1280.7716" font-family="Times,serif" font-size="20.00" fill="#000000">Content&#45;Type</text>
</g>
<!-- SG_0_Node_3&#45;&gt;SG_0_Node_5 -->
<g id="edge6" class="edge">
<title>SG_0_Node_3&#45;&gt;SG_0_Node_5</title>
<path fill="none" stroke="#000000" d="M1002.405,-1622.8556C1021.0171,-1614.7158 1038.6413,-1602.956 1049.7859,-1585.9848 1108.8238,-1496.0809 1092.505,-1442.6929 1049.7859,-1343.9848 1044.1781,-1331.0274 1034.109,-1319.6276 1023.6939,-1310.4298"/>
<polygon fill="#000000" stroke="#000000" points="1025.6647,-1307.5177 1015.7301,-1303.8361 1021.2005,-1312.9094 1025.6647,-1307.5177"/>
<text text-anchor="middle" x="1119.7859" y="-1470.9848" font-family="Times,serif" font-size="20.00" fill="#000000">[NA]</text>
<text text-anchor="middle" x="1119.7859" y="-1448.9848" font-family="Times,serif" font-size="20.00" fill="#000000">empty</text>
</g>
<!-- SG_0_Node_26 -->
<g id="node10" class="node">
<title>SG_0_Node_26</title>
<ellipse fill="none" stroke="#000000" cx="356.7859" cy="-1015.3452" rx="34.7971" ry="21.4286"/>
<text text-anchor="middle" x="356.7859" y="-1010.3452" font-family="Times,serif" font-size="20.00" fill="#000000">0.0</text>
</g>
<!-- SG_0_Node_4&#45;&gt;SG_0_Node_26 -->
<g id="edge15" class="edge">
<title>SG_0_Node_4&#45;&gt;SG_0_Node_26</title>
<path fill="none" stroke="#000000" d="M434.0532,-1267.7246C412.5821,-1259.0583 391.5602,-1246.2996 377.7859,-1227.5584 338.4071,-1173.9802 343.946,-1091.1285 350.7591,-1046.4492"/>
<polygon fill="#000000" stroke="#000000" points="354.2302,-1046.9098 352.3997,-1036.4743 347.3231,-1045.7737 354.2302,-1046.9098"/>
<text text-anchor="middle" x="438.7859" y="-1145.5584" font-family="Times,serif" font-size="20.00" fill="#000000">same&#45;origin</text>
</g>
<!-- SG_0_Node_6 -->
<g id="node11" class="node">
<title>SG_0_Node_6</title>
<polygon fill="none" stroke="#000000" points="578.2859,-1033.3452 423.2859,-1033.3452 423.2859,-997.3452 578.2859,-997.3452 578.2859,-1033.3452"/>
<text text-anchor="middle" x="500.7859" y="-1010.3452" font-family="Times,serif" font-size="20.00" fill="#000000">Content&#45;Type</text>
</g>
<!-- SG_0_Node_4&#45;&gt;SG_0_Node_6 -->
<g id="edge16" class="edge">
<title>SG_0_Node_4&#45;&gt;SG_0_Node_6</title>
<path fill="none" stroke="#000000" d="M513.8456,-1267.6083C511.4545,-1221.423 505.1287,-1099.2312 502.2497,-1043.6215"/>
<polygon fill="#000000" stroke="#000000" points="505.7345,-1043.2352 501.7221,-1033.4295 498.7439,-1043.5971 505.7345,-1043.2352"/>
<text text-anchor="middle" x="542.7859" y="-1156.5584" font-family="Times,serif" font-size="20.00" fill="#000000">[NA]</text>
<text text-anchor="middle" x="542.7859" y="-1134.5584" font-family="Times,serif" font-size="20.00" fill="#000000">empty</text>
</g>
<!-- SG_0_Node_7 -->
<g id="node12" class="node">
<title>SG_0_Node_7</title>
<polygon fill="none" stroke="#000000" points="863.7859,-1033.3452 601.7859,-1033.3452 601.7859,-997.3452 863.7859,-997.3452 863.7859,-1033.3452"/>
<text text-anchor="middle" x="732.7859" y="-1010.3452" font-family="Times,serif" font-size="20.00" fill="#000000">X&#45;Content&#45;Type&#45;Options</text>
</g>
<!-- SG_0_Node_5&#45;&gt;SG_0_Node_7 -->
<g id="edge7" class="edge">
<title>SG_0_Node_5&#45;&gt;SG_0_Node_7</title>
<path fill="none" stroke="#000000" d="M916.1992,-1267.7024C857.6581,-1252.6328 783.7374,-1232.8067 778.7859,-1227.5584 730.9871,-1176.8943 728.2231,-1088.819 730.3859,-1043.7263"/>
<polygon fill="#000000" stroke="#000000" points="733.8945,-1043.6854 730.9989,-1033.494 726.9071,-1043.2668 733.8945,-1043.6854"/>
<text text-anchor="middle" x="855.7859" y="-1156.5584" font-family="Times,serif" font-size="20.00" fill="#000000">application/pdf</text>
<text text-anchor="middle" x="855.7859" y="-1134.5584" font-family="Times,serif" font-size="20.00" fill="#000000">text/html</text>
</g>
<!-- SG_0_Node_27 -->
<g id="node13" class="node">
<title>SG_0_Node_27</title>
<ellipse fill="none" stroke="#000000" cx="922.7859" cy="-1015.3452" rx="34.7971" ry="21.4286"/>
<text text-anchor="middle" x="922.7859" y="-1010.3452" font-family="Times,serif" font-size="20.00" fill="#000000">1.0</text>
</g>
<!-- SG_0_Node_5&#45;&gt;SG_0_Node_27 -->
<g id="edge8" class="edge">
<title>SG_0_Node_5&#45;&gt;SG_0_Node_27</title>
<path fill="none" stroke="#000000" d="M983.4201,-1267.6083C972.4871,-1222.1225 943.8342,-1102.9148 930.2006,-1046.1933"/>
<polygon fill="#000000" stroke="#000000" points="933.5775,-1045.2663 927.8373,-1036.3612 926.7713,-1046.9022 933.5775,-1045.2663"/>
<text text-anchor="middle" x="1083.7859" y="-1211.5584" font-family="Times,serif" font-size="20.00" fill="#000000">[NA]</text>
<text text-anchor="middle" x="1083.7859" y="-1189.5584" font-family="Times,serif" font-size="20.00" fill="#000000">application/javascript</text>
<text text-anchor="middle" x="1083.7859" y="-1167.5584" font-family="Times,serif" font-size="20.00" fill="#000000">audio/wav</text>
<text text-anchor="middle" x="1083.7859" y="-1145.5584" font-family="Times,serif" font-size="20.00" fill="#000000">empty</text>
<text text-anchor="middle" x="1083.7859" y="-1123.5584" font-family="Times,serif" font-size="20.00" fill="#000000">image/png</text>
<text text-anchor="middle" x="1083.7859" y="-1101.5584" font-family="Times,serif" font-size="20.00" fill="#000000">text/css</text>
<text text-anchor="middle" x="1083.7859" y="-1079.5584" font-family="Times,serif" font-size="20.00" fill="#000000">video/mp4</text>
</g>
<!-- SG_0_Node_8 -->
<g id="node14" class="node">
<title>SG_0_Node_8</title>
<polygon fill="none" stroke="#000000" points="314.2859,-762.9188 159.2859,-762.9188 159.2859,-726.9188 314.2859,-726.9188 314.2859,-762.9188"/>
<text text-anchor="middle" x="236.7859" y="-739.9188" font-family="Times,serif" font-size="20.00" fill="#000000">Content&#45;Type</text>
</g>
<!-- SG_0_Node_6&#45;&gt;SG_0_Node_8 -->
<g id="edge17" class="edge">
<title>SG_0_Node_6&#45;&gt;SG_0_Node_8</title>
<path fill="none" stroke="#000000" d="M423.0298,-997.4163C359.7524,-982.4965 280.0561,-962.8126 274.7859,-957.132 227.6519,-906.3279 228.8204,-818.0018 233.0768,-773.0069"/>
<polygon fill="#000000" stroke="#000000" points="236.557,-773.3771 234.1367,-763.0625 229.5965,-772.6352 236.557,-773.3771"/>
<text text-anchor="middle" x="385.7859" y="-941.132" font-family="Times,serif" font-size="20.00" fill="#000000">[NA]</text>
<text text-anchor="middle" x="385.7859" y="-919.132" font-family="Times,serif" font-size="20.00" fill="#000000">application/javascript</text>
<text text-anchor="middle" x="385.7859" y="-897.132" font-family="Times,serif" font-size="20.00" fill="#000000">application/pdf</text>
<text text-anchor="middle" x="385.7859" y="-875.132" font-family="Times,serif" font-size="20.00" fill="#000000">audio/wav</text>
<text text-anchor="middle" x="385.7859" y="-853.132" font-family="Times,serif" font-size="20.00" fill="#000000">image/png</text>
<text text-anchor="middle" x="385.7859" y="-831.132" font-family="Times,serif" font-size="20.00" fill="#000000">text/html</text>
<text text-anchor="middle" x="385.7859" y="-809.132" font-family="Times,serif" font-size="20.00" fill="#000000">video/mp4</text>
</g>
<!-- SG_0_Node_9 -->
<g id="node15" class="node">
<title>SG_0_Node_9</title>
<polygon fill="none" stroke="#000000" points="553.2859,-762.9188 448.2859,-762.9188 448.2859,-726.9188 553.2859,-726.9188 553.2859,-762.9188"/>
<text text-anchor="middle" x="500.7859" y="-739.9188" font-family="Times,serif" font-size="20.00" fill="#000000">Location</text>
</g>
<!-- SG_0_Node_6&#45;&gt;SG_0_Node_9 -->
<g id="edge18" class="edge">
<title>SG_0_Node_6&#45;&gt;SG_0_Node_9</title>
<path fill="none" stroke="#000000" d="M500.7859,-997.1819C500.7859,-950.9966 500.7859,-828.8048 500.7859,-773.1951"/>
<polygon fill="#000000" stroke="#000000" points="504.286,-773.0031 500.7859,-763.0031 497.286,-773.0032 504.286,-773.0031"/>
<text text-anchor="middle" x="540.2859" y="-886.132" font-family="Times,serif" font-size="20.00" fill="#000000">empty</text>
<text text-anchor="middle" x="540.2859" y="-864.132" font-family="Times,serif" font-size="20.00" fill="#000000">text/css</text>
</g>
<!-- SG_0_Node_28 -->
<g id="node16" class="node">
<title>SG_0_Node_28</title>
<ellipse fill="none" stroke="#000000" cx="730.7859" cy="-744.9188" rx="34.7971" ry="21.4286"/>
<text text-anchor="middle" x="730.7859" y="-739.9188" font-family="Times,serif" font-size="20.00" fill="#000000">0.0</text>
</g>
<!-- SG_0_Node_7&#45;&gt;SG_0_Node_28 -->
<g id="edge9" class="edge">
<title>SG_0_Node_7&#45;&gt;SG_0_Node_28</title>
<path fill="none" stroke="#000000" d="M732.6516,-997.1819C732.3167,-951.9017 731.4415,-833.5646 731.0197,-776.5399"/>
<polygon fill="#000000" stroke="#000000" points="734.5181,-776.2882 730.9441,-766.3144 727.5183,-776.34 734.5181,-776.2882"/>
<text text-anchor="middle" x="766.7859" y="-875.132" font-family="Times,serif" font-size="20.00" fill="#000000">nosniff</text>
</g>
<!-- SG_0_Node_10 -->
<g id="node17" class="node">
<title>SG_0_Node_10</title>
<polygon fill="none" stroke="#000000" points="938.2859,-762.9188 783.2859,-762.9188 783.2859,-726.9188 938.2859,-726.9188 938.2859,-762.9188"/>
<text text-anchor="middle" x="860.7859" y="-739.9188" font-family="Times,serif" font-size="20.00" fill="#000000">Content&#45;Type</text>
</g>
<!-- SG_0_Node_7&#45;&gt;SG_0_Node_10 -->
<g id="edge10" class="edge">
<title>SG_0_Node_7&#45;&gt;SG_0_Node_10</title>
<path fill="none" stroke="#000000" d="M763.7382,-997.3291C778.4956,-987.2603 795.1974,-973.4495 805.7859,-957.132 843.602,-898.8553 855.4527,-815.7962 859.14,-772.9222"/>
<polygon fill="#000000" stroke="#000000" points="862.6314,-773.1673 859.9125,-762.9274 855.6523,-772.6279 862.6314,-773.1673"/>
<text text-anchor="middle" x="886.7859" y="-886.132" font-family="Times,serif" font-size="20.00" fill="#000000">[NA]</text>
<text text-anchor="middle" x="886.7859" y="-864.132" font-family="Times,serif" font-size="20.00" fill="#000000">empty</text>
</g>
<!-- SG_0_Node_29 -->
<g id="node18" class="node">
<title>SG_0_Node_29</title>
<ellipse fill="none" stroke="#000000" cx="52.7859" cy="-540.4924" rx="34.7971" ry="21.4286"/>
<text text-anchor="middle" x="52.7859" y="-535.4924" font-family="Times,serif" font-size="20.00" fill="#000000">0.0</text>
</g>
<!-- SG_0_Node_8&#45;&gt;SG_0_Node_29 -->
<g id="edge25" class="edge">
<title>SG_0_Node_8&#45;&gt;SG_0_Node_29</title>
<path fill="none" stroke="#000000" d="M158.922,-733.0905C129.7581,-724.7971 98.8621,-710.6921 78.7859,-686.7056 51.9503,-654.6432 48.6803,-604.5291 49.8885,-572.0997"/>
<polygon fill="#000000" stroke="#000000" points="53.3986,-572.0055 50.4424,-561.8315 46.4088,-571.6284 53.3986,-572.0055"/>
<text text-anchor="middle" x="155.7859" y="-659.7056" font-family="Times,serif" font-size="20.00" fill="#000000">application/pdf</text>
<text text-anchor="middle" x="155.7859" y="-637.7056" font-family="Times,serif" font-size="20.00" fill="#000000">audio/wav</text>
<text text-anchor="middle" x="155.7859" y="-615.7056" font-family="Times,serif" font-size="20.00" fill="#000000">text/html</text>
</g>
<!-- SG_0_Node_11 -->
<g id="node19" class="node">
<title>SG_0_Node_11</title>
<polygon fill="none" stroke="#000000" points="367.7859,-558.4924 105.7859,-558.4924 105.7859,-522.4924 367.7859,-522.4924 367.7859,-558.4924"/>
<text text-anchor="middle" x="236.7859" y="-535.4924" font-family="Times,serif" font-size="20.00" fill="#000000">X&#45;Content&#45;Type&#45;Options</text>
</g>
<!-- SG_0_Node_8&#45;&gt;SG_0_Node_11 -->
<g id="edge26" class="edge">
<title>SG_0_Node_8&#45;&gt;SG_0_Node_11</title>
<path fill="none" stroke="#000000" d="M236.7859,-726.7774C236.7859,-691.0904 236.7859,-611.5335 236.7859,-568.8488"/>
<polygon fill="#000000" stroke="#000000" points="240.286,-568.5932 236.7859,-558.5932 233.286,-568.5933 240.286,-568.5932"/>
<text text-anchor="middle" x="347.7859" y="-670.7056" font-family="Times,serif" font-size="20.00" fill="#000000">[NA]</text>
<text text-anchor="middle" x="347.7859" y="-648.7056" font-family="Times,serif" font-size="20.00" fill="#000000">application/javascript</text>
<text text-anchor="middle" x="347.7859" y="-626.7056" font-family="Times,serif" font-size="20.00" fill="#000000">image/png</text>
<text text-anchor="middle" x="347.7859" y="-604.7056" font-family="Times,serif" font-size="20.00" fill="#000000">video/mp4</text>
</g>
<!-- SG_0_Node_12 -->
<g id="node20" class="node">
<title>SG_0_Node_12</title>
<polygon fill="none" stroke="#000000" points="647.7859,-558.4924 385.7859,-558.4924 385.7859,-522.4924 647.7859,-522.4924 647.7859,-558.4924"/>
<text text-anchor="middle" x="516.7859" y="-535.4924" font-family="Times,serif" font-size="20.00" fill="#000000">X&#45;Content&#45;Type&#45;Options</text>
</g>
<!-- SG_0_Node_9&#45;&gt;SG_0_Node_12 -->
<g id="edge19" class="edge">
<title>SG_0_Node_9&#45;&gt;SG_0_Node_12</title>
<path fill="none" stroke="#000000" d="M501.2975,-726.8756C502.1887,-699.2332 504.3687,-644.7627 508.7859,-598.7056 509.727,-588.8927 511.0975,-578.1935 512.4392,-568.6753"/>
<polygon fill="#000000" stroke="#000000" points="515.9373,-568.9413 513.9172,-558.5409 509.0106,-567.931 515.9373,-568.9413"/>
<text text-anchor="middle" x="540.7859" y="-637.7056" font-family="Times,serif" font-size="20.00" fill="#000000">empty</text>
</g>
<!-- SG_0_Node_13 -->
<g id="node21" class="node">
<title>SG_0_Node_13</title>
<polygon fill="none" stroke="#000000" points="963.7859,-558.4924 665.7859,-558.4924 665.7859,-522.4924 963.7859,-522.4924 963.7859,-558.4924"/>
<text text-anchor="middle" x="814.7859" y="-535.4924" font-family="Times,serif" font-size="20.00" fill="#000000">Cross&#45;Origin&#45;Opener&#45;Policy</text>
</g>
<!-- SG_0_Node_9&#45;&gt;SG_0_Node_13 -->
<g id="edge20" class="edge">
<title>SG_0_Node_9&#45;&gt;SG_0_Node_13</title>
<path fill="none" stroke="#000000" d="M528.454,-726.7924C542.9397,-716.3236 560.2248,-702.1821 572.7859,-686.7056 600.4687,-652.5978 583.9824,-626.7592 617.7859,-598.7056 634.1442,-585.1298 677.9879,-571.574 720.1708,-560.9636"/>
<polygon fill="#000000" stroke="#000000" points="721.1157,-564.3355 729.9843,-558.5391 719.4367,-557.5398 721.1157,-564.3355"/>
<text text-anchor="middle" x="732.7859" y="-648.7056" font-family="Times,serif" font-size="20.00" fill="#000000">[NA]</text>
<text text-anchor="middle" x="732.7859" y="-626.7056" font-family="Times,serif" font-size="20.00" fill="#000000">http://172.17.0.1:8000</text>
</g>
<!-- SG_0_Node_30 -->
<g id="node22" class="node">
<title>SG_0_Node_30</title>
<ellipse fill="none" stroke="#000000" cx="1016.7859" cy="-540.4924" rx="34.7971" ry="21.4286"/>
<text text-anchor="middle" x="1016.7859" y="-535.4924" font-family="Times,serif" font-size="20.00" fill="#000000">0.0</text>
</g>
<!-- SG_0_Node_10&#45;&gt;SG_0_Node_30 -->
<g id="edge11" class="edge">
<title>SG_0_Node_10&#45;&gt;SG_0_Node_30</title>
<path fill="none" stroke="#000000" d="M856.893,-726.5536C851.6435,-696.4986 845.9825,-636.3889 874.7859,-598.7056 903.0584,-561.7169 929.998,-580.055 972.7859,-561.7056 975.258,-560.6455 977.793,-559.5224 980.3373,-558.3682"/>
<polygon fill="#000000" stroke="#000000" points="981.9043,-561.4995 989.4963,-554.1095 978.9528,-555.1521 981.9043,-561.4995"/>
<text text-anchor="middle" x="951.7859" y="-637.7056" font-family="Times,serif" font-size="20.00" fill="#000000">application/pdf</text>
</g>
<!-- SG_0_Node_31 -->
<g id="node23" class="node">
<title>SG_0_Node_31</title>
<ellipse fill="none" stroke="#000000" cx="1103.7859" cy="-540.4924" rx="34.7971" ry="21.4286"/>
<text text-anchor="middle" x="1103.7859" y="-535.4924" font-family="Times,serif" font-size="20.00" fill="#000000">1.0</text>
</g>
<!-- SG_0_Node_10&#45;&gt;SG_0_Node_31 -->
<g id="edge12" class="edge">
<title>SG_0_Node_10&#45;&gt;SG_0_Node_31</title>
<path fill="none" stroke="#000000" d="M938.6508,-731.0857C969.471,-722.4713 1003.5009,-708.6685 1028.7859,-686.7056 1064.1574,-655.9814 1085.0117,-604.5051 1095.418,-571.5462"/>
<polygon fill="#000000" stroke="#000000" points="1098.8975,-572.1304 1098.4347,-561.5457 1092.1958,-570.1087 1098.8975,-572.1304"/>
<text text-anchor="middle" x="1131.7859" y="-637.7056" font-family="Times,serif" font-size="20.00" fill="#000000">text/html</text>
</g>
<!-- SG_0_Node_14 -->
<g id="node24" class="node">
<title>SG_0_Node_14</title>
<polygon fill="none" stroke="#000000" points="193.2859,-398.066 38.2859,-398.066 38.2859,-362.066 193.2859,-362.066 193.2859,-398.066"/>
<text text-anchor="middle" x="115.7859" y="-375.066" font-family="Times,serif" font-size="20.00" fill="#000000">Content&#45;Type</text>
</g>
<!-- SG_0_Node_11&#45;&gt;SG_0_Node_14 -->
<g id="edge27" class="edge">
<title>SG_0_Node_11&#45;&gt;SG_0_Node_14</title>
<path fill="none" stroke="#000000" d="M223.1409,-522.4013C201.8082,-494.1177 160.4496,-439.2828 135.7601,-406.5485"/>
<polygon fill="#000000" stroke="#000000" points="138.3827,-404.2133 129.5667,-398.3371 132.7941,-408.4285 138.3827,-404.2133"/>
<text text-anchor="middle" x="223.7859" y="-455.2792" font-family="Times,serif" font-size="20.00" fill="#000000">empty</text>
</g>
<!-- SG_0_Node_15 -->
<g id="node25" class="node">
<title>SG_0_Node_15</title>
<polygon fill="none" stroke="#000000" points="508.7859,-398.066 210.7859,-398.066 210.7859,-362.066 508.7859,-362.066 508.7859,-398.066"/>
<text text-anchor="middle" x="359.7859" y="-375.066" font-family="Times,serif" font-size="20.00" fill="#000000">Cross&#45;Origin&#45;Opener&#45;Policy</text>
</g>
<!-- SG_0_Node_11&#45;&gt;SG_0_Node_15 -->
<g id="edge28" class="edge">
<title>SG_0_Node_11&#45;&gt;SG_0_Node_15</title>
<path fill="none" stroke="#000000" d="M250.6565,-522.4013C272.3417,-494.1177 314.384,-439.2828 339.4815,-406.5485"/>
<polygon fill="#000000" stroke="#000000" points="342.4703,-408.4027 345.7773,-398.3371 336.9152,-404.1435 342.4703,-408.4027"/>
<text text-anchor="middle" x="348.7859" y="-466.2792" font-family="Times,serif" font-size="20.00" fill="#000000">[NA]</text>
<text text-anchor="middle" x="348.7859" y="-444.2792" font-family="Times,serif" font-size="20.00" fill="#000000">nosniff</text>
</g>
<!-- SG_0_Node_32 -->
<g id="node26" class="node">
<title>SG_0_Node_32</title>
<ellipse fill="none" stroke="#000000" cx="561.7859" cy="-380.066" rx="34.7971" ry="21.4286"/>
<text text-anchor="middle" x="561.7859" y="-375.066" font-family="Times,serif" font-size="20.00" fill="#000000">0.0</text>
</g>
<!-- SG_0_Node_12&#45;&gt;SG_0_Node_32 -->
<g id="edge23" class="edge">
<title>SG_0_Node_12&#45;&gt;SG_0_Node_32</title>
<path fill="none" stroke="#000000" d="M521.8605,-522.4013C529.4309,-495.4125 543.7828,-444.2477 553.0588,-411.1784"/>
<polygon fill="#000000" stroke="#000000" points="556.5462,-411.7047 555.8771,-401.1311 549.8063,-409.8141 556.5462,-411.7047"/>
<text text-anchor="middle" x="579.7859" y="-455.2792" font-family="Times,serif" font-size="20.00" fill="#000000">nosniff</text>
</g>
<!-- SG_0_Node_33 -->
<g id="node27" class="node">
<title>SG_0_Node_33</title>
<ellipse fill="none" stroke="#000000" cx="666.7859" cy="-380.066" rx="52.1524" ry="21.4286"/>
<text text-anchor="middle" x="666.7859" y="-375.066" font-family="Times,serif" font-size="20.00" fill="#000000">0.063</text>
</g>
<!-- SG_0_Node_12&#45;&gt;SG_0_Node_33 -->
<g id="edge24" class="edge">
<title>SG_0_Node_12&#45;&gt;SG_0_Node_33</title>
<path fill="none" stroke="#000000" d="M561.5642,-522.3919C581.0651,-512.7675 603.0167,-499.3558 618.7859,-482.2792 637.5859,-461.9204 650.2589,-432.8818 657.8393,-410.9554"/>
<polygon fill="#000000" stroke="#000000" points="661.1699,-412.0313 660.9676,-401.4384 654.5199,-409.8454 661.1699,-412.0313"/>
<text text-anchor="middle" x="677.7859" y="-466.2792" font-family="Times,serif" font-size="20.00" fill="#000000">[NA]</text>
<text text-anchor="middle" x="677.7859" y="-444.2792" font-family="Times,serif" font-size="20.00" fill="#000000">empty</text>
</g>
<!-- SG_0_Node_34 -->
<g id="node28" class="node">
<title>SG_0_Node_34</title>
<ellipse fill="none" stroke="#000000" cx="801.7859" cy="-380.066" rx="52.1524" ry="21.4286"/>
<text text-anchor="middle" x="801.7859" y="-375.066" font-family="Times,serif" font-size="20.00" fill="#000000">0.063</text>
</g>
<!-- SG_0_Node_13&#45;&gt;SG_0_Node_34 -->
<g id="edge21" class="edge">
<title>SG_0_Node_13&#45;&gt;SG_0_Node_34</title>
<path fill="none" stroke="#000000" d="M813.3199,-522.4013C811.1389,-495.4864 807.0095,-444.5279 804.3291,-411.4506"/>
<polygon fill="#000000" stroke="#000000" points="807.8104,-411.0773 803.5141,-401.3927 800.8333,-411.6428 807.8104,-411.0773"/>
<text text-anchor="middle" x="841.7859" y="-455.2792" font-family="Times,serif" font-size="20.00" fill="#000000">empty</text>
</g>
<!-- SG_0_Node_35 -->
<g id="node29" class="node">
<title>SG_0_Node_35</title>
<ellipse fill="none" stroke="#000000" cx="924.7859" cy="-380.066" rx="52.1524" ry="21.4286"/>
<text text-anchor="middle" x="924.7859" y="-375.066" font-family="Times,serif" font-size="20.00" fill="#000000">0.375</text>
</g>
<!-- SG_0_Node_13&#45;&gt;SG_0_Node_35 -->
<g id="edge22" class="edge">
<title>SG_0_Node_13&#45;&gt;SG_0_Node_35</title>
<path fill="none" stroke="#000000" d="M838.4963,-522.4508C851.3288,-511.8031 866.7627,-497.4638 877.7859,-482.2792 893.7336,-460.3111 906.2186,-432.068 914.2999,-410.8391"/>
<polygon fill="#000000" stroke="#000000" points="917.6291,-411.9269 917.8044,-401.3336 911.0612,-409.5055 917.6291,-411.9269"/>
<text text-anchor="middle" x="962.7859" y="-466.2792" font-family="Times,serif" font-size="20.00" fill="#000000">[NA]</text>
<text text-anchor="middle" x="962.7859" y="-444.2792" font-family="Times,serif" font-size="20.00" fill="#000000">same&#45;origin</text>
</g>
<!-- SG_0_Node_36 -->
<g id="node30" class="node">
<title>SG_0_Node_36</title>
<ellipse fill="none" stroke="#000000" cx="52.7859" cy="-197.6396" rx="34.7971" ry="21.4286"/>
<text text-anchor="middle" x="52.7859" y="-192.6396" font-family="Times,serif" font-size="20.00" fill="#000000">0.0</text>
</g>
<!-- SG_0_Node_14&#45;&gt;SG_0_Node_36 -->
<g id="edge33" class="edge">
<title>SG_0_Node_14&#45;&gt;SG_0_Node_36</title>
<path fill="none" stroke="#000000" d="M85.3926,-361.8805C71.8051,-351.937 57.2031,-338.285 49.7859,-321.8528 36.526,-292.4766 39.7663,-255.0784 44.763,-229.0292"/>
<polygon fill="#000000" stroke="#000000" points="48.2478,-229.4666 46.8898,-218.9592 41.3989,-228.0201 48.2478,-229.4666"/>
<text text-anchor="middle" x="160.7859" y="-305.8528" font-family="Times,serif" font-size="20.00" fill="#000000">[NA]</text>
<text text-anchor="middle" x="160.7859" y="-283.8528" font-family="Times,serif" font-size="20.00" fill="#000000">application/javascript</text>
<text text-anchor="middle" x="160.7859" y="-261.8528" font-family="Times,serif" font-size="20.00" fill="#000000">video/mp4</text>
</g>
<!-- SG_0_Node_37 -->
<g id="node31" class="node">
<title>SG_0_Node_37</title>
<ellipse fill="none" stroke="#000000" cx="293.7859" cy="-197.6396" rx="52.1524" ry="21.4286"/>
<text text-anchor="middle" x="293.7859" y="-192.6396" font-family="Times,serif" font-size="20.00" fill="#000000">0.063</text>
</g>
<!-- SG_0_Node_14&#45;&gt;SG_0_Node_37 -->
<g id="edge34" class="edge">
<title>SG_0_Node_14&#45;&gt;SG_0_Node_37</title>
<path fill="none" stroke="#000000" d="M183.64,-362.0066C220.028,-350.9632 259.807,-336.2354 271.7859,-321.8528 283.2449,-308.0945 289.0409,-261.2355 291.7332,-229.1739"/>
<polygon fill="#000000" stroke="#000000" points="295.2434,-229.1791 292.531,-218.9373 288.2645,-228.6351 295.2434,-229.1791"/>
<text text-anchor="middle" x="343.2859" y="-283.8528" font-family="Times,serif" font-size="20.00" fill="#000000">image/png</text>
</g>
<!-- SG_0_Node_38 -->
<g id="node32" class="node">
<title>SG_0_Node_38</title>
<ellipse fill="none" stroke="#000000" cx="438.7859" cy="-197.6396" rx="34.7971" ry="21.4286"/>
<text text-anchor="middle" x="438.7859" y="-192.6396" font-family="Times,serif" font-size="20.00" fill="#000000">0.0</text>
</g>
<!-- SG_0_Node_15&#45;&gt;SG_0_Node_38 -->
<g id="edge29" class="edge">
<title>SG_0_Node_15&#45;&gt;SG_0_Node_38</title>
<path fill="none" stroke="#000000" d="M377.9186,-361.8466C387.7535,-351.0346 399.3785,-336.5926 406.7859,-321.8528 421.7265,-292.123 430.1276,-254.784 434.5333,-228.8453"/>
<polygon fill="#000000" stroke="#000000" points="438.013,-229.2498 436.1335,-218.823 431.1006,-228.1461 438.013,-229.2498"/>
<text text-anchor="middle" x="489.7859" y="-283.8528" font-family="Times,serif" font-size="20.00" fill="#000000">same&#45;origin</text>
</g>
<!-- SG_0_Node_20 -->
<g id="node33" class="node">
<title>SG_0_Node_20</title>
<polygon fill="none" stroke="#000000" points="692.2859,-215.6396 501.2859,-215.6396 501.2859,-179.6396 692.2859,-179.6396 692.2859,-215.6396"/>
<text text-anchor="middle" x="596.7859" y="-192.6396" font-family="Times,serif" font-size="20.00" fill="#000000">X&#45;Frame&#45;Options</text>
</g>
<!-- SG_0_Node_15&#45;&gt;SG_0_Node_20 -->
<g id="edge30" class="edge">
<title>SG_0_Node_15&#45;&gt;SG_0_Node_20</title>
<path fill="none" stroke="#000000" d="M447.9658,-362.043C491.842,-351.479 538.8619,-337.2143 554.7859,-321.8528 581.0807,-296.4868 590.9132,-254.1045 594.5899,-226.0123"/>
<polygon fill="#000000" stroke="#000000" points="598.0751,-226.3402 595.7191,-216.0107 591.1192,-225.5549 598.0751,-226.3402"/>
<text text-anchor="middle" x="619.7859" y="-294.8528" font-family="Times,serif" font-size="20.00" fill="#000000">[NA]</text>
<text text-anchor="middle" x="619.7859" y="-272.8528" font-family="Times,serif" font-size="20.00" fill="#000000">empty</text>
</g>
<!-- SG_0_Node_39 -->
<g id="node34" class="node">
<title>SG_0_Node_39</title>
<ellipse fill="none" stroke="#000000" cx="539.7859" cy="-37.2132" rx="52.1524" ry="21.4286"/>
<text text-anchor="middle" x="539.7859" y="-32.2132" font-family="Times,serif" font-size="20.00" fill="#000000">0.077</text>
</g>
<!-- SG_0_Node_20&#45;&gt;SG_0_Node_39 -->
<g id="edge31" class="edge">
<title>SG_0_Node_20&#45;&gt;SG_0_Node_39</title>
<path fill="none" stroke="#000000" d="M588.8468,-179.4319C583.982,-168.0269 577.7564,-152.9731 572.7859,-139.4264 564.1039,-115.7645 555.3905,-88.5951 549.0991,-68.2182"/>
<polygon fill="#000000" stroke="#000000" points="552.4044,-67.0583 546.1295,-58.5215 545.7112,-69.1081 552.4044,-67.0583"/>
<text text-anchor="middle" x="597.7859" y="-123.4264" font-family="Times,serif" font-size="20.00" fill="#000000">[NA]</text>
<text text-anchor="middle" x="597.7859" y="-101.4264" font-family="Times,serif" font-size="20.00" fill="#000000">deny</text>
</g>
<!-- SG_0_Node_40 -->
<g id="node35" class="node">
<title>SG_0_Node_40</title>
<ellipse fill="none" stroke="#000000" cx="662.7859" cy="-37.2132" rx="52.1524" ry="21.4286"/>
<text text-anchor="middle" x="662.7859" y="-32.2132" font-family="Times,serif" font-size="20.00" fill="#000000">0.167</text>
</g>
<!-- SG_0_Node_20&#45;&gt;SG_0_Node_40 -->
<g id="edge32" class="edge">
<title>SG_0_Node_20&#45;&gt;SG_0_Node_40</title>
<path fill="none" stroke="#000000" d="M605.2048,-179.3828C610.4066,-167.9593 617.1429,-152.9034 622.7859,-139.4264 632.7791,-115.5599 643.4244,-88.2563 651.2187,-67.8756"/>
<polygon fill="#000000" stroke="#000000" points="654.5117,-69.063 654.8007,-58.4721 647.9702,-66.5712 654.5117,-69.063"/>
<text text-anchor="middle" x="671.7859" y="-112.4264" font-family="Times,serif" font-size="20.00" fill="#000000">empty</text>
</g>
</g>
</svg>
