<?xml version="1.0" encoding="UTF-8" standalone="no"?>
<!DOCTYPE svg PUBLIC "-//W3C//DTD SVG 1.1//EN"
 "http://www.w3.org/Graphics/SVG/1.1/DTD/svg11.dtd">
<!-- Generated by graphviz version 2.40.1 (20161225.0304)
 -->
<!-- Title: G Pages: 1 -->
<svg width="1498pt" height="2087pt"
 viewBox="0.00 0.00 1497.68 2086.98" xmlns="http://www.w3.org/2000/svg" xmlns:xlink="http://www.w3.org/1999/xlink">
<g id="graph0" class="graph" transform="scale(1 1) rotate(0) translate(4 2082.9848)">
<title>G</title>
<polygon fill="#ffffff" stroke="transparent" points="-4,4 -4,-2082.9848 1493.6825,-2082.9848 1493.6825,4 -4,4"/>
<g id="clust1" class="cluster">
<title>cluster_0</title>
<polygon fill="none" stroke="#000000" points="21.6825,-8 21.6825,-2070.9848 1469.6825,-2070.9848 1469.6825,-8 21.6825,-8"/>
<text text-anchor="middle" x="745.6825" y="-2034.9848" font-family="Times,serif" font-size="40.00" fill="#000000">Tree 0, Class Access to win.window.name denied</text>
</g>
<!-- SG_0_Node_0 -->
<g id="node1" class="node">
<title>SG_0_Node_0</title>
<polygon fill="none" stroke="#000000" points="526.6825,-2010.9848 384.6825,-2010.9848 384.6825,-1974.9848 526.6825,-1974.9848 526.6825,-2010.9848"/>
<text text-anchor="middle" x="455.6825" y="-1987.9848" font-family="Times,serif" font-size="20.00" fill="#000000">Status&#45;Code</text>
</g>
<!-- SG_0_Node_1 -->
<g id="node2" class="node">
<title>SG_0_Node_1</title>
<polygon fill="none" stroke="#000000" points="484.1825,-1856.9848 263.1825,-1856.9848 263.1825,-1820.9848 484.1825,-1820.9848 484.1825,-1856.9848"/>
<text text-anchor="middle" x="373.6825" y="-1833.9848" font-family="Times,serif" font-size="20.00" fill="#000000">Content&#45;Disposition</text>
</g>
<!-- SG_0_Node_0&#45;&gt;SG_0_Node_1 -->
<g id="edge1" class="edge">
<title>SG_0_Node_0&#45;&gt;SG_0_Node_1</title>
<path fill="none" stroke="#000000" d="M445.954,-1974.7143C431.6519,-1947.8542 404.8507,-1897.5202 388.211,-1866.2701"/>
<polygon fill="#000000" stroke="#000000" points="391.1877,-1864.4134 383.3983,-1857.2316 385.009,-1867.7033 391.1877,-1864.4134"/>
<text text-anchor="middle" x="471.6825" y="-1910.9848" font-family="Times,serif" font-size="20.00" fill="#000000">11 levels</text>
</g>
<!-- SG_0_Node_2 -->
<g id="node3" class="node">
<title>SG_0_Node_2</title>
<polygon fill="none" stroke="#000000" points="644.6825,-1856.9848 502.6825,-1856.9848 502.6825,-1820.9848 644.6825,-1820.9848 644.6825,-1856.9848"/>
<text text-anchor="middle" x="573.6825" y="-1833.9848" font-family="Times,serif" font-size="20.00" fill="#000000">Status&#45;Code</text>
</g>
<!-- SG_0_Node_0&#45;&gt;SG_0_Node_2 -->
<g id="edge2" class="edge">
<title>SG_0_Node_0&#45;&gt;SG_0_Node_2</title>
<path fill="none" stroke="#000000" d="M481.921,-1974.9403C494.9712,-1965.0746 510.3364,-1952.0199 521.6825,-1937.9848 539.384,-1916.0884 553.7183,-1887.2274 562.8193,-1866.3208"/>
<polygon fill="#000000" stroke="#000000" points="566.0703,-1867.6191 566.7421,-1857.0456 559.6232,-1864.8924 566.0703,-1867.6191"/>
<text text-anchor="middle" x="594.6825" y="-1921.9848" font-family="Times,serif" font-size="20.00" fill="#000000">[NA]</text>
<text text-anchor="middle" x="594.6825" y="-1899.9848" font-family="Times,serif" font-size="20.00" fill="#000000">52 levels</text>
</g>
<!-- SG_0_Node_18 -->
<g id="node4" class="node">
<title>SG_0_Node_18</title>
<ellipse fill="none" stroke="#000000" cx="250.6825" cy="-1659.7716" rx="34.7971" ry="21.4286"/>
<text text-anchor="middle" x="250.6825" y="-1654.7716" font-family="Times,serif" font-size="20.00" fill="#000000">0.0</text>
</g>
<!-- SG_0_Node_1&#45;&gt;SG_0_Node_18 -->
<g id="edge23" class="edge">
<title>SG_0_Node_1&#45;&gt;SG_0_Node_18</title>
<path fill="none" stroke="#000000" d="M308.5021,-1820.8677C290.1659,-1812.5831 272.1243,-1800.7424 260.6825,-1783.9848 242.1586,-1756.8549 242.0911,-1718.2086 245.1025,-1691.2523"/>
<polygon fill="#000000" stroke="#000000" points="248.5919,-1691.5613 246.4285,-1681.1897 241.6519,-1690.6467 248.5919,-1691.5613"/>
<text text-anchor="middle" x="319.6825" y="-1756.9848" font-family="Times,serif" font-size="20.00" fill="#000000">[NA]</text>
<text text-anchor="middle" x="319.6825" y="-1734.9848" font-family="Times,serif" font-size="20.00" fill="#000000">attachment</text>
</g>
<!-- SG_0_Node_3 -->
<g id="node5" class="node">
<title>SG_0_Node_3</title>
<polygon fill="none" stroke="#000000" points="475.6825,-1677.7716 333.6825,-1677.7716 333.6825,-1641.7716 475.6825,-1641.7716 475.6825,-1677.7716"/>
<text text-anchor="middle" x="404.6825" y="-1654.7716" font-family="Times,serif" font-size="20.00" fill="#000000">Status&#45;Code</text>
</g>
<!-- SG_0_Node_1&#45;&gt;SG_0_Node_3 -->
<g id="edge24" class="edge">
<title>SG_0_Node_1&#45;&gt;SG_0_Node_3</title>
<path fill="none" stroke="#000000" d="M376.8256,-1820.8147C382.2334,-1789.5519 393.3358,-1725.3681 399.7716,-1688.1618"/>
<polygon fill="#000000" stroke="#000000" points="403.2754,-1688.4402 401.5312,-1677.9899 396.3778,-1687.247 403.2754,-1688.4402"/>
<text text-anchor="middle" x="425.6825" y="-1745.9848" font-family="Times,serif" font-size="20.00" fill="#000000">empty</text>
</g>
<!-- SG_0_Node_4 -->
<g id="node6" class="node">
<title>SG_0_Node_4</title>
<polygon fill="none" stroke="#000000" points="573.1825,-1677.7716 508.1825,-1677.7716 508.1825,-1641.7716 573.1825,-1641.7716 573.1825,-1677.7716"/>
<text text-anchor="middle" x="540.6825" y="-1654.7716" font-family="Times,serif" font-size="20.00" fill="#000000">body</text>
</g>
<!-- SG_0_Node_2&#45;&gt;SG_0_Node_4 -->
<g id="edge3" class="edge">
<title>SG_0_Node_2&#45;&gt;SG_0_Node_4</title>
<path fill="none" stroke="#000000" d="M569.465,-1820.6963C567.0592,-1810.0168 564.0592,-1796.2668 561.6825,-1783.9848 555.3199,-1751.1051 549.0555,-1713.1184 545.0482,-1687.8978"/>
<polygon fill="#000000" stroke="#000000" points="548.4903,-1687.2554 543.4753,-1677.9227 541.5757,-1688.3458 548.4903,-1687.2554"/>
<text text-anchor="middle" x="581.1825" y="-1767.9848" font-family="Times,serif" font-size="20.00" fill="#000000">300</text>
<text text-anchor="middle" x="581.1825" y="-1745.9848" font-family="Times,serif" font-size="20.00" fill="#000000">307</text>
<text text-anchor="middle" x="581.1825" y="-1723.9848" font-family="Times,serif" font-size="20.00" fill="#000000">505</text>
</g>
<!-- SG_0_Node_19 -->
<g id="node7" class="node">
<title>SG_0_Node_19</title>
<ellipse fill="none" stroke="#000000" cx="625.6825" cy="-1659.7716" rx="34.7971" ry="21.4286"/>
<text text-anchor="middle" x="625.6825" y="-1654.7716" font-family="Times,serif" font-size="20.00" fill="#000000">1.0</text>
</g>
<!-- SG_0_Node_2&#45;&gt;SG_0_Node_19 -->
<g id="edge4" class="edge">
<title>SG_0_Node_2&#45;&gt;SG_0_Node_19</title>
<path fill="none" stroke="#000000" d="M584.0306,-1820.9065C589.6583,-1810.412 596.3372,-1796.7761 600.6825,-1783.9848 611.0837,-1753.3674 617.7829,-1716.9557 621.6021,-1691.4995"/>
<polygon fill="#000000" stroke="#000000" points="625.1084,-1691.7052 623.065,-1681.3093 618.1794,-1690.7104 625.1084,-1691.7052"/>
<text text-anchor="middle" x="662.6825" y="-1756.9848" font-family="Times,serif" font-size="20.00" fill="#000000">[NA]</text>
<text text-anchor="middle" x="662.6825" y="-1734.9848" font-family="Times,serif" font-size="20.00" fill="#000000">49 levels</text>
</g>
<!-- SG_0_Node_20 -->
<g id="node8" class="node">
<title>SG_0_Node_20</title>
<ellipse fill="none" stroke="#000000" cx="307.6825" cy="-1323.3452" rx="34.7971" ry="21.4286"/>
<text text-anchor="middle" x="307.6825" y="-1318.3452" font-family="Times,serif" font-size="20.00" fill="#000000">0.0</text>
</g>
<!-- SG_0_Node_3&#45;&gt;SG_0_Node_20 -->
<g id="edge25" class="edge">
<title>SG_0_Node_3&#45;&gt;SG_0_Node_20</title>
<path fill="none" stroke="#000000" d="M390.3142,-1641.6221C382.2566,-1630.6061 372.6542,-1615.9368 366.6825,-1601.5584 331.3359,-1516.4523 316.1686,-1407.5608 310.5445,-1354.8037"/>
<polygon fill="#000000" stroke="#000000" points="314.0132,-1354.3176 309.5146,-1344.7253 307.0495,-1355.0293 314.0132,-1354.3176"/>
<text text-anchor="middle" x="386.1825" y="-1508.5584" font-family="Times,serif" font-size="20.00" fill="#000000">204</text>
<text text-anchor="middle" x="386.1825" y="-1486.5584" font-family="Times,serif" font-size="20.00" fill="#000000">205</text>
<text text-anchor="middle" x="386.1825" y="-1464.5584" font-family="Times,serif" font-size="20.00" fill="#000000">304</text>
</g>
<!-- SG_0_Node_5 -->
<g id="node9" class="node">
<title>SG_0_Node_5</title>
<polygon fill="none" stroke="#000000" points="515.1825,-1341.3452 360.1825,-1341.3452 360.1825,-1305.3452 515.1825,-1305.3452 515.1825,-1341.3452"/>
<text text-anchor="middle" x="437.6825" y="-1318.3452" font-family="Times,serif" font-size="20.00" fill="#000000">Content&#45;Type</text>
</g>
<!-- SG_0_Node_3&#45;&gt;SG_0_Node_5 -->
<g id="edge26" class="edge">
<title>SG_0_Node_3&#45;&gt;SG_0_Node_5</title>
<path fill="none" stroke="#000000" d="M406.4567,-1641.6839C411.8845,-1586.3497 428.2959,-1419.0396 434.8926,-1351.7874"/>
<polygon fill="#000000" stroke="#000000" points="438.4065,-1351.8164 435.8995,-1341.5224 431.4399,-1351.1329 438.4065,-1351.8164"/>
<text text-anchor="middle" x="451.1825" y="-1563.5584" font-family="Times,serif" font-size="20.00" fill="#000000">200</text>
<text text-anchor="middle" x="451.1825" y="-1541.5584" font-family="Times,serif" font-size="20.00" fill="#000000">201</text>
<text text-anchor="middle" x="451.1825" y="-1519.5584" font-family="Times,serif" font-size="20.00" fill="#000000">202</text>
<text text-anchor="middle" x="451.1825" y="-1497.5584" font-family="Times,serif" font-size="20.00" fill="#000000">203</text>
<text text-anchor="middle" x="451.1825" y="-1475.5584" font-family="Times,serif" font-size="20.00" fill="#000000">206</text>
<text text-anchor="middle" x="451.1825" y="-1453.5584" font-family="Times,serif" font-size="20.00" fill="#000000">207</text>
<text text-anchor="middle" x="451.1825" y="-1431.5584" font-family="Times,serif" font-size="20.00" fill="#000000">208</text>
<text text-anchor="middle" x="451.1825" y="-1409.5584" font-family="Times,serif" font-size="20.00" fill="#000000">226</text>
</g>
<!-- SG_0_Node_6 -->
<g id="node10" class="node">
<title>SG_0_Node_6</title>
<polygon fill="none" stroke="#000000" points="875.1825,-1341.3452 720.1825,-1341.3452 720.1825,-1305.3452 875.1825,-1305.3452 875.1825,-1341.3452"/>
<text text-anchor="middle" x="797.6825" y="-1318.3452" font-family="Times,serif" font-size="20.00" fill="#000000">Content&#45;Type</text>
</g>
<!-- SG_0_Node_4&#45;&gt;SG_0_Node_6 -->
<g id="edge5" class="edge">
<title>SG_0_Node_4&#45;&gt;SG_0_Node_6</title>
<path fill="none" stroke="#000000" d="M533.3257,-1641.6686C514.9978,-1593.3212 473.1091,-1459.5608 535.6825,-1381.5584 557.3835,-1354.5065 642.4338,-1339.2319 709.8235,-1331.1849"/>
<polygon fill="#000000" stroke="#000000" points="710.5195,-1334.6278 720.0512,-1330.0021 709.7153,-1327.6741 710.5195,-1334.6278"/>
<text text-anchor="middle" x="714.6825" y="-1508.5584" font-family="Times,serif" font-size="20.00" fill="#000000">ecocnt_css=h1 {color: blue}</text>
<text text-anchor="middle" x="714.6825" y="-1486.5584" font-family="Times,serif" font-size="20.00" fill="#000000">ecocnt_html=num_frames=2</text>
<text text-anchor="middle" x="714.6825" y="-1464.5584" font-family="Times,serif" font-size="20.00" fill="#000000">ecocnt_html=post_message=mes1</text>
</g>
<!-- SG_0_Node_21 -->
<g id="node11" class="node">
<title>SG_0_Node_21</title>
<ellipse fill="none" stroke="#000000" cx="927.6825" cy="-1323.3452" rx="34.7971" ry="21.4286"/>
<text text-anchor="middle" x="927.6825" y="-1318.3452" font-family="Times,serif" font-size="20.00" fill="#000000">1.0</text>
</g>
<!-- SG_0_Node_4&#45;&gt;SG_0_Node_21 -->
<g id="edge6" class="edge">
<title>SG_0_Node_4&#45;&gt;SG_0_Node_21</title>
<path fill="none" stroke="#000000" d="M572.9068,-1641.7656C575.8206,-1640.5475 578.7711,-1639.4519 581.6825,-1638.5584 648.4295,-1618.0754 844.2249,-1650.8399 893.6825,-1601.5584 959.8797,-1535.5969 945.8912,-1412.0305 934.7708,-1354.4091"/>
<polygon fill="#000000" stroke="#000000" points="938.1678,-1353.5496 932.7478,-1344.4461 931.3078,-1354.9426 938.1678,-1353.5496"/>
<text text-anchor="middle" x="1216.6825" y="-1585.5584" font-family="Times,serif" font-size="20.00" fill="#000000">[NA]</text>
<text text-anchor="middle" x="1216.6825" y="-1563.5584" font-family="Times,serif" font-size="20.00" fill="#000000">ecocnt_audio=duration=1</text>
<text text-anchor="middle" x="1216.6825" y="-1541.5584" font-family="Times,serif" font-size="20.00" fill="#000000">ecocnt_html=meta_refresh=0;http://172.17.0.1:8000</text>
<text text-anchor="middle" x="1216.6825" y="-1519.5584" font-family="Times,serif" font-size="20.00" fill="#000000">ecocnt_html=num_frames=1,input_id=test1</text>
<text text-anchor="middle" x="1216.6825" y="-1497.5584" font-family="Times,serif" font-size="20.00" fill="#000000">ecocnt_img=width=50,height=50,type=png</text>
<text text-anchor="middle" x="1216.6825" y="-1475.5584" font-family="Times,serif" font-size="20.00" fill="#000000">ecocnt_js=.,,.</text>
<text text-anchor="middle" x="1216.6825" y="-1453.5584" font-family="Times,serif" font-size="20.00" fill="#000000">ecocnt_js=var a=5;</text>
<text text-anchor="middle" x="1216.6825" y="-1431.5584" font-family="Times,serif" font-size="20.00" fill="#000000">ecocnt_pdf=a=a</text>
<text text-anchor="middle" x="1216.6825" y="-1409.5584" font-family="Times,serif" font-size="20.00" fill="#000000">ecocnt_vid=width=100,height=100,duration=2</text>
<text text-anchor="middle" x="1216.6825" y="-1387.5584" font-family="Times,serif" font-size="20.00" fill="#000000">empty</text>
</g>
<!-- SG_0_Node_7 -->
<g id="node12" class="node">
<title>SG_0_Node_7</title>
<polygon fill="none" stroke="#000000" points="456.1825,-1048.9188 391.1825,-1048.9188 391.1825,-1012.9188 456.1825,-1012.9188 456.1825,-1048.9188"/>
<text text-anchor="middle" x="423.6825" y="-1025.9188" font-family="Times,serif" font-size="20.00" fill="#000000">body</text>
</g>
<!-- SG_0_Node_5&#45;&gt;SG_0_Node_7 -->
<g id="edge27" class="edge">
<title>SG_0_Node_5&#45;&gt;SG_0_Node_7</title>
<path fill="none" stroke="#000000" d="M436.8068,-1305.0527C434.4399,-1255.6139 427.9018,-1119.049 425.0464,-1059.4074"/>
<polygon fill="#000000" stroke="#000000" points="428.5322,-1059.0257 424.5579,-1049.2045 421.5402,-1059.3605 428.5322,-1059.0257"/>
<text text-anchor="middle" x="466.6825" y="-1172.132" font-family="Times,serif" font-size="20.00" fill="#000000">empty</text>
</g>
<!-- SG_0_Node_22 -->
<g id="node13" class="node">
<title>SG_0_Node_22</title>
<ellipse fill="none" stroke="#000000" cx="523.6825" cy="-1030.9188" rx="34.7971" ry="21.4286"/>
<text text-anchor="middle" x="523.6825" y="-1025.9188" font-family="Times,serif" font-size="20.00" fill="#000000">1.0</text>
</g>
<!-- SG_0_Node_5&#45;&gt;SG_0_Node_22 -->
<g id="edge28" class="edge">
<title>SG_0_Node_5&#45;&gt;SG_0_Node_22</title>
<path fill="none" stroke="#000000" d="M465.8602,-1305.166C479.0636,-1295.0556 493.6295,-1281.2568 501.6825,-1265.132 534.6942,-1199.0322 532.0355,-1109.3914 527.6354,-1062.4905"/>
<polygon fill="#000000" stroke="#000000" points="531.0962,-1061.9293 526.5915,-1052.3398 524.1329,-1062.6454 531.0962,-1061.9293"/>
<text text-anchor="middle" x="640.6825" y="-1249.132" font-family="Times,serif" font-size="20.00" fill="#000000">[NA]</text>
<text text-anchor="middle" x="640.6825" y="-1227.132" font-family="Times,serif" font-size="20.00" fill="#000000">application/javascript</text>
<text text-anchor="middle" x="640.6825" y="-1205.132" font-family="Times,serif" font-size="20.00" fill="#000000">application/pdf</text>
<text text-anchor="middle" x="640.6825" y="-1183.132" font-family="Times,serif" font-size="20.00" fill="#000000">audio/wav</text>
<text text-anchor="middle" x="640.6825" y="-1161.132" font-family="Times,serif" font-size="20.00" fill="#000000">image/png</text>
<text text-anchor="middle" x="640.6825" y="-1139.132" font-family="Times,serif" font-size="20.00" fill="#000000">text/css</text>
<text text-anchor="middle" x="640.6825" y="-1117.132" font-family="Times,serif" font-size="20.00" fill="#000000">text/html</text>
<text text-anchor="middle" x="640.6825" y="-1095.132" font-family="Times,serif" font-size="20.00" fill="#000000">video/mp4</text>
</g>
<!-- SG_0_Node_8 -->
<g id="node14" class="node">
<title>SG_0_Node_8</title>
<polygon fill="none" stroke="#000000" points="1235.6825,-1048.9188 973.6825,-1048.9188 973.6825,-1012.9188 1235.6825,-1012.9188 1235.6825,-1048.9188"/>
<text text-anchor="middle" x="1104.6825" y="-1025.9188" font-family="Times,serif" font-size="20.00" fill="#000000">X&#45;Content&#45;Type&#45;Options</text>
</g>
<!-- SG_0_Node_6&#45;&gt;SG_0_Node_8 -->
<g id="edge7" class="edge">
<title>SG_0_Node_6&#45;&gt;SG_0_Node_8</title>
<path fill="none" stroke="#000000" d="M806.2422,-1305.2049C827.434,-1262.0674 886.4184,-1152.2632 965.6825,-1089.132 985.1114,-1073.6576 1009.2465,-1061.6545 1031.9252,-1052.6762"/>
<polygon fill="#000000" stroke="#000000" points="1033.4399,-1055.8446 1041.5375,-1049.0123 1030.9466,-1049.3036 1033.4399,-1055.8446"/>
<text text-anchor="middle" x="1076.6825" y="-1183.132" font-family="Times,serif" font-size="20.00" fill="#000000">application/javascript</text>
<text text-anchor="middle" x="1076.6825" y="-1161.132" font-family="Times,serif" font-size="20.00" fill="#000000">audio/wav</text>
</g>
<!-- SG_0_Node_23 -->
<g id="node15" class="node">
<title>SG_0_Node_23</title>
<ellipse fill="none" stroke="#000000" cx="1288.6825" cy="-1030.9188" rx="34.7971" ry="21.4286"/>
<text text-anchor="middle" x="1288.6825" y="-1025.9188" font-family="Times,serif" font-size="20.00" fill="#000000">1.0</text>
</g>
<!-- SG_0_Node_6&#45;&gt;SG_0_Node_23 -->
<g id="edge8" class="edge">
<title>SG_0_Node_6&#45;&gt;SG_0_Node_23</title>
<path fill="none" stroke="#000000" d="M867.9324,-1305.2841C873.2462,-1304.1429 878.5398,-1303.0757 883.6825,-1302.132 950.619,-1289.8495 1133.1938,-1305.9038 1187.6825,-1265.132 1253.718,-1215.7203 1277.1274,-1114.2325 1284.9815,-1062.5991"/>
<polygon fill="#000000" stroke="#000000" points="1288.4927,-1062.7667 1286.4311,-1052.3744 1281.562,-1061.7841 1288.4927,-1062.7667"/>
<text text-anchor="middle" x="1356.6825" y="-1238.132" font-family="Times,serif" font-size="20.00" fill="#000000">[NA]</text>
<text text-anchor="middle" x="1356.6825" y="-1216.132" font-family="Times,serif" font-size="20.00" fill="#000000">application/pdf</text>
<text text-anchor="middle" x="1356.6825" y="-1194.132" font-family="Times,serif" font-size="20.00" fill="#000000">empty</text>
<text text-anchor="middle" x="1356.6825" y="-1172.132" font-family="Times,serif" font-size="20.00" fill="#000000">image/png</text>
<text text-anchor="middle" x="1356.6825" y="-1150.132" font-family="Times,serif" font-size="20.00" fill="#000000">text/css</text>
<text text-anchor="middle" x="1356.6825" y="-1128.132" font-family="Times,serif" font-size="20.00" fill="#000000">text/html</text>
<text text-anchor="middle" x="1356.6825" y="-1106.132" font-family="Times,serif" font-size="20.00" fill="#000000">video/mp4</text>
</g>
<!-- SG_0_Node_9 -->
<g id="node16" class="node">
<title>SG_0_Node_9</title>
<polygon fill="none" stroke="#000000" points="291.6825,-690.4924 29.6825,-690.4924 29.6825,-654.4924 291.6825,-654.4924 291.6825,-690.4924"/>
<text text-anchor="middle" x="160.6825" y="-667.4924" font-family="Times,serif" font-size="20.00" fill="#000000">X&#45;Content&#45;Type&#45;Options</text>
</g>
<!-- SG_0_Node_7&#45;&gt;SG_0_Node_9 -->
<g id="edge29" class="edge">
<title>SG_0_Node_7&#45;&gt;SG_0_Node_9</title>
<path fill="none" stroke="#000000" d="M391.0263,-1028.2706C303.7209,-1020.8623 70.0088,-998.7545 47.6825,-972.7056 -22.3113,-891.0413 -8.3103,-822.537 47.6825,-730.7056 57.1822,-715.1257 72.3341,-703.537 88.4959,-694.9868"/>
<polygon fill="#000000" stroke="#000000" points="90.1143,-698.0914 97.5491,-690.5432 87.03,-691.8075 90.1143,-698.0914"/>
<text text-anchor="middle" x="293.1825" y="-857.7056" font-family="Times,serif" font-size="20.00" fill="#000000">ecocnt_audio=duration=1</text>
<text text-anchor="middle" x="293.1825" y="-835.7056" font-family="Times,serif" font-size="20.00" fill="#000000">ecocnt_vid=width=100,height=100,duration=2</text>
</g>
<!-- SG_0_Node_24 -->
<g id="node17" class="node">
<title>SG_0_Node_24</title>
<ellipse fill="none" stroke="#000000" cx="574.6825" cy="-672.4924" rx="34.7971" ry="21.4286"/>
<text text-anchor="middle" x="574.6825" y="-667.4924" font-family="Times,serif" font-size="20.00" fill="#000000">1.0</text>
</g>
<!-- SG_0_Node_7&#45;&gt;SG_0_Node_24 -->
<g id="edge30" class="edge">
<title>SG_0_Node_7&#45;&gt;SG_0_Node_24</title>
<path fill="none" stroke="#000000" d="M456.2944,-1019.0839C487.732,-1006.9852 532.0609,-987.8701 542.6825,-972.7056 557.8418,-951.0628 568.974,-777.247 573.0177,-704.4167"/>
<polygon fill="#000000" stroke="#000000" points="576.5341,-704.2089 573.584,-694.0331 569.5445,-703.8277 576.5341,-704.2089"/>
<text text-anchor="middle" x="843.6825" y="-956.7056" font-family="Times,serif" font-size="20.00" fill="#000000">[NA]</text>
<text text-anchor="middle" x="843.6825" y="-934.7056" font-family="Times,serif" font-size="20.00" fill="#000000">ecocnt_css=h1 {color: blue}</text>
<text text-anchor="middle" x="843.6825" y="-912.7056" font-family="Times,serif" font-size="20.00" fill="#000000">ecocnt_html=meta_refresh=0;http://172.17.0.1:8000</text>
<text text-anchor="middle" x="843.6825" y="-890.7056" font-family="Times,serif" font-size="20.00" fill="#000000">ecocnt_html=num_frames=1,input_id=test1</text>
<text text-anchor="middle" x="843.6825" y="-868.7056" font-family="Times,serif" font-size="20.00" fill="#000000">ecocnt_html=num_frames=2</text>
<text text-anchor="middle" x="843.6825" y="-846.7056" font-family="Times,serif" font-size="20.00" fill="#000000">ecocnt_html=post_message=mes1</text>
<text text-anchor="middle" x="843.6825" y="-824.7056" font-family="Times,serif" font-size="20.00" fill="#000000">ecocnt_img=width=50,height=50,type=png</text>
<text text-anchor="middle" x="843.6825" y="-802.7056" font-family="Times,serif" font-size="20.00" fill="#000000">ecocnt_js=.,,.</text>
<text text-anchor="middle" x="843.6825" y="-780.7056" font-family="Times,serif" font-size="20.00" fill="#000000">ecocnt_js=var a=5;</text>
<text text-anchor="middle" x="843.6825" y="-758.7056" font-family="Times,serif" font-size="20.00" fill="#000000">ecocnt_pdf=a=a</text>
<text text-anchor="middle" x="843.6825" y="-736.7056" font-family="Times,serif" font-size="20.00" fill="#000000">empty</text>
</g>
<!-- SG_0_Node_10 -->
<g id="node18" class="node">
<title>SG_0_Node_10</title>
<polygon fill="none" stroke="#000000" points="1195.6825,-690.4924 897.6825,-690.4924 897.6825,-654.4924 1195.6825,-654.4924 1195.6825,-690.4924"/>
<text text-anchor="middle" x="1046.6825" y="-667.4924" font-family="Times,serif" font-size="20.00" fill="#000000">Cross&#45;Origin&#45;Opener&#45;Policy</text>
</g>
<!-- SG_0_Node_8&#45;&gt;SG_0_Node_10 -->
<g id="edge9" class="edge">
<title>SG_0_Node_8&#45;&gt;SG_0_Node_10</title>
<path fill="none" stroke="#000000" d="M1111.9275,-1012.7565C1130.1611,-963.9932 1173.1529,-827.3614 1124.6825,-730.7056 1117.6613,-716.7045 1105.4982,-705.2104 1092.8373,-696.2435"/>
<polygon fill="#000000" stroke="#000000" points="1094.7638,-693.3214 1084.4945,-690.7149 1090.897,-699.1565 1094.7638,-693.3214"/>
<text text-anchor="middle" x="1178.6825" y="-857.7056" font-family="Times,serif" font-size="20.00" fill="#000000">[NA]</text>
<text text-anchor="middle" x="1178.6825" y="-835.7056" font-family="Times,serif" font-size="20.00" fill="#000000">empty</text>
</g>
<!-- SG_0_Node_25 -->
<g id="node19" class="node">
<title>SG_0_Node_25</title>
<ellipse fill="none" stroke="#000000" cx="1256.6825" cy="-672.4924" rx="34.7971" ry="21.4286"/>
<text text-anchor="middle" x="1256.6825" y="-667.4924" font-family="Times,serif" font-size="20.00" fill="#000000">1.0</text>
</g>
<!-- SG_0_Node_8&#45;&gt;SG_0_Node_25 -->
<g id="edge10" class="edge">
<title>SG_0_Node_8&#45;&gt;SG_0_Node_25</title>
<path fill="none" stroke="#000000" d="M1162.1865,-1012.7877C1181.8002,-1003.7836 1201.9677,-990.8388 1214.6825,-972.7056 1272.7088,-889.952 1267.3109,-762.4067 1260.9927,-703.8453"/>
<polygon fill="#000000" stroke="#000000" points="1264.4492,-703.2684 1259.8173,-693.7398 1257.4961,-704.0772 1264.4492,-703.2684"/>
<text text-anchor="middle" x="1299.6825" y="-846.7056" font-family="Times,serif" font-size="20.00" fill="#000000">nosniff</text>
</g>
<!-- SG_0_Node_26 -->
<g id="node20" class="node">
<title>SG_0_Node_26</title>
<ellipse fill="none" stroke="#000000" cx="112.6825" cy="-512.066" rx="34.7971" ry="21.4286"/>
<text text-anchor="middle" x="112.6825" y="-507.066" font-family="Times,serif" font-size="20.00" fill="#000000">0.0</text>
</g>
<!-- SG_0_Node_9&#45;&gt;SG_0_Node_26 -->
<g id="edge31" class="edge">
<title>SG_0_Node_9&#45;&gt;SG_0_Node_26</title>
<path fill="none" stroke="#000000" d="M147.5189,-654.2642C140.2036,-643.2212 131.6088,-628.5511 126.6825,-614.2792 118.7697,-591.3552 115.3108,-564.0876 113.8079,-543.4836"/>
<polygon fill="#000000" stroke="#000000" points="117.2936,-543.1415 113.1871,-533.3749 110.3068,-543.5706 117.2936,-543.1415"/>
<text text-anchor="middle" x="158.6825" y="-587.2792" font-family="Times,serif" font-size="20.00" fill="#000000">empty</text>
</g>
<!-- SG_0_Node_27 -->
<g id="node21" class="node">
<title>SG_0_Node_27</title>
<ellipse fill="none" stroke="#000000" cx="212.6825" cy="-512.066" rx="34.7971" ry="21.4286"/>
<text text-anchor="middle" x="212.6825" y="-507.066" font-family="Times,serif" font-size="20.00" fill="#000000">1.0</text>
</g>
<!-- SG_0_Node_9&#45;&gt;SG_0_Node_27 -->
<g id="edge32" class="edge">
<title>SG_0_Node_9&#45;&gt;SG_0_Node_27</title>
<path fill="none" stroke="#000000" d="M171.5632,-654.4382C177.9224,-643.216 185.6604,-628.3011 190.6825,-614.2792 198.9696,-591.1413 204.6448,-563.8861 208.1527,-543.3413"/>
<polygon fill="#000000" stroke="#000000" points="211.6405,-543.699 209.792,-533.2667 204.7313,-542.5748 211.6405,-543.699"/>
<text text-anchor="middle" x="237.6825" y="-598.2792" font-family="Times,serif" font-size="20.00" fill="#000000">[NA]</text>
<text text-anchor="middle" x="237.6825" y="-576.2792" font-family="Times,serif" font-size="20.00" fill="#000000">nosniff</text>
</g>
<!-- SG_0_Node_11 -->
<g id="node22" class="node">
<title>SG_0_Node_11</title>
<polygon fill="none" stroke="#000000" points="915.1825,-530.066 724.1825,-530.066 724.1825,-494.066 915.1825,-494.066 915.1825,-530.066"/>
<text text-anchor="middle" x="819.6825" y="-507.066" font-family="Times,serif" font-size="20.00" fill="#000000">X&#45;Frame&#45;Options</text>
</g>
<!-- SG_0_Node_10&#45;&gt;SG_0_Node_11 -->
<g id="edge11" class="edge">
<title>SG_0_Node_10&#45;&gt;SG_0_Node_11</title>
<path fill="none" stroke="#000000" d="M997.2132,-654.4768C973.0281,-644.4924 944.1518,-630.7552 920.6825,-614.2792 889.5863,-592.449 859.7433,-560.4177 840.6679,-538.049"/>
<polygon fill="#000000" stroke="#000000" points="843.2563,-535.6887 834.1449,-530.2818 837.8958,-540.1905 843.2563,-535.6887"/>
<text text-anchor="middle" x="981.6825" y="-598.2792" font-family="Times,serif" font-size="20.00" fill="#000000">[NA]</text>
<text text-anchor="middle" x="981.6825" y="-576.2792" font-family="Times,serif" font-size="20.00" fill="#000000">same&#45;origin</text>
</g>
<!-- SG_0_Node_28 -->
<g id="node23" class="node">
<title>SG_0_Node_28</title>
<ellipse fill="none" stroke="#000000" cx="1046.6825" cy="-512.066" rx="34.7971" ry="21.4286"/>
<text text-anchor="middle" x="1046.6825" y="-507.066" font-family="Times,serif" font-size="20.00" fill="#000000">1.0</text>
</g>
<!-- SG_0_Node_10&#45;&gt;SG_0_Node_28 -->
<g id="edge12" class="edge">
<title>SG_0_Node_10&#45;&gt;SG_0_Node_28</title>
<path fill="none" stroke="#000000" d="M1046.6825,-654.4013C1046.6825,-627.4864 1046.6825,-576.5279 1046.6825,-543.4506"/>
<polygon fill="#000000" stroke="#000000" points="1050.1826,-543.3927 1046.6825,-533.3927 1043.1826,-543.3927 1050.1826,-543.3927"/>
<text text-anchor="middle" x="1078.6825" y="-587.2792" font-family="Times,serif" font-size="20.00" fill="#000000">empty</text>
</g>
<!-- SG_0_Node_12 -->
<g id="node24" class="node">
<title>SG_0_Node_12</title>
<polygon fill="none" stroke="#000000" points="687.6825,-372.8528 545.6825,-372.8528 545.6825,-336.8528 687.6825,-336.8528 687.6825,-372.8528"/>
<text text-anchor="middle" x="616.6825" y="-349.8528" font-family="Times,serif" font-size="20.00" fill="#000000">Status&#45;Code</text>
</g>
<!-- SG_0_Node_11&#45;&gt;SG_0_Node_12 -->
<g id="edge13" class="edge">
<title>SG_0_Node_11&#45;&gt;SG_0_Node_12</title>
<path fill="none" stroke="#000000" d="M796.3958,-494.0317C759.8591,-465.7358 689.0145,-410.8703 648.0332,-379.1324"/>
<polygon fill="#000000" stroke="#000000" points="650.0588,-376.2742 640.0094,-372.9183 645.7726,-381.8086 650.0588,-376.2742"/>
<text text-anchor="middle" x="767.6825" y="-437.8528" font-family="Times,serif" font-size="20.00" fill="#000000">[NA]</text>
<text text-anchor="middle" x="767.6825" y="-415.8528" font-family="Times,serif" font-size="20.00" fill="#000000">deny</text>
</g>
<!-- SG_0_Node_13 -->
<g id="node25" class="node">
<title>SG_0_Node_13</title>
<polygon fill="none" stroke="#000000" points="890.6825,-372.8528 748.6825,-372.8528 748.6825,-336.8528 890.6825,-336.8528 890.6825,-372.8528"/>
<text text-anchor="middle" x="819.6825" y="-349.8528" font-family="Times,serif" font-size="20.00" fill="#000000">Status&#45;Code</text>
</g>
<!-- SG_0_Node_11&#45;&gt;SG_0_Node_13 -->
<g id="edge14" class="edge">
<title>SG_0_Node_11&#45;&gt;SG_0_Node_13</title>
<path fill="none" stroke="#000000" d="M819.6825,-494.0317C819.6825,-466.9307 819.6825,-415.4565 819.6825,-383.2729"/>
<polygon fill="#000000" stroke="#000000" points="823.1826,-383.1611 819.6825,-373.1611 816.1826,-383.1611 823.1826,-383.1611"/>
<text text-anchor="middle" x="851.6825" y="-426.8528" font-family="Times,serif" font-size="20.00" fill="#000000">empty</text>
</g>
<!-- SG_0_Node_14 -->
<g id="node26" class="node">
<title>SG_0_Node_14</title>
<polygon fill="none" stroke="#000000" points="474.1825,-215.6396 409.1825,-215.6396 409.1825,-179.6396 474.1825,-179.6396 474.1825,-215.6396"/>
<text text-anchor="middle" x="441.6825" y="-192.6396" font-family="Times,serif" font-size="20.00" fill="#000000">body</text>
</g>
<!-- SG_0_Node_12&#45;&gt;SG_0_Node_14 -->
<g id="edge19" class="edge">
<title>SG_0_Node_12&#45;&gt;SG_0_Node_14</title>
<path fill="none" stroke="#000000" d="M596.6078,-336.8185C565.3079,-308.6998 504.8015,-254.3433 469.3758,-222.5182"/>
<polygon fill="#000000" stroke="#000000" points="471.57,-219.7844 461.7919,-215.7051 466.8919,-224.9917 471.57,-219.7844"/>
<text text-anchor="middle" x="574.1825" y="-283.8528" font-family="Times,serif" font-size="20.00" fill="#000000">300</text>
<text text-anchor="middle" x="574.1825" y="-261.8528" font-family="Times,serif" font-size="20.00" fill="#000000">505</text>
</g>
<!-- SG_0_Node_29 -->
<g id="node27" class="node">
<title>SG_0_Node_29</title>
<ellipse fill="none" stroke="#000000" cx="616.6825" cy="-197.6396" rx="34.7971" ry="21.4286"/>
<text text-anchor="middle" x="616.6825" y="-192.6396" font-family="Times,serif" font-size="20.00" fill="#000000">1.0</text>
</g>
<!-- SG_0_Node_12&#45;&gt;SG_0_Node_29 -->
<g id="edge20" class="edge">
<title>SG_0_Node_12&#45;&gt;SG_0_Node_29</title>
<path fill="none" stroke="#000000" d="M616.6825,-336.8185C616.6825,-310.587 616.6825,-261.5213 616.6825,-229.2157"/>
<polygon fill="#000000" stroke="#000000" points="620.1826,-228.9596 616.6825,-218.9596 613.1826,-228.9597 620.1826,-228.9596"/>
<text text-anchor="middle" x="636.1825" y="-272.8528" font-family="Times,serif" font-size="20.00" fill="#000000">307</text>
</g>
<!-- SG_0_Node_15 -->
<g id="node28" class="node">
<title>SG_0_Node_15</title>
<polygon fill="none" stroke="#000000" points="836.1825,-215.6396 771.1825,-215.6396 771.1825,-179.6396 836.1825,-179.6396 836.1825,-215.6396"/>
<text text-anchor="middle" x="803.6825" y="-192.6396" font-family="Times,serif" font-size="20.00" fill="#000000">body</text>
</g>
<!-- SG_0_Node_13&#45;&gt;SG_0_Node_15 -->
<g id="edge15" class="edge">
<title>SG_0_Node_13&#45;&gt;SG_0_Node_15</title>
<path fill="none" stroke="#000000" d="M817.8471,-336.8185C815.089,-309.7175 809.8503,-258.2433 806.5749,-226.0597"/>
<polygon fill="#000000" stroke="#000000" points="810.0404,-225.5421 805.5458,-215.9479 803.0764,-226.2509 810.0404,-225.5421"/>
<text text-anchor="middle" x="833.1825" y="-272.8528" font-family="Times,serif" font-size="20.00" fill="#000000">307</text>
</g>
<!-- SG_0_Node_30 -->
<g id="node29" class="node">
<title>SG_0_Node_30</title>
<ellipse fill="none" stroke="#000000" cx="888.6825" cy="-197.6396" rx="34.7971" ry="21.4286"/>
<text text-anchor="middle" x="888.6825" y="-192.6396" font-family="Times,serif" font-size="20.00" fill="#000000">1.0</text>
</g>
<!-- SG_0_Node_13&#45;&gt;SG_0_Node_30 -->
<g id="edge16" class="edge">
<title>SG_0_Node_13&#45;&gt;SG_0_Node_30</title>
<path fill="none" stroke="#000000" d="M833.759,-336.8201C841.3429,-326.4514 850.4042,-312.9235 856.6825,-299.8528 867.7025,-276.9108 876.0862,-249.2818 881.5025,-228.5363"/>
<polygon fill="#000000" stroke="#000000" points="884.9398,-229.219 883.992,-218.6666 878.1524,-227.5069 884.9398,-229.219"/>
<text text-anchor="middle" x="892.1825" y="-283.8528" font-family="Times,serif" font-size="20.00" fill="#000000">300</text>
<text text-anchor="middle" x="892.1825" y="-261.8528" font-family="Times,serif" font-size="20.00" fill="#000000">505</text>
</g>
<!-- SG_0_Node_31 -->
<g id="node30" class="node">
<title>SG_0_Node_31</title>
<ellipse fill="none" stroke="#000000" cx="73.6825" cy="-37.2132" rx="43.6818" ry="21.4286"/>
<text text-anchor="middle" x="73.6825" y="-32.2132" font-family="Times,serif" font-size="20.00" fill="#000000">0.97</text>
</g>
<!-- SG_0_Node_14&#45;&gt;SG_0_Node_31 -->
<g id="edge21" class="edge">
<title>SG_0_Node_14&#45;&gt;SG_0_Node_31</title>
<path fill="none" stroke="#000000" d="M409.0933,-194.715C324.2845,-186.7869 101.7456,-163.8339 79.6825,-139.4264 62.7032,-120.643 62.7613,-91.1176 66.1539,-68.6194"/>
<polygon fill="#000000" stroke="#000000" points="69.6431,-68.9902 67.9622,-58.5295 62.7529,-67.7552 69.6431,-68.9902"/>
<text text-anchor="middle" x="258.6825" y="-123.4264" font-family="Times,serif" font-size="20.00" fill="#000000">ecocnt_html=num_frames=2</text>
<text text-anchor="middle" x="258.6825" y="-101.4264" font-family="Times,serif" font-size="20.00" fill="#000000">ecocnt_html=post_message=mes1</text>
</g>
<!-- SG_0_Node_32 -->
<g id="node31" class="node">
<title>SG_0_Node_32</title>
<ellipse fill="none" stroke="#000000" cx="441.6825" cy="-37.2132" rx="34.7971" ry="21.4286"/>
<text text-anchor="middle" x="441.6825" y="-32.2132" font-family="Times,serif" font-size="20.00" fill="#000000">1.0</text>
</g>
<!-- SG_0_Node_14&#45;&gt;SG_0_Node_32 -->
<g id="edge22" class="edge">
<title>SG_0_Node_14&#45;&gt;SG_0_Node_32</title>
<path fill="none" stroke="#000000" d="M441.6825,-179.5485C441.6825,-152.6336 441.6825,-101.6751 441.6825,-68.5978"/>
<polygon fill="#000000" stroke="#000000" points="445.1826,-68.5399 441.6825,-58.5399 438.1826,-68.5399 445.1826,-68.5399"/>
<text text-anchor="middle" x="589.1825" y="-112.4264" font-family="Times,serif" font-size="20.00" fill="#000000">ecocnt_css=h1 {color: blue}</text>
</g>
<!-- SG_0_Node_33 -->
<g id="node32" class="node">
<title>SG_0_Node_33</title>
<ellipse fill="none" stroke="#000000" cx="772.6825" cy="-37.2132" rx="52.1524" ry="21.4286"/>
<text text-anchor="middle" x="772.6825" y="-32.2132" font-family="Times,serif" font-size="20.00" fill="#000000">0.941</text>
</g>
<!-- SG_0_Node_15&#45;&gt;SG_0_Node_33 -->
<g id="edge17" class="edge">
<title>SG_0_Node_15&#45;&gt;SG_0_Node_33</title>
<path fill="none" stroke="#000000" d="M797.6212,-179.4638C794.0105,-168.0708 789.5813,-153.0185 786.6825,-139.4264 781.6559,-115.8577 778.0459,-88.8291 775.7518,-68.4877"/>
<polygon fill="#000000" stroke="#000000" points="779.2281,-68.0788 774.6716,-58.5138 772.2688,-68.8326 779.2281,-68.0788"/>
<text text-anchor="middle" x="934.1825" y="-112.4264" font-family="Times,serif" font-size="20.00" fill="#000000">ecocnt_css=h1 {color: blue}</text>
</g>
<!-- SG_0_Node_34 -->
<g id="node33" class="node">
<title>SG_0_Node_34</title>
<ellipse fill="none" stroke="#000000" cx="1103.6825" cy="-37.2132" rx="34.7971" ry="21.4286"/>
<text text-anchor="middle" x="1103.6825" y="-32.2132" font-family="Times,serif" font-size="20.00" fill="#000000">1.0</text>
</g>
<!-- SG_0_Node_15&#45;&gt;SG_0_Node_34 -->
<g id="edge18" class="edge">
<title>SG_0_Node_15&#45;&gt;SG_0_Node_34</title>
<path fill="none" stroke="#000000" d="M836.4027,-179.5545C839.1586,-178.3878 841.9403,-177.3235 844.6825,-176.4264 946.0076,-143.2788 1004.1759,-212.6266 1081.6825,-139.4264 1100.5938,-121.5658 1105.2265,-91.672 1105.6405,-68.8138"/>
<polygon fill="#000000" stroke="#000000" points="1109.1385,-68.5308 1105.5597,-58.5587 1102.1387,-68.586 1109.1385,-68.5308"/>
<text text-anchor="middle" x="1281.6825" y="-123.4264" font-family="Times,serif" font-size="20.00" fill="#000000">ecocnt_html=num_frames=2</text>
<text text-anchor="middle" x="1281.6825" y="-101.4264" font-family="Times,serif" font-size="20.00" fill="#000000">ecocnt_html=post_message=mes1</text>
</g>
</g>
</svg>
