<?xml version="1.0" encoding="UTF-8" standalone="no"?>
<!DOCTYPE svg PUBLIC "-//W3C//DTD SVG 1.1//EN"
 "http://www.w3.org/Graphics/SVG/1.1/DTD/svg11.dtd">
<!-- Generated by graphviz version 2.40.1 (20161225.0304)
 -->
<!-- Title: G Pages: 1 -->
<svg width="1139pt" height="1553pt"
 viewBox="0.00 0.00 1139.00 1552.56" xmlns="http://www.w3.org/2000/svg" xmlns:xlink="http://www.w3.org/1999/xlink">
<g id="graph0" class="graph" transform="scale(1 1) rotate(0) translate(4 1548.5584)">
<title>G</title>
<polygon fill="#ffffff" stroke="transparent" points="-4,4 -4,-1548.5584 1135,-1548.5584 1135,4 -4,4"/>
<g id="clust1" class="cluster">
<title>cluster_0</title>
<polygon fill="none" stroke="#000000" points="8,-8 8,-1536.5584 1115,-1536.5584 1115,-8 8,-8"/>
<text text-anchor="middle" x="561.5" y="-1500.5584" font-family="Times,serif" font-size="40.00" fill="#000000">Tree 0, Class Access to win.window.name denied</text>
</g>
<!-- SG_0_Node_0 -->
<g id="node1" class="node">
<title>SG_0_Node_0</title>
<polygon fill="none" stroke="#000000" points="318,-1476.5584 176,-1476.5584 176,-1440.5584 318,-1440.5584 318,-1476.5584"/>
<text text-anchor="middle" x="247" y="-1453.5584" font-family="Times,serif" font-size="20.00" fill="#000000">Status&#45;Code</text>
</g>
<!-- SG_0_Node_1 -->
<g id="node2" class="node">
<title>SG_0_Node_1</title>
<polygon fill="none" stroke="#000000" points="275.5,-1319.3452 54.5,-1319.3452 54.5,-1283.3452 275.5,-1283.3452 275.5,-1319.3452"/>
<text text-anchor="middle" x="165" y="-1296.3452" font-family="Times,serif" font-size="20.00" fill="#000000">Content&#45;Disposition</text>
</g>
<!-- SG_0_Node_0&#45;&gt;SG_0_Node_1 -->
<g id="edge1" class="edge">
<title>SG_0_Node_0&#45;&gt;SG_0_Node_1</title>
<path fill="none" stroke="#000000" d="M215.2914,-1440.4821C201.916,-1431.1921 187.5016,-1418.6363 179,-1403.5584 166.2818,-1381.0022 163.4635,-1351.3236 163.4197,-1329.7612"/>
<polygon fill="#000000" stroke="#000000" points="166.9219,-1329.6616 163.6006,-1319.6008 159.923,-1329.5368 166.9219,-1329.6616"/>
<text text-anchor="middle" x="225" y="-1376.5584" font-family="Times,serif" font-size="20.00" fill="#000000">11 levels</text>
</g>
<!-- SG_0_Node_6 -->
<g id="node3" class="node">
<title>SG_0_Node_6</title>
<ellipse fill="none" stroke="#000000" cx="328" cy="-1301.3452" rx="34.7971" ry="21.4286"/>
<text text-anchor="middle" x="328" y="-1296.3452" font-family="Times,serif" font-size="20.00" fill="#000000">1.0</text>
</g>
<!-- SG_0_Node_0&#45;&gt;SG_0_Node_6 -->
<g id="edge2" class="edge">
<title>SG_0_Node_0&#45;&gt;SG_0_Node_6</title>
<path fill="none" stroke="#000000" d="M256.2917,-1440.5241C270.1344,-1413.6569 296.3189,-1362.8351 312.926,-1330.6025"/>
<polygon fill="#000000" stroke="#000000" points="316.0741,-1332.134 317.5429,-1321.6415 309.8514,-1328.9279 316.0741,-1332.134"/>
<text text-anchor="middle" x="343" y="-1387.5584" font-family="Times,serif" font-size="20.00" fill="#000000">[NA]</text>
<text text-anchor="middle" x="343" y="-1365.5584" font-family="Times,serif" font-size="20.00" fill="#000000">52 levels</text>
</g>
<!-- SG_0_Node_7 -->
<g id="node4" class="node">
<title>SG_0_Node_7</title>
<ellipse fill="none" stroke="#000000" cx="108" cy="-1140.9188" rx="34.7971" ry="21.4286"/>
<text text-anchor="middle" x="108" y="-1135.9188" font-family="Times,serif" font-size="20.00" fill="#000000">0.0</text>
</g>
<!-- SG_0_Node_1&#45;&gt;SG_0_Node_7 -->
<g id="edge3" class="edge">
<title>SG_0_Node_1&#45;&gt;SG_0_Node_7</title>
<path fill="none" stroke="#000000" d="M147.8263,-1283.158C138.6397,-1272.3564 128.0101,-1257.9141 122,-1243.132 112.8661,-1220.6666 109.4777,-1193.3725 108.3123,-1172.6418"/>
<polygon fill="#000000" stroke="#000000" points="111.8014,-1172.3048 107.8869,-1162.4596 104.8075,-1172.5971 111.8014,-1172.3048"/>
<text text-anchor="middle" x="181" y="-1227.132" font-family="Times,serif" font-size="20.00" fill="#000000">[NA]</text>
<text text-anchor="middle" x="181" y="-1205.132" font-family="Times,serif" font-size="20.00" fill="#000000">attachment</text>
</g>
<!-- SG_0_Node_2 -->
<g id="node5" class="node">
<title>SG_0_Node_2</title>
<polygon fill="none" stroke="#000000" points="333,-1158.9188 191,-1158.9188 191,-1122.9188 333,-1122.9188 333,-1158.9188"/>
<text text-anchor="middle" x="262" y="-1135.9188" font-family="Times,serif" font-size="20.00" fill="#000000">Status&#45;Code</text>
</g>
<!-- SG_0_Node_1&#45;&gt;SG_0_Node_2 -->
<g id="edge4" class="edge">
<title>SG_0_Node_1&#45;&gt;SG_0_Node_2</title>
<path fill="none" stroke="#000000" d="M197.8593,-1283.1879C212.9022,-1273.2511 229.6459,-1259.5967 240,-1243.132 254.053,-1220.7855 259.2393,-1190.8422 261.0977,-1169.1449"/>
<polygon fill="#000000" stroke="#000000" points="264.6057,-1169.1417 261.7814,-1158.9302 257.6213,-1168.6741 264.6057,-1169.1417"/>
<text text-anchor="middle" x="288" y="-1216.132" font-family="Times,serif" font-size="20.00" fill="#000000">empty</text>
</g>
<!-- SG_0_Node_8 -->
<g id="node6" class="node">
<title>SG_0_Node_8</title>
<ellipse fill="none" stroke="#000000" cx="197" cy="-848.4924" rx="34.7971" ry="21.4286"/>
<text text-anchor="middle" x="197" y="-843.4924" font-family="Times,serif" font-size="20.00" fill="#000000">0.0</text>
</g>
<!-- SG_0_Node_2&#45;&gt;SG_0_Node_8 -->
<g id="edge5" class="edge">
<title>SG_0_Node_2&#45;&gt;SG_0_Node_8</title>
<path fill="none" stroke="#000000" d="M257.934,-1122.6262C247.1094,-1073.928 217.4943,-940.6938 203.9394,-879.712"/>
<polygon fill="#000000" stroke="#000000" points="207.3414,-878.8864 201.7549,-869.8842 200.5082,-880.4054 207.3414,-878.8864"/>
<text text-anchor="middle" x="267.5" y="-1011.7056" font-family="Times,serif" font-size="20.00" fill="#000000">204</text>
<text text-anchor="middle" x="267.5" y="-989.7056" font-family="Times,serif" font-size="20.00" fill="#000000">205</text>
<text text-anchor="middle" x="267.5" y="-967.7056" font-family="Times,serif" font-size="20.00" fill="#000000">304</text>
</g>
<!-- SG_0_Node_3 -->
<g id="node7" class="node">
<title>SG_0_Node_3</title>
<polygon fill="none" stroke="#000000" points="404.5,-866.4924 249.5,-866.4924 249.5,-830.4924 404.5,-830.4924 404.5,-866.4924"/>
<text text-anchor="middle" x="327" y="-843.4924" font-family="Times,serif" font-size="20.00" fill="#000000">Content&#45;Type</text>
</g>
<!-- SG_0_Node_2&#45;&gt;SG_0_Node_3 -->
<g id="edge6" class="edge">
<title>SG_0_Node_2&#45;&gt;SG_0_Node_3</title>
<path fill="none" stroke="#000000" d="M272.9329,-1122.662C279.1504,-1111.4893 286.5593,-1096.6962 291,-1082.7056 313.8809,-1010.6181 322.4645,-921.2804 325.4855,-876.6448"/>
<polygon fill="#000000" stroke="#000000" points="328.9856,-876.7514 326.1242,-866.5503 321.9996,-876.3093 328.9856,-876.7514"/>
<text text-anchor="middle" x="342.5" y="-1066.7056" font-family="Times,serif" font-size="20.00" fill="#000000">200</text>
<text text-anchor="middle" x="342.5" y="-1044.7056" font-family="Times,serif" font-size="20.00" fill="#000000">201</text>
<text text-anchor="middle" x="342.5" y="-1022.7056" font-family="Times,serif" font-size="20.00" fill="#000000">202</text>
<text text-anchor="middle" x="342.5" y="-1000.7056" font-family="Times,serif" font-size="20.00" fill="#000000">203</text>
<text text-anchor="middle" x="342.5" y="-978.7056" font-family="Times,serif" font-size="20.00" fill="#000000">206</text>
<text text-anchor="middle" x="342.5" y="-956.7056" font-family="Times,serif" font-size="20.00" fill="#000000">207</text>
<text text-anchor="middle" x="342.5" y="-934.7056" font-family="Times,serif" font-size="20.00" fill="#000000">208</text>
<text text-anchor="middle" x="342.5" y="-912.7056" font-family="Times,serif" font-size="20.00" fill="#000000">226</text>
</g>
<!-- SG_0_Node_4 -->
<g id="node8" class="node">
<title>SG_0_Node_4</title>
<polygon fill="none" stroke="#000000" points="309.5,-574.066 244.5,-574.066 244.5,-538.066 309.5,-538.066 309.5,-574.066"/>
<text text-anchor="middle" x="277" y="-551.066" font-family="Times,serif" font-size="20.00" fill="#000000">body</text>
</g>
<!-- SG_0_Node_3&#45;&gt;SG_0_Node_4 -->
<g id="edge7" class="edge">
<title>SG_0_Node_3&#45;&gt;SG_0_Node_4</title>
<path fill="none" stroke="#000000" d="M312.4449,-830.2608C304.5933,-819.3325 295.5933,-804.7792 291,-790.2792 268.385,-718.8884 271.0311,-629.2467 274.3196,-584.3844"/>
<polygon fill="#000000" stroke="#000000" points="277.8228,-584.4836 275.1323,-574.236 270.8451,-583.9247 277.8228,-584.4836"/>
<text text-anchor="middle" x="323" y="-697.2792" font-family="Times,serif" font-size="20.00" fill="#000000">empty</text>
</g>
<!-- SG_0_Node_9 -->
<g id="node9" class="node">
<title>SG_0_Node_9</title>
<ellipse fill="none" stroke="#000000" cx="377" cy="-556.066" rx="34.7971" ry="21.4286"/>
<text text-anchor="middle" x="377" y="-551.066" font-family="Times,serif" font-size="20.00" fill="#000000">1.0</text>
</g>
<!-- SG_0_Node_3&#45;&gt;SG_0_Node_9 -->
<g id="edge8" class="edge">
<title>SG_0_Node_3&#45;&gt;SG_0_Node_9</title>
<path fill="none" stroke="#000000" d="M337.8357,-830.2767C343.9379,-819.1185 351.0974,-804.3264 355,-790.2792 374.5845,-719.7872 377.5327,-633.2643 377.5376,-587.6635"/>
<polygon fill="#000000" stroke="#000000" points="381.037,-587.4977 377.4891,-577.5146 374.037,-587.5313 381.037,-587.4977"/>
<text text-anchor="middle" x="488" y="-774.2792" font-family="Times,serif" font-size="20.00" fill="#000000">[NA]</text>
<text text-anchor="middle" x="488" y="-752.2792" font-family="Times,serif" font-size="20.00" fill="#000000">application/javascript</text>
<text text-anchor="middle" x="488" y="-730.2792" font-family="Times,serif" font-size="20.00" fill="#000000">application/pdf</text>
<text text-anchor="middle" x="488" y="-708.2792" font-family="Times,serif" font-size="20.00" fill="#000000">audio/wav</text>
<text text-anchor="middle" x="488" y="-686.2792" font-family="Times,serif" font-size="20.00" fill="#000000">image/png</text>
<text text-anchor="middle" x="488" y="-664.2792" font-family="Times,serif" font-size="20.00" fill="#000000">text/css</text>
<text text-anchor="middle" x="488" y="-642.2792" font-family="Times,serif" font-size="20.00" fill="#000000">text/html</text>
<text text-anchor="middle" x="488" y="-620.2792" font-family="Times,serif" font-size="20.00" fill="#000000">video/mp4</text>
</g>
<!-- SG_0_Node_5 -->
<g id="node10" class="node">
<title>SG_0_Node_5</title>
<polygon fill="none" stroke="#000000" points="278,-215.6396 16,-215.6396 16,-179.6396 278,-179.6396 278,-215.6396"/>
<text text-anchor="middle" x="147" y="-192.6396" font-family="Times,serif" font-size="20.00" fill="#000000">X&#45;Content&#45;Type&#45;Options</text>
</g>
<!-- SG_0_Node_4&#45;&gt;SG_0_Node_5 -->
<g id="edge9" class="edge">
<title>SG_0_Node_4&#45;&gt;SG_0_Node_5</title>
<path fill="none" stroke="#000000" d="M244.408,-552.6412C187.0812,-545.872 71.985,-528.6978 48,-497.8528 -18.0232,-412.9462 -5.4067,-349.2119 48,-255.8528 56.6487,-240.7343 70.9224,-229.1553 85.9753,-220.4606"/>
<polygon fill="#000000" stroke="#000000" points="87.7394,-223.4861 94.8916,-215.6697 84.4261,-217.3198 87.7394,-223.4861"/>
<text text-anchor="middle" x="293.5" y="-382.8528" font-family="Times,serif" font-size="20.00" fill="#000000">ecocnt_audio=duration=1</text>
<text text-anchor="middle" x="293.5" y="-360.8528" font-family="Times,serif" font-size="20.00" fill="#000000">ecocnt_vid=width=100,height=100,duration=2</text>
</g>
<!-- SG_0_Node_10 -->
<g id="node11" class="node">
<title>SG_0_Node_10</title>
<ellipse fill="none" stroke="#000000" cx="561" cy="-197.6396" rx="34.7971" ry="21.4286"/>
<text text-anchor="middle" x="561" y="-192.6396" font-family="Times,serif" font-size="20.00" fill="#000000">1.0</text>
</g>
<!-- SG_0_Node_4&#45;&gt;SG_0_Node_10 -->
<g id="edge10" class="edge">
<title>SG_0_Node_4&#45;&gt;SG_0_Node_10</title>
<path fill="none" stroke="#000000" d="M309.5325,-542.5866C317.1442,-539.757 325.2846,-536.9874 333,-534.8528 422.6528,-510.0493 476.7517,-566.9758 539,-497.8528 606.7965,-422.5688 584.5289,-289.1467 569.7242,-228.8105"/>
<polygon fill="#000000" stroke="#000000" points="573.0237,-227.5851 567.1593,-218.7613 566.2411,-229.3163 573.0237,-227.5851"/>
<text text-anchor="middle" x="858" y="-481.8528" font-family="Times,serif" font-size="20.00" fill="#000000">[NA]</text>
<text text-anchor="middle" x="858" y="-459.8528" font-family="Times,serif" font-size="20.00" fill="#000000">ecocnt_css=h1 {color: blue}</text>
<text text-anchor="middle" x="858" y="-437.8528" font-family="Times,serif" font-size="20.00" fill="#000000">ecocnt_html=meta_refresh=0;http://172.17.0.1:8000</text>
<text text-anchor="middle" x="858" y="-415.8528" font-family="Times,serif" font-size="20.00" fill="#000000">ecocnt_html=num_frames=1,input_id=test1</text>
<text text-anchor="middle" x="858" y="-393.8528" font-family="Times,serif" font-size="20.00" fill="#000000">ecocnt_html=num_frames=2</text>
<text text-anchor="middle" x="858" y="-371.8528" font-family="Times,serif" font-size="20.00" fill="#000000">ecocnt_html=post_message=mes1</text>
<text text-anchor="middle" x="858" y="-349.8528" font-family="Times,serif" font-size="20.00" fill="#000000">ecocnt_img=width=50,height=50,type=png</text>
<text text-anchor="middle" x="858" y="-327.8528" font-family="Times,serif" font-size="20.00" fill="#000000">ecocnt_js=.,,.</text>
<text text-anchor="middle" x="858" y="-305.8528" font-family="Times,serif" font-size="20.00" fill="#000000">ecocnt_js=var a=5;</text>
<text text-anchor="middle" x="858" y="-283.8528" font-family="Times,serif" font-size="20.00" fill="#000000">ecocnt_pdf=a=a</text>
<text text-anchor="middle" x="858" y="-261.8528" font-family="Times,serif" font-size="20.00" fill="#000000">empty</text>
</g>
<!-- SG_0_Node_11 -->
<g id="node12" class="node">
<title>SG_0_Node_11</title>
<ellipse fill="none" stroke="#000000" cx="99" cy="-37.2132" rx="34.7971" ry="21.4286"/>
<text text-anchor="middle" x="99" y="-32.2132" font-family="Times,serif" font-size="20.00" fill="#000000">0.0</text>
</g>
<!-- SG_0_Node_5&#45;&gt;SG_0_Node_11 -->
<g id="edge11" class="edge">
<title>SG_0_Node_5&#45;&gt;SG_0_Node_11</title>
<path fill="none" stroke="#000000" d="M133.8364,-179.4114C126.5211,-168.3683 117.9263,-153.6983 113,-139.4264 105.0872,-116.5024 101.6283,-89.2347 100.1254,-68.6308"/>
<polygon fill="#000000" stroke="#000000" points="103.6111,-68.2886 99.5046,-58.522 96.6242,-68.7178 103.6111,-68.2886"/>
<text text-anchor="middle" x="145" y="-112.4264" font-family="Times,serif" font-size="20.00" fill="#000000">empty</text>
</g>
<!-- SG_0_Node_12 -->
<g id="node13" class="node">
<title>SG_0_Node_12</title>
<ellipse fill="none" stroke="#000000" cx="199" cy="-37.2132" rx="34.7971" ry="21.4286"/>
<text text-anchor="middle" x="199" y="-32.2132" font-family="Times,serif" font-size="20.00" fill="#000000">1.0</text>
</g>
<!-- SG_0_Node_5&#45;&gt;SG_0_Node_12 -->
<g id="edge12" class="edge">
<title>SG_0_Node_5&#45;&gt;SG_0_Node_12</title>
<path fill="none" stroke="#000000" d="M157.8807,-179.5854C164.2399,-168.3632 171.9779,-153.4483 177,-139.4264 185.2871,-116.2885 190.9623,-89.0333 194.4702,-68.4885"/>
<polygon fill="#000000" stroke="#000000" points="197.958,-68.8462 196.1095,-58.4139 191.0488,-67.7219 197.958,-68.8462"/>
<text text-anchor="middle" x="224" y="-123.4264" font-family="Times,serif" font-size="20.00" fill="#000000">[NA]</text>
<text text-anchor="middle" x="224" y="-101.4264" font-family="Times,serif" font-size="20.00" fill="#000000">nosniff</text>
</g>
</g>
</svg>
