<?xml version="1.0" encoding="UTF-8" standalone="no"?>
<!DOCTYPE svg PUBLIC "-//W3C//DTD SVG 1.1//EN"
 "http://www.w3.org/Graphics/SVG/1.1/DTD/svg11.dtd">
<!-- Generated by graphviz version 2.40.1 (20161225.0304)
 -->
<!-- Title: G Pages: 1 -->
<svg width="1953pt" height="2159pt"
 viewBox="0.00 0.00 1953.00 2159.41" xmlns="http://www.w3.org/2000/svg" xmlns:xlink="http://www.w3.org/1999/xlink">
<g id="graph0" class="graph" transform="scale(1 1) rotate(0) translate(4 2155.4113)">
<title>G</title>
<polygon fill="#ffffff" stroke="transparent" points="-4,4 -4,-2155.4113 1949,-2155.4113 1949,4 -4,4"/>
<g id="clust1" class="cluster">
<title>cluster_0</title>
<polygon fill="none" stroke="#000000" points="8,-8 8,-2143.4113 1914,-2143.4113 1914,-8 8,-8"/>
<text text-anchor="middle" x="961" y="-2107.4113" font-family="Times,serif" font-size="40.00" fill="#000000">Tree 0, Class evaluates to false</text>
</g>
<!-- SG_0_Node_0 -->
<g id="node1" class="node">
<title>SG_0_Node_0</title>
<polygon fill="none" stroke="#000000" points="735,-2083.4113 437,-2083.4113 437,-2047.4113 735,-2047.4113 735,-2083.4113"/>
<text text-anchor="middle" x="586" y="-2060.4113" font-family="Times,serif" font-size="20.00" fill="#000000">Cross&#45;Origin&#45;Opener&#45;Policy</text>
</g>
<!-- SG_0_Node_1 -->
<g id="node2" class="node">
<title>SG_0_Node_1</title>
<polygon fill="none" stroke="#000000" points="540,-1929.4113 398,-1929.4113 398,-1893.4113 540,-1893.4113 540,-1929.4113"/>
<text text-anchor="middle" x="469" y="-1906.4113" font-family="Times,serif" font-size="20.00" fill="#000000">Status&#45;Code</text>
</g>
<!-- SG_0_Node_0&#45;&gt;SG_0_Node_1 -->
<g id="edge1" class="edge">
<title>SG_0_Node_0&#45;&gt;SG_0_Node_1</title>
<path fill="none" stroke="#000000" d="M572.1191,-2047.1407C551.5365,-2020.0491 512.811,-1969.077 489.119,-1937.8926"/>
<polygon fill="#000000" stroke="#000000" points="491.6993,-1935.5033 482.8628,-1929.658 486.1255,-1939.738 491.6993,-1935.5033"/>
<text text-anchor="middle" x="575" y="-1983.4113" font-family="Times,serif" font-size="20.00" fill="#000000">empty</text>
</g>
<!-- SG_0_Node_2 -->
<g id="node3" class="node">
<title>SG_0_Node_2</title>
<polygon fill="none" stroke="#000000" points="776,-1929.4113 634,-1929.4113 634,-1893.4113 776,-1893.4113 776,-1929.4113"/>
<text text-anchor="middle" x="705" y="-1906.4113" font-family="Times,serif" font-size="20.00" fill="#000000">Status&#45;Code</text>
</g>
<!-- SG_0_Node_0&#45;&gt;SG_0_Node_2 -->
<g id="edge2" class="edge">
<title>SG_0_Node_0&#45;&gt;SG_0_Node_2</title>
<path fill="none" stroke="#000000" d="M600.1182,-2047.1407C621.0526,-2020.0491 660.4401,-1969.077 684.5371,-1937.8926"/>
<polygon fill="#000000" stroke="#000000" points="687.5552,-1939.711 690.9002,-1929.658 682.0162,-1935.4308 687.5552,-1939.711"/>
<text text-anchor="middle" x="723" y="-1994.4113" font-family="Times,serif" font-size="20.00" fill="#000000">[NA]</text>
<text text-anchor="middle" x="723" y="-1972.4113" font-family="Times,serif" font-size="20.00" fill="#000000">same&#45;origin</text>
</g>
<!-- SG_0_Node_23 -->
<g id="node4" class="node">
<title>SG_0_Node_23</title>
<ellipse fill="none" stroke="#000000" cx="306" cy="-1622.1981" rx="34.7971" ry="21.4286"/>
<text text-anchor="middle" x="306" y="-1617.1981" font-family="Times,serif" font-size="20.00" fill="#000000">0.0</text>
</g>
<!-- SG_0_Node_1&#45;&gt;SG_0_Node_23 -->
<g id="edge21" class="edge">
<title>SG_0_Node_1&#45;&gt;SG_0_Node_23</title>
<path fill="none" stroke="#000000" d="M421.6801,-1893.399C404.1741,-1884.6231 385.5569,-1872.4387 373,-1856.4113 325.3503,-1795.5919 311.5882,-1702.3051 307.6137,-1653.8603"/>
<polygon fill="#000000" stroke="#000000" points="311.0888,-1653.3899 306.8695,-1643.6715 304.1074,-1653.8999 311.0888,-1653.3899"/>
<text text-anchor="middle" x="419" y="-1774.4113" font-family="Times,serif" font-size="20.00" fill="#000000">[NA]</text>
<text text-anchor="middle" x="419" y="-1752.4113" font-family="Times,serif" font-size="20.00" fill="#000000">55 levels</text>
</g>
<!-- SG_0_Node_3 -->
<g id="node5" class="node">
<title>SG_0_Node_3</title>
<polygon fill="none" stroke="#000000" points="579.5,-1640.1981 358.5,-1640.1981 358.5,-1604.1981 579.5,-1604.1981 579.5,-1640.1981"/>
<text text-anchor="middle" x="469" y="-1617.1981" font-family="Times,serif" font-size="20.00" fill="#000000">Content&#45;Disposition</text>
</g>
<!-- SG_0_Node_1&#45;&gt;SG_0_Node_3 -->
<g id="edge22" class="edge">
<title>SG_0_Node_1&#45;&gt;SG_0_Node_3</title>
<path fill="none" stroke="#000000" d="M469,-1893.3197C469,-1844.4242 469,-1709.3598 469,-1650.3736"/>
<polygon fill="#000000" stroke="#000000" points="472.5001,-1650.2828 469,-1640.2828 465.5001,-1650.2828 472.5001,-1650.2828"/>
<text text-anchor="middle" x="488.5" y="-1840.4113" font-family="Times,serif" font-size="20.00" fill="#000000">200</text>
<text text-anchor="middle" x="488.5" y="-1818.4113" font-family="Times,serif" font-size="20.00" fill="#000000">201</text>
<text text-anchor="middle" x="488.5" y="-1796.4113" font-family="Times,serif" font-size="20.00" fill="#000000">202</text>
<text text-anchor="middle" x="488.5" y="-1774.4113" font-family="Times,serif" font-size="20.00" fill="#000000">203</text>
<text text-anchor="middle" x="488.5" y="-1752.4113" font-family="Times,serif" font-size="20.00" fill="#000000">206</text>
<text text-anchor="middle" x="488.5" y="-1730.4113" font-family="Times,serif" font-size="20.00" fill="#000000">207</text>
<text text-anchor="middle" x="488.5" y="-1708.4113" font-family="Times,serif" font-size="20.00" fill="#000000">208</text>
<text text-anchor="middle" x="488.5" y="-1686.4113" font-family="Times,serif" font-size="20.00" fill="#000000">226</text>
</g>
<!-- SG_0_Node_24 -->
<g id="node6" class="node">
<title>SG_0_Node_24</title>
<ellipse fill="none" stroke="#000000" cx="705" cy="-1622.1981" rx="34.7971" ry="21.4286"/>
<text text-anchor="middle" x="705" y="-1617.1981" font-family="Times,serif" font-size="20.00" fill="#000000">0.0</text>
</g>
<!-- SG_0_Node_2&#45;&gt;SG_0_Node_24 -->
<g id="edge3" class="edge">
<title>SG_0_Node_2&#45;&gt;SG_0_Node_24</title>
<path fill="none" stroke="#000000" d="M705,-1893.3197C705,-1845.3727 705,-1714.5675 705,-1653.891"/>
<polygon fill="#000000" stroke="#000000" points="708.5001,-1653.7532 705,-1643.7532 701.5001,-1653.7532 708.5001,-1653.7532"/>
<text text-anchor="middle" x="724.5" y="-1807.4113" font-family="Times,serif" font-size="20.00" fill="#000000">100</text>
<text text-anchor="middle" x="724.5" y="-1785.4113" font-family="Times,serif" font-size="20.00" fill="#000000">102</text>
<text text-anchor="middle" x="724.5" y="-1763.4113" font-family="Times,serif" font-size="20.00" fill="#000000">103</text>
<text text-anchor="middle" x="724.5" y="-1741.4113" font-family="Times,serif" font-size="20.00" fill="#000000">204</text>
<text text-anchor="middle" x="724.5" y="-1719.4113" font-family="Times,serif" font-size="20.00" fill="#000000">205</text>
</g>
<!-- SG_0_Node_4 -->
<g id="node7" class="node">
<title>SG_0_Node_4</title>
<polygon fill="none" stroke="#000000" points="936,-1640.1981 794,-1640.1981 794,-1604.1981 936,-1604.1981 936,-1640.1981"/>
<text text-anchor="middle" x="865" y="-1617.1981" font-family="Times,serif" font-size="20.00" fill="#000000">Status&#45;Code</text>
</g>
<!-- SG_0_Node_2&#45;&gt;SG_0_Node_4 -->
<g id="edge4" class="edge">
<title>SG_0_Node_2&#45;&gt;SG_0_Node_4</title>
<path fill="none" stroke="#000000" d="M720.6939,-1893.2552C729.2995,-1882.848 739.8436,-1869.3226 748,-1856.4113 792.9119,-1785.317 834.0156,-1694.6565 853.359,-1649.8412"/>
<polygon fill="#000000" stroke="#000000" points="856.6453,-1651.0582 857.3667,-1640.488 850.211,-1648.3012 856.6453,-1651.0582"/>
<text text-anchor="middle" x="885" y="-1774.4113" font-family="Times,serif" font-size="20.00" fill="#000000">[NA]</text>
<text text-anchor="middle" x="885" y="-1752.4113" font-family="Times,serif" font-size="20.00" fill="#000000">58 levels</text>
</g>
<!-- SG_0_Node_5 -->
<g id="node8" class="node">
<title>SG_0_Node_5</title>
<polygon fill="none" stroke="#000000" points="369.5,-1479.7716 214.5,-1479.7716 214.5,-1443.7716 369.5,-1443.7716 369.5,-1479.7716"/>
<text text-anchor="middle" x="292" y="-1456.7716" font-family="Times,serif" font-size="20.00" fill="#000000">Content&#45;Type</text>
</g>
<!-- SG_0_Node_3&#45;&gt;SG_0_Node_5 -->
<g id="edge23" class="edge">
<title>SG_0_Node_3&#45;&gt;SG_0_Node_5</title>
<path fill="none" stroke="#000000" d="M447.3464,-1604.091C433.8791,-1592.7239 416.2774,-1577.6746 401,-1563.9848 372.3108,-1538.2771 340.2302,-1508.0026 318.3451,-1487.1087"/>
<polygon fill="#000000" stroke="#000000" points="320.6974,-1484.5154 311.0516,-1480.1324 315.8588,-1489.5739 320.6974,-1484.5154"/>
<text text-anchor="middle" x="433" y="-1536.9848" font-family="Times,serif" font-size="20.00" fill="#000000">empty</text>
</g>
<!-- SG_0_Node_6 -->
<g id="node9" class="node">
<title>SG_0_Node_6</title>
<polygon fill="none" stroke="#000000" points="501.5,-1479.7716 436.5,-1479.7716 436.5,-1443.7716 501.5,-1443.7716 501.5,-1479.7716"/>
<text text-anchor="middle" x="469" y="-1456.7716" font-family="Times,serif" font-size="20.00" fill="#000000">body</text>
</g>
<!-- SG_0_Node_3&#45;&gt;SG_0_Node_6 -->
<g id="edge24" class="edge">
<title>SG_0_Node_3&#45;&gt;SG_0_Node_6</title>
<path fill="none" stroke="#000000" d="M469,-1604.107C469,-1576.4251 469,-1523.3098 469,-1490.3731"/>
<polygon fill="#000000" stroke="#000000" points="472.5001,-1490.0427 469,-1480.0428 465.5001,-1490.0428 472.5001,-1490.0427"/>
<text text-anchor="middle" x="528" y="-1547.9848" font-family="Times,serif" font-size="20.00" fill="#000000">[NA]</text>
<text text-anchor="middle" x="528" y="-1525.9848" font-family="Times,serif" font-size="20.00" fill="#000000">attachment</text>
</g>
<!-- SG_0_Node_7 -->
<g id="node10" class="node">
<title>SG_0_Node_7</title>
<polygon fill="none" stroke="#000000" points="897.5,-1479.7716 832.5,-1479.7716 832.5,-1443.7716 897.5,-1443.7716 897.5,-1479.7716"/>
<text text-anchor="middle" x="865" y="-1456.7716" font-family="Times,serif" font-size="20.00" fill="#000000">body</text>
</g>
<!-- SG_0_Node_4&#45;&gt;SG_0_Node_7 -->
<g id="edge5" class="edge">
<title>SG_0_Node_4&#45;&gt;SG_0_Node_7</title>
<path fill="none" stroke="#000000" d="M865,-1604.107C865,-1576.4251 865,-1523.3098 865,-1490.3731"/>
<polygon fill="#000000" stroke="#000000" points="868.5001,-1490.0427 865,-1480.0428 861.5001,-1490.0428 868.5001,-1490.0427"/>
<text text-anchor="middle" x="884.5" y="-1547.9848" font-family="Times,serif" font-size="20.00" fill="#000000">300</text>
<text text-anchor="middle" x="884.5" y="-1525.9848" font-family="Times,serif" font-size="20.00" fill="#000000">424</text>
</g>
<!-- SG_0_Node_25 -->
<g id="node11" class="node">
<title>SG_0_Node_25</title>
<ellipse fill="none" stroke="#000000" cx="950" cy="-1461.7716" rx="34.7971" ry="21.4286"/>
<text text-anchor="middle" x="950" y="-1456.7716" font-family="Times,serif" font-size="20.00" fill="#000000">1.0</text>
</g>
<!-- SG_0_Node_4&#45;&gt;SG_0_Node_25 -->
<g id="edge6" class="edge">
<title>SG_0_Node_4&#45;&gt;SG_0_Node_25</title>
<path fill="none" stroke="#000000" d="M880.1697,-1604.116C889.0195,-1593.0053 899.9828,-1578.216 908,-1563.9848 920.9478,-1541.0016 932.1032,-1513.2203 939.6565,-1492.4254"/>
<polygon fill="#000000" stroke="#000000" points="943.0158,-1493.4246 943.0671,-1482.8299 936.42,-1491.0801 943.0158,-1493.4246"/>
<text text-anchor="middle" x="974" y="-1547.9848" font-family="Times,serif" font-size="20.00" fill="#000000">[NA]</text>
<text text-anchor="middle" x="974" y="-1525.9848" font-family="Times,serif" font-size="20.00" fill="#000000">56 levels</text>
</g>
<!-- SG_0_Node_8 -->
<g id="node12" class="node">
<title>SG_0_Node_8</title>
<polygon fill="none" stroke="#000000" points="171.5,-1143.3452 16.5,-1143.3452 16.5,-1107.3452 171.5,-1107.3452 171.5,-1143.3452"/>
<text text-anchor="middle" x="94" y="-1120.3452" font-family="Times,serif" font-size="20.00" fill="#000000">Content&#45;Type</text>
</g>
<!-- SG_0_Node_5&#45;&gt;SG_0_Node_8 -->
<g id="edge31" class="edge">
<title>SG_0_Node_5&#45;&gt;SG_0_Node_8</title>
<path fill="none" stroke="#000000" d="M214.487,-1451.9923C156.5427,-1442.9035 84.3052,-1427.1763 66,-1403.5584 6.1012,-1326.2757 44.265,-1278.8899 66,-1183.5584 68.4306,-1172.8976 73.0713,-1161.9133 77.886,-1152.3983"/>
<polygon fill="#000000" stroke="#000000" points="81.0481,-1153.9073 82.6833,-1143.4394 74.8772,-1150.6028 81.0481,-1153.9073"/>
<text text-anchor="middle" x="177" y="-1365.5584" font-family="Times,serif" font-size="20.00" fill="#000000">[NA]</text>
<text text-anchor="middle" x="177" y="-1343.5584" font-family="Times,serif" font-size="20.00" fill="#000000">application/javascript</text>
<text text-anchor="middle" x="177" y="-1321.5584" font-family="Times,serif" font-size="20.00" fill="#000000">application/pdf</text>
<text text-anchor="middle" x="177" y="-1299.5584" font-family="Times,serif" font-size="20.00" fill="#000000">empty</text>
<text text-anchor="middle" x="177" y="-1277.5584" font-family="Times,serif" font-size="20.00" fill="#000000">image/png</text>
<text text-anchor="middle" x="177" y="-1255.5584" font-family="Times,serif" font-size="20.00" fill="#000000">text/css</text>
<text text-anchor="middle" x="177" y="-1233.5584" font-family="Times,serif" font-size="20.00" fill="#000000">text/html</text>
<text text-anchor="middle" x="177" y="-1211.5584" font-family="Times,serif" font-size="20.00" fill="#000000">video/mp4</text>
</g>
<!-- SG_0_Node_26 -->
<g id="node13" class="node">
<title>SG_0_Node_26</title>
<ellipse fill="none" stroke="#000000" cx="292" cy="-1125.3452" rx="34.7971" ry="21.4286"/>
<text text-anchor="middle" x="292" y="-1120.3452" font-family="Times,serif" font-size="20.00" fill="#000000">1.0</text>
</g>
<!-- SG_0_Node_5&#45;&gt;SG_0_Node_26 -->
<g id="edge32" class="edge">
<title>SG_0_Node_5&#45;&gt;SG_0_Node_26</title>
<path fill="none" stroke="#000000" d="M292,-1443.6839C292,-1389.272 292,-1226.586 292,-1157.2327"/>
<polygon fill="#000000" stroke="#000000" points="295.5001,-1156.9341 292,-1146.9342 288.5001,-1156.9342 295.5001,-1156.9341"/>
<text text-anchor="middle" x="344" y="-1288.5584" font-family="Times,serif" font-size="20.00" fill="#000000">audio/wav</text>
</g>
<!-- SG_0_Node_9 -->
<g id="node14" class="node">
<title>SG_0_Node_9</title>
<polygon fill="none" stroke="#000000" points="773,-1143.3452 631,-1143.3452 631,-1107.3452 773,-1107.3452 773,-1143.3452"/>
<text text-anchor="middle" x="702" y="-1120.3452" font-family="Times,serif" font-size="20.00" fill="#000000">Status&#45;Code</text>
</g>
<!-- SG_0_Node_6&#45;&gt;SG_0_Node_9 -->
<g id="edge25" class="edge">
<title>SG_0_Node_6&#45;&gt;SG_0_Node_9</title>
<path fill="none" stroke="#000000" d="M459.9163,-1443.7135C437.0806,-1395.4777 383.4174,-1261.9696 446,-1183.5584 467.6691,-1156.4087 554.2899,-1140.9521 620.8344,-1132.8891"/>
<polygon fill="#000000" stroke="#000000" points="621.389,-1136.3481 630.9123,-1131.7052 620.5722,-1129.3959 621.389,-1136.3481"/>
<text text-anchor="middle" x="580.5" y="-1288.5584" font-family="Times,serif" font-size="20.00" fill="#000000">ecocnt_audio=duration=1</text>
</g>
<!-- SG_0_Node_27 -->
<g id="node15" class="node">
<title>SG_0_Node_27</title>
<ellipse fill="none" stroke="#000000" cx="826" cy="-1125.3452" rx="34.7971" ry="21.4286"/>
<text text-anchor="middle" x="826" y="-1120.3452" font-family="Times,serif" font-size="20.00" fill="#000000">1.0</text>
</g>
<!-- SG_0_Node_6&#45;&gt;SG_0_Node_27 -->
<g id="edge26" class="edge">
<title>SG_0_Node_6&#45;&gt;SG_0_Node_27</title>
<path fill="none" stroke="#000000" d="M501.5818,-1458.5068C561.6141,-1451.8029 686.1964,-1434.4574 715,-1403.5584 782.5584,-1331.0853 700.3602,-1268.7177 751,-1183.5584 760.4183,-1167.7199 775.914,-1154.613 790.3828,-1144.8724"/>
<polygon fill="#000000" stroke="#000000" points="792.6488,-1147.5784 799.1955,-1139.2483 788.8829,-1141.6777 792.6488,-1147.5784"/>
<text text-anchor="middle" x="797" y="-1299.5584" font-family="Times,serif" font-size="20.00" fill="#000000">[NA]</text>
<text text-anchor="middle" x="797" y="-1277.5584" font-family="Times,serif" font-size="20.00" fill="#000000">11 levels</text>
</g>
<!-- SG_0_Node_10 -->
<g id="node16" class="node">
<title>SG_0_Node_10</title>
<polygon fill="none" stroke="#000000" points="1338.5,-1143.3452 1183.5,-1143.3452 1183.5,-1107.3452 1338.5,-1107.3452 1338.5,-1143.3452"/>
<text text-anchor="middle" x="1261" y="-1120.3452" font-family="Times,serif" font-size="20.00" fill="#000000">Content&#45;Type</text>
</g>
<!-- SG_0_Node_7&#45;&gt;SG_0_Node_10 -->
<g id="edge7" class="edge">
<title>SG_0_Node_7&#45;&gt;SG_0_Node_10</title>
<path fill="none" stroke="#000000" d="M863.0908,-1443.7048C857.6443,-1388.2109 844.545,-1221.6798 879,-1183.5584 898.4734,-1162.0128 1066.3853,-1142.9798 1173.0114,-1132.9184"/>
<polygon fill="#000000" stroke="#000000" points="1173.5007,-1136.388 1183.1317,-1131.9729 1172.8495,-1129.4183 1173.5007,-1136.388"/>
<text text-anchor="middle" x="1108.5" y="-1310.5584" font-family="Times,serif" font-size="20.00" fill="#000000">ecocnt_audio=duration=1</text>
<text text-anchor="middle" x="1108.5" y="-1288.5584" font-family="Times,serif" font-size="20.00" fill="#000000">ecocnt_html=num_frames=1,input_id=test1</text>
<text text-anchor="middle" x="1108.5" y="-1266.5584" font-family="Times,serif" font-size="20.00" fill="#000000">ecocnt_js=var a=5;</text>
</g>
<!-- SG_0_Node_28 -->
<g id="node17" class="node">
<title>SG_0_Node_28</title>
<ellipse fill="none" stroke="#000000" cx="1391" cy="-1125.3452" rx="34.7971" ry="21.4286"/>
<text text-anchor="middle" x="1391" y="-1120.3452" font-family="Times,serif" font-size="20.00" fill="#000000">1.0</text>
</g>
<!-- SG_0_Node_7&#45;&gt;SG_0_Node_28 -->
<g id="edge8" class="edge">
<title>SG_0_Node_7&#45;&gt;SG_0_Node_28</title>
<path fill="none" stroke="#000000" d="M897.1934,-1443.6621C900.1139,-1442.4665 903.0744,-1441.4043 906,-1440.5584 998.5603,-1413.7966 1266.4586,-1468.0986 1338,-1403.5584 1408.1136,-1340.3063 1402.8582,-1215.3842 1395.8567,-1156.9163"/>
<polygon fill="#000000" stroke="#000000" points="1399.3023,-1156.2699 1394.5468,-1146.8023 1392.3603,-1157.1691 1399.3023,-1156.2699"/>
<text text-anchor="middle" x="1672" y="-1387.5584" font-family="Times,serif" font-size="20.00" fill="#000000">[NA]</text>
<text text-anchor="middle" x="1672" y="-1365.5584" font-family="Times,serif" font-size="20.00" fill="#000000">ecocnt_css=h1 {color: blue}</text>
<text text-anchor="middle" x="1672" y="-1343.5584" font-family="Times,serif" font-size="20.00" fill="#000000">ecocnt_html=meta_refresh=0;http://172.17.0.1:8000</text>
<text text-anchor="middle" x="1672" y="-1321.5584" font-family="Times,serif" font-size="20.00" fill="#000000">ecocnt_html=num_frames=2</text>
<text text-anchor="middle" x="1672" y="-1299.5584" font-family="Times,serif" font-size="20.00" fill="#000000">ecocnt_html=post_message=mes1</text>
<text text-anchor="middle" x="1672" y="-1277.5584" font-family="Times,serif" font-size="20.00" fill="#000000">ecocnt_img=width=50,height=50,type=png</text>
<text text-anchor="middle" x="1672" y="-1255.5584" font-family="Times,serif" font-size="20.00" fill="#000000">ecocnt_js=.,,.</text>
<text text-anchor="middle" x="1672" y="-1233.5584" font-family="Times,serif" font-size="20.00" fill="#000000">ecocnt_pdf=a=a</text>
<text text-anchor="middle" x="1672" y="-1211.5584" font-family="Times,serif" font-size="20.00" fill="#000000">ecocnt_vid=width=100,height=100,duration=2</text>
<text text-anchor="middle" x="1672" y="-1189.5584" font-family="Times,serif" font-size="20.00" fill="#000000">empty</text>
</g>
<!-- SG_0_Node_29 -->
<g id="node18" class="node">
<title>SG_0_Node_29</title>
<ellipse fill="none" stroke="#000000" cx="73" cy="-854.9188" rx="34.7971" ry="21.4286"/>
<text text-anchor="middle" x="73" y="-849.9188" font-family="Times,serif" font-size="20.00" fill="#000000">0.0</text>
</g>
<!-- SG_0_Node_8&#45;&gt;SG_0_Node_29 -->
<g id="edge33" class="edge">
<title>SG_0_Node_8&#45;&gt;SG_0_Node_29</title>
<path fill="none" stroke="#000000" d="M91.5736,-1107.279C90.0946,-1095.7981 88.2542,-1080.6122 87,-1067.132 81.0371,-1003.0433 76.7033,-927.834 74.5449,-886.3676"/>
<polygon fill="#000000" stroke="#000000" points="78.0381,-886.1433 74.0311,-876.3354 71.0473,-886.5014 78.0381,-886.1433"/>
<text text-anchor="middle" x="198" y="-1051.132" font-family="Times,serif" font-size="20.00" fill="#000000">[NA]</text>
<text text-anchor="middle" x="198" y="-1029.132" font-family="Times,serif" font-size="20.00" fill="#000000">application/javascript</text>
<text text-anchor="middle" x="198" y="-1007.132" font-family="Times,serif" font-size="20.00" fill="#000000">application/pdf</text>
<text text-anchor="middle" x="198" y="-985.132" font-family="Times,serif" font-size="20.00" fill="#000000">image/png</text>
<text text-anchor="middle" x="198" y="-963.132" font-family="Times,serif" font-size="20.00" fill="#000000">text/css</text>
<text text-anchor="middle" x="198" y="-941.132" font-family="Times,serif" font-size="20.00" fill="#000000">text/html</text>
<text text-anchor="middle" x="198" y="-919.132" font-family="Times,serif" font-size="20.00" fill="#000000">video/mp4</text>
</g>
<!-- SG_0_Node_11 -->
<g id="node19" class="node">
<title>SG_0_Node_11</title>
<polygon fill="none" stroke="#000000" points="363.5,-872.9188 298.5,-872.9188 298.5,-836.9188 363.5,-836.9188 363.5,-872.9188"/>
<text text-anchor="middle" x="331" y="-849.9188" font-family="Times,serif" font-size="20.00" fill="#000000">body</text>
</g>
<!-- SG_0_Node_8&#45;&gt;SG_0_Node_11 -->
<g id="edge34" class="edge">
<title>SG_0_Node_8&#45;&gt;SG_0_Node_11</title>
<path fill="none" stroke="#000000" d="M171.654,-1113.7442C225.6442,-1103.9987 291.0231,-1088.2666 309,-1067.132 353.3239,-1015.0227 345.1431,-927.6453 337.1469,-883.0118"/>
<polygon fill="#000000" stroke="#000000" points="340.5749,-882.3036 335.2545,-873.1415 333.7002,-883.6217 340.5749,-882.3036"/>
<text text-anchor="middle" x="375" y="-985.132" font-family="Times,serif" font-size="20.00" fill="#000000">empty</text>
</g>
<!-- SG_0_Node_12 -->
<g id="node20" class="node">
<title>SG_0_Node_12</title>
<polygon fill="none" stroke="#000000" points="1115.5,-872.9188 960.5,-872.9188 960.5,-836.9188 1115.5,-836.9188 1115.5,-872.9188"/>
<text text-anchor="middle" x="1038" y="-849.9188" font-family="Times,serif" font-size="20.00" fill="#000000">Content&#45;Type</text>
</g>
<!-- SG_0_Node_9&#45;&gt;SG_0_Node_12 -->
<g id="edge27" class="edge">
<title>SG_0_Node_9&#45;&gt;SG_0_Node_12</title>
<path fill="none" stroke="#000000" d="M724.5676,-1107.1819C783.2671,-1059.9382 940.7812,-933.1644 1007.485,-879.4785"/>
<polygon fill="#000000" stroke="#000000" points="1009.9348,-881.9997 1015.5306,-873.0031 1005.5458,-876.5465 1009.9348,-881.9997"/>
<text text-anchor="middle" x="984.5" y="-985.132" font-family="Times,serif" font-size="20.00" fill="#000000">203</text>
</g>
<!-- SG_0_Node_30 -->
<g id="node21" class="node">
<title>SG_0_Node_30</title>
<ellipse fill="none" stroke="#000000" cx="1168" cy="-854.9188" rx="34.7971" ry="21.4286"/>
<text text-anchor="middle" x="1168" y="-849.9188" font-family="Times,serif" font-size="20.00" fill="#000000">1.0</text>
</g>
<!-- SG_0_Node_9&#45;&gt;SG_0_Node_30 -->
<g id="edge28" class="edge">
<title>SG_0_Node_9&#45;&gt;SG_0_Node_30</title>
<path fill="none" stroke="#000000" d="M768.235,-1107.2527C772.8814,-1106.1467 777.5037,-1105.0939 782,-1104.132 881.5299,-1082.8411 920.8858,-1119.7688 1008,-1067.132 1080.9689,-1023.0423 1131.9557,-932.0472 1154.6798,-884.8235"/>
<polygon fill="#000000" stroke="#000000" points="1157.8748,-886.2541 1158.9719,-875.7162 1151.5427,-883.2699 1157.8748,-886.2541"/>
<text text-anchor="middle" x="1159.5" y="-1051.132" font-family="Times,serif" font-size="20.00" fill="#000000">200</text>
<text text-anchor="middle" x="1159.5" y="-1029.132" font-family="Times,serif" font-size="20.00" fill="#000000">201</text>
<text text-anchor="middle" x="1159.5" y="-1007.132" font-family="Times,serif" font-size="20.00" fill="#000000">202</text>
<text text-anchor="middle" x="1159.5" y="-985.132" font-family="Times,serif" font-size="20.00" fill="#000000">206</text>
<text text-anchor="middle" x="1159.5" y="-963.132" font-family="Times,serif" font-size="20.00" fill="#000000">207</text>
<text text-anchor="middle" x="1159.5" y="-941.132" font-family="Times,serif" font-size="20.00" fill="#000000">208</text>
<text text-anchor="middle" x="1159.5" y="-919.132" font-family="Times,serif" font-size="20.00" fill="#000000">226</text>
</g>
<!-- SG_0_Node_13 -->
<g id="node22" class="node">
<title>SG_0_Node_13</title>
<polygon fill="none" stroke="#000000" points="1643.5,-872.9188 1326.5,-872.9188 1326.5,-836.9188 1643.5,-836.9188 1643.5,-872.9188"/>
<text text-anchor="middle" x="1485" y="-849.9188" font-family="Times,serif" font-size="20.00" fill="#000000">Cross&#45;Origin&#45;Resource&#45;Policy</text>
</g>
<!-- SG_0_Node_10&#45;&gt;SG_0_Node_13 -->
<g id="edge9" class="edge">
<title>SG_0_Node_10&#45;&gt;SG_0_Node_13</title>
<path fill="none" stroke="#000000" d="M1276.0451,-1107.1819C1314.8592,-1060.3231 1418.4809,-935.2247 1463.5579,-880.8051"/>
<polygon fill="#000000" stroke="#000000" points="1466.3367,-882.937 1470.0204,-873.0031 1460.9459,-878.4716 1466.3367,-882.937"/>
<text text-anchor="middle" x="1483" y="-996.132" font-family="Times,serif" font-size="20.00" fill="#000000">empty</text>
<text text-anchor="middle" x="1483" y="-974.132" font-family="Times,serif" font-size="20.00" fill="#000000">text/html</text>
</g>
<!-- SG_0_Node_31 -->
<g id="node23" class="node">
<title>SG_0_Node_31</title>
<ellipse fill="none" stroke="#000000" cx="1696" cy="-854.9188" rx="34.7971" ry="21.4286"/>
<text text-anchor="middle" x="1696" y="-849.9188" font-family="Times,serif" font-size="20.00" fill="#000000">1.0</text>
</g>
<!-- SG_0_Node_10&#45;&gt;SG_0_Node_31 -->
<g id="edge10" class="edge">
<title>SG_0_Node_10&#45;&gt;SG_0_Node_31</title>
<path fill="none" stroke="#000000" d="M1333.2039,-1107.2768C1337.8672,-1106.1897 1342.4964,-1105.1325 1347,-1104.132 1429.7064,-1085.7599 1462.0866,-1111.9242 1534,-1067.132 1606.6944,-1021.8534 1658.8448,-931.3856 1682.2377,-884.5474"/>
<polygon fill="#000000" stroke="#000000" points="1685.4052,-886.0374 1686.6604,-875.5171 1679.1186,-882.9584 1685.4052,-886.0374"/>
<text text-anchor="middle" x="1777" y="-1051.132" font-family="Times,serif" font-size="20.00" fill="#000000">[NA]</text>
<text text-anchor="middle" x="1777" y="-1029.132" font-family="Times,serif" font-size="20.00" fill="#000000">application/javascript</text>
<text text-anchor="middle" x="1777" y="-1007.132" font-family="Times,serif" font-size="20.00" fill="#000000">application/pdf</text>
<text text-anchor="middle" x="1777" y="-985.132" font-family="Times,serif" font-size="20.00" fill="#000000">audio/wav</text>
<text text-anchor="middle" x="1777" y="-963.132" font-family="Times,serif" font-size="20.00" fill="#000000">image/png</text>
<text text-anchor="middle" x="1777" y="-941.132" font-family="Times,serif" font-size="20.00" fill="#000000">text/css</text>
<text text-anchor="middle" x="1777" y="-919.132" font-family="Times,serif" font-size="20.00" fill="#000000">video/mp4</text>
</g>
<!-- SG_0_Node_32 -->
<g id="node24" class="node">
<title>SG_0_Node_32</title>
<ellipse fill="none" stroke="#000000" cx="51" cy="-518.4924" rx="34.7971" ry="21.4286"/>
<text text-anchor="middle" x="51" y="-513.4924" font-family="Times,serif" font-size="20.00" fill="#000000">0.0</text>
</g>
<!-- SG_0_Node_11&#45;&gt;SG_0_Node_32 -->
<g id="edge35" class="edge">
<title>SG_0_Node_11&#45;&gt;SG_0_Node_32</title>
<path fill="none" stroke="#000000" d="M298.323,-853.203C230.7428,-848.8999 79.2988,-835.0979 48,-796.7056 -10.4722,-724.9814 20.2504,-604.8013 39.4164,-548.8556"/>
<polygon fill="#000000" stroke="#000000" points="42.8027,-549.7777 42.8366,-539.183 36.2031,-547.4442 42.8027,-549.7777"/>
<text text-anchor="middle" x="321" y="-780.7056" font-family="Times,serif" font-size="20.00" fill="#000000">[NA]</text>
<text text-anchor="middle" x="321" y="-758.7056" font-family="Times,serif" font-size="20.00" fill="#000000">ecocnt_css=h1 {color: blue}</text>
<text text-anchor="middle" x="321" y="-736.7056" font-family="Times,serif" font-size="20.00" fill="#000000">ecocnt_html=meta_refresh=0;http://172.17.0.1:8000</text>
<text text-anchor="middle" x="321" y="-714.7056" font-family="Times,serif" font-size="20.00" fill="#000000">ecocnt_html=num_frames=1,input_id=test1</text>
<text text-anchor="middle" x="321" y="-692.7056" font-family="Times,serif" font-size="20.00" fill="#000000">ecocnt_html=num_frames=2</text>
<text text-anchor="middle" x="321" y="-670.7056" font-family="Times,serif" font-size="20.00" fill="#000000">ecocnt_html=post_message=mes1</text>
<text text-anchor="middle" x="321" y="-648.7056" font-family="Times,serif" font-size="20.00" fill="#000000">ecocnt_js=.,,.</text>
<text text-anchor="middle" x="321" y="-626.7056" font-family="Times,serif" font-size="20.00" fill="#000000">ecocnt_js=var a=5;</text>
<text text-anchor="middle" x="321" y="-604.7056" font-family="Times,serif" font-size="20.00" fill="#000000">ecocnt_pdf=a=a</text>
<text text-anchor="middle" x="321" y="-582.7056" font-family="Times,serif" font-size="20.00" fill="#000000">empty</text>
</g>
<!-- SG_0_Node_14 -->
<g id="node25" class="node">
<title>SG_0_Node_14</title>
<polygon fill="none" stroke="#000000" points="747,-536.4924 485,-536.4924 485,-500.4924 747,-500.4924 747,-536.4924"/>
<text text-anchor="middle" x="616" y="-513.4924" font-family="Times,serif" font-size="20.00" fill="#000000">X&#45;Content&#45;Type&#45;Options</text>
</g>
<!-- SG_0_Node_11&#45;&gt;SG_0_Node_14 -->
<g id="edge36" class="edge">
<title>SG_0_Node_11&#45;&gt;SG_0_Node_14</title>
<path fill="none" stroke="#000000" d="M363.5841,-852.4379C427.1419,-846.876 564.0743,-831.1066 594,-796.7056 610.1535,-778.1364 614.5241,-613.7788 615.6399,-546.7568"/>
<polygon fill="#000000" stroke="#000000" points="619.1432,-546.563 615.7974,-536.5104 612.144,-546.4553 619.1432,-546.563"/>
<text text-anchor="middle" x="860.5" y="-703.7056" font-family="Times,serif" font-size="20.00" fill="#000000">ecocnt_audio=duration=1</text>
<text text-anchor="middle" x="860.5" y="-681.7056" font-family="Times,serif" font-size="20.00" fill="#000000">ecocnt_img=width=50,height=50,type=png</text>
<text text-anchor="middle" x="860.5" y="-659.7056" font-family="Times,serif" font-size="20.00" fill="#000000">ecocnt_vid=width=100,height=100,duration=2</text>
</g>
<!-- SG_0_Node_33 -->
<g id="node26" class="node">
<title>SG_0_Node_33</title>
<ellipse fill="none" stroke="#000000" cx="1143" cy="-518.4924" rx="52.1524" ry="21.4286"/>
<text text-anchor="middle" x="1143" y="-513.4924" font-family="Times,serif" font-size="20.00" fill="#000000">0.969</text>
</g>
<!-- SG_0_Node_12&#45;&gt;SG_0_Node_33 -->
<g id="edge29" class="edge">
<title>SG_0_Node_12&#45;&gt;SG_0_Node_33</title>
<path fill="none" stroke="#000000" d="M1071.0624,-836.741C1085.7685,-826.879 1101.8066,-813.294 1111,-796.7056 1155.3001,-716.7714 1151.7973,-604.2287 1146.8071,-550.058"/>
<polygon fill="#000000" stroke="#000000" points="1150.2819,-549.6306 1145.8029,-540.0291 1143.3167,-550.3281 1150.2819,-549.6306"/>
<text text-anchor="middle" x="1260" y="-692.7056" font-family="Times,serif" font-size="20.00" fill="#000000">application/javascript</text>
<text text-anchor="middle" x="1260" y="-670.7056" font-family="Times,serif" font-size="20.00" fill="#000000">video/mp4</text>
</g>
<!-- SG_0_Node_34 -->
<g id="node27" class="node">
<title>SG_0_Node_34</title>
<ellipse fill="none" stroke="#000000" cx="1401" cy="-518.4924" rx="34.7971" ry="21.4286"/>
<text text-anchor="middle" x="1401" y="-513.4924" font-family="Times,serif" font-size="20.00" fill="#000000">1.0</text>
</g>
<!-- SG_0_Node_12&#45;&gt;SG_0_Node_34 -->
<g id="edge30" class="edge">
<title>SG_0_Node_12&#45;&gt;SG_0_Node_34</title>
<path fill="none" stroke="#000000" d="M1108.746,-836.9004C1113.8958,-835.7634 1119.0205,-834.6844 1124,-833.7056 1179.3218,-822.8309 1336.2068,-837.6184 1375,-796.7056 1391.6735,-779.1211 1398.1584,-619.5 1400.2019,-550.2767"/>
<polygon fill="#000000" stroke="#000000" points="1403.709,-550.0734 1400.4926,-539.9786 1396.7118,-549.8758 1403.709,-550.0734"/>
<text text-anchor="middle" x="1476" y="-747.7056" font-family="Times,serif" font-size="20.00" fill="#000000">[NA]</text>
<text text-anchor="middle" x="1476" y="-725.7056" font-family="Times,serif" font-size="20.00" fill="#000000">application/pdf</text>
<text text-anchor="middle" x="1476" y="-703.7056" font-family="Times,serif" font-size="20.00" fill="#000000">audio/wav</text>
<text text-anchor="middle" x="1476" y="-681.7056" font-family="Times,serif" font-size="20.00" fill="#000000">empty</text>
<text text-anchor="middle" x="1476" y="-659.7056" font-family="Times,serif" font-size="20.00" fill="#000000">image/png</text>
<text text-anchor="middle" x="1476" y="-637.7056" font-family="Times,serif" font-size="20.00" fill="#000000">text/css</text>
<text text-anchor="middle" x="1476" y="-615.7056" font-family="Times,serif" font-size="20.00" fill="#000000">text/html</text>
</g>
<!-- SG_0_Node_16 -->
<g id="node28" class="node">
<title>SG_0_Node_16</title>
<polygon fill="none" stroke="#000000" points="1629,-536.4924 1487,-536.4924 1487,-500.4924 1629,-500.4924 1629,-536.4924"/>
<text text-anchor="middle" x="1558" y="-513.4924" font-family="Times,serif" font-size="20.00" fill="#000000">Status&#45;Code</text>
</g>
<!-- SG_0_Node_13&#45;&gt;SG_0_Node_16 -->
<g id="edge11" class="edge">
<title>SG_0_Node_13&#45;&gt;SG_0_Node_16</title>
<path fill="none" stroke="#000000" d="M1520.1435,-836.7819C1535.0206,-827.0794 1550.7877,-813.6148 1559,-796.7056 1599.47,-713.3779 1578.741,-598.7551 1565.7959,-546.4957"/>
<polygon fill="#000000" stroke="#000000" points="1569.1347,-545.4261 1563.2537,-536.6134 1562.3555,-547.17 1569.1347,-545.4261"/>
<text text-anchor="middle" x="1643" y="-681.7056" font-family="Times,serif" font-size="20.00" fill="#000000">same&#45;origin</text>
</g>
<!-- SG_0_Node_35 -->
<g id="node29" class="node">
<title>SG_0_Node_35</title>
<ellipse fill="none" stroke="#000000" cx="1749" cy="-518.4924" rx="34.7971" ry="21.4286"/>
<text text-anchor="middle" x="1749" y="-513.4924" font-family="Times,serif" font-size="20.00" fill="#000000">1.0</text>
</g>
<!-- SG_0_Node_13&#45;&gt;SG_0_Node_35 -->
<g id="edge12" class="edge">
<title>SG_0_Node_13&#45;&gt;SG_0_Node_35</title>
<path fill="none" stroke="#000000" d="M1600.0592,-836.8575C1646.4857,-827.2063 1692.7088,-813.762 1708,-796.7056 1770.1528,-727.378 1762.4567,-606.9451 1754.4881,-550.0235"/>
<polygon fill="#000000" stroke="#000000" points="1757.9056,-549.2111 1752.9627,-539.84 1750.9828,-550.2482 1757.9056,-549.2111"/>
<text text-anchor="middle" x="1791" y="-692.7056" font-family="Times,serif" font-size="20.00" fill="#000000">[NA]</text>
<text text-anchor="middle" x="1791" y="-670.7056" font-family="Times,serif" font-size="20.00" fill="#000000">empty</text>
</g>
<!-- SG_0_Node_17 -->
<g id="node30" class="node">
<title>SG_0_Node_17</title>
<polygon fill="none" stroke="#000000" points="629.5,-376.066 564.5,-376.066 564.5,-340.066 629.5,-340.066 629.5,-376.066"/>
<text text-anchor="middle" x="597" y="-353.066" font-family="Times,serif" font-size="20.00" fill="#000000">body</text>
</g>
<!-- SG_0_Node_14&#45;&gt;SG_0_Node_17 -->
<g id="edge37" class="edge">
<title>SG_0_Node_14&#45;&gt;SG_0_Node_17</title>
<path fill="none" stroke="#000000" d="M613.8574,-500.4013C610.5789,-472.7194 604.2882,-419.6042 600.3874,-386.6675"/>
<polygon fill="#000000" stroke="#000000" points="603.8158,-385.8561 599.1639,-376.3371 596.8644,-386.6794 603.8158,-385.8561"/>
<text text-anchor="middle" x="641" y="-433.2792" font-family="Times,serif" font-size="20.00" fill="#000000">empty</text>
</g>
<!-- SG_0_Node_36 -->
<g id="node31" class="node">
<title>SG_0_Node_36</title>
<ellipse fill="none" stroke="#000000" cx="697" cy="-358.066" rx="34.7971" ry="21.4286"/>
<text text-anchor="middle" x="697" y="-353.066" font-family="Times,serif" font-size="20.00" fill="#000000">1.0</text>
</g>
<!-- SG_0_Node_14&#45;&gt;SG_0_Node_36 -->
<g id="edge38" class="edge">
<title>SG_0_Node_14&#45;&gt;SG_0_Node_36</title>
<path fill="none" stroke="#000000" d="M640.3308,-500.2443C652.5298,-489.8388 666.4826,-475.7943 675,-460.2792 686.9562,-438.5001 692.4164,-410.7905 694.909,-389.7181"/>
<polygon fill="#000000" stroke="#000000" points="698.4014,-389.9703 695.9353,-379.6665 691.4376,-389.2592 698.4014,-389.9703"/>
<text text-anchor="middle" x="725" y="-444.2792" font-family="Times,serif" font-size="20.00" fill="#000000">[NA]</text>
<text text-anchor="middle" x="725" y="-422.2792" font-family="Times,serif" font-size="20.00" fill="#000000">nosniff</text>
</g>
<!-- SG_0_Node_18 -->
<g id="node32" class="node">
<title>SG_0_Node_18</title>
<polygon fill="none" stroke="#000000" points="1171,-376.066 909,-376.066 909,-340.066 1171,-340.066 1171,-376.066"/>
<text text-anchor="middle" x="1040" y="-353.066" font-family="Times,serif" font-size="20.00" fill="#000000">X&#45;Content&#45;Type&#45;Options</text>
</g>
<!-- SG_0_Node_16&#45;&gt;SG_0_Node_18 -->
<g id="edge13" class="edge">
<title>SG_0_Node_16&#45;&gt;SG_0_Node_18</title>
<path fill="none" stroke="#000000" d="M1499.8364,-500.479C1403.3098,-470.5843 1210.5165,-410.8756 1107.9088,-379.0976"/>
<polygon fill="#000000" stroke="#000000" points="1108.8547,-375.7266 1098.2669,-376.1115 1106.7838,-382.4133 1108.8547,-375.7266"/>
<text text-anchor="middle" x="1386.5" y="-433.2792" font-family="Times,serif" font-size="20.00" fill="#000000">424</text>
</g>
<!-- SG_0_Node_19 -->
<g id="node33" class="node">
<title>SG_0_Node_19</title>
<polygon fill="none" stroke="#000000" points="1590.5,-376.066 1525.5,-376.066 1525.5,-340.066 1590.5,-340.066 1590.5,-376.066"/>
<text text-anchor="middle" x="1558" y="-353.066" font-family="Times,serif" font-size="20.00" fill="#000000">body</text>
</g>
<!-- SG_0_Node_16&#45;&gt;SG_0_Node_19 -->
<g id="edge14" class="edge">
<title>SG_0_Node_16&#45;&gt;SG_0_Node_19</title>
<path fill="none" stroke="#000000" d="M1558,-500.4013C1558,-472.7194 1558,-419.6042 1558,-386.6675"/>
<polygon fill="#000000" stroke="#000000" points="1561.5001,-386.3371 1558,-376.3371 1554.5001,-386.3372 1561.5001,-386.3371"/>
<text text-anchor="middle" x="1577.5" y="-433.2792" font-family="Times,serif" font-size="20.00" fill="#000000">300</text>
</g>
<!-- SG_0_Node_37 -->
<g id="node34" class="node">
<title>SG_0_Node_37</title>
<ellipse fill="none" stroke="#000000" cx="82" cy="-197.6396" rx="34.7971" ry="21.4286"/>
<text text-anchor="middle" x="82" y="-192.6396" font-family="Times,serif" font-size="20.00" fill="#000000">0.0</text>
</g>
<!-- SG_0_Node_17&#45;&gt;SG_0_Node_37 -->
<g id="edge39" class="edge">
<title>SG_0_Node_17&#45;&gt;SG_0_Node_37</title>
<path fill="none" stroke="#000000" d="M564.4541,-356.35C460.3448,-350.5705 140.2496,-330.4473 106,-299.8528 86.4309,-282.3721 81.2811,-252.231 80.5219,-229.1951"/>
<polygon fill="#000000" stroke="#000000" points="84.0218,-229.1552 80.446,-219.1821 77.022,-229.2084 84.0218,-229.1552"/>
<text text-anchor="middle" x="351.5" y="-283.8528" font-family="Times,serif" font-size="20.00" fill="#000000">ecocnt_img=width=50,height=50,type=png</text>
<text text-anchor="middle" x="351.5" y="-261.8528" font-family="Times,serif" font-size="20.00" fill="#000000">ecocnt_vid=width=100,height=100,duration=2</text>
</g>
<!-- SG_0_Node_38 -->
<g id="node35" class="node">
<title>SG_0_Node_38</title>
<ellipse fill="none" stroke="#000000" cx="609" cy="-197.6396" rx="34.7971" ry="21.4286"/>
<text text-anchor="middle" x="609" y="-192.6396" font-family="Times,serif" font-size="20.00" fill="#000000">1.0</text>
</g>
<!-- SG_0_Node_17&#45;&gt;SG_0_Node_38 -->
<g id="edge40" class="edge">
<title>SG_0_Node_17&#45;&gt;SG_0_Node_38</title>
<path fill="none" stroke="#000000" d="M598.3532,-339.9749C600.3665,-313.06 604.1782,-262.1015 606.6524,-229.0242"/>
<polygon fill="#000000" stroke="#000000" points="610.149,-229.1996 607.4047,-218.9663 603.1685,-228.6773 610.149,-229.1996"/>
<text text-anchor="middle" x="738.5" y="-272.8528" font-family="Times,serif" font-size="20.00" fill="#000000">ecocnt_audio=duration=1</text>
</g>
<!-- SG_0_Node_20 -->
<g id="node36" class="node">
<title>SG_0_Node_20</title>
<polygon fill="none" stroke="#000000" points="987.5,-215.6396 796.5,-215.6396 796.5,-179.6396 987.5,-179.6396 987.5,-215.6396"/>
<text text-anchor="middle" x="892" y="-192.6396" font-family="Times,serif" font-size="20.00" fill="#000000">X&#45;Frame&#45;Options</text>
</g>
<!-- SG_0_Node_18&#45;&gt;SG_0_Node_20 -->
<g id="edge17" class="edge">
<title>SG_0_Node_18&#45;&gt;SG_0_Node_20</title>
<path fill="none" stroke="#000000" d="M1013.523,-340.0213C998.7077,-329.2657 980.3832,-314.822 966,-299.8528 943.5543,-276.4927 922.3484,-246.015 908.4393,-224.437"/>
<polygon fill="#000000" stroke="#000000" points="911.2579,-222.3464 902.9426,-215.7808 905.3486,-226.0988 911.2579,-222.3464"/>
<text text-anchor="middle" x="1001" y="-272.8528" font-family="Times,serif" font-size="20.00" fill="#000000">nosniff</text>
</g>
<!-- SG_0_Node_39 -->
<g id="node37" class="node">
<title>SG_0_Node_39</title>
<ellipse fill="none" stroke="#000000" cx="1040" cy="-197.6396" rx="34.7971" ry="21.4286"/>
<text text-anchor="middle" x="1040" y="-192.6396" font-family="Times,serif" font-size="20.00" fill="#000000">1.0</text>
</g>
<!-- SG_0_Node_18&#45;&gt;SG_0_Node_39 -->
<g id="edge18" class="edge">
<title>SG_0_Node_18&#45;&gt;SG_0_Node_39</title>
<path fill="none" stroke="#000000" d="M1040,-339.9749C1040,-313.06 1040,-262.1015 1040,-229.0242"/>
<polygon fill="#000000" stroke="#000000" points="1043.5001,-228.9663 1040,-218.9663 1036.5001,-228.9663 1043.5001,-228.9663"/>
<text text-anchor="middle" x="1072" y="-283.8528" font-family="Times,serif" font-size="20.00" fill="#000000">[NA]</text>
<text text-anchor="middle" x="1072" y="-261.8528" font-family="Times,serif" font-size="20.00" fill="#000000">empty</text>
</g>
<!-- SG_0_Node_40 -->
<g id="node38" class="node">
<title>SG_0_Node_40</title>
<ellipse fill="none" stroke="#000000" cx="1145" cy="-197.6396" rx="52.1524" ry="21.4286"/>
<text text-anchor="middle" x="1145" y="-192.6396" font-family="Times,serif" font-size="20.00" fill="#000000">0.969</text>
</g>
<!-- SG_0_Node_19&#45;&gt;SG_0_Node_40 -->
<g id="edge15" class="edge">
<title>SG_0_Node_19&#45;&gt;SG_0_Node_40</title>
<path fill="none" stroke="#000000" d="M1525.3009,-355.924C1431.59,-349.4558 1167.1564,-328.7746 1142,-299.8528 1125.3291,-280.6866 1128.2311,-251.0139 1134.0343,-228.567"/>
<polygon fill="#000000" stroke="#000000" points="1137.4355,-229.4041 1136.8449,-218.8258 1130.7098,-227.4636 1137.4355,-229.4041"/>
<text text-anchor="middle" x="1371.5" y="-272.8528" font-family="Times,serif" font-size="20.00" fill="#000000">ecocnt_html=num_frames=1,input_id=test1</text>
</g>
<!-- SG_0_Node_41 -->
<g id="node39" class="node">
<title>SG_0_Node_41</title>
<ellipse fill="none" stroke="#000000" cx="1637" cy="-197.6396" rx="34.7971" ry="21.4286"/>
<text text-anchor="middle" x="1637" y="-192.6396" font-family="Times,serif" font-size="20.00" fill="#000000">1.0</text>
</g>
<!-- SG_0_Node_19&#45;&gt;SG_0_Node_41 -->
<g id="edge16" class="edge">
<title>SG_0_Node_19&#45;&gt;SG_0_Node_41</title>
<path fill="none" stroke="#000000" d="M1575.617,-339.9541C1585.406,-329.0657 1597.156,-314.5124 1605,-299.8528 1617.0076,-277.4119 1625.3229,-249.7482 1630.4616,-228.8618"/>
<polygon fill="#000000" stroke="#000000" points="1633.9188,-229.449 1632.7966,-218.9138 1627.104,-227.8494 1633.9188,-229.449"/>
<text text-anchor="middle" x="1756.5" y="-283.8528" font-family="Times,serif" font-size="20.00" fill="#000000">ecocnt_audio=duration=1</text>
<text text-anchor="middle" x="1756.5" y="-261.8528" font-family="Times,serif" font-size="20.00" fill="#000000">ecocnt_js=var a=5;</text>
</g>
<!-- SG_0_Node_42 -->
<g id="node40" class="node">
<title>SG_0_Node_42</title>
<ellipse fill="none" stroke="#000000" cx="840" cy="-37.2132" rx="52.1524" ry="21.4286"/>
<text text-anchor="middle" x="840" y="-32.2132" font-family="Times,serif" font-size="20.00" fill="#000000">0.917</text>
</g>
<!-- SG_0_Node_20&#45;&gt;SG_0_Node_42 -->
<g id="edge19" class="edge">
<title>SG_0_Node_20&#45;&gt;SG_0_Node_42</title>
<path fill="none" stroke="#000000" d="M878.5888,-179.4129C871.1063,-168.3704 862.2601,-153.7004 857,-139.4264 848.5778,-116.5719 844.3091,-89.3002 842.1564,-68.6771"/>
<polygon fill="#000000" stroke="#000000" points="845.6261,-68.189 841.2127,-58.5572 838.6564,-68.839 845.6261,-68.189"/>
<text text-anchor="middle" x="889" y="-112.4264" font-family="Times,serif" font-size="20.00" fill="#000000">empty</text>
</g>
<!-- SG_0_Node_43 -->
<g id="node41" class="node">
<title>SG_0_Node_43</title>
<ellipse fill="none" stroke="#000000" cx="945" cy="-37.2132" rx="34.7971" ry="21.4286"/>
<text text-anchor="middle" x="945" y="-32.2132" font-family="Times,serif" font-size="20.00" fill="#000000">1.0</text>
</g>
<!-- SG_0_Node_20&#45;&gt;SG_0_Node_43 -->
<g id="edge20" class="edge">
<title>SG_0_Node_20&#45;&gt;SG_0_Node_43</title>
<path fill="none" stroke="#000000" d="M902.3984,-179.5073C908.502,-168.2565 915.9781,-153.3391 921,-139.4264 929.3794,-116.2121 935.6087,-88.9612 939.6183,-68.4375"/>
<polygon fill="#000000" stroke="#000000" points="943.102,-68.8501 941.5123,-58.3752 936.2228,-67.5552 943.102,-68.8501"/>
<text text-anchor="middle" x="958" y="-123.4264" font-family="Times,serif" font-size="20.00" fill="#000000">[NA]</text>
<text text-anchor="middle" x="958" y="-101.4264" font-family="Times,serif" font-size="20.00" fill="#000000">deny</text>
</g>
</g>
</svg>
