<?xml version="1.0" encoding="UTF-8" standalone="no"?>
<!DOCTYPE svg PUBLIC "-//W3C//DTD SVG 1.1//EN"
 "http://www.w3.org/Graphics/SVG/1.1/DTD/svg11.dtd">
<!-- Generated by graphviz version 2.40.1 (20161225.0304)
 -->
<!-- Title: G Pages: 1 -->
<svg width="1867pt" height="2159pt"
 viewBox="0.00 0.00 1867.00 2159.41" xmlns="http://www.w3.org/2000/svg" xmlns:xlink="http://www.w3.org/1999/xlink">
<g id="graph0" class="graph" transform="scale(1 1) rotate(0) translate(4 2155.4113)">
<title>G</title>
<polygon fill="#ffffff" stroke="transparent" points="-4,4 -4,-2155.4113 1863,-2155.4113 1863,4 -4,4"/>
<g id="clust1" class="cluster">
<title>cluster_0</title>
<polygon fill="none" stroke="#000000" points="8,-8 8,-2143.4113 1844,-2143.4113 1844,-8 8,-8"/>
<text text-anchor="middle" x="926" y="-2107.4113" font-family="Times,serif" font-size="40.00" fill="#000000">Tree 0, Class 0</text>
</g>
<!-- SG_0_Node_0 -->
<g id="node1" class="node">
<title>SG_0_Node_0</title>
<polygon fill="none" stroke="#000000" points="839,-2083.4113 541,-2083.4113 541,-2047.4113 839,-2047.4113 839,-2083.4113"/>
<text text-anchor="middle" x="690" y="-2060.4113" font-family="Times,serif" font-size="20.00" fill="#000000">Cross&#45;Origin&#45;Opener&#45;Policy</text>
</g>
<!-- SG_0_Node_1 -->
<g id="node2" class="node">
<title>SG_0_Node_1</title>
<polygon fill="none" stroke="#000000" points="680,-1929.4113 538,-1929.4113 538,-1893.4113 680,-1893.4113 680,-1929.4113"/>
<text text-anchor="middle" x="609" y="-1906.4113" font-family="Times,serif" font-size="20.00" fill="#000000">Status&#45;Code</text>
</g>
<!-- SG_0_Node_0&#45;&gt;SG_0_Node_1 -->
<g id="edge1" class="edge">
<title>SG_0_Node_0&#45;&gt;SG_0_Node_1</title>
<path fill="none" stroke="#000000" d="M680.3902,-2047.1407C666.2625,-2020.2806 639.7881,-1969.9466 623.3513,-1938.6965"/>
<polygon fill="#000000" stroke="#000000" points="626.3501,-1936.8792 618.5973,-1929.658 620.1548,-1940.1378 626.3501,-1936.8792"/>
<text text-anchor="middle" x="692" y="-1983.4113" font-family="Times,serif" font-size="20.00" fill="#000000">empty</text>
</g>
<!-- SG_0_Node_2 -->
<g id="node3" class="node">
<title>SG_0_Node_2</title>
<polygon fill="none" stroke="#000000" points="843,-1929.4113 701,-1929.4113 701,-1893.4113 843,-1893.4113 843,-1929.4113"/>
<text text-anchor="middle" x="772" y="-1906.4113" font-family="Times,serif" font-size="20.00" fill="#000000">Status&#45;Code</text>
</g>
<!-- SG_0_Node_0&#45;&gt;SG_0_Node_2 -->
<g id="edge2" class="edge">
<title>SG_0_Node_0&#45;&gt;SG_0_Node_2</title>
<path fill="none" stroke="#000000" d="M703.9086,-2047.1324C711.5258,-2036.6867 720.8431,-2023.1638 728,-2010.4113 741.0719,-1987.119 753.1807,-1959.2045 761.3725,-1938.9632"/>
<polygon fill="#000000" stroke="#000000" points="764.7248,-1940.0055 765.1749,-1929.4202 758.2219,-1937.4144 764.7248,-1940.0055"/>
<text text-anchor="middle" x="810" y="-1994.4113" font-family="Times,serif" font-size="20.00" fill="#000000">[NA]</text>
<text text-anchor="middle" x="810" y="-1972.4113" font-family="Times,serif" font-size="20.00" fill="#000000">same&#45;origin</text>
</g>
<!-- SG_0_Node_19 -->
<g id="node4" class="node">
<title>SG_0_Node_19</title>
<ellipse fill="none" stroke="#000000" cx="446" cy="-1622.1981" rx="34.7971" ry="21.4286"/>
<text text-anchor="middle" x="446" y="-1617.1981" font-family="Times,serif" font-size="20.00" fill="#000000">0.0</text>
</g>
<!-- SG_0_Node_1&#45;&gt;SG_0_Node_19 -->
<g id="edge21" class="edge">
<title>SG_0_Node_1&#45;&gt;SG_0_Node_19</title>
<path fill="none" stroke="#000000" d="M561.6801,-1893.399C544.1741,-1884.6231 525.5569,-1872.4387 513,-1856.4113 465.3503,-1795.5919 451.5882,-1702.3051 447.6137,-1653.8603"/>
<polygon fill="#000000" stroke="#000000" points="451.0888,-1653.3899 446.8695,-1643.6715 444.1074,-1653.8999 451.0888,-1653.3899"/>
<text text-anchor="middle" x="559" y="-1774.4113" font-family="Times,serif" font-size="20.00" fill="#000000">[NA]</text>
<text text-anchor="middle" x="559" y="-1752.4113" font-family="Times,serif" font-size="20.00" fill="#000000">55 levels</text>
</g>
<!-- SG_0_Node_3 -->
<g id="node5" class="node">
<title>SG_0_Node_3</title>
<polygon fill="none" stroke="#000000" points="719.5,-1640.1981 498.5,-1640.1981 498.5,-1604.1981 719.5,-1604.1981 719.5,-1640.1981"/>
<text text-anchor="middle" x="609" y="-1617.1981" font-family="Times,serif" font-size="20.00" fill="#000000">Content&#45;Disposition</text>
</g>
<!-- SG_0_Node_1&#45;&gt;SG_0_Node_3 -->
<g id="edge22" class="edge">
<title>SG_0_Node_1&#45;&gt;SG_0_Node_3</title>
<path fill="none" stroke="#000000" d="M609,-1893.3197C609,-1844.4242 609,-1709.3598 609,-1650.3736"/>
<polygon fill="#000000" stroke="#000000" points="612.5001,-1650.2828 609,-1640.2828 605.5001,-1650.2828 612.5001,-1650.2828"/>
<text text-anchor="middle" x="628.5" y="-1840.4113" font-family="Times,serif" font-size="20.00" fill="#000000">200</text>
<text text-anchor="middle" x="628.5" y="-1818.4113" font-family="Times,serif" font-size="20.00" fill="#000000">201</text>
<text text-anchor="middle" x="628.5" y="-1796.4113" font-family="Times,serif" font-size="20.00" fill="#000000">202</text>
<text text-anchor="middle" x="628.5" y="-1774.4113" font-family="Times,serif" font-size="20.00" fill="#000000">203</text>
<text text-anchor="middle" x="628.5" y="-1752.4113" font-family="Times,serif" font-size="20.00" fill="#000000">206</text>
<text text-anchor="middle" x="628.5" y="-1730.4113" font-family="Times,serif" font-size="20.00" fill="#000000">207</text>
<text text-anchor="middle" x="628.5" y="-1708.4113" font-family="Times,serif" font-size="20.00" fill="#000000">208</text>
<text text-anchor="middle" x="628.5" y="-1686.4113" font-family="Times,serif" font-size="20.00" fill="#000000">226</text>
</g>
<!-- SG_0_Node_20 -->
<g id="node6" class="node">
<title>SG_0_Node_20</title>
<ellipse fill="none" stroke="#000000" cx="772" cy="-1622.1981" rx="34.7971" ry="21.4286"/>
<text text-anchor="middle" x="772" y="-1617.1981" font-family="Times,serif" font-size="20.00" fill="#000000">0.0</text>
</g>
<!-- SG_0_Node_2&#45;&gt;SG_0_Node_20 -->
<g id="edge3" class="edge">
<title>SG_0_Node_2&#45;&gt;SG_0_Node_20</title>
<path fill="none" stroke="#000000" d="M772,-1893.3197C772,-1845.3727 772,-1714.5675 772,-1653.891"/>
<polygon fill="#000000" stroke="#000000" points="775.5001,-1653.7532 772,-1643.7532 768.5001,-1653.7532 775.5001,-1653.7532"/>
<text text-anchor="middle" x="791.5" y="-1807.4113" font-family="Times,serif" font-size="20.00" fill="#000000">100</text>
<text text-anchor="middle" x="791.5" y="-1785.4113" font-family="Times,serif" font-size="20.00" fill="#000000">102</text>
<text text-anchor="middle" x="791.5" y="-1763.4113" font-family="Times,serif" font-size="20.00" fill="#000000">103</text>
<text text-anchor="middle" x="791.5" y="-1741.4113" font-family="Times,serif" font-size="20.00" fill="#000000">204</text>
<text text-anchor="middle" x="791.5" y="-1719.4113" font-family="Times,serif" font-size="20.00" fill="#000000">205</text>
</g>
<!-- SG_0_Node_4 -->
<g id="node7" class="node">
<title>SG_0_Node_4</title>
<polygon fill="none" stroke="#000000" points="967,-1640.1981 825,-1640.1981 825,-1604.1981 967,-1604.1981 967,-1640.1981"/>
<text text-anchor="middle" x="896" y="-1617.1981" font-family="Times,serif" font-size="20.00" fill="#000000">Status&#45;Code</text>
</g>
<!-- SG_0_Node_2&#45;&gt;SG_0_Node_4 -->
<g id="edge4" class="edge">
<title>SG_0_Node_2&#45;&gt;SG_0_Node_4</title>
<path fill="none" stroke="#000000" d="M788.7787,-1893.1527C797.5044,-1882.9299 807.8175,-1869.6133 815,-1856.4113 852.9758,-1786.6085 878.3164,-1695.6168 889.4868,-1650.3426"/>
<polygon fill="#000000" stroke="#000000" points="892.9498,-1650.9124 891.8993,-1640.3698 886.1461,-1649.2664 892.9498,-1650.9124"/>
<text text-anchor="middle" x="927" y="-1774.4113" font-family="Times,serif" font-size="20.00" fill="#000000">[NA]</text>
<text text-anchor="middle" x="927" y="-1752.4113" font-family="Times,serif" font-size="20.00" fill="#000000">58 levels</text>
</g>
<!-- SG_0_Node_5 -->
<g id="node8" class="node">
<title>SG_0_Node_5</title>
<polygon fill="none" stroke="#000000" points="590.5,-1479.7716 435.5,-1479.7716 435.5,-1443.7716 590.5,-1443.7716 590.5,-1479.7716"/>
<text text-anchor="middle" x="513" y="-1456.7716" font-family="Times,serif" font-size="20.00" fill="#000000">Content&#45;Type</text>
</g>
<!-- SG_0_Node_3&#45;&gt;SG_0_Node_5 -->
<g id="edge23" class="edge">
<title>SG_0_Node_3&#45;&gt;SG_0_Node_5</title>
<path fill="none" stroke="#000000" d="M587.9876,-1604.176C576.4608,-1593.4277 562.6037,-1578.9837 553,-1563.9848 538.1649,-1540.8155 527.3405,-1511.27 520.7214,-1489.9094"/>
<polygon fill="#000000" stroke="#000000" points="524.0215,-1488.728 517.8107,-1480.1445 517.3132,-1490.7277 524.0215,-1488.728"/>
<text text-anchor="middle" x="585" y="-1536.9848" font-family="Times,serif" font-size="20.00" fill="#000000">empty</text>
</g>
<!-- SG_0_Node_21 -->
<g id="node9" class="node">
<title>SG_0_Node_21</title>
<ellipse fill="none" stroke="#000000" cx="643" cy="-1461.7716" rx="34.7971" ry="21.4286"/>
<text text-anchor="middle" x="643" y="-1456.7716" font-family="Times,serif" font-size="20.00" fill="#000000">1.0</text>
</g>
<!-- SG_0_Node_3&#45;&gt;SG_0_Node_21 -->
<g id="edge24" class="edge">
<title>SG_0_Node_3&#45;&gt;SG_0_Node_21</title>
<path fill="none" stroke="#000000" d="M612.8341,-1604.107C618.554,-1577.1181 629.3976,-1525.9533 636.4062,-1492.884"/>
<polygon fill="#000000" stroke="#000000" points="639.8861,-1493.3451 638.5356,-1482.8367 633.0382,-1491.8937 639.8861,-1493.3451"/>
<text text-anchor="middle" x="689" y="-1547.9848" font-family="Times,serif" font-size="20.00" fill="#000000">[NA]</text>
<text text-anchor="middle" x="689" y="-1525.9848" font-family="Times,serif" font-size="20.00" fill="#000000">attachment</text>
</g>
<!-- SG_0_Node_6 -->
<g id="node10" class="node">
<title>SG_0_Node_6</title>
<polygon fill="none" stroke="#000000" points="886.5,-1479.7716 821.5,-1479.7716 821.5,-1443.7716 886.5,-1443.7716 886.5,-1479.7716"/>
<text text-anchor="middle" x="854" y="-1456.7716" font-family="Times,serif" font-size="20.00" fill="#000000">body</text>
</g>
<!-- SG_0_Node_4&#45;&gt;SG_0_Node_6 -->
<g id="edge5" class="edge">
<title>SG_0_Node_4&#45;&gt;SG_0_Node_6</title>
<path fill="none" stroke="#000000" d="M888.6971,-1604.064C884.3064,-1592.6867 878.8432,-1577.6362 875,-1563.9848 868.0603,-1539.3344 862.3815,-1510.7415 858.6871,-1490.0762"/>
<polygon fill="#000000" stroke="#000000" points="862.1056,-1489.3053 856.9399,-1480.0551 855.2096,-1490.5077 862.1056,-1489.3053"/>
<text text-anchor="middle" x="894.5" y="-1547.9848" font-family="Times,serif" font-size="20.00" fill="#000000">300</text>
<text text-anchor="middle" x="894.5" y="-1525.9848" font-family="Times,serif" font-size="20.00" fill="#000000">424</text>
</g>
<!-- SG_0_Node_22 -->
<g id="node11" class="node">
<title>SG_0_Node_22</title>
<ellipse fill="none" stroke="#000000" cx="939" cy="-1461.7716" rx="34.7971" ry="21.4286"/>
<text text-anchor="middle" x="939" y="-1456.7716" font-family="Times,serif" font-size="20.00" fill="#000000">1.0</text>
</g>
<!-- SG_0_Node_4&#45;&gt;SG_0_Node_22 -->
<g id="edge6" class="edge">
<title>SG_0_Node_4&#45;&gt;SG_0_Node_22</title>
<path fill="none" stroke="#000000" d="M901.8751,-1604.1872C905.5369,-1592.7279 910.2488,-1577.5451 914,-1563.9848 920.5533,-1540.295 927.1238,-1513.2725 931.8832,-1492.9643"/>
<polygon fill="#000000" stroke="#000000" points="935.3421,-1493.5425 934.1973,-1483.0097 928.5239,-1491.9575 935.3421,-1493.5425"/>
<text text-anchor="middle" x="971" y="-1547.9848" font-family="Times,serif" font-size="20.00" fill="#000000">[NA]</text>
<text text-anchor="middle" x="971" y="-1525.9848" font-family="Times,serif" font-size="20.00" fill="#000000">56 levels</text>
</g>
<!-- SG_0_Node_7 -->
<g id="node12" class="node">
<title>SG_0_Node_7</title>
<polygon fill="none" stroke="#000000" points="383.5,-1143.3452 228.5,-1143.3452 228.5,-1107.3452 383.5,-1107.3452 383.5,-1143.3452"/>
<text text-anchor="middle" x="306" y="-1120.3452" font-family="Times,serif" font-size="20.00" fill="#000000">Content&#45;Type</text>
</g>
<!-- SG_0_Node_5&#45;&gt;SG_0_Node_7 -->
<g id="edge25" class="edge">
<title>SG_0_Node_5&#45;&gt;SG_0_Node_7</title>
<path fill="none" stroke="#000000" d="M435.385,-1449.8874C383.5086,-1440.176 321.949,-1424.6114 306,-1403.5584 249.4175,-1328.8688 278.5916,-1207.6115 296.0426,-1153.2561"/>
<polygon fill="#000000" stroke="#000000" points="299.4156,-1154.2041 299.2445,-1143.6107 292.7721,-1151.9987 299.4156,-1154.2041"/>
<text text-anchor="middle" x="417" y="-1365.5584" font-family="Times,serif" font-size="20.00" fill="#000000">[NA]</text>
<text text-anchor="middle" x="417" y="-1343.5584" font-family="Times,serif" font-size="20.00" fill="#000000">application/javascript</text>
<text text-anchor="middle" x="417" y="-1321.5584" font-family="Times,serif" font-size="20.00" fill="#000000">application/pdf</text>
<text text-anchor="middle" x="417" y="-1299.5584" font-family="Times,serif" font-size="20.00" fill="#000000">empty</text>
<text text-anchor="middle" x="417" y="-1277.5584" font-family="Times,serif" font-size="20.00" fill="#000000">image/png</text>
<text text-anchor="middle" x="417" y="-1255.5584" font-family="Times,serif" font-size="20.00" fill="#000000">text/css</text>
<text text-anchor="middle" x="417" y="-1233.5584" font-family="Times,serif" font-size="20.00" fill="#000000">text/html</text>
<text text-anchor="middle" x="417" y="-1211.5584" font-family="Times,serif" font-size="20.00" fill="#000000">video/mp4</text>
</g>
<!-- SG_0_Node_23 -->
<g id="node13" class="node">
<title>SG_0_Node_23</title>
<ellipse fill="none" stroke="#000000" cx="564" cy="-1125.3452" rx="34.7971" ry="21.4286"/>
<text text-anchor="middle" x="564" y="-1120.3452" font-family="Times,serif" font-size="20.00" fill="#000000">1.0</text>
</g>
<!-- SG_0_Node_5&#45;&gt;SG_0_Node_23 -->
<g id="edge26" class="edge">
<title>SG_0_Node_5&#45;&gt;SG_0_Node_23</title>
<path fill="none" stroke="#000000" d="M519.9475,-1443.6789C524.0481,-1432.3171 529.0061,-1417.2685 532,-1403.5584 551.2228,-1315.5323 559.3838,-1209.158 562.425,-1157.1285"/>
<polygon fill="#000000" stroke="#000000" points="565.9344,-1157.0568 562.9983,-1146.877 558.9453,-1156.6659 565.9344,-1157.0568"/>
<text text-anchor="middle" x="612" y="-1288.5584" font-family="Times,serif" font-size="20.00" fill="#000000">audio/wav</text>
</g>
<!-- SG_0_Node_8 -->
<g id="node14" class="node">
<title>SG_0_Node_8</title>
<polygon fill="none" stroke="#000000" points="1225.5,-1143.3452 1070.5,-1143.3452 1070.5,-1107.3452 1225.5,-1107.3452 1225.5,-1143.3452"/>
<text text-anchor="middle" x="1148" y="-1120.3452" font-family="Times,serif" font-size="20.00" fill="#000000">Content&#45;Type</text>
</g>
<!-- SG_0_Node_6&#45;&gt;SG_0_Node_8 -->
<g id="edge7" class="edge">
<title>SG_0_Node_6&#45;&gt;SG_0_Node_8</title>
<path fill="none" stroke="#000000" d="M834.9962,-1443.7666C825.1833,-1433.1303 814.2009,-1418.7903 809,-1403.5584 777.405,-1311.026 745.9824,-1258.3199 809,-1183.5584 825.1067,-1164.4502 965.1036,-1145.4403 1060.0781,-1134.5707"/>
<polygon fill="#000000" stroke="#000000" points="1060.7302,-1138.0193 1070.2724,-1133.4154 1059.9418,-1131.0639 1060.7302,-1138.0193"/>
<text text-anchor="middle" x="1038.5" y="-1310.5584" font-family="Times,serif" font-size="20.00" fill="#000000">ecocnt_audio=duration=1</text>
<text text-anchor="middle" x="1038.5" y="-1288.5584" font-family="Times,serif" font-size="20.00" fill="#000000">ecocnt_html=num_frames=1,input_id=test1</text>
<text text-anchor="middle" x="1038.5" y="-1266.5584" font-family="Times,serif" font-size="20.00" fill="#000000">ecocnt_js=var a=5;</text>
</g>
<!-- SG_0_Node_24 -->
<g id="node15" class="node">
<title>SG_0_Node_24</title>
<ellipse fill="none" stroke="#000000" cx="1290" cy="-1125.3452" rx="34.7971" ry="21.4286"/>
<text text-anchor="middle" x="1290" y="-1120.3452" font-family="Times,serif" font-size="20.00" fill="#000000">1.0</text>
</g>
<!-- SG_0_Node_6&#45;&gt;SG_0_Node_24 -->
<g id="edge8" class="edge">
<title>SG_0_Node_6&#45;&gt;SG_0_Node_24</title>
<path fill="none" stroke="#000000" d="M886.2059,-1443.7048C889.1237,-1442.4999 892.0801,-1441.424 895,-1440.5584 974.8611,-1416.886 1209.6918,-1463.0423 1268,-1403.5584 1333.1363,-1337.1088 1312.9253,-1213.7866 1298.7622,-1156.3177"/>
<polygon fill="#000000" stroke="#000000" points="1302.0879,-1155.1966 1296.21,-1146.3819 1295.3081,-1156.9383 1302.0879,-1155.1966"/>
<text text-anchor="middle" x="1586" y="-1387.5584" font-family="Times,serif" font-size="20.00" fill="#000000">[NA]</text>
<text text-anchor="middle" x="1586" y="-1365.5584" font-family="Times,serif" font-size="20.00" fill="#000000">ecocnt_css=h1 {color: blue}</text>
<text text-anchor="middle" x="1586" y="-1343.5584" font-family="Times,serif" font-size="20.00" fill="#000000">ecocnt_html=meta_refresh=0;http://172.17.0.1:8000</text>
<text text-anchor="middle" x="1586" y="-1321.5584" font-family="Times,serif" font-size="20.00" fill="#000000">ecocnt_html=num_frames=2</text>
<text text-anchor="middle" x="1586" y="-1299.5584" font-family="Times,serif" font-size="20.00" fill="#000000">ecocnt_html=post_message=mes1</text>
<text text-anchor="middle" x="1586" y="-1277.5584" font-family="Times,serif" font-size="20.00" fill="#000000">ecocnt_img=width=50,height=50,type=png</text>
<text text-anchor="middle" x="1586" y="-1255.5584" font-family="Times,serif" font-size="20.00" fill="#000000">ecocnt_js=.,,.</text>
<text text-anchor="middle" x="1586" y="-1233.5584" font-family="Times,serif" font-size="20.00" fill="#000000">ecocnt_pdf=a=a</text>
<text text-anchor="middle" x="1586" y="-1211.5584" font-family="Times,serif" font-size="20.00" fill="#000000">ecocnt_vid=width=100,height=100,duration=2</text>
<text text-anchor="middle" x="1586" y="-1189.5584" font-family="Times,serif" font-size="20.00" fill="#000000">empty</text>
</g>
<!-- SG_0_Node_25 -->
<g id="node16" class="node">
<title>SG_0_Node_25</title>
<ellipse fill="none" stroke="#000000" cx="142" cy="-854.9188" rx="34.7971" ry="21.4286"/>
<text text-anchor="middle" x="142" y="-849.9188" font-family="Times,serif" font-size="20.00" fill="#000000">0.0</text>
</g>
<!-- SG_0_Node_7&#45;&gt;SG_0_Node_25 -->
<g id="edge27" class="edge">
<title>SG_0_Node_7&#45;&gt;SG_0_Node_25</title>
<path fill="none" stroke="#000000" d="M229.6745,-1107.3327C192.2484,-1096.7973 152.8924,-1082.5567 142,-1067.132 103.75,-1012.9667 119.2832,-930.0709 131.8813,-885.6152"/>
<polygon fill="#000000" stroke="#000000" points="135.2575,-886.5405 134.7451,-875.958 128.5464,-884.5503 135.2575,-886.5405"/>
<text text-anchor="middle" x="253" y="-1051.132" font-family="Times,serif" font-size="20.00" fill="#000000">[NA]</text>
<text text-anchor="middle" x="253" y="-1029.132" font-family="Times,serif" font-size="20.00" fill="#000000">application/javascript</text>
<text text-anchor="middle" x="253" y="-1007.132" font-family="Times,serif" font-size="20.00" fill="#000000">application/pdf</text>
<text text-anchor="middle" x="253" y="-985.132" font-family="Times,serif" font-size="20.00" fill="#000000">image/png</text>
<text text-anchor="middle" x="253" y="-963.132" font-family="Times,serif" font-size="20.00" fill="#000000">text/css</text>
<text text-anchor="middle" x="253" y="-941.132" font-family="Times,serif" font-size="20.00" fill="#000000">text/html</text>
<text text-anchor="middle" x="253" y="-919.132" font-family="Times,serif" font-size="20.00" fill="#000000">video/mp4</text>
</g>
<!-- SG_0_Node_9 -->
<g id="node17" class="node">
<title>SG_0_Node_9</title>
<polygon fill="none" stroke="#000000" points="432.5,-872.9188 367.5,-872.9188 367.5,-836.9188 432.5,-836.9188 432.5,-872.9188"/>
<text text-anchor="middle" x="400" y="-849.9188" font-family="Times,serif" font-size="20.00" fill="#000000">body</text>
</g>
<!-- SG_0_Node_7&#45;&gt;SG_0_Node_9 -->
<g id="edge28" class="edge">
<title>SG_0_Node_7&#45;&gt;SG_0_Node_9</title>
<path fill="none" stroke="#000000" d="M332.2979,-1107.304C345.1563,-1097.0509 359.6296,-1083.0823 368,-1067.132 399.3766,-1007.3423 402.366,-925.8565 401.4353,-883.355"/>
<polygon fill="#000000" stroke="#000000" points="404.9282,-883.0686 401.1193,-873.1822 397.9316,-883.286 404.9282,-883.0686"/>
<text text-anchor="middle" x="433" y="-985.132" font-family="Times,serif" font-size="20.00" fill="#000000">empty</text>
</g>
<!-- SG_0_Node_10 -->
<g id="node18" class="node">
<title>SG_0_Node_10</title>
<polygon fill="none" stroke="#000000" points="1306.5,-872.9188 989.5,-872.9188 989.5,-836.9188 1306.5,-836.9188 1306.5,-872.9188"/>
<text text-anchor="middle" x="1148" y="-849.9188" font-family="Times,serif" font-size="20.00" fill="#000000">Cross&#45;Origin&#45;Resource&#45;Policy</text>
</g>
<!-- SG_0_Node_8&#45;&gt;SG_0_Node_10 -->
<g id="edge9" class="edge">
<title>SG_0_Node_8&#45;&gt;SG_0_Node_10</title>
<path fill="none" stroke="#000000" d="M1148,-1107.1819C1148,-1060.9966 1148,-938.8048 1148,-883.1951"/>
<polygon fill="#000000" stroke="#000000" points="1151.5001,-883.0031 1148,-873.0031 1144.5001,-883.0032 1151.5001,-883.0031"/>
<text text-anchor="middle" x="1195" y="-996.132" font-family="Times,serif" font-size="20.00" fill="#000000">empty</text>
<text text-anchor="middle" x="1195" y="-974.132" font-family="Times,serif" font-size="20.00" fill="#000000">text/html</text>
</g>
<!-- SG_0_Node_26 -->
<g id="node19" class="node">
<title>SG_0_Node_26</title>
<ellipse fill="none" stroke="#000000" cx="1359" cy="-854.9188" rx="34.7971" ry="21.4286"/>
<text text-anchor="middle" x="1359" y="-849.9188" font-family="Times,serif" font-size="20.00" fill="#000000">1.0</text>
</g>
<!-- SG_0_Node_8&#45;&gt;SG_0_Node_26 -->
<g id="edge10" class="edge">
<title>SG_0_Node_8&#45;&gt;SG_0_Node_26</title>
<path fill="none" stroke="#000000" d="M1189.1629,-1107.3101C1208.1712,-1097.4807 1230.0149,-1083.8818 1246,-1067.132 1297.8658,-1012.7852 1332.6566,-929.9631 1348.7454,-885.5671"/>
<polygon fill="#000000" stroke="#000000" points="1352.1216,-886.5183 1352.1639,-875.9236 1345.5238,-884.1795 1352.1216,-886.5183"/>
<text text-anchor="middle" x="1448" y="-1051.132" font-family="Times,serif" font-size="20.00" fill="#000000">[NA]</text>
<text text-anchor="middle" x="1448" y="-1029.132" font-family="Times,serif" font-size="20.00" fill="#000000">application/javascript</text>
<text text-anchor="middle" x="1448" y="-1007.132" font-family="Times,serif" font-size="20.00" fill="#000000">application/pdf</text>
<text text-anchor="middle" x="1448" y="-985.132" font-family="Times,serif" font-size="20.00" fill="#000000">audio/wav</text>
<text text-anchor="middle" x="1448" y="-963.132" font-family="Times,serif" font-size="20.00" fill="#000000">image/png</text>
<text text-anchor="middle" x="1448" y="-941.132" font-family="Times,serif" font-size="20.00" fill="#000000">text/css</text>
<text text-anchor="middle" x="1448" y="-919.132" font-family="Times,serif" font-size="20.00" fill="#000000">video/mp4</text>
</g>
<!-- SG_0_Node_27 -->
<g id="node20" class="node">
<title>SG_0_Node_27</title>
<ellipse fill="none" stroke="#000000" cx="51" cy="-518.4924" rx="34.7971" ry="21.4286"/>
<text text-anchor="middle" x="51" y="-513.4924" font-family="Times,serif" font-size="20.00" fill="#000000">0.0</text>
</g>
<!-- SG_0_Node_9&#45;&gt;SG_0_Node_27 -->
<g id="edge29" class="edge">
<title>SG_0_Node_9&#45;&gt;SG_0_Node_27</title>
<path fill="none" stroke="#000000" d="M367.4201,-852.0579C282.6466,-844.2867 60.2753,-821.6866 39,-796.7056 -21.3251,-725.8735 15.8287,-604.3143 37.9943,-548.3232"/>
<polygon fill="#000000" stroke="#000000" points="41.2722,-549.5538 41.8005,-538.9721 34.7887,-546.9148 41.2722,-549.5538"/>
<text text-anchor="middle" x="312" y="-780.7056" font-family="Times,serif" font-size="20.00" fill="#000000">[NA]</text>
<text text-anchor="middle" x="312" y="-758.7056" font-family="Times,serif" font-size="20.00" fill="#000000">ecocnt_css=h1 {color: blue}</text>
<text text-anchor="middle" x="312" y="-736.7056" font-family="Times,serif" font-size="20.00" fill="#000000">ecocnt_html=meta_refresh=0;http://172.17.0.1:8000</text>
<text text-anchor="middle" x="312" y="-714.7056" font-family="Times,serif" font-size="20.00" fill="#000000">ecocnt_html=num_frames=1,input_id=test1</text>
<text text-anchor="middle" x="312" y="-692.7056" font-family="Times,serif" font-size="20.00" fill="#000000">ecocnt_html=num_frames=2</text>
<text text-anchor="middle" x="312" y="-670.7056" font-family="Times,serif" font-size="20.00" fill="#000000">ecocnt_html=post_message=mes1</text>
<text text-anchor="middle" x="312" y="-648.7056" font-family="Times,serif" font-size="20.00" fill="#000000">ecocnt_js=.,,.</text>
<text text-anchor="middle" x="312" y="-626.7056" font-family="Times,serif" font-size="20.00" fill="#000000">ecocnt_js=var a=5;</text>
<text text-anchor="middle" x="312" y="-604.7056" font-family="Times,serif" font-size="20.00" fill="#000000">ecocnt_pdf=a=a</text>
<text text-anchor="middle" x="312" y="-582.7056" font-family="Times,serif" font-size="20.00" fill="#000000">empty</text>
</g>
<!-- SG_0_Node_11 -->
<g id="node21" class="node">
<title>SG_0_Node_11</title>
<polygon fill="none" stroke="#000000" points="752,-536.4924 490,-536.4924 490,-500.4924 752,-500.4924 752,-536.4924"/>
<text text-anchor="middle" x="621" y="-513.4924" font-family="Times,serif" font-size="20.00" fill="#000000">X&#45;Content&#45;Type&#45;Options</text>
</g>
<!-- SG_0_Node_9&#45;&gt;SG_0_Node_11 -->
<g id="edge30" class="edge">
<title>SG_0_Node_9&#45;&gt;SG_0_Node_11</title>
<path fill="none" stroke="#000000" d="M432.8416,-849.2376C481.4512,-840.1276 568.9789,-820.8031 589,-796.7056 649.2957,-724.1335 636.5651,-601.7137 626.8754,-546.7246"/>
<polygon fill="#000000" stroke="#000000" points="630.2728,-545.8504 625.0005,-536.6606 623.3912,-547.1325 630.2728,-545.8504"/>
<text text-anchor="middle" x="880.5" y="-703.7056" font-family="Times,serif" font-size="20.00" fill="#000000">ecocnt_audio=duration=1</text>
<text text-anchor="middle" x="880.5" y="-681.7056" font-family="Times,serif" font-size="20.00" fill="#000000">ecocnt_img=width=50,height=50,type=png</text>
<text text-anchor="middle" x="880.5" y="-659.7056" font-family="Times,serif" font-size="20.00" fill="#000000">ecocnt_vid=width=100,height=100,duration=2</text>
</g>
<!-- SG_0_Node_12 -->
<g id="node22" class="node">
<title>SG_0_Node_12</title>
<polygon fill="none" stroke="#000000" points="1219,-536.4924 1077,-536.4924 1077,-500.4924 1219,-500.4924 1219,-536.4924"/>
<text text-anchor="middle" x="1148" y="-513.4924" font-family="Times,serif" font-size="20.00" fill="#000000">Status&#45;Code</text>
</g>
<!-- SG_0_Node_10&#45;&gt;SG_0_Node_12 -->
<g id="edge11" class="edge">
<title>SG_0_Node_10&#45;&gt;SG_0_Node_12</title>
<path fill="none" stroke="#000000" d="M1148,-836.8311C1148,-781.4969 1148,-614.1868 1148,-546.9346"/>
<polygon fill="#000000" stroke="#000000" points="1151.5001,-546.6696 1148,-536.6696 1144.5001,-546.6696 1151.5001,-546.6696"/>
<text text-anchor="middle" x="1209" y="-681.7056" font-family="Times,serif" font-size="20.00" fill="#000000">same&#45;origin</text>
</g>
<!-- SG_0_Node_28 -->
<g id="node23" class="node">
<title>SG_0_Node_28</title>
<ellipse fill="none" stroke="#000000" cx="1306" cy="-518.4924" rx="34.7971" ry="21.4286"/>
<text text-anchor="middle" x="1306" y="-513.4924" font-family="Times,serif" font-size="20.00" fill="#000000">1.0</text>
</g>
<!-- SG_0_Node_10&#45;&gt;SG_0_Node_28 -->
<g id="edge12" class="edge">
<title>SG_0_Node_10&#45;&gt;SG_0_Node_28</title>
<path fill="none" stroke="#000000" d="M1218.9028,-836.8136C1239.7719,-828.0517 1260.5826,-815.2533 1274,-796.7056 1328.0779,-721.9503 1319.5655,-605.1453 1311.5414,-549.7109"/>
<polygon fill="#000000" stroke="#000000" points="1314.9942,-549.1361 1310.013,-539.7853 1308.0758,-550.2015 1314.9942,-549.1361"/>
<text text-anchor="middle" x="1349" y="-692.7056" font-family="Times,serif" font-size="20.00" fill="#000000">[NA]</text>
<text text-anchor="middle" x="1349" y="-670.7056" font-family="Times,serif" font-size="20.00" fill="#000000">empty</text>
</g>
<!-- SG_0_Node_13 -->
<g id="node24" class="node">
<title>SG_0_Node_13</title>
<polygon fill="none" stroke="#000000" points="573.5,-376.066 508.5,-376.066 508.5,-340.066 573.5,-340.066 573.5,-376.066"/>
<text text-anchor="middle" x="541" y="-353.066" font-family="Times,serif" font-size="20.00" fill="#000000">body</text>
</g>
<!-- SG_0_Node_11&#45;&gt;SG_0_Node_13 -->
<g id="edge31" class="edge">
<title>SG_0_Node_11&#45;&gt;SG_0_Node_13</title>
<path fill="none" stroke="#000000" d="M595.3469,-500.2495C582.7563,-489.9411 568.5038,-475.984 560,-460.2792 547.5748,-437.3326 543.124,-407.7045 541.6033,-386.2601"/>
<polygon fill="#000000" stroke="#000000" points="545.0924,-385.9606 541.0592,-376.1635 538.1025,-386.3373 545.0924,-385.9606"/>
<text text-anchor="middle" x="592" y="-433.2792" font-family="Times,serif" font-size="20.00" fill="#000000">empty</text>
</g>
<!-- SG_0_Node_29 -->
<g id="node25" class="node">
<title>SG_0_Node_29</title>
<ellipse fill="none" stroke="#000000" cx="641" cy="-358.066" rx="34.7971" ry="21.4286"/>
<text text-anchor="middle" x="641" y="-353.066" font-family="Times,serif" font-size="20.00" fill="#000000">1.0</text>
</g>
<!-- SG_0_Node_11&#45;&gt;SG_0_Node_29 -->
<g id="edge32" class="edge">
<title>SG_0_Node_11&#45;&gt;SG_0_Node_29</title>
<path fill="none" stroke="#000000" d="M623.2554,-500.4013C626.6108,-473.4864 632.9637,-422.5279 637.0874,-389.4506"/>
<polygon fill="#000000" stroke="#000000" points="640.5772,-389.7489 638.3412,-379.3927 633.6309,-388.8829 640.5772,-389.7489"/>
<text text-anchor="middle" x="668" y="-444.2792" font-family="Times,serif" font-size="20.00" fill="#000000">[NA]</text>
<text text-anchor="middle" x="668" y="-422.2792" font-family="Times,serif" font-size="20.00" fill="#000000">nosniff</text>
</g>
<!-- SG_0_Node_14 -->
<g id="node26" class="node">
<title>SG_0_Node_14</title>
<polygon fill="none" stroke="#000000" points="1100,-376.066 838,-376.066 838,-340.066 1100,-340.066 1100,-376.066"/>
<text text-anchor="middle" x="969" y="-353.066" font-family="Times,serif" font-size="20.00" fill="#000000">X&#45;Content&#45;Type&#45;Options</text>
</g>
<!-- SG_0_Node_12&#45;&gt;SG_0_Node_14 -->
<g id="edge13" class="edge">
<title>SG_0_Node_12&#45;&gt;SG_0_Node_14</title>
<path fill="none" stroke="#000000" d="M1127.8144,-500.4013C1095.7683,-471.6804 1033.1739,-415.581 996.8725,-383.0464"/>
<polygon fill="#000000" stroke="#000000" points="998.8947,-380.1588 989.1119,-376.091 994.2228,-385.3716 998.8947,-380.1588"/>
<text text-anchor="middle" x="1101.5" y="-433.2792" font-family="Times,serif" font-size="20.00" fill="#000000">424</text>
</g>
<!-- SG_0_Node_15 -->
<g id="node27" class="node">
<title>SG_0_Node_15</title>
<polygon fill="none" stroke="#000000" points="1183.5,-376.066 1118.5,-376.066 1118.5,-340.066 1183.5,-340.066 1183.5,-376.066"/>
<text text-anchor="middle" x="1151" y="-353.066" font-family="Times,serif" font-size="20.00" fill="#000000">body</text>
</g>
<!-- SG_0_Node_12&#45;&gt;SG_0_Node_15 -->
<g id="edge14" class="edge">
<title>SG_0_Node_12&#45;&gt;SG_0_Node_15</title>
<path fill="none" stroke="#000000" d="M1148.3383,-500.4013C1148.856,-472.7194 1149.8492,-419.6042 1150.4651,-386.6675"/>
<polygon fill="#000000" stroke="#000000" points="1153.9707,-386.4009 1150.6583,-376.3371 1146.9719,-386.2699 1153.9707,-386.4009"/>
<text text-anchor="middle" x="1168.5" y="-433.2792" font-family="Times,serif" font-size="20.00" fill="#000000">300</text>
</g>
<!-- SG_0_Node_30 -->
<g id="node28" class="node">
<title>SG_0_Node_30</title>
<ellipse fill="none" stroke="#000000" cx="51" cy="-197.6396" rx="34.7971" ry="21.4286"/>
<text text-anchor="middle" x="51" y="-192.6396" font-family="Times,serif" font-size="20.00" fill="#000000">0.0</text>
</g>
<!-- SG_0_Node_13&#45;&gt;SG_0_Node_30 -->
<g id="edge33" class="edge">
<title>SG_0_Node_13&#45;&gt;SG_0_Node_30</title>
<path fill="none" stroke="#000000" d="M508.3783,-356.6119C404.0635,-351.6348 83.6384,-333.6907 53,-299.8528 35.8511,-280.9131 37.356,-250.9538 41.9586,-228.3566"/>
<polygon fill="#000000" stroke="#000000" points="45.3811,-229.0909 44.2353,-218.5582 38.5628,-227.5066 45.3811,-229.0909"/>
<text text-anchor="middle" x="298.5" y="-283.8528" font-family="Times,serif" font-size="20.00" fill="#000000">ecocnt_img=width=50,height=50,type=png</text>
<text text-anchor="middle" x="298.5" y="-261.8528" font-family="Times,serif" font-size="20.00" fill="#000000">ecocnt_vid=width=100,height=100,duration=2</text>
</g>
<!-- SG_0_Node_31 -->
<g id="node29" class="node">
<title>SG_0_Node_31</title>
<ellipse fill="none" stroke="#000000" cx="561" cy="-197.6396" rx="34.7971" ry="21.4286"/>
<text text-anchor="middle" x="561" y="-192.6396" font-family="Times,serif" font-size="20.00" fill="#000000">1.0</text>
</g>
<!-- SG_0_Node_13&#45;&gt;SG_0_Node_31 -->
<g id="edge34" class="edge">
<title>SG_0_Node_13&#45;&gt;SG_0_Node_31</title>
<path fill="none" stroke="#000000" d="M543.2554,-339.9749C546.6108,-313.06 552.9637,-262.1015 557.0874,-229.0242"/>
<polygon fill="#000000" stroke="#000000" points="560.5772,-229.3225 558.3412,-218.9663 553.6309,-228.4565 560.5772,-229.3225"/>
<text text-anchor="middle" x="687.5" y="-272.8528" font-family="Times,serif" font-size="20.00" fill="#000000">ecocnt_audio=duration=1</text>
</g>
<!-- SG_0_Node_16 -->
<g id="node30" class="node">
<title>SG_0_Node_16</title>
<polygon fill="none" stroke="#000000" points="919.5,-215.6396 728.5,-215.6396 728.5,-179.6396 919.5,-179.6396 919.5,-215.6396"/>
<text text-anchor="middle" x="824" y="-192.6396" font-family="Times,serif" font-size="20.00" fill="#000000">X&#45;Frame&#45;Options</text>
</g>
<!-- SG_0_Node_14&#45;&gt;SG_0_Node_16 -->
<g id="edge17" class="edge">
<title>SG_0_Node_14&#45;&gt;SG_0_Node_16</title>
<path fill="none" stroke="#000000" d="M942.8265,-340.0322C928.1937,-329.2801 910.1175,-314.8363 896,-299.8528 873.9887,-276.4913 853.3826,-246.0138 839.9028,-224.4362"/>
<polygon fill="#000000" stroke="#000000" points="842.799,-222.4643 834.5787,-215.7802 836.8366,-226.1317 842.799,-222.4643"/>
<text text-anchor="middle" x="931" y="-272.8528" font-family="Times,serif" font-size="20.00" fill="#000000">nosniff</text>
</g>
<!-- SG_0_Node_32 -->
<g id="node31" class="node">
<title>SG_0_Node_32</title>
<ellipse fill="none" stroke="#000000" cx="972" cy="-197.6396" rx="34.7971" ry="21.4286"/>
<text text-anchor="middle" x="972" y="-192.6396" font-family="Times,serif" font-size="20.00" fill="#000000">1.0</text>
</g>
<!-- SG_0_Node_14&#45;&gt;SG_0_Node_32 -->
<g id="edge18" class="edge">
<title>SG_0_Node_14&#45;&gt;SG_0_Node_32</title>
<path fill="none" stroke="#000000" d="M969.3383,-339.9749C969.8416,-313.06 970.7946,-262.1015 971.4131,-229.0242"/>
<polygon fill="#000000" stroke="#000000" points="974.9135,-229.03 971.6012,-218.9663 967.9147,-228.8991 974.9135,-229.03"/>
<text text-anchor="middle" x="1002" y="-283.8528" font-family="Times,serif" font-size="20.00" fill="#000000">[NA]</text>
<text text-anchor="middle" x="1002" y="-261.8528" font-family="Times,serif" font-size="20.00" fill="#000000">empty</text>
</g>
<!-- SG_0_Node_33 -->
<g id="node32" class="node">
<title>SG_0_Node_33</title>
<ellipse fill="none" stroke="#000000" cx="1077" cy="-197.6396" rx="52.1524" ry="21.4286"/>
<text text-anchor="middle" x="1077" y="-192.6396" font-family="Times,serif" font-size="20.00" fill="#000000">0.969</text>
</g>
<!-- SG_0_Node_15&#45;&gt;SG_0_Node_33 -->
<g id="edge15" class="edge">
<title>SG_0_Node_15&#45;&gt;SG_0_Node_33</title>
<path fill="none" stroke="#000000" d="M1122.3469,-339.9974C1108.9283,-329.9153 1094.1374,-316.1083 1086,-299.8528 1075.0852,-278.0493 1073.2692,-250.3414 1073.9425,-229.2758"/>
<polygon fill="#000000" stroke="#000000" points="1077.4408,-229.3964 1074.465,-219.2281 1070.4503,-229.0328 1077.4408,-229.3964"/>
<text text-anchor="middle" x="1315.5" y="-272.8528" font-family="Times,serif" font-size="20.00" fill="#000000">ecocnt_html=num_frames=1,input_id=test1</text>
</g>
<!-- SG_0_Node_34 -->
<g id="node33" class="node">
<title>SG_0_Node_34</title>
<ellipse fill="none" stroke="#000000" cx="1567" cy="-197.6396" rx="34.7971" ry="21.4286"/>
<text text-anchor="middle" x="1567" y="-192.6396" font-family="Times,serif" font-size="20.00" fill="#000000">1.0</text>
</g>
<!-- SG_0_Node_15&#45;&gt;SG_0_Node_34 -->
<g id="edge16" class="edge">
<title>SG_0_Node_15&#45;&gt;SG_0_Node_34</title>
<path fill="none" stroke="#000000" d="M1183.6201,-355.3699C1273.2978,-347.6667 1518.6644,-324.5222 1545,-299.8528 1563.9842,-282.0697 1568.6082,-252.1667 1569.0003,-229.2853"/>
<polygon fill="#000000" stroke="#000000" points="1572.4979,-228.9866 1568.9085,-219.0184 1565.4982,-229.0493 1572.4979,-228.9866"/>
<text text-anchor="middle" x="1700.5" y="-283.8528" font-family="Times,serif" font-size="20.00" fill="#000000">ecocnt_audio=duration=1</text>
<text text-anchor="middle" x="1700.5" y="-261.8528" font-family="Times,serif" font-size="20.00" fill="#000000">ecocnt_js=var a=5;</text>
</g>
<!-- SG_0_Node_35 -->
<g id="node34" class="node">
<title>SG_0_Node_35</title>
<ellipse fill="none" stroke="#000000" cx="772" cy="-37.2132" rx="52.1524" ry="21.4286"/>
<text text-anchor="middle" x="772" y="-32.2132" font-family="Times,serif" font-size="20.00" fill="#000000">0.917</text>
</g>
<!-- SG_0_Node_16&#45;&gt;SG_0_Node_35 -->
<g id="edge19" class="edge">
<title>SG_0_Node_16&#45;&gt;SG_0_Node_35</title>
<path fill="none" stroke="#000000" d="M810.5888,-179.4129C803.1063,-168.3704 794.2601,-153.7004 789,-139.4264 780.5778,-116.5719 776.3091,-89.3002 774.1564,-68.6771"/>
<polygon fill="#000000" stroke="#000000" points="777.6261,-68.189 773.2127,-58.5572 770.6564,-68.839 777.6261,-68.189"/>
<text text-anchor="middle" x="821" y="-112.4264" font-family="Times,serif" font-size="20.00" fill="#000000">empty</text>
</g>
<!-- SG_0_Node_36 -->
<g id="node35" class="node">
<title>SG_0_Node_36</title>
<ellipse fill="none" stroke="#000000" cx="877" cy="-37.2132" rx="34.7971" ry="21.4286"/>
<text text-anchor="middle" x="877" y="-32.2132" font-family="Times,serif" font-size="20.00" fill="#000000">1.0</text>
</g>
<!-- SG_0_Node_16&#45;&gt;SG_0_Node_36 -->
<g id="edge20" class="edge">
<title>SG_0_Node_16&#45;&gt;SG_0_Node_36</title>
<path fill="none" stroke="#000000" d="M834.3984,-179.5073C840.502,-168.2565 847.9781,-153.3391 853,-139.4264 861.3794,-116.2121 867.6087,-88.9612 871.6183,-68.4375"/>
<polygon fill="#000000" stroke="#000000" points="875.102,-68.8501 873.5123,-58.3752 868.2228,-67.5552 875.102,-68.8501"/>
<text text-anchor="middle" x="890" y="-123.4264" font-family="Times,serif" font-size="20.00" fill="#000000">[NA]</text>
<text text-anchor="middle" x="890" y="-101.4264" font-family="Times,serif" font-size="20.00" fill="#000000">deny</text>
</g>
</g>
</svg>
