<?xml version="1.0" encoding="UTF-8" standalone="no"?>
<!DOCTYPE svg PUBLIC "-//W3C//DTD SVG 1.1//EN"
 "http://www.w3.org/Graphics/SVG/1.1/DTD/svg11.dtd">
<!-- Generated by graphviz version 2.40.1 (20161225.0304)
 -->
<!-- Title: G Pages: 1 -->
<svg width="2582pt" height="2335pt"
 viewBox="0.00 0.00 2582.00 2335.41" xmlns="http://www.w3.org/2000/svg" xmlns:xlink="http://www.w3.org/1999/xlink">
<g id="graph0" class="graph" transform="scale(1 1) rotate(0) translate(4 2331.4113)">
<title>G</title>
<polygon fill="#ffffff" stroke="transparent" points="-4,4 -4,-2331.4113 2578,-2331.4113 2578,4 -4,4"/>
<g id="clust1" class="cluster">
<title>cluster_0</title>
<polygon fill="none" stroke="#000000" points="8,-8 8,-2319.4113 2566,-2319.4113 2566,-8 8,-8"/>
<text text-anchor="middle" x="1287" y="-2283.4113" font-family="Times,serif" font-size="40.00" fill="#000000">Tree 0, Class Access to win.window.name denied</text>
</g>
<!-- SG_0_Node_0 -->
<g id="node1" class="node">
<title>SG_0_Node_0</title>
<polygon fill="none" stroke="#000000" points="949,-2259.4113 651,-2259.4113 651,-2223.4113 949,-2223.4113 949,-2259.4113"/>
<text text-anchor="middle" x="800" y="-2236.4113" font-family="Times,serif" font-size="20.00" fill="#000000">Cross&#45;Origin&#45;Opener&#45;Policy</text>
</g>
<!-- SG_0_Node_24 -->
<g id="node2" class="node">
<title>SG_0_Node_24</title>
<ellipse fill="none" stroke="#000000" cx="719" cy="-2084.1981" rx="34.7971" ry="21.4286"/>
<text text-anchor="middle" x="719" y="-2079.1981" font-family="Times,serif" font-size="20.00" fill="#000000">0.0</text>
</g>
<!-- SG_0_Node_0&#45;&gt;SG_0_Node_24 -->
<g id="edge1" class="edge">
<title>SG_0_Node_0&#45;&gt;SG_0_Node_24</title>
<path fill="none" stroke="#000000" d="M770.9946,-2223.3415C758.2608,-2213.9003 744.3385,-2201.2193 736,-2186.4113 723.8432,-2164.8222 719.8466,-2136.8774 718.7485,-2115.6647"/>
<polygon fill="#000000" stroke="#000000" points="722.2428,-2115.4318 718.4148,-2105.5527 715.2467,-2115.6627 722.2428,-2115.4318"/>
<text text-anchor="middle" x="797" y="-2170.4113" font-family="Times,serif" font-size="20.00" fill="#000000">[NA]</text>
<text text-anchor="middle" x="797" y="-2148.4113" font-family="Times,serif" font-size="20.00" fill="#000000">same&#45;origin</text>
</g>
<!-- SG_0_Node_1 -->
<g id="node3" class="node">
<title>SG_0_Node_1</title>
<polygon fill="none" stroke="#000000" points="992.5,-2102.1981 771.5,-2102.1981 771.5,-2066.1981 992.5,-2066.1981 992.5,-2102.1981"/>
<text text-anchor="middle" x="882" y="-2079.1981" font-family="Times,serif" font-size="20.00" fill="#000000">Content&#45;Disposition</text>
</g>
<!-- SG_0_Node_0&#45;&gt;SG_0_Node_1 -->
<g id="edge2" class="edge">
<title>SG_0_Node_0&#45;&gt;SG_0_Node_1</title>
<path fill="none" stroke="#000000" d="M824.988,-2223.3193C836.6655,-2213.6228 849.7764,-2200.7315 858,-2186.4113 871.1236,-2163.5585 877.0787,-2133.9183 879.7765,-2112.4455"/>
<polygon fill="#000000" stroke="#000000" points="883.2743,-2112.6551 880.8837,-2102.3335 876.3159,-2111.8931 883.2743,-2112.6551"/>
<text text-anchor="middle" x="906" y="-2159.4113" font-family="Times,serif" font-size="20.00" fill="#000000">empty</text>
</g>
<!-- SG_0_Node_2 -->
<g id="node4" class="node">
<title>SG_0_Node_2</title>
<polygon fill="none" stroke="#000000" points="814,-1944.9848 672,-1944.9848 672,-1908.9848 814,-1908.9848 814,-1944.9848"/>
<text text-anchor="middle" x="743" y="-1921.9848" font-family="Times,serif" font-size="20.00" fill="#000000">Status&#45;Code</text>
</g>
<!-- SG_0_Node_1&#45;&gt;SG_0_Node_2 -->
<g id="edge3" class="edge">
<title>SG_0_Node_1&#45;&gt;SG_0_Node_2</title>
<path fill="none" stroke="#000000" d="M866.0549,-2066.1637C841.4685,-2038.3557 794.1936,-1984.8863 765.9362,-1952.9264"/>
<polygon fill="#000000" stroke="#000000" points="768.4332,-1950.4665 759.1873,-1945.2931 763.189,-1955.1032 768.4332,-1950.4665"/>
<text text-anchor="middle" x="888" y="-2009.9848" font-family="Times,serif" font-size="20.00" fill="#000000">[NA]</text>
<text text-anchor="middle" x="888" y="-1987.9848" font-family="Times,serif" font-size="20.00" fill="#000000">attachment</text>
</g>
<!-- SG_0_Node_3 -->
<g id="node5" class="node">
<title>SG_0_Node_3</title>
<polygon fill="none" stroke="#000000" points="1098.5,-1944.9848 943.5,-1944.9848 943.5,-1908.9848 1098.5,-1908.9848 1098.5,-1944.9848"/>
<text text-anchor="middle" x="1021" y="-1921.9848" font-family="Times,serif" font-size="20.00" fill="#000000">Content&#45;Type</text>
</g>
<!-- SG_0_Node_1&#45;&gt;SG_0_Node_3 -->
<g id="edge4" class="edge">
<title>SG_0_Node_1&#45;&gt;SG_0_Node_3</title>
<path fill="none" stroke="#000000" d="M906.3244,-2066.1748C920.1826,-2055.316 937.4326,-2040.7627 951,-2025.9848 971.7095,-2003.4278 991.4863,-1974.5388 1004.7031,-1953.798"/>
<polygon fill="#000000" stroke="#000000" points="1007.7659,-1955.5021 1010.1215,-1945.1725 1001.8383,-1951.7786 1007.7659,-1955.5021"/>
<text text-anchor="middle" x="1017" y="-1998.9848" font-family="Times,serif" font-size="20.00" fill="#000000">empty</text>
</g>
<!-- SG_0_Node_25 -->
<g id="node6" class="node">
<title>SG_0_Node_25</title>
<ellipse fill="none" stroke="#000000" cx="615" cy="-1637.7716" rx="34.7971" ry="21.4286"/>
<text text-anchor="middle" x="615" y="-1632.7716" font-family="Times,serif" font-size="20.00" fill="#000000">0.0</text>
</g>
<!-- SG_0_Node_2&#45;&gt;SG_0_Node_25 -->
<g id="edge37" class="edge">
<title>SG_0_Node_2&#45;&gt;SG_0_Node_25</title>
<path fill="none" stroke="#000000" d="M684.987,-1908.9751C667.1171,-1900.5648 649.2143,-1888.6224 638,-1871.9848 596.282,-1810.0917 602.3921,-1717.2636 609.3137,-1669.1696"/>
<polygon fill="#000000" stroke="#000000" points="612.8079,-1669.4754 610.8777,-1659.0579 605.8902,-1668.4054 612.8079,-1669.4754"/>
<text text-anchor="middle" x="684" y="-1789.9848" font-family="Times,serif" font-size="20.00" fill="#000000">[NA]</text>
<text text-anchor="middle" x="684" y="-1767.9848" font-family="Times,serif" font-size="20.00" fill="#000000">57 levels</text>
</g>
<!-- SG_0_Node_4 -->
<g id="node7" class="node">
<title>SG_0_Node_4</title>
<polygon fill="none" stroke="#000000" points="784.5,-1655.7716 679.5,-1655.7716 679.5,-1619.7716 784.5,-1619.7716 784.5,-1655.7716"/>
<text text-anchor="middle" x="732" y="-1632.7716" font-family="Times,serif" font-size="20.00" fill="#000000">Location</text>
</g>
<!-- SG_0_Node_2&#45;&gt;SG_0_Node_4 -->
<g id="edge38" class="edge">
<title>SG_0_Node_2&#45;&gt;SG_0_Node_4</title>
<path fill="none" stroke="#000000" d="M742.3119,-1908.8933C740.4522,-1859.9978 735.3151,-1724.9334 733.0716,-1665.9471"/>
<polygon fill="#000000" stroke="#000000" points="736.5655,-1665.7161 732.6878,-1655.8564 729.5705,-1665.9822 736.5655,-1665.7161"/>
<text text-anchor="middle" x="759.5" y="-1833.9848" font-family="Times,serif" font-size="20.00" fill="#000000">300</text>
<text text-anchor="middle" x="759.5" y="-1811.9848" font-family="Times,serif" font-size="20.00" fill="#000000">301</text>
<text text-anchor="middle" x="759.5" y="-1789.9848" font-family="Times,serif" font-size="20.00" fill="#000000">302</text>
<text text-anchor="middle" x="759.5" y="-1767.9848" font-family="Times,serif" font-size="20.00" fill="#000000">303</text>
<text text-anchor="middle" x="759.5" y="-1745.9848" font-family="Times,serif" font-size="20.00" fill="#000000">307</text>
<text text-anchor="middle" x="759.5" y="-1723.9848" font-family="Times,serif" font-size="20.00" fill="#000000">308</text>
</g>
<!-- SG_0_Node_5 -->
<g id="node8" class="node">
<title>SG_0_Node_5</title>
<polygon fill="none" stroke="#000000" points="1092,-1655.7716 950,-1655.7716 950,-1619.7716 1092,-1619.7716 1092,-1655.7716"/>
<text text-anchor="middle" x="1021" y="-1632.7716" font-family="Times,serif" font-size="20.00" fill="#000000">Status&#45;Code</text>
</g>
<!-- SG_0_Node_3&#45;&gt;SG_0_Node_5 -->
<g id="edge5" class="edge">
<title>SG_0_Node_3&#45;&gt;SG_0_Node_5</title>
<path fill="none" stroke="#000000" d="M1021,-1908.8933C1021,-1859.9978 1021,-1724.9334 1021,-1665.9471"/>
<polygon fill="#000000" stroke="#000000" points="1024.5001,-1665.8564 1021,-1655.8564 1017.5001,-1665.8564 1024.5001,-1665.8564"/>
<text text-anchor="middle" x="1073" y="-1778.9848" font-family="Times,serif" font-size="20.00" fill="#000000">audio/wav</text>
</g>
<!-- SG_0_Node_6 -->
<g id="node9" class="node">
<title>SG_0_Node_6</title>
<polygon fill="none" stroke="#000000" points="1306,-1655.7716 1164,-1655.7716 1164,-1619.7716 1306,-1619.7716 1306,-1655.7716"/>
<text text-anchor="middle" x="1235" y="-1632.7716" font-family="Times,serif" font-size="20.00" fill="#000000">Status&#45;Code</text>
</g>
<!-- SG_0_Node_3&#45;&gt;SG_0_Node_6 -->
<g id="edge6" class="edge">
<title>SG_0_Node_3&#45;&gt;SG_0_Node_6</title>
<path fill="none" stroke="#000000" d="M1073.1953,-1908.954C1092.6315,-1900.2016 1113.6686,-1888.0387 1129,-1871.9848 1186.8889,-1811.368 1216.8884,-1713.646 1228.7643,-1665.8786"/>
<polygon fill="#000000" stroke="#000000" points="1232.2202,-1666.4764 1231.1521,-1655.9355 1225.4137,-1664.8418 1232.2202,-1666.4764"/>
<text text-anchor="middle" x="1331" y="-1855.9848" font-family="Times,serif" font-size="20.00" fill="#000000">[NA]</text>
<text text-anchor="middle" x="1331" y="-1833.9848" font-family="Times,serif" font-size="20.00" fill="#000000">application/javascript</text>
<text text-anchor="middle" x="1331" y="-1811.9848" font-family="Times,serif" font-size="20.00" fill="#000000">application/pdf</text>
<text text-anchor="middle" x="1331" y="-1789.9848" font-family="Times,serif" font-size="20.00" fill="#000000">empty</text>
<text text-anchor="middle" x="1331" y="-1767.9848" font-family="Times,serif" font-size="20.00" fill="#000000">image/png</text>
<text text-anchor="middle" x="1331" y="-1745.9848" font-family="Times,serif" font-size="20.00" fill="#000000">text/css</text>
<text text-anchor="middle" x="1331" y="-1723.9848" font-family="Times,serif" font-size="20.00" fill="#000000">text/html</text>
<text text-anchor="middle" x="1331" y="-1701.9848" font-family="Times,serif" font-size="20.00" fill="#000000">video/mp4</text>
</g>
<!-- SG_0_Node_26 -->
<g id="node10" class="node">
<title>SG_0_Node_26</title>
<ellipse fill="none" stroke="#000000" cx="632" cy="-1389.3452" rx="34.7971" ry="21.4286"/>
<text text-anchor="middle" x="632" y="-1384.3452" font-family="Times,serif" font-size="20.00" fill="#000000">0.0</text>
</g>
<!-- SG_0_Node_4&#45;&gt;SG_0_Node_26 -->
<g id="edge39" class="edge">
<title>SG_0_Node_4&#45;&gt;SG_0_Node_26</title>
<path fill="none" stroke="#000000" d="M702.5898,-1619.6835C688.696,-1609.5963 673.1808,-1595.7908 664,-1579.5584 635.5343,-1529.2287 630.9103,-1460.2581 630.9161,-1420.6894"/>
<polygon fill="#000000" stroke="#000000" points="634.4169,-1420.6198 631.0196,-1410.5844 627.4172,-1420.548 634.4169,-1420.6198"/>
<text text-anchor="middle" x="696" y="-1508.5584" font-family="Times,serif" font-size="20.00" fill="#000000">empty</text>
</g>
<!-- SG_0_Node_27 -->
<g id="node11" class="node">
<title>SG_0_Node_27</title>
<ellipse fill="none" stroke="#000000" cx="732" cy="-1389.3452" rx="34.7971" ry="21.4286"/>
<text text-anchor="middle" x="732" y="-1384.3452" font-family="Times,serif" font-size="20.00" fill="#000000">1.0</text>
</g>
<!-- SG_0_Node_4&#45;&gt;SG_0_Node_27 -->
<g id="edge40" class="edge">
<title>SG_0_Node_4&#45;&gt;SG_0_Node_27</title>
<path fill="none" stroke="#000000" d="M732,-1619.5043C732,-1577.4672 732,-1473.4646 732,-1420.8727"/>
<polygon fill="#000000" stroke="#000000" points="735.5001,-1420.7721 732,-1410.7721 728.5001,-1420.7721 735.5001,-1420.7721"/>
<text text-anchor="middle" x="847" y="-1519.5584" font-family="Times,serif" font-size="20.00" fill="#000000">[NA]</text>
<text text-anchor="middle" x="847" y="-1497.5584" font-family="Times,serif" font-size="20.00" fill="#000000">http://172.17.0.1:8000</text>
</g>
<!-- SG_0_Node_28 -->
<g id="node12" class="node">
<title>SG_0_Node_28</title>
<ellipse fill="none" stroke="#000000" cx="998" cy="-1389.3452" rx="34.7971" ry="21.4286"/>
<text text-anchor="middle" x="998" y="-1384.3452" font-family="Times,serif" font-size="20.00" fill="#000000">0.0</text>
</g>
<!-- SG_0_Node_5&#45;&gt;SG_0_Node_28 -->
<g id="edge33" class="edge">
<title>SG_0_Node_5&#45;&gt;SG_0_Node_28</title>
<path fill="none" stroke="#000000" d="M1017.8297,-1619.7287C1015.9086,-1608.2569 1013.5395,-1593.0723 1012,-1579.5584 1005.6723,-1524.0126 1001.6016,-1458.9993 999.5632,-1421.1659"/>
<polygon fill="#000000" stroke="#000000" points="1003.0381,-1420.5946 999.0187,-1410.7918 996.0477,-1420.9615 1003.0381,-1420.5946"/>
<text text-anchor="middle" x="1058" y="-1519.5584" font-family="Times,serif" font-size="20.00" fill="#000000">[NA]</text>
<text text-anchor="middle" x="1058" y="-1497.5584" font-family="Times,serif" font-size="20.00" fill="#000000">57 levels</text>
</g>
<!-- SG_0_Node_7 -->
<g id="node13" class="node">
<title>SG_0_Node_7</title>
<polygon fill="none" stroke="#000000" points="1166.5,-1407.3452 1061.5,-1407.3452 1061.5,-1371.3452 1166.5,-1371.3452 1166.5,-1407.3452"/>
<text text-anchor="middle" x="1114" y="-1384.3452" font-family="Times,serif" font-size="20.00" fill="#000000">Location</text>
</g>
<!-- SG_0_Node_5&#45;&gt;SG_0_Node_7 -->
<g id="edge34" class="edge">
<title>SG_0_Node_5&#45;&gt;SG_0_Node_7</title>
<path fill="none" stroke="#000000" d="M1061.1741,-1619.6043C1077.3677,-1610.1003 1094.4484,-1596.8024 1104,-1579.5584 1132.4136,-1528.2619 1126.2619,-1456.7629 1119.7974,-1417.6624"/>
<polygon fill="#000000" stroke="#000000" points="1123.1934,-1416.7683 1117.9943,-1407.5369 1116.3018,-1417.9956 1123.1934,-1416.7683"/>
<text text-anchor="middle" x="1144.5" y="-1563.5584" font-family="Times,serif" font-size="20.00" fill="#000000">300</text>
<text text-anchor="middle" x="1144.5" y="-1541.5584" font-family="Times,serif" font-size="20.00" fill="#000000">301</text>
<text text-anchor="middle" x="1144.5" y="-1519.5584" font-family="Times,serif" font-size="20.00" fill="#000000">302</text>
<text text-anchor="middle" x="1144.5" y="-1497.5584" font-family="Times,serif" font-size="20.00" fill="#000000">303</text>
<text text-anchor="middle" x="1144.5" y="-1475.5584" font-family="Times,serif" font-size="20.00" fill="#000000">307</text>
<text text-anchor="middle" x="1144.5" y="-1453.5584" font-family="Times,serif" font-size="20.00" fill="#000000">308</text>
</g>
<!-- SG_0_Node_29 -->
<g id="node14" class="node">
<title>SG_0_Node_29</title>
<ellipse fill="none" stroke="#000000" cx="1235" cy="-1389.3452" rx="34.7971" ry="21.4286"/>
<text text-anchor="middle" x="1235" y="-1384.3452" font-family="Times,serif" font-size="20.00" fill="#000000">0.0</text>
</g>
<!-- SG_0_Node_6&#45;&gt;SG_0_Node_29 -->
<g id="edge7" class="edge">
<title>SG_0_Node_6&#45;&gt;SG_0_Node_29</title>
<path fill="none" stroke="#000000" d="M1235,-1619.5043C1235,-1577.4672 1235,-1473.4646 1235,-1420.8727"/>
<polygon fill="#000000" stroke="#000000" points="1238.5001,-1420.7721 1235,-1410.7721 1231.5001,-1420.7721 1238.5001,-1420.7721"/>
<text text-anchor="middle" x="1254.5" y="-1552.5584" font-family="Times,serif" font-size="20.00" fill="#000000">100</text>
<text text-anchor="middle" x="1254.5" y="-1530.5584" font-family="Times,serif" font-size="20.00" fill="#000000">102</text>
<text text-anchor="middle" x="1254.5" y="-1508.5584" font-family="Times,serif" font-size="20.00" fill="#000000">103</text>
<text text-anchor="middle" x="1254.5" y="-1486.5584" font-family="Times,serif" font-size="20.00" fill="#000000">204</text>
<text text-anchor="middle" x="1254.5" y="-1464.5584" font-family="Times,serif" font-size="20.00" fill="#000000">205</text>
</g>
<!-- SG_0_Node_8 -->
<g id="node15" class="node">
<title>SG_0_Node_8</title>
<polygon fill="none" stroke="#000000" points="1457.5,-1407.3452 1302.5,-1407.3452 1302.5,-1371.3452 1457.5,-1371.3452 1457.5,-1407.3452"/>
<text text-anchor="middle" x="1380" y="-1384.3452" font-family="Times,serif" font-size="20.00" fill="#000000">Content&#45;Type</text>
</g>
<!-- SG_0_Node_6&#45;&gt;SG_0_Node_8 -->
<g id="edge8" class="edge">
<title>SG_0_Node_6&#45;&gt;SG_0_Node_8</title>
<path fill="none" stroke="#000000" d="M1249.4487,-1619.6364C1258.1446,-1608.3846 1269.1982,-1593.4671 1278,-1579.5584 1313.4087,-1523.6057 1348.5345,-1454.2666 1366.8966,-1416.6815"/>
<polygon fill="#000000" stroke="#000000" points="1370.1848,-1417.9227 1371.4059,-1407.3984 1363.8883,-1414.8641 1370.1848,-1417.9227"/>
<text text-anchor="middle" x="1396" y="-1519.5584" font-family="Times,serif" font-size="20.00" fill="#000000">[NA]</text>
<text text-anchor="middle" x="1396" y="-1497.5584" font-family="Times,serif" font-size="20.00" fill="#000000">58 levels</text>
</g>
<!-- SG_0_Node_30 -->
<g id="node16" class="node">
<title>SG_0_Node_30</title>
<ellipse fill="none" stroke="#000000" cx="1014" cy="-1118.9188" rx="34.7971" ry="21.4286"/>
<text text-anchor="middle" x="1014" y="-1113.9188" font-family="Times,serif" font-size="20.00" fill="#000000">0.0</text>
</g>
<!-- SG_0_Node_7&#45;&gt;SG_0_Node_30 -->
<g id="edge35" class="edge">
<title>SG_0_Node_7&#45;&gt;SG_0_Node_30</title>
<path fill="none" stroke="#000000" d="M1084.4727,-1371.3227C1070.549,-1361.2523 1055.0424,-1347.4419 1046,-1331.132 1014.0229,-1273.4546 1010.9668,-1194.0873 1012.1258,-1150.5954"/>
<polygon fill="#000000" stroke="#000000" points="1015.6326,-1150.4661 1012.4962,-1140.3461 1008.6372,-1150.2132 1015.6326,-1150.4661"/>
<text text-anchor="middle" x="1078" y="-1249.132" font-family="Times,serif" font-size="20.00" fill="#000000">empty</text>
</g>
<!-- SG_0_Node_31 -->
<g id="node17" class="node">
<title>SG_0_Node_31</title>
<ellipse fill="none" stroke="#000000" cx="1114" cy="-1118.9188" rx="34.7971" ry="21.4286"/>
<text text-anchor="middle" x="1114" y="-1113.9188" font-family="Times,serif" font-size="20.00" fill="#000000">1.0</text>
</g>
<!-- SG_0_Node_7&#45;&gt;SG_0_Node_31 -->
<g id="edge36" class="edge">
<title>SG_0_Node_7&#45;&gt;SG_0_Node_31</title>
<path fill="none" stroke="#000000" d="M1114,-1371.1819C1114,-1325.9017 1114,-1207.5646 1114,-1150.5399"/>
<polygon fill="#000000" stroke="#000000" points="1117.5001,-1150.3143 1114,-1140.3144 1110.5001,-1150.3144 1117.5001,-1150.3143"/>
<text text-anchor="middle" x="1229" y="-1260.132" font-family="Times,serif" font-size="20.00" fill="#000000">[NA]</text>
<text text-anchor="middle" x="1229" y="-1238.132" font-family="Times,serif" font-size="20.00" fill="#000000">http://172.17.0.1:8000</text>
</g>
<!-- SG_0_Node_9 -->
<g id="node18" class="node">
<title>SG_0_Node_9</title>
<polygon fill="none" stroke="#000000" points="1322.5,-1136.9188 1257.5,-1136.9188 1257.5,-1100.9188 1322.5,-1100.9188 1322.5,-1136.9188"/>
<text text-anchor="middle" x="1290" y="-1113.9188" font-family="Times,serif" font-size="20.00" fill="#000000">body</text>
</g>
<!-- SG_0_Node_8&#45;&gt;SG_0_Node_9 -->
<g id="edge9" class="edge">
<title>SG_0_Node_8&#45;&gt;SG_0_Node_9</title>
<path fill="none" stroke="#000000" d="M1380.946,-1371.171C1382.17,-1333.0162 1381.0202,-1242.6857 1348,-1177.132 1341.7093,-1164.6435 1331.7334,-1153.1844 1321.8163,-1143.7972"/>
<polygon fill="#000000" stroke="#000000" points="1324.0811,-1141.1267 1314.3062,-1137.0399 1319.399,-1146.3304 1324.0811,-1141.1267"/>
<text text-anchor="middle" x="1412" y="-1249.132" font-family="Times,serif" font-size="20.00" fill="#000000">empty</text>
</g>
<!-- SG_0_Node_10 -->
<g id="node19" class="node">
<title>SG_0_Node_10</title>
<polygon fill="none" stroke="#000000" points="2163,-1136.9188 2021,-1136.9188 2021,-1100.9188 2163,-1100.9188 2163,-1136.9188"/>
<text text-anchor="middle" x="2092" y="-1113.9188" font-family="Times,serif" font-size="20.00" fill="#000000">Status&#45;Code</text>
</g>
<!-- SG_0_Node_8&#45;&gt;SG_0_Node_10 -->
<g id="edge10" class="edge">
<title>SG_0_Node_8&#45;&gt;SG_0_Node_10</title>
<path fill="none" stroke="#000000" d="M1427.5445,-1371.2873C1553.9669,-1323.2704 1898.0918,-1192.5676 2034.8517,-1140.6245"/>
<polygon fill="#000000" stroke="#000000" points="2036.2286,-1143.8455 2044.3342,-1137.0229 2033.7431,-1137.3016 2036.2286,-1143.8455"/>
<text text-anchor="middle" x="2049" y="-1315.132" font-family="Times,serif" font-size="20.00" fill="#000000">[NA]</text>
<text text-anchor="middle" x="2049" y="-1293.132" font-family="Times,serif" font-size="20.00" fill="#000000">application/javascript</text>
<text text-anchor="middle" x="2049" y="-1271.132" font-family="Times,serif" font-size="20.00" fill="#000000">application/pdf</text>
<text text-anchor="middle" x="2049" y="-1249.132" font-family="Times,serif" font-size="20.00" fill="#000000">image/png</text>
<text text-anchor="middle" x="2049" y="-1227.132" font-family="Times,serif" font-size="20.00" fill="#000000">text/css</text>
<text text-anchor="middle" x="2049" y="-1205.132" font-family="Times,serif" font-size="20.00" fill="#000000">text/html</text>
<text text-anchor="middle" x="2049" y="-1183.132" font-family="Times,serif" font-size="20.00" fill="#000000">video/mp4</text>
</g>
<!-- SG_0_Node_11 -->
<g id="node20" class="node">
<title>SG_0_Node_11</title>
<polygon fill="none" stroke="#000000" points="544,-800.4924 282,-800.4924 282,-764.4924 544,-764.4924 544,-800.4924"/>
<text text-anchor="middle" x="413" y="-777.4924" font-family="Times,serif" font-size="20.00" fill="#000000">X&#45;Content&#45;Type&#45;Options</text>
</g>
<!-- SG_0_Node_9&#45;&gt;SG_0_Node_11 -->
<g id="edge17" class="edge">
<title>SG_0_Node_9&#45;&gt;SG_0_Node_11</title>
<path fill="none" stroke="#000000" d="M1257.2579,-1113.1173C1230.5941,-1108.5231 1191.9449,-1102.1594 1158,-1097.7056 997.2089,-1076.6089 946.4557,-1118.6713 795,-1060.7056 641.3703,-1001.9079 494.0678,-864.5558 437.4174,-807.7624"/>
<polygon fill="#000000" stroke="#000000" points="439.8649,-805.2597 430.3428,-800.6142 434.8896,-810.1838 439.8649,-805.2597"/>
<text text-anchor="middle" x="1040.5" y="-967.7056" font-family="Times,serif" font-size="20.00" fill="#000000">ecocnt_audio=duration=1</text>
<text text-anchor="middle" x="1040.5" y="-945.7056" font-family="Times,serif" font-size="20.00" fill="#000000">ecocnt_img=width=50,height=50,type=png</text>
<text text-anchor="middle" x="1040.5" y="-923.7056" font-family="Times,serif" font-size="20.00" fill="#000000">ecocnt_vid=width=100,height=100,duration=2</text>
</g>
<!-- SG_0_Node_12 -->
<g id="node21" class="node">
<title>SG_0_Node_12</title>
<polygon fill="none" stroke="#000000" points="1361,-800.4924 1219,-800.4924 1219,-764.4924 1361,-764.4924 1361,-800.4924"/>
<text text-anchor="middle" x="1290" y="-777.4924" font-family="Times,serif" font-size="20.00" fill="#000000">Status&#45;Code</text>
</g>
<!-- SG_0_Node_9&#45;&gt;SG_0_Node_12 -->
<g id="edge18" class="edge">
<title>SG_0_Node_9&#45;&gt;SG_0_Node_12</title>
<path fill="none" stroke="#000000" d="M1290,-1100.8311C1290,-1045.4969 1290,-878.1868 1290,-810.9346"/>
<polygon fill="#000000" stroke="#000000" points="1293.5001,-810.6696 1290,-800.6696 1286.5001,-810.6696 1293.5001,-810.6696"/>
<text text-anchor="middle" x="1563" y="-1044.7056" font-family="Times,serif" font-size="20.00" fill="#000000">[NA]</text>
<text text-anchor="middle" x="1563" y="-1022.7056" font-family="Times,serif" font-size="20.00" fill="#000000">ecocnt_css=h1 {color: blue}</text>
<text text-anchor="middle" x="1563" y="-1000.7056" font-family="Times,serif" font-size="20.00" fill="#000000">ecocnt_html=meta_refresh=0;http://172.17.0.1:8000</text>
<text text-anchor="middle" x="1563" y="-978.7056" font-family="Times,serif" font-size="20.00" fill="#000000">ecocnt_html=num_frames=1,input_id=test1</text>
<text text-anchor="middle" x="1563" y="-956.7056" font-family="Times,serif" font-size="20.00" fill="#000000">ecocnt_html=num_frames=2</text>
<text text-anchor="middle" x="1563" y="-934.7056" font-family="Times,serif" font-size="20.00" fill="#000000">ecocnt_html=post_message=mes1</text>
<text text-anchor="middle" x="1563" y="-912.7056" font-family="Times,serif" font-size="20.00" fill="#000000">ecocnt_js=.,,.</text>
<text text-anchor="middle" x="1563" y="-890.7056" font-family="Times,serif" font-size="20.00" fill="#000000">ecocnt_js=var a=5;</text>
<text text-anchor="middle" x="1563" y="-868.7056" font-family="Times,serif" font-size="20.00" fill="#000000">ecocnt_pdf=a=a</text>
<text text-anchor="middle" x="1563" y="-846.7056" font-family="Times,serif" font-size="20.00" fill="#000000">empty</text>
</g>
<!-- SG_0_Node_13 -->
<g id="node22" class="node">
<title>SG_0_Node_13</title>
<polygon fill="none" stroke="#000000" points="2124.5,-800.4924 2059.5,-800.4924 2059.5,-764.4924 2124.5,-764.4924 2124.5,-800.4924"/>
<text text-anchor="middle" x="2092" y="-777.4924" font-family="Times,serif" font-size="20.00" fill="#000000">body</text>
</g>
<!-- SG_0_Node_10&#45;&gt;SG_0_Node_13 -->
<g id="edge11" class="edge">
<title>SG_0_Node_10&#45;&gt;SG_0_Node_13</title>
<path fill="none" stroke="#000000" d="M2092,-1100.8311C2092,-1045.4969 2092,-878.1868 2092,-810.9346"/>
<polygon fill="#000000" stroke="#000000" points="2095.5001,-810.6696 2092,-800.6696 2088.5001,-810.6696 2095.5001,-810.6696"/>
<text text-anchor="middle" x="2111.5" y="-945.7056" font-family="Times,serif" font-size="20.00" fill="#000000">424</text>
</g>
<!-- SG_0_Node_32 -->
<g id="node23" class="node">
<title>SG_0_Node_32</title>
<ellipse fill="none" stroke="#000000" cx="2177" cy="-782.4924" rx="34.7971" ry="21.4286"/>
<text text-anchor="middle" x="2177" y="-777.4924" font-family="Times,serif" font-size="20.00" fill="#000000">1.0</text>
</g>
<!-- SG_0_Node_10&#45;&gt;SG_0_Node_32 -->
<g id="edge12" class="edge">
<title>SG_0_Node_10&#45;&gt;SG_0_Node_32</title>
<path fill="none" stroke="#000000" d="M2109.0966,-1100.6999C2118.2583,-1089.8881 2128.8888,-1075.4461 2135,-1060.7056 2169.9166,-976.4857 2176.2447,-867.1882 2177.1107,-814.1461"/>
<polygon fill="#000000" stroke="#000000" points="2180.6119,-814.0479 2177.2195,-804.0109 2173.6123,-813.9727 2180.6119,-814.0479"/>
<text text-anchor="middle" x="2222" y="-956.7056" font-family="Times,serif" font-size="20.00" fill="#000000">[NA]</text>
<text text-anchor="middle" x="2222" y="-934.7056" font-family="Times,serif" font-size="20.00" fill="#000000">57 levels</text>
</g>
<!-- SG_0_Node_14 -->
<g id="node24" class="node">
<title>SG_0_Node_14</title>
<polygon fill="none" stroke="#000000" points="233,-640.066 91,-640.066 91,-604.066 233,-604.066 233,-640.066"/>
<text text-anchor="middle" x="162" y="-617.066" font-family="Times,serif" font-size="20.00" fill="#000000">Status&#45;Code</text>
</g>
<!-- SG_0_Node_11&#45;&gt;SG_0_Node_14 -->
<g id="edge23" class="edge">
<title>SG_0_Node_11&#45;&gt;SG_0_Node_14</title>
<path fill="none" stroke="#000000" d="M384.695,-764.4013C339.098,-735.258 249.3961,-677.9251 198.8623,-645.6265"/>
<polygon fill="#000000" stroke="#000000" points="200.5124,-642.5274 190.2015,-640.091 196.7426,-648.4256 200.5124,-642.5274"/>
<text text-anchor="middle" x="355" y="-697.2792" font-family="Times,serif" font-size="20.00" fill="#000000">nosniff</text>
</g>
<!-- SG_0_Node_15 -->
<g id="node25" class="node">
<title>SG_0_Node_15</title>
<polygon fill="none" stroke="#000000" points="445.5,-640.066 380.5,-640.066 380.5,-604.066 445.5,-604.066 445.5,-640.066"/>
<text text-anchor="middle" x="413" y="-617.066" font-family="Times,serif" font-size="20.00" fill="#000000">body</text>
</g>
<!-- SG_0_Node_11&#45;&gt;SG_0_Node_15 -->
<g id="edge24" class="edge">
<title>SG_0_Node_11&#45;&gt;SG_0_Node_15</title>
<path fill="none" stroke="#000000" d="M413,-764.4013C413,-736.7194 413,-683.6042 413,-650.6675"/>
<polygon fill="#000000" stroke="#000000" points="416.5001,-650.3371 413,-640.3371 409.5001,-650.3372 416.5001,-650.3371"/>
<text text-anchor="middle" x="445" y="-708.2792" font-family="Times,serif" font-size="20.00" fill="#000000">[NA]</text>
<text text-anchor="middle" x="445" y="-686.2792" font-family="Times,serif" font-size="20.00" fill="#000000">empty</text>
</g>
<!-- SG_0_Node_16 -->
<g id="node26" class="node">
<title>SG_0_Node_16</title>
<polygon fill="none" stroke="#000000" points="1279.5,-640.066 1214.5,-640.066 1214.5,-604.066 1279.5,-604.066 1279.5,-640.066"/>
<text text-anchor="middle" x="1247" y="-617.066" font-family="Times,serif" font-size="20.00" fill="#000000">body</text>
</g>
<!-- SG_0_Node_12&#45;&gt;SG_0_Node_16 -->
<g id="edge19" class="edge">
<title>SG_0_Node_12&#45;&gt;SG_0_Node_16</title>
<path fill="none" stroke="#000000" d="M1279.5675,-764.4569C1273.5309,-753.2415 1266.2997,-738.3273 1262,-724.2792 1254.5351,-699.8899 1250.735,-671.0554 1248.8316,-650.2408"/>
<polygon fill="#000000" stroke="#000000" points="1252.3098,-649.8317 1247.9998,-640.1532 1245.3335,-650.407 1252.3098,-649.8317"/>
<text text-anchor="middle" x="1281.5" y="-697.2792" font-family="Times,serif" font-size="20.00" fill="#000000">421</text>
</g>
<!-- SG_0_Node_33 -->
<g id="node27" class="node">
<title>SG_0_Node_33</title>
<ellipse fill="none" stroke="#000000" cx="1332" cy="-622.066" rx="34.7971" ry="21.4286"/>
<text text-anchor="middle" x="1332" y="-617.066" font-family="Times,serif" font-size="20.00" fill="#000000">1.0</text>
</g>
<!-- SG_0_Node_12&#45;&gt;SG_0_Node_33 -->
<g id="edge20" class="edge">
<title>SG_0_Node_12&#45;&gt;SG_0_Node_33</title>
<path fill="none" stroke="#000000" d="M1294.7363,-764.4013C1301.802,-737.4125 1315.1971,-686.2477 1323.8547,-653.1784"/>
<polygon fill="#000000" stroke="#000000" points="1327.3383,-653.6915 1326.4851,-643.1311 1320.5665,-651.9186 1327.3383,-653.6915"/>
<text text-anchor="middle" x="1362" y="-708.2792" font-family="Times,serif" font-size="20.00" fill="#000000">[NA]</text>
<text text-anchor="middle" x="1362" y="-686.2792" font-family="Times,serif" font-size="20.00" fill="#000000">57 levels</text>
</g>
<!-- SG_0_Node_17 -->
<g id="node28" class="node">
<title>SG_0_Node_17</title>
<polygon fill="none" stroke="#000000" points="2223.5,-640.066 2068.5,-640.066 2068.5,-604.066 2223.5,-604.066 2223.5,-640.066"/>
<text text-anchor="middle" x="2146" y="-617.066" font-family="Times,serif" font-size="20.00" fill="#000000">Content&#45;Type</text>
</g>
<!-- SG_0_Node_13&#45;&gt;SG_0_Node_17 -->
<g id="edge13" class="edge">
<title>SG_0_Node_13&#45;&gt;SG_0_Node_17</title>
<path fill="none" stroke="#000000" d="M2091.9871,-764.1357C2092.5393,-743.1736 2095.2093,-708.1764 2106,-680.2792 2110.3353,-669.0713 2117.2131,-657.9136 2124.0517,-648.4101"/>
<polygon fill="#000000" stroke="#000000" points="2127.0211,-650.2853 2130.2468,-640.1935 2121.4318,-646.0711 2127.0211,-650.2853"/>
<text text-anchor="middle" x="2206.5" y="-697.2792" font-family="Times,serif" font-size="20.00" fill="#000000">ecocnt_js=var a=5;</text>
</g>
<!-- SG_0_Node_34 -->
<g id="node29" class="node">
<title>SG_0_Node_34</title>
<ellipse fill="none" stroke="#000000" cx="2329" cy="-622.066" rx="34.7971" ry="21.4286"/>
<text text-anchor="middle" x="2329" y="-617.066" font-family="Times,serif" font-size="20.00" fill="#000000">1.0</text>
</g>
<!-- SG_0_Node_13&#45;&gt;SG_0_Node_34 -->
<g id="edge14" class="edge">
<title>SG_0_Node_13&#45;&gt;SG_0_Node_34</title>
<path fill="none" stroke="#000000" d="M2124.7768,-764.5725C2127.52,-763.3688 2130.2834,-762.2509 2133,-761.2792 2207.4439,-734.6526 2251.0252,-780.1154 2307,-724.2792 2325.3053,-706.0192 2330.0511,-676.4348 2330.6595,-653.7812"/>
<polygon fill="#000000" stroke="#000000" points="2334.1597,-653.6174 2330.6747,-643.6122 2327.1597,-653.6069 2334.1597,-653.6174"/>
<text text-anchor="middle" x="2373" y="-708.2792" font-family="Times,serif" font-size="20.00" fill="#000000">[NA]</text>
<text text-anchor="middle" x="2373" y="-686.2792" font-family="Times,serif" font-size="20.00" fill="#000000">11 levels</text>
</g>
<!-- SG_0_Node_35 -->
<g id="node30" class="node">
<title>SG_0_Node_35</title>
<ellipse fill="none" stroke="#000000" cx="51" cy="-329.6396" rx="34.7971" ry="21.4286"/>
<text text-anchor="middle" x="51" y="-324.6396" font-family="Times,serif" font-size="20.00" fill="#000000">0.0</text>
</g>
<!-- SG_0_Node_14&#45;&gt;SG_0_Node_35 -->
<g id="edge29" class="edge">
<title>SG_0_Node_14&#45;&gt;SG_0_Node_35</title>
<path fill="none" stroke="#000000" d="M110.087,-604.0218C91.7285,-594.9206 72.9399,-581.887 62,-563.8528 23.4305,-500.2721 34.3064,-408.165 43.6994,-360.6224"/>
<polygon fill="#000000" stroke="#000000" points="47.1676,-361.1357 45.7831,-350.6317 40.3151,-359.7064 47.1676,-361.1357"/>
<text text-anchor="middle" x="108" y="-481.8528" font-family="Times,serif" font-size="20.00" fill="#000000">[NA]</text>
<text text-anchor="middle" x="108" y="-459.8528" font-family="Times,serif" font-size="20.00" fill="#000000">50 levels</text>
</g>
<!-- SG_0_Node_18 -->
<g id="node31" class="node">
<title>SG_0_Node_18</title>
<polygon fill="none" stroke="#000000" points="210.5,-347.6396 105.5,-347.6396 105.5,-311.6396 210.5,-311.6396 210.5,-347.6396"/>
<text text-anchor="middle" x="158" y="-324.6396" font-family="Times,serif" font-size="20.00" fill="#000000">Location</text>
</g>
<!-- SG_0_Node_14&#45;&gt;SG_0_Node_18 -->
<g id="edge30" class="edge">
<title>SG_0_Node_14&#45;&gt;SG_0_Node_18</title>
<path fill="none" stroke="#000000" d="M161.7498,-603.7734C161.0735,-554.3347 159.2055,-417.7698 158.3897,-358.1281"/>
<polygon fill="#000000" stroke="#000000" points="161.8867,-357.8764 158.2501,-347.9253 154.8873,-357.9722 161.8867,-357.8764"/>
<text text-anchor="middle" x="180.5" y="-547.8528" font-family="Times,serif" font-size="20.00" fill="#000000">101</text>
<text text-anchor="middle" x="180.5" y="-525.8528" font-family="Times,serif" font-size="20.00" fill="#000000">300</text>
<text text-anchor="middle" x="180.5" y="-503.8528" font-family="Times,serif" font-size="20.00" fill="#000000">301</text>
<text text-anchor="middle" x="180.5" y="-481.8528" font-family="Times,serif" font-size="20.00" fill="#000000">302</text>
<text text-anchor="middle" x="180.5" y="-459.8528" font-family="Times,serif" font-size="20.00" fill="#000000">303</text>
<text text-anchor="middle" x="180.5" y="-437.8528" font-family="Times,serif" font-size="20.00" fill="#000000">304</text>
<text text-anchor="middle" x="180.5" y="-415.8528" font-family="Times,serif" font-size="20.00" fill="#000000">307</text>
<text text-anchor="middle" x="180.5" y="-393.8528" font-family="Times,serif" font-size="20.00" fill="#000000">308</text>
</g>
<!-- SG_0_Node_19 -->
<g id="node32" class="node">
<title>SG_0_Node_19</title>
<polygon fill="none" stroke="#000000" points="491,-347.6396 349,-347.6396 349,-311.6396 491,-311.6396 491,-347.6396"/>
<text text-anchor="middle" x="420" y="-324.6396" font-family="Times,serif" font-size="20.00" fill="#000000">Status&#45;Code</text>
</g>
<!-- SG_0_Node_15&#45;&gt;SG_0_Node_19 -->
<g id="edge25" class="edge">
<title>SG_0_Node_15&#45;&gt;SG_0_Node_19</title>
<path fill="none" stroke="#000000" d="M380.2234,-614.9523C337.4291,-604.9233 266.1718,-585.4262 251,-563.8528 206.0025,-499.8689 205.5798,-451.5374 251,-387.8528 261.9997,-372.43 300.946,-358.4774 338.6809,-348.1007"/>
<polygon fill="#000000" stroke="#000000" points="339.9924,-351.3729 348.7472,-345.406 338.1823,-344.611 339.9924,-351.3729"/>
<text text-anchor="middle" x="385.5" y="-470.8528" font-family="Times,serif" font-size="20.00" fill="#000000">ecocnt_audio=duration=1</text>
</g>
<!-- SG_0_Node_36 -->
<g id="node33" class="node">
<title>SG_0_Node_36</title>
<ellipse fill="none" stroke="#000000" cx="544" cy="-329.6396" rx="34.7971" ry="21.4286"/>
<text text-anchor="middle" x="544" y="-324.6396" font-family="Times,serif" font-size="20.00" fill="#000000">1.0</text>
</g>
<!-- SG_0_Node_15&#45;&gt;SG_0_Node_36 -->
<g id="edge26" class="edge">
<title>SG_0_Node_15&#45;&gt;SG_0_Node_36</title>
<path fill="none" stroke="#000000" d="M445.5592,-613.3809C470.2722,-604.9792 502.8322,-589.6425 520,-563.8528 561.3783,-501.694 555.9225,-408.9794 549.4037,-360.9722"/>
<polygon fill="#000000" stroke="#000000" points="552.8378,-360.2671 547.9261,-350.8796 545.9116,-361.2811 552.8378,-360.2671"/>
<text text-anchor="middle" x="798.5" y="-481.8528" font-family="Times,serif" font-size="20.00" fill="#000000">ecocnt_img=width=50,height=50,type=png</text>
<text text-anchor="middle" x="798.5" y="-459.8528" font-family="Times,serif" font-size="20.00" fill="#000000">ecocnt_vid=width=100,height=100,duration=2</text>
</g>
<!-- SG_0_Node_37 -->
<g id="node34" class="node">
<title>SG_0_Node_37</title>
<ellipse fill="none" stroke="#000000" cx="1069" cy="-329.6396" rx="52.1524" ry="21.4286"/>
<text text-anchor="middle" x="1069" y="-324.6396" font-family="Times,serif" font-size="20.00" fill="#000000">0.969</text>
</g>
<!-- SG_0_Node_16&#45;&gt;SG_0_Node_37 -->
<g id="edge21" class="edge">
<title>SG_0_Node_16&#45;&gt;SG_0_Node_37</title>
<path fill="none" stroke="#000000" d="M1214.3765,-614.9621C1171.3164,-604.8713 1099.0687,-585.224 1083,-563.8528 1038.071,-504.0978 1050.3678,-409.6409 1060.9298,-360.9527"/>
<polygon fill="#000000" stroke="#000000" points="1064.387,-361.5347 1063.2035,-351.0062 1057.563,-359.9747 1064.387,-361.5347"/>
<text text-anchor="middle" x="1356" y="-481.8528" font-family="Times,serif" font-size="20.00" fill="#000000">ecocnt_css=h1 {color: blue}</text>
<text text-anchor="middle" x="1356" y="-459.8528" font-family="Times,serif" font-size="20.00" fill="#000000">ecocnt_html=meta_refresh=0;http://172.17.0.1:8000</text>
</g>
<!-- SG_0_Node_38 -->
<g id="node35" class="node">
<title>SG_0_Node_38</title>
<ellipse fill="none" stroke="#000000" cx="1651" cy="-329.6396" rx="34.7971" ry="21.4286"/>
<text text-anchor="middle" x="1651" y="-324.6396" font-family="Times,serif" font-size="20.00" fill="#000000">1.0</text>
</g>
<!-- SG_0_Node_16&#45;&gt;SG_0_Node_38 -->
<g id="edge22" class="edge">
<title>SG_0_Node_16&#45;&gt;SG_0_Node_38</title>
<path fill="none" stroke="#000000" d="M1279.2147,-604.0284C1282.1305,-602.8172 1285.0841,-601.7318 1288,-600.8528 1360.979,-578.8543 1575.4927,-618.1376 1629,-563.8528 1682.2644,-509.8144 1669.8052,-410.8558 1658.9637,-360.6369"/>
<polygon fill="#000000" stroke="#000000" points="1662.3326,-359.6672 1656.699,-350.6942 1655.5074,-361.2218 1662.3326,-359.6672"/>
<text text-anchor="middle" x="1897.5" y="-547.8528" font-family="Times,serif" font-size="20.00" fill="#000000">[NA]</text>
<text text-anchor="middle" x="1897.5" y="-525.8528" font-family="Times,serif" font-size="20.00" fill="#000000">ecocnt_html=num_frames=1,input_id=test1</text>
<text text-anchor="middle" x="1897.5" y="-503.8528" font-family="Times,serif" font-size="20.00" fill="#000000">ecocnt_html=num_frames=2</text>
<text text-anchor="middle" x="1897.5" y="-481.8528" font-family="Times,serif" font-size="20.00" fill="#000000">ecocnt_html=post_message=mes1</text>
<text text-anchor="middle" x="1897.5" y="-459.8528" font-family="Times,serif" font-size="20.00" fill="#000000">ecocnt_js=.,,.</text>
<text text-anchor="middle" x="1897.5" y="-437.8528" font-family="Times,serif" font-size="20.00" fill="#000000">ecocnt_js=var a=5;</text>
<text text-anchor="middle" x="1897.5" y="-415.8528" font-family="Times,serif" font-size="20.00" fill="#000000">ecocnt_pdf=a=a</text>
<text text-anchor="middle" x="1897.5" y="-393.8528" font-family="Times,serif" font-size="20.00" fill="#000000">empty</text>
</g>
<!-- SG_0_Node_39 -->
<g id="node36" class="node">
<title>SG_0_Node_39</title>
<ellipse fill="none" stroke="#000000" cx="2146" cy="-329.6396" rx="52.1524" ry="21.4286"/>
<text text-anchor="middle" x="2146" y="-324.6396" font-family="Times,serif" font-size="20.00" fill="#000000">0.969</text>
</g>
<!-- SG_0_Node_17&#45;&gt;SG_0_Node_39 -->
<g id="edge15" class="edge">
<title>SG_0_Node_17&#45;&gt;SG_0_Node_39</title>
<path fill="none" stroke="#000000" d="M2146,-603.7734C2146,-555.1758 2146,-422.3912 2146,-361.2381"/>
<polygon fill="#000000" stroke="#000000" points="2149.5001,-361.0313 2146,-351.0313 2142.5001,-361.0314 2149.5001,-361.0313"/>
<text text-anchor="middle" x="2257" y="-481.8528" font-family="Times,serif" font-size="20.00" fill="#000000">application/javascript</text>
<text text-anchor="middle" x="2257" y="-459.8528" font-family="Times,serif" font-size="20.00" fill="#000000">image/png</text>
</g>
<!-- SG_0_Node_40 -->
<g id="node37" class="node">
<title>SG_0_Node_40</title>
<ellipse fill="none" stroke="#000000" cx="2404" cy="-329.6396" rx="34.7971" ry="21.4286"/>
<text text-anchor="middle" x="2404" y="-324.6396" font-family="Times,serif" font-size="20.00" fill="#000000">1.0</text>
</g>
<!-- SG_0_Node_17&#45;&gt;SG_0_Node_40 -->
<g id="edge16" class="edge">
<title>SG_0_Node_17&#45;&gt;SG_0_Node_40</title>
<path fill="none" stroke="#000000" d="M2223.5499,-611.4429C2280.8657,-601.937 2352.2357,-586.0609 2372,-563.8528 2422.3289,-507.3011 2416.7421,-410.6408 2409.69,-361.0362"/>
<polygon fill="#000000" stroke="#000000" points="2413.1126,-360.2644 2408.1355,-350.9114 2406.1937,-361.3268 2413.1126,-360.2644"/>
<text text-anchor="middle" x="2491" y="-514.8528" font-family="Times,serif" font-size="20.00" fill="#000000">[NA]</text>
<text text-anchor="middle" x="2491" y="-492.8528" font-family="Times,serif" font-size="20.00" fill="#000000">application/pdf</text>
<text text-anchor="middle" x="2491" y="-470.8528" font-family="Times,serif" font-size="20.00" fill="#000000">text/css</text>
<text text-anchor="middle" x="2491" y="-448.8528" font-family="Times,serif" font-size="20.00" fill="#000000">text/html</text>
<text text-anchor="middle" x="2491" y="-426.8528" font-family="Times,serif" font-size="20.00" fill="#000000">video/mp4</text>
</g>
<!-- SG_0_Node_41 -->
<g id="node38" class="node">
<title>SG_0_Node_41</title>
<ellipse fill="none" stroke="#000000" cx="60" cy="-37.2132" rx="43.6818" ry="21.4286"/>
<text text-anchor="middle" x="60" y="-32.2132" font-family="Times,serif" font-size="20.00" fill="#000000">0.25</text>
</g>
<!-- SG_0_Node_18&#45;&gt;SG_0_Node_41 -->
<g id="edge31" class="edge">
<title>SG_0_Node_18&#45;&gt;SG_0_Node_41</title>
<path fill="none" stroke="#000000" d="M127.969,-311.4494C114.0976,-301.4221 98.7864,-287.6992 90,-271.4264 54.6745,-206.0021 54.3457,-115.7186 57.1559,-68.6404"/>
<polygon fill="#000000" stroke="#000000" points="60.6618,-68.6738 57.8547,-58.4576 53.6782,-68.1944 60.6618,-68.6738"/>
<text text-anchor="middle" x="122" y="-178.4264" font-family="Times,serif" font-size="20.00" fill="#000000">empty</text>
</g>
<!-- SG_0_Node_42 -->
<g id="node39" class="node">
<title>SG_0_Node_42</title>
<ellipse fill="none" stroke="#000000" cx="158" cy="-37.2132" rx="34.7971" ry="21.4286"/>
<text text-anchor="middle" x="158" y="-32.2132" font-family="Times,serif" font-size="20.00" fill="#000000">1.0</text>
</g>
<!-- SG_0_Node_18&#45;&gt;SG_0_Node_42 -->
<g id="edge32" class="edge">
<title>SG_0_Node_18&#45;&gt;SG_0_Node_42</title>
<path fill="none" stroke="#000000" d="M158,-311.347C158,-262.7494 158,-129.9648 158,-68.8117"/>
<polygon fill="#000000" stroke="#000000" points="161.5001,-68.6049 158,-58.6049 154.5001,-68.605 161.5001,-68.6049"/>
<text text-anchor="middle" x="273" y="-189.4264" font-family="Times,serif" font-size="20.00" fill="#000000">[NA]</text>
<text text-anchor="middle" x="273" y="-167.4264" font-family="Times,serif" font-size="20.00" fill="#000000">http://172.17.0.1:8000</text>
</g>
<!-- SG_0_Node_43 -->
<g id="node40" class="node">
<title>SG_0_Node_43</title>
<ellipse fill="none" stroke="#000000" cx="424" cy="-37.2132" rx="34.7971" ry="21.4286"/>
<text text-anchor="middle" x="424" y="-32.2132" font-family="Times,serif" font-size="20.00" fill="#000000">0.0</text>
</g>
<!-- SG_0_Node_19&#45;&gt;SG_0_Node_43 -->
<g id="edge27" class="edge">
<title>SG_0_Node_19&#45;&gt;SG_0_Node_43</title>
<path fill="none" stroke="#000000" d="M420.2502,-311.347C420.915,-262.7494 422.7313,-129.9648 423.5678,-68.8117"/>
<polygon fill="#000000" stroke="#000000" points="427.0702,-68.6519 423.7074,-58.6049 420.0708,-68.5561 427.0702,-68.6519"/>
<text text-anchor="middle" x="469" y="-189.4264" font-family="Times,serif" font-size="20.00" fill="#000000">[NA]</text>
<text text-anchor="middle" x="469" y="-167.4264" font-family="Times,serif" font-size="20.00" fill="#000000">50 levels</text>
</g>
<!-- SG_0_Node_44 -->
<g id="node41" class="node">
<title>SG_0_Node_44</title>
<ellipse fill="none" stroke="#000000" cx="552" cy="-37.2132" rx="52.1524" ry="21.4286"/>
<text text-anchor="middle" x="552" y="-32.2132" font-family="Times,serif" font-size="20.00" fill="#000000">0.625</text>
</g>
<!-- SG_0_Node_19&#45;&gt;SG_0_Node_44 -->
<g id="edge28" class="edge">
<title>SG_0_Node_19&#45;&gt;SG_0_Node_44</title>
<path fill="none" stroke="#000000" d="M469.259,-311.5843C487.7161,-302.3597 507.0819,-289.2415 519,-271.4264 560.7118,-209.0757 559.6966,-116.4431 555.694,-68.4986"/>
<polygon fill="#000000" stroke="#000000" points="559.1674,-68.0505 554.7517,-58.4197 552.1978,-68.7021 559.1674,-68.0505"/>
<text text-anchor="middle" x="576.5" y="-255.4264" font-family="Times,serif" font-size="20.00" fill="#000000">101</text>
<text text-anchor="middle" x="576.5" y="-233.4264" font-family="Times,serif" font-size="20.00" fill="#000000">300</text>
<text text-anchor="middle" x="576.5" y="-211.4264" font-family="Times,serif" font-size="20.00" fill="#000000">301</text>
<text text-anchor="middle" x="576.5" y="-189.4264" font-family="Times,serif" font-size="20.00" fill="#000000">302</text>
<text text-anchor="middle" x="576.5" y="-167.4264" font-family="Times,serif" font-size="20.00" fill="#000000">303</text>
<text text-anchor="middle" x="576.5" y="-145.4264" font-family="Times,serif" font-size="20.00" fill="#000000">304</text>
<text text-anchor="middle" x="576.5" y="-123.4264" font-family="Times,serif" font-size="20.00" fill="#000000">307</text>
<text text-anchor="middle" x="576.5" y="-101.4264" font-family="Times,serif" font-size="20.00" fill="#000000">308</text>
</g>
</g>
</svg>
