<?xml version="1.0" encoding="UTF-8" standalone="no"?>
<!DOCTYPE svg PUBLIC "-//W3C//DTD SVG 1.1//EN"
 "http://www.w3.org/Graphics/SVG/1.1/DTD/svg11.dtd">
<!-- Generated by graphviz version 2.40.1 (20161225.0304)
 -->
<!-- Title: G Pages: 1 -->
<svg width="1417pt" height="1999pt"
 viewBox="0.00 0.00 1417.00 1998.98" xmlns="http://www.w3.org/2000/svg" xmlns:xlink="http://www.w3.org/1999/xlink">
<g id="graph0" class="graph" transform="scale(1 1) rotate(0) translate(4 1994.9848)">
<title>G</title>
<polygon fill="#ffffff" stroke="transparent" points="-4,4 -4,-1994.9848 1413,-1994.9848 1413,4 -4,4"/>
<g id="clust1" class="cluster">
<title>cluster_0</title>
<polygon fill="none" stroke="#000000" points="8,-8 8,-1982.9848 1321,-1982.9848 1321,-8 8,-8"/>
<text text-anchor="middle" x="664.5" y="-1946.9848" font-family="Times,serif" font-size="40.00" fill="#000000">Tree 0, Class Access denied</text>
</g>
<!-- SG_0_Node_0 -->
<g id="node1" class="node">
<title>SG_0_Node_0</title>
<polygon fill="none" stroke="#000000" points="381,-1922.9848 83,-1922.9848 83,-1886.9848 381,-1886.9848 381,-1922.9848"/>
<text text-anchor="middle" x="232" y="-1899.9848" font-family="Times,serif" font-size="20.00" fill="#000000">Cross&#45;Origin&#45;Opener&#45;Policy</text>
</g>
<!-- SG_0_Node_1 -->
<g id="node2" class="node">
<title>SG_0_Node_1</title>
<polygon fill="none" stroke="#000000" points="234,-1768.9848 92,-1768.9848 92,-1732.9848 234,-1732.9848 234,-1768.9848"/>
<text text-anchor="middle" x="163" y="-1745.9848" font-family="Times,serif" font-size="20.00" fill="#000000">Status&#45;Code</text>
</g>
<!-- SG_0_Node_0&#45;&gt;SG_0_Node_1 -->
<g id="edge1" class="edge">
<title>SG_0_Node_0&#45;&gt;SG_0_Node_1</title>
<path fill="none" stroke="#000000" d="M208.2714,-1886.8286C197.2852,-1877.1163 185.1165,-1864.2303 178,-1849.9848 166.952,-1827.8694 163.5496,-1799.774 162.7078,-1779.1672"/>
<polygon fill="#000000" stroke="#000000" points="166.2064,-1779.0608 162.4741,-1769.1451 159.2083,-1779.2241 166.2064,-1779.0608"/>
<text text-anchor="middle" x="239" y="-1822.9848" font-family="Times,serif" font-size="20.00" fill="#000000">same&#45;origin</text>
</g>
<!-- SG_0_Node_2 -->
<g id="node3" class="node">
<title>SG_0_Node_2</title>
<polygon fill="none" stroke="#000000" points="394,-1768.9848 252,-1768.9848 252,-1732.9848 394,-1732.9848 394,-1768.9848"/>
<text text-anchor="middle" x="323" y="-1745.9848" font-family="Times,serif" font-size="20.00" fill="#000000">Status&#45;Code</text>
</g>
<!-- SG_0_Node_0&#45;&gt;SG_0_Node_2 -->
<g id="edge2" class="edge">
<title>SG_0_Node_0&#45;&gt;SG_0_Node_2</title>
<path fill="none" stroke="#000000" d="M262.7276,-1886.7781C276.0689,-1877.3857 290.7324,-1864.7838 300,-1849.9848 313.3981,-1828.5901 319.0044,-1800.19 321.3433,-1779.2959"/>
<polygon fill="#000000" stroke="#000000" points="324.8476,-1779.4129 322.2926,-1769.1307 317.8779,-1778.762 324.8476,-1779.4129"/>
<text text-anchor="middle" x="348" y="-1833.9848" font-family="Times,serif" font-size="20.00" fill="#000000">[NA]</text>
<text text-anchor="middle" x="348" y="-1811.9848" font-family="Times,serif" font-size="20.00" fill="#000000">empty</text>
</g>
<!-- SG_0_Node_15 -->
<g id="node4" class="node">
<title>SG_0_Node_15</title>
<ellipse fill="none" stroke="#000000" cx="51" cy="-1527.7716" rx="34.7971" ry="21.4286"/>
<text text-anchor="middle" x="51" y="-1522.7716" font-family="Times,serif" font-size="20.00" fill="#000000">0.0</text>
</g>
<!-- SG_0_Node_1&#45;&gt;SG_0_Node_15 -->
<g id="edge27" class="edge">
<title>SG_0_Node_1&#45;&gt;SG_0_Node_15</title>
<path fill="none" stroke="#000000" d="M94.0427,-1732.8544C75.986,-1724.636 58.6197,-1712.8357 48,-1695.9848 21.7074,-1654.2652 31.4,-1594.41 41.0487,-1558.4863"/>
<polygon fill="#000000" stroke="#000000" points="44.4948,-1559.1644 43.8702,-1548.588 37.7629,-1557.2455 44.4948,-1559.1644"/>
<text text-anchor="middle" x="94" y="-1646.9848" font-family="Times,serif" font-size="20.00" fill="#000000">[NA]</text>
<text text-anchor="middle" x="94" y="-1624.9848" font-family="Times,serif" font-size="20.00" fill="#000000">58 levels</text>
</g>
<!-- SG_0_Node_16 -->
<g id="node5" class="node">
<title>SG_0_Node_16</title>
<ellipse fill="none" stroke="#000000" cx="138" cy="-1527.7716" rx="34.7971" ry="21.4286"/>
<text text-anchor="middle" x="138" y="-1522.7716" font-family="Times,serif" font-size="20.00" fill="#000000">1.0</text>
</g>
<!-- SG_0_Node_1&#45;&gt;SG_0_Node_16 -->
<g id="edge28" class="edge">
<title>SG_0_Node_1&#45;&gt;SG_0_Node_16</title>
<path fill="none" stroke="#000000" d="M160.9541,-1732.7184C156.6934,-1694.6761 146.8246,-1606.5621 141.5213,-1559.212"/>
<polygon fill="#000000" stroke="#000000" points="144.9922,-1558.7558 140.4008,-1549.2075 138.0357,-1559.5349 144.9922,-1558.7558"/>
<text text-anchor="middle" x="175.5" y="-1679.9848" font-family="Times,serif" font-size="20.00" fill="#000000">100</text>
<text text-anchor="middle" x="175.5" y="-1657.9848" font-family="Times,serif" font-size="20.00" fill="#000000">101</text>
<text text-anchor="middle" x="175.5" y="-1635.9848" font-family="Times,serif" font-size="20.00" fill="#000000">102</text>
<text text-anchor="middle" x="175.5" y="-1613.9848" font-family="Times,serif" font-size="20.00" fill="#000000">103</text>
<text text-anchor="middle" x="175.5" y="-1591.9848" font-family="Times,serif" font-size="20.00" fill="#000000">407</text>
</g>
<!-- SG_0_Node_3 -->
<g id="node6" class="node">
<title>SG_0_Node_3</title>
<polygon fill="none" stroke="#000000" points="411.5,-1545.7716 190.5,-1545.7716 190.5,-1509.7716 411.5,-1509.7716 411.5,-1545.7716"/>
<text text-anchor="middle" x="301" y="-1522.7716" font-family="Times,serif" font-size="20.00" fill="#000000">Content&#45;Disposition</text>
</g>
<!-- SG_0_Node_2&#45;&gt;SG_0_Node_3 -->
<g id="edge3" class="edge">
<title>SG_0_Node_2&#45;&gt;SG_0_Node_3</title>
<path fill="none" stroke="#000000" d="M321.1996,-1732.7184C317.3628,-1693.79 308.3584,-1602.4304 303.7793,-1555.971"/>
<polygon fill="#000000" stroke="#000000" points="307.2584,-1555.5859 302.7944,-1545.9775 300.2922,-1556.2726 307.2584,-1555.5859"/>
<text text-anchor="middle" x="363" y="-1635.9848" font-family="Times,serif" font-size="20.00" fill="#000000">11 levels</text>
</g>
<!-- SG_0_Node_4 -->
<g id="node7" class="node">
<title>SG_0_Node_4</title>
<polygon fill="none" stroke="#000000" points="572,-1545.7716 430,-1545.7716 430,-1509.7716 572,-1509.7716 572,-1545.7716"/>
<text text-anchor="middle" x="501" y="-1522.7716" font-family="Times,serif" font-size="20.00" fill="#000000">Status&#45;Code</text>
</g>
<!-- SG_0_Node_2&#45;&gt;SG_0_Node_4 -->
<g id="edge4" class="edge">
<title>SG_0_Node_2&#45;&gt;SG_0_Node_4</title>
<path fill="none" stroke="#000000" d="M362.6409,-1732.8175C379.6712,-1723.5821 398.8634,-1711.0951 413,-1695.9848 452.1433,-1654.1455 478.7042,-1591.5619 491.7211,-1555.7004"/>
<polygon fill="#000000" stroke="#000000" points="495.1498,-1556.5021 495.1791,-1545.9073 488.5492,-1554.1714 495.1498,-1556.5021"/>
<text text-anchor="middle" x="525" y="-1646.9848" font-family="Times,serif" font-size="20.00" fill="#000000">[NA]</text>
<text text-anchor="middle" x="525" y="-1624.9848" font-family="Times,serif" font-size="20.00" fill="#000000">52 levels</text>
</g>
<!-- SG_0_Node_17 -->
<g id="node8" class="node">
<title>SG_0_Node_17</title>
<ellipse fill="none" stroke="#000000" cx="75" cy="-1367.3452" rx="34.7971" ry="21.4286"/>
<text text-anchor="middle" x="75" y="-1362.3452" font-family="Times,serif" font-size="20.00" fill="#000000">0.0</text>
</g>
<!-- SG_0_Node_3&#45;&gt;SG_0_Node_17 -->
<g id="edge17" class="edge">
<title>SG_0_Node_3&#45;&gt;SG_0_Node_17</title>
<path fill="none" stroke="#000000" d="M218.8952,-1509.7111C176.2476,-1498.8956 129.8004,-1484.3978 114,-1469.5584 94.1902,-1450.9536 84.3413,-1421.2147 79.507,-1398.6003"/>
<polygon fill="#000000" stroke="#000000" points="82.9438,-1397.9375 77.621,-1388.7768 76.0693,-1399.2574 82.9438,-1397.9375"/>
<text text-anchor="middle" x="173" y="-1442.5584" font-family="Times,serif" font-size="20.00" fill="#000000">attachment</text>
</g>
<!-- SG_0_Node_5 -->
<g id="node9" class="node">
<title>SG_0_Node_5</title>
<polygon fill="none" stroke="#000000" points="270,-1385.3452 128,-1385.3452 128,-1349.3452 270,-1349.3452 270,-1385.3452"/>
<text text-anchor="middle" x="199" y="-1362.3452" font-family="Times,serif" font-size="20.00" fill="#000000">Status&#45;Code</text>
</g>
<!-- SG_0_Node_3&#45;&gt;SG_0_Node_5 -->
<g id="edge18" class="edge">
<title>SG_0_Node_3&#45;&gt;SG_0_Node_5</title>
<path fill="none" stroke="#000000" d="M289.4976,-1509.6805C271.5912,-1481.5172 236.9468,-1427.0282 216.1042,-1394.2468"/>
<polygon fill="#000000" stroke="#000000" points="218.9359,-1392.1772 210.6169,-1385.6164 213.0288,-1395.933 218.9359,-1392.1772"/>
<text text-anchor="middle" x="295" y="-1453.5584" font-family="Times,serif" font-size="20.00" fill="#000000">[NA]</text>
<text text-anchor="middle" x="295" y="-1431.5584" font-family="Times,serif" font-size="20.00" fill="#000000">empty</text>
</g>
<!-- SG_0_Node_6 -->
<g id="node10" class="node">
<title>SG_0_Node_6</title>
<polygon fill="none" stroke="#000000" points="491.5,-1385.3452 426.5,-1385.3452 426.5,-1349.3452 491.5,-1349.3452 491.5,-1385.3452"/>
<text text-anchor="middle" x="459" y="-1362.3452" font-family="Times,serif" font-size="20.00" fill="#000000">body</text>
</g>
<!-- SG_0_Node_4&#45;&gt;SG_0_Node_6 -->
<g id="edge5" class="edge">
<title>SG_0_Node_4&#45;&gt;SG_0_Node_6</title>
<path fill="none" stroke="#000000" d="M493.6971,-1509.6376C489.3064,-1498.2603 483.8432,-1483.2098 480,-1469.5584 473.0603,-1444.908 467.3815,-1416.3151 463.6871,-1395.6498"/>
<polygon fill="#000000" stroke="#000000" points="467.1056,-1394.8789 461.9399,-1385.6287 460.2096,-1396.0813 467.1056,-1394.8789"/>
<text text-anchor="middle" x="499.5" y="-1453.5584" font-family="Times,serif" font-size="20.00" fill="#000000">424</text>
<text text-anchor="middle" x="499.5" y="-1431.5584" font-family="Times,serif" font-size="20.00" fill="#000000">431</text>
</g>
<!-- SG_0_Node_18 -->
<g id="node11" class="node">
<title>SG_0_Node_18</title>
<ellipse fill="none" stroke="#000000" cx="544" cy="-1367.3452" rx="34.7971" ry="21.4286"/>
<text text-anchor="middle" x="544" y="-1362.3452" font-family="Times,serif" font-size="20.00" fill="#000000">1.0</text>
</g>
<!-- SG_0_Node_4&#45;&gt;SG_0_Node_18 -->
<g id="edge6" class="edge">
<title>SG_0_Node_4&#45;&gt;SG_0_Node_18</title>
<path fill="none" stroke="#000000" d="M506.8751,-1509.7608C510.5369,-1498.3015 515.2488,-1483.1187 519,-1469.5584 525.5533,-1445.8686 532.1238,-1418.8461 536.8832,-1398.5379"/>
<polygon fill="#000000" stroke="#000000" points="540.3421,-1399.1161 539.1973,-1388.5833 533.5239,-1397.531 540.3421,-1399.1161"/>
<text text-anchor="middle" x="576" y="-1453.5584" font-family="Times,serif" font-size="20.00" fill="#000000">[NA]</text>
<text text-anchor="middle" x="576" y="-1431.5584" font-family="Times,serif" font-size="20.00" fill="#000000">50 levels</text>
</g>
<!-- SG_0_Node_19 -->
<g id="node12" class="node">
<title>SG_0_Node_19</title>
<ellipse fill="none" stroke="#000000" cx="61" cy="-1008.9188" rx="34.7971" ry="21.4286"/>
<text text-anchor="middle" x="61" y="-1003.9188" font-family="Times,serif" font-size="20.00" fill="#000000">0.0</text>
</g>
<!-- SG_0_Node_5&#45;&gt;SG_0_Node_19 -->
<g id="edge19" class="edge">
<title>SG_0_Node_5&#45;&gt;SG_0_Node_19</title>
<path fill="none" stroke="#000000" d="M166.5639,-1349.1066C151.7179,-1339.1506 135.1989,-1325.5034 125,-1309.132 71.2612,-1222.8699 62.0711,-1098.5243 60.8789,-1040.7085"/>
<polygon fill="#000000" stroke="#000000" points="64.3743,-1040.3383 60.7383,-1030.387 57.3749,-1040.4338 64.3743,-1040.3383"/>
<text text-anchor="middle" x="144.5" y="-1205.132" font-family="Times,serif" font-size="20.00" fill="#000000">204</text>
<text text-anchor="middle" x="144.5" y="-1183.132" font-family="Times,serif" font-size="20.00" fill="#000000">205</text>
<text text-anchor="middle" x="144.5" y="-1161.132" font-family="Times,serif" font-size="20.00" fill="#000000">304</text>
</g>
<!-- SG_0_Node_7 -->
<g id="node13" class="node">
<title>SG_0_Node_7</title>
<polygon fill="none" stroke="#000000" points="268.5,-1026.9188 113.5,-1026.9188 113.5,-990.9188 268.5,-990.9188 268.5,-1026.9188"/>
<text text-anchor="middle" x="191" y="-1003.9188" font-family="Times,serif" font-size="20.00" fill="#000000">Content&#45;Type</text>
</g>
<!-- SG_0_Node_5&#45;&gt;SG_0_Node_7 -->
<g id="edge20" class="edge">
<title>SG_0_Node_5&#45;&gt;SG_0_Node_7</title>
<path fill="none" stroke="#000000" d="M191.0007,-1349.1379C186.4889,-1337.8597 181.3058,-1322.9399 179,-1309.132 161.2844,-1203.0455 168.0863,-1174.1324 179,-1067.132 180.015,-1057.1807 181.9819,-1046.4189 184.0344,-1036.8872"/>
<polygon fill="#000000" stroke="#000000" points="187.45,-1037.6508 186.254,-1027.1237 180.6242,-1036.099 187.45,-1037.6508"/>
<text text-anchor="middle" x="198.5" y="-1260.132" font-family="Times,serif" font-size="20.00" fill="#000000">200</text>
<text text-anchor="middle" x="198.5" y="-1238.132" font-family="Times,serif" font-size="20.00" fill="#000000">201</text>
<text text-anchor="middle" x="198.5" y="-1216.132" font-family="Times,serif" font-size="20.00" fill="#000000">202</text>
<text text-anchor="middle" x="198.5" y="-1194.132" font-family="Times,serif" font-size="20.00" fill="#000000">203</text>
<text text-anchor="middle" x="198.5" y="-1172.132" font-family="Times,serif" font-size="20.00" fill="#000000">206</text>
<text text-anchor="middle" x="198.5" y="-1150.132" font-family="Times,serif" font-size="20.00" fill="#000000">207</text>
<text text-anchor="middle" x="198.5" y="-1128.132" font-family="Times,serif" font-size="20.00" fill="#000000">208</text>
<text text-anchor="middle" x="198.5" y="-1106.132" font-family="Times,serif" font-size="20.00" fill="#000000">226</text>
</g>
<!-- SG_0_Node_8 -->
<g id="node14" class="node">
<title>SG_0_Node_8</title>
<polygon fill="none" stroke="#000000" points="873.5,-1026.9188 718.5,-1026.9188 718.5,-990.9188 873.5,-990.9188 873.5,-1026.9188"/>
<text text-anchor="middle" x="796" y="-1003.9188" font-family="Times,serif" font-size="20.00" fill="#000000">Content&#45;Type</text>
</g>
<!-- SG_0_Node_6&#45;&gt;SG_0_Node_8 -->
<g id="edge7" class="edge">
<title>SG_0_Node_6&#45;&gt;SG_0_Node_8</title>
<path fill="none" stroke="#000000" d="M426.4747,-1362.8896C374.0934,-1354.9737 274.798,-1336.6583 254,-1309.132 221.5806,-1266.2248 218.0611,-1107.1376 254,-1067.132 283.7428,-1034.0237 562.4227,-1018.1401 708.1394,-1012.0441"/>
<polygon fill="#000000" stroke="#000000" points="708.5483,-1015.5304 718.3959,-1011.622 708.2604,-1008.5363 708.5483,-1015.5304"/>
<text text-anchor="middle" x="527" y="-1194.132" font-family="Times,serif" font-size="20.00" fill="#000000">ecocnt_html=meta_refresh=0;http://172.17.0.1:8000</text>
<text text-anchor="middle" x="527" y="-1172.132" font-family="Times,serif" font-size="20.00" fill="#000000">ecocnt_js=var a=5;</text>
</g>
<!-- SG_0_Node_20 -->
<g id="node15" class="node">
<title>SG_0_Node_20</title>
<ellipse fill="none" stroke="#000000" cx="926" cy="-1008.9188" rx="34.7971" ry="21.4286"/>
<text text-anchor="middle" x="926" y="-1003.9188" font-family="Times,serif" font-size="20.00" fill="#000000">1.0</text>
</g>
<!-- SG_0_Node_6&#45;&gt;SG_0_Node_20 -->
<g id="edge8" class="edge">
<title>SG_0_Node_6&#45;&gt;SG_0_Node_20</title>
<path fill="none" stroke="#000000" d="M491.689,-1349.1622C494.4519,-1348.0174 497.2438,-1346.9849 500,-1346.132 628.3397,-1306.4192 692.8944,-1390.2281 800,-1309.132 887.969,-1242.5255 915.0429,-1102.9392 922.9407,-1040.3995"/>
<polygon fill="#000000" stroke="#000000" points="926.4307,-1040.6894 924.1269,-1030.3481 919.4789,-1039.869 926.4307,-1040.6894"/>
<text text-anchor="middle" x="1163.5" y="-1293.132" font-family="Times,serif" font-size="20.00" fill="#000000">[NA]</text>
<text text-anchor="middle" x="1163.5" y="-1271.132" font-family="Times,serif" font-size="20.00" fill="#000000">ecocnt_audio=duration=1</text>
<text text-anchor="middle" x="1163.5" y="-1249.132" font-family="Times,serif" font-size="20.00" fill="#000000">ecocnt_css=h1 {color: blue}</text>
<text text-anchor="middle" x="1163.5" y="-1227.132" font-family="Times,serif" font-size="20.00" fill="#000000">ecocnt_html=num_frames=1,input_id=test1</text>
<text text-anchor="middle" x="1163.5" y="-1205.132" font-family="Times,serif" font-size="20.00" fill="#000000">ecocnt_html=num_frames=2</text>
<text text-anchor="middle" x="1163.5" y="-1183.132" font-family="Times,serif" font-size="20.00" fill="#000000">ecocnt_html=post_message=mes1</text>
<text text-anchor="middle" x="1163.5" y="-1161.132" font-family="Times,serif" font-size="20.00" fill="#000000">ecocnt_img=width=50,height=50,type=png</text>
<text text-anchor="middle" x="1163.5" y="-1139.132" font-family="Times,serif" font-size="20.00" fill="#000000">ecocnt_js=.,,.</text>
<text text-anchor="middle" x="1163.5" y="-1117.132" font-family="Times,serif" font-size="20.00" fill="#000000">ecocnt_pdf=a=a</text>
<text text-anchor="middle" x="1163.5" y="-1095.132" font-family="Times,serif" font-size="20.00" fill="#000000">ecocnt_vid=width=100,height=100,duration=2</text>
<text text-anchor="middle" x="1163.5" y="-1073.132" font-family="Times,serif" font-size="20.00" fill="#000000">empty</text>
</g>
<!-- SG_0_Node_9 -->
<g id="node16" class="node">
<title>SG_0_Node_9</title>
<polygon fill="none" stroke="#000000" points="173.5,-734.4924 108.5,-734.4924 108.5,-698.4924 173.5,-698.4924 173.5,-734.4924"/>
<text text-anchor="middle" x="141" y="-711.4924" font-family="Times,serif" font-size="20.00" fill="#000000">body</text>
</g>
<!-- SG_0_Node_7&#45;&gt;SG_0_Node_9 -->
<g id="edge21" class="edge">
<title>SG_0_Node_7&#45;&gt;SG_0_Node_9</title>
<path fill="none" stroke="#000000" d="M176.4449,-990.6872C168.5933,-979.7589 159.5933,-965.2056 155,-950.7056 132.385,-879.3148 135.0311,-789.6731 138.3196,-744.8108"/>
<polygon fill="#000000" stroke="#000000" points="141.8228,-744.91 139.1323,-734.6624 134.8451,-744.3511 141.8228,-744.91"/>
<text text-anchor="middle" x="187" y="-857.7056" font-family="Times,serif" font-size="20.00" fill="#000000">empty</text>
</g>
<!-- SG_0_Node_21 -->
<g id="node17" class="node">
<title>SG_0_Node_21</title>
<ellipse fill="none" stroke="#000000" cx="241" cy="-716.4924" rx="34.7971" ry="21.4286"/>
<text text-anchor="middle" x="241" y="-711.4924" font-family="Times,serif" font-size="20.00" fill="#000000">1.0</text>
</g>
<!-- SG_0_Node_7&#45;&gt;SG_0_Node_21 -->
<g id="edge22" class="edge">
<title>SG_0_Node_7&#45;&gt;SG_0_Node_21</title>
<path fill="none" stroke="#000000" d="M201.8357,-990.7031C207.9379,-979.5449 215.0974,-964.7528 219,-950.7056 238.5845,-880.2136 241.5327,-793.6907 241.5376,-748.0899"/>
<polygon fill="#000000" stroke="#000000" points="245.037,-747.9241 241.4891,-737.941 238.037,-747.9577 245.037,-747.9241"/>
<text text-anchor="middle" x="352" y="-934.7056" font-family="Times,serif" font-size="20.00" fill="#000000">[NA]</text>
<text text-anchor="middle" x="352" y="-912.7056" font-family="Times,serif" font-size="20.00" fill="#000000">application/javascript</text>
<text text-anchor="middle" x="352" y="-890.7056" font-family="Times,serif" font-size="20.00" fill="#000000">application/pdf</text>
<text text-anchor="middle" x="352" y="-868.7056" font-family="Times,serif" font-size="20.00" fill="#000000">audio/wav</text>
<text text-anchor="middle" x="352" y="-846.7056" font-family="Times,serif" font-size="20.00" fill="#000000">image/png</text>
<text text-anchor="middle" x="352" y="-824.7056" font-family="Times,serif" font-size="20.00" fill="#000000">text/css</text>
<text text-anchor="middle" x="352" y="-802.7056" font-family="Times,serif" font-size="20.00" fill="#000000">text/html</text>
<text text-anchor="middle" x="352" y="-780.7056" font-family="Times,serif" font-size="20.00" fill="#000000">video/mp4</text>
</g>
<!-- SG_0_Node_10 -->
<g id="node18" class="node">
<title>SG_0_Node_10</title>
<polygon fill="none" stroke="#000000" points="1105,-734.4924 843,-734.4924 843,-698.4924 1105,-698.4924 1105,-734.4924"/>
<text text-anchor="middle" x="974" y="-711.4924" font-family="Times,serif" font-size="20.00" fill="#000000">X&#45;Content&#45;Type&#45;Options</text>
</g>
<!-- SG_0_Node_8&#45;&gt;SG_0_Node_10 -->
<g id="edge9" class="edge">
<title>SG_0_Node_8&#45;&gt;SG_0_Node_10</title>
<path fill="none" stroke="#000000" d="M799.3164,-990.6245C807.7064,-948.5474 833.1267,-843.2585 888,-774.7056 899.0098,-760.9512 914.1451,-749.2153 928.6521,-739.961"/>
<polygon fill="#000000" stroke="#000000" points="930.8486,-742.7208 937.5612,-734.5237 927.2019,-736.7457 930.8486,-742.7208"/>
<text text-anchor="middle" x="965" y="-868.7056" font-family="Times,serif" font-size="20.00" fill="#000000">application/pdf</text>
<text text-anchor="middle" x="965" y="-846.7056" font-family="Times,serif" font-size="20.00" fill="#000000">text/css</text>
</g>
<!-- SG_0_Node_22 -->
<g id="node19" class="node">
<title>SG_0_Node_22</title>
<ellipse fill="none" stroke="#000000" cx="1158" cy="-716.4924" rx="34.7971" ry="21.4286"/>
<text text-anchor="middle" x="1158" y="-711.4924" font-family="Times,serif" font-size="20.00" fill="#000000">1.0</text>
</g>
<!-- SG_0_Node_8&#45;&gt;SG_0_Node_22 -->
<g id="edge10" class="edge">
<title>SG_0_Node_8&#45;&gt;SG_0_Node_22</title>
<path fill="none" stroke="#000000" d="M868.7078,-990.9054C873.204,-989.8159 877.6625,-988.7421 882,-987.7056 952.9893,-970.7431 984.7497,-995.9782 1042,-950.7056 1108.1248,-898.4152 1139.3672,-798.6675 1151.5309,-747.8842"/>
<polygon fill="#000000" stroke="#000000" points="1155.0138,-748.3554 1153.8426,-737.8255 1148.1917,-746.7875 1155.0138,-748.3554"/>
<text text-anchor="middle" x="1255" y="-923.7056" font-family="Times,serif" font-size="20.00" fill="#000000">[NA]</text>
<text text-anchor="middle" x="1255" y="-901.7056" font-family="Times,serif" font-size="20.00" fill="#000000">application/javascript</text>
<text text-anchor="middle" x="1255" y="-879.7056" font-family="Times,serif" font-size="20.00" fill="#000000">audio/wav</text>
<text text-anchor="middle" x="1255" y="-857.7056" font-family="Times,serif" font-size="20.00" fill="#000000">empty</text>
<text text-anchor="middle" x="1255" y="-835.7056" font-family="Times,serif" font-size="20.00" fill="#000000">image/png</text>
<text text-anchor="middle" x="1255" y="-813.7056" font-family="Times,serif" font-size="20.00" fill="#000000">text/html</text>
<text text-anchor="middle" x="1255" y="-791.7056" font-family="Times,serif" font-size="20.00" fill="#000000">video/mp4</text>
</g>
<!-- SG_0_Node_11 -->
<g id="node20" class="node">
<title>SG_0_Node_11</title>
<polygon fill="none" stroke="#000000" points="278,-376.066 16,-376.066 16,-340.066 278,-340.066 278,-376.066"/>
<text text-anchor="middle" x="147" y="-353.066" font-family="Times,serif" font-size="20.00" fill="#000000">X&#45;Content&#45;Type&#45;Options</text>
</g>
<!-- SG_0_Node_9&#45;&gt;SG_0_Node_11 -->
<g id="edge23" class="edge">
<title>SG_0_Node_9&#45;&gt;SG_0_Node_11</title>
<path fill="none" stroke="#000000" d="M108.0553,-705.4469C86.7647,-696.3943 60.7349,-681.2747 48,-658.2792 -4.1075,-564.1888 -5.4067,-509.6383 48,-416.2792 56.6487,-401.1607 70.9224,-389.5817 85.9753,-380.887"/>
<polygon fill="#000000" stroke="#000000" points="87.7394,-383.9125 94.8916,-376.0961 84.4261,-377.7462 87.7394,-383.9125"/>
<text text-anchor="middle" x="293.5" y="-543.2792" font-family="Times,serif" font-size="20.00" fill="#000000">ecocnt_audio=duration=1</text>
<text text-anchor="middle" x="293.5" y="-521.2792" font-family="Times,serif" font-size="20.00" fill="#000000">ecocnt_vid=width=100,height=100,duration=2</text>
</g>
<!-- SG_0_Node_23 -->
<g id="node21" class="node">
<title>SG_0_Node_23</title>
<ellipse fill="none" stroke="#000000" cx="561" cy="-358.066" rx="34.7971" ry="21.4286"/>
<text text-anchor="middle" x="561" y="-353.066" font-family="Times,serif" font-size="20.00" fill="#000000">1.0</text>
</g>
<!-- SG_0_Node_9&#45;&gt;SG_0_Node_23 -->
<g id="edge24" class="edge">
<title>SG_0_Node_9&#45;&gt;SG_0_Node_23</title>
<path fill="none" stroke="#000000" d="M173.727,-702.5059C181.2585,-699.7353 189.3158,-697.1185 197,-695.2792 271.3435,-677.4846 485.89,-713.2604 539,-658.2792 557.347,-639.2859 560.4368,-463.1366 560.9247,-389.8355"/>
<polygon fill="#000000" stroke="#000000" points="564.427,-389.4138 560.981,-379.3951 557.4271,-389.376 564.427,-389.4138"/>
<text text-anchor="middle" x="833" y="-642.2792" font-family="Times,serif" font-size="20.00" fill="#000000">[NA]</text>
<text text-anchor="middle" x="833" y="-620.2792" font-family="Times,serif" font-size="20.00" fill="#000000">ecocnt_css=h1 {color: blue}</text>
<text text-anchor="middle" x="833" y="-598.2792" font-family="Times,serif" font-size="20.00" fill="#000000">ecocnt_html=meta_refresh=0;http://172.17.0.1:8000</text>
<text text-anchor="middle" x="833" y="-576.2792" font-family="Times,serif" font-size="20.00" fill="#000000">ecocnt_html=num_frames=1,input_id=test1</text>
<text text-anchor="middle" x="833" y="-554.2792" font-family="Times,serif" font-size="20.00" fill="#000000">ecocnt_html=num_frames=2</text>
<text text-anchor="middle" x="833" y="-532.2792" font-family="Times,serif" font-size="20.00" fill="#000000">ecocnt_html=post_message=mes1</text>
<text text-anchor="middle" x="833" y="-510.2792" font-family="Times,serif" font-size="20.00" fill="#000000">ecocnt_img=width=50,height=50,type=png</text>
<text text-anchor="middle" x="833" y="-488.2792" font-family="Times,serif" font-size="20.00" fill="#000000">ecocnt_js=.,,.</text>
<text text-anchor="middle" x="833" y="-466.2792" font-family="Times,serif" font-size="20.00" fill="#000000">ecocnt_js=var a=5;</text>
<text text-anchor="middle" x="833" y="-444.2792" font-family="Times,serif" font-size="20.00" fill="#000000">ecocnt_pdf=a=a</text>
<text text-anchor="middle" x="833" y="-422.2792" font-family="Times,serif" font-size="20.00" fill="#000000">empty</text>
</g>
<!-- SG_0_Node_12 -->
<g id="node22" class="node">
<title>SG_0_Node_12</title>
<polygon fill="none" stroke="#000000" points="1210.5,-376.066 893.5,-376.066 893.5,-340.066 1210.5,-340.066 1210.5,-376.066"/>
<text text-anchor="middle" x="1052" y="-353.066" font-family="Times,serif" font-size="20.00" fill="#000000">Cross&#45;Origin&#45;Resource&#45;Policy</text>
</g>
<!-- SG_0_Node_10&#45;&gt;SG_0_Node_12 -->
<g id="edge11" class="edge">
<title>SG_0_Node_10&#45;&gt;SG_0_Node_12</title>
<path fill="none" stroke="#000000" d="M1058.0668,-698.3944C1078.7977,-689.7594 1098.5941,-677.03 1111,-658.2792 1170.3472,-568.5791 1152.493,-515.5089 1111,-416.2792 1105.6474,-403.4785 1095.9569,-392.0622 1085.9556,-382.8034"/>
<polygon fill="#000000" stroke="#000000" points="1088.1559,-380.0784 1078.3137,-376.1564 1083.5619,-385.3601 1088.1559,-380.0784"/>
<text text-anchor="middle" x="1184" y="-532.2792" font-family="Times,serif" font-size="20.00" fill="#000000">nosniff</text>
</g>
<!-- SG_0_Node_24 -->
<g id="node23" class="node">
<title>SG_0_Node_24</title>
<ellipse fill="none" stroke="#000000" cx="1263" cy="-358.066" rx="34.7971" ry="21.4286"/>
<text text-anchor="middle" x="1263" y="-353.066" font-family="Times,serif" font-size="20.00" fill="#000000">1.0</text>
</g>
<!-- SG_0_Node_10&#45;&gt;SG_0_Node_24 -->
<g id="edge12" class="edge">
<title>SG_0_Node_10&#45;&gt;SG_0_Node_24</title>
<path fill="none" stroke="#000000" d="M1074.9579,-698.4888C1139.3317,-686.06 1212.5782,-669.7666 1223,-658.2792 1291.4911,-582.7846 1279.1882,-449.4709 1269.1802,-389.1997"/>
<polygon fill="#000000" stroke="#000000" points="1272.5946,-388.407 1267.4203,-379.1617 1265.6998,-389.6159 1272.5946,-388.407"/>
<text text-anchor="middle" x="1309" y="-543.2792" font-family="Times,serif" font-size="20.00" fill="#000000">[NA]</text>
<text text-anchor="middle" x="1309" y="-521.2792" font-family="Times,serif" font-size="20.00" fill="#000000">empty</text>
</g>
<!-- SG_0_Node_25 -->
<g id="node24" class="node">
<title>SG_0_Node_25</title>
<ellipse fill="none" stroke="#000000" cx="99" cy="-197.6396" rx="34.7971" ry="21.4286"/>
<text text-anchor="middle" x="99" y="-192.6396" font-family="Times,serif" font-size="20.00" fill="#000000">0.0</text>
</g>
<!-- SG_0_Node_11&#45;&gt;SG_0_Node_25 -->
<g id="edge25" class="edge">
<title>SG_0_Node_11&#45;&gt;SG_0_Node_25</title>
<path fill="none" stroke="#000000" d="M133.8364,-339.8378C126.5211,-328.7948 117.9263,-314.1247 113,-299.8528 105.0872,-276.9288 101.6283,-249.6611 100.1254,-229.0572"/>
<polygon fill="#000000" stroke="#000000" points="103.6111,-228.7151 99.5046,-218.9484 96.6242,-229.1442 103.6111,-228.7151"/>
<text text-anchor="middle" x="145" y="-272.8528" font-family="Times,serif" font-size="20.00" fill="#000000">empty</text>
</g>
<!-- SG_0_Node_26 -->
<g id="node25" class="node">
<title>SG_0_Node_26</title>
<ellipse fill="none" stroke="#000000" cx="199" cy="-197.6396" rx="34.7971" ry="21.4286"/>
<text text-anchor="middle" x="199" y="-192.6396" font-family="Times,serif" font-size="20.00" fill="#000000">1.0</text>
</g>
<!-- SG_0_Node_11&#45;&gt;SG_0_Node_26 -->
<g id="edge26" class="edge">
<title>SG_0_Node_11&#45;&gt;SG_0_Node_26</title>
<path fill="none" stroke="#000000" d="M157.8807,-340.0118C164.2399,-328.7896 171.9779,-313.8747 177,-299.8528 185.2871,-276.7149 190.9623,-249.4597 194.4702,-228.9149"/>
<polygon fill="#000000" stroke="#000000" points="197.958,-229.2726 196.1095,-218.8403 191.0488,-228.1484 197.958,-229.2726"/>
<text text-anchor="middle" x="224" y="-283.8528" font-family="Times,serif" font-size="20.00" fill="#000000">[NA]</text>
<text text-anchor="middle" x="224" y="-261.8528" font-family="Times,serif" font-size="20.00" fill="#000000">nosniff</text>
</g>
<!-- SG_0_Node_13 -->
<g id="node26" class="node">
<title>SG_0_Node_13</title>
<polygon fill="none" stroke="#000000" points="1025.5,-215.6396 920.5,-215.6396 920.5,-179.6396 1025.5,-179.6396 1025.5,-215.6396"/>
<text text-anchor="middle" x="973" y="-192.6396" font-family="Times,serif" font-size="20.00" fill="#000000">Location</text>
</g>
<!-- SG_0_Node_12&#45;&gt;SG_0_Node_13 -->
<g id="edge13" class="edge">
<title>SG_0_Node_12&#45;&gt;SG_0_Node_13</title>
<path fill="none" stroke="#000000" d="M1023.6772,-339.827C1010.3428,-329.7015 995.5276,-315.9071 987,-299.8528 974.8527,-276.984 971.9606,-247.3459 971.7442,-225.8779"/>
<polygon fill="#000000" stroke="#000000" points="975.2449,-225.7986 971.8319,-215.7686 968.2451,-225.7378 975.2449,-225.7986"/>
<text text-anchor="middle" x="1048" y="-272.8528" font-family="Times,serif" font-size="20.00" fill="#000000">same&#45;origin</text>
</g>
<!-- SG_0_Node_27 -->
<g id="node27" class="node">
<title>SG_0_Node_27</title>
<ellipse fill="none" stroke="#000000" cx="1131" cy="-197.6396" rx="34.7971" ry="21.4286"/>
<text text-anchor="middle" x="1131" y="-192.6396" font-family="Times,serif" font-size="20.00" fill="#000000">1.0</text>
</g>
<!-- SG_0_Node_12&#45;&gt;SG_0_Node_27 -->
<g id="edge14" class="edge">
<title>SG_0_Node_12&#45;&gt;SG_0_Node_27</title>
<path fill="none" stroke="#000000" d="M1075.2094,-339.9161C1087.0596,-329.4405 1100.6925,-315.2998 1109,-299.8528 1120.768,-277.9714 1126.2412,-250.2689 1128.7867,-229.2252"/>
<polygon fill="#000000" stroke="#000000" points="1132.277,-229.501 1129.8425,-219.1897 1125.3154,-228.7686 1132.277,-229.501"/>
<text text-anchor="middle" x="1156" y="-283.8528" font-family="Times,serif" font-size="20.00" fill="#000000">[NA]</text>
<text text-anchor="middle" x="1156" y="-261.8528" font-family="Times,serif" font-size="20.00" fill="#000000">empty</text>
</g>
<!-- SG_0_Node_28 -->
<g id="node28" class="node">
<title>SG_0_Node_28</title>
<ellipse fill="none" stroke="#000000" cx="840" cy="-37.2132" rx="52.1524" ry="21.4286"/>
<text text-anchor="middle" x="840" y="-32.2132" font-family="Times,serif" font-size="20.00" fill="#000000">0.938</text>
</g>
<!-- SG_0_Node_13&#45;&gt;SG_0_Node_28 -->
<g id="edge15" class="edge">
<title>SG_0_Node_13&#45;&gt;SG_0_Node_28</title>
<path fill="none" stroke="#000000" d="M920.4031,-184.302C896.4259,-175.506 869.9006,-161.4197 854,-139.4264 839.3003,-119.0942 836.4957,-90.4095 836.9698,-68.6005"/>
<polygon fill="#000000" stroke="#000000" points="840.4706,-68.662 837.4282,-58.5133 833.4778,-68.3441 840.4706,-68.662"/>
<text text-anchor="middle" x="969" y="-112.4264" font-family="Times,serif" font-size="20.00" fill="#000000">http://172.17.0.1:8000</text>
</g>
<!-- SG_0_Node_29 -->
<g id="node29" class="node">
<title>SG_0_Node_29</title>
<ellipse fill="none" stroke="#000000" cx="1106" cy="-37.2132" rx="34.7971" ry="21.4286"/>
<text text-anchor="middle" x="1106" y="-32.2132" font-family="Times,serif" font-size="20.00" fill="#000000">1.0</text>
</g>
<!-- SG_0_Node_13&#45;&gt;SG_0_Node_29 -->
<g id="edge16" class="edge">
<title>SG_0_Node_13&#45;&gt;SG_0_Node_29</title>
<path fill="none" stroke="#000000" d="M1025.7109,-181.1529C1046.7803,-172.033 1069.4503,-158.5698 1084,-139.4264 1099.3857,-119.1831 1104.5208,-90.49 1106.0166,-68.6552"/>
<polygon fill="#000000" stroke="#000000" points="1109.518,-68.7065 1106.4876,-58.5543 1102.5256,-68.3804 1109.518,-68.7065"/>
<text text-anchor="middle" x="1134" y="-123.4264" font-family="Times,serif" font-size="20.00" fill="#000000">[NA]</text>
<text text-anchor="middle" x="1134" y="-101.4264" font-family="Times,serif" font-size="20.00" fill="#000000">empty</text>
</g>
</g>
</svg>
