<?xml version="1.0" encoding="UTF-8" standalone="no"?>
<!DOCTYPE svg PUBLIC "-//W3C//DTD SVG 1.1//EN"
 "http://www.w3.org/Graphics/SVG/1.1/DTD/svg11.dtd">
<!-- Generated by graphviz version 2.40.1 (20161225.0304)
 -->
<!-- Title: G Pages: 1 -->
<svg width="1792pt" height="2034pt"
 viewBox="0.00 0.00 1792.00 2033.84" xmlns="http://www.w3.org/2000/svg" xmlns:xlink="http://www.w3.org/1999/xlink">
<g id="graph0" class="graph" transform="scale(1 1) rotate(0) translate(4 2029.8377)">
<title>G</title>
<polygon fill="#ffffff" stroke="transparent" points="-4,4 -4,-2029.8377 1788,-2029.8377 1788,4 -4,4"/>
<g id="clust1" class="cluster">
<title>cluster_0</title>
<polygon fill="none" stroke="#000000" points="8,-8 8,-2017.8377 1776,-2017.8377 1776,-8 8,-8"/>
<text text-anchor="middle" x="892" y="-1981.8377" font-family="Times,serif" font-size="40.00" fill="#000000">Tree 0, Class [&#39;error&#39;]</text>
</g>
<!-- SG_0_Node_0 -->
<g id="node1" class="node">
<title>SG_0_Node_0</title>
<polygon fill="none" stroke="#000000" points="1218.5,-1957.8377 1153.5,-1957.8377 1153.5,-1921.8377 1218.5,-1921.8377 1218.5,-1957.8377"/>
<text text-anchor="middle" x="1186" y="-1934.8377" font-family="Times,serif" font-size="20.00" fill="#000000">body</text>
</g>
<!-- SG_0_Node_1 -->
<g id="node2" class="node">
<title>SG_0_Node_1</title>
<polygon fill="none" stroke="#000000" points="1098.5,-1800.6245 781.5,-1800.6245 781.5,-1764.6245 1098.5,-1764.6245 1098.5,-1800.6245"/>
<text text-anchor="middle" x="940" y="-1777.6245" font-family="Times,serif" font-size="20.00" fill="#000000">Cross&#45;Origin&#45;Resource&#45;Policy</text>
</g>
<!-- SG_0_Node_0&#45;&gt;SG_0_Node_1 -->
<g id="edge1" class="edge">
<title>SG_0_Node_0&#45;&gt;SG_0_Node_1</title>
<path fill="none" stroke="#000000" d="M1153.4133,-1936.612C1096.0297,-1930.2328 980.5004,-1914.0316 954,-1884.8377 936.0209,-1865.0311 934.2546,-1833.5469 935.9035,-1810.7512"/>
<polygon fill="#000000" stroke="#000000" points="939.4007,-1810.9492 936.893,-1800.6554 932.4341,-1810.2663 939.4007,-1810.9492"/>
<text text-anchor="middle" x="1182.5" y="-1857.8377" font-family="Times,serif" font-size="20.00" fill="#000000">ecocnt_img=width=50,height=50,type=png</text>
</g>
<!-- SG_0_Node_22 -->
<g id="node3" class="node">
<title>SG_0_Node_22</title>
<ellipse fill="none" stroke="#000000" cx="1433" cy="-1782.6245" rx="34.7971" ry="21.4286"/>
<text text-anchor="middle" x="1433" y="-1777.6245" font-family="Times,serif" font-size="20.00" fill="#000000">1.0</text>
</g>
<!-- SG_0_Node_0&#45;&gt;SG_0_Node_22 -->
<g id="edge2" class="edge">
<title>SG_0_Node_0&#45;&gt;SG_0_Node_22</title>
<path fill="none" stroke="#000000" d="M1218.7236,-1936.1054C1274.493,-1929.0748 1384.5046,-1912.0785 1411,-1884.8377 1429.0273,-1866.3032 1433.8045,-1836.7497 1434.4954,-1814.1776"/>
<polygon fill="#000000" stroke="#000000" points="1437.996,-1814.0697 1434.5526,-1804.0501 1430.9961,-1814.0301 1437.996,-1814.0697"/>
<text text-anchor="middle" x="1477" y="-1868.8377" font-family="Times,serif" font-size="20.00" fill="#000000">[NA]</text>
<text text-anchor="middle" x="1477" y="-1846.8377" font-family="Times,serif" font-size="20.00" fill="#000000">11 levels</text>
</g>
<!-- SG_0_Node_2 -->
<g id="node4" class="node">
<title>SG_0_Node_2</title>
<polygon fill="none" stroke="#000000" points="949,-1640.1981 807,-1640.1981 807,-1604.1981 949,-1604.1981 949,-1640.1981"/>
<text text-anchor="middle" x="878" y="-1617.1981" font-family="Times,serif" font-size="20.00" fill="#000000">Status&#45;Code</text>
</g>
<!-- SG_0_Node_1&#45;&gt;SG_0_Node_2 -->
<g id="edge3" class="edge">
<title>SG_0_Node_1&#45;&gt;SG_0_Node_2</title>
<path fill="none" stroke="#000000" d="M929.5738,-1764.3956C923.3805,-1753.1097 915.6574,-1738.1891 910,-1724.4113 899.9095,-1699.8373 891.1154,-1670.8585 885.3133,-1650.0443"/>
<polygon fill="#000000" stroke="#000000" points="888.6501,-1648.9774 882.6369,-1640.2543 881.8979,-1650.8234 888.6501,-1648.9774"/>
<text text-anchor="middle" x="942" y="-1697.4113" font-family="Times,serif" font-size="20.00" fill="#000000">empty</text>
</g>
<!-- SG_0_Node_23 -->
<g id="node5" class="node">
<title>SG_0_Node_23</title>
<ellipse fill="none" stroke="#000000" cx="1002" cy="-1622.1981" rx="34.7971" ry="21.4286"/>
<text text-anchor="middle" x="1002" y="-1617.1981" font-family="Times,serif" font-size="20.00" fill="#000000">1.0</text>
</g>
<!-- SG_0_Node_1&#45;&gt;SG_0_Node_23 -->
<g id="edge4" class="edge">
<title>SG_0_Node_1&#45;&gt;SG_0_Node_23</title>
<path fill="none" stroke="#000000" d="M952.316,-1764.3933C959.4274,-1753.2297 968.103,-1738.4372 974,-1724.4113 983.6996,-1701.3409 990.9965,-1673.9308 995.7057,-1653.3055"/>
<polygon fill="#000000" stroke="#000000" points="999.1354,-1654.0052 997.87,-1643.4862 992.2995,-1652.4984 999.1354,-1654.0052"/>
<text text-anchor="middle" x="1049" y="-1708.4113" font-family="Times,serif" font-size="20.00" fill="#000000">[NA]</text>
<text text-anchor="middle" x="1049" y="-1686.4113" font-family="Times,serif" font-size="20.00" fill="#000000">same&#45;origin</text>
</g>
<!-- SG_0_Node_3 -->
<g id="node6" class="node">
<title>SG_0_Node_3</title>
<polygon fill="none" stroke="#000000" points="734.5,-1482.9848 579.5,-1482.9848 579.5,-1446.9848 734.5,-1446.9848 734.5,-1482.9848"/>
<text text-anchor="middle" x="657" y="-1459.9848" font-family="Times,serif" font-size="20.00" fill="#000000">Content&#45;Type</text>
</g>
<!-- SG_0_Node_2&#45;&gt;SG_0_Node_3 -->
<g id="edge5" class="edge">
<title>SG_0_Node_2&#45;&gt;SG_0_Node_3</title>
<path fill="none" stroke="#000000" d="M852.6485,-1604.1637C812.706,-1575.7497 735.1009,-1520.5437 690.5735,-1488.8681"/>
<polygon fill="#000000" stroke="#000000" points="692.5727,-1485.995 682.3953,-1483.0504 688.515,-1491.699 692.5727,-1485.995"/>
<text text-anchor="middle" x="840" y="-1547.9848" font-family="Times,serif" font-size="20.00" fill="#000000">[NA]</text>
<text text-anchor="middle" x="840" y="-1525.9848" font-family="Times,serif" font-size="20.00" fill="#000000">50 levels</text>
</g>
<!-- SG_0_Node_4 -->
<g id="node7" class="node">
<title>SG_0_Node_4</title>
<polygon fill="none" stroke="#000000" points="1442,-1482.9848 1300,-1482.9848 1300,-1446.9848 1442,-1446.9848 1442,-1482.9848"/>
<text text-anchor="middle" x="1371" y="-1459.9848" font-family="Times,serif" font-size="20.00" fill="#000000">Status&#45;Code</text>
</g>
<!-- SG_0_Node_2&#45;&gt;SG_0_Node_4 -->
<g id="edge6" class="edge">
<title>SG_0_Node_2&#45;&gt;SG_0_Node_4</title>
<path fill="none" stroke="#000000" d="M934.5534,-1604.1637C1026.2493,-1574.9227 1206.9236,-1517.3073 1304.5873,-1486.1632"/>
<polygon fill="#000000" stroke="#000000" points="1305.885,-1489.4232 1314.3489,-1483.0504 1303.7582,-1482.754 1305.885,-1489.4232"/>
<text text-anchor="middle" x="1243" y="-1536.9848" font-family="Times,serif" font-size="20.00" fill="#000000">13 levels</text>
</g>
<!-- SG_0_Node_5 -->
<g id="node8" class="node">
<title>SG_0_Node_5</title>
<polygon fill="none" stroke="#000000" points="250,-1215.7716 108,-1215.7716 108,-1179.7716 250,-1179.7716 250,-1215.7716"/>
<text text-anchor="middle" x="179" y="-1192.7716" font-family="Times,serif" font-size="20.00" fill="#000000">Status&#45;Code</text>
</g>
<!-- SG_0_Node_3&#45;&gt;SG_0_Node_5 -->
<g id="edge27" class="edge">
<title>SG_0_Node_3&#45;&gt;SG_0_Node_5</title>
<path fill="none" stroke="#000000" d="M579.364,-1455.156C534.262,-1447.2727 477.3697,-1433.4989 431,-1409.9848 334.5133,-1361.0565 243.0398,-1268.5843 201.8425,-1223.6216"/>
<polygon fill="#000000" stroke="#000000" points="204.2881,-1221.1084 194.9754,-1216.0563 199.1049,-1225.8132 204.2881,-1221.1084"/>
<text text-anchor="middle" x="542" y="-1393.9848" font-family="Times,serif" font-size="20.00" fill="#000000">[NA]</text>
<text text-anchor="middle" x="542" y="-1371.9848" font-family="Times,serif" font-size="20.00" fill="#000000">application/javascript</text>
<text text-anchor="middle" x="542" y="-1349.9848" font-family="Times,serif" font-size="20.00" fill="#000000">audio/wav</text>
<text text-anchor="middle" x="542" y="-1327.9848" font-family="Times,serif" font-size="20.00" fill="#000000">empty</text>
<text text-anchor="middle" x="542" y="-1305.9848" font-family="Times,serif" font-size="20.00" fill="#000000">image/png</text>
<text text-anchor="middle" x="542" y="-1283.9848" font-family="Times,serif" font-size="20.00" fill="#000000">text/css</text>
<text text-anchor="middle" x="542" y="-1261.9848" font-family="Times,serif" font-size="20.00" fill="#000000">video/mp4</text>
</g>
<!-- SG_0_Node_6 -->
<g id="node9" class="node">
<title>SG_0_Node_6</title>
<polygon fill="none" stroke="#000000" points="722.5,-1215.7716 591.5,-1215.7716 591.5,-1179.7716 722.5,-1179.7716 722.5,-1215.7716"/>
<text text-anchor="middle" x="657" y="-1192.7716" font-family="Times,serif" font-size="20.00" fill="#000000">browser_id</text>
</g>
<!-- SG_0_Node_3&#45;&gt;SG_0_Node_6 -->
<g id="edge28" class="edge">
<title>SG_0_Node_3&#45;&gt;SG_0_Node_6</title>
<path fill="none" stroke="#000000" d="M657,-1446.6182C657,-1400.743 657,-1280.8965 657,-1225.9882"/>
<polygon fill="#000000" stroke="#000000" points="660.5001,-1225.9134 657,-1215.9135 653.5001,-1225.9135 660.5001,-1225.9134"/>
<text text-anchor="middle" x="734" y="-1338.9848" font-family="Times,serif" font-size="20.00" fill="#000000">application/pdf</text>
<text text-anchor="middle" x="734" y="-1316.9848" font-family="Times,serif" font-size="20.00" fill="#000000">text/html</text>
</g>
<!-- SG_0_Node_7 -->
<g id="node10" class="node">
<title>SG_0_Node_7</title>
<polygon fill="none" stroke="#000000" points="1423.5,-1215.7716 1318.5,-1215.7716 1318.5,-1179.7716 1423.5,-1179.7716 1423.5,-1215.7716"/>
<text text-anchor="middle" x="1371" y="-1192.7716" font-family="Times,serif" font-size="20.00" fill="#000000">Location</text>
</g>
<!-- SG_0_Node_4&#45;&gt;SG_0_Node_7 -->
<g id="edge7" class="edge">
<title>SG_0_Node_4&#45;&gt;SG_0_Node_7</title>
<path fill="none" stroke="#000000" d="M1371,-1446.6182C1371,-1400.743 1371,-1280.8965 1371,-1225.9882"/>
<polygon fill="#000000" stroke="#000000" points="1374.5001,-1225.9134 1371,-1215.9135 1367.5001,-1225.9135 1374.5001,-1225.9134"/>
<text text-anchor="middle" x="1390.5" y="-1382.9848" font-family="Times,serif" font-size="20.00" fill="#000000">301</text>
<text text-anchor="middle" x="1390.5" y="-1360.9848" font-family="Times,serif" font-size="20.00" fill="#000000">302</text>
<text text-anchor="middle" x="1390.5" y="-1338.9848" font-family="Times,serif" font-size="20.00" fill="#000000">303</text>
<text text-anchor="middle" x="1390.5" y="-1316.9848" font-family="Times,serif" font-size="20.00" fill="#000000">307</text>
<text text-anchor="middle" x="1390.5" y="-1294.9848" font-family="Times,serif" font-size="20.00" fill="#000000">308</text>
<text text-anchor="middle" x="1390.5" y="-1272.9848" font-family="Times,serif" font-size="20.00" fill="#000000">407</text>
</g>
<!-- SG_0_Node_24 -->
<g id="node11" class="node">
<title>SG_0_Node_24</title>
<ellipse fill="none" stroke="#000000" cx="1476" cy="-1197.7716" rx="34.7971" ry="21.4286"/>
<text text-anchor="middle" x="1476" y="-1192.7716" font-family="Times,serif" font-size="20.00" fill="#000000">1.0</text>
</g>
<!-- SG_0_Node_4&#45;&gt;SG_0_Node_24 -->
<g id="edge8" class="edge">
<title>SG_0_Node_4&#45;&gt;SG_0_Node_24</title>
<path fill="none" stroke="#000000" d="M1388.0368,-1446.8627C1396.8382,-1436.6799 1407.1412,-1423.3579 1414,-1409.9848 1444.9233,-1349.6919 1462.6813,-1271.6364 1470.726,-1228.9893"/>
<polygon fill="#000000" stroke="#000000" points="1474.2073,-1229.4087 1472.5641,-1218.9421 1467.3215,-1228.149 1474.2073,-1229.4087"/>
<text text-anchor="middle" x="1483.5" y="-1393.9848" font-family="Times,serif" font-size="20.00" fill="#000000">100</text>
<text text-anchor="middle" x="1483.5" y="-1371.9848" font-family="Times,serif" font-size="20.00" fill="#000000">101</text>
<text text-anchor="middle" x="1483.5" y="-1349.9848" font-family="Times,serif" font-size="20.00" fill="#000000">102</text>
<text text-anchor="middle" x="1483.5" y="-1327.9848" font-family="Times,serif" font-size="20.00" fill="#000000">103</text>
<text text-anchor="middle" x="1483.5" y="-1305.9848" font-family="Times,serif" font-size="20.00" fill="#000000">204</text>
<text text-anchor="middle" x="1483.5" y="-1283.9848" font-family="Times,serif" font-size="20.00" fill="#000000">205</text>
<text text-anchor="middle" x="1483.5" y="-1261.9848" font-family="Times,serif" font-size="20.00" fill="#000000">304</text>
</g>
<!-- SG_0_Node_25 -->
<g id="node12" class="node">
<title>SG_0_Node_25</title>
<ellipse fill="none" stroke="#000000" cx="51" cy="-1015.3452" rx="34.7971" ry="21.4286"/>
<text text-anchor="middle" x="51" y="-1010.3452" font-family="Times,serif" font-size="20.00" fill="#000000">0.0</text>
</g>
<!-- SG_0_Node_5&#45;&gt;SG_0_Node_25 -->
<g id="edge39" class="edge">
<title>SG_0_Node_5&#45;&gt;SG_0_Node_25</title>
<path fill="none" stroke="#000000" d="M128.0537,-1179.6473C109.0147,-1170.4384 88.9038,-1157.3498 76,-1139.5584 56.3894,-1112.52 51.2471,-1073.8566 50.3089,-1046.8713"/>
<polygon fill="#000000" stroke="#000000" points="53.8072,-1046.7343 50.1336,-1036.7968 46.8082,-1046.8562 53.8072,-1046.7343"/>
<text text-anchor="middle" x="122" y="-1112.5584" font-family="Times,serif" font-size="20.00" fill="#000000">[NA]</text>
<text text-anchor="middle" x="122" y="-1090.5584" font-family="Times,serif" font-size="20.00" fill="#000000">49 levels</text>
</g>
<!-- SG_0_Node_8 -->
<g id="node13" class="node">
<title>SG_0_Node_8</title>
<polygon fill="none" stroke="#000000" points="234.5,-1033.3452 103.5,-1033.3452 103.5,-997.3452 234.5,-997.3452 234.5,-1033.3452"/>
<text text-anchor="middle" x="169" y="-1010.3452" font-family="Times,serif" font-size="20.00" fill="#000000">browser_id</text>
</g>
<!-- SG_0_Node_5&#45;&gt;SG_0_Node_8 -->
<g id="edge40" class="edge">
<title>SG_0_Node_5&#45;&gt;SG_0_Node_8</title>
<path fill="none" stroke="#000000" d="M178.0046,-1179.613C176.26,-1147.7871 172.6383,-1081.7174 170.5588,-1043.7821"/>
<polygon fill="#000000" stroke="#000000" points="174.0336,-1043.2239 169.9914,-1033.4305 167.0441,-1043.6071 174.0336,-1043.2239"/>
<text text-anchor="middle" x="194.5" y="-1101.5584" font-family="Times,serif" font-size="20.00" fill="#000000">300</text>
</g>
<!-- SG_0_Node_9 -->
<g id="node14" class="node">
<title>SG_0_Node_9</title>
<polygon fill="none" stroke="#000000" points="583,-1033.3452 441,-1033.3452 441,-997.3452 583,-997.3452 583,-1033.3452"/>
<text text-anchor="middle" x="512" y="-1010.3452" font-family="Times,serif" font-size="20.00" fill="#000000">Status&#45;Code</text>
</g>
<!-- SG_0_Node_6&#45;&gt;SG_0_Node_9 -->
<g id="edge29" class="edge">
<title>SG_0_Node_6&#45;&gt;SG_0_Node_9</title>
<path fill="none" stroke="#000000" d="M642.5667,-1179.613C616.7274,-1147.1042 562.489,-1078.8661 532.693,-1041.3794"/>
<polygon fill="#000000" stroke="#000000" points="535.3372,-1039.081 526.3749,-1033.4305 529.8573,-1043.4367 535.3372,-1039.081"/>
<text text-anchor="middle" x="616.5" y="-1101.5584" font-family="Times,serif" font-size="20.00" fill="#000000">1</text>
</g>
<!-- SG_0_Node_10 -->
<g id="node15" class="node">
<title>SG_0_Node_10</title>
<polygon fill="none" stroke="#000000" points="897,-1033.3452 635,-1033.3452 635,-997.3452 897,-997.3452 897,-1033.3452"/>
<text text-anchor="middle" x="766" y="-1010.3452" font-family="Times,serif" font-size="20.00" fill="#000000">X&#45;Content&#45;Type&#45;Options</text>
</g>
<!-- SG_0_Node_6&#45;&gt;SG_0_Node_10 -->
<g id="edge30" class="edge">
<title>SG_0_Node_6&#45;&gt;SG_0_Node_10</title>
<path fill="none" stroke="#000000" d="M667.8498,-1179.613C687.1107,-1147.3773 727.3625,-1080.0104 749.876,-1042.3309"/>
<polygon fill="#000000" stroke="#000000" points="753.0694,-1043.8101 755.194,-1033.4305 747.0603,-1040.2196 753.0694,-1043.8101"/>
<text text-anchor="middle" x="756" y="-1123.5584" font-family="Times,serif" font-size="20.00" fill="#000000">[NA]</text>
<text text-anchor="middle" x="756" y="-1101.5584" font-family="Times,serif" font-size="20.00" fill="#000000">2</text>
<text text-anchor="middle" x="756" y="-1079.5584" font-family="Times,serif" font-size="20.00" fill="#000000">3</text>
</g>
<!-- SG_0_Node_11 -->
<g id="node16" class="node">
<title>SG_0_Node_11</title>
<polygon fill="none" stroke="#000000" points="1442,-1033.3452 1300,-1033.3452 1300,-997.3452 1442,-997.3452 1442,-1033.3452"/>
<text text-anchor="middle" x="1371" y="-1010.3452" font-family="Times,serif" font-size="20.00" fill="#000000">Status&#45;Code</text>
</g>
<!-- SG_0_Node_7&#45;&gt;SG_0_Node_11 -->
<g id="edge9" class="edge">
<title>SG_0_Node_7&#45;&gt;SG_0_Node_11</title>
<path fill="none" stroke="#000000" d="M1371,-1179.613C1371,-1147.7871 1371,-1081.7174 1371,-1043.7821"/>
<polygon fill="#000000" stroke="#000000" points="1374.5001,-1043.4304 1371,-1033.4305 1367.5001,-1043.4305 1374.5001,-1043.4304"/>
<text text-anchor="middle" x="1403" y="-1101.5584" font-family="Times,serif" font-size="20.00" fill="#000000">empty</text>
</g>
<!-- SG_0_Node_12 -->
<g id="node17" class="node">
<title>SG_0_Node_12</title>
<polygon fill="none" stroke="#000000" points="1686,-1033.3452 1544,-1033.3452 1544,-997.3452 1686,-997.3452 1686,-1033.3452"/>
<text text-anchor="middle" x="1615" y="-1010.3452" font-family="Times,serif" font-size="20.00" fill="#000000">Status&#45;Code</text>
</g>
<!-- SG_0_Node_7&#45;&gt;SG_0_Node_12 -->
<g id="edge10" class="edge">
<title>SG_0_Node_7&#45;&gt;SG_0_Node_12</title>
<path fill="none" stroke="#000000" d="M1395.2877,-1179.613C1439.4998,-1146.5578 1533.1207,-1076.5623 1582.6714,-1039.5157"/>
<polygon fill="#000000" stroke="#000000" points="1584.8973,-1042.2216 1590.8105,-1033.4305 1580.7057,-1036.6153 1584.8973,-1042.2216"/>
<text text-anchor="middle" x="1651" y="-1112.5584" font-family="Times,serif" font-size="20.00" fill="#000000">[NA]</text>
<text text-anchor="middle" x="1651" y="-1090.5584" font-family="Times,serif" font-size="20.00" fill="#000000">http://172.17.0.1:8000</text>
</g>
<!-- SG_0_Node_26 -->
<g id="node18" class="node">
<title>SG_0_Node_26</title>
<ellipse fill="none" stroke="#000000" cx="57" cy="-788.9188" rx="34.7971" ry="21.4286"/>
<text text-anchor="middle" x="57" y="-783.9188" font-family="Times,serif" font-size="20.00" fill="#000000">0.0</text>
</g>
<!-- SG_0_Node_8&#45;&gt;SG_0_Node_26 -->
<g id="edge41" class="edge">
<title>SG_0_Node_8&#45;&gt;SG_0_Node_26</title>
<path fill="none" stroke="#000000" d="M145.0991,-997.1111C132.7805,-986.6107 118.4093,-972.4734 109,-957.132 82.4235,-913.8005 68.4323,-855.7831 61.8903,-820.4444"/>
<polygon fill="#000000" stroke="#000000" points="65.2757,-819.4876 60.0934,-810.2467 58.3819,-820.7024 65.2757,-819.4876"/>
<text text-anchor="middle" x="134" y="-919.132" font-family="Times,serif" font-size="20.00" fill="#000000">[NA]</text>
<text text-anchor="middle" x="134" y="-897.132" font-family="Times,serif" font-size="20.00" fill="#000000">2</text>
<text text-anchor="middle" x="134" y="-875.132" font-family="Times,serif" font-size="20.00" fill="#000000">3</text>
</g>
<!-- SG_0_Node_13 -->
<g id="node19" class="node">
<title>SG_0_Node_13</title>
<polygon fill="none" stroke="#000000" points="214.5,-806.9188 109.5,-806.9188 109.5,-770.9188 214.5,-770.9188 214.5,-806.9188"/>
<text text-anchor="middle" x="162" y="-783.9188" font-family="Times,serif" font-size="20.00" fill="#000000">Location</text>
</g>
<!-- SG_0_Node_8&#45;&gt;SG_0_Node_13 -->
<g id="edge42" class="edge">
<title>SG_0_Node_8&#45;&gt;SG_0_Node_13</title>
<path fill="none" stroke="#000000" d="M168.439,-997.1986C167.223,-957.8659 164.3368,-864.5059 162.8773,-817.2966"/>
<polygon fill="#000000" stroke="#000000" points="166.3711,-817.039 162.5637,-807.1519 159.3744,-817.2553 166.3711,-817.039"/>
<text text-anchor="middle" x="173.5" y="-897.132" font-family="Times,serif" font-size="20.00" fill="#000000">1</text>
</g>
<!-- SG_0_Node_27 -->
<g id="node20" class="node">
<title>SG_0_Node_27</title>
<ellipse fill="none" stroke="#000000" cx="384" cy="-788.9188" rx="34.7971" ry="21.4286"/>
<text text-anchor="middle" x="384" y="-783.9188" font-family="Times,serif" font-size="20.00" fill="#000000">0.0</text>
</g>
<!-- SG_0_Node_9&#45;&gt;SG_0_Node_27 -->
<g id="edge35" class="edge">
<title>SG_0_Node_9&#45;&gt;SG_0_Node_27</title>
<path fill="none" stroke="#000000" d="M458.4043,-997.328C439.2468,-988.2303 419.3616,-975.192 407,-957.132 378.9671,-916.1768 377.8604,-856.326 380.3868,-820.1536"/>
<polygon fill="#000000" stroke="#000000" points="383.8757,-820.431 381.2187,-810.1748 376.8999,-819.8494 383.8757,-820.431"/>
<text text-anchor="middle" x="453" y="-908.132" font-family="Times,serif" font-size="20.00" fill="#000000">[NA]</text>
<text text-anchor="middle" x="453" y="-886.132" font-family="Times,serif" font-size="20.00" fill="#000000">49 levels</text>
</g>
<!-- SG_0_Node_14 -->
<g id="node21" class="node">
<title>SG_0_Node_14</title>
<polygon fill="none" stroke="#000000" points="552.5,-806.9188 447.5,-806.9188 447.5,-770.9188 552.5,-770.9188 552.5,-806.9188"/>
<text text-anchor="middle" x="500" y="-783.9188" font-family="Times,serif" font-size="20.00" fill="#000000">Location</text>
</g>
<!-- SG_0_Node_9&#45;&gt;SG_0_Node_14 -->
<g id="edge36" class="edge">
<title>SG_0_Node_9&#45;&gt;SG_0_Node_14</title>
<path fill="none" stroke="#000000" d="M511.0383,-997.1986C508.9537,-957.8659 504.0059,-864.5059 501.5039,-817.2966"/>
<polygon fill="#000000" stroke="#000000" points="504.9907,-816.9526 500.9663,-807.1519 498.0005,-817.3232 504.9907,-816.9526"/>
<text text-anchor="middle" x="527.5" y="-897.132" font-family="Times,serif" font-size="20.00" fill="#000000">300</text>
</g>
<!-- SG_0_Node_15 -->
<g id="node22" class="node">
<title>SG_0_Node_15</title>
<polygon fill="none" stroke="#000000" points="843.5,-806.9188 688.5,-806.9188 688.5,-770.9188 843.5,-770.9188 843.5,-806.9188"/>
<text text-anchor="middle" x="766" y="-783.9188" font-family="Times,serif" font-size="20.00" fill="#000000">Content&#45;Type</text>
</g>
<!-- SG_0_Node_10&#45;&gt;SG_0_Node_15 -->
<g id="edge31" class="edge">
<title>SG_0_Node_10&#45;&gt;SG_0_Node_15</title>
<path fill="none" stroke="#000000" d="M766,-997.1986C766,-957.8659 766,-864.5059 766,-817.2966"/>
<polygon fill="#000000" stroke="#000000" points="769.5001,-817.1519 766,-807.1519 762.5001,-817.152 769.5001,-817.1519"/>
<text text-anchor="middle" x="798" y="-897.132" font-family="Times,serif" font-size="20.00" fill="#000000">empty</text>
</g>
<!-- SG_0_Node_28 -->
<g id="node23" class="node">
<title>SG_0_Node_28</title>
<ellipse fill="none" stroke="#000000" cx="896" cy="-788.9188" rx="34.7971" ry="21.4286"/>
<text text-anchor="middle" x="896" y="-783.9188" font-family="Times,serif" font-size="20.00" fill="#000000">1.0</text>
</g>
<!-- SG_0_Node_10&#45;&gt;SG_0_Node_28 -->
<g id="edge32" class="edge">
<title>SG_0_Node_10&#45;&gt;SG_0_Node_28</title>
<path fill="none" stroke="#000000" d="M793.1502,-997.2387C806.9574,-986.8734 823.0817,-972.8219 834,-957.132 863.7724,-914.3484 881.1247,-855.5547 889.5657,-820.0068"/>
<polygon fill="#000000" stroke="#000000" points="892.9917,-820.7256 891.8083,-810.1971 886.1677,-819.1655 892.9917,-820.7256"/>
<text text-anchor="middle" x="917" y="-908.132" font-family="Times,serif" font-size="20.00" fill="#000000">[NA]</text>
<text text-anchor="middle" x="917" y="-886.132" font-family="Times,serif" font-size="20.00" fill="#000000">nosniff</text>
</g>
<!-- SG_0_Node_16 -->
<g id="node24" class="node">
<title>SG_0_Node_16</title>
<polygon fill="none" stroke="#000000" points="1382.5,-806.9188 1227.5,-806.9188 1227.5,-770.9188 1382.5,-770.9188 1382.5,-806.9188"/>
<text text-anchor="middle" x="1305" y="-783.9188" font-family="Times,serif" font-size="20.00" fill="#000000">Content&#45;Type</text>
</g>
<!-- SG_0_Node_11&#45;&gt;SG_0_Node_16 -->
<g id="edge15" class="edge">
<title>SG_0_Node_11&#45;&gt;SG_0_Node_16</title>
<path fill="none" stroke="#000000" d="M1365.7105,-997.1986C1354.2215,-957.7831 1326.9179,-864.1125 1313.185,-816.999"/>
<polygon fill="#000000" stroke="#000000" points="1316.4733,-815.7729 1310.3147,-807.1519 1309.753,-817.7319 1316.4733,-815.7729"/>
<text text-anchor="middle" x="1372.5" y="-941.132" font-family="Times,serif" font-size="20.00" fill="#000000">301</text>
<text text-anchor="middle" x="1372.5" y="-919.132" font-family="Times,serif" font-size="20.00" fill="#000000">302</text>
<text text-anchor="middle" x="1372.5" y="-897.132" font-family="Times,serif" font-size="20.00" fill="#000000">303</text>
<text text-anchor="middle" x="1372.5" y="-875.132" font-family="Times,serif" font-size="20.00" fill="#000000">307</text>
<text text-anchor="middle" x="1372.5" y="-853.132" font-family="Times,serif" font-size="20.00" fill="#000000">308</text>
</g>
<!-- SG_0_Node_17 -->
<g id="node25" class="node">
<title>SG_0_Node_17</title>
<polygon fill="none" stroke="#000000" points="1531.5,-806.9188 1400.5,-806.9188 1400.5,-770.9188 1531.5,-770.9188 1531.5,-806.9188"/>
<text text-anchor="middle" x="1466" y="-783.9188" font-family="Times,serif" font-size="20.00" fill="#000000">browser_id</text>
</g>
<!-- SG_0_Node_11&#45;&gt;SG_0_Node_17 -->
<g id="edge16" class="edge">
<title>SG_0_Node_11&#45;&gt;SG_0_Node_17</title>
<path fill="none" stroke="#000000" d="M1378.8228,-997.2747C1383.7782,-985.7922 1390.3035,-970.606 1396,-957.132 1416.8744,-907.758 1440.7875,-850.0384 1454.5685,-816.6595"/>
<polygon fill="#000000" stroke="#000000" points="1457.9265,-817.6972 1458.5054,-807.1182 1451.4557,-815.0272 1457.9265,-817.6972"/>
<text text-anchor="middle" x="1460.5" y="-897.132" font-family="Times,serif" font-size="20.00" fill="#000000">407</text>
</g>
<!-- SG_0_Node_18 -->
<g id="node26" class="node">
<title>SG_0_Node_18</title>
<polygon fill="none" stroke="#000000" points="1680.5,-806.9188 1549.5,-806.9188 1549.5,-770.9188 1680.5,-770.9188 1680.5,-806.9188"/>
<text text-anchor="middle" x="1615" y="-783.9188" font-family="Times,serif" font-size="20.00" fill="#000000">browser_id</text>
</g>
<!-- SG_0_Node_12&#45;&gt;SG_0_Node_18 -->
<g id="edge11" class="edge">
<title>SG_0_Node_12&#45;&gt;SG_0_Node_18</title>
<path fill="none" stroke="#000000" d="M1615,-997.1986C1615,-957.8659 1615,-864.5059 1615,-817.2966"/>
<polygon fill="#000000" stroke="#000000" points="1618.5001,-817.1519 1615,-807.1519 1611.5001,-817.152 1618.5001,-817.1519"/>
<text text-anchor="middle" x="1634.5" y="-897.132" font-family="Times,serif" font-size="20.00" fill="#000000">407</text>
</g>
<!-- SG_0_Node_29 -->
<g id="node27" class="node">
<title>SG_0_Node_29</title>
<ellipse fill="none" stroke="#000000" cx="1733" cy="-788.9188" rx="34.7971" ry="21.4286"/>
<text text-anchor="middle" x="1733" y="-783.9188" font-family="Times,serif" font-size="20.00" fill="#000000">1.0</text>
</g>
<!-- SG_0_Node_12&#45;&gt;SG_0_Node_29 -->
<g id="edge12" class="edge">
<title>SG_0_Node_12&#45;&gt;SG_0_Node_29</title>
<path fill="none" stroke="#000000" d="M1630.0176,-997.176C1638.8135,-986.0344 1649.7735,-971.2433 1658,-957.132 1684.8224,-911.1226 1708.4904,-853.7768 1721.7545,-819.322"/>
<polygon fill="#000000" stroke="#000000" points="1725.0847,-820.4117 1725.3714,-809.8208 1718.5426,-817.9213 1725.0847,-820.4117"/>
<text text-anchor="middle" x="1729.5" y="-941.132" font-family="Times,serif" font-size="20.00" fill="#000000">301</text>
<text text-anchor="middle" x="1729.5" y="-919.132" font-family="Times,serif" font-size="20.00" fill="#000000">302</text>
<text text-anchor="middle" x="1729.5" y="-897.132" font-family="Times,serif" font-size="20.00" fill="#000000">303</text>
<text text-anchor="middle" x="1729.5" y="-875.132" font-family="Times,serif" font-size="20.00" fill="#000000">307</text>
<text text-anchor="middle" x="1729.5" y="-853.132" font-family="Times,serif" font-size="20.00" fill="#000000">308</text>
</g>
<!-- SG_0_Node_30 -->
<g id="node28" class="node">
<title>SG_0_Node_30</title>
<ellipse fill="none" stroke="#000000" cx="51" cy="-518.4924" rx="34.7971" ry="21.4286"/>
<text text-anchor="middle" x="51" y="-513.4924" font-family="Times,serif" font-size="20.00" fill="#000000">0.0</text>
</g>
<!-- SG_0_Node_13&#45;&gt;SG_0_Node_30 -->
<g id="edge43" class="edge">
<title>SG_0_Node_13&#45;&gt;SG_0_Node_30</title>
<path fill="none" stroke="#000000" d="M115.9235,-770.9087C98.2837,-761.611 79.818,-748.427 69,-730.7056 34.6502,-674.4358 39.4168,-593.6063 45.4747,-549.7234"/>
<polygon fill="#000000" stroke="#000000" points="48.9626,-550.064 46.9783,-539.6566 42.0394,-549.0298 48.9626,-550.064"/>
<text text-anchor="middle" x="101" y="-659.7056" font-family="Times,serif" font-size="20.00" fill="#000000">[NA]</text>
<text text-anchor="middle" x="101" y="-637.7056" font-family="Times,serif" font-size="20.00" fill="#000000">empty</text>
</g>
<!-- SG_0_Node_31 -->
<g id="node29" class="node">
<title>SG_0_Node_31</title>
<ellipse fill="none" stroke="#000000" cx="138" cy="-518.4924" rx="34.7971" ry="21.4286"/>
<text text-anchor="middle" x="138" y="-513.4924" font-family="Times,serif" font-size="20.00" fill="#000000">1.0</text>
</g>
<!-- SG_0_Node_13&#45;&gt;SG_0_Node_31 -->
<g id="edge44" class="edge">
<title>SG_0_Node_13&#45;&gt;SG_0_Node_31</title>
<path fill="none" stroke="#000000" d="M156.6905,-770.7371C153.5974,-759.3419 149.9357,-744.2893 148,-730.7056 138.9291,-667.0515 137.5749,-591.6849 137.6342,-550.0739"/>
<polygon fill="#000000" stroke="#000000" points="141.1344,-550.0197 137.6777,-540.0047 134.1344,-549.9894 141.1344,-550.0197"/>
<text text-anchor="middle" x="263" y="-648.7056" font-family="Times,serif" font-size="20.00" fill="#000000">http://172.17.0.1:8000</text>
</g>
<!-- SG_0_Node_32 -->
<g id="node30" class="node">
<title>SG_0_Node_32</title>
<ellipse fill="none" stroke="#000000" cx="400" cy="-518.4924" rx="34.7971" ry="21.4286"/>
<text text-anchor="middle" x="400" y="-513.4924" font-family="Times,serif" font-size="20.00" fill="#000000">0.0</text>
</g>
<!-- SG_0_Node_14&#45;&gt;SG_0_Node_32 -->
<g id="edge37" class="edge">
<title>SG_0_Node_14&#45;&gt;SG_0_Node_32</title>
<path fill="none" stroke="#000000" d="M470.4727,-770.8963C456.549,-760.8259 441.0424,-747.0155 432,-730.7056 400.0229,-673.0282 396.9668,-593.6609 398.1258,-550.169"/>
<polygon fill="#000000" stroke="#000000" points="401.6326,-550.0397 398.4962,-539.9197 394.6372,-549.7868 401.6326,-550.0397"/>
<text text-anchor="middle" x="464" y="-648.7056" font-family="Times,serif" font-size="20.00" fill="#000000">empty</text>
</g>
<!-- SG_0_Node_33 -->
<g id="node31" class="node">
<title>SG_0_Node_33</title>
<ellipse fill="none" stroke="#000000" cx="500" cy="-518.4924" rx="34.7971" ry="21.4286"/>
<text text-anchor="middle" x="500" y="-513.4924" font-family="Times,serif" font-size="20.00" fill="#000000">1.0</text>
</g>
<!-- SG_0_Node_14&#45;&gt;SG_0_Node_33 -->
<g id="edge38" class="edge">
<title>SG_0_Node_14&#45;&gt;SG_0_Node_33</title>
<path fill="none" stroke="#000000" d="M500,-770.7555C500,-725.4753 500,-607.1382 500,-550.1135"/>
<polygon fill="#000000" stroke="#000000" points="503.5001,-549.8879 500,-539.888 496.5001,-549.888 503.5001,-549.8879"/>
<text text-anchor="middle" x="615" y="-659.7056" font-family="Times,serif" font-size="20.00" fill="#000000">[NA]</text>
<text text-anchor="middle" x="615" y="-637.7056" font-family="Times,serif" font-size="20.00" fill="#000000">http://172.17.0.1:8000</text>
</g>
<!-- SG_0_Node_34 -->
<g id="node32" class="node">
<title>SG_0_Node_34</title>
<ellipse fill="none" stroke="#000000" cx="766" cy="-518.4924" rx="34.7971" ry="21.4286"/>
<text text-anchor="middle" x="766" y="-513.4924" font-family="Times,serif" font-size="20.00" fill="#000000">0.0</text>
</g>
<!-- SG_0_Node_15&#45;&gt;SG_0_Node_34 -->
<g id="edge33" class="edge">
<title>SG_0_Node_15&#45;&gt;SG_0_Node_34</title>
<path fill="none" stroke="#000000" d="M766,-770.7555C766,-725.4753 766,-607.1382 766,-550.1135"/>
<polygon fill="#000000" stroke="#000000" points="769.5001,-549.8879 766,-539.888 762.5001,-549.888 769.5001,-549.8879"/>
<text text-anchor="middle" x="813" y="-648.7056" font-family="Times,serif" font-size="20.00" fill="#000000">text/html</text>
</g>
<!-- SG_0_Node_35 -->
<g id="node33" class="node">
<title>SG_0_Node_35</title>
<ellipse fill="none" stroke="#000000" cx="896" cy="-518.4924" rx="34.7971" ry="21.4286"/>
<text text-anchor="middle" x="896" y="-513.4924" font-family="Times,serif" font-size="20.00" fill="#000000">1.0</text>
</g>
<!-- SG_0_Node_15&#45;&gt;SG_0_Node_35 -->
<g id="edge34" class="edge">
<title>SG_0_Node_15&#45;&gt;SG_0_Node_35</title>
<path fill="none" stroke="#000000" d="M814.4286,-770.8261C832.7637,-761.5697 852.0697,-748.4382 864,-730.7056 901.0833,-675.5866 902.0338,-594.3049 899.1944,-550.0414"/>
<polygon fill="#000000" stroke="#000000" points="902.6708,-549.5933 898.433,-539.883 895.6904,-550.1166 902.6708,-549.5933"/>
<text text-anchor="middle" x="977" y="-648.7056" font-family="Times,serif" font-size="20.00" fill="#000000">application/pdf</text>
</g>
<!-- SG_0_Node_36 -->
<g id="node34" class="node">
<title>SG_0_Node_36</title>
<ellipse fill="none" stroke="#000000" cx="1086" cy="-518.4924" rx="34.7971" ry="21.4286"/>
<text text-anchor="middle" x="1086" y="-513.4924" font-family="Times,serif" font-size="20.00" fill="#000000">0.0</text>
</g>
<!-- SG_0_Node_16&#45;&gt;SG_0_Node_36 -->
<g id="edge19" class="edge">
<title>SG_0_Node_16&#45;&gt;SG_0_Node_36</title>
<path fill="none" stroke="#000000" d="M1227.3738,-778.2577C1171.9852,-768.8788 1104.3519,-753.1892 1087,-730.7056 1046.3822,-678.0755 1062.5274,-594.2056 1075.5956,-549.2835"/>
<polygon fill="#000000" stroke="#000000" points="1079.0013,-550.1138 1078.5652,-539.528 1072.3047,-548.0754 1079.0013,-550.1138"/>
<text text-anchor="middle" x="1198" y="-714.7056" font-family="Times,serif" font-size="20.00" fill="#000000">[NA]</text>
<text text-anchor="middle" x="1198" y="-692.7056" font-family="Times,serif" font-size="20.00" fill="#000000">application/javascript</text>
<text text-anchor="middle" x="1198" y="-670.7056" font-family="Times,serif" font-size="20.00" fill="#000000">audio/wav</text>
<text text-anchor="middle" x="1198" y="-648.7056" font-family="Times,serif" font-size="20.00" fill="#000000">empty</text>
<text text-anchor="middle" x="1198" y="-626.7056" font-family="Times,serif" font-size="20.00" fill="#000000">image/png</text>
<text text-anchor="middle" x="1198" y="-604.7056" font-family="Times,serif" font-size="20.00" fill="#000000">text/css</text>
<text text-anchor="middle" x="1198" y="-582.7056" font-family="Times,serif" font-size="20.00" fill="#000000">video/mp4</text>
</g>
<!-- SG_0_Node_19 -->
<g id="node35" class="node">
<title>SG_0_Node_19</title>
<polygon fill="none" stroke="#000000" points="1409.5,-536.4924 1278.5,-536.4924 1278.5,-500.4924 1409.5,-500.4924 1409.5,-536.4924"/>
<text text-anchor="middle" x="1344" y="-513.4924" font-family="Times,serif" font-size="20.00" fill="#000000">browser_id</text>
</g>
<!-- SG_0_Node_16&#45;&gt;SG_0_Node_19 -->
<g id="edge20" class="edge">
<title>SG_0_Node_16&#45;&gt;SG_0_Node_19</title>
<path fill="none" stroke="#000000" d="M1307.6195,-770.7555C1314.2801,-724.5702 1331.9022,-602.3784 1339.9221,-546.7687"/>
<polygon fill="#000000" stroke="#000000" points="1343.4286,-546.9739 1341.3919,-536.5767 1336.5003,-545.9747 1343.4286,-546.9739"/>
<text text-anchor="middle" x="1412" y="-659.7056" font-family="Times,serif" font-size="20.00" fill="#000000">application/pdf</text>
<text text-anchor="middle" x="1412" y="-637.7056" font-family="Times,serif" font-size="20.00" fill="#000000">text/html</text>
</g>
<!-- SG_0_Node_37 -->
<g id="node36" class="node">
<title>SG_0_Node_37</title>
<ellipse fill="none" stroke="#000000" cx="1472" cy="-518.4924" rx="34.7971" ry="21.4286"/>
<text text-anchor="middle" x="1472" y="-513.4924" font-family="Times,serif" font-size="20.00" fill="#000000">0.0</text>
</g>
<!-- SG_0_Node_17&#45;&gt;SG_0_Node_37 -->
<g id="edge17" class="edge">
<title>SG_0_Node_17&#45;&gt;SG_0_Node_37</title>
<path fill="none" stroke="#000000" d="M1480.8812,-770.7852C1488.8416,-759.8895 1497.8416,-745.3362 1502,-730.7056 1520.7127,-664.8689 1518.1314,-643.2219 1502,-576.7056 1499.5538,-566.6188 1495.0373,-556.3234 1490.2382,-547.2508"/>
<polygon fill="#000000" stroke="#000000" points="1493.1587,-545.3033 1485.2096,-538.2988 1487.0556,-548.7316 1493.1587,-545.3033"/>
<text text-anchor="middle" x="1521.5" y="-648.7056" font-family="Times,serif" font-size="20.00" fill="#000000">1</text>
</g>
<!-- SG_0_Node_38 -->
<g id="node37" class="node">
<title>SG_0_Node_38</title>
<ellipse fill="none" stroke="#000000" cx="1559" cy="-518.4924" rx="34.7971" ry="21.4286"/>
<text text-anchor="middle" x="1559" y="-513.4924" font-family="Times,serif" font-size="20.00" fill="#000000">1.0</text>
</g>
<!-- SG_0_Node_17&#45;&gt;SG_0_Node_38 -->
<g id="edge18" class="edge">
<title>SG_0_Node_17&#45;&gt;SG_0_Node_38</title>
<path fill="none" stroke="#000000" d="M1494.8214,-770.8035C1508.377,-760.7095 1523.4155,-746.906 1532,-730.7056 1562.7796,-672.6197 1563.9039,-593.4088 1561.6667,-550.0523"/>
<polygon fill="#000000" stroke="#000000" points="1565.1459,-549.6041 1561.0415,-539.8366 1558.159,-550.0318 1565.1459,-549.6041"/>
<text text-anchor="middle" x="1587" y="-670.7056" font-family="Times,serif" font-size="20.00" fill="#000000">[NA]</text>
<text text-anchor="middle" x="1587" y="-648.7056" font-family="Times,serif" font-size="20.00" fill="#000000">2</text>
<text text-anchor="middle" x="1587" y="-626.7056" font-family="Times,serif" font-size="20.00" fill="#000000">3</text>
</g>
<!-- SG_0_Node_39 -->
<g id="node38" class="node">
<title>SG_0_Node_39</title>
<ellipse fill="none" stroke="#000000" cx="1646" cy="-518.4924" rx="34.7971" ry="21.4286"/>
<text text-anchor="middle" x="1646" y="-513.4924" font-family="Times,serif" font-size="20.00" fill="#000000">0.0</text>
</g>
<!-- SG_0_Node_18&#45;&gt;SG_0_Node_39 -->
<g id="edge13" class="edge">
<title>SG_0_Node_18&#45;&gt;SG_0_Node_39</title>
<path fill="none" stroke="#000000" d="M1623.5837,-770.7531C1628.4681,-759.4901 1634.1624,-744.5716 1637,-730.7056 1649.9222,-667.5611 1649.3944,-591.717 1647.759,-549.9498"/>
<polygon fill="#000000" stroke="#000000" points="1651.2508,-549.6845 1647.3148,-539.8479 1644.2575,-549.992 1651.2508,-549.6845"/>
<text text-anchor="middle" x="1654.5" y="-648.7056" font-family="Times,serif" font-size="20.00" fill="#000000">1</text>
</g>
<!-- SG_0_Node_40 -->
<g id="node39" class="node">
<title>SG_0_Node_40</title>
<ellipse fill="none" stroke="#000000" cx="1733" cy="-518.4924" rx="34.7971" ry="21.4286"/>
<text text-anchor="middle" x="1733" y="-513.4924" font-family="Times,serif" font-size="20.00" fill="#000000">1.0</text>
</g>
<!-- SG_0_Node_18&#45;&gt;SG_0_Node_40 -->
<g id="edge14" class="edge">
<title>SG_0_Node_18&#45;&gt;SG_0_Node_40</title>
<path fill="none" stroke="#000000" d="M1634.0024,-770.7206C1644.3721,-759.9155 1656.7421,-745.4733 1665,-730.7056 1698.4049,-670.9673 1718.1148,-592.448 1727.1047,-549.6349"/>
<polygon fill="#000000" stroke="#000000" points="1730.5407,-550.3016 1729.1114,-539.8036 1723.6821,-548.9016 1730.5407,-550.3016"/>
<text text-anchor="middle" x="1745" y="-670.7056" font-family="Times,serif" font-size="20.00" fill="#000000">[NA]</text>
<text text-anchor="middle" x="1745" y="-648.7056" font-family="Times,serif" font-size="20.00" fill="#000000">2</text>
<text text-anchor="middle" x="1745" y="-626.7056" font-family="Times,serif" font-size="20.00" fill="#000000">3</text>
</g>
<!-- SG_0_Node_41 -->
<g id="node40" class="node">
<title>SG_0_Node_41</title>
<ellipse fill="none" stroke="#000000" cx="1268" cy="-336.066" rx="34.7971" ry="21.4286"/>
<text text-anchor="middle" x="1268" y="-331.066" font-family="Times,serif" font-size="20.00" fill="#000000">0.0</text>
</g>
<!-- SG_0_Node_19&#45;&gt;SG_0_Node_41 -->
<g id="edge21" class="edge">
<title>SG_0_Node_19&#45;&gt;SG_0_Node_41</title>
<path fill="none" stroke="#000000" d="M1336.435,-500.3337C1323.3725,-468.9793 1296.4633,-404.3879 1280.5568,-366.2068"/>
<polygon fill="#000000" stroke="#000000" points="1283.6505,-364.5313 1276.5739,-356.6463 1277.1888,-367.2233 1283.6505,-364.5313"/>
<text text-anchor="middle" x="1325.5" y="-422.2792" font-family="Times,serif" font-size="20.00" fill="#000000">1</text>
</g>
<!-- SG_0_Node_20 -->
<g id="node41" class="node">
<title>SG_0_Node_20</title>
<polygon fill="none" stroke="#000000" points="1583,-354.066 1321,-354.066 1321,-318.066 1583,-318.066 1583,-354.066"/>
<text text-anchor="middle" x="1452" y="-331.066" font-family="Times,serif" font-size="20.00" fill="#000000">X&#45;Content&#45;Type&#45;Options</text>
</g>
<!-- SG_0_Node_19&#45;&gt;SG_0_Node_20 -->
<g id="edge22" class="edge">
<title>SG_0_Node_19&#45;&gt;SG_0_Node_20</title>
<path fill="none" stroke="#000000" d="M1354.7503,-500.3337C1373.8344,-468.0981 1413.717,-400.7312 1436.0239,-363.0517"/>
<polygon fill="#000000" stroke="#000000" points="1439.2105,-364.5394 1441.2932,-354.1513 1433.187,-360.9733 1439.2105,-364.5394"/>
<text text-anchor="middle" x="1442" y="-444.2792" font-family="Times,serif" font-size="20.00" fill="#000000">[NA]</text>
<text text-anchor="middle" x="1442" y="-422.2792" font-family="Times,serif" font-size="20.00" fill="#000000">2</text>
<text text-anchor="middle" x="1442" y="-400.2792" font-family="Times,serif" font-size="20.00" fill="#000000">3</text>
</g>
<!-- SG_0_Node_21 -->
<g id="node42" class="node">
<title>SG_0_Node_21</title>
<polygon fill="none" stroke="#000000" points="1468.5,-193.6396 1313.5,-193.6396 1313.5,-157.6396 1468.5,-157.6396 1468.5,-193.6396"/>
<text text-anchor="middle" x="1391" y="-170.6396" font-family="Times,serif" font-size="20.00" fill="#000000">Content&#45;Type</text>
</g>
<!-- SG_0_Node_20&#45;&gt;SG_0_Node_21 -->
<g id="edge23" class="edge">
<title>SG_0_Node_20&#45;&gt;SG_0_Node_21</title>
<path fill="none" stroke="#000000" d="M1440.6661,-317.979C1433.9823,-306.7449 1425.7374,-291.8289 1420,-277.8528 1409.9925,-253.4748 1402.1231,-224.4732 1397.122,-203.6006"/>
<polygon fill="#000000" stroke="#000000" points="1400.512,-202.7254 1394.8364,-193.7789 1393.6941,-204.312 1400.512,-202.7254"/>
<text text-anchor="middle" x="1452" y="-250.8528" font-family="Times,serif" font-size="20.00" fill="#000000">empty</text>
</g>
<!-- SG_0_Node_42 -->
<g id="node43" class="node">
<title>SG_0_Node_42</title>
<ellipse fill="none" stroke="#000000" cx="1521" cy="-175.6396" rx="34.7971" ry="21.4286"/>
<text text-anchor="middle" x="1521" y="-170.6396" font-family="Times,serif" font-size="20.00" fill="#000000">1.0</text>
</g>
<!-- SG_0_Node_20&#45;&gt;SG_0_Node_42 -->
<g id="edge24" class="edge">
<title>SG_0_Node_20&#45;&gt;SG_0_Node_42</title>
<path fill="none" stroke="#000000" d="M1462.9824,-317.8274C1469.5378,-306.5378 1477.7712,-291.6169 1484,-277.8528 1494.5834,-254.4662 1504.3657,-227.0759 1511.2104,-206.5386"/>
<polygon fill="#000000" stroke="#000000" points="1514.6241,-207.3613 1514.4178,-196.7685 1507.9733,-205.1779 1514.6241,-207.3613"/>
<text text-anchor="middle" x="1536" y="-261.8528" font-family="Times,serif" font-size="20.00" fill="#000000">[NA]</text>
<text text-anchor="middle" x="1536" y="-239.8528" font-family="Times,serif" font-size="20.00" fill="#000000">nosniff</text>
</g>
<!-- SG_0_Node_43 -->
<g id="node44" class="node">
<title>SG_0_Node_43</title>
<ellipse fill="none" stroke="#000000" cx="1326" cy="-37.2132" rx="34.7971" ry="21.4286"/>
<text text-anchor="middle" x="1326" y="-32.2132" font-family="Times,serif" font-size="20.00" fill="#000000">0.0</text>
</g>
<!-- SG_0_Node_21&#45;&gt;SG_0_Node_43 -->
<g id="edge25" class="edge">
<title>SG_0_Node_21&#45;&gt;SG_0_Node_43</title>
<path fill="none" stroke="#000000" d="M1370.2965,-157.4126C1359.5759,-146.8123 1347.2467,-132.5781 1340,-117.4264 1332.7646,-102.2983 1329.2285,-83.9669 1327.5171,-68.6492"/>
<polygon fill="#000000" stroke="#000000" points="1330.9947,-68.2432 1326.6007,-58.6025 1324.0236,-68.8792 1330.9947,-68.2432"/>
<text text-anchor="middle" x="1387" y="-101.4264" font-family="Times,serif" font-size="20.00" fill="#000000">text/html</text>
</g>
<!-- SG_0_Node_44 -->
<g id="node45" class="node">
<title>SG_0_Node_44</title>
<ellipse fill="none" stroke="#000000" cx="1456" cy="-37.2132" rx="34.7971" ry="21.4286"/>
<text text-anchor="middle" x="1456" y="-32.2132" font-family="Times,serif" font-size="20.00" fill="#000000">1.0</text>
</g>
<!-- SG_0_Node_21&#45;&gt;SG_0_Node_44 -->
<g id="edge26" class="edge">
<title>SG_0_Node_21&#45;&gt;SG_0_Node_44</title>
<path fill="none" stroke="#000000" d="M1407.2323,-157.384C1416.2264,-146.4478 1426.9764,-131.8945 1434,-117.4264 1441.4808,-102.0166 1446.7526,-83.6645 1450.2562,-68.4058"/>
<polygon fill="#000000" stroke="#000000" points="1453.725,-68.9227 1452.4048,-58.4105 1446.8813,-67.4516 1453.725,-68.9227"/>
<text text-anchor="middle" x="1519" y="-101.4264" font-family="Times,serif" font-size="20.00" fill="#000000">application/pdf</text>
</g>
</g>
</svg>
