<?xml version="1.0" encoding="UTF-8" standalone="no"?>
<!DOCTYPE svg PUBLIC "-//W3C//DTD SVG 1.1//EN"
 "http://www.w3.org/Graphics/SVG/1.1/DTD/svg11.dtd">
<!-- Generated by graphviz version 2.40.1 (20161225.0304)
 -->
<!-- Title: G Pages: 1 -->
<svg width="917pt" height="1741pt"
 viewBox="0.00 0.00 917.00 1741.41" xmlns="http://www.w3.org/2000/svg" xmlns:xlink="http://www.w3.org/1999/xlink">
<g id="graph0" class="graph" transform="scale(1 1) rotate(0) translate(4 1737.4113)">
<title>G</title>
<polygon fill="#ffffff" stroke="transparent" points="-4,4 -4,-1737.4113 913,-1737.4113 913,4 -4,4"/>
<g id="clust1" class="cluster">
<title>cluster_0</title>
<polygon fill="none" stroke="#000000" points="8,-8 8,-1725.4113 893,-1725.4113 893,-8 8,-8"/>
<text text-anchor="middle" x="450.5" y="-1689.4113" font-family="Times,serif" font-size="40.00" fill="#000000">Tree 0, Class False</text>
</g>
<!-- SG_0_Node_0 -->
<g id="node1" class="node">
<title>SG_0_Node_0</title>
<polygon fill="none" stroke="#000000" points="176,-1665.4113 34,-1665.4113 34,-1629.4113 176,-1629.4113 176,-1665.4113"/>
<text text-anchor="middle" x="105" y="-1642.4113" font-family="Times,serif" font-size="20.00" fill="#000000">Status&#45;Code</text>
</g>
<!-- SG_0_Node_1 -->
<g id="node2" class="node">
<title>SG_0_Node_1</title>
<polygon fill="none" stroke="#000000" points="109.5,-1508.1981 44.5,-1508.1981 44.5,-1472.1981 109.5,-1472.1981 109.5,-1508.1981"/>
<text text-anchor="middle" x="77" y="-1485.1981" font-family="Times,serif" font-size="20.00" fill="#000000">body</text>
</g>
<!-- SG_0_Node_0&#45;&gt;SG_0_Node_1 -->
<g id="edge1" class="edge">
<title>SG_0_Node_0&#45;&gt;SG_0_Node_1</title>
<path fill="none" stroke="#000000" d="M101.788,-1629.3769C96.9613,-1602.2759 87.7936,-1550.8017 82.0617,-1518.6182"/>
<polygon fill="#000000" stroke="#000000" points="85.46,-1517.7377 80.2607,-1508.5063 78.5685,-1518.9651 85.46,-1517.7377"/>
<text text-anchor="middle" x="114.5" y="-1576.4113" font-family="Times,serif" font-size="20.00" fill="#000000">202</text>
<text text-anchor="middle" x="114.5" y="-1554.4113" font-family="Times,serif" font-size="20.00" fill="#000000">204</text>
</g>
<!-- SG_0_Node_9 -->
<g id="node3" class="node">
<title>SG_0_Node_9</title>
<ellipse fill="none" stroke="#000000" cx="162" cy="-1490.1981" rx="34.7971" ry="21.4286"/>
<text text-anchor="middle" x="162" y="-1485.1981" font-family="Times,serif" font-size="20.00" fill="#000000">1.0</text>
</g>
<!-- SG_0_Node_0&#45;&gt;SG_0_Node_9 -->
<g id="edge2" class="edge">
<title>SG_0_Node_0&#45;&gt;SG_0_Node_9</title>
<path fill="none" stroke="#000000" d="M117.3467,-1629.2533C123.9596,-1618.8454 131.7929,-1605.3201 137,-1592.4113 146.2531,-1569.472 152.7116,-1542.2053 156.7433,-1521.6056"/>
<polygon fill="#000000" stroke="#000000" points="160.2353,-1521.972 158.6323,-1511.4992 153.3545,-1520.6859 160.2353,-1521.972"/>
<text text-anchor="middle" x="196" y="-1576.4113" font-family="Times,serif" font-size="20.00" fill="#000000">[NA]</text>
<text text-anchor="middle" x="196" y="-1554.4113" font-family="Times,serif" font-size="20.00" fill="#000000">61 levels</text>
</g>
<!-- SG_0_Node_2 -->
<g id="node4" class="node">
<title>SG_0_Node_2</title>
<polygon fill="none" stroke="#000000" points="228.5,-1149.7716 73.5,-1149.7716 73.5,-1113.7716 228.5,-1113.7716 228.5,-1149.7716"/>
<text text-anchor="middle" x="151" y="-1126.7716" font-family="Times,serif" font-size="20.00" fill="#000000">Content&#45;Type</text>
</g>
<!-- SG_0_Node_1&#45;&gt;SG_0_Node_2 -->
<g id="edge3" class="edge">
<title>SG_0_Node_1&#45;&gt;SG_0_Node_2</title>
<path fill="none" stroke="#000000" d="M65.2831,-1472.1575C58.7877,-1461.0615 51.3619,-1446.2731 48,-1431.9848 23.3655,-1327.2884 -6.2047,-1282.8829 48,-1189.9848 56.8697,-1174.7836 71.3406,-1163.2368 86.6696,-1154.601"/>
<polygon fill="#000000" stroke="#000000" points="88.5194,-1157.5834 95.7583,-1149.8472 85.2751,-1151.3806 88.5194,-1157.5834"/>
<text text-anchor="middle" x="182.5" y="-1316.9848" font-family="Times,serif" font-size="20.00" fill="#000000">ecocnt_audio=duration=1</text>
<text text-anchor="middle" x="182.5" y="-1294.9848" font-family="Times,serif" font-size="20.00" fill="#000000">ecocnt_js=var a=5;</text>
</g>
<!-- SG_0_Node_10 -->
<g id="node5" class="node">
<title>SG_0_Node_10</title>
<ellipse fill="none" stroke="#000000" cx="339" cy="-1131.7716" rx="34.7971" ry="21.4286"/>
<text text-anchor="middle" x="339" y="-1126.7716" font-family="Times,serif" font-size="20.00" fill="#000000">1.0</text>
</g>
<!-- SG_0_Node_1&#45;&gt;SG_0_Node_10 -->
<g id="edge4" class="edge">
<title>SG_0_Node_1&#45;&gt;SG_0_Node_10</title>
<path fill="none" stroke="#000000" d="M109.7496,-1472.2007C112.4989,-1471.0143 115.2711,-1469.9215 118,-1468.9848 203.0872,-1439.7787 257.0044,-1499.0174 317,-1431.9848 384.566,-1356.4939 362.417,-1223.1783 347.6834,-1162.906"/>
<polygon fill="#000000" stroke="#000000" points="350.9874,-1161.6967 345.1308,-1152.8678 344.2033,-1163.4219 350.9874,-1161.6967"/>
<text text-anchor="middle" x="636" y="-1415.9848" font-family="Times,serif" font-size="20.00" fill="#000000">[NA]</text>
<text text-anchor="middle" x="636" y="-1393.9848" font-family="Times,serif" font-size="20.00" fill="#000000">ecocnt_css=h1 {color: blue}</text>
<text text-anchor="middle" x="636" y="-1371.9848" font-family="Times,serif" font-size="20.00" fill="#000000">ecocnt_html=meta_refresh=0;http://172.17.0.1:8000</text>
<text text-anchor="middle" x="636" y="-1349.9848" font-family="Times,serif" font-size="20.00" fill="#000000">ecocnt_html=num_frames=1,input_id=test1</text>
<text text-anchor="middle" x="636" y="-1327.9848" font-family="Times,serif" font-size="20.00" fill="#000000">ecocnt_html=num_frames=2</text>
<text text-anchor="middle" x="636" y="-1305.9848" font-family="Times,serif" font-size="20.00" fill="#000000">ecocnt_html=post_message=mes1</text>
<text text-anchor="middle" x="636" y="-1283.9848" font-family="Times,serif" font-size="20.00" fill="#000000">ecocnt_img=width=50,height=50,type=png</text>
<text text-anchor="middle" x="636" y="-1261.9848" font-family="Times,serif" font-size="20.00" fill="#000000">ecocnt_js=.,,.</text>
<text text-anchor="middle" x="636" y="-1239.9848" font-family="Times,serif" font-size="20.00" fill="#000000">ecocnt_pdf=a=a</text>
<text text-anchor="middle" x="636" y="-1217.9848" font-family="Times,serif" font-size="20.00" fill="#000000">ecocnt_vid=width=100,height=100,duration=2</text>
<text text-anchor="middle" x="636" y="-1195.9848" font-family="Times,serif" font-size="20.00" fill="#000000">empty</text>
</g>
<!-- SG_0_Node_3 -->
<g id="node6" class="node">
<title>SG_0_Node_3</title>
<polygon fill="none" stroke="#000000" points="230.5,-879.3452 99.5,-879.3452 99.5,-843.3452 230.5,-843.3452 230.5,-879.3452"/>
<text text-anchor="middle" x="165" y="-856.3452" font-family="Times,serif" font-size="20.00" fill="#000000">browser_id</text>
</g>
<!-- SG_0_Node_2&#45;&gt;SG_0_Node_3 -->
<g id="edge5" class="edge">
<title>SG_0_Node_2&#45;&gt;SG_0_Node_3</title>
<path fill="none" stroke="#000000" d="M151.9403,-1113.6083C154.3313,-1067.423 160.6572,-945.2312 163.5361,-889.6215"/>
<polygon fill="#000000" stroke="#000000" points="167.042,-889.5971 164.0638,-879.4295 160.0514,-889.2352 167.042,-889.5971"/>
<text text-anchor="middle" x="215.5" y="-1002.5584" font-family="Times,serif" font-size="20.00" fill="#000000">image/png</text>
<text text-anchor="middle" x="215.5" y="-980.5584" font-family="Times,serif" font-size="20.00" fill="#000000">text/html</text>
</g>
<!-- SG_0_Node_11 -->
<g id="node7" class="node">
<title>SG_0_Node_11</title>
<ellipse fill="none" stroke="#000000" cx="296" cy="-861.3452" rx="34.7971" ry="21.4286"/>
<text text-anchor="middle" x="296" y="-856.3452" font-family="Times,serif" font-size="20.00" fill="#000000">1.0</text>
</g>
<!-- SG_0_Node_2&#45;&gt;SG_0_Node_11 -->
<g id="edge6" class="edge">
<title>SG_0_Node_2&#45;&gt;SG_0_Node_11</title>
<path fill="none" stroke="#000000" d="M219.7253,-1113.67C240.3226,-1104.8834 260.8956,-1092.0694 274,-1073.5584 312.3386,-1019.4024 307.7941,-937.1256 301.6093,-892.6019"/>
<polygon fill="#000000" stroke="#000000" points="305.0617,-892.0228 300.1114,-882.6555 298.1397,-893.0652 305.0617,-892.0228"/>
<text text-anchor="middle" x="416" y="-1057.5584" font-family="Times,serif" font-size="20.00" fill="#000000">[NA]</text>
<text text-anchor="middle" x="416" y="-1035.5584" font-family="Times,serif" font-size="20.00" fill="#000000">application/javascript</text>
<text text-anchor="middle" x="416" y="-1013.5584" font-family="Times,serif" font-size="20.00" fill="#000000">application/pdf</text>
<text text-anchor="middle" x="416" y="-991.5584" font-family="Times,serif" font-size="20.00" fill="#000000">audio/wav</text>
<text text-anchor="middle" x="416" y="-969.5584" font-family="Times,serif" font-size="20.00" fill="#000000">empty</text>
<text text-anchor="middle" x="416" y="-947.5584" font-family="Times,serif" font-size="20.00" fill="#000000">text/css</text>
<text text-anchor="middle" x="416" y="-925.5584" font-family="Times,serif" font-size="20.00" fill="#000000">video/mp4</text>
</g>
<!-- SG_0_Node_4 -->
<g id="node8" class="node">
<title>SG_0_Node_4</title>
<polygon fill="none" stroke="#000000" points="260.5,-696.9188 69.5,-696.9188 69.5,-660.9188 260.5,-660.9188 260.5,-696.9188"/>
<text text-anchor="middle" x="165" y="-673.9188" font-family="Times,serif" font-size="20.00" fill="#000000">X&#45;Frame&#45;Options</text>
</g>
<!-- SG_0_Node_3&#45;&gt;SG_0_Node_4 -->
<g id="edge7" class="edge">
<title>SG_0_Node_3&#45;&gt;SG_0_Node_4</title>
<path fill="none" stroke="#000000" d="M165,-843.1866C165,-811.3607 165,-745.291 165,-707.3557"/>
<polygon fill="#000000" stroke="#000000" points="168.5001,-707.004 165,-697.0041 161.5001,-707.0041 168.5001,-707.004"/>
<text text-anchor="middle" x="171.5" y="-765.132" font-family="Times,serif" font-size="20.00" fill="#000000">2</text>
</g>
<!-- SG_0_Node_12 -->
<g id="node9" class="node">
<title>SG_0_Node_12</title>
<ellipse fill="none" stroke="#000000" cx="313" cy="-678.9188" rx="34.7971" ry="21.4286"/>
<text text-anchor="middle" x="313" y="-673.9188" font-family="Times,serif" font-size="20.00" fill="#000000">1.0</text>
</g>
<!-- SG_0_Node_3&#45;&gt;SG_0_Node_12 -->
<g id="edge8" class="edge">
<title>SG_0_Node_3&#45;&gt;SG_0_Node_12</title>
<path fill="none" stroke="#000000" d="M179.7319,-843.1866C205.8339,-811.0129 260.3281,-743.8428 290.9304,-706.1221"/>
<polygon fill="#000000" stroke="#000000" points="293.8589,-708.0677 297.4411,-698.0969 288.4228,-703.6575 293.8589,-708.0677"/>
<text text-anchor="middle" x="290" y="-787.132" font-family="Times,serif" font-size="20.00" fill="#000000">[NA]</text>
<text text-anchor="middle" x="290" y="-765.132" font-family="Times,serif" font-size="20.00" fill="#000000">1</text>
<text text-anchor="middle" x="290" y="-743.132" font-family="Times,serif" font-size="20.00" fill="#000000">3</text>
</g>
<!-- SG_0_Node_5 -->
<g id="node10" class="node">
<title>SG_0_Node_5</title>
<polygon fill="none" stroke="#000000" points="275.5,-536.4924 54.5,-536.4924 54.5,-500.4924 275.5,-500.4924 275.5,-536.4924"/>
<text text-anchor="middle" x="165" y="-513.4924" font-family="Times,serif" font-size="20.00" fill="#000000">Content&#45;Disposition</text>
</g>
<!-- SG_0_Node_4&#45;&gt;SG_0_Node_5 -->
<g id="edge9" class="edge">
<title>SG_0_Node_4&#45;&gt;SG_0_Node_5</title>
<path fill="none" stroke="#000000" d="M165,-660.8277C165,-633.1459 165,-580.0306 165,-547.0939"/>
<polygon fill="#000000" stroke="#000000" points="168.5001,-546.7635 165,-536.7636 161.5001,-546.7636 168.5001,-546.7635"/>
<text text-anchor="middle" x="197" y="-593.7056" font-family="Times,serif" font-size="20.00" fill="#000000">empty</text>
</g>
<!-- SG_0_Node_13 -->
<g id="node11" class="node">
<title>SG_0_Node_13</title>
<ellipse fill="none" stroke="#000000" cx="328" cy="-518.4924" rx="34.7971" ry="21.4286"/>
<text text-anchor="middle" x="328" y="-513.4924" font-family="Times,serif" font-size="20.00" fill="#000000">1.0</text>
</g>
<!-- SG_0_Node_4&#45;&gt;SG_0_Node_13 -->
<g id="edge10" class="edge">
<title>SG_0_Node_4&#45;&gt;SG_0_Node_13</title>
<path fill="none" stroke="#000000" d="M187.6115,-660.6622C201.1181,-649.4896 218.4258,-634.6966 233,-620.7056 258.57,-596.1588 285.9427,-566.2837 304.7055,-545.1886"/>
<polygon fill="#000000" stroke="#000000" points="307.4476,-547.3713 311.4533,-537.5629 302.2053,-542.7325 307.4476,-547.3713"/>
<text text-anchor="middle" x="300" y="-604.7056" font-family="Times,serif" font-size="20.00" fill="#000000">[NA]</text>
<text text-anchor="middle" x="300" y="-582.7056" font-family="Times,serif" font-size="20.00" fill="#000000">deny</text>
</g>
<!-- SG_0_Node_6 -->
<g id="node12" class="node">
<title>SG_0_Node_6</title>
<polygon fill="none" stroke="#000000" points="314,-376.066 16,-376.066 16,-340.066 314,-340.066 314,-376.066"/>
<text text-anchor="middle" x="165" y="-353.066" font-family="Times,serif" font-size="20.00" fill="#000000">Cross&#45;Origin&#45;Opener&#45;Policy</text>
</g>
<!-- SG_0_Node_5&#45;&gt;SG_0_Node_6 -->
<g id="edge11" class="edge">
<title>SG_0_Node_5&#45;&gt;SG_0_Node_6</title>
<path fill="none" stroke="#000000" d="M165,-500.4013C165,-472.7194 165,-419.6042 165,-386.6675"/>
<polygon fill="#000000" stroke="#000000" points="168.5001,-386.3371 165,-376.3371 161.5001,-386.3372 168.5001,-386.3371"/>
<text text-anchor="middle" x="224" y="-433.2792" font-family="Times,serif" font-size="20.00" fill="#000000">attachment</text>
</g>
<!-- SG_0_Node_14 -->
<g id="node13" class="node">
<title>SG_0_Node_14</title>
<ellipse fill="none" stroke="#000000" cx="367" cy="-358.066" rx="34.7971" ry="21.4286"/>
<text text-anchor="middle" x="367" y="-353.066" font-family="Times,serif" font-size="20.00" fill="#000000">1.0</text>
</g>
<!-- SG_0_Node_5&#45;&gt;SG_0_Node_14 -->
<g id="edge12" class="edge">
<title>SG_0_Node_5&#45;&gt;SG_0_Node_14</title>
<path fill="none" stroke="#000000" d="M215.7993,-500.4601C238.9557,-490.7436 265.8546,-477.2378 287,-460.2792 312.6479,-439.7097 335.0458,-409.3867 349.5677,-387.1086"/>
<polygon fill="#000000" stroke="#000000" points="352.6908,-388.7202 355.1094,-378.4051 346.7861,-384.9605 352.6908,-388.7202"/>
<text text-anchor="middle" x="360" y="-444.2792" font-family="Times,serif" font-size="20.00" fill="#000000">[NA]</text>
<text text-anchor="middle" x="360" y="-422.2792" font-family="Times,serif" font-size="20.00" fill="#000000">empty</text>
</g>
<!-- SG_0_Node_7 -->
<g id="node14" class="node">
<title>SG_0_Node_7</title>
<polygon fill="none" stroke="#000000" points="169.5,-215.6396 64.5,-215.6396 64.5,-179.6396 169.5,-179.6396 169.5,-215.6396"/>
<text text-anchor="middle" x="117" y="-192.6396" font-family="Times,serif" font-size="20.00" fill="#000000">Location</text>
</g>
<!-- SG_0_Node_6&#45;&gt;SG_0_Node_7 -->
<g id="edge13" class="edge">
<title>SG_0_Node_6&#45;&gt;SG_0_Node_7</title>
<path fill="none" stroke="#000000" d="M151.8364,-339.8378C144.5211,-328.7948 135.9263,-314.1247 131,-299.8528 122.6891,-275.7754 119.2915,-246.9062 117.9131,-225.9992"/>
<polygon fill="#000000" stroke="#000000" points="121.3996,-225.6544 117.361,-215.8595 114.4099,-226.0351 121.3996,-225.6544"/>
<text text-anchor="middle" x="192" y="-272.8528" font-family="Times,serif" font-size="20.00" fill="#000000">same&#45;origin</text>
</g>
<!-- SG_0_Node_15 -->
<g id="node15" class="node">
<title>SG_0_Node_15</title>
<ellipse fill="none" stroke="#000000" cx="275" cy="-197.6396" rx="34.7971" ry="21.4286"/>
<text text-anchor="middle" x="275" y="-192.6396" font-family="Times,serif" font-size="20.00" fill="#000000">1.0</text>
</g>
<!-- SG_0_Node_6&#45;&gt;SG_0_Node_15 -->
<g id="edge14" class="edge">
<title>SG_0_Node_6&#45;&gt;SG_0_Node_15</title>
<path fill="none" stroke="#000000" d="M205.7713,-339.8673C222.8123,-330.2916 241.3262,-316.9463 253,-299.8528 267.1871,-279.0793 272.4611,-250.8426 274.3146,-229.311"/>
<polygon fill="#000000" stroke="#000000" points="277.8262,-229.2478 274.9876,-219.0403 270.8412,-228.79 277.8262,-229.2478"/>
<text text-anchor="middle" x="302" y="-283.8528" font-family="Times,serif" font-size="20.00" fill="#000000">[NA]</text>
<text text-anchor="middle" x="302" y="-261.8528" font-family="Times,serif" font-size="20.00" fill="#000000">empty</text>
</g>
<!-- SG_0_Node_16 -->
<g id="node16" class="node">
<title>SG_0_Node_16</title>
<ellipse fill="none" stroke="#000000" cx="92" cy="-37.2132" rx="52.1524" ry="21.4286"/>
<text text-anchor="middle" x="92" y="-32.2132" font-family="Times,serif" font-size="20.00" fill="#000000">0.938</text>
</g>
<!-- SG_0_Node_7&#45;&gt;SG_0_Node_16 -->
<g id="edge15" class="edge">
<title>SG_0_Node_7&#45;&gt;SG_0_Node_16</title>
<path fill="none" stroke="#000000" d="M114.1808,-179.5485C109.9865,-152.6336 102.0454,-101.6751 96.8908,-68.5978"/>
<polygon fill="#000000" stroke="#000000" points="100.3215,-67.8817 95.3234,-58.5399 93.405,-68.9596 100.3215,-67.8817"/>
<text text-anchor="middle" x="139" y="-112.4264" font-family="Times,serif" font-size="20.00" fill="#000000">empty</text>
</g>
<!-- SG_0_Node_17 -->
<g id="node17" class="node">
<title>SG_0_Node_17</title>
<ellipse fill="none" stroke="#000000" cx="197" cy="-37.2132" rx="34.7971" ry="21.4286"/>
<text text-anchor="middle" x="197" y="-32.2132" font-family="Times,serif" font-size="20.00" fill="#000000">1.0</text>
</g>
<!-- SG_0_Node_7&#45;&gt;SG_0_Node_17 -->
<g id="edge16" class="edge">
<title>SG_0_Node_7&#45;&gt;SG_0_Node_17</title>
<path fill="none" stroke="#000000" d="M139.4025,-179.6058C151.0739,-169.0641 164.6217,-154.8241 173,-139.4264 184.9247,-117.5111 190.9588,-89.811 193.9924,-68.7768"/>
<polygon fill="#000000" stroke="#000000" points="197.478,-69.1123 195.2869,-58.7466 190.5356,-68.2163 197.478,-69.1123"/>
<text text-anchor="middle" x="303" y="-123.4264" font-family="Times,serif" font-size="20.00" fill="#000000">[NA]</text>
<text text-anchor="middle" x="303" y="-101.4264" font-family="Times,serif" font-size="20.00" fill="#000000">http://172.17.0.1:8000</text>
</g>
</g>
</svg>
