<?xml version="1.0" encoding="UTF-8" standalone="no"?>
<!DOCTYPE svg PUBLIC "-//W3C//DTD SVG 1.1//EN"
 "http://www.w3.org/Graphics/SVG/1.1/DTD/svg11.dtd">
<!-- Generated by graphviz version 2.40.1 (20161225.0304)
 -->
<!-- Title: G Pages: 1 -->
<svg width="1348pt" height="2100pt"
 viewBox="0.00 0.00 1348.00 2099.84" xmlns="http://www.w3.org/2000/svg" xmlns:xlink="http://www.w3.org/1999/xlink">
<g id="graph0" class="graph" transform="scale(1 1) rotate(0) translate(4 2095.8377)">
<title>G</title>
<polygon fill="#ffffff" stroke="transparent" points="-4,4 -4,-2095.8377 1344,-2095.8377 1344,4 -4,4"/>
<g id="clust1" class="cluster">
<title>cluster_0</title>
<polygon fill="none" stroke="#000000" points="8,-8 8,-2083.8377 1332,-2083.8377 1332,-8 8,-8"/>
<text text-anchor="middle" x="670" y="-2047.8377" font-family="Times,serif" font-size="40.00" fill="#000000">Tree 0, Class [&#39;Message: mes1 Origin: https://172.17.0.1:44300&#39;]</text>
</g>
<!-- SG_0_Node_0 -->
<g id="node1" class="node">
<title>SG_0_Node_0</title>
<polygon fill="none" stroke="#000000" points="211.5,-2023.8377 146.5,-2023.8377 146.5,-1987.8377 211.5,-1987.8377 211.5,-2023.8377"/>
<text text-anchor="middle" x="179" y="-2000.8377" font-family="Times,serif" font-size="20.00" fill="#000000">body</text>
</g>
<!-- SG_0_Node_14 -->
<g id="node2" class="node">
<title>SG_0_Node_14</title>
<ellipse fill="none" stroke="#000000" cx="115" cy="-1848.6245" rx="34.7971" ry="21.4286"/>
<text text-anchor="middle" x="115" y="-1843.6245" font-family="Times,serif" font-size="20.00" fill="#000000">0.0</text>
</g>
<!-- SG_0_Node_0&#45;&gt;SG_0_Node_14 -->
<g id="edge1" class="edge">
<title>SG_0_Node_0&#45;&gt;SG_0_Node_14</title>
<path fill="none" stroke="#000000" d="M157.7021,-1987.5365C147.6635,-1977.6974 136.4912,-1964.7433 130,-1950.8377 119.6634,-1928.6944 116.0807,-1901.1682 114.9906,-1880.2613"/>
<polygon fill="#000000" stroke="#000000" points="118.4788,-1879.8645 114.6252,-1869.9953 111.4832,-1880.1135 118.4788,-1879.8645"/>
<text text-anchor="middle" x="176" y="-1934.8377" font-family="Times,serif" font-size="20.00" fill="#000000">[NA]</text>
<text text-anchor="middle" x="176" y="-1912.8377" font-family="Times,serif" font-size="20.00" fill="#000000">11 levels</text>
</g>
<!-- SG_0_Node_1 -->
<g id="node3" class="node">
<title>SG_0_Node_1</title>
<polygon fill="none" stroke="#000000" points="322.5,-1866.6245 167.5,-1866.6245 167.5,-1830.6245 322.5,-1830.6245 322.5,-1866.6245"/>
<text text-anchor="middle" x="245" y="-1843.6245" font-family="Times,serif" font-size="20.00" fill="#000000">Content&#45;Type</text>
</g>
<!-- SG_0_Node_0&#45;&gt;SG_0_Node_1 -->
<g id="edge2" class="edge">
<title>SG_0_Node_0&#45;&gt;SG_0_Node_1</title>
<path fill="none" stroke="#000000" d="M196.8067,-1987.3894C205.6064,-1977.3183 215.6689,-1964.2008 222,-1950.8377 233.1923,-1927.2138 239.0668,-1897.9002 242.0668,-1876.7308"/>
<polygon fill="#000000" stroke="#000000" points="245.5441,-1877.1311 243.3531,-1866.7653 238.6017,-1876.235 245.5441,-1877.1311"/>
<text text-anchor="middle" x="415" y="-1923.8377" font-family="Times,serif" font-size="20.00" fill="#000000">ecocnt_html=post_message=mes1</text>
</g>
<!-- SG_0_Node_15 -->
<g id="node4" class="node">
<title>SG_0_Node_15</title>
<ellipse fill="none" stroke="#000000" cx="52" cy="-1578.1981" rx="34.7971" ry="21.4286"/>
<text text-anchor="middle" x="52" y="-1573.1981" font-family="Times,serif" font-size="20.00" fill="#000000">0.0</text>
</g>
<!-- SG_0_Node_1&#45;&gt;SG_0_Node_15 -->
<g id="edge3" class="edge">
<title>SG_0_Node_1&#45;&gt;SG_0_Node_15</title>
<path fill="none" stroke="#000000" d="M178.616,-1830.6197C124.373,-1815.5928 55.998,-1795.793 52,-1790.4113 12.3556,-1737.045 28.5987,-1653.4767 41.64,-1608.7967"/>
<polygon fill="#000000" stroke="#000000" points="45.0291,-1609.6824 44.6014,-1599.0962 38.3341,-1607.6386 45.0291,-1609.6824"/>
<text text-anchor="middle" x="163" y="-1774.4113" font-family="Times,serif" font-size="20.00" fill="#000000">[NA]</text>
<text text-anchor="middle" x="163" y="-1752.4113" font-family="Times,serif" font-size="20.00" fill="#000000">application/javascript</text>
<text text-anchor="middle" x="163" y="-1730.4113" font-family="Times,serif" font-size="20.00" fill="#000000">application/pdf</text>
<text text-anchor="middle" x="163" y="-1708.4113" font-family="Times,serif" font-size="20.00" fill="#000000">audio/wav</text>
<text text-anchor="middle" x="163" y="-1686.4113" font-family="Times,serif" font-size="20.00" fill="#000000">image/png</text>
<text text-anchor="middle" x="163" y="-1664.4113" font-family="Times,serif" font-size="20.00" fill="#000000">text/css</text>
<text text-anchor="middle" x="163" y="-1642.4113" font-family="Times,serif" font-size="20.00" fill="#000000">video/mp4</text>
</g>
<!-- SG_0_Node_2 -->
<g id="node5" class="node">
<title>SG_0_Node_2</title>
<polygon fill="none" stroke="#000000" points="405.5,-1596.1981 214.5,-1596.1981 214.5,-1560.1981 405.5,-1560.1981 405.5,-1596.1981"/>
<text text-anchor="middle" x="310" y="-1573.1981" font-family="Times,serif" font-size="20.00" fill="#000000">X&#45;Frame&#45;Options</text>
</g>
<!-- SG_0_Node_1&#45;&gt;SG_0_Node_2 -->
<g id="edge4" class="edge">
<title>SG_0_Node_1&#45;&gt;SG_0_Node_2</title>
<path fill="none" stroke="#000000" d="M257.5288,-1830.5739C264.635,-1819.4744 273.0677,-1804.6858 278,-1790.4113 299.8933,-1727.0498 306.8191,-1647.9278 309.002,-1606.4966"/>
<polygon fill="#000000" stroke="#000000" points="312.5064,-1606.4843 309.4809,-1596.3307 305.5141,-1606.1549 312.5064,-1606.4843"/>
<text text-anchor="middle" x="353" y="-1719.4113" font-family="Times,serif" font-size="20.00" fill="#000000">empty</text>
<text text-anchor="middle" x="353" y="-1697.4113" font-family="Times,serif" font-size="20.00" fill="#000000">text/html</text>
</g>
<!-- SG_0_Node_16 -->
<g id="node6" class="node">
<title>SG_0_Node_16</title>
<ellipse fill="none" stroke="#000000" cx="164" cy="-1417.7716" rx="34.7971" ry="21.4286"/>
<text text-anchor="middle" x="164" y="-1412.7716" font-family="Times,serif" font-size="20.00" fill="#000000">0.0</text>
</g>
<!-- SG_0_Node_2&#45;&gt;SG_0_Node_16 -->
<g id="edge5" class="edge">
<title>SG_0_Node_2&#45;&gt;SG_0_Node_16</title>
<path fill="none" stroke="#000000" d="M293.5357,-1560.107C267.7145,-1531.7343 217.5775,-1476.6431 187.8205,-1443.9459"/>
<polygon fill="#000000" stroke="#000000" points="190.399,-1441.5791 181.0797,-1436.539 185.2219,-1446.2906 190.399,-1441.5791"/>
<text text-anchor="middle" x="281" y="-1503.9848" font-family="Times,serif" font-size="20.00" fill="#000000">[NA]</text>
<text text-anchor="middle" x="281" y="-1481.9848" font-family="Times,serif" font-size="20.00" fill="#000000">deny</text>
</g>
<!-- SG_0_Node_3 -->
<g id="node7" class="node">
<title>SG_0_Node_3</title>
<polygon fill="none" stroke="#000000" points="437.5,-1435.7716 216.5,-1435.7716 216.5,-1399.7716 437.5,-1399.7716 437.5,-1435.7716"/>
<text text-anchor="middle" x="327" y="-1412.7716" font-family="Times,serif" font-size="20.00" fill="#000000">Content&#45;Disposition</text>
</g>
<!-- SG_0_Node_2&#45;&gt;SG_0_Node_3 -->
<g id="edge6" class="edge">
<title>SG_0_Node_2&#45;&gt;SG_0_Node_3</title>
<path fill="none" stroke="#000000" d="M311.9171,-1560.107C314.8505,-1532.4251 320.4789,-1479.3098 323.9692,-1446.3731"/>
<polygon fill="#000000" stroke="#000000" points="327.4905,-1446.3559 325.0639,-1436.0428 320.5295,-1445.6182 327.4905,-1446.3559"/>
<text text-anchor="middle" x="352" y="-1492.9848" font-family="Times,serif" font-size="20.00" fill="#000000">empty</text>
</g>
<!-- SG_0_Node_17 -->
<g id="node8" class="node">
<title>SG_0_Node_17</title>
<ellipse fill="none" stroke="#000000" cx="190" cy="-1257.3452" rx="34.7971" ry="21.4286"/>
<text text-anchor="middle" x="190" y="-1252.3452" font-family="Times,serif" font-size="20.00" fill="#000000">0.0</text>
</g>
<!-- SG_0_Node_3&#45;&gt;SG_0_Node_17 -->
<g id="edge7" class="edge">
<title>SG_0_Node_3&#45;&gt;SG_0_Node_17</title>
<path fill="none" stroke="#000000" d="M266.7538,-1399.719C246.241,-1390.7432 224.985,-1377.797 211,-1359.5584 195.5586,-1339.4206 190.7281,-1310.7175 189.5197,-1288.8521"/>
<polygon fill="#000000" stroke="#000000" points="193.0138,-1288.6144 189.1867,-1278.7349 186.0176,-1288.8447 193.0138,-1288.6144"/>
<text text-anchor="middle" x="270" y="-1343.5584" font-family="Times,serif" font-size="20.00" fill="#000000">[NA]</text>
<text text-anchor="middle" x="270" y="-1321.5584" font-family="Times,serif" font-size="20.00" fill="#000000">attachment</text>
</g>
<!-- SG_0_Node_4 -->
<g id="node9" class="node">
<title>SG_0_Node_4</title>
<polygon fill="none" stroke="#000000" points="409.5,-1275.3452 278.5,-1275.3452 278.5,-1239.3452 409.5,-1239.3452 409.5,-1275.3452"/>
<text text-anchor="middle" x="344" y="-1252.3452" font-family="Times,serif" font-size="20.00" fill="#000000">browser_id</text>
</g>
<!-- SG_0_Node_3&#45;&gt;SG_0_Node_4 -->
<g id="edge8" class="edge">
<title>SG_0_Node_3&#45;&gt;SG_0_Node_4</title>
<path fill="none" stroke="#000000" d="M328.9171,-1399.6805C331.8505,-1371.9987 337.4789,-1318.8834 340.9692,-1285.9467"/>
<polygon fill="#000000" stroke="#000000" points="344.4905,-1285.9295 342.0639,-1275.6164 337.5295,-1285.1918 344.4905,-1285.9295"/>
<text text-anchor="middle" x="369" y="-1332.5584" font-family="Times,serif" font-size="20.00" fill="#000000">empty</text>
</g>
<!-- SG_0_Node_5 -->
<g id="node10" class="node">
<title>SG_0_Node_5</title>
<polygon fill="none" stroke="#000000" points="352,-1096.132 210,-1096.132 210,-1060.132 352,-1060.132 352,-1096.132"/>
<text text-anchor="middle" x="281" y="-1073.132" font-family="Times,serif" font-size="20.00" fill="#000000">Status&#45;Code</text>
</g>
<!-- SG_0_Node_4&#45;&gt;SG_0_Node_5 -->
<g id="edge9" class="edge">
<title>SG_0_Node_4&#45;&gt;SG_0_Node_5</title>
<path fill="none" stroke="#000000" d="M337.6125,-1239.1751C326.5753,-1207.7781 303.8657,-1143.1769 290.8123,-1106.0447"/>
<polygon fill="#000000" stroke="#000000" points="294.0228,-1104.6236 287.4044,-1096.3503 287.4189,-1106.9451 294.0228,-1104.6236"/>
<text text-anchor="middle" x="329.5" y="-1161.132" font-family="Times,serif" font-size="20.00" fill="#000000">1</text>
</g>
<!-- SG_0_Node_6 -->
<g id="node11" class="node">
<title>SG_0_Node_6</title>
<polygon fill="none" stroke="#000000" points="600,-1096.132 458,-1096.132 458,-1060.132 600,-1060.132 600,-1096.132"/>
<text text-anchor="middle" x="529" y="-1073.132" font-family="Times,serif" font-size="20.00" fill="#000000">Status&#45;Code</text>
</g>
<!-- SG_0_Node_4&#45;&gt;SG_0_Node_6 -->
<g id="edge10" class="edge">
<title>SG_0_Node_4&#45;&gt;SG_0_Node_6</title>
<path fill="none" stroke="#000000" d="M362.7569,-1239.1751C395.8602,-1207.1072 464.7203,-1140.401 502.6038,-1103.7026"/>
<polygon fill="#000000" stroke="#000000" points="505.4462,-1105.822 510.1935,-1096.3503 500.5757,-1100.7943 505.4462,-1105.822"/>
<text text-anchor="middle" x="496" y="-1183.132" font-family="Times,serif" font-size="20.00" fill="#000000">[NA]</text>
<text text-anchor="middle" x="496" y="-1161.132" font-family="Times,serif" font-size="20.00" fill="#000000">2</text>
<text text-anchor="middle" x="496" y="-1139.132" font-family="Times,serif" font-size="20.00" fill="#000000">3</text>
</g>
<!-- SG_0_Node_18 -->
<g id="node12" class="node">
<title>SG_0_Node_18</title>
<ellipse fill="none" stroke="#000000" cx="70" cy="-788.9188" rx="34.7971" ry="21.4286"/>
<text text-anchor="middle" x="70" y="-783.9188" font-family="Times,serif" font-size="20.00" fill="#000000">0.0</text>
</g>
<!-- SG_0_Node_5&#45;&gt;SG_0_Node_18 -->
<g id="edge25" class="edge">
<title>SG_0_Node_5&#45;&gt;SG_0_Node_18</title>
<path fill="none" stroke="#000000" d="M237.0475,-1059.9058C219.2135,-1050.8634 199.456,-1038.5417 185,-1023.132 127.9988,-962.3705 93.5441,-868.0277 78.6604,-819.7167"/>
<polygon fill="#000000" stroke="#000000" points="82.0108,-818.7042 75.7803,-810.135 75.3071,-820.7192 82.0108,-818.7042"/>
<text text-anchor="middle" x="231" y="-941.132" font-family="Times,serif" font-size="20.00" fill="#000000">[NA]</text>
<text text-anchor="middle" x="231" y="-919.132" font-family="Times,serif" font-size="20.00" fill="#000000">55 levels</text>
</g>
<!-- SG_0_Node_7 -->
<g id="node13" class="node">
<title>SG_0_Node_7</title>
<polygon fill="none" stroke="#000000" points="439.5,-806.9188 122.5,-806.9188 122.5,-770.9188 439.5,-770.9188 439.5,-806.9188"/>
<text text-anchor="middle" x="281" y="-783.9188" font-family="Times,serif" font-size="20.00" fill="#000000">Cross&#45;Origin&#45;Resource&#45;Policy</text>
</g>
<!-- SG_0_Node_5&#45;&gt;SG_0_Node_7 -->
<g id="edge26" class="edge">
<title>SG_0_Node_5&#45;&gt;SG_0_Node_7</title>
<path fill="none" stroke="#000000" d="M281,-1060.0405C281,-1011.145 281,-876.0806 281,-817.0943"/>
<polygon fill="#000000" stroke="#000000" points="284.5001,-817.0035 281,-807.0036 277.5001,-817.0036 284.5001,-817.0035"/>
<text text-anchor="middle" x="300.5" y="-1007.132" font-family="Times,serif" font-size="20.00" fill="#000000">200</text>
<text text-anchor="middle" x="300.5" y="-985.132" font-family="Times,serif" font-size="20.00" fill="#000000">201</text>
<text text-anchor="middle" x="300.5" y="-963.132" font-family="Times,serif" font-size="20.00" fill="#000000">202</text>
<text text-anchor="middle" x="300.5" y="-941.132" font-family="Times,serif" font-size="20.00" fill="#000000">203</text>
<text text-anchor="middle" x="300.5" y="-919.132" font-family="Times,serif" font-size="20.00" fill="#000000">206</text>
<text text-anchor="middle" x="300.5" y="-897.132" font-family="Times,serif" font-size="20.00" fill="#000000">207</text>
<text text-anchor="middle" x="300.5" y="-875.132" font-family="Times,serif" font-size="20.00" fill="#000000">208</text>
<text text-anchor="middle" x="300.5" y="-853.132" font-family="Times,serif" font-size="20.00" fill="#000000">226</text>
</g>
<!-- SG_0_Node_8 -->
<g id="node14" class="node">
<title>SG_0_Node_8</title>
<polygon fill="none" stroke="#000000" points="600,-806.9188 458,-806.9188 458,-770.9188 600,-770.9188 600,-806.9188"/>
<text text-anchor="middle" x="529" y="-783.9188" font-family="Times,serif" font-size="20.00" fill="#000000">Status&#45;Code</text>
</g>
<!-- SG_0_Node_6&#45;&gt;SG_0_Node_8 -->
<g id="edge11" class="edge">
<title>SG_0_Node_6&#45;&gt;SG_0_Node_8</title>
<path fill="none" stroke="#000000" d="M529,-1060.0405C529,-1011.145 529,-876.0806 529,-817.0943"/>
<polygon fill="#000000" stroke="#000000" points="532.5001,-817.0035 529,-807.0036 525.5001,-817.0036 532.5001,-817.0035"/>
<text text-anchor="middle" x="575" y="-930.132" font-family="Times,serif" font-size="20.00" fill="#000000">13 levels</text>
</g>
<!-- SG_0_Node_9 -->
<g id="node15" class="node">
<title>SG_0_Node_9</title>
<polygon fill="none" stroke="#000000" points="880,-806.9188 618,-806.9188 618,-770.9188 880,-770.9188 880,-806.9188"/>
<text text-anchor="middle" x="749" y="-783.9188" font-family="Times,serif" font-size="20.00" fill="#000000">X&#45;Content&#45;Type&#45;Options</text>
</g>
<!-- SG_0_Node_6&#45;&gt;SG_0_Node_9 -->
<g id="edge12" class="edge">
<title>SG_0_Node_6&#45;&gt;SG_0_Node_9</title>
<path fill="none" stroke="#000000" d="M572.2401,-1059.9358C590.1602,-1050.8332 610.1772,-1038.4576 625,-1023.132 685.0466,-961.0486 723.7074,-864.0728 740.0579,-816.7624"/>
<polygon fill="#000000" stroke="#000000" points="743.4091,-817.778 743.2964,-807.1837 736.7779,-815.536 743.4091,-817.778"/>
<text text-anchor="middle" x="773" y="-941.132" font-family="Times,serif" font-size="20.00" fill="#000000">[NA]</text>
<text text-anchor="middle" x="773" y="-919.132" font-family="Times,serif" font-size="20.00" fill="#000000">50 levels</text>
</g>
<!-- SG_0_Node_19 -->
<g id="node16" class="node">
<title>SG_0_Node_19</title>
<ellipse fill="none" stroke="#000000" cx="152" cy="-496.4924" rx="34.7971" ry="21.4286"/>
<text text-anchor="middle" x="152" y="-491.4924" font-family="Times,serif" font-size="20.00" fill="#000000">0.0</text>
</g>
<!-- SG_0_Node_7&#45;&gt;SG_0_Node_19 -->
<g id="edge27" class="edge">
<title>SG_0_Node_7&#45;&gt;SG_0_Node_19</title>
<path fill="none" stroke="#000000" d="M211.9846,-770.8109C191.888,-762.0488 172.1044,-749.251 160,-730.7056 119.2902,-668.3332 132.7131,-575.3952 143.6655,-527.5028"/>
<polygon fill="#000000" stroke="#000000" points="147.0834,-528.2587 146.0141,-517.7179 140.2767,-526.6248 147.0834,-528.2587"/>
<text text-anchor="middle" x="221" y="-637.7056" font-family="Times,serif" font-size="20.00" fill="#000000">same&#45;origin</text>
</g>
<!-- SG_0_Node_20 -->
<g id="node17" class="node">
<title>SG_0_Node_20</title>
<ellipse fill="none" stroke="#000000" cx="310" cy="-496.4924" rx="34.7971" ry="21.4286"/>
<text text-anchor="middle" x="310" y="-491.4924" font-family="Times,serif" font-size="20.00" fill="#000000">1.0</text>
</g>
<!-- SG_0_Node_7&#45;&gt;SG_0_Node_20 -->
<g id="edge28" class="edge">
<title>SG_0_Node_7&#45;&gt;SG_0_Node_20</title>
<path fill="none" stroke="#000000" d="M282.8141,-770.6262C287.6335,-722.0286 300.8018,-589.244 306.8664,-528.0909"/>
<polygon fill="#000000" stroke="#000000" points="310.3745,-528.1808 307.8786,-517.8842 303.4087,-527.4899 310.3745,-528.1808"/>
<text text-anchor="middle" x="336" y="-648.7056" font-family="Times,serif" font-size="20.00" fill="#000000">[NA]</text>
<text text-anchor="middle" x="336" y="-626.7056" font-family="Times,serif" font-size="20.00" fill="#000000">empty</text>
</g>
<!-- SG_0_Node_21 -->
<g id="node18" class="node">
<title>SG_0_Node_21</title>
<ellipse fill="none" stroke="#000000" cx="432" cy="-496.4924" rx="34.7971" ry="21.4286"/>
<text text-anchor="middle" x="432" y="-491.4924" font-family="Times,serif" font-size="20.00" fill="#000000">0.0</text>
</g>
<!-- SG_0_Node_8&#45;&gt;SG_0_Node_21 -->
<g id="edge17" class="edge">
<title>SG_0_Node_8&#45;&gt;SG_0_Node_21</title>
<path fill="none" stroke="#000000" d="M512.9637,-770.6977C504.1183,-759.7729 493.6183,-745.2196 487,-730.7056 455.7303,-662.1304 441.2166,-573.8633 435.3733,-527.7345"/>
<polygon fill="#000000" stroke="#000000" points="438.8411,-527.2567 434.1618,-517.7512 431.892,-528.1001 438.8411,-527.2567"/>
<text text-anchor="middle" x="506.5" y="-714.7056" font-family="Times,serif" font-size="20.00" fill="#000000">100</text>
<text text-anchor="middle" x="506.5" y="-692.7056" font-family="Times,serif" font-size="20.00" fill="#000000">101</text>
<text text-anchor="middle" x="506.5" y="-670.7056" font-family="Times,serif" font-size="20.00" fill="#000000">102</text>
<text text-anchor="middle" x="506.5" y="-648.7056" font-family="Times,serif" font-size="20.00" fill="#000000">103</text>
<text text-anchor="middle" x="506.5" y="-626.7056" font-family="Times,serif" font-size="20.00" fill="#000000">204</text>
<text text-anchor="middle" x="506.5" y="-604.7056" font-family="Times,serif" font-size="20.00" fill="#000000">205</text>
<text text-anchor="middle" x="506.5" y="-582.7056" font-family="Times,serif" font-size="20.00" fill="#000000">304</text>
<text text-anchor="middle" x="506.5" y="-560.7056" font-family="Times,serif" font-size="20.00" fill="#000000">407</text>
</g>
<!-- SG_0_Node_10 -->
<g id="node19" class="node">
<title>SG_0_Node_10</title>
<polygon fill="none" stroke="#000000" points="589.5,-514.4924 484.5,-514.4924 484.5,-478.4924 589.5,-478.4924 589.5,-514.4924"/>
<text text-anchor="middle" x="537" y="-491.4924" font-family="Times,serif" font-size="20.00" fill="#000000">Location</text>
</g>
<!-- SG_0_Node_8&#45;&gt;SG_0_Node_10 -->
<g id="edge18" class="edge">
<title>SG_0_Node_8&#45;&gt;SG_0_Node_10</title>
<path fill="none" stroke="#000000" d="M529.5004,-770.6262C530.8529,-721.1875 534.589,-584.6226 536.2206,-524.981"/>
<polygon fill="#000000" stroke="#000000" points="539.7249,-524.8701 536.4998,-514.7781 532.7275,-524.6786 539.7249,-524.8701"/>
<text text-anchor="middle" x="554.5" y="-681.7056" font-family="Times,serif" font-size="20.00" fill="#000000">301</text>
<text text-anchor="middle" x="554.5" y="-659.7056" font-family="Times,serif" font-size="20.00" fill="#000000">302</text>
<text text-anchor="middle" x="554.5" y="-637.7056" font-family="Times,serif" font-size="20.00" fill="#000000">303</text>
<text text-anchor="middle" x="554.5" y="-615.7056" font-family="Times,serif" font-size="20.00" fill="#000000">307</text>
<text text-anchor="middle" x="554.5" y="-593.7056" font-family="Times,serif" font-size="20.00" fill="#000000">308</text>
</g>
<!-- SG_0_Node_11 -->
<g id="node20" class="node">
<title>SG_0_Node_11</title>
<polygon fill="none" stroke="#000000" points="823.5,-514.4924 668.5,-514.4924 668.5,-478.4924 823.5,-478.4924 823.5,-514.4924"/>
<text text-anchor="middle" x="746" y="-491.4924" font-family="Times,serif" font-size="20.00" fill="#000000">Content&#45;Type</text>
</g>
<!-- SG_0_Node_9&#45;&gt;SG_0_Node_11 -->
<g id="edge13" class="edge">
<title>SG_0_Node_9&#45;&gt;SG_0_Node_11</title>
<path fill="none" stroke="#000000" d="M748.8123,-770.6262C748.3051,-721.1875 746.9041,-584.6226 746.2923,-524.981"/>
<polygon fill="#000000" stroke="#000000" points="749.7901,-524.7416 746.1876,-514.7781 742.7905,-524.8135 749.7901,-524.7416"/>
<text text-anchor="middle" x="783" y="-637.7056" font-family="Times,serif" font-size="20.00" fill="#000000">nosniff</text>
</g>
<!-- SG_0_Node_22 -->
<g id="node21" class="node">
<title>SG_0_Node_22</title>
<ellipse fill="none" stroke="#000000" cx="876" cy="-496.4924" rx="34.7971" ry="21.4286"/>
<text text-anchor="middle" x="876" y="-491.4924" font-family="Times,serif" font-size="20.00" fill="#000000">1.0</text>
</g>
<!-- SG_0_Node_9&#45;&gt;SG_0_Node_22 -->
<g id="edge14" class="edge">
<title>SG_0_Node_9&#45;&gt;SG_0_Node_22</title>
<path fill="none" stroke="#000000" d="M780.5102,-770.7707C795.2224,-760.7537 811.7191,-747.0274 822,-730.7056 862.3376,-666.6666 872.6234,-575.8055 875.1924,-528.2728"/>
<polygon fill="#000000" stroke="#000000" points="878.7022,-528.1365 875.6628,-517.987 871.7095,-527.8166 878.7022,-528.1365"/>
<text text-anchor="middle" x="905" y="-648.7056" font-family="Times,serif" font-size="20.00" fill="#000000">[NA]</text>
<text text-anchor="middle" x="905" y="-626.7056" font-family="Times,serif" font-size="20.00" fill="#000000">empty</text>
</g>
<!-- SG_0_Node_23 -->
<g id="node22" class="node">
<title>SG_0_Node_23</title>
<ellipse fill="none" stroke="#000000" cx="275" cy="-336.066" rx="34.7971" ry="21.4286"/>
<text text-anchor="middle" x="275" y="-331.066" font-family="Times,serif" font-size="20.00" fill="#000000">0.0</text>
</g>
<!-- SG_0_Node_10&#45;&gt;SG_0_Node_23 -->
<g id="edge19" class="edge">
<title>SG_0_Node_10&#45;&gt;SG_0_Node_23</title>
<path fill="none" stroke="#000000" d="M486.5564,-478.4149C482.999,-477.3053 479.4548,-476.2476 476,-475.2792 400.7085,-454.1755 361.0468,-491.7566 304,-438.2792 284.715,-420.2009 277.9335,-390.3331 275.7001,-367.54"/>
<polygon fill="#000000" stroke="#000000" points="279.1725,-367.0348 274.9496,-357.318 272.1913,-367.5474 279.1725,-367.0348"/>
<text text-anchor="middle" x="419" y="-411.2792" font-family="Times,serif" font-size="20.00" fill="#000000">http://172.17.0.1:8000</text>
</g>
<!-- SG_0_Node_12 -->
<g id="node23" class="node">
<title>SG_0_Node_12</title>
<polygon fill="none" stroke="#000000" points="672,-354.066 410,-354.066 410,-318.066 672,-318.066 672,-354.066"/>
<text text-anchor="middle" x="541" y="-331.066" font-family="Times,serif" font-size="20.00" fill="#000000">X&#45;Content&#45;Type&#45;Options</text>
</g>
<!-- SG_0_Node_10&#45;&gt;SG_0_Node_12 -->
<g id="edge20" class="edge">
<title>SG_0_Node_10&#45;&gt;SG_0_Node_12</title>
<path fill="none" stroke="#000000" d="M537.4511,-478.4013C538.1413,-450.7194 539.4656,-397.6042 540.2869,-364.6675"/>
<polygon fill="#000000" stroke="#000000" points="543.794,-364.4213 540.5444,-354.3371 536.7962,-364.2468 543.794,-364.4213"/>
<text text-anchor="middle" x="571" y="-422.2792" font-family="Times,serif" font-size="20.00" fill="#000000">[NA]</text>
<text text-anchor="middle" x="571" y="-400.2792" font-family="Times,serif" font-size="20.00" fill="#000000">empty</text>
</g>
<!-- SG_0_Node_24 -->
<g id="node24" class="node">
<title>SG_0_Node_24</title>
<ellipse fill="none" stroke="#000000" cx="732" cy="-336.066" rx="34.7971" ry="21.4286"/>
<text text-anchor="middle" x="732" y="-331.066" font-family="Times,serif" font-size="20.00" fill="#000000">0.0</text>
</g>
<!-- SG_0_Node_11&#45;&gt;SG_0_Node_24 -->
<g id="edge15" class="edge">
<title>SG_0_Node_11&#45;&gt;SG_0_Node_24</title>
<path fill="none" stroke="#000000" d="M744.4212,-478.4013C742.0724,-451.4864 737.6254,-400.5279 734.7389,-367.4506"/>
<polygon fill="#000000" stroke="#000000" points="738.2173,-367.0505 733.8611,-357.3927 731.2438,-367.6592 738.2173,-367.0505"/>
<text text-anchor="middle" x="772" y="-411.2792" font-family="Times,serif" font-size="20.00" fill="#000000">empty</text>
</g>
<!-- SG_0_Node_25 -->
<g id="node25" class="node">
<title>SG_0_Node_25</title>
<ellipse fill="none" stroke="#000000" cx="832" cy="-336.066" rx="34.7971" ry="21.4286"/>
<text text-anchor="middle" x="832" y="-331.066" font-family="Times,serif" font-size="20.00" fill="#000000">1.0</text>
</g>
<!-- SG_0_Node_11&#45;&gt;SG_0_Node_25 -->
<g id="edge16" class="edge">
<title>SG_0_Node_11&#45;&gt;SG_0_Node_25</title>
<path fill="none" stroke="#000000" d="M771.4607,-478.4154C784.2496,-468.0583 798.9171,-454.0055 808,-438.2792 820.5562,-416.5392 826.5486,-388.6058 829.4055,-367.436"/>
<polygon fill="#000000" stroke="#000000" points="832.8998,-367.6903 830.6016,-357.3477 825.9485,-366.8661 832.8998,-367.6903"/>
<text text-anchor="middle" x="871" y="-411.2792" font-family="Times,serif" font-size="20.00" fill="#000000">text/html</text>
</g>
<!-- SG_0_Node_13 -->
<g id="node26" class="node">
<title>SG_0_Node_13</title>
<polygon fill="none" stroke="#000000" points="556.5,-193.6396 401.5,-193.6396 401.5,-157.6396 556.5,-157.6396 556.5,-193.6396"/>
<text text-anchor="middle" x="479" y="-170.6396" font-family="Times,serif" font-size="20.00" fill="#000000">Content&#45;Type</text>
</g>
<!-- SG_0_Node_12&#45;&gt;SG_0_Node_13 -->
<g id="edge21" class="edge">
<title>SG_0_Node_12&#45;&gt;SG_0_Node_13</title>
<path fill="none" stroke="#000000" d="M527.8089,-317.9755C520.2257,-306.8617 511.0365,-292.0723 505,-277.8528 494.7779,-253.7739 487.8676,-224.7376 483.7563,-203.7758"/>
<polygon fill="#000000" stroke="#000000" points="487.1891,-203.0915 481.9097,-193.9057 480.3085,-204.3788 487.1891,-203.0915"/>
<text text-anchor="middle" x="540" y="-250.8528" font-family="Times,serif" font-size="20.00" fill="#000000">nosniff</text>
</g>
<!-- SG_0_Node_26 -->
<g id="node27" class="node">
<title>SG_0_Node_26</title>
<ellipse fill="none" stroke="#000000" cx="609" cy="-175.6396" rx="34.7971" ry="21.4286"/>
<text text-anchor="middle" x="609" y="-170.6396" font-family="Times,serif" font-size="20.00" fill="#000000">1.0</text>
</g>
<!-- SG_0_Node_12&#45;&gt;SG_0_Node_26 -->
<g id="edge22" class="edge">
<title>SG_0_Node_12&#45;&gt;SG_0_Node_26</title>
<path fill="none" stroke="#000000" d="M552.882,-317.974C559.925,-306.738 568.68,-291.8219 575,-277.8528 585.4854,-254.6769 594.4269,-227.2734 600.5051,-206.6775"/>
<polygon fill="#000000" stroke="#000000" points="603.924,-207.453 603.3342,-196.8746 597.1985,-205.5119 603.924,-207.453"/>
<text text-anchor="middle" x="623" y="-261.8528" font-family="Times,serif" font-size="20.00" fill="#000000">[NA]</text>
<text text-anchor="middle" x="623" y="-239.8528" font-family="Times,serif" font-size="20.00" fill="#000000">empty</text>
</g>
<!-- SG_0_Node_27 -->
<g id="node28" class="node">
<title>SG_0_Node_27</title>
<ellipse fill="none" stroke="#000000" cx="429" cy="-37.2132" rx="34.7971" ry="21.4286"/>
<text text-anchor="middle" x="429" y="-32.2132" font-family="Times,serif" font-size="20.00" fill="#000000">0.0</text>
</g>
<!-- SG_0_Node_13&#45;&gt;SG_0_Node_27 -->
<g id="edge23" class="edge">
<title>SG_0_Node_13&#45;&gt;SG_0_Node_27</title>
<path fill="none" stroke="#000000" d="M465.2331,-157.453C457.5462,-146.4243 448.4476,-131.7547 443,-117.4264 437.1382,-102.0088 433.7115,-83.9821 431.7178,-68.9275"/>
<polygon fill="#000000" stroke="#000000" points="435.1444,-68.0956 430.5051,-58.5705 428.1919,-68.9097 435.1444,-68.0956"/>
<text text-anchor="middle" x="475" y="-101.4264" font-family="Times,serif" font-size="20.00" fill="#000000">empty</text>
</g>
<!-- SG_0_Node_28 -->
<g id="node29" class="node">
<title>SG_0_Node_28</title>
<ellipse fill="none" stroke="#000000" cx="529" cy="-37.2132" rx="34.7971" ry="21.4286"/>
<text text-anchor="middle" x="529" y="-32.2132" font-family="Times,serif" font-size="20.00" fill="#000000">1.0</text>
</g>
<!-- SG_0_Node_13&#45;&gt;SG_0_Node_28 -->
<g id="edge24" class="edge">
<title>SG_0_Node_13&#45;&gt;SG_0_Node_28</title>
<path fill="none" stroke="#000000" d="M488.8258,-157.3979C494.6407,-146.1073 501.8521,-131.1863 507,-117.4264 512.9612,-101.4927 518.0951,-83.2363 521.9005,-68.1696"/>
<polygon fill="#000000" stroke="#000000" points="525.3343,-68.862 524.3166,-58.3161 518.5357,-67.1949 525.3343,-68.862"/>
<text text-anchor="middle" x="561" y="-101.4264" font-family="Times,serif" font-size="20.00" fill="#000000">text/html</text>
</g>
</g>
</svg>
