<?xml version="1.0" encoding="UTF-8" standalone="no"?>
<!DOCTYPE svg PUBLIC "-//W3C//DTD SVG 1.1//EN"
 "http://www.w3.org/Graphics/SVG/1.1/DTD/svg11.dtd">
<!-- Generated by graphviz version 2.40.1 (20161225.0304)
 -->
<!-- Title: G Pages: 1 -->
<svg width="1348pt" height="2282pt"
 viewBox="0.00 0.00 1348.00 2282.26" xmlns="http://www.w3.org/2000/svg" xmlns:xlink="http://www.w3.org/1999/xlink">
<g id="graph0" class="graph" transform="scale(1 1) rotate(0) translate(4 2278.2641)">
<title>G</title>
<polygon fill="#ffffff" stroke="transparent" points="-4,4 -4,-2278.2641 1344,-2278.2641 1344,4 -4,4"/>
<g id="clust1" class="cluster">
<title>cluster_0</title>
<polygon fill="none" stroke="#000000" points="8,-8 8,-2266.2641 1332,-2266.2641 1332,-8 8,-8"/>
<text text-anchor="middle" x="670" y="-2230.2641" font-family="Times,serif" font-size="40.00" fill="#000000">Tree 0, Class [&#39;Message: mes1 Origin: https://172.17.0.1:44300&#39;]</text>
</g>
<!-- SG_0_Node_0 -->
<g id="node1" class="node">
<title>SG_0_Node_0</title>
<polygon fill="none" stroke="#000000" points="211.5,-2206.2641 146.5,-2206.2641 146.5,-2170.2641 211.5,-2170.2641 211.5,-2206.2641"/>
<text text-anchor="middle" x="179" y="-2183.2641" font-family="Times,serif" font-size="20.00" fill="#000000">body</text>
</g>
<!-- SG_0_Node_18 -->
<g id="node2" class="node">
<title>SG_0_Node_18</title>
<ellipse fill="none" stroke="#000000" cx="115" cy="-2031.0509" rx="34.7971" ry="21.4286"/>
<text text-anchor="middle" x="115" y="-2026.0509" font-family="Times,serif" font-size="20.00" fill="#000000">0.0</text>
</g>
<!-- SG_0_Node_0&#45;&gt;SG_0_Node_18 -->
<g id="edge1" class="edge">
<title>SG_0_Node_0&#45;&gt;SG_0_Node_18</title>
<path fill="none" stroke="#000000" d="M157.7021,-2169.9629C147.6635,-2160.1238 136.4912,-2147.1697 130,-2133.2641 119.6634,-2111.1208 116.0807,-2083.5946 114.9906,-2062.6877"/>
<polygon fill="#000000" stroke="#000000" points="118.4788,-2062.2909 114.6252,-2052.4217 111.4832,-2062.5399 118.4788,-2062.2909"/>
<text text-anchor="middle" x="176" y="-2117.2641" font-family="Times,serif" font-size="20.00" fill="#000000">[NA]</text>
<text text-anchor="middle" x="176" y="-2095.2641" font-family="Times,serif" font-size="20.00" fill="#000000">11 levels</text>
</g>
<!-- SG_0_Node_1 -->
<g id="node3" class="node">
<title>SG_0_Node_1</title>
<polygon fill="none" stroke="#000000" points="322.5,-2049.0509 167.5,-2049.0509 167.5,-2013.0509 322.5,-2013.0509 322.5,-2049.0509"/>
<text text-anchor="middle" x="245" y="-2026.0509" font-family="Times,serif" font-size="20.00" fill="#000000">Content&#45;Type</text>
</g>
<!-- SG_0_Node_0&#45;&gt;SG_0_Node_1 -->
<g id="edge2" class="edge">
<title>SG_0_Node_0&#45;&gt;SG_0_Node_1</title>
<path fill="none" stroke="#000000" d="M196.8067,-2169.8159C205.6064,-2159.7447 215.6689,-2146.6272 222,-2133.2641 233.1923,-2109.6402 239.0668,-2080.3266 242.0668,-2059.1572"/>
<polygon fill="#000000" stroke="#000000" points="245.5441,-2059.5575 243.3531,-2049.1917 238.6017,-2058.6614 245.5441,-2059.5575"/>
<text text-anchor="middle" x="415" y="-2106.2641" font-family="Times,serif" font-size="20.00" fill="#000000">ecocnt_html=post_message=mes1</text>
</g>
<!-- SG_0_Node_19 -->
<g id="node4" class="node">
<title>SG_0_Node_19</title>
<ellipse fill="none" stroke="#000000" cx="113" cy="-1760.6245" rx="34.7971" ry="21.4286"/>
<text text-anchor="middle" x="113" y="-1755.6245" font-family="Times,serif" font-size="20.00" fill="#000000">0.0</text>
</g>
<!-- SG_0_Node_1&#45;&gt;SG_0_Node_19 -->
<g id="edge3" class="edge">
<title>SG_0_Node_1&#45;&gt;SG_0_Node_19</title>
<path fill="none" stroke="#000000" d="M188.0876,-2012.9262C156.5769,-2001.6158 121.9934,-1986.633 113,-1972.8377 76.9567,-1917.5495 91.3567,-1835.725 103.2527,-1791.5749"/>
<polygon fill="#000000" stroke="#000000" points="106.6874,-1792.291 106.0383,-1781.716 99.9511,-1790.3877 106.6874,-1792.291"/>
<text text-anchor="middle" x="224" y="-1956.8377" font-family="Times,serif" font-size="20.00" fill="#000000">[NA]</text>
<text text-anchor="middle" x="224" y="-1934.8377" font-family="Times,serif" font-size="20.00" fill="#000000">application/javascript</text>
<text text-anchor="middle" x="224" y="-1912.8377" font-family="Times,serif" font-size="20.00" fill="#000000">application/pdf</text>
<text text-anchor="middle" x="224" y="-1890.8377" font-family="Times,serif" font-size="20.00" fill="#000000">audio/wav</text>
<text text-anchor="middle" x="224" y="-1868.8377" font-family="Times,serif" font-size="20.00" fill="#000000">image/png</text>
<text text-anchor="middle" x="224" y="-1846.8377" font-family="Times,serif" font-size="20.00" fill="#000000">text/css</text>
<text text-anchor="middle" x="224" y="-1824.8377" font-family="Times,serif" font-size="20.00" fill="#000000">video/mp4</text>
</g>
<!-- SG_0_Node_2 -->
<g id="node5" class="node">
<title>SG_0_Node_2</title>
<polygon fill="none" stroke="#000000" points="466.5,-1778.6245 275.5,-1778.6245 275.5,-1742.6245 466.5,-1742.6245 466.5,-1778.6245"/>
<text text-anchor="middle" x="371" y="-1755.6245" font-family="Times,serif" font-size="20.00" fill="#000000">X&#45;Frame&#45;Options</text>
</g>
<!-- SG_0_Node_1&#45;&gt;SG_0_Node_2 -->
<g id="edge4" class="edge">
<title>SG_0_Node_1&#45;&gt;SG_0_Node_2</title>
<path fill="none" stroke="#000000" d="M290.5061,-2013.0452C308.3857,-2003.6917 327.3757,-1990.4649 339,-1972.8377 376.4407,-1916.0619 376.7584,-1832.3634 373.8571,-1788.9987"/>
<polygon fill="#000000" stroke="#000000" points="377.3354,-1788.5823 373.0707,-1778.8837 370.3564,-1789.1249 377.3354,-1788.5823"/>
<text text-anchor="middle" x="421" y="-1901.8377" font-family="Times,serif" font-size="20.00" fill="#000000">empty</text>
<text text-anchor="middle" x="421" y="-1879.8377" font-family="Times,serif" font-size="20.00" fill="#000000">text/html</text>
</g>
<!-- SG_0_Node_20 -->
<g id="node6" class="node">
<title>SG_0_Node_20</title>
<ellipse fill="none" stroke="#000000" cx="256" cy="-1600.1981" rx="34.7971" ry="21.4286"/>
<text text-anchor="middle" x="256" y="-1595.1981" font-family="Times,serif" font-size="20.00" fill="#000000">0.0</text>
</g>
<!-- SG_0_Node_2&#45;&gt;SG_0_Node_20 -->
<g id="edge5" class="edge">
<title>SG_0_Node_2&#45;&gt;SG_0_Node_20</title>
<path fill="none" stroke="#000000" d="M358.0316,-1742.5334C338.0263,-1714.6258 299.491,-1660.8685 275.9282,-1627.9981"/>
<polygon fill="#000000" stroke="#000000" points="278.6647,-1625.8081 269.9939,-1619.7197 272.9754,-1629.8864 278.6647,-1625.8081"/>
<text text-anchor="middle" x="353" y="-1686.4113" font-family="Times,serif" font-size="20.00" fill="#000000">[NA]</text>
<text text-anchor="middle" x="353" y="-1664.4113" font-family="Times,serif" font-size="20.00" fill="#000000">deny</text>
</g>
<!-- SG_0_Node_3 -->
<g id="node7" class="node">
<title>SG_0_Node_3</title>
<polygon fill="none" stroke="#000000" points="529.5,-1618.1981 308.5,-1618.1981 308.5,-1582.1981 529.5,-1582.1981 529.5,-1618.1981"/>
<text text-anchor="middle" x="419" y="-1595.1981" font-family="Times,serif" font-size="20.00" fill="#000000">Content&#45;Disposition</text>
</g>
<!-- SG_0_Node_2&#45;&gt;SG_0_Node_3 -->
<g id="edge6" class="edge">
<title>SG_0_Node_2&#45;&gt;SG_0_Node_3</title>
<path fill="none" stroke="#000000" d="M376.4129,-1742.5334C384.7314,-1714.7311 400.726,-1661.2739 410.5706,-1628.3711"/>
<polygon fill="#000000" stroke="#000000" points="414.0198,-1629.0528 413.5332,-1618.4692 407.3136,-1627.0463 414.0198,-1629.0528"/>
<text text-anchor="middle" x="433" y="-1675.4113" font-family="Times,serif" font-size="20.00" fill="#000000">empty</text>
</g>
<!-- SG_0_Node_21 -->
<g id="node8" class="node">
<title>SG_0_Node_21</title>
<ellipse fill="none" stroke="#000000" cx="303" cy="-1439.7716" rx="34.7971" ry="21.4286"/>
<text text-anchor="middle" x="303" y="-1434.7716" font-family="Times,serif" font-size="20.00" fill="#000000">0.0</text>
</g>
<!-- SG_0_Node_3&#45;&gt;SG_0_Node_21 -->
<g id="edge7" class="edge">
<title>SG_0_Node_3&#45;&gt;SG_0_Node_21</title>
<path fill="none" stroke="#000000" d="M360.7432,-1582.1577C341.4136,-1573.2023 321.8297,-1560.2663 310,-1541.9848 296.5472,-1521.1951 295.6561,-1492.7883 297.6426,-1471.1976"/>
<polygon fill="#000000" stroke="#000000" points="301.1254,-1471.5472 298.8065,-1461.2093 294.1725,-1470.7369 301.1254,-1471.5472"/>
<text text-anchor="middle" x="369" y="-1525.9848" font-family="Times,serif" font-size="20.00" fill="#000000">[NA]</text>
<text text-anchor="middle" x="369" y="-1503.9848" font-family="Times,serif" font-size="20.00" fill="#000000">attachment</text>
</g>
<!-- SG_0_Node_4 -->
<g id="node9" class="node">
<title>SG_0_Node_4</title>
<polygon fill="none" stroke="#000000" points="522.5,-1457.7716 391.5,-1457.7716 391.5,-1421.7716 522.5,-1421.7716 522.5,-1457.7716"/>
<text text-anchor="middle" x="457" y="-1434.7716" font-family="Times,serif" font-size="20.00" fill="#000000">browser_id</text>
</g>
<!-- SG_0_Node_3&#45;&gt;SG_0_Node_4 -->
<g id="edge8" class="edge">
<title>SG_0_Node_3&#45;&gt;SG_0_Node_4</title>
<path fill="none" stroke="#000000" d="M423.2852,-1582.107C429.8707,-1554.3047 442.533,-1500.8475 450.3267,-1467.9447"/>
<polygon fill="#000000" stroke="#000000" points="453.7729,-1468.5803 452.6721,-1458.0428 446.9614,-1466.9668 453.7729,-1468.5803"/>
<text text-anchor="middle" x="475" y="-1514.9848" font-family="Times,serif" font-size="20.00" fill="#000000">empty</text>
</g>
<!-- SG_0_Node_5 -->
<g id="node10" class="node">
<title>SG_0_Node_5</title>
<polygon fill="none" stroke="#000000" points="358,-1278.5584 216,-1278.5584 216,-1242.5584 358,-1242.5584 358,-1278.5584"/>
<text text-anchor="middle" x="287" y="-1255.5584" font-family="Times,serif" font-size="20.00" fill="#000000">Status&#45;Code</text>
</g>
<!-- SG_0_Node_4&#45;&gt;SG_0_Node_5 -->
<g id="edge9" class="edge">
<title>SG_0_Node_4&#45;&gt;SG_0_Node_5</title>
<path fill="none" stroke="#000000" d="M439.764,-1421.6015C409.3446,-1389.5336 346.0678,-1322.8274 311.256,-1286.129"/>
<polygon fill="#000000" stroke="#000000" points="313.7031,-1283.6231 304.2817,-1278.7767 308.6245,-1288.4406 313.7031,-1283.6231"/>
<text text-anchor="middle" x="407.5" y="-1343.5584" font-family="Times,serif" font-size="20.00" fill="#000000">1</text>
</g>
<!-- SG_0_Node_6 -->
<g id="node11" class="node">
<title>SG_0_Node_6</title>
<polygon fill="none" stroke="#000000" points="606,-1278.5584 464,-1278.5584 464,-1242.5584 606,-1242.5584 606,-1278.5584"/>
<text text-anchor="middle" x="535" y="-1255.5584" font-family="Times,serif" font-size="20.00" fill="#000000">Status&#45;Code</text>
</g>
<!-- SG_0_Node_4&#45;&gt;SG_0_Node_6 -->
<g id="edge10" class="edge">
<title>SG_0_Node_4&#45;&gt;SG_0_Node_6</title>
<path fill="none" stroke="#000000" d="M464.9083,-1421.6015C478.6318,-1390.0703 506.9307,-1325.0506 523.058,-1287.9965"/>
<polygon fill="#000000" stroke="#000000" points="526.2892,-1289.3427 527.0708,-1278.7767 519.8707,-1286.5491 526.2892,-1289.3427"/>
<text text-anchor="middle" x="535" y="-1365.5584" font-family="Times,serif" font-size="20.00" fill="#000000">[NA]</text>
<text text-anchor="middle" x="535" y="-1343.5584" font-family="Times,serif" font-size="20.00" fill="#000000">2</text>
<text text-anchor="middle" x="535" y="-1321.5584" font-family="Times,serif" font-size="20.00" fill="#000000">3</text>
</g>
<!-- SG_0_Node_22 -->
<g id="node12" class="node">
<title>SG_0_Node_22</title>
<ellipse fill="none" stroke="#000000" cx="76" cy="-971.3452" rx="34.7971" ry="21.4286"/>
<text text-anchor="middle" x="76" y="-966.3452" font-family="Times,serif" font-size="20.00" fill="#000000">0.0</text>
</g>
<!-- SG_0_Node_5&#45;&gt;SG_0_Node_22 -->
<g id="edge29" class="edge">
<title>SG_0_Node_5&#45;&gt;SG_0_Node_22</title>
<path fill="none" stroke="#000000" d="M243.0475,-1242.3322C225.2135,-1233.2898 205.456,-1220.9681 191,-1205.5584 133.9988,-1144.7969 99.5441,-1050.4541 84.6604,-1002.1431"/>
<polygon fill="#000000" stroke="#000000" points="88.0108,-1001.1306 81.7803,-992.5614 81.3071,-1003.1456 88.0108,-1001.1306"/>
<text text-anchor="middle" x="237" y="-1123.5584" font-family="Times,serif" font-size="20.00" fill="#000000">[NA]</text>
<text text-anchor="middle" x="237" y="-1101.5584" font-family="Times,serif" font-size="20.00" fill="#000000">55 levels</text>
</g>
<!-- SG_0_Node_7 -->
<g id="node13" class="node">
<title>SG_0_Node_7</title>
<polygon fill="none" stroke="#000000" points="445.5,-989.3452 128.5,-989.3452 128.5,-953.3452 445.5,-953.3452 445.5,-989.3452"/>
<text text-anchor="middle" x="287" y="-966.3452" font-family="Times,serif" font-size="20.00" fill="#000000">Cross&#45;Origin&#45;Resource&#45;Policy</text>
</g>
<!-- SG_0_Node_5&#45;&gt;SG_0_Node_7 -->
<g id="edge30" class="edge">
<title>SG_0_Node_5&#45;&gt;SG_0_Node_7</title>
<path fill="none" stroke="#000000" d="M287,-1242.4669C287,-1193.5714 287,-1058.507 287,-999.5207"/>
<polygon fill="#000000" stroke="#000000" points="290.5001,-999.4299 287,-989.43 283.5001,-999.43 290.5001,-999.4299"/>
<text text-anchor="middle" x="306.5" y="-1189.5584" font-family="Times,serif" font-size="20.00" fill="#000000">200</text>
<text text-anchor="middle" x="306.5" y="-1167.5584" font-family="Times,serif" font-size="20.00" fill="#000000">201</text>
<text text-anchor="middle" x="306.5" y="-1145.5584" font-family="Times,serif" font-size="20.00" fill="#000000">202</text>
<text text-anchor="middle" x="306.5" y="-1123.5584" font-family="Times,serif" font-size="20.00" fill="#000000">203</text>
<text text-anchor="middle" x="306.5" y="-1101.5584" font-family="Times,serif" font-size="20.00" fill="#000000">206</text>
<text text-anchor="middle" x="306.5" y="-1079.5584" font-family="Times,serif" font-size="20.00" fill="#000000">207</text>
<text text-anchor="middle" x="306.5" y="-1057.5584" font-family="Times,serif" font-size="20.00" fill="#000000">208</text>
<text text-anchor="middle" x="306.5" y="-1035.5584" font-family="Times,serif" font-size="20.00" fill="#000000">226</text>
</g>
<!-- SG_0_Node_8 -->
<g id="node14" class="node">
<title>SG_0_Node_8</title>
<polygon fill="none" stroke="#000000" points="606,-989.3452 464,-989.3452 464,-953.3452 606,-953.3452 606,-989.3452"/>
<text text-anchor="middle" x="535" y="-966.3452" font-family="Times,serif" font-size="20.00" fill="#000000">Status&#45;Code</text>
</g>
<!-- SG_0_Node_6&#45;&gt;SG_0_Node_8 -->
<g id="edge11" class="edge">
<title>SG_0_Node_6&#45;&gt;SG_0_Node_8</title>
<path fill="none" stroke="#000000" d="M535,-1242.4669C535,-1193.5714 535,-1058.507 535,-999.5207"/>
<polygon fill="#000000" stroke="#000000" points="538.5001,-999.4299 535,-989.43 531.5001,-999.43 538.5001,-999.4299"/>
<text text-anchor="middle" x="581" y="-1112.5584" font-family="Times,serif" font-size="20.00" fill="#000000">13 levels</text>
</g>
<!-- SG_0_Node_9 -->
<g id="node15" class="node">
<title>SG_0_Node_9</title>
<polygon fill="none" stroke="#000000" points="886,-989.3452 624,-989.3452 624,-953.3452 886,-953.3452 886,-989.3452"/>
<text text-anchor="middle" x="755" y="-966.3452" font-family="Times,serif" font-size="20.00" fill="#000000">X&#45;Content&#45;Type&#45;Options</text>
</g>
<!-- SG_0_Node_6&#45;&gt;SG_0_Node_9 -->
<g id="edge12" class="edge">
<title>SG_0_Node_6&#45;&gt;SG_0_Node_9</title>
<path fill="none" stroke="#000000" d="M578.2401,-1242.3622C596.1602,-1233.2596 616.1772,-1220.884 631,-1205.5584 691.0466,-1143.475 729.7074,-1046.4993 746.0579,-999.1888"/>
<polygon fill="#000000" stroke="#000000" points="749.4091,-1000.2044 749.2964,-989.6102 742.7779,-997.9624 749.4091,-1000.2044"/>
<text text-anchor="middle" x="779" y="-1123.5584" font-family="Times,serif" font-size="20.00" fill="#000000">[NA]</text>
<text text-anchor="middle" x="779" y="-1101.5584" font-family="Times,serif" font-size="20.00" fill="#000000">50 levels</text>
</g>
<!-- SG_0_Node_23 -->
<g id="node16" class="node">
<title>SG_0_Node_23</title>
<ellipse fill="none" stroke="#000000" cx="158" cy="-678.9188" rx="34.7971" ry="21.4286"/>
<text text-anchor="middle" x="158" y="-673.9188" font-family="Times,serif" font-size="20.00" fill="#000000">0.0</text>
</g>
<!-- SG_0_Node_7&#45;&gt;SG_0_Node_23 -->
<g id="edge31" class="edge">
<title>SG_0_Node_7&#45;&gt;SG_0_Node_23</title>
<path fill="none" stroke="#000000" d="M217.9846,-953.2374C197.888,-944.4752 178.1044,-931.6774 166,-913.132 125.2902,-850.7596 138.7131,-757.8216 149.6655,-709.9292"/>
<polygon fill="#000000" stroke="#000000" points="153.0834,-710.6851 152.0141,-700.1443 146.2767,-709.0512 153.0834,-710.6851"/>
<text text-anchor="middle" x="227" y="-820.132" font-family="Times,serif" font-size="20.00" fill="#000000">same&#45;origin</text>
</g>
<!-- SG_0_Node_24 -->
<g id="node17" class="node">
<title>SG_0_Node_24</title>
<ellipse fill="none" stroke="#000000" cx="316" cy="-678.9188" rx="34.7971" ry="21.4286"/>
<text text-anchor="middle" x="316" y="-673.9188" font-family="Times,serif" font-size="20.00" fill="#000000">1.0</text>
</g>
<!-- SG_0_Node_7&#45;&gt;SG_0_Node_24 -->
<g id="edge32" class="edge">
<title>SG_0_Node_7&#45;&gt;SG_0_Node_24</title>
<path fill="none" stroke="#000000" d="M288.8141,-953.0527C293.6335,-904.455 306.8018,-771.6704 312.8664,-710.5173"/>
<polygon fill="#000000" stroke="#000000" points="316.3745,-710.6072 313.8786,-700.3106 309.4087,-709.9163 316.3745,-710.6072"/>
<text text-anchor="middle" x="342" y="-831.132" font-family="Times,serif" font-size="20.00" fill="#000000">[NA]</text>
<text text-anchor="middle" x="342" y="-809.132" font-family="Times,serif" font-size="20.00" fill="#000000">empty</text>
</g>
<!-- SG_0_Node_25 -->
<g id="node18" class="node">
<title>SG_0_Node_25</title>
<ellipse fill="none" stroke="#000000" cx="437" cy="-678.9188" rx="34.7971" ry="21.4286"/>
<text text-anchor="middle" x="437" y="-673.9188" font-family="Times,serif" font-size="20.00" fill="#000000">0.0</text>
</g>
<!-- SG_0_Node_8&#45;&gt;SG_0_Node_25 -->
<g id="edge19" class="edge">
<title>SG_0_Node_8&#45;&gt;SG_0_Node_25</title>
<path fill="none" stroke="#000000" d="M518.9857,-953.1141C510.1476,-942.1859 499.6476,-927.6326 493,-913.132 461.5616,-844.5544 446.6202,-756.2883 440.5391,-710.1603"/>
<polygon fill="#000000" stroke="#000000" points="444.0036,-709.6586 439.2757,-700.1772 437.059,-710.5375 444.0036,-709.6586"/>
<text text-anchor="middle" x="512.5" y="-897.132" font-family="Times,serif" font-size="20.00" fill="#000000">100</text>
<text text-anchor="middle" x="512.5" y="-875.132" font-family="Times,serif" font-size="20.00" fill="#000000">101</text>
<text text-anchor="middle" x="512.5" y="-853.132" font-family="Times,serif" font-size="20.00" fill="#000000">102</text>
<text text-anchor="middle" x="512.5" y="-831.132" font-family="Times,serif" font-size="20.00" fill="#000000">103</text>
<text text-anchor="middle" x="512.5" y="-809.132" font-family="Times,serif" font-size="20.00" fill="#000000">204</text>
<text text-anchor="middle" x="512.5" y="-787.132" font-family="Times,serif" font-size="20.00" fill="#000000">205</text>
<text text-anchor="middle" x="512.5" y="-765.132" font-family="Times,serif" font-size="20.00" fill="#000000">304</text>
<text text-anchor="middle" x="512.5" y="-743.132" font-family="Times,serif" font-size="20.00" fill="#000000">407</text>
</g>
<!-- SG_0_Node_10 -->
<g id="node19" class="node">
<title>SG_0_Node_10</title>
<polygon fill="none" stroke="#000000" points="594.5,-696.9188 489.5,-696.9188 489.5,-660.9188 594.5,-660.9188 594.5,-696.9188"/>
<text text-anchor="middle" x="542" y="-673.9188" font-family="Times,serif" font-size="20.00" fill="#000000">Location</text>
</g>
<!-- SG_0_Node_8&#45;&gt;SG_0_Node_10 -->
<g id="edge20" class="edge">
<title>SG_0_Node_8&#45;&gt;SG_0_Node_10</title>
<path fill="none" stroke="#000000" d="M535.4379,-953.0527C536.6213,-903.6139 539.8904,-767.049 541.3181,-707.4074"/>
<polygon fill="#000000" stroke="#000000" points="544.8219,-707.2854 541.5623,-697.2045 537.8239,-707.1178 544.8219,-707.2854"/>
<text text-anchor="middle" x="559.5" y="-864.132" font-family="Times,serif" font-size="20.00" fill="#000000">301</text>
<text text-anchor="middle" x="559.5" y="-842.132" font-family="Times,serif" font-size="20.00" fill="#000000">302</text>
<text text-anchor="middle" x="559.5" y="-820.132" font-family="Times,serif" font-size="20.00" fill="#000000">303</text>
<text text-anchor="middle" x="559.5" y="-798.132" font-family="Times,serif" font-size="20.00" fill="#000000">307</text>
<text text-anchor="middle" x="559.5" y="-776.132" font-family="Times,serif" font-size="20.00" fill="#000000">308</text>
</g>
<!-- SG_0_Node_11 -->
<g id="node20" class="node">
<title>SG_0_Node_11</title>
<polygon fill="none" stroke="#000000" points="830.5,-696.9188 675.5,-696.9188 675.5,-660.9188 830.5,-660.9188 830.5,-696.9188"/>
<text text-anchor="middle" x="753" y="-673.9188" font-family="Times,serif" font-size="20.00" fill="#000000">Content&#45;Type</text>
</g>
<!-- SG_0_Node_9&#45;&gt;SG_0_Node_11 -->
<g id="edge13" class="edge">
<title>SG_0_Node_9&#45;&gt;SG_0_Node_11</title>
<path fill="none" stroke="#000000" d="M754.8749,-953.0527C754.5368,-903.6139 753.6028,-767.049 753.1948,-707.4074"/>
<polygon fill="#000000" stroke="#000000" points="756.6935,-707.1803 753.1251,-697.2045 749.6936,-707.2282 756.6935,-707.1803"/>
<text text-anchor="middle" x="789" y="-831.132" font-family="Times,serif" font-size="20.00" fill="#000000">[NA]</text>
<text text-anchor="middle" x="789" y="-809.132" font-family="Times,serif" font-size="20.00" fill="#000000">nosniff</text>
</g>
<!-- SG_0_Node_26 -->
<g id="node21" class="node">
<title>SG_0_Node_26</title>
<ellipse fill="none" stroke="#000000" cx="883" cy="-678.9188" rx="34.7971" ry="21.4286"/>
<text text-anchor="middle" x="883" y="-673.9188" font-family="Times,serif" font-size="20.00" fill="#000000">1.0</text>
</g>
<!-- SG_0_Node_9&#45;&gt;SG_0_Node_26 -->
<g id="edge14" class="edge">
<title>SG_0_Node_9&#45;&gt;SG_0_Node_26</title>
<path fill="none" stroke="#000000" d="M786.4818,-953.1792C801.187,-943.1578 817.6861,-929.4329 828,-913.132 868.5906,-848.9797 879.2681,-757.8617 882.0474,-710.405"/>
<polygon fill="#000000" stroke="#000000" points="885.5428,-710.5812 882.5519,-700.4173 878.5518,-710.2279 885.5428,-710.5812"/>
<text text-anchor="middle" x="911" y="-820.132" font-family="Times,serif" font-size="20.00" fill="#000000">empty</text>
</g>
<!-- SG_0_Node_27 -->
<g id="node22" class="node">
<title>SG_0_Node_27</title>
<ellipse fill="none" stroke="#000000" cx="278" cy="-518.4924" rx="34.7971" ry="21.4286"/>
<text text-anchor="middle" x="278" y="-513.4924" font-family="Times,serif" font-size="20.00" fill="#000000">0.0</text>
</g>
<!-- SG_0_Node_10&#45;&gt;SG_0_Node_27 -->
<g id="edge21" class="edge">
<title>SG_0_Node_10&#45;&gt;SG_0_Node_27</title>
<path fill="none" stroke="#000000" d="M491.5577,-660.8366C488.0001,-659.7281 484.4554,-658.6719 481,-657.7056 405.2775,-636.5296 365.6379,-674.1864 308,-620.7056 288.5723,-602.6792 281.4945,-572.8052 279.0279,-549.9966"/>
<polygon fill="#000000" stroke="#000000" points="282.4936,-549.4401 278.1721,-539.7667 275.518,-550.0236 282.4936,-549.4401"/>
<text text-anchor="middle" x="423" y="-593.7056" font-family="Times,serif" font-size="20.00" fill="#000000">http://172.17.0.1:8000</text>
</g>
<!-- SG_0_Node_12 -->
<g id="node23" class="node">
<title>SG_0_Node_12</title>
<polygon fill="none" stroke="#000000" points="675,-536.4924 413,-536.4924 413,-500.4924 675,-500.4924 675,-536.4924"/>
<text text-anchor="middle" x="544" y="-513.4924" font-family="Times,serif" font-size="20.00" fill="#000000">X&#45;Content&#45;Type&#45;Options</text>
</g>
<!-- SG_0_Node_10&#45;&gt;SG_0_Node_12 -->
<g id="edge22" class="edge">
<title>SG_0_Node_10&#45;&gt;SG_0_Node_12</title>
<path fill="none" stroke="#000000" d="M542.2255,-660.8277C542.5706,-633.1459 543.2328,-580.0306 543.6434,-547.0939"/>
<polygon fill="#000000" stroke="#000000" points="547.1472,-546.8064 543.7722,-536.7636 540.1477,-546.7191 547.1472,-546.8064"/>
<text text-anchor="middle" x="575" y="-604.7056" font-family="Times,serif" font-size="20.00" fill="#000000">[NA]</text>
<text text-anchor="middle" x="575" y="-582.7056" font-family="Times,serif" font-size="20.00" fill="#000000">empty</text>
</g>
<!-- SG_0_Node_28 -->
<g id="node24" class="node">
<title>SG_0_Node_28</title>
<ellipse fill="none" stroke="#000000" cx="735" cy="-518.4924" rx="34.7971" ry="21.4286"/>
<text text-anchor="middle" x="735" y="-513.4924" font-family="Times,serif" font-size="20.00" fill="#000000">0.0</text>
</g>
<!-- SG_0_Node_11&#45;&gt;SG_0_Node_28 -->
<g id="edge15" class="edge">
<title>SG_0_Node_11&#45;&gt;SG_0_Node_28</title>
<path fill="none" stroke="#000000" d="M750.9702,-660.8277C747.9503,-633.9128 742.2327,-582.9543 738.5214,-549.877"/>
<polygon fill="#000000" stroke="#000000" points="741.9862,-549.3665 737.3929,-539.8191 735.0298,-550.1471 741.9862,-549.3665"/>
<text text-anchor="middle" x="778" y="-593.7056" font-family="Times,serif" font-size="20.00" fill="#000000">empty</text>
</g>
<!-- SG_0_Node_13 -->
<g id="node25" class="node">
<title>SG_0_Node_13</title>
<polygon fill="none" stroke="#000000" points="930,-536.4924 788,-536.4924 788,-500.4924 930,-500.4924 930,-536.4924"/>
<text text-anchor="middle" x="859" y="-513.4924" font-family="Times,serif" font-size="20.00" fill="#000000">Status&#45;Code</text>
</g>
<!-- SG_0_Node_11&#45;&gt;SG_0_Node_13 -->
<g id="edge16" class="edge">
<title>SG_0_Node_11&#45;&gt;SG_0_Node_13</title>
<path fill="none" stroke="#000000" d="M776.0199,-660.8116C788.4645,-650.1435 803.4071,-635.8055 814,-620.7056 830.2454,-597.5482 842.5897,-567.5882 850.2031,-546.1003"/>
<polygon fill="#000000" stroke="#000000" points="853.5315,-547.184 853.461,-536.5894 846.9092,-544.9155 853.5315,-547.184"/>
<text text-anchor="middle" x="884" y="-593.7056" font-family="Times,serif" font-size="20.00" fill="#000000">text/html</text>
</g>
<!-- SG_0_Node_14 -->
<g id="node26" class="node">
<title>SG_0_Node_14</title>
<polygon fill="none" stroke="#000000" points="546.5,-376.066 391.5,-376.066 391.5,-340.066 546.5,-340.066 546.5,-376.066"/>
<text text-anchor="middle" x="469" y="-353.066" font-family="Times,serif" font-size="20.00" fill="#000000">Content&#45;Type</text>
</g>
<!-- SG_0_Node_12&#45;&gt;SG_0_Node_14 -->
<g id="edge23" class="edge">
<title>SG_0_Node_12&#45;&gt;SG_0_Node_14</title>
<path fill="none" stroke="#000000" d="M522.2447,-500.3991C510.9439,-489.8393 497.8845,-475.6011 490,-460.2792 478.0869,-437.1285 472.9312,-407.7568 470.7004,-386.4455"/>
<polygon fill="#000000" stroke="#000000" points="474.1792,-386.0511 469.8017,-376.4029 467.2071,-386.6751 474.1792,-386.0511"/>
<text text-anchor="middle" x="525" y="-444.2792" font-family="Times,serif" font-size="20.00" fill="#000000">[NA]</text>
<text text-anchor="middle" x="525" y="-422.2792" font-family="Times,serif" font-size="20.00" fill="#000000">nosniff</text>
</g>
<!-- SG_0_Node_29 -->
<g id="node27" class="node">
<title>SG_0_Node_29</title>
<ellipse fill="none" stroke="#000000" cx="599" cy="-358.066" rx="34.7971" ry="21.4286"/>
<text text-anchor="middle" x="599" y="-353.066" font-family="Times,serif" font-size="20.00" fill="#000000">1.0</text>
</g>
<!-- SG_0_Node_12&#45;&gt;SG_0_Node_29 -->
<g id="edge24" class="edge">
<title>SG_0_Node_12&#45;&gt;SG_0_Node_29</title>
<path fill="none" stroke="#000000" d="M550.2023,-500.4013C559.5206,-473.2214 577.245,-421.5219 588.5734,-388.4787"/>
<polygon fill="#000000" stroke="#000000" points="591.9351,-389.4653 591.8674,-378.8707 585.3134,-387.1951 591.9351,-389.4653"/>
<text text-anchor="middle" x="610" y="-433.2792" font-family="Times,serif" font-size="20.00" fill="#000000">empty</text>
</g>
<!-- SG_0_Node_30 -->
<g id="node28" class="node">
<title>SG_0_Node_30</title>
<ellipse fill="none" stroke="#000000" cx="810" cy="-358.066" rx="52.1524" ry="21.4286"/>
<text text-anchor="middle" x="810" y="-353.066" font-family="Times,serif" font-size="20.00" fill="#000000">0.941</text>
</g>
<!-- SG_0_Node_13&#45;&gt;SG_0_Node_30 -->
<g id="edge17" class="edge">
<title>SG_0_Node_13&#45;&gt;SG_0_Node_30</title>
<path fill="none" stroke="#000000" d="M852.5292,-500.4831C848.4825,-489.0243 843.2503,-473.8416 839,-460.2792 831.5442,-436.4881 823.8772,-409.3259 818.3005,-388.9846"/>
<polygon fill="#000000" stroke="#000000" points="821.6697,-388.0361 815.664,-379.3079 814.9159,-389.8763 821.6697,-388.0361"/>
<text text-anchor="middle" x="858.5" y="-433.2792" font-family="Times,serif" font-size="20.00" fill="#000000">203</text>
</g>
<!-- SG_0_Node_31 -->
<g id="node29" class="node">
<title>SG_0_Node_31</title>
<ellipse fill="none" stroke="#000000" cx="915" cy="-358.066" rx="34.7971" ry="21.4286"/>
<text text-anchor="middle" x="915" y="-353.066" font-family="Times,serif" font-size="20.00" fill="#000000">1.0</text>
</g>
<!-- SG_0_Node_13&#45;&gt;SG_0_Node_31 -->
<g id="edge18" class="edge">
<title>SG_0_Node_13&#45;&gt;SG_0_Node_31</title>
<path fill="none" stroke="#000000" d="M865.3151,-500.4013C874.8028,-473.2214 892.8495,-421.5219 904.3839,-388.4787"/>
<polygon fill="#000000" stroke="#000000" points="907.7465,-389.4655 907.7377,-378.8707 901.1375,-387.1585 907.7465,-389.4655"/>
<text text-anchor="middle" x="940" y="-444.2792" font-family="Times,serif" font-size="20.00" fill="#000000">[NA]</text>
<text text-anchor="middle" x="940" y="-422.2792" font-family="Times,serif" font-size="20.00" fill="#000000">49 levels</text>
</g>
<!-- SG_0_Node_32 -->
<g id="node30" class="node">
<title>SG_0_Node_32</title>
<ellipse fill="none" stroke="#000000" cx="410" cy="-219.6396" rx="34.7971" ry="21.4286"/>
<text text-anchor="middle" x="410" y="-214.6396" font-family="Times,serif" font-size="20.00" fill="#000000">0.0</text>
</g>
<!-- SG_0_Node_14&#45;&gt;SG_0_Node_32 -->
<g id="edge25" class="edge">
<title>SG_0_Node_14&#45;&gt;SG_0_Node_32</title>
<path fill="none" stroke="#000000" d="M457.4647,-339.9457C450.6278,-328.6994 442.1302,-313.7823 436,-299.8528 429.0529,-284.0671 422.9934,-265.8224 418.476,-250.7253"/>
<polygon fill="#000000" stroke="#000000" points="421.7561,-249.4702 415.6029,-240.8453 415.0345,-251.4248 421.7561,-249.4702"/>
<text text-anchor="middle" x="468" y="-283.8528" font-family="Times,serif" font-size="20.00" fill="#000000">empty</text>
</g>
<!-- SG_0_Node_16 -->
<g id="node31" class="node">
<title>SG_0_Node_16</title>
<polygon fill="none" stroke="#000000" points="605,-237.6396 463,-237.6396 463,-201.6396 605,-201.6396 605,-237.6396"/>
<text text-anchor="middle" x="534" y="-214.6396" font-family="Times,serif" font-size="20.00" fill="#000000">Status&#45;Code</text>
</g>
<!-- SG_0_Node_14&#45;&gt;SG_0_Node_16 -->
<g id="edge26" class="edge">
<title>SG_0_Node_14&#45;&gt;SG_0_Node_16</title>
<path fill="none" stroke="#000000" d="M479.1932,-339.925C485.4538,-328.5451 493.4923,-313.4943 500,-299.8528 508.227,-282.6072 516.6139,-262.8491 522.9995,-247.2577"/>
<polygon fill="#000000" stroke="#000000" points="526.3682,-248.2641 526.8849,-237.6818 519.8818,-245.6321 526.3682,-248.2641"/>
<text text-anchor="middle" x="556" y="-283.8528" font-family="Times,serif" font-size="20.00" fill="#000000">text/html</text>
</g>
<!-- SG_0_Node_33 -->
<g id="node32" class="node">
<title>SG_0_Node_33</title>
<ellipse fill="none" stroke="#000000" cx="485" cy="-37.2132" rx="52.1524" ry="21.4286"/>
<text text-anchor="middle" x="485" y="-32.2132" font-family="Times,serif" font-size="20.00" fill="#000000">0.941</text>
</g>
<!-- SG_0_Node_16&#45;&gt;SG_0_Node_33 -->
<g id="edge27" class="edge">
<title>SG_0_Node_16&#45;&gt;SG_0_Node_33</title>
<path fill="none" stroke="#000000" d="M527.2138,-201.4384C523.0957,-190.0359 517.9002,-174.9824 514,-161.4264 504.9993,-130.1427 496.7733,-93.8299 491.4,-68.5787"/>
<polygon fill="#000000" stroke="#000000" points="494.7598,-67.5473 489.2779,-58.4809 487.9094,-68.987 494.7598,-67.5473"/>
<text text-anchor="middle" x="533.5" y="-134.4264" font-family="Times,serif" font-size="20.00" fill="#000000">301</text>
<text text-anchor="middle" x="533.5" y="-112.4264" font-family="Times,serif" font-size="20.00" fill="#000000">303</text>
</g>
<!-- SG_0_Node_34 -->
<g id="node33" class="node">
<title>SG_0_Node_34</title>
<ellipse fill="none" stroke="#000000" cx="590" cy="-37.2132" rx="34.7971" ry="21.4286"/>
<text text-anchor="middle" x="590" y="-32.2132" font-family="Times,serif" font-size="20.00" fill="#000000">1.0</text>
</g>
<!-- SG_0_Node_16&#45;&gt;SG_0_Node_34 -->
<g id="edge28" class="edge">
<title>SG_0_Node_16&#45;&gt;SG_0_Node_34</title>
<path fill="none" stroke="#000000" d="M540.0265,-201.5853C543.824,-190.1091 548.7878,-174.9238 553,-161.4264 562.8977,-129.7105 573.6868,-93.258 581.0463,-68.084"/>
<polygon fill="#000000" stroke="#000000" points="584.4416,-68.943 583.8816,-58.3629 577.7216,-66.9829 584.4416,-68.943"/>
<text text-anchor="middle" x="591.5" y="-145.4264" font-family="Times,serif" font-size="20.00" fill="#000000">302</text>
<text text-anchor="middle" x="591.5" y="-123.4264" font-family="Times,serif" font-size="20.00" fill="#000000">307</text>
<text text-anchor="middle" x="591.5" y="-101.4264" font-family="Times,serif" font-size="20.00" fill="#000000">308</text>
</g>
</g>
</svg>
