<?xml version="1.0" encoding="UTF-8" standalone="no"?>
<!DOCTYPE svg PUBLIC "-//W3C//DTD SVG 1.1//EN"
 "http://www.w3.org/Graphics/SVG/1.1/DTD/svg11.dtd">
<!-- Generated by graphviz version 2.40.1 (20161225.0304)
 -->
<!-- Title: G Pages: 1 -->
<svg width="1155pt" height="2357pt"
 viewBox="0.00 0.00 1155.00 2357.41" xmlns="http://www.w3.org/2000/svg" xmlns:xlink="http://www.w3.org/1999/xlink">
<g id="graph0" class="graph" transform="scale(1 1) rotate(0) translate(4 2353.4113)">
<title>G</title>
<polygon fill="#ffffff" stroke="transparent" points="-4,4 -4,-2353.4113 1151,-2353.4113 1151,4 -4,4"/>
<g id="clust1" class="cluster">
<title>cluster_0</title>
<polygon fill="none" stroke="#000000" points="8,-8 8,-2341.4113 1095,-2341.4113 1095,-8 8,-8"/>
<text text-anchor="middle" x="551.5" y="-2305.4113" font-family="Times,serif" font-size="40.00" fill="#000000">Tree 0, Class {&#39;a&#39;: &#39;Var a does not exist&#39;}</text>
</g>
<!-- SG_0_Node_0 -->
<g id="node1" class="node">
<title>SG_0_Node_0</title>
<polygon fill="none" stroke="#000000" points="793.5,-2281.4113 728.5,-2281.4113 728.5,-2245.4113 793.5,-2245.4113 793.5,-2281.4113"/>
<text text-anchor="middle" x="761" y="-2258.4113" font-family="Times,serif" font-size="20.00" fill="#000000">body</text>
</g>
<!-- SG_0_Node_1 -->
<g id="node2" class="node">
<title>SG_0_Node_1</title>
<polygon fill="none" stroke="#000000" points="714,-2124.1981 572,-2124.1981 572,-2088.1981 714,-2088.1981 714,-2124.1981"/>
<text text-anchor="middle" x="643" y="-2101.1981" font-family="Times,serif" font-size="20.00" fill="#000000">Status&#45;Code</text>
</g>
<!-- SG_0_Node_0&#45;&gt;SG_0_Node_1 -->
<g id="edge1" class="edge">
<title>SG_0_Node_0&#45;&gt;SG_0_Node_1</title>
<path fill="none" stroke="#000000" d="M728.3775,-2254.8814C704.6541,-2246.9042 673.8547,-2232.5148 657,-2208.4113 641.9167,-2186.8409 639.5369,-2156.3539 640.2462,-2134.295"/>
<polygon fill="#000000" stroke="#000000" points="643.7458,-2134.3962 640.8005,-2124.2191 636.7564,-2134.0117 643.7458,-2134.3962"/>
<text text-anchor="middle" x="757.5" y="-2181.4113" font-family="Times,serif" font-size="20.00" fill="#000000">ecocnt_js=var a=5;</text>
</g>
<!-- SG_0_Node_21 -->
<g id="node3" class="node">
<title>SG_0_Node_21</title>
<ellipse fill="none" stroke="#000000" cx="880" cy="-2106.1981" rx="34.7971" ry="21.4286"/>
<text text-anchor="middle" x="880" y="-2101.1981" font-family="Times,serif" font-size="20.00" fill="#000000">1.0</text>
</g>
<!-- SG_0_Node_0&#45;&gt;SG_0_Node_21 -->
<g id="edge2" class="edge">
<title>SG_0_Node_0&#45;&gt;SG_0_Node_21</title>
<path fill="none" stroke="#000000" d="M793.7479,-2252.8514C815.2338,-2244.2431 842.1854,-2229.9429 858,-2208.4113 873.0517,-2187.9183 878.2183,-2159.2488 879.8112,-2137.4865"/>
<polygon fill="#000000" stroke="#000000" points="883.3103,-2137.5922 880.3337,-2127.4242 876.3197,-2137.2292 883.3103,-2137.5922"/>
<text text-anchor="middle" x="921" y="-2192.4113" font-family="Times,serif" font-size="20.00" fill="#000000">[NA]</text>
<text text-anchor="middle" x="921" y="-2170.4113" font-family="Times,serif" font-size="20.00" fill="#000000">11 levels</text>
</g>
<!-- SG_0_Node_2 -->
<g id="node4" class="node">
<title>SG_0_Node_2</title>
<polygon fill="none" stroke="#000000" points="678.5,-1790.9848 361.5,-1790.9848 361.5,-1754.9848 678.5,-1754.9848 678.5,-1790.9848"/>
<text text-anchor="middle" x="520" y="-1767.9848" font-family="Times,serif" font-size="20.00" fill="#000000">Cross&#45;Origin&#45;Resource&#45;Policy</text>
</g>
<!-- SG_0_Node_1&#45;&gt;SG_0_Node_2 -->
<g id="edge3" class="edge">
<title>SG_0_Node_1&#45;&gt;SG_0_Node_2</title>
<path fill="none" stroke="#000000" d="M636.2118,-2087.8084C615.799,-2032.5093 554.8771,-1867.4686 530.3752,-1801.0917"/>
<polygon fill="#000000" stroke="#000000" points="533.5137,-1799.4869 526.7672,-1791.3176 526.9468,-1801.911 533.5137,-1799.4869"/>
<text text-anchor="middle" x="640.5" y="-2031.9848" font-family="Times,serif" font-size="20.00" fill="#000000">200</text>
<text text-anchor="middle" x="640.5" y="-2009.9848" font-family="Times,serif" font-size="20.00" fill="#000000">201</text>
<text text-anchor="middle" x="640.5" y="-1987.9848" font-family="Times,serif" font-size="20.00" fill="#000000">202</text>
<text text-anchor="middle" x="640.5" y="-1965.9848" font-family="Times,serif" font-size="20.00" fill="#000000">203</text>
<text text-anchor="middle" x="640.5" y="-1943.9848" font-family="Times,serif" font-size="20.00" fill="#000000">206</text>
<text text-anchor="middle" x="640.5" y="-1921.9848" font-family="Times,serif" font-size="20.00" fill="#000000">207</text>
<text text-anchor="middle" x="640.5" y="-1899.9848" font-family="Times,serif" font-size="20.00" fill="#000000">208</text>
<text text-anchor="middle" x="640.5" y="-1877.9848" font-family="Times,serif" font-size="20.00" fill="#000000">226</text>
<text text-anchor="middle" x="640.5" y="-1855.9848" font-family="Times,serif" font-size="20.00" fill="#000000">300</text>
<text text-anchor="middle" x="640.5" y="-1833.9848" font-family="Times,serif" font-size="20.00" fill="#000000">305</text>
</g>
<!-- SG_0_Node_3 -->
<g id="node5" class="node">
<title>SG_0_Node_3</title>
<polygon fill="none" stroke="#000000" points="839,-1790.9848 697,-1790.9848 697,-1754.9848 839,-1754.9848 839,-1790.9848"/>
<text text-anchor="middle" x="768" y="-1767.9848" font-family="Times,serif" font-size="20.00" fill="#000000">Status&#45;Code</text>
</g>
<!-- SG_0_Node_1&#45;&gt;SG_0_Node_3 -->
<g id="edge4" class="edge">
<title>SG_0_Node_1&#45;&gt;SG_0_Node_3</title>
<path fill="none" stroke="#000000" d="M649.8986,-2087.8084C670.6859,-2032.3955 732.8108,-1866.789 757.6094,-1800.6832"/>
<polygon fill="#000000" stroke="#000000" points="760.8873,-1801.9099 761.1227,-1791.3176 754.3333,-1799.4512 760.8873,-1801.9099"/>
<text text-anchor="middle" x="792" y="-1943.9848" font-family="Times,serif" font-size="20.00" fill="#000000">[NA]</text>
<text text-anchor="middle" x="792" y="-1921.9848" font-family="Times,serif" font-size="20.00" fill="#000000">53 levels</text>
</g>
<!-- SG_0_Node_4 -->
<g id="node6" class="node">
<title>SG_0_Node_4</title>
<polygon fill="none" stroke="#000000" points="527.5,-1567.7716 372.5,-1567.7716 372.5,-1531.7716 527.5,-1531.7716 527.5,-1567.7716"/>
<text text-anchor="middle" x="450" y="-1544.7716" font-family="Times,serif" font-size="20.00" fill="#000000">Content&#45;Type</text>
</g>
<!-- SG_0_Node_2&#45;&gt;SG_0_Node_4 -->
<g id="edge19" class="edge">
<title>SG_0_Node_2&#45;&gt;SG_0_Node_4</title>
<path fill="none" stroke="#000000" d="M495.6498,-1754.7491C484.6552,-1745.105 472.6617,-1732.301 466,-1717.9848 444.893,-1672.6256 444.8075,-1613.0484 447.1024,-1578.3273"/>
<polygon fill="#000000" stroke="#000000" points="450.6213,-1578.2184 447.9075,-1567.9771 443.6424,-1577.6755 450.6213,-1578.2184"/>
<text text-anchor="middle" x="498" y="-1668.9848" font-family="Times,serif" font-size="20.00" fill="#000000">[NA]</text>
<text text-anchor="middle" x="498" y="-1646.9848" font-family="Times,serif" font-size="20.00" fill="#000000">empty</text>
</g>
<!-- SG_0_Node_22 -->
<g id="node7" class="node">
<title>SG_0_Node_22</title>
<ellipse fill="none" stroke="#000000" cx="580" cy="-1549.7716" rx="34.7971" ry="21.4286"/>
<text text-anchor="middle" x="580" y="-1544.7716" font-family="Times,serif" font-size="20.00" fill="#000000">1.0</text>
</g>
<!-- SG_0_Node_2&#45;&gt;SG_0_Node_22 -->
<g id="edge20" class="edge">
<title>SG_0_Node_2&#45;&gt;SG_0_Node_22</title>
<path fill="none" stroke="#000000" d="M524.9101,-1754.7184C535.1834,-1716.4991 559.0416,-1627.7414 571.7257,-1580.554"/>
<polygon fill="#000000" stroke="#000000" points="575.1116,-1581.4404 574.3275,-1570.8747 568.3515,-1579.6233 575.1116,-1581.4404"/>
<text text-anchor="middle" x="625" y="-1657.9848" font-family="Times,serif" font-size="20.00" fill="#000000">same&#45;origin</text>
</g>
<!-- SG_0_Node_5 -->
<g id="node8" class="node">
<title>SG_0_Node_5</title>
<polygon fill="none" stroke="#000000" points="795.5,-1567.7716 690.5,-1567.7716 690.5,-1531.7716 795.5,-1531.7716 795.5,-1567.7716"/>
<text text-anchor="middle" x="743" y="-1544.7716" font-family="Times,serif" font-size="20.00" fill="#000000">Location</text>
</g>
<!-- SG_0_Node_3&#45;&gt;SG_0_Node_5 -->
<g id="edge5" class="edge">
<title>SG_0_Node_3&#45;&gt;SG_0_Node_5</title>
<path fill="none" stroke="#000000" d="M765.9541,-1754.7184C761.5941,-1715.79 751.3618,-1624.4304 746.1583,-1577.971"/>
<polygon fill="#000000" stroke="#000000" points="749.6304,-1577.5257 745.0391,-1567.9775 742.6739,-1578.3049 749.6304,-1577.5257"/>
<text text-anchor="middle" x="780.5" y="-1701.9848" font-family="Times,serif" font-size="20.00" fill="#000000">301</text>
<text text-anchor="middle" x="780.5" y="-1679.9848" font-family="Times,serif" font-size="20.00" fill="#000000">302</text>
<text text-anchor="middle" x="780.5" y="-1657.9848" font-family="Times,serif" font-size="20.00" fill="#000000">303</text>
<text text-anchor="middle" x="780.5" y="-1635.9848" font-family="Times,serif" font-size="20.00" fill="#000000">307</text>
<text text-anchor="middle" x="780.5" y="-1613.9848" font-family="Times,serif" font-size="20.00" fill="#000000">308</text>
</g>
<!-- SG_0_Node_23 -->
<g id="node9" class="node">
<title>SG_0_Node_23</title>
<ellipse fill="none" stroke="#000000" cx="848" cy="-1549.7716" rx="34.7971" ry="21.4286"/>
<text text-anchor="middle" x="848" y="-1544.7716" font-family="Times,serif" font-size="20.00" fill="#000000">1.0</text>
</g>
<!-- SG_0_Node_3&#45;&gt;SG_0_Node_23 -->
<g id="edge6" class="edge">
<title>SG_0_Node_3&#45;&gt;SG_0_Node_23</title>
<path fill="none" stroke="#000000" d="M782.2648,-1754.5128C789.6337,-1744.2276 798.2594,-1730.9193 804,-1717.9848 824.2527,-1672.3521 836.7018,-1615.4716 842.9771,-1580.9234"/>
<polygon fill="#000000" stroke="#000000" points="846.445,-1581.4104 844.7282,-1570.9556 839.5506,-1580.1992 846.445,-1581.4104"/>
<text text-anchor="middle" x="883" y="-1668.9848" font-family="Times,serif" font-size="20.00" fill="#000000">[NA]</text>
<text text-anchor="middle" x="883" y="-1646.9848" font-family="Times,serif" font-size="20.00" fill="#000000">48 levels</text>
</g>
<!-- SG_0_Node_6 -->
<g id="node10" class="node">
<title>SG_0_Node_6</title>
<polygon fill="none" stroke="#000000" points="342,-1341.3452 80,-1341.3452 80,-1305.3452 342,-1305.3452 342,-1341.3452"/>
<text text-anchor="middle" x="211" y="-1318.3452" font-family="Times,serif" font-size="20.00" fill="#000000">X&#45;Content&#45;Type&#45;Options</text>
</g>
<!-- SG_0_Node_4&#45;&gt;SG_0_Node_6 -->
<g id="edge21" class="edge">
<title>SG_0_Node_4&#45;&gt;SG_0_Node_6</title>
<path fill="none" stroke="#000000" d="M372.3305,-1533.9357C312.2601,-1520.9479 237.7116,-1502.9137 228,-1491.5584 194.6613,-1452.5772 198.9163,-1388.4328 204.9755,-1351.6428"/>
<polygon fill="#000000" stroke="#000000" points="208.4565,-1352.0607 206.7882,-1341.5981 201.5678,-1350.8175 208.4565,-1352.0607"/>
<text text-anchor="middle" x="339" y="-1464.5584" font-family="Times,serif" font-size="20.00" fill="#000000">application/javascript</text>
<text text-anchor="middle" x="339" y="-1442.5584" font-family="Times,serif" font-size="20.00" fill="#000000">empty</text>
<text text-anchor="middle" x="339" y="-1420.5584" font-family="Times,serif" font-size="20.00" fill="#000000">text/css</text>
<text text-anchor="middle" x="339" y="-1398.5584" font-family="Times,serif" font-size="20.00" fill="#000000">text/html</text>
</g>
<!-- SG_0_Node_7 -->
<g id="node11" class="node">
<title>SG_0_Node_7</title>
<polygon fill="none" stroke="#000000" points="546.5,-1341.3452 391.5,-1341.3452 391.5,-1305.3452 546.5,-1305.3452 546.5,-1341.3452"/>
<text text-anchor="middle" x="469" y="-1318.3452" font-family="Times,serif" font-size="20.00" fill="#000000">Content&#45;Type</text>
</g>
<!-- SG_0_Node_4&#45;&gt;SG_0_Node_7 -->
<g id="edge22" class="edge">
<title>SG_0_Node_4&#45;&gt;SG_0_Node_7</title>
<path fill="none" stroke="#000000" d="M451.5227,-1531.625C454.8232,-1492.2923 462.6573,-1398.9323 466.6188,-1351.723"/>
<polygon fill="#000000" stroke="#000000" points="470.1215,-1351.836 467.47,-1341.5783 463.146,-1351.2506 470.1215,-1351.836"/>
<text text-anchor="middle" x="541" y="-1475.5584" font-family="Times,serif" font-size="20.00" fill="#000000">[NA]</text>
<text text-anchor="middle" x="541" y="-1453.5584" font-family="Times,serif" font-size="20.00" fill="#000000">application/pdf</text>
<text text-anchor="middle" x="541" y="-1431.5584" font-family="Times,serif" font-size="20.00" fill="#000000">audio/wav</text>
<text text-anchor="middle" x="541" y="-1409.5584" font-family="Times,serif" font-size="20.00" fill="#000000">image/png</text>
<text text-anchor="middle" x="541" y="-1387.5584" font-family="Times,serif" font-size="20.00" fill="#000000">video/mp4</text>
</g>
<!-- SG_0_Node_8 -->
<g id="node12" class="node">
<title>SG_0_Node_8</title>
<polygon fill="none" stroke="#000000" points="769.5,-1341.3452 614.5,-1341.3452 614.5,-1305.3452 769.5,-1305.3452 769.5,-1341.3452"/>
<text text-anchor="middle" x="692" y="-1318.3452" font-family="Times,serif" font-size="20.00" fill="#000000">Content&#45;Type</text>
</g>
<!-- SG_0_Node_5&#45;&gt;SG_0_Node_8 -->
<g id="edge7" class="edge">
<title>SG_0_Node_5&#45;&gt;SG_0_Node_8</title>
<path fill="none" stroke="#000000" d="M738.1449,-1531.7262C735.1092,-1520.2535 731.1849,-1505.0688 728,-1491.5584 716.4373,-1442.5092 704.4768,-1385.0385 697.6665,-1351.5579"/>
<polygon fill="#000000" stroke="#000000" points="701.0593,-1350.6775 695.6434,-1341.5716 694.1987,-1352.0675 701.0593,-1350.6775"/>
<text text-anchor="middle" x="760" y="-1431.5584" font-family="Times,serif" font-size="20.00" fill="#000000">empty</text>
</g>
<!-- SG_0_Node_24 -->
<g id="node13" class="node">
<title>SG_0_Node_24</title>
<ellipse fill="none" stroke="#000000" cx="822" cy="-1323.3452" rx="34.7971" ry="21.4286"/>
<text text-anchor="middle" x="822" y="-1318.3452" font-family="Times,serif" font-size="20.00" fill="#000000">1.0</text>
</g>
<!-- SG_0_Node_5&#45;&gt;SG_0_Node_24 -->
<g id="edge8" class="edge">
<title>SG_0_Node_5&#45;&gt;SG_0_Node_24</title>
<path fill="none" stroke="#000000" d="M762.6118,-1531.6437C772.9587,-1520.969 784.9392,-1506.6314 792,-1491.5584 812.8694,-1447.0075 819.2897,-1389.5835 821.2234,-1354.6626"/>
<polygon fill="#000000" stroke="#000000" points="824.7236,-1354.738 821.6905,-1344.5866 817.7311,-1354.4138 824.7236,-1354.738"/>
<text text-anchor="middle" x="934" y="-1442.5584" font-family="Times,serif" font-size="20.00" fill="#000000">[NA]</text>
<text text-anchor="middle" x="934" y="-1420.5584" font-family="Times,serif" font-size="20.00" fill="#000000">http://172.17.0.1:8000</text>
</g>
<!-- SG_0_Node_9 -->
<g id="node14" class="node">
<title>SG_0_Node_9</title>
<polygon fill="none" stroke="#000000" points="164,-1114.9188 22,-1114.9188 22,-1078.9188 164,-1078.9188 164,-1114.9188"/>
<text text-anchor="middle" x="93" y="-1091.9188" font-family="Times,serif" font-size="20.00" fill="#000000">Status&#45;Code</text>
</g>
<!-- SG_0_Node_6&#45;&gt;SG_0_Node_9 -->
<g id="edge31" class="edge">
<title>SG_0_Node_6&#45;&gt;SG_0_Node_9</title>
<path fill="none" stroke="#000000" d="M189.6001,-1305.1413C178.0921,-1294.4429 164.3796,-1280.1068 155,-1265.132 126.6268,-1219.8334 108.4198,-1159.611 99.5078,-1124.8731"/>
<polygon fill="#000000" stroke="#000000" points="102.8511,-1123.814 97.0395,-1114.9553 96.0583,-1125.5046 102.8511,-1123.814"/>
<text text-anchor="middle" x="187" y="-1216.132" font-family="Times,serif" font-size="20.00" fill="#000000">[NA]</text>
<text text-anchor="middle" x="187" y="-1194.132" font-family="Times,serif" font-size="20.00" fill="#000000">empty</text>
</g>
<!-- SG_0_Node_10 -->
<g id="node15" class="node">
<title>SG_0_Node_10</title>
<polygon fill="none" stroke="#000000" points="337.5,-1114.9188 182.5,-1114.9188 182.5,-1078.9188 337.5,-1078.9188 337.5,-1114.9188"/>
<text text-anchor="middle" x="260" y="-1091.9188" font-family="Times,serif" font-size="20.00" fill="#000000">Content&#45;Type</text>
</g>
<!-- SG_0_Node_6&#45;&gt;SG_0_Node_10 -->
<g id="edge32" class="edge">
<title>SG_0_Node_6&#45;&gt;SG_0_Node_10</title>
<path fill="none" stroke="#000000" d="M214.927,-1305.1986C223.4568,-1265.7831 243.7276,-1172.1125 253.9233,-1124.999"/>
<polygon fill="#000000" stroke="#000000" points="257.3599,-1125.666 256.0543,-1115.1519 250.5183,-1124.1854 257.3599,-1125.666"/>
<text text-anchor="middle" x="282" y="-1205.132" font-family="Times,serif" font-size="20.00" fill="#000000">nosniff</text>
</g>
<!-- SG_0_Node_11 -->
<g id="node16" class="node">
<title>SG_0_Node_11</title>
<polygon fill="none" stroke="#000000" points="494.5,-1114.9188 363.5,-1114.9188 363.5,-1078.9188 494.5,-1078.9188 494.5,-1114.9188"/>
<text text-anchor="middle" x="429" y="-1091.9188" font-family="Times,serif" font-size="20.00" fill="#000000">browser_id</text>
</g>
<!-- SG_0_Node_7&#45;&gt;SG_0_Node_11 -->
<g id="edge23" class="edge">
<title>SG_0_Node_7&#45;&gt;SG_0_Node_11</title>
<path fill="none" stroke="#000000" d="M404.1732,-1305.2724C384.6291,-1296.4609 365.3659,-1283.6246 354,-1265.132 328.4006,-1223.4812 332.4987,-1199.0389 354,-1155.132 360.7734,-1141.3004 372.5937,-1129.8105 384.8744,-1120.7956"/>
<polygon fill="#000000" stroke="#000000" points="387.1273,-1123.4946 393.3936,-1114.9516 383.1675,-1117.7222 387.1273,-1123.4946"/>
<text text-anchor="middle" x="431" y="-1205.132" font-family="Times,serif" font-size="20.00" fill="#000000">application/pdf</text>
</g>
<!-- SG_0_Node_25 -->
<g id="node17" class="node">
<title>SG_0_Node_25</title>
<ellipse fill="none" stroke="#000000" cx="547" cy="-1096.9188" rx="34.7971" ry="21.4286"/>
<text text-anchor="middle" x="547" y="-1091.9188" font-family="Times,serif" font-size="20.00" fill="#000000">1.0</text>
</g>
<!-- SG_0_Node_7&#45;&gt;SG_0_Node_25 -->
<g id="edge24" class="edge">
<title>SG_0_Node_7&#45;&gt;SG_0_Node_25</title>
<path fill="none" stroke="#000000" d="M483.6632,-1305.2102C491.9043,-1294.1992 501.7584,-1279.5301 508,-1265.132 527.7203,-1219.6412 538.2379,-1162.7192 543.2127,-1128.1239"/>
<polygon fill="#000000" stroke="#000000" points="546.6905,-1128.5246 544.5827,-1118.1416 539.7555,-1127.5728 546.6905,-1128.5246"/>
<text text-anchor="middle" x="592.5" y="-1238.132" font-family="Times,serif" font-size="20.00" fill="#000000">[NA]</text>
<text text-anchor="middle" x="592.5" y="-1216.132" font-family="Times,serif" font-size="20.00" fill="#000000">audio/wav</text>
<text text-anchor="middle" x="592.5" y="-1194.132" font-family="Times,serif" font-size="20.00" fill="#000000">image/png</text>
<text text-anchor="middle" x="592.5" y="-1172.132" font-family="Times,serif" font-size="20.00" fill="#000000">video/mp4</text>
</g>
<!-- SG_0_Node_12 -->
<g id="node18" class="node">
<title>SG_0_Node_12</title>
<polygon fill="none" stroke="#000000" points="920.5,-1114.9188 603.5,-1114.9188 603.5,-1078.9188 920.5,-1078.9188 920.5,-1114.9188"/>
<text text-anchor="middle" x="762" y="-1091.9188" font-family="Times,serif" font-size="20.00" fill="#000000">Cross&#45;Origin&#45;Resource&#45;Policy</text>
</g>
<!-- SG_0_Node_8&#45;&gt;SG_0_Node_12 -->
<g id="edge9" class="edge">
<title>SG_0_Node_8&#45;&gt;SG_0_Node_12</title>
<path fill="none" stroke="#000000" d="M686.6362,-1305.2852C678.1669,-1273.212 664.9841,-1205.0002 689,-1155.132 695.5718,-1141.4859 707.0712,-1130.0462 719.0257,-1121.0201"/>
<polygon fill="#000000" stroke="#000000" points="721.1726,-1123.7887 727.3196,-1115.1594 717.133,-1118.0719 721.1726,-1123.7887"/>
<text text-anchor="middle" x="800" y="-1238.132" font-family="Times,serif" font-size="20.00" fill="#000000">application/javascript</text>
<text text-anchor="middle" x="800" y="-1216.132" font-family="Times,serif" font-size="20.00" fill="#000000">empty</text>
<text text-anchor="middle" x="800" y="-1194.132" font-family="Times,serif" font-size="20.00" fill="#000000">text/css</text>
<text text-anchor="middle" x="800" y="-1172.132" font-family="Times,serif" font-size="20.00" fill="#000000">text/html</text>
</g>
<!-- SG_0_Node_26 -->
<g id="node19" class="node">
<title>SG_0_Node_26</title>
<ellipse fill="none" stroke="#000000" cx="973" cy="-1096.9188" rx="34.7971" ry="21.4286"/>
<text text-anchor="middle" x="973" y="-1091.9188" font-family="Times,serif" font-size="20.00" fill="#000000">1.0</text>
</g>
<!-- SG_0_Node_8&#45;&gt;SG_0_Node_26 -->
<g id="edge10" class="edge">
<title>SG_0_Node_8&#45;&gt;SG_0_Node_26</title>
<path fill="none" stroke="#000000" d="M763.0441,-1305.2809C825.9023,-1289.1732 908.1369,-1267.7397 911,-1265.132 950.4374,-1229.2135 964.8583,-1165.9948 970.0828,-1128.1285"/>
<polygon fill="#000000" stroke="#000000" points="973.561,-1128.5207 971.3257,-1118.1643 966.6148,-1127.6542 973.561,-1128.5207"/>
<text text-anchor="middle" x="1042" y="-1249.132" font-family="Times,serif" font-size="20.00" fill="#000000">[NA]</text>
<text text-anchor="middle" x="1042" y="-1227.132" font-family="Times,serif" font-size="20.00" fill="#000000">application/pdf</text>
<text text-anchor="middle" x="1042" y="-1205.132" font-family="Times,serif" font-size="20.00" fill="#000000">audio/wav</text>
<text text-anchor="middle" x="1042" y="-1183.132" font-family="Times,serif" font-size="20.00" fill="#000000">image/png</text>
<text text-anchor="middle" x="1042" y="-1161.132" font-family="Times,serif" font-size="20.00" fill="#000000">video/mp4</text>
</g>
<!-- SG_0_Node_27 -->
<g id="node20" class="node">
<title>SG_0_Node_27</title>
<ellipse fill="none" stroke="#000000" cx="51" cy="-804.4924" rx="34.7971" ry="21.4286"/>
<text text-anchor="middle" x="51" y="-799.4924" font-family="Times,serif" font-size="20.00" fill="#000000">0.0</text>
</g>
<!-- SG_0_Node_9&#45;&gt;SG_0_Node_27 -->
<g id="edge39" class="edge">
<title>SG_0_Node_9&#45;&gt;SG_0_Node_27</title>
<path fill="none" stroke="#000000" d="M90.3727,-1078.6262C83.3928,-1030.0286 64.3215,-897.244 55.5384,-836.0909"/>
<polygon fill="#000000" stroke="#000000" points="58.9586,-835.285 54.0724,-825.8842 52.0297,-836.2802 58.9586,-835.285"/>
<text text-anchor="middle" x="103.5" y="-1022.7056" font-family="Times,serif" font-size="20.00" fill="#000000">200</text>
<text text-anchor="middle" x="103.5" y="-1000.7056" font-family="Times,serif" font-size="20.00" fill="#000000">201</text>
<text text-anchor="middle" x="103.5" y="-978.7056" font-family="Times,serif" font-size="20.00" fill="#000000">202</text>
<text text-anchor="middle" x="103.5" y="-956.7056" font-family="Times,serif" font-size="20.00" fill="#000000">203</text>
<text text-anchor="middle" x="103.5" y="-934.7056" font-family="Times,serif" font-size="20.00" fill="#000000">206</text>
<text text-anchor="middle" x="103.5" y="-912.7056" font-family="Times,serif" font-size="20.00" fill="#000000">207</text>
<text text-anchor="middle" x="103.5" y="-890.7056" font-family="Times,serif" font-size="20.00" fill="#000000">208</text>
<text text-anchor="middle" x="103.5" y="-868.7056" font-family="Times,serif" font-size="20.00" fill="#000000">226</text>
</g>
<!-- SG_0_Node_13 -->
<g id="node21" class="node">
<title>SG_0_Node_13</title>
<polygon fill="none" stroke="#000000" points="234.5,-822.4924 103.5,-822.4924 103.5,-786.4924 234.5,-786.4924 234.5,-822.4924"/>
<text text-anchor="middle" x="169" y="-799.4924" font-family="Times,serif" font-size="20.00" fill="#000000">browser_id</text>
</g>
<!-- SG_0_Node_9&#45;&gt;SG_0_Node_13 -->
<g id="edge40" class="edge">
<title>SG_0_Node_9&#45;&gt;SG_0_Node_13</title>
<path fill="none" stroke="#000000" d="M104.5335,-1078.6944C111.1254,-1067.5332 119.042,-1052.7408 124,-1038.7056 149.3548,-966.9313 161.5005,-877.457 166.3331,-832.7195"/>
<polygon fill="#000000" stroke="#000000" points="169.8322,-832.9085 167.3826,-822.6007 162.8695,-832.1862 169.8322,-832.9085"/>
<text text-anchor="middle" x="181.5" y="-956.7056" font-family="Times,serif" font-size="20.00" fill="#000000">300</text>
<text text-anchor="middle" x="181.5" y="-934.7056" font-family="Times,serif" font-size="20.00" fill="#000000">305</text>
</g>
<!-- SG_0_Node_14 -->
<g id="node22" class="node">
<title>SG_0_Node_14</title>
<polygon fill="none" stroke="#000000" points="395,-822.4924 253,-822.4924 253,-786.4924 395,-786.4924 395,-822.4924"/>
<text text-anchor="middle" x="324" y="-799.4924" font-family="Times,serif" font-size="20.00" fill="#000000">Status&#45;Code</text>
</g>
<!-- SG_0_Node_10&#45;&gt;SG_0_Node_14 -->
<g id="edge33" class="edge">
<title>SG_0_Node_10&#45;&gt;SG_0_Node_14</title>
<path fill="none" stroke="#000000" d="M252.7295,-1078.6279C237.587,-1037.4392 207.0203,-935.3483 244,-862.7056 251.2233,-848.5163 263.7044,-836.9703 276.6886,-828.0137"/>
<polygon fill="#000000" stroke="#000000" points="278.7341,-830.8594 285.2436,-822.5002 274.942,-824.9755 278.7341,-830.8594"/>
<text text-anchor="middle" x="355" y="-945.7056" font-family="Times,serif" font-size="20.00" fill="#000000">application/javascript</text>
</g>
<!-- SG_0_Node_28 -->
<g id="node23" class="node">
<title>SG_0_Node_28</title>
<ellipse fill="none" stroke="#000000" cx="448" cy="-804.4924" rx="34.7971" ry="21.4286"/>
<text text-anchor="middle" x="448" y="-799.4924" font-family="Times,serif" font-size="20.00" fill="#000000">1.0</text>
</g>
<!-- SG_0_Node_10&#45;&gt;SG_0_Node_28 -->
<g id="edge34" class="edge">
<title>SG_0_Node_10&#45;&gt;SG_0_Node_28</title>
<path fill="none" stroke="#000000" d="M337.733,-1079.7032C392.6387,-1066.7577 457.8576,-1049.4679 466,-1038.7056 511.6944,-978.3091 481.622,-882.2885 461.6618,-834.1105"/>
<polygon fill="#000000" stroke="#000000" points="464.8573,-832.6812 457.7085,-824.8616 458.4206,-835.4325 464.8573,-832.6812"/>
<text text-anchor="middle" x="536" y="-967.7056" font-family="Times,serif" font-size="20.00" fill="#000000">empty</text>
<text text-anchor="middle" x="536" y="-945.7056" font-family="Times,serif" font-size="20.00" fill="#000000">text/css</text>
<text text-anchor="middle" x="536" y="-923.7056" font-family="Times,serif" font-size="20.00" fill="#000000">text/html</text>
</g>
<!-- SG_0_Node_15 -->
<g id="node24" class="node">
<title>SG_0_Node_15</title>
<polygon fill="none" stroke="#000000" points="763,-822.4924 501,-822.4924 501,-786.4924 763,-786.4924 763,-822.4924"/>
<text text-anchor="middle" x="632" y="-799.4924" font-family="Times,serif" font-size="20.00" fill="#000000">X&#45;Content&#45;Type&#45;Options</text>
</g>
<!-- SG_0_Node_11&#45;&gt;SG_0_Node_15 -->
<g id="edge25" class="edge">
<title>SG_0_Node_11&#45;&gt;SG_0_Node_15</title>
<path fill="none" stroke="#000000" d="M486.3277,-1078.8409C528.635,-1064.9972 580.0242,-1046.9239 587,-1038.7056 637.444,-979.2768 638.0317,-880.5909 634.8108,-832.5267"/>
<polygon fill="#000000" stroke="#000000" points="638.2983,-832.228 634.0346,-822.5289 631.3193,-832.7699 638.2983,-832.228"/>
<text text-anchor="middle" x="641.5" y="-945.7056" font-family="Times,serif" font-size="20.00" fill="#000000">1</text>
</g>
<!-- SG_0_Node_29 -->
<g id="node25" class="node">
<title>SG_0_Node_29</title>
<ellipse fill="none" stroke="#000000" cx="816" cy="-804.4924" rx="34.7971" ry="21.4286"/>
<text text-anchor="middle" x="816" y="-799.4924" font-family="Times,serif" font-size="20.00" fill="#000000">1.0</text>
</g>
<!-- SG_0_Node_11&#45;&gt;SG_0_Node_29 -->
<g id="edge26" class="edge">
<title>SG_0_Node_11&#45;&gt;SG_0_Node_29</title>
<path fill="none" stroke="#000000" d="M491.5344,-1078.8223C495.4103,-1077.7534 499.2558,-1076.7068 503,-1075.7056 568.9175,-1058.0792 601.6246,-1084.7287 652,-1038.7056 713.1201,-982.8661 659.9839,-926.2904 713,-862.7056 717.934,-856.7881 752.4651,-837.8106 780.2054,-823.1145"/>
<polygon fill="#000000" stroke="#000000" points="782.0863,-826.0796 789.3,-818.3198 778.8218,-819.8874 782.0863,-826.0796"/>
<text text-anchor="middle" x="738" y="-967.7056" font-family="Times,serif" font-size="20.00" fill="#000000">[NA]</text>
<text text-anchor="middle" x="738" y="-945.7056" font-family="Times,serif" font-size="20.00" fill="#000000">2</text>
<text text-anchor="middle" x="738" y="-923.7056" font-family="Times,serif" font-size="20.00" fill="#000000">3</text>
</g>
<!-- SG_0_Node_16 -->
<g id="node26" class="node">
<title>SG_0_Node_16</title>
<polygon fill="none" stroke="#000000" points="999.5,-822.4924 868.5,-822.4924 868.5,-786.4924 999.5,-786.4924 999.5,-822.4924"/>
<text text-anchor="middle" x="934" y="-799.4924" font-family="Times,serif" font-size="20.00" fill="#000000">browser_id</text>
</g>
<!-- SG_0_Node_12&#45;&gt;SG_0_Node_16 -->
<g id="edge11" class="edge">
<title>SG_0_Node_12&#45;&gt;SG_0_Node_16</title>
<path fill="none" stroke="#000000" d="M763.0443,-1078.7094C766.3429,-1036.3578 779.7575,-929.7528 833,-862.7056 844.7345,-847.9286 861.3182,-836.1938 877.6626,-827.2451"/>
<polygon fill="#000000" stroke="#000000" points="879.4246,-830.274 886.6858,-822.5587 876.1981,-824.0618 879.4246,-830.274"/>
<text text-anchor="middle" x="865" y="-945.7056" font-family="Times,serif" font-size="20.00" fill="#000000">empty</text>
</g>
<!-- SG_0_Node_30 -->
<g id="node27" class="node">
<title>SG_0_Node_30</title>
<ellipse fill="none" stroke="#000000" cx="1052" cy="-804.4924" rx="34.7971" ry="21.4286"/>
<text text-anchor="middle" x="1052" y="-799.4924" font-family="Times,serif" font-size="20.00" fill="#000000">1.0</text>
</g>
<!-- SG_0_Node_12&#45;&gt;SG_0_Node_30 -->
<g id="edge12" class="edge">
<title>SG_0_Node_12&#45;&gt;SG_0_Node_30</title>
<path fill="none" stroke="#000000" d="M823.6515,-1078.9092C848.2735,-1069.6388 875.7594,-1056.4749 897,-1038.7056 966.4518,-980.6041 1016.7059,-883.5489 1039.0676,-834.6296"/>
<polygon fill="#000000" stroke="#000000" points="1042.3837,-835.7889 1043.2893,-825.2328 1035.9986,-832.9202 1042.3837,-835.7889"/>
<text text-anchor="middle" x="1086" y="-956.7056" font-family="Times,serif" font-size="20.00" fill="#000000">[NA]</text>
<text text-anchor="middle" x="1086" y="-934.7056" font-family="Times,serif" font-size="20.00" fill="#000000">same&#45;origin</text>
</g>
<!-- SG_0_Node_31 -->
<g id="node28" class="node">
<title>SG_0_Node_31</title>
<ellipse fill="none" stroke="#000000" cx="88" cy="-512.066" rx="34.7971" ry="21.4286"/>
<text text-anchor="middle" x="88" y="-507.066" font-family="Times,serif" font-size="20.00" fill="#000000">0.0</text>
</g>
<!-- SG_0_Node_13&#45;&gt;SG_0_Node_31 -->
<g id="edge41" class="edge">
<title>SG_0_Node_13&#45;&gt;SG_0_Node_31</title>
<path fill="none" stroke="#000000" d="M146.8783,-786.316C135.7012,-775.8326 123.0462,-761.693 116,-746.2792 85.278,-679.0736 83.9543,-590.2454 85.849,-543.666"/>
<polygon fill="#000000" stroke="#000000" points="89.3495,-543.7382 86.338,-533.5804 82.3577,-543.3992 89.3495,-543.7382"/>
<text text-anchor="middle" x="141" y="-675.2792" font-family="Times,serif" font-size="20.00" fill="#000000">[NA]</text>
<text text-anchor="middle" x="141" y="-653.2792" font-family="Times,serif" font-size="20.00" fill="#000000">2</text>
<text text-anchor="middle" x="141" y="-631.2792" font-family="Times,serif" font-size="20.00" fill="#000000">3</text>
</g>
<!-- SG_0_Node_32 -->
<g id="node29" class="node">
<title>SG_0_Node_32</title>
<ellipse fill="none" stroke="#000000" cx="175" cy="-512.066" rx="34.7971" ry="21.4286"/>
<text text-anchor="middle" x="175" y="-507.066" font-family="Times,serif" font-size="20.00" fill="#000000">1.0</text>
</g>
<!-- SG_0_Node_13&#45;&gt;SG_0_Node_32 -->
<g id="edge42" class="edge">
<title>SG_0_Node_13&#45;&gt;SG_0_Node_32</title>
<path fill="none" stroke="#000000" d="M169.3753,-786.1998C170.3725,-737.6022 173.0969,-604.8176 174.3517,-543.6645"/>
<polygon fill="#000000" stroke="#000000" points="177.8551,-543.5275 174.5611,-533.4577 170.8566,-543.3838 177.8551,-543.5275"/>
<text text-anchor="middle" x="179.5" y="-653.2792" font-family="Times,serif" font-size="20.00" fill="#000000">1</text>
</g>
<!-- SG_0_Node_33 -->
<g id="node30" class="node">
<title>SG_0_Node_33</title>
<ellipse fill="none" stroke="#000000" cx="263" cy="-512.066" rx="34.7971" ry="21.4286"/>
<text text-anchor="middle" x="263" y="-507.066" font-family="Times,serif" font-size="20.00" fill="#000000">0.0</text>
</g>
<!-- SG_0_Node_14&#45;&gt;SG_0_Node_33 -->
<g id="edge35" class="edge">
<title>SG_0_Node_14&#45;&gt;SG_0_Node_33</title>
<path fill="none" stroke="#000000" d="M311.7289,-786.4347C304.7949,-775.3326 296.6151,-760.5438 292,-746.2792 269.3482,-676.265 264.2062,-589.211 263.1546,-543.4872"/>
<polygon fill="#000000" stroke="#000000" points="266.6511,-543.2534 262.9736,-533.3173 259.6522,-543.378 266.6511,-543.2534"/>
<text text-anchor="middle" x="311.5" y="-730.2792" font-family="Times,serif" font-size="20.00" fill="#000000">200</text>
<text text-anchor="middle" x="311.5" y="-708.2792" font-family="Times,serif" font-size="20.00" fill="#000000">201</text>
<text text-anchor="middle" x="311.5" y="-686.2792" font-family="Times,serif" font-size="20.00" fill="#000000">202</text>
<text text-anchor="middle" x="311.5" y="-664.2792" font-family="Times,serif" font-size="20.00" fill="#000000">203</text>
<text text-anchor="middle" x="311.5" y="-642.2792" font-family="Times,serif" font-size="20.00" fill="#000000">206</text>
<text text-anchor="middle" x="311.5" y="-620.2792" font-family="Times,serif" font-size="20.00" fill="#000000">207</text>
<text text-anchor="middle" x="311.5" y="-598.2792" font-family="Times,serif" font-size="20.00" fill="#000000">208</text>
<text text-anchor="middle" x="311.5" y="-576.2792" font-family="Times,serif" font-size="20.00" fill="#000000">226</text>
</g>
<!-- SG_0_Node_17 -->
<g id="node31" class="node">
<title>SG_0_Node_17</title>
<polygon fill="none" stroke="#000000" points="446.5,-530.066 315.5,-530.066 315.5,-494.066 446.5,-494.066 446.5,-530.066"/>
<text text-anchor="middle" x="381" y="-507.066" font-family="Times,serif" font-size="20.00" fill="#000000">browser_id</text>
</g>
<!-- SG_0_Node_14&#45;&gt;SG_0_Node_17 -->
<g id="edge36" class="edge">
<title>SG_0_Node_14&#45;&gt;SG_0_Node_17</title>
<path fill="none" stroke="#000000" d="M327.5656,-786.1998C337.2222,-736.6586 363.9321,-599.6291 375.5192,-540.1843"/>
<polygon fill="#000000" stroke="#000000" points="378.9578,-540.8366 377.4357,-530.3517 372.0871,-539.4973 378.9578,-540.8366"/>
<text text-anchor="middle" x="388.5" y="-664.2792" font-family="Times,serif" font-size="20.00" fill="#000000">300</text>
<text text-anchor="middle" x="388.5" y="-642.2792" font-family="Times,serif" font-size="20.00" fill="#000000">305</text>
</g>
<!-- SG_0_Node_18 -->
<g id="node32" class="node">
<title>SG_0_Node_18</title>
<polygon fill="none" stroke="#000000" points="607,-530.066 465,-530.066 465,-494.066 607,-494.066 607,-530.066"/>
<text text-anchor="middle" x="536" y="-507.066" font-family="Times,serif" font-size="20.00" fill="#000000">Status&#45;Code</text>
</g>
<!-- SG_0_Node_15&#45;&gt;SG_0_Node_18 -->
<g id="edge27" class="edge">
<title>SG_0_Node_15&#45;&gt;SG_0_Node_18</title>
<path fill="none" stroke="#000000" d="M604.8928,-786.3179C591.8912,-776.12 577.3596,-762.242 569,-746.2792 533.7268,-678.9245 532.2147,-586.4803 534.079,-540.4736"/>
<polygon fill="#000000" stroke="#000000" points="537.5818,-540.5007 534.5769,-530.3409 530.5903,-540.1571 537.5818,-540.5007"/>
<text text-anchor="middle" x="601" y="-664.2792" font-family="Times,serif" font-size="20.00" fill="#000000">[NA]</text>
<text text-anchor="middle" x="601" y="-642.2792" font-family="Times,serif" font-size="20.00" fill="#000000">empty</text>
</g>
<!-- SG_0_Node_34 -->
<g id="node33" class="node">
<title>SG_0_Node_34</title>
<ellipse fill="none" stroke="#000000" cx="660" cy="-512.066" rx="34.7971" ry="21.4286"/>
<text text-anchor="middle" x="660" y="-507.066" font-family="Times,serif" font-size="20.00" fill="#000000">1.0</text>
</g>
<!-- SG_0_Node_15&#45;&gt;SG_0_Node_34 -->
<g id="edge28" class="edge">
<title>SG_0_Node_15&#45;&gt;SG_0_Node_34</title>
<path fill="none" stroke="#000000" d="M633.7515,-786.1998C638.4048,-737.6022 651.119,-604.8176 656.9744,-543.6645"/>
<polygon fill="#000000" stroke="#000000" points="660.4826,-543.7459 657.9517,-533.4577 653.5144,-543.0786 660.4826,-543.7459"/>
<text text-anchor="middle" x="689" y="-653.2792" font-family="Times,serif" font-size="20.00" fill="#000000">nosniff</text>
</g>
<!-- SG_0_Node_19 -->
<g id="node34" class="node">
<title>SG_0_Node_19</title>
<polygon fill="none" stroke="#000000" points="977,-530.066 715,-530.066 715,-494.066 977,-494.066 977,-530.066"/>
<text text-anchor="middle" x="846" y="-507.066" font-family="Times,serif" font-size="20.00" fill="#000000">X&#45;Content&#45;Type&#45;Options</text>
</g>
<!-- SG_0_Node_16&#45;&gt;SG_0_Node_19 -->
<g id="edge13" class="edge">
<title>SG_0_Node_16&#45;&gt;SG_0_Node_19</title>
<path fill="none" stroke="#000000" d="M924.6286,-786.4921C918.9902,-775.1652 911.9669,-760.1206 907,-746.2792 880.9196,-673.6006 860.8493,-584.5761 851.5996,-540.1243"/>
<polygon fill="#000000" stroke="#000000" points="855.0271,-539.4152 849.5861,-530.3242 848.1703,-540.824 855.0271,-539.4152"/>
<text text-anchor="middle" x="932" y="-675.2792" font-family="Times,serif" font-size="20.00" fill="#000000">[NA]</text>
<text text-anchor="middle" x="932" y="-653.2792" font-family="Times,serif" font-size="20.00" fill="#000000">2</text>
<text text-anchor="middle" x="932" y="-631.2792" font-family="Times,serif" font-size="20.00" fill="#000000">3</text>
</g>
<!-- SG_0_Node_35 -->
<g id="node35" class="node">
<title>SG_0_Node_35</title>
<ellipse fill="none" stroke="#000000" cx="1030" cy="-512.066" rx="34.7971" ry="21.4286"/>
<text text-anchor="middle" x="1030" y="-507.066" font-family="Times,serif" font-size="20.00" fill="#000000">1.0</text>
</g>
<!-- SG_0_Node_16&#45;&gt;SG_0_Node_35 -->
<g id="edge14" class="edge">
<title>SG_0_Node_16&#45;&gt;SG_0_Node_35</title>
<path fill="none" stroke="#000000" d="M941.6017,-786.2706C946.2613,-774.8603 952.2272,-759.8059 957,-746.2792 982.4407,-674.1774 1008.098,-588.0261 1021.1581,-542.9842"/>
<polygon fill="#000000" stroke="#000000" points="1024.5622,-543.8115 1023.9747,-533.233 1017.8371,-541.869 1024.5622,-543.8115"/>
<text text-anchor="middle" x="1019.5" y="-653.2792" font-family="Times,serif" font-size="20.00" fill="#000000">1</text>
</g>
<!-- SG_0_Node_36 -->
<g id="node36" class="node">
<title>SG_0_Node_36</title>
<ellipse fill="none" stroke="#000000" cx="311" cy="-219.6396" rx="34.7971" ry="21.4286"/>
<text text-anchor="middle" x="311" y="-214.6396" font-family="Times,serif" font-size="20.00" fill="#000000">0.0</text>
</g>
<!-- SG_0_Node_17&#45;&gt;SG_0_Node_36 -->
<g id="edge37" class="edge">
<title>SG_0_Node_17&#45;&gt;SG_0_Node_36</title>
<path fill="none" stroke="#000000" d="M359.4825,-493.8345C348.6596,-483.3349 336.4912,-469.1975 330,-453.8528 301.3203,-386.0561 303.6313,-297.47 307.4936,-251.0852"/>
<polygon fill="#000000" stroke="#000000" points="310.9865,-251.3206 308.4104,-241.0437 304.0155,-250.684 310.9865,-251.3206"/>
<text text-anchor="middle" x="355" y="-382.8528" font-family="Times,serif" font-size="20.00" fill="#000000">[NA]</text>
<text text-anchor="middle" x="355" y="-360.8528" font-family="Times,serif" font-size="20.00" fill="#000000">2</text>
<text text-anchor="middle" x="355" y="-338.8528" font-family="Times,serif" font-size="20.00" fill="#000000">3</text>
</g>
<!-- SG_0_Node_37 -->
<g id="node37" class="node">
<title>SG_0_Node_37</title>
<ellipse fill="none" stroke="#000000" cx="398" cy="-219.6396" rx="34.7971" ry="21.4286"/>
<text text-anchor="middle" x="398" y="-214.6396" font-family="Times,serif" font-size="20.00" fill="#000000">1.0</text>
</g>
<!-- SG_0_Node_17&#45;&gt;SG_0_Node_37 -->
<g id="edge38" class="edge">
<title>SG_0_Node_17&#45;&gt;SG_0_Node_37</title>
<path fill="none" stroke="#000000" d="M382.0634,-493.7734C384.8886,-445.1758 392.608,-312.3912 396.163,-251.2381"/>
<polygon fill="#000000" stroke="#000000" points="399.6701,-251.2176 396.7564,-241.0313 392.6819,-250.8113 399.6701,-251.2176"/>
<text text-anchor="middle" x="400.5" y="-360.8528" font-family="Times,serif" font-size="20.00" fill="#000000">1</text>
</g>
<!-- SG_0_Node_38 -->
<g id="node38" class="node">
<title>SG_0_Node_38</title>
<ellipse fill="none" stroke="#000000" cx="518" cy="-219.6396" rx="34.7971" ry="21.4286"/>
<text text-anchor="middle" x="518" y="-214.6396" font-family="Times,serif" font-size="20.00" fill="#000000">0.0</text>
</g>
<!-- SG_0_Node_18&#45;&gt;SG_0_Node_38 -->
<g id="edge29" class="edge">
<title>SG_0_Node_18&#45;&gt;SG_0_Node_38</title>
<path fill="none" stroke="#000000" d="M534.874,-493.7734C531.8826,-445.1758 523.7092,-312.3912 519.945,-251.2381"/>
<polygon fill="#000000" stroke="#000000" points="523.4246,-250.7974 519.3167,-241.0313 516.4378,-251.2275 523.4246,-250.7974"/>
<text text-anchor="middle" x="551.5" y="-437.8528" font-family="Times,serif" font-size="20.00" fill="#000000">200</text>
<text text-anchor="middle" x="551.5" y="-415.8528" font-family="Times,serif" font-size="20.00" fill="#000000">201</text>
<text text-anchor="middle" x="551.5" y="-393.8528" font-family="Times,serif" font-size="20.00" fill="#000000">202</text>
<text text-anchor="middle" x="551.5" y="-371.8528" font-family="Times,serif" font-size="20.00" fill="#000000">203</text>
<text text-anchor="middle" x="551.5" y="-349.8528" font-family="Times,serif" font-size="20.00" fill="#000000">206</text>
<text text-anchor="middle" x="551.5" y="-327.8528" font-family="Times,serif" font-size="20.00" fill="#000000">207</text>
<text text-anchor="middle" x="551.5" y="-305.8528" font-family="Times,serif" font-size="20.00" fill="#000000">208</text>
<text text-anchor="middle" x="551.5" y="-283.8528" font-family="Times,serif" font-size="20.00" fill="#000000">226</text>
</g>
<!-- SG_0_Node_39 -->
<g id="node39" class="node">
<title>SG_0_Node_39</title>
<ellipse fill="none" stroke="#000000" cx="605" cy="-219.6396" rx="34.7971" ry="21.4286"/>
<text text-anchor="middle" x="605" y="-214.6396" font-family="Times,serif" font-size="20.00" fill="#000000">1.0</text>
</g>
<!-- SG_0_Node_18&#45;&gt;SG_0_Node_39 -->
<g id="edge30" class="edge">
<title>SG_0_Node_18&#45;&gt;SG_0_Node_39</title>
<path fill="none" stroke="#000000" d="M551.3988,-493.8939C559.7817,-482.9854 569.5317,-468.4321 575,-453.8528 600.8563,-384.916 605.1986,-297.4276 605.4876,-251.3486"/>
<polygon fill="#000000" stroke="#000000" points="608.9875,-251.0958 605.4879,-241.0957 601.9875,-251.0955 608.9875,-251.0958"/>
<text text-anchor="middle" x="623.5" y="-371.8528" font-family="Times,serif" font-size="20.00" fill="#000000">300</text>
<text text-anchor="middle" x="623.5" y="-349.8528" font-family="Times,serif" font-size="20.00" fill="#000000">305</text>
</g>
<!-- SG_0_Node_40 -->
<g id="node40" class="node">
<title>SG_0_Node_40</title>
<ellipse fill="none" stroke="#000000" cx="765" cy="-219.6396" rx="34.7971" ry="21.4286"/>
<text text-anchor="middle" x="765" y="-214.6396" font-family="Times,serif" font-size="20.00" fill="#000000">0.0</text>
</g>
<!-- SG_0_Node_19&#45;&gt;SG_0_Node_40 -->
<g id="edge15" class="edge">
<title>SG_0_Node_19&#45;&gt;SG_0_Node_40</title>
<path fill="none" stroke="#000000" d="M820.6111,-493.9519C808.2755,-483.6788 794.5233,-469.7144 787,-453.8528 755.3369,-387.0965 757.4382,-297.7271 761.3953,-251.0418"/>
<polygon fill="#000000" stroke="#000000" points="764.8936,-251.2222 762.3387,-240.9401 757.9239,-250.5713 764.8936,-251.2222"/>
<text text-anchor="middle" x="819" y="-360.8528" font-family="Times,serif" font-size="20.00" fill="#000000">empty</text>
</g>
<!-- SG_0_Node_20 -->
<g id="node41" class="node">
<title>SG_0_Node_20</title>
<polygon fill="none" stroke="#000000" points="972.5,-237.6396 817.5,-237.6396 817.5,-201.6396 972.5,-201.6396 972.5,-237.6396"/>
<text text-anchor="middle" x="895" y="-214.6396" font-family="Times,serif" font-size="20.00" fill="#000000">Content&#45;Type</text>
</g>
<!-- SG_0_Node_19&#45;&gt;SG_0_Node_20 -->
<g id="edge16" class="edge">
<title>SG_0_Node_19&#45;&gt;SG_0_Node_20</title>
<path fill="none" stroke="#000000" d="M849.0652,-493.7734C857.3493,-444.3347 880.2326,-307.7698 890.2264,-248.1281"/>
<polygon fill="#000000" stroke="#000000" points="893.7352,-248.3662 891.936,-237.9253 886.8314,-247.2093 893.7352,-248.3662"/>
<text text-anchor="middle" x="920" y="-371.8528" font-family="Times,serif" font-size="20.00" fill="#000000">[NA]</text>
<text text-anchor="middle" x="920" y="-349.8528" font-family="Times,serif" font-size="20.00" fill="#000000">nosniff</text>
</g>
<!-- SG_0_Node_41 -->
<g id="node42" class="node">
<title>SG_0_Node_41</title>
<ellipse fill="none" stroke="#000000" cx="706" cy="-37.2132" rx="34.7971" ry="21.4286"/>
<text text-anchor="middle" x="706" y="-32.2132" font-family="Times,serif" font-size="20.00" fill="#000000">0.0</text>
</g>
<!-- SG_0_Node_20&#45;&gt;SG_0_Node_41 -->
<g id="edge17" class="edge">
<title>SG_0_Node_20&#45;&gt;SG_0_Node_41</title>
<path fill="none" stroke="#000000" d="M822.0811,-201.6034C772.0205,-188.4863 713.329,-171.3526 706,-161.4264 686.3504,-134.8137 690.25,-95.4934 696.5317,-68.2509"/>
<polygon fill="#000000" stroke="#000000" points="699.9509,-69.0061 699.0118,-58.453 693.1649,-67.2884 699.9509,-69.0061"/>
<text text-anchor="middle" x="817" y="-123.4264" font-family="Times,serif" font-size="20.00" fill="#000000">application/javascript</text>
</g>
<!-- SG_0_Node_42 -->
<g id="node43" class="node">
<title>SG_0_Node_42</title>
<ellipse fill="none" stroke="#000000" cx="964" cy="-37.2132" rx="34.7971" ry="21.4286"/>
<text text-anchor="middle" x="964" y="-32.2132" font-family="Times,serif" font-size="20.00" fill="#000000">1.0</text>
</g>
<!-- SG_0_Node_20&#45;&gt;SG_0_Node_42 -->
<g id="edge18" class="edge">
<title>SG_0_Node_20&#45;&gt;SG_0_Node_42</title>
<path fill="none" stroke="#000000" d="M908.5654,-201.595C916.362,-190.4975 925.8066,-175.709 932,-161.4264 945.1594,-131.0796 953.821,-94.1318 958.7741,-68.4592"/>
<polygon fill="#000000" stroke="#000000" points="962.2321,-69.007 960.6123,-58.5368 955.3492,-67.7319 962.2321,-69.007"/>
<text text-anchor="middle" x="999" y="-145.4264" font-family="Times,serif" font-size="20.00" fill="#000000">empty</text>
<text text-anchor="middle" x="999" y="-123.4264" font-family="Times,serif" font-size="20.00" fill="#000000">text/css</text>
<text text-anchor="middle" x="999" y="-101.4264" font-family="Times,serif" font-size="20.00" fill="#000000">text/html</text>
</g>
</g>
</svg>
