<?xml version="1.0" encoding="UTF-8" standalone="no"?>
<!DOCTYPE svg PUBLIC "-//W3C//DTD SVG 1.1//EN"
 "http://www.w3.org/Graphics/SVG/1.1/DTD/svg11.dtd">
<!-- Generated by graphviz version 2.40.1 (20161225.0304)
 -->
<!-- Title: G Pages: 1 -->
<svg width="1348pt" height="1515pt"
 viewBox="0.00 0.00 1348.00 1514.98" xmlns="http://www.w3.org/2000/svg" xmlns:xlink="http://www.w3.org/1999/xlink">
<g id="graph0" class="graph" transform="scale(1 1) rotate(0) translate(4 1510.9848)">
<title>G</title>
<polygon fill="#ffffff" stroke="transparent" points="-4,4 -4,-1510.9848 1344,-1510.9848 1344,4 -4,4"/>
<g id="clust1" class="cluster">
<title>cluster_0</title>
<polygon fill="none" stroke="#000000" points="8,-8 8,-1498.9848 1332,-1498.9848 1332,-8 8,-8"/>
<text text-anchor="middle" x="670" y="-1462.9848" font-family="Times,serif" font-size="40.00" fill="#000000">Tree 0, Class [&#39;Message: mes1 Origin: https://172.17.0.1:44300&#39;]</text>
</g>
<!-- SG_0_Node_0 -->
<g id="node1" class="node">
<title>SG_0_Node_0</title>
<polygon fill="none" stroke="#000000" points="147.5,-1438.9848 82.5,-1438.9848 82.5,-1402.9848 147.5,-1402.9848 147.5,-1438.9848"/>
<text text-anchor="middle" x="115" y="-1415.9848" font-family="Times,serif" font-size="20.00" fill="#000000">body</text>
</g>
<!-- SG_0_Node_7 -->
<g id="node2" class="node">
<title>SG_0_Node_7</title>
<ellipse fill="none" stroke="#000000" cx="51" cy="-1263.7716" rx="34.7971" ry="21.4286"/>
<text text-anchor="middle" x="51" y="-1258.7716" font-family="Times,serif" font-size="20.00" fill="#000000">0.0</text>
</g>
<!-- SG_0_Node_0&#45;&gt;SG_0_Node_7 -->
<g id="edge1" class="edge">
<title>SG_0_Node_0&#45;&gt;SG_0_Node_7</title>
<path fill="none" stroke="#000000" d="M93.2079,-1402.7894C82.9493,-1392.9772 71.5534,-1380.0153 65,-1365.9848 54.6725,-1343.8741 51.3724,-1316.3458 50.5448,-1295.4298"/>
<polygon fill="#000000" stroke="#000000" points="54.0378,-1295.0771 50.3133,-1285.1586 47.0396,-1295.2349 54.0378,-1295.0771"/>
<text text-anchor="middle" x="111" y="-1349.9848" font-family="Times,serif" font-size="20.00" fill="#000000">[NA]</text>
<text text-anchor="middle" x="111" y="-1327.9848" font-family="Times,serif" font-size="20.00" fill="#000000">11 levels</text>
</g>
<!-- SG_0_Node_1 -->
<g id="node3" class="node">
<title>SG_0_Node_1</title>
<polygon fill="none" stroke="#000000" points="250,-1281.7716 108,-1281.7716 108,-1245.7716 250,-1245.7716 250,-1281.7716"/>
<text text-anchor="middle" x="179" y="-1258.7716" font-family="Times,serif" font-size="20.00" fill="#000000">Status&#45;Code</text>
</g>
<!-- SG_0_Node_0&#45;&gt;SG_0_Node_1 -->
<g id="edge2" class="edge">
<title>SG_0_Node_0&#45;&gt;SG_0_Node_1</title>
<path fill="none" stroke="#000000" d="M132.4302,-1402.4933C141.0355,-1392.4103 150.8619,-1379.2952 157,-1365.9848 167.9246,-1342.295 173.5168,-1312.9895 176.3207,-1291.84"/>
<polygon fill="#000000" stroke="#000000" points="179.7988,-1292.231 177.5154,-1281.8852 172.8487,-1291.3969 179.7988,-1292.231"/>
<text text-anchor="middle" x="350" y="-1338.9848" font-family="Times,serif" font-size="20.00" fill="#000000">ecocnt_html=post_message=mes1</text>
</g>
<!-- SG_0_Node_8 -->
<g id="node4" class="node">
<title>SG_0_Node_8</title>
<ellipse fill="none" stroke="#000000" cx="51" cy="-971.3452" rx="34.7971" ry="21.4286"/>
<text text-anchor="middle" x="51" y="-966.3452" font-family="Times,serif" font-size="20.00" fill="#000000">0.0</text>
</g>
<!-- SG_0_Node_1&#45;&gt;SG_0_Node_8 -->
<g id="edge3" class="edge">
<title>SG_0_Node_1&#45;&gt;SG_0_Node_8</title>
<path fill="none" stroke="#000000" d="M131.4219,-1245.5456C113.4399,-1236.2688 94.5494,-1223.1581 83,-1205.5584 41.8666,-1142.8768 43.1439,-1050.3856 47.2493,-1002.5492"/>
<polygon fill="#000000" stroke="#000000" points="50.7429,-1002.7822 48.2121,-992.4941 43.7748,-1002.1149 50.7429,-1002.7822"/>
<text text-anchor="middle" x="129" y="-1123.5584" font-family="Times,serif" font-size="20.00" fill="#000000">[NA]</text>
<text text-anchor="middle" x="129" y="-1101.5584" font-family="Times,serif" font-size="20.00" fill="#000000">55 levels</text>
</g>
<!-- SG_0_Node_2 -->
<g id="node5" class="node">
<title>SG_0_Node_2</title>
<polygon fill="none" stroke="#000000" points="258.5,-989.3452 103.5,-989.3452 103.5,-953.3452 258.5,-953.3452 258.5,-989.3452"/>
<text text-anchor="middle" x="181" y="-966.3452" font-family="Times,serif" font-size="20.00" fill="#000000">Content&#45;Type</text>
</g>
<!-- SG_0_Node_1&#45;&gt;SG_0_Node_2 -->
<g id="edge4" class="edge">
<title>SG_0_Node_1&#45;&gt;SG_0_Node_2</title>
<path fill="none" stroke="#000000" d="M179.1251,-1245.4791C179.4632,-1196.0403 180.3972,-1059.4754 180.8052,-999.8338"/>
<polygon fill="#000000" stroke="#000000" points="184.3064,-999.6546 180.8749,-989.6309 177.3065,-999.6067 184.3064,-999.6546"/>
<text text-anchor="middle" x="199.5" y="-1189.5584" font-family="Times,serif" font-size="20.00" fill="#000000">200</text>
<text text-anchor="middle" x="199.5" y="-1167.5584" font-family="Times,serif" font-size="20.00" fill="#000000">201</text>
<text text-anchor="middle" x="199.5" y="-1145.5584" font-family="Times,serif" font-size="20.00" fill="#000000">202</text>
<text text-anchor="middle" x="199.5" y="-1123.5584" font-family="Times,serif" font-size="20.00" fill="#000000">203</text>
<text text-anchor="middle" x="199.5" y="-1101.5584" font-family="Times,serif" font-size="20.00" fill="#000000">206</text>
<text text-anchor="middle" x="199.5" y="-1079.5584" font-family="Times,serif" font-size="20.00" fill="#000000">207</text>
<text text-anchor="middle" x="199.5" y="-1057.5584" font-family="Times,serif" font-size="20.00" fill="#000000">208</text>
<text text-anchor="middle" x="199.5" y="-1035.5584" font-family="Times,serif" font-size="20.00" fill="#000000">226</text>
</g>
<!-- SG_0_Node_9 -->
<g id="node6" class="node">
<title>SG_0_Node_9</title>
<ellipse fill="none" stroke="#000000" cx="116" cy="-700.9188" rx="34.7971" ry="21.4286"/>
<text text-anchor="middle" x="116" y="-695.9188" font-family="Times,serif" font-size="20.00" fill="#000000">0.0</text>
</g>
<!-- SG_0_Node_2&#45;&gt;SG_0_Node_9 -->
<g id="edge5" class="edge">
<title>SG_0_Node_2&#45;&gt;SG_0_Node_9</title>
<path fill="none" stroke="#000000" d="M159.3901,-953.1524C148.5402,-942.6641 136.3754,-928.5252 130,-913.132 105.0578,-852.9099 107.8584,-774.8276 112,-732.157"/>
<polygon fill="#000000" stroke="#000000" points="115.492,-732.4172 113.0658,-722.104 108.531,-731.6792 115.492,-732.4172"/>
<text text-anchor="middle" x="241" y="-897.132" font-family="Times,serif" font-size="20.00" fill="#000000">[NA]</text>
<text text-anchor="middle" x="241" y="-875.132" font-family="Times,serif" font-size="20.00" fill="#000000">application/javascript</text>
<text text-anchor="middle" x="241" y="-853.132" font-family="Times,serif" font-size="20.00" fill="#000000">application/pdf</text>
<text text-anchor="middle" x="241" y="-831.132" font-family="Times,serif" font-size="20.00" fill="#000000">audio/wav</text>
<text text-anchor="middle" x="241" y="-809.132" font-family="Times,serif" font-size="20.00" fill="#000000">image/png</text>
<text text-anchor="middle" x="241" y="-787.132" font-family="Times,serif" font-size="20.00" fill="#000000">text/css</text>
<text text-anchor="middle" x="241" y="-765.132" font-family="Times,serif" font-size="20.00" fill="#000000">video/mp4</text>
</g>
<!-- SG_0_Node_3 -->
<g id="node7" class="node">
<title>SG_0_Node_3</title>
<polygon fill="none" stroke="#000000" points="439.5,-718.9188 308.5,-718.9188 308.5,-682.9188 439.5,-682.9188 439.5,-718.9188"/>
<text text-anchor="middle" x="374" y="-695.9188" font-family="Times,serif" font-size="20.00" fill="#000000">browser_id</text>
</g>
<!-- SG_0_Node_2&#45;&gt;SG_0_Node_3 -->
<g id="edge6" class="edge">
<title>SG_0_Node_2&#45;&gt;SG_0_Node_3</title>
<path fill="none" stroke="#000000" d="M258.5112,-953.6343C297.7372,-943.0387 339.636,-928.6427 352,-913.132 394.552,-859.7504 387.2373,-773.2397 379.8026,-728.9696"/>
<polygon fill="#000000" stroke="#000000" points="383.2098,-728.1421 377.989,-718.9229 376.3212,-729.3856 383.2098,-728.1421"/>
<text text-anchor="middle" x="432" y="-842.132" font-family="Times,serif" font-size="20.00" fill="#000000">empty</text>
<text text-anchor="middle" x="432" y="-820.132" font-family="Times,serif" font-size="20.00" fill="#000000">text/html</text>
</g>
<!-- SG_0_Node_10 -->
<g id="node8" class="node">
<title>SG_0_Node_10</title>
<ellipse fill="none" stroke="#000000" cx="307" cy="-518.4924" rx="34.7971" ry="21.4286"/>
<text text-anchor="middle" x="307" y="-513.4924" font-family="Times,serif" font-size="20.00" fill="#000000">0.0</text>
</g>
<!-- SG_0_Node_3&#45;&gt;SG_0_Node_10 -->
<g id="edge7" class="edge">
<title>SG_0_Node_3&#45;&gt;SG_0_Node_10</title>
<path fill="none" stroke="#000000" d="M367.0982,-682.8498C362.7306,-671.3679 356.9873,-656.1818 352,-642.7056 340.2456,-610.944 327.0802,-574.4985 318.0418,-549.3386"/>
<polygon fill="#000000" stroke="#000000" points="321.2276,-547.8538 314.5555,-539.6237 314.639,-550.2182 321.2276,-547.8538"/>
<text text-anchor="middle" x="377" y="-626.7056" font-family="Times,serif" font-size="20.00" fill="#000000">[NA]</text>
<text text-anchor="middle" x="377" y="-604.7056" font-family="Times,serif" font-size="20.00" fill="#000000">2</text>
<text text-anchor="middle" x="377" y="-582.7056" font-family="Times,serif" font-size="20.00" fill="#000000">3</text>
</g>
<!-- SG_0_Node_4 -->
<g id="node9" class="node">
<title>SG_0_Node_4</title>
<polygon fill="none" stroke="#000000" points="550.5,-536.4924 359.5,-536.4924 359.5,-500.4924 550.5,-500.4924 550.5,-536.4924"/>
<text text-anchor="middle" x="455" y="-513.4924" font-family="Times,serif" font-size="20.00" fill="#000000">X&#45;Frame&#45;Options</text>
</g>
<!-- SG_0_Node_3&#45;&gt;SG_0_Node_4 -->
<g id="edge8" class="edge">
<title>SG_0_Node_3&#45;&gt;SG_0_Node_4</title>
<path fill="none" stroke="#000000" d="M383.0401,-682.6653C388.632,-671.243 395.8853,-656.1872 402,-642.7056 416.9618,-609.7182 433.1675,-571.3078 443.6667,-546.0337"/>
<polygon fill="#000000" stroke="#000000" points="446.9368,-547.2849 447.5299,-536.7067 440.4695,-544.6062 446.9368,-547.2849"/>
<text text-anchor="middle" x="436.5" y="-604.7056" font-family="Times,serif" font-size="20.00" fill="#000000">1</text>
</g>
<!-- SG_0_Node_11 -->
<g id="node10" class="node">
<title>SG_0_Node_11</title>
<ellipse fill="none" stroke="#000000" cx="383" cy="-358.066" rx="34.7971" ry="21.4286"/>
<text text-anchor="middle" x="383" y="-353.066" font-family="Times,serif" font-size="20.00" fill="#000000">0.0</text>
</g>
<!-- SG_0_Node_4&#45;&gt;SG_0_Node_11 -->
<g id="edge9" class="edge">
<title>SG_0_Node_4&#45;&gt;SG_0_Node_11</title>
<path fill="none" stroke="#000000" d="M446.8806,-500.4013C434.5961,-473.0296 411.1514,-420.7913 396.3367,-387.7822"/>
<polygon fill="#000000" stroke="#000000" points="399.5087,-386.3017 392.2209,-378.6115 393.1224,-389.1679 399.5087,-386.3017"/>
<text text-anchor="middle" x="452.5" y="-433.2792" font-family="Times,serif" font-size="20.00" fill="#000000">deny</text>
</g>
<!-- SG_0_Node_5 -->
<g id="node11" class="node">
<title>SG_0_Node_5</title>
<polygon fill="none" stroke="#000000" points="656.5,-376.066 435.5,-376.066 435.5,-340.066 656.5,-340.066 656.5,-376.066"/>
<text text-anchor="middle" x="546" y="-353.066" font-family="Times,serif" font-size="20.00" fill="#000000">Content&#45;Disposition</text>
</g>
<!-- SG_0_Node_4&#45;&gt;SG_0_Node_5 -->
<g id="edge10" class="edge">
<title>SG_0_Node_4&#45;&gt;SG_0_Node_5</title>
<path fill="none" stroke="#000000" d="M465.262,-500.4013C481.169,-472.3584 511.8816,-418.2143 530.5013,-385.3891"/>
<polygon fill="#000000" stroke="#000000" points="533.7463,-386.7621 535.6359,-376.3371 527.6576,-383.3084 533.7463,-386.7621"/>
<text text-anchor="middle" x="544" y="-444.2792" font-family="Times,serif" font-size="20.00" fill="#000000">[NA]</text>
<text text-anchor="middle" x="544" y="-422.2792" font-family="Times,serif" font-size="20.00" fill="#000000">empty</text>
</g>
<!-- SG_0_Node_12 -->
<g id="node12" class="node">
<title>SG_0_Node_12</title>
<ellipse fill="none" stroke="#000000" cx="447" cy="-197.6396" rx="34.7971" ry="21.4286"/>
<text text-anchor="middle" x="447" y="-192.6396" font-family="Times,serif" font-size="20.00" fill="#000000">0.0</text>
</g>
<!-- SG_0_Node_5&#45;&gt;SG_0_Node_12 -->
<g id="edge11" class="edge">
<title>SG_0_Node_5&#45;&gt;SG_0_Node_12</title>
<path fill="none" stroke="#000000" d="M525.131,-339.9509C513.6504,-329.1725 499.7918,-314.7295 490,-299.8528 475.3554,-277.6033 463.9801,-249.5472 456.6181,-228.4601"/>
<polygon fill="#000000" stroke="#000000" points="459.8456,-227.0782 453.3296,-218.7241 453.2137,-229.3183 459.8456,-227.0782"/>
<text text-anchor="middle" x="549" y="-272.8528" font-family="Times,serif" font-size="20.00" fill="#000000">attachment</text>
</g>
<!-- SG_0_Node_6 -->
<g id="node13" class="node">
<title>SG_0_Node_6</title>
<polygon fill="none" stroke="#000000" points="816.5,-215.6396 499.5,-215.6396 499.5,-179.6396 816.5,-179.6396 816.5,-215.6396"/>
<text text-anchor="middle" x="658" y="-192.6396" font-family="Times,serif" font-size="20.00" fill="#000000">Cross&#45;Origin&#45;Resource&#45;Policy</text>
</g>
<!-- SG_0_Node_5&#45;&gt;SG_0_Node_6 -->
<g id="edge12" class="edge">
<title>SG_0_Node_5&#45;&gt;SG_0_Node_6</title>
<path fill="none" stroke="#000000" d="M569.1787,-339.8562C581.7589,-329.156 596.9509,-314.82 608,-299.8528 625.1173,-276.6655 638.9636,-246.7096 647.7078,-225.2309"/>
<polygon fill="#000000" stroke="#000000" points="651.0445,-226.3108 651.471,-215.7246 644.5359,-223.7342 651.0445,-226.3108"/>
<text text-anchor="middle" x="665" y="-283.8528" font-family="Times,serif" font-size="20.00" fill="#000000">[NA]</text>
<text text-anchor="middle" x="665" y="-261.8528" font-family="Times,serif" font-size="20.00" fill="#000000">empty</text>
</g>
<!-- SG_0_Node_13 -->
<g id="node14" class="node">
<title>SG_0_Node_13</title>
<ellipse fill="none" stroke="#000000" cx="579" cy="-37.2132" rx="34.7971" ry="21.4286"/>
<text text-anchor="middle" x="579" y="-32.2132" font-family="Times,serif" font-size="20.00" fill="#000000">0.0</text>
</g>
<!-- SG_0_Node_6&#45;&gt;SG_0_Node_13 -->
<g id="edge13" class="edge">
<title>SG_0_Node_6&#45;&gt;SG_0_Node_13</title>
<path fill="none" stroke="#000000" d="M629.6772,-179.4006C616.3428,-169.2751 601.5276,-155.4807 593,-139.4264 581.4278,-117.6402 578.2551,-89.7103 577.7936,-68.5536"/>
<polygon fill="#000000" stroke="#000000" points="581.2934,-68.4624 577.7644,-58.4726 574.2935,-68.4827 581.2934,-68.4624"/>
<text text-anchor="middle" x="654" y="-112.4264" font-family="Times,serif" font-size="20.00" fill="#000000">same&#45;origin</text>
</g>
<!-- SG_0_Node_14 -->
<g id="node15" class="node">
<title>SG_0_Node_14</title>
<ellipse fill="none" stroke="#000000" cx="737" cy="-37.2132" rx="34.7971" ry="21.4286"/>
<text text-anchor="middle" x="737" y="-32.2132" font-family="Times,serif" font-size="20.00" fill="#000000">1.0</text>
</g>
<!-- SG_0_Node_6&#45;&gt;SG_0_Node_14 -->
<g id="edge14" class="edge">
<title>SG_0_Node_6&#45;&gt;SG_0_Node_14</title>
<path fill="none" stroke="#000000" d="M681.2094,-179.4897C693.0596,-169.014 706.6925,-154.8734 715,-139.4264 726.768,-117.545 732.2412,-89.8425 734.7867,-68.7988"/>
<polygon fill="#000000" stroke="#000000" points="738.277,-69.0746 735.8425,-58.7633 731.3154,-68.3422 738.277,-69.0746"/>
<text text-anchor="middle" x="762" y="-123.4264" font-family="Times,serif" font-size="20.00" fill="#000000">[NA]</text>
<text text-anchor="middle" x="762" y="-101.4264" font-family="Times,serif" font-size="20.00" fill="#000000">empty</text>
</g>
</g>
</svg>
