<?xml version="1.0" encoding="UTF-8" standalone="no"?>
<!DOCTYPE svg PUBLIC "-//W3C//DTD SVG 1.1//EN"
 "http://www.w3.org/Graphics/SVG/1.1/DTD/svg11.dtd">
<!-- Generated by graphviz version 2.40.1 (20161225.0304)
 -->
<!-- Title: G Pages: 1 -->
<svg width="940pt" height="2225pt"
 viewBox="0.00 0.00 940.00 2225.41" xmlns="http://www.w3.org/2000/svg" xmlns:xlink="http://www.w3.org/1999/xlink">
<g id="graph0" class="graph" transform="scale(1 1) rotate(0) translate(4 2221.4113)">
<title>G</title>
<polygon fill="#ffffff" stroke="transparent" points="-4,4 -4,-2221.4113 936,-2221.4113 936,4 -4,4"/>
<g id="clust1" class="cluster">
<title>cluster_0</title>
<polygon fill="none" stroke="#000000" points="8,-8 8,-2209.4113 796,-2209.4113 796,-8 8,-8"/>
<text text-anchor="middle" x="402" y="-2173.4113" font-family="Times,serif" font-size="40.00" fill="#000000">Tree 0, Class {&#39;H1&#39;: &#39;rgb(0, 0, 0)&#39;}</text>
</g>
<!-- SG_0_Node_0 -->
<g id="node1" class="node">
<title>SG_0_Node_0</title>
<polygon fill="none" stroke="#000000" points="551.5,-2149.4113 486.5,-2149.4113 486.5,-2113.4113 551.5,-2113.4113 551.5,-2149.4113"/>
<text text-anchor="middle" x="519" y="-2126.4113" font-family="Times,serif" font-size="20.00" fill="#000000">body</text>
</g>
<!-- SG_0_Node_1 -->
<g id="node2" class="node">
<title>SG_0_Node_1</title>
<polygon fill="none" stroke="#000000" points="425,-1992.1981 283,-1992.1981 283,-1956.1981 425,-1956.1981 425,-1992.1981"/>
<text text-anchor="middle" x="354" y="-1969.1981" font-family="Times,serif" font-size="20.00" fill="#000000">Status&#45;Code</text>
</g>
<!-- SG_0_Node_0&#45;&gt;SG_0_Node_1 -->
<g id="edge1" class="edge">
<title>SG_0_Node_0&#45;&gt;SG_0_Node_1</title>
<path fill="none" stroke="#000000" d="M486.4526,-2123.7393C446.7843,-2113.7087 383.1527,-2095.195 368,-2076.4113 351.3774,-2055.8054 349.283,-2024.9188 350.4815,-2002.4932"/>
<polygon fill="#000000" stroke="#000000" points="353.9925,-2002.4891 351.2852,-1992.246 347.0139,-2001.9417 353.9925,-2002.4891"/>
<text text-anchor="middle" x="515.5" y="-2049.4113" font-family="Times,serif" font-size="20.00" fill="#000000">ecocnt_css=h1 {color: blue}</text>
</g>
<!-- SG_0_Node_17 -->
<g id="node3" class="node">
<title>SG_0_Node_17</title>
<ellipse fill="none" stroke="#000000" cx="685" cy="-1974.1981" rx="34.7971" ry="21.4286"/>
<text text-anchor="middle" x="685" y="-1969.1981" font-family="Times,serif" font-size="20.00" fill="#000000">1.0</text>
</g>
<!-- SG_0_Node_0&#45;&gt;SG_0_Node_17 -->
<g id="edge2" class="edge">
<title>SG_0_Node_0&#45;&gt;SG_0_Node_17</title>
<path fill="none" stroke="#000000" d="M551.5705,-2127.9206C584.6067,-2122.6019 634.7743,-2109.3179 663,-2076.4113 679.6557,-2056.9933 684.6403,-2027.9761 685.7563,-2005.8145"/>
<polygon fill="#000000" stroke="#000000" points="689.2618,-2005.647 686.0275,-1995.5579 682.2643,-2005.4619 689.2618,-2005.647"/>
<text text-anchor="middle" x="728" y="-2060.4113" font-family="Times,serif" font-size="20.00" fill="#000000">[NA]</text>
<text text-anchor="middle" x="728" y="-2038.4113" font-family="Times,serif" font-size="20.00" fill="#000000">11 levels</text>
</g>
<!-- SG_0_Node_2 -->
<g id="node4" class="node">
<title>SG_0_Node_2</title>
<polygon fill="none" stroke="#000000" points="389.5,-1658.9848 234.5,-1658.9848 234.5,-1622.9848 389.5,-1622.9848 389.5,-1658.9848"/>
<text text-anchor="middle" x="312" y="-1635.9848" font-family="Times,serif" font-size="20.00" fill="#000000">Content&#45;Type</text>
</g>
<!-- SG_0_Node_1&#45;&gt;SG_0_Node_2 -->
<g id="edge3" class="edge">
<title>SG_0_Node_1&#45;&gt;SG_0_Node_2</title>
<path fill="none" stroke="#000000" d="M351.6821,-1955.8084C344.7262,-1900.6231 323.9948,-1736.1473 315.5945,-1669.5027"/>
<polygon fill="#000000" stroke="#000000" points="319.0339,-1668.8014 314.3108,-1659.3176 312.0889,-1669.6769 319.0339,-1668.8014"/>
<text text-anchor="middle" x="365.5" y="-1899.9848" font-family="Times,serif" font-size="20.00" fill="#000000">200</text>
<text text-anchor="middle" x="365.5" y="-1877.9848" font-family="Times,serif" font-size="20.00" fill="#000000">201</text>
<text text-anchor="middle" x="365.5" y="-1855.9848" font-family="Times,serif" font-size="20.00" fill="#000000">202</text>
<text text-anchor="middle" x="365.5" y="-1833.9848" font-family="Times,serif" font-size="20.00" fill="#000000">203</text>
<text text-anchor="middle" x="365.5" y="-1811.9848" font-family="Times,serif" font-size="20.00" fill="#000000">206</text>
<text text-anchor="middle" x="365.5" y="-1789.9848" font-family="Times,serif" font-size="20.00" fill="#000000">207</text>
<text text-anchor="middle" x="365.5" y="-1767.9848" font-family="Times,serif" font-size="20.00" fill="#000000">208</text>
<text text-anchor="middle" x="365.5" y="-1745.9848" font-family="Times,serif" font-size="20.00" fill="#000000">226</text>
<text text-anchor="middle" x="365.5" y="-1723.9848" font-family="Times,serif" font-size="20.00" fill="#000000">300</text>
<text text-anchor="middle" x="365.5" y="-1701.9848" font-family="Times,serif" font-size="20.00" fill="#000000">305</text>
</g>
<!-- SG_0_Node_3 -->
<g id="node5" class="node">
<title>SG_0_Node_3</title>
<polygon fill="none" stroke="#000000" points="641,-1658.9848 499,-1658.9848 499,-1622.9848 641,-1622.9848 641,-1658.9848"/>
<text text-anchor="middle" x="570" y="-1635.9848" font-family="Times,serif" font-size="20.00" fill="#000000">Status&#45;Code</text>
</g>
<!-- SG_0_Node_1&#45;&gt;SG_0_Node_3 -->
<g id="edge4" class="edge">
<title>SG_0_Node_1&#45;&gt;SG_0_Node_3</title>
<path fill="none" stroke="#000000" d="M365.9208,-1955.8084C401.9888,-1900.1679 510.0759,-1733.4269 552.5697,-1667.8738"/>
<polygon fill="#000000" stroke="#000000" points="555.6135,-1669.6127 558.1161,-1659.3176 549.7396,-1665.805 555.6135,-1669.6127"/>
<text text-anchor="middle" x="579" y="-1811.9848" font-family="Times,serif" font-size="20.00" fill="#000000">[NA]</text>
<text text-anchor="middle" x="579" y="-1789.9848" font-family="Times,serif" font-size="20.00" fill="#000000">53 levels</text>
</g>
<!-- SG_0_Node_4 -->
<g id="node6" class="node">
<title>SG_0_Node_4</title>
<polygon fill="none" stroke="#000000" points="337.5,-1391.7716 20.5,-1391.7716 20.5,-1355.7716 337.5,-1355.7716 337.5,-1391.7716"/>
<text text-anchor="middle" x="179" y="-1368.7716" font-family="Times,serif" font-size="20.00" fill="#000000">Cross&#45;Origin&#45;Resource&#45;Policy</text>
</g>
<!-- SG_0_Node_2&#45;&gt;SG_0_Node_4 -->
<g id="edge19" class="edge">
<title>SG_0_Node_2&#45;&gt;SG_0_Node_4</title>
<path fill="none" stroke="#000000" d="M268.5015,-1622.8295C252.2392,-1613.9788 235.0525,-1601.7792 224,-1585.9848 184.4865,-1529.519 178.4694,-1445.3462 178.2512,-1401.9287"/>
<polygon fill="#000000" stroke="#000000" points="181.7516,-1401.8282 178.3037,-1391.8101 174.7517,-1401.7918 181.7516,-1401.8282"/>
<text text-anchor="middle" x="263.5" y="-1514.9848" font-family="Times,serif" font-size="20.00" fill="#000000">empty</text>
<text text-anchor="middle" x="263.5" y="-1492.9848" font-family="Times,serif" font-size="20.00" fill="#000000">text/css</text>
</g>
<!-- SG_0_Node_18 -->
<g id="node7" class="node">
<title>SG_0_Node_18</title>
<ellipse fill="none" stroke="#000000" cx="390" cy="-1373.7716" rx="34.7971" ry="21.4286"/>
<text text-anchor="middle" x="390" y="-1368.7716" font-family="Times,serif" font-size="20.00" fill="#000000">1.0</text>
</g>
<!-- SG_0_Node_2&#45;&gt;SG_0_Node_18 -->
<g id="edge20" class="edge">
<title>SG_0_Node_2&#45;&gt;SG_0_Node_18</title>
<path fill="none" stroke="#000000" d="M309.9557,-1622.8817C306.5145,-1585.2952 302.6396,-1496.8939 333,-1431.9848 339.2081,-1418.7121 349.7257,-1406.6488 360.0485,-1396.9896"/>
<polygon fill="#000000" stroke="#000000" points="362.6685,-1399.3442 367.8297,-1390.0915 358.0249,-1394.1061 362.6685,-1399.3442"/>
<text text-anchor="middle" x="444" y="-1569.9848" font-family="Times,serif" font-size="20.00" fill="#000000">[NA]</text>
<text text-anchor="middle" x="444" y="-1547.9848" font-family="Times,serif" font-size="20.00" fill="#000000">application/javascript</text>
<text text-anchor="middle" x="444" y="-1525.9848" font-family="Times,serif" font-size="20.00" fill="#000000">application/pdf</text>
<text text-anchor="middle" x="444" y="-1503.9848" font-family="Times,serif" font-size="20.00" fill="#000000">audio/wav</text>
<text text-anchor="middle" x="444" y="-1481.9848" font-family="Times,serif" font-size="20.00" fill="#000000">image/png</text>
<text text-anchor="middle" x="444" y="-1459.9848" font-family="Times,serif" font-size="20.00" fill="#000000">text/html</text>
<text text-anchor="middle" x="444" y="-1437.9848" font-family="Times,serif" font-size="20.00" fill="#000000">video/mp4</text>
</g>
<!-- SG_0_Node_5 -->
<g id="node8" class="node">
<title>SG_0_Node_5</title>
<polygon fill="none" stroke="#000000" points="633.5,-1391.7716 478.5,-1391.7716 478.5,-1355.7716 633.5,-1355.7716 633.5,-1391.7716"/>
<text text-anchor="middle" x="556" y="-1368.7716" font-family="Times,serif" font-size="20.00" fill="#000000">Content&#45;Type</text>
</g>
<!-- SG_0_Node_3&#45;&gt;SG_0_Node_5 -->
<g id="edge5" class="edge">
<title>SG_0_Node_3&#45;&gt;SG_0_Node_5</title>
<path fill="none" stroke="#000000" d="M569.0377,-1622.6182C566.6342,-1576.743 560.3551,-1456.8965 557.4783,-1401.9882"/>
<polygon fill="#000000" stroke="#000000" points="560.969,-1401.7166 556.9505,-1391.9135 553.9786,-1402.0829 560.969,-1401.7166"/>
<text text-anchor="middle" x="585.5" y="-1547.9848" font-family="Times,serif" font-size="20.00" fill="#000000">301</text>
<text text-anchor="middle" x="585.5" y="-1525.9848" font-family="Times,serif" font-size="20.00" fill="#000000">302</text>
<text text-anchor="middle" x="585.5" y="-1503.9848" font-family="Times,serif" font-size="20.00" fill="#000000">303</text>
<text text-anchor="middle" x="585.5" y="-1481.9848" font-family="Times,serif" font-size="20.00" fill="#000000">307</text>
<text text-anchor="middle" x="585.5" y="-1459.9848" font-family="Times,serif" font-size="20.00" fill="#000000">308</text>
</g>
<!-- SG_0_Node_19 -->
<g id="node9" class="node">
<title>SG_0_Node_19</title>
<ellipse fill="none" stroke="#000000" cx="686" cy="-1373.7716" rx="34.7971" ry="21.4286"/>
<text text-anchor="middle" x="686" y="-1368.7716" font-family="Times,serif" font-size="20.00" fill="#000000">1.0</text>
</g>
<!-- SG_0_Node_3&#45;&gt;SG_0_Node_19 -->
<g id="edge6" class="edge">
<title>SG_0_Node_3&#45;&gt;SG_0_Node_19</title>
<path fill="none" stroke="#000000" d="M584.6634,-1622.9482C592.6028,-1612.5783 602.1574,-1599.0505 609,-1585.9848 641.1682,-1524.5612 665.6488,-1446.6859 677.7044,-1404.4316"/>
<polygon fill="#000000" stroke="#000000" points="681.0932,-1405.3095 680.4304,-1394.7354 674.3545,-1403.4149 681.0932,-1405.3095"/>
<text text-anchor="middle" x="715" y="-1514.9848" font-family="Times,serif" font-size="20.00" fill="#000000">[NA]</text>
<text text-anchor="middle" x="715" y="-1492.9848" font-family="Times,serif" font-size="20.00" fill="#000000">48 levels</text>
</g>
<!-- SG_0_Node_6 -->
<g id="node10" class="node">
<title>SG_0_Node_6</title>
<polygon fill="none" stroke="#000000" points="278,-1121.3452 16,-1121.3452 16,-1085.3452 278,-1085.3452 278,-1121.3452"/>
<text text-anchor="middle" x="147" y="-1098.3452" font-family="Times,serif" font-size="20.00" fill="#000000">X&#45;Content&#45;Type&#45;Options</text>
</g>
<!-- SG_0_Node_4&#45;&gt;SG_0_Node_6 -->
<g id="edge21" class="edge">
<title>SG_0_Node_4&#45;&gt;SG_0_Node_6</title>
<path fill="none" stroke="#000000" d="M176.8507,-1355.6083C171.3855,-1309.423 156.9264,-1187.2312 150.346,-1131.6215"/>
<polygon fill="#000000" stroke="#000000" points="153.7909,-1130.9489 149.1399,-1121.4295 146.8394,-1131.7716 153.7909,-1130.9489"/>
<text text-anchor="middle" x="204" y="-1244.5584" font-family="Times,serif" font-size="20.00" fill="#000000">[NA]</text>
<text text-anchor="middle" x="204" y="-1222.5584" font-family="Times,serif" font-size="20.00" fill="#000000">empty</text>
</g>
<!-- SG_0_Node_20 -->
<g id="node11" class="node">
<title>SG_0_Node_20</title>
<ellipse fill="none" stroke="#000000" cx="331" cy="-1103.3452" rx="34.7971" ry="21.4286"/>
<text text-anchor="middle" x="331" y="-1098.3452" font-family="Times,serif" font-size="20.00" fill="#000000">1.0</text>
</g>
<!-- SG_0_Node_4&#45;&gt;SG_0_Node_20 -->
<g id="edge22" class="edge">
<title>SG_0_Node_4&#45;&gt;SG_0_Node_20</title>
<path fill="none" stroke="#000000" d="M202.0762,-1355.7038C214.5384,-1345.0479 229.4799,-1330.7091 240,-1315.5584 280.7461,-1256.8773 308.862,-1177.0552 322.1863,-1133.9643"/>
<polygon fill="#000000" stroke="#000000" points="325.5526,-1134.924 325.1046,-1124.3387 318.8537,-1132.893 325.5526,-1134.924"/>
<text text-anchor="middle" x="373" y="-1233.5584" font-family="Times,serif" font-size="20.00" fill="#000000">same&#45;origin</text>
</g>
<!-- SG_0_Node_7 -->
<g id="node12" class="node">
<title>SG_0_Node_7</title>
<polygon fill="none" stroke="#000000" points="700.5,-1121.3452 383.5,-1121.3452 383.5,-1085.3452 700.5,-1085.3452 700.5,-1121.3452"/>
<text text-anchor="middle" x="542" y="-1098.3452" font-family="Times,serif" font-size="20.00" fill="#000000">Cross&#45;Origin&#45;Resource&#45;Policy</text>
</g>
<!-- SG_0_Node_5&#45;&gt;SG_0_Node_7 -->
<g id="edge7" class="edge">
<title>SG_0_Node_5&#45;&gt;SG_0_Node_7</title>
<path fill="none" stroke="#000000" d="M509.6746,-1355.7136C492.4415,-1346.4625 474.7258,-1333.3257 465,-1315.5584 432.1352,-1255.5206 434.5083,-1222.8357 465,-1161.5584 471.9152,-1147.6614 483.9065,-1136.1999 496.3954,-1127.2309"/>
<polygon fill="#000000" stroke="#000000" points="498.7065,-1129.8954 505.0648,-1121.4205 494.8093,-1124.0806 498.7065,-1129.8954"/>
<text text-anchor="middle" x="504.5" y="-1244.5584" font-family="Times,serif" font-size="20.00" fill="#000000">empty</text>
<text text-anchor="middle" x="504.5" y="-1222.5584" font-family="Times,serif" font-size="20.00" fill="#000000">text/css</text>
</g>
<!-- SG_0_Node_21 -->
<g id="node13" class="node">
<title>SG_0_Node_21</title>
<ellipse fill="none" stroke="#000000" cx="753" cy="-1103.3452" rx="34.7971" ry="21.4286"/>
<text text-anchor="middle" x="753" y="-1098.3452" font-family="Times,serif" font-size="20.00" fill="#000000">1.0</text>
</g>
<!-- SG_0_Node_5&#45;&gt;SG_0_Node_21 -->
<g id="edge8" class="edge">
<title>SG_0_Node_5&#45;&gt;SG_0_Node_21</title>
<path fill="none" stroke="#000000" d="M569.2316,-1355.6083C602.9696,-1309.2954 692.3834,-1186.555 732.7362,-1131.1618"/>
<polygon fill="#000000" stroke="#000000" points="735.7161,-1133.0154 738.7753,-1122.8718 730.0582,-1128.8937 735.7161,-1133.0154"/>
<text text-anchor="middle" x="821" y="-1299.5584" font-family="Times,serif" font-size="20.00" fill="#000000">[NA]</text>
<text text-anchor="middle" x="821" y="-1277.5584" font-family="Times,serif" font-size="20.00" fill="#000000">application/javascript</text>
<text text-anchor="middle" x="821" y="-1255.5584" font-family="Times,serif" font-size="20.00" fill="#000000">application/pdf</text>
<text text-anchor="middle" x="821" y="-1233.5584" font-family="Times,serif" font-size="20.00" fill="#000000">audio/wav</text>
<text text-anchor="middle" x="821" y="-1211.5584" font-family="Times,serif" font-size="20.00" fill="#000000">image/png</text>
<text text-anchor="middle" x="821" y="-1189.5584" font-family="Times,serif" font-size="20.00" fill="#000000">text/html</text>
<text text-anchor="middle" x="821" y="-1167.5584" font-family="Times,serif" font-size="20.00" fill="#000000">video/mp4</text>
</g>
<!-- SG_0_Node_8 -->
<g id="node14" class="node">
<title>SG_0_Node_8</title>
<polygon fill="none" stroke="#000000" points="202,-960.9188 60,-960.9188 60,-924.9188 202,-924.9188 202,-960.9188"/>
<text text-anchor="middle" x="131" y="-937.9188" font-family="Times,serif" font-size="20.00" fill="#000000">Status&#45;Code</text>
</g>
<!-- SG_0_Node_6&#45;&gt;SG_0_Node_8 -->
<g id="edge23" class="edge">
<title>SG_0_Node_6&#45;&gt;SG_0_Node_8</title>
<path fill="none" stroke="#000000" d="M145.1957,-1085.2541C142.4349,-1057.5723 137.1375,-1004.457 133.8525,-971.5203"/>
<polygon fill="#000000" stroke="#000000" points="137.2975,-970.7932 132.8223,-961.19 130.332,-971.488 137.2975,-970.7932"/>
<text text-anchor="middle" x="173" y="-1029.132" font-family="Times,serif" font-size="20.00" fill="#000000">[NA]</text>
<text text-anchor="middle" x="173" y="-1007.132" font-family="Times,serif" font-size="20.00" fill="#000000">empty</text>
</g>
<!-- SG_0_Node_9 -->
<g id="node15" class="node">
<title>SG_0_Node_9</title>
<polygon fill="none" stroke="#000000" points="375.5,-960.9188 220.5,-960.9188 220.5,-924.9188 375.5,-924.9188 375.5,-960.9188"/>
<text text-anchor="middle" x="298" y="-937.9188" font-family="Times,serif" font-size="20.00" fill="#000000">Content&#45;Type</text>
</g>
<!-- SG_0_Node_6&#45;&gt;SG_0_Node_9 -->
<g id="edge24" class="edge">
<title>SG_0_Node_6&#45;&gt;SG_0_Node_9</title>
<path fill="none" stroke="#000000" d="M167.313,-1085.2259C179.6614,-1073.9799 195.582,-1059.0629 209,-1045.132 233.065,-1020.1471 258.9296,-990.0399 276.5397,-968.9967"/>
<polygon fill="#000000" stroke="#000000" points="279.3822,-971.0528 283.0927,-961.1289 274.0034,-966.5729 279.3822,-971.0528"/>
<text text-anchor="middle" x="283" y="-1018.132" font-family="Times,serif" font-size="20.00" fill="#000000">nosniff</text>
</g>
<!-- SG_0_Node_10 -->
<g id="node16" class="node">
<title>SG_0_Node_10</title>
<polygon fill="none" stroke="#000000" points="526.5,-960.9188 421.5,-960.9188 421.5,-924.9188 526.5,-924.9188 526.5,-960.9188"/>
<text text-anchor="middle" x="474" y="-937.9188" font-family="Times,serif" font-size="20.00" fill="#000000">Location</text>
</g>
<!-- SG_0_Node_7&#45;&gt;SG_0_Node_10 -->
<g id="edge9" class="edge">
<title>SG_0_Node_7&#45;&gt;SG_0_Node_10</title>
<path fill="none" stroke="#000000" d="M519.0905,-1085.3059C507.5054,-1074.8626 494.371,-1060.7176 487,-1045.132 476.0086,-1021.8913 473.2611,-992.5306 472.9655,-971.2463"/>
<polygon fill="#000000" stroke="#000000" points="476.4654,-971.2297 472.9976,-961.2185 469.4655,-971.2071 476.4654,-971.2297"/>
<text text-anchor="middle" x="519" y="-1018.132" font-family="Times,serif" font-size="20.00" fill="#000000">empty</text>
</g>
<!-- SG_0_Node_22 -->
<g id="node17" class="node">
<title>SG_0_Node_22</title>
<ellipse fill="none" stroke="#000000" cx="579" cy="-942.9188" rx="34.7971" ry="21.4286"/>
<text text-anchor="middle" x="579" y="-937.9188" font-family="Times,serif" font-size="20.00" fill="#000000">1.0</text>
</g>
<!-- SG_0_Node_7&#45;&gt;SG_0_Node_22 -->
<g id="edge10" class="edge">
<title>SG_0_Node_7&#45;&gt;SG_0_Node_22</title>
<path fill="none" stroke="#000000" d="M546.1724,-1085.2541C552.397,-1058.2653 564.1974,-1007.1005 571.8244,-974.0312"/>
<polygon fill="#000000" stroke="#000000" points="575.3047,-974.5147 574.1417,-963.9839 568.4838,-972.9415 575.3047,-974.5147"/>
<text text-anchor="middle" x="626" y="-1029.132" font-family="Times,serif" font-size="20.00" fill="#000000">[NA]</text>
<text text-anchor="middle" x="626" y="-1007.132" font-family="Times,serif" font-size="20.00" fill="#000000">same&#45;origin</text>
</g>
<!-- SG_0_Node_23 -->
<g id="node18" class="node">
<title>SG_0_Node_23</title>
<ellipse fill="none" stroke="#000000" cx="51" cy="-650.4924" rx="34.7971" ry="21.4286"/>
<text text-anchor="middle" x="51" y="-645.4924" font-family="Times,serif" font-size="20.00" fill="#000000">0.0</text>
</g>
<!-- SG_0_Node_8&#45;&gt;SG_0_Node_23 -->
<g id="edge31" class="edge">
<title>SG_0_Node_8&#45;&gt;SG_0_Node_23</title>
<path fill="none" stroke="#000000" d="M117.3012,-924.7061C109.6379,-913.6684 100.54,-898.9985 95,-884.7056 68.145,-815.421 57.3145,-728.0728 53.2419,-682.1085"/>
<polygon fill="#000000" stroke="#000000" points="56.7081,-681.5564 52.388,-671.8824 49.7324,-682.139 56.7081,-681.5564"/>
<text text-anchor="middle" x="114.5" y="-868.7056" font-family="Times,serif" font-size="20.00" fill="#000000">200</text>
<text text-anchor="middle" x="114.5" y="-846.7056" font-family="Times,serif" font-size="20.00" fill="#000000">201</text>
<text text-anchor="middle" x="114.5" y="-824.7056" font-family="Times,serif" font-size="20.00" fill="#000000">202</text>
<text text-anchor="middle" x="114.5" y="-802.7056" font-family="Times,serif" font-size="20.00" fill="#000000">203</text>
<text text-anchor="middle" x="114.5" y="-780.7056" font-family="Times,serif" font-size="20.00" fill="#000000">206</text>
<text text-anchor="middle" x="114.5" y="-758.7056" font-family="Times,serif" font-size="20.00" fill="#000000">207</text>
<text text-anchor="middle" x="114.5" y="-736.7056" font-family="Times,serif" font-size="20.00" fill="#000000">208</text>
<text text-anchor="middle" x="114.5" y="-714.7056" font-family="Times,serif" font-size="20.00" fill="#000000">226</text>
</g>
<!-- SG_0_Node_11 -->
<g id="node19" class="node">
<title>SG_0_Node_11</title>
<polygon fill="none" stroke="#000000" points="234.5,-668.4924 103.5,-668.4924 103.5,-632.4924 234.5,-632.4924 234.5,-668.4924"/>
<text text-anchor="middle" x="169" y="-645.4924" font-family="Times,serif" font-size="20.00" fill="#000000">browser_id</text>
</g>
<!-- SG_0_Node_8&#45;&gt;SG_0_Node_11 -->
<g id="edge32" class="edge">
<title>SG_0_Node_8&#45;&gt;SG_0_Node_11</title>
<path fill="none" stroke="#000000" d="M133.3771,-924.6262C139.8015,-875.1875 157.5477,-738.6226 165.298,-678.981"/>
<polygon fill="#000000" stroke="#000000" points="168.8059,-679.1458 166.6238,-668.7781 161.8643,-678.2437 168.8059,-679.1458"/>
<text text-anchor="middle" x="180.5" y="-802.7056" font-family="Times,serif" font-size="20.00" fill="#000000">300</text>
<text text-anchor="middle" x="180.5" y="-780.7056" font-family="Times,serif" font-size="20.00" fill="#000000">305</text>
</g>
<!-- SG_0_Node_12 -->
<g id="node20" class="node">
<title>SG_0_Node_12</title>
<polygon fill="none" stroke="#000000" points="395,-668.4924 253,-668.4924 253,-632.4924 395,-632.4924 395,-668.4924"/>
<text text-anchor="middle" x="324" y="-645.4924" font-family="Times,serif" font-size="20.00" fill="#000000">Status&#45;Code</text>
</g>
<!-- SG_0_Node_9&#45;&gt;SG_0_Node_12 -->
<g id="edge25" class="edge">
<title>SG_0_Node_9&#45;&gt;SG_0_Node_12</title>
<path fill="none" stroke="#000000" d="M280.8716,-924.8717C271.8689,-914.1154 261.7414,-899.6717 257,-884.7056 233.3757,-810.1361 224.553,-779.8808 257,-708.7056 263.0692,-695.3923 273.8537,-683.9464 285.0205,-674.8142"/>
<polygon fill="#000000" stroke="#000000" points="287.3481,-677.4401 293.1574,-668.5799 283.0907,-671.8836 287.3481,-677.4401"/>
<text text-anchor="middle" x="296.5" y="-791.7056" font-family="Times,serif" font-size="20.00" fill="#000000">text/css</text>
</g>
<!-- SG_0_Node_24 -->
<g id="node21" class="node">
<title>SG_0_Node_24</title>
<ellipse fill="none" stroke="#000000" cx="448" cy="-650.4924" rx="34.7971" ry="21.4286"/>
<text text-anchor="middle" x="448" y="-645.4924" font-family="Times,serif" font-size="20.00" fill="#000000">1.0</text>
</g>
<!-- SG_0_Node_9&#45;&gt;SG_0_Node_24 -->
<g id="edge26" class="edge">
<title>SG_0_Node_9&#45;&gt;SG_0_Node_24</title>
<path fill="none" stroke="#000000" d="M312.1498,-924.6759C320.1323,-913.6277 329.7323,-898.9575 336,-884.7056 368.5028,-810.7983 338.6003,-777.415 381,-708.7056 389.8286,-694.3987 403.3011,-681.7133 415.8558,-671.8657"/>
<polygon fill="#000000" stroke="#000000" points="418.0191,-674.6183 423.9155,-665.8158 413.8167,-669.02 418.0191,-674.6183"/>
<text text-anchor="middle" x="413" y="-791.7056" font-family="Times,serif" font-size="20.00" fill="#000000">empty</text>
</g>
<!-- SG_0_Node_13 -->
<g id="node22" class="node">
<title>SG_0_Node_13</title>
<polygon fill="none" stroke="#000000" points="632.5,-668.4924 501.5,-668.4924 501.5,-632.4924 632.5,-632.4924 632.5,-668.4924"/>
<text text-anchor="middle" x="567" y="-645.4924" font-family="Times,serif" font-size="20.00" fill="#000000">browser_id</text>
</g>
<!-- SG_0_Node_10&#45;&gt;SG_0_Node_13 -->
<g id="edge11" class="edge">
<title>SG_0_Node_10&#45;&gt;SG_0_Node_13</title>
<path fill="none" stroke="#000000" d="M468.1415,-924.6974C455.9532,-883.2171 432.1618,-779.8401 472,-708.7056 480.2968,-693.891 494.0736,-682.3915 508.5967,-673.6756"/>
<polygon fill="#000000" stroke="#000000" points="510.6638,-676.5304 517.6936,-668.6036 507.2549,-670.4165 510.6638,-676.5304"/>
<text text-anchor="middle" x="504" y="-791.7056" font-family="Times,serif" font-size="20.00" fill="#000000">empty</text>
</g>
<!-- SG_0_Node_25 -->
<g id="node23" class="node">
<title>SG_0_Node_25</title>
<ellipse fill="none" stroke="#000000" cx="685" cy="-650.4924" rx="34.7971" ry="21.4286"/>
<text text-anchor="middle" x="685" y="-645.4924" font-family="Times,serif" font-size="20.00" fill="#000000">1.0</text>
</g>
<!-- SG_0_Node_10&#45;&gt;SG_0_Node_25 -->
<g id="edge12" class="edge">
<title>SG_0_Node_10&#45;&gt;SG_0_Node_25</title>
<path fill="none" stroke="#000000" d="M495.9585,-924.7284C508.4447,-913.8138 523.9447,-899.2605 536,-884.7056 592.5131,-816.4751 644.6971,-725.46 669.6271,-679.5686"/>
<polygon fill="#000000" stroke="#000000" points="672.7176,-681.2114 674.3841,-670.7485 666.5566,-677.8885 672.7176,-681.2114"/>
<text text-anchor="middle" x="767" y="-802.7056" font-family="Times,serif" font-size="20.00" fill="#000000">[NA]</text>
<text text-anchor="middle" x="767" y="-780.7056" font-family="Times,serif" font-size="20.00" fill="#000000">http://172.17.0.1:8000</text>
</g>
<!-- SG_0_Node_26 -->
<g id="node24" class="node">
<title>SG_0_Node_26</title>
<ellipse fill="none" stroke="#000000" cx="61" cy="-358.066" rx="34.7971" ry="21.4286"/>
<text text-anchor="middle" x="61" y="-353.066" font-family="Times,serif" font-size="20.00" fill="#000000">0.0</text>
</g>
<!-- SG_0_Node_11&#45;&gt;SG_0_Node_26 -->
<g id="edge33" class="edge">
<title>SG_0_Node_11&#45;&gt;SG_0_Node_26</title>
<path fill="none" stroke="#000000" d="M137.8649,-632.4612C123.4357,-622.4729 107.431,-608.7371 98,-592.2792 60.8777,-527.4976 57.7844,-436.9461 59.1356,-389.657"/>
<polygon fill="#000000" stroke="#000000" points="62.6419,-389.5503 59.5183,-379.4264 55.6468,-389.2886 62.6419,-389.5503"/>
<text text-anchor="middle" x="123" y="-521.2792" font-family="Times,serif" font-size="20.00" fill="#000000">[NA]</text>
<text text-anchor="middle" x="123" y="-499.2792" font-family="Times,serif" font-size="20.00" fill="#000000">2</text>
<text text-anchor="middle" x="123" y="-477.2792" font-family="Times,serif" font-size="20.00" fill="#000000">3</text>
</g>
<!-- SG_0_Node_27 -->
<g id="node25" class="node">
<title>SG_0_Node_27</title>
<ellipse fill="none" stroke="#000000" cx="148" cy="-358.066" rx="34.7971" ry="21.4286"/>
<text text-anchor="middle" x="148" y="-353.066" font-family="Times,serif" font-size="20.00" fill="#000000">1.0</text>
</g>
<!-- SG_0_Node_11&#45;&gt;SG_0_Node_27 -->
<g id="edge34" class="edge">
<title>SG_0_Node_11&#45;&gt;SG_0_Node_27</title>
<path fill="none" stroke="#000000" d="M167.6864,-632.1998C164.1964,-583.6022 154.6608,-450.8176 150.2692,-389.6645"/>
<polygon fill="#000000" stroke="#000000" points="153.7436,-389.1813 149.5362,-379.4577 146.7616,-389.6828 153.7436,-389.1813"/>
<text text-anchor="middle" x="170.5" y="-499.2792" font-family="Times,serif" font-size="20.00" fill="#000000">1</text>
</g>
<!-- SG_0_Node_28 -->
<g id="node26" class="node">
<title>SG_0_Node_28</title>
<ellipse fill="none" stroke="#000000" cx="235" cy="-358.066" rx="34.7971" ry="21.4286"/>
<text text-anchor="middle" x="235" y="-353.066" font-family="Times,serif" font-size="20.00" fill="#000000">0.0</text>
</g>
<!-- SG_0_Node_12&#45;&gt;SG_0_Node_28 -->
<g id="edge27" class="edge">
<title>SG_0_Node_12&#45;&gt;SG_0_Node_28</title>
<path fill="none" stroke="#000000" d="M309.6605,-632.3308C301.6128,-621.3107 292.0107,-606.6413 286,-592.2792 257.0842,-523.1874 243.6187,-435.4791 238.1713,-389.4814"/>
<polygon fill="#000000" stroke="#000000" points="241.6462,-389.0617 237.0407,-379.5203 234.6909,-389.8512 241.6462,-389.0617"/>
<text text-anchor="middle" x="305.5" y="-576.2792" font-family="Times,serif" font-size="20.00" fill="#000000">200</text>
<text text-anchor="middle" x="305.5" y="-554.2792" font-family="Times,serif" font-size="20.00" fill="#000000">201</text>
<text text-anchor="middle" x="305.5" y="-532.2792" font-family="Times,serif" font-size="20.00" fill="#000000">202</text>
<text text-anchor="middle" x="305.5" y="-510.2792" font-family="Times,serif" font-size="20.00" fill="#000000">203</text>
<text text-anchor="middle" x="305.5" y="-488.2792" font-family="Times,serif" font-size="20.00" fill="#000000">206</text>
<text text-anchor="middle" x="305.5" y="-466.2792" font-family="Times,serif" font-size="20.00" fill="#000000">207</text>
<text text-anchor="middle" x="305.5" y="-444.2792" font-family="Times,serif" font-size="20.00" fill="#000000">208</text>
<text text-anchor="middle" x="305.5" y="-422.2792" font-family="Times,serif" font-size="20.00" fill="#000000">226</text>
</g>
<!-- SG_0_Node_14 -->
<g id="node27" class="node">
<title>SG_0_Node_14</title>
<polygon fill="none" stroke="#000000" points="418.5,-376.066 287.5,-376.066 287.5,-340.066 418.5,-340.066 418.5,-376.066"/>
<text text-anchor="middle" x="353" y="-353.066" font-family="Times,serif" font-size="20.00" fill="#000000">browser_id</text>
</g>
<!-- SG_0_Node_12&#45;&gt;SG_0_Node_14 -->
<g id="edge28" class="edge">
<title>SG_0_Node_12&#45;&gt;SG_0_Node_14</title>
<path fill="none" stroke="#000000" d="M325.8141,-632.1998C330.7169,-582.7611 344.2601,-446.1962 350.1748,-386.5546"/>
<polygon fill="#000000" stroke="#000000" points="353.6826,-386.6483 351.1866,-376.3517 346.7167,-385.9574 353.6826,-386.6483"/>
<text text-anchor="middle" x="366.5" y="-510.2792" font-family="Times,serif" font-size="20.00" fill="#000000">300</text>
<text text-anchor="middle" x="366.5" y="-488.2792" font-family="Times,serif" font-size="20.00" fill="#000000">305</text>
</g>
<!-- SG_0_Node_15 -->
<g id="node28" class="node">
<title>SG_0_Node_15</title>
<polygon fill="none" stroke="#000000" points="699,-376.066 437,-376.066 437,-340.066 699,-340.066 699,-376.066"/>
<text text-anchor="middle" x="568" y="-353.066" font-family="Times,serif" font-size="20.00" fill="#000000">X&#45;Content&#45;Type&#45;Options</text>
</g>
<!-- SG_0_Node_13&#45;&gt;SG_0_Node_15 -->
<g id="edge13" class="edge">
<title>SG_0_Node_13&#45;&gt;SG_0_Node_15</title>
<path fill="none" stroke="#000000" d="M567.0626,-632.1998C567.2316,-582.7611 567.6986,-446.1962 567.9026,-386.5546"/>
<polygon fill="#000000" stroke="#000000" points="571.4032,-386.3636 567.9375,-376.3517 564.4032,-386.3396 571.4032,-386.3636"/>
<text text-anchor="middle" x="592" y="-521.2792" font-family="Times,serif" font-size="20.00" fill="#000000">[NA]</text>
<text text-anchor="middle" x="592" y="-499.2792" font-family="Times,serif" font-size="20.00" fill="#000000">2</text>
<text text-anchor="middle" x="592" y="-477.2792" font-family="Times,serif" font-size="20.00" fill="#000000">3</text>
</g>
<!-- SG_0_Node_29 -->
<g id="node29" class="node">
<title>SG_0_Node_29</title>
<ellipse fill="none" stroke="#000000" cx="752" cy="-358.066" rx="34.7971" ry="21.4286"/>
<text text-anchor="middle" x="752" y="-353.066" font-family="Times,serif" font-size="20.00" fill="#000000">1.0</text>
</g>
<!-- SG_0_Node_13&#45;&gt;SG_0_Node_29 -->
<g id="edge14" class="edge">
<title>SG_0_Node_13&#45;&gt;SG_0_Node_29</title>
<path fill="none" stroke="#000000" d="M585.9598,-632.3443C596.9088,-621.3288 610.5388,-606.6596 621,-592.2792 671.0238,-523.5143 716.3065,-433.7494 738.1808,-387.8828"/>
<polygon fill="#000000" stroke="#000000" points="741.3723,-389.3211 742.4866,-378.785 735.0451,-386.3266 741.3723,-389.3211"/>
<text text-anchor="middle" x="729.5" y="-499.2792" font-family="Times,serif" font-size="20.00" fill="#000000">1</text>
</g>
<!-- SG_0_Node_30 -->
<g id="node30" class="node">
<title>SG_0_Node_30</title>
<ellipse fill="none" stroke="#000000" cx="273" cy="-175.6396" rx="34.7971" ry="21.4286"/>
<text text-anchor="middle" x="273" y="-170.6396" font-family="Times,serif" font-size="20.00" fill="#000000">0.0</text>
</g>
<!-- SG_0_Node_14&#45;&gt;SG_0_Node_30 -->
<g id="edge29" class="edge">
<title>SG_0_Node_14&#45;&gt;SG_0_Node_30</title>
<path fill="none" stroke="#000000" d="M332.4365,-340.0219C321.534,-329.3735 308.815,-315.0342 301,-299.8528 285.8827,-270.4861 278.8737,-233.0864 275.6579,-207.0342"/>
<polygon fill="#000000" stroke="#000000" points="279.1215,-206.5127 274.5334,-196.9629 272.1647,-207.2895 279.1215,-206.5127"/>
<text text-anchor="middle" x="326" y="-283.8528" font-family="Times,serif" font-size="20.00" fill="#000000">[NA]</text>
<text text-anchor="middle" x="326" y="-261.8528" font-family="Times,serif" font-size="20.00" fill="#000000">2</text>
<text text-anchor="middle" x="326" y="-239.8528" font-family="Times,serif" font-size="20.00" fill="#000000">3</text>
</g>
<!-- SG_0_Node_31 -->
<g id="node31" class="node">
<title>SG_0_Node_31</title>
<ellipse fill="none" stroke="#000000" cx="360" cy="-175.6396" rx="34.7971" ry="21.4286"/>
<text text-anchor="middle" x="360" y="-170.6396" font-family="Times,serif" font-size="20.00" fill="#000000">1.0</text>
</g>
<!-- SG_0_Node_14&#45;&gt;SG_0_Node_31 -->
<g id="edge30" class="edge">
<title>SG_0_Node_14&#45;&gt;SG_0_Node_31</title>
<path fill="none" stroke="#000000" d="M353.6968,-339.9073C354.8853,-308.9334 357.3184,-245.5245 358.7897,-207.1822"/>
<polygon fill="#000000" stroke="#000000" points="362.2912,-207.2071 359.1773,-197.0802 355.2963,-206.9386 362.2912,-207.2071"/>
<text text-anchor="middle" x="363.5" y="-261.8528" font-family="Times,serif" font-size="20.00" fill="#000000">1</text>
</g>
<!-- SG_0_Node_32 -->
<g id="node32" class="node">
<title>SG_0_Node_32</title>
<ellipse fill="none" stroke="#000000" cx="461" cy="-175.6396" rx="34.7971" ry="21.4286"/>
<text text-anchor="middle" x="461" y="-170.6396" font-family="Times,serif" font-size="20.00" fill="#000000">0.0</text>
</g>
<!-- SG_0_Node_15&#45;&gt;SG_0_Node_32 -->
<g id="edge15" class="edge">
<title>SG_0_Node_15&#45;&gt;SG_0_Node_32</title>
<path fill="none" stroke="#000000" d="M544.3263,-339.9467C531.8335,-329.379 517.0543,-315.1415 507,-299.8528 487.9254,-270.8478 475.3512,-232.8574 468.2439,-206.5649"/>
<polygon fill="#000000" stroke="#000000" points="471.5995,-205.5616 465.7001,-196.7612 464.8239,-207.3198 471.5995,-205.5616"/>
<text text-anchor="middle" x="539" y="-261.8528" font-family="Times,serif" font-size="20.00" fill="#000000">empty</text>
</g>
<!-- SG_0_Node_16 -->
<g id="node33" class="node">
<title>SG_0_Node_16</title>
<polygon fill="none" stroke="#000000" points="668.5,-193.6396 513.5,-193.6396 513.5,-157.6396 668.5,-157.6396 668.5,-193.6396"/>
<text text-anchor="middle" x="591" y="-170.6396" font-family="Times,serif" font-size="20.00" fill="#000000">Content&#45;Type</text>
</g>
<!-- SG_0_Node_15&#45;&gt;SG_0_Node_16 -->
<g id="edge16" class="edge">
<title>SG_0_Node_15&#45;&gt;SG_0_Node_16</title>
<path fill="none" stroke="#000000" d="M570.2894,-339.9073C574.302,-308.0815 582.6319,-242.0118 587.4147,-204.0765"/>
<polygon fill="#000000" stroke="#000000" points="590.9414,-204.0841 588.7198,-193.7249 583.9964,-203.2085 590.9414,-204.0841"/>
<text text-anchor="middle" x="618" y="-272.8528" font-family="Times,serif" font-size="20.00" fill="#000000">[NA]</text>
<text text-anchor="middle" x="618" y="-250.8528" font-family="Times,serif" font-size="20.00" fill="#000000">nosniff</text>
</g>
<!-- SG_0_Node_33 -->
<g id="node34" class="node">
<title>SG_0_Node_33</title>
<ellipse fill="none" stroke="#000000" cx="533" cy="-37.2132" rx="34.7971" ry="21.4286"/>
<text text-anchor="middle" x="533" y="-32.2132" font-family="Times,serif" font-size="20.00" fill="#000000">0.0</text>
</g>
<!-- SG_0_Node_16&#45;&gt;SG_0_Node_33 -->
<g id="edge17" class="edge">
<title>SG_0_Node_16&#45;&gt;SG_0_Node_33</title>
<path fill="none" stroke="#000000" d="M565.1225,-157.4582C552.9093,-147.2585 539.5914,-133.3809 533,-117.4264 526.6922,-102.1585 526.2302,-83.8169 527.5508,-68.5284"/>
<polygon fill="#000000" stroke="#000000" points="531.0378,-68.8409 528.6999,-58.5072 524.0834,-68.0434 531.0378,-68.8409"/>
<text text-anchor="middle" x="572.5" y="-101.4264" font-family="Times,serif" font-size="20.00" fill="#000000">text/css</text>
</g>
<!-- SG_0_Node_34 -->
<g id="node35" class="node">
<title>SG_0_Node_34</title>
<ellipse fill="none" stroke="#000000" cx="648" cy="-37.2132" rx="34.7971" ry="21.4286"/>
<text text-anchor="middle" x="648" y="-32.2132" font-family="Times,serif" font-size="20.00" fill="#000000">1.0</text>
</g>
<!-- SG_0_Node_16&#45;&gt;SG_0_Node_34 -->
<g id="edge18" class="edge">
<title>SG_0_Node_16&#45;&gt;SG_0_Node_34</title>
<path fill="none" stroke="#000000" d="M598.8917,-157.5979C603.8738,-146.1266 610.403,-130.942 616,-117.4264 622.8232,-100.9497 630.2141,-82.4676 636.1721,-67.4007"/>
<polygon fill="#000000" stroke="#000000" points="639.4477,-68.6349 639.8601,-58.0481 632.9357,-66.067 639.4477,-68.6349"/>
<text text-anchor="middle" x="656" y="-101.4264" font-family="Times,serif" font-size="20.00" fill="#000000">empty</text>
</g>
</g>
</svg>
