<?xml version="1.0" encoding="UTF-8" standalone="no"?>
<!DOCTYPE svg PUBLIC "-//W3C//DTD SVG 1.1//EN"
 "http://www.w3.org/Graphics/SVG/1.1/DTD/svg11.dtd">
<!-- Generated by graphviz version 2.40.1 (20161225.0304)
 -->
<!-- Title: G Pages: 1 -->
<svg width="2373pt" height="2232pt"
 viewBox="0.00 0.00 2373.00 2231.84" xmlns="http://www.w3.org/2000/svg" xmlns:xlink="http://www.w3.org/1999/xlink">
<g id="graph0" class="graph" transform="scale(1 1) rotate(0) translate(4 2227.8377)">
<title>G</title>
<polygon fill="#ffffff" stroke="transparent" points="-4,4 -4,-2227.8377 2369,-2227.8377 2369,4 -4,4"/>
<g id="clust1" class="cluster">
<title>cluster_0</title>
<polygon fill="none" stroke="#000000" points="8,-8 8,-2215.8377 2357,-2215.8377 2357,-8 8,-8"/>
<text text-anchor="middle" x="1182.5" y="-2179.8377" font-family="Times,serif" font-size="40.00" fill="#000000">Tree 0, Class [&#39;Message: mes1 Origin: https://172.17.0.1:44300&#39;, &#39;Message: mes1 Origin: https://172.17.0.1:44300&#39;]</text>
</g>
<!-- SG_0_Node_0 -->
<g id="node1" class="node">
<title>SG_0_Node_0</title>
<polygon fill="none" stroke="#000000" points="211.5,-2155.8377 146.5,-2155.8377 146.5,-2119.8377 211.5,-2119.8377 211.5,-2155.8377"/>
<text text-anchor="middle" x="179" y="-2132.8377" font-family="Times,serif" font-size="20.00" fill="#000000">body</text>
</g>
<!-- SG_0_Node_29 -->
<g id="node2" class="node">
<title>SG_0_Node_29</title>
<ellipse fill="none" stroke="#000000" cx="115" cy="-1980.6245" rx="34.7971" ry="21.4286"/>
<text text-anchor="middle" x="115" y="-1975.6245" font-family="Times,serif" font-size="20.00" fill="#000000">0.0</text>
</g>
<!-- SG_0_Node_0&#45;&gt;SG_0_Node_29 -->
<g id="edge1" class="edge">
<title>SG_0_Node_0&#45;&gt;SG_0_Node_29</title>
<path fill="none" stroke="#000000" d="M157.7021,-2119.5365C147.6635,-2109.6974 136.4912,-2096.7433 130,-2082.8377 119.6634,-2060.6944 116.0807,-2033.1682 114.9906,-2012.2613"/>
<polygon fill="#000000" stroke="#000000" points="118.4788,-2011.8645 114.6252,-2001.9953 111.4832,-2012.1135 118.4788,-2011.8645"/>
<text text-anchor="middle" x="176" y="-2066.8377" font-family="Times,serif" font-size="20.00" fill="#000000">[NA]</text>
<text text-anchor="middle" x="176" y="-2044.8377" font-family="Times,serif" font-size="20.00" fill="#000000">11 levels</text>
</g>
<!-- SG_0_Node_1 -->
<g id="node3" class="node">
<title>SG_0_Node_1</title>
<polygon fill="none" stroke="#000000" points="322.5,-1998.6245 167.5,-1998.6245 167.5,-1962.6245 322.5,-1962.6245 322.5,-1998.6245"/>
<text text-anchor="middle" x="245" y="-1975.6245" font-family="Times,serif" font-size="20.00" fill="#000000">Content&#45;Type</text>
</g>
<!-- SG_0_Node_0&#45;&gt;SG_0_Node_1 -->
<g id="edge2" class="edge">
<title>SG_0_Node_0&#45;&gt;SG_0_Node_1</title>
<path fill="none" stroke="#000000" d="M196.8067,-2119.3894C205.6064,-2109.3183 215.6689,-2096.2008 222,-2082.8377 233.1923,-2059.2138 239.0668,-2029.9002 242.0668,-2008.7308"/>
<polygon fill="#000000" stroke="#000000" points="245.5441,-2009.1311 243.3531,-1998.7653 238.6017,-2008.235 245.5441,-2009.1311"/>
<text text-anchor="middle" x="415" y="-2055.8377" font-family="Times,serif" font-size="20.00" fill="#000000">ecocnt_html=post_message=mes1</text>
</g>
<!-- SG_0_Node_30 -->
<g id="node4" class="node">
<title>SG_0_Node_30</title>
<ellipse fill="none" stroke="#000000" cx="62" cy="-1710.1981" rx="34.7971" ry="21.4286"/>
<text text-anchor="middle" x="62" y="-1705.1981" font-family="Times,serif" font-size="20.00" fill="#000000">0.0</text>
</g>
<!-- SG_0_Node_1&#45;&gt;SG_0_Node_30 -->
<g id="edge3" class="edge">
<title>SG_0_Node_1&#45;&gt;SG_0_Node_30</title>
<path fill="none" stroke="#000000" d="M174.8878,-1962.5788C126.2996,-1949.3672 69.097,-1932.1163 62,-1922.4113 22.7579,-1868.7485 38.8362,-1785.3017 51.7452,-1740.7192"/>
<polygon fill="#000000" stroke="#000000" points="55.1275,-1741.6261 54.6765,-1731.0409 48.428,-1739.597 55.1275,-1741.6261"/>
<text text-anchor="middle" x="173" y="-1906.4113" font-family="Times,serif" font-size="20.00" fill="#000000">[NA]</text>
<text text-anchor="middle" x="173" y="-1884.4113" font-family="Times,serif" font-size="20.00" fill="#000000">application/javascript</text>
<text text-anchor="middle" x="173" y="-1862.4113" font-family="Times,serif" font-size="20.00" fill="#000000">application/pdf</text>
<text text-anchor="middle" x="173" y="-1840.4113" font-family="Times,serif" font-size="20.00" fill="#000000">audio/wav</text>
<text text-anchor="middle" x="173" y="-1818.4113" font-family="Times,serif" font-size="20.00" fill="#000000">image/png</text>
<text text-anchor="middle" x="173" y="-1796.4113" font-family="Times,serif" font-size="20.00" fill="#000000">text/css</text>
<text text-anchor="middle" x="173" y="-1774.4113" font-family="Times,serif" font-size="20.00" fill="#000000">video/mp4</text>
</g>
<!-- SG_0_Node_2 -->
<g id="node5" class="node">
<title>SG_0_Node_2</title>
<polygon fill="none" stroke="#000000" points="430.5,-1728.1981 209.5,-1728.1981 209.5,-1692.1981 430.5,-1692.1981 430.5,-1728.1981"/>
<text text-anchor="middle" x="320" y="-1705.1981" font-family="Times,serif" font-size="20.00" fill="#000000">Content&#45;Disposition</text>
</g>
<!-- SG_0_Node_1&#45;&gt;SG_0_Node_2 -->
<g id="edge4" class="edge">
<title>SG_0_Node_1&#45;&gt;SG_0_Node_2</title>
<path fill="none" stroke="#000000" d="M262.0976,-1962.406C271.2596,-1951.5942 281.89,-1937.1523 288,-1922.4113 313.7342,-1860.325 319.0904,-1780.3729 320.0094,-1738.5564"/>
<polygon fill="#000000" stroke="#000000" points="323.5127,-1738.3502 320.1608,-1728.2996 316.5135,-1738.2468 323.5127,-1738.3502"/>
<text text-anchor="middle" x="365" y="-1851.4113" font-family="Times,serif" font-size="20.00" fill="#000000">empty</text>
<text text-anchor="middle" x="365" y="-1829.4113" font-family="Times,serif" font-size="20.00" fill="#000000">text/html</text>
</g>
<!-- SG_0_Node_31 -->
<g id="node6" class="node">
<title>SG_0_Node_31</title>
<ellipse fill="none" stroke="#000000" cx="312" cy="-1549.7716" rx="34.7971" ry="21.4286"/>
<text text-anchor="middle" x="312" y="-1544.7716" font-family="Times,serif" font-size="20.00" fill="#000000">0.0</text>
</g>
<!-- SG_0_Node_2&#45;&gt;SG_0_Node_31 -->
<g id="edge5" class="edge">
<title>SG_0_Node_2&#45;&gt;SG_0_Node_31</title>
<path fill="none" stroke="#000000" d="M319.0978,-1692.107C317.7557,-1665.192 315.2145,-1614.2335 313.5651,-1581.1563"/>
<polygon fill="#000000" stroke="#000000" points="317.0573,-1580.9116 313.0635,-1571.0983 310.066,-1581.2603 317.0573,-1580.9116"/>
<text text-anchor="middle" x="376" y="-1624.9848" font-family="Times,serif" font-size="20.00" fill="#000000">attachment</text>
</g>
<!-- SG_0_Node_3 -->
<g id="node7" class="node">
<title>SG_0_Node_3</title>
<polygon fill="none" stroke="#000000" points="561.5,-1567.7716 370.5,-1567.7716 370.5,-1531.7716 561.5,-1531.7716 561.5,-1567.7716"/>
<text text-anchor="middle" x="466" y="-1544.7716" font-family="Times,serif" font-size="20.00" fill="#000000">X&#45;Frame&#45;Options</text>
</g>
<!-- SG_0_Node_2&#45;&gt;SG_0_Node_3 -->
<g id="edge6" class="edge">
<title>SG_0_Node_2&#45;&gt;SG_0_Node_3</title>
<path fill="none" stroke="#000000" d="M380.9178,-1692.1669C401.992,-1683.1738 424.0479,-1670.2106 439,-1651.9848 456.107,-1631.1323 462.4709,-1600.539 464.7885,-1578.2593"/>
<polygon fill="#000000" stroke="#000000" points="468.2951,-1578.3232 465.6305,-1568.0689 461.3189,-1577.7467 468.2951,-1578.3232"/>
<text text-anchor="middle" x="491" y="-1635.9848" font-family="Times,serif" font-size="20.00" fill="#000000">[NA]</text>
<text text-anchor="middle" x="491" y="-1613.9848" font-family="Times,serif" font-size="20.00" fill="#000000">empty</text>
</g>
<!-- SG_0_Node_4 -->
<g id="node8" class="node">
<title>SG_0_Node_4</title>
<polygon fill="none" stroke="#000000" points="514,-1410.5584 372,-1410.5584 372,-1374.5584 514,-1374.5584 514,-1410.5584"/>
<text text-anchor="middle" x="443" y="-1387.5584" font-family="Times,serif" font-size="20.00" fill="#000000">Status&#45;Code</text>
</g>
<!-- SG_0_Node_3&#45;&gt;SG_0_Node_4 -->
<g id="edge7" class="edge">
<title>SG_0_Node_3&#45;&gt;SG_0_Node_4</title>
<path fill="none" stroke="#000000" d="M463.3616,-1531.7373C459.3968,-1504.6363 451.8662,-1453.1621 447.1578,-1420.9785"/>
<polygon fill="#000000" stroke="#000000" points="450.5893,-1420.2547 445.6785,-1410.8667 443.663,-1421.2681 450.5893,-1420.2547"/>
<text text-anchor="middle" x="482" y="-1475.5584" font-family="Times,serif" font-size="20.00" fill="#000000">[NA]</text>
<text text-anchor="middle" x="482" y="-1453.5584" font-family="Times,serif" font-size="20.00" fill="#000000">deny</text>
</g>
<!-- SG_0_Node_5 -->
<g id="node9" class="node">
<title>SG_0_Node_5</title>
<polygon fill="none" stroke="#000000" points="773,-1410.5584 631,-1410.5584 631,-1374.5584 773,-1374.5584 773,-1410.5584"/>
<text text-anchor="middle" x="702" y="-1387.5584" font-family="Times,serif" font-size="20.00" fill="#000000">Status&#45;Code</text>
</g>
<!-- SG_0_Node_3&#45;&gt;SG_0_Node_5 -->
<g id="edge8" class="edge">
<title>SG_0_Node_3&#45;&gt;SG_0_Node_5</title>
<path fill="none" stroke="#000000" d="M493.0722,-1531.7373C535.8144,-1503.2642 618.9429,-1447.8876 666.4439,-1416.2444"/>
<polygon fill="#000000" stroke="#000000" points="668.499,-1419.0809 674.881,-1410.6239 664.6181,-1413.2552 668.499,-1419.0809"/>
<text text-anchor="middle" x="650" y="-1464.5584" font-family="Times,serif" font-size="20.00" fill="#000000">empty</text>
</g>
<!-- SG_0_Node_32 -->
<g id="node10" class="node">
<title>SG_0_Node_32</title>
<ellipse fill="none" stroke="#000000" cx="315" cy="-1147.3452" rx="34.7971" ry="21.4286"/>
<text text-anchor="middle" x="315" y="-1142.3452" font-family="Times,serif" font-size="20.00" fill="#000000">0.0</text>
</g>
<!-- SG_0_Node_4&#45;&gt;SG_0_Node_32 -->
<g id="edge39" class="edge">
<title>SG_0_Node_4&#45;&gt;SG_0_Node_32</title>
<path fill="none" stroke="#000000" d="M389.708,-1374.4356C372.2115,-1365.9037 354.3593,-1353.9135 343,-1337.5584 309.8771,-1289.8682 308.8404,-1219.1618 311.578,-1178.739"/>
<polygon fill="#000000" stroke="#000000" points="315.0752,-1178.9126 312.3822,-1168.6658 308.0974,-1178.3555 315.0752,-1178.9126"/>
<text text-anchor="middle" x="389" y="-1277.5584" font-family="Times,serif" font-size="20.00" fill="#000000">[NA]</text>
<text text-anchor="middle" x="389" y="-1255.5584" font-family="Times,serif" font-size="20.00" fill="#000000">57 levels</text>
</g>
<!-- SG_0_Node_6 -->
<g id="node11" class="node">
<title>SG_0_Node_6</title>
<polygon fill="none" stroke="#000000" points="503.5,-1165.3452 372.5,-1165.3452 372.5,-1129.3452 503.5,-1129.3452 503.5,-1165.3452"/>
<text text-anchor="middle" x="438" y="-1142.3452" font-family="Times,serif" font-size="20.00" fill="#000000">browser_id</text>
</g>
<!-- SG_0_Node_4&#45;&gt;SG_0_Node_6 -->
<g id="edge40" class="edge">
<title>SG_0_Node_4&#45;&gt;SG_0_Node_6</title>
<path fill="none" stroke="#000000" d="M442.6323,-1374.5273C441.7709,-1332.2798 439.6165,-1226.6249 438.5779,-1175.6854"/>
<polygon fill="#000000" stroke="#000000" points="442.0714,-1175.3293 438.3682,-1165.4028 435.0729,-1175.4721 442.0714,-1175.3293"/>
<text text-anchor="middle" x="460.5" y="-1321.5584" font-family="Times,serif" font-size="20.00" fill="#000000">300</text>
<text text-anchor="middle" x="460.5" y="-1299.5584" font-family="Times,serif" font-size="20.00" fill="#000000">301</text>
<text text-anchor="middle" x="460.5" y="-1277.5584" font-family="Times,serif" font-size="20.00" fill="#000000">302</text>
<text text-anchor="middle" x="460.5" y="-1255.5584" font-family="Times,serif" font-size="20.00" fill="#000000">303</text>
<text text-anchor="middle" x="460.5" y="-1233.5584" font-family="Times,serif" font-size="20.00" fill="#000000">307</text>
<text text-anchor="middle" x="460.5" y="-1211.5584" font-family="Times,serif" font-size="20.00" fill="#000000">308</text>
</g>
<!-- SG_0_Node_7 -->
<g id="node12" class="node">
<title>SG_0_Node_7</title>
<polygon fill="none" stroke="#000000" points="773,-1165.3452 631,-1165.3452 631,-1129.3452 773,-1129.3452 773,-1165.3452"/>
<text text-anchor="middle" x="702" y="-1142.3452" font-family="Times,serif" font-size="20.00" fill="#000000">Status&#45;Code</text>
</g>
<!-- SG_0_Node_5&#45;&gt;SG_0_Node_7 -->
<g id="edge9" class="edge">
<title>SG_0_Node_5&#45;&gt;SG_0_Node_7</title>
<path fill="none" stroke="#000000" d="M702,-1374.5273C702,-1332.2798 702,-1226.6249 702,-1175.6854"/>
<polygon fill="#000000" stroke="#000000" points="705.5001,-1175.4027 702,-1165.4028 698.5001,-1175.4028 705.5001,-1175.4027"/>
<text text-anchor="middle" x="748" y="-1266.5584" font-family="Times,serif" font-size="20.00" fill="#000000">13 levels</text>
</g>
<!-- SG_0_Node_8 -->
<g id="node13" class="node">
<title>SG_0_Node_8</title>
<polygon fill="none" stroke="#000000" points="1240,-1165.3452 978,-1165.3452 978,-1129.3452 1240,-1129.3452 1240,-1165.3452"/>
<text text-anchor="middle" x="1109" y="-1142.3452" font-family="Times,serif" font-size="20.00" fill="#000000">X&#45;Content&#45;Type&#45;Options</text>
</g>
<!-- SG_0_Node_5&#45;&gt;SG_0_Node_8 -->
<g id="edge10" class="edge">
<title>SG_0_Node_5&#45;&gt;SG_0_Node_8</title>
<path fill="none" stroke="#000000" d="M734.133,-1374.4534C752.8439,-1363.835 776.8439,-1350.085 798,-1337.5584 897.4586,-1278.6687 1013.2847,-1206.999 1071.5104,-1170.7529"/>
<polygon fill="#000000" stroke="#000000" points="1073.3745,-1173.7153 1080.0121,-1165.4574 1069.6735,-1167.7737 1073.3745,-1173.7153"/>
<text text-anchor="middle" x="1059" y="-1277.5584" font-family="Times,serif" font-size="20.00" fill="#000000">[NA]</text>
<text text-anchor="middle" x="1059" y="-1255.5584" font-family="Times,serif" font-size="20.00" fill="#000000">50 levels</text>
</g>
<!-- SG_0_Node_33 -->
<g id="node14" class="node">
<title>SG_0_Node_33</title>
<ellipse fill="none" stroke="#000000" cx="333" cy="-876.9188" rx="34.7971" ry="21.4286"/>
<text text-anchor="middle" x="333" y="-871.9188" font-family="Times,serif" font-size="20.00" fill="#000000">0.0</text>
</g>
<!-- SG_0_Node_6&#45;&gt;SG_0_Node_33 -->
<g id="edge41" class="edge">
<title>SG_0_Node_6&#45;&gt;SG_0_Node_33</title>
<path fill="none" stroke="#000000" d="M416.4438,-1129.1474C405.2032,-1118.5559 392.1379,-1104.3208 384,-1089.132 352.4085,-1030.1684 340.135,-951.6088 335.5594,-908.5208"/>
<polygon fill="#000000" stroke="#000000" points="339.0222,-907.9709 334.5549,-898.3639 332.0562,-908.6599 339.0222,-907.9709"/>
<text text-anchor="middle" x="409" y="-1029.132" font-family="Times,serif" font-size="20.00" fill="#000000">[NA]</text>
<text text-anchor="middle" x="409" y="-1007.132" font-family="Times,serif" font-size="20.00" fill="#000000">2</text>
<text text-anchor="middle" x="409" y="-985.132" font-family="Times,serif" font-size="20.00" fill="#000000">3</text>
</g>
<!-- SG_0_Node_9 -->
<g id="node15" class="node">
<title>SG_0_Node_9</title>
<polygon fill="none" stroke="#000000" points="490.5,-894.9188 385.5,-894.9188 385.5,-858.9188 490.5,-858.9188 490.5,-894.9188"/>
<text text-anchor="middle" x="438" y="-871.9188" font-family="Times,serif" font-size="20.00" fill="#000000">Location</text>
</g>
<!-- SG_0_Node_6&#45;&gt;SG_0_Node_9 -->
<g id="edge42" class="edge">
<title>SG_0_Node_6&#45;&gt;SG_0_Node_9</title>
<path fill="none" stroke="#000000" d="M438,-1129.1819C438,-1082.9966 438,-960.8048 438,-905.1951"/>
<polygon fill="#000000" stroke="#000000" points="441.5001,-905.0031 438,-895.0031 434.5001,-905.0032 441.5001,-905.0031"/>
<text text-anchor="middle" x="444.5" y="-1007.132" font-family="Times,serif" font-size="20.00" fill="#000000">1</text>
</g>
<!-- SG_0_Node_34 -->
<g id="node16" class="node">
<title>SG_0_Node_34</title>
<ellipse fill="none" stroke="#000000" cx="657" cy="-876.9188" rx="34.7971" ry="21.4286"/>
<text text-anchor="middle" x="657" y="-871.9188" font-family="Times,serif" font-size="20.00" fill="#000000">0.0</text>
</g>
<!-- SG_0_Node_7&#45;&gt;SG_0_Node_34 -->
<g id="edge23" class="edge">
<title>SG_0_Node_7&#45;&gt;SG_0_Node_34</title>
<path fill="none" stroke="#000000" d="M696.3288,-1129.1426C692.9432,-1117.7395 688.776,-1102.6859 686,-1089.132 672.959,-1025.46 664.2071,-949.8087 659.9667,-908.2169"/>
<polygon fill="#000000" stroke="#000000" points="663.4388,-907.7625 658.962,-898.16 656.4735,-908.4584 663.4388,-907.7625"/>
<text text-anchor="middle" x="705.5" y="-1073.132" font-family="Times,serif" font-size="20.00" fill="#000000">100</text>
<text text-anchor="middle" x="705.5" y="-1051.132" font-family="Times,serif" font-size="20.00" fill="#000000">101</text>
<text text-anchor="middle" x="705.5" y="-1029.132" font-family="Times,serif" font-size="20.00" fill="#000000">102</text>
<text text-anchor="middle" x="705.5" y="-1007.132" font-family="Times,serif" font-size="20.00" fill="#000000">103</text>
<text text-anchor="middle" x="705.5" y="-985.132" font-family="Times,serif" font-size="20.00" fill="#000000">204</text>
<text text-anchor="middle" x="705.5" y="-963.132" font-family="Times,serif" font-size="20.00" fill="#000000">205</text>
<text text-anchor="middle" x="705.5" y="-941.132" font-family="Times,serif" font-size="20.00" fill="#000000">304</text>
</g>
<!-- SG_0_Node_10 -->
<g id="node17" class="node">
<title>SG_0_Node_10</title>
<polygon fill="none" stroke="#000000" points="814.5,-894.9188 709.5,-894.9188 709.5,-858.9188 814.5,-858.9188 814.5,-894.9188"/>
<text text-anchor="middle" x="762" y="-871.9188" font-family="Times,serif" font-size="20.00" fill="#000000">Location</text>
</g>
<!-- SG_0_Node_7&#45;&gt;SG_0_Node_10 -->
<g id="edge24" class="edge">
<title>SG_0_Node_7&#45;&gt;SG_0_Node_10</title>
<path fill="none" stroke="#000000" d="M710.2249,-1129.3209C715.1191,-1117.9849 721.1126,-1102.9392 725,-1089.132 743.1894,-1024.5276 754.0595,-946.2123 758.9334,-905.1586"/>
<polygon fill="#000000" stroke="#000000" points="762.4267,-905.4173 760.0973,-895.0817 755.4729,-904.6141 762.4267,-905.4173"/>
<text text-anchor="middle" x="773.5" y="-1062.132" font-family="Times,serif" font-size="20.00" fill="#000000">301</text>
<text text-anchor="middle" x="773.5" y="-1040.132" font-family="Times,serif" font-size="20.00" fill="#000000">302</text>
<text text-anchor="middle" x="773.5" y="-1018.132" font-family="Times,serif" font-size="20.00" fill="#000000">303</text>
<text text-anchor="middle" x="773.5" y="-996.132" font-family="Times,serif" font-size="20.00" fill="#000000">307</text>
<text text-anchor="middle" x="773.5" y="-974.132" font-family="Times,serif" font-size="20.00" fill="#000000">308</text>
<text text-anchor="middle" x="773.5" y="-952.132" font-family="Times,serif" font-size="20.00" fill="#000000">407</text>
</g>
<!-- SG_0_Node_11 -->
<g id="node18" class="node">
<title>SG_0_Node_11</title>
<polygon fill="none" stroke="#000000" points="1186.5,-894.9188 1031.5,-894.9188 1031.5,-858.9188 1186.5,-858.9188 1186.5,-894.9188"/>
<text text-anchor="middle" x="1109" y="-871.9188" font-family="Times,serif" font-size="20.00" fill="#000000">Content&#45;Type</text>
</g>
<!-- SG_0_Node_8&#45;&gt;SG_0_Node_11 -->
<g id="edge11" class="edge">
<title>SG_0_Node_8&#45;&gt;SG_0_Node_11</title>
<path fill="none" stroke="#000000" d="M1109,-1129.1819C1109,-1082.9966 1109,-960.8048 1109,-905.1951"/>
<polygon fill="#000000" stroke="#000000" points="1112.5001,-905.0031 1109,-895.0031 1105.5001,-905.0032 1112.5001,-905.0031"/>
<text text-anchor="middle" x="1144" y="-1007.132" font-family="Times,serif" font-size="20.00" fill="#000000">nosniff</text>
</g>
<!-- SG_0_Node_12 -->
<g id="node19" class="node">
<title>SG_0_Node_12</title>
<polygon fill="none" stroke="#000000" points="1410,-894.9188 1268,-894.9188 1268,-858.9188 1410,-858.9188 1410,-894.9188"/>
<text text-anchor="middle" x="1339" y="-871.9188" font-family="Times,serif" font-size="20.00" fill="#000000">Status&#45;Code</text>
</g>
<!-- SG_0_Node_8&#45;&gt;SG_0_Node_12 -->
<g id="edge12" class="edge">
<title>SG_0_Node_8&#45;&gt;SG_0_Node_12</title>
<path fill="none" stroke="#000000" d="M1135.4356,-1129.2607C1150.2376,-1118.4922 1168.5625,-1104.0489 1183,-1089.132 1241.5137,-1028.6758 1296.5034,-945.4964 1322.8069,-903.4897"/>
<polygon fill="#000000" stroke="#000000" points="1325.8186,-905.2743 1328.1237,-894.9332 1319.8729,-901.5798 1325.8186,-905.2743"/>
<text text-anchor="middle" x="1333" y="-1018.132" font-family="Times,serif" font-size="20.00" fill="#000000">[NA]</text>
<text text-anchor="middle" x="1333" y="-996.132" font-family="Times,serif" font-size="20.00" fill="#000000">empty</text>
</g>
<!-- SG_0_Node_35 -->
<g id="node20" class="node">
<title>SG_0_Node_35</title>
<ellipse fill="none" stroke="#000000" cx="172" cy="-716.4924" rx="34.7971" ry="21.4286"/>
<text text-anchor="middle" x="172" y="-711.4924" font-family="Times,serif" font-size="20.00" fill="#000000">0.0</text>
</g>
<!-- SG_0_Node_9&#45;&gt;SG_0_Node_35 -->
<g id="edge43" class="edge">
<title>SG_0_Node_9&#45;&gt;SG_0_Node_35</title>
<path fill="none" stroke="#000000" d="M387.918,-858.8427C384.2422,-857.7192 380.5751,-856.6591 377,-855.7056 291.3442,-832.8617 240.5144,-884.408 181,-818.7056 163.965,-799.8994 163.1006,-770.3766 165.6857,-747.8852"/>
<polygon fill="#000000" stroke="#000000" points="169.1772,-748.1925 167.1229,-737.7987 162.2472,-747.205 169.1772,-748.1925"/>
<text text-anchor="middle" x="296" y="-791.7056" font-family="Times,serif" font-size="20.00" fill="#000000">http://172.17.0.1:8000</text>
</g>
<!-- SG_0_Node_13 -->
<g id="node21" class="node">
<title>SG_0_Node_13</title>
<polygon fill="none" stroke="#000000" points="479.5,-734.4924 324.5,-734.4924 324.5,-698.4924 479.5,-698.4924 479.5,-734.4924"/>
<text text-anchor="middle" x="402" y="-711.4924" font-family="Times,serif" font-size="20.00" fill="#000000">Content&#45;Type</text>
</g>
<!-- SG_0_Node_9&#45;&gt;SG_0_Node_13 -->
<g id="edge44" class="edge">
<title>SG_0_Node_9&#45;&gt;SG_0_Node_13</title>
<path fill="none" stroke="#000000" d="M433.9403,-858.8277C427.7014,-831.0255 415.7055,-777.5683 408.3221,-744.6655"/>
<polygon fill="#000000" stroke="#000000" points="411.7048,-743.7545 406.1001,-734.7636 404.8746,-745.2873 411.7048,-743.7545"/>
<text text-anchor="middle" x="456" y="-802.7056" font-family="Times,serif" font-size="20.00" fill="#000000">[NA]</text>
<text text-anchor="middle" x="456" y="-780.7056" font-family="Times,serif" font-size="20.00" fill="#000000">empty</text>
</g>
<!-- SG_0_Node_14 -->
<g id="node22" class="node">
<title>SG_0_Node_14</title>
<polygon fill="none" stroke="#000000" points="651,-734.4924 509,-734.4924 509,-698.4924 651,-698.4924 651,-734.4924"/>
<text text-anchor="middle" x="580" y="-711.4924" font-family="Times,serif" font-size="20.00" fill="#000000">Status&#45;Code</text>
</g>
<!-- SG_0_Node_10&#45;&gt;SG_0_Node_14 -->
<g id="edge25" class="edge">
<title>SG_0_Node_10&#45;&gt;SG_0_Node_14</title>
<path fill="none" stroke="#000000" d="M710.4618,-858.8421C707.2643,-857.7683 704.0909,-856.7152 701,-855.7056 647.5437,-838.2446 613.4492,-863.912 580,-818.7056 564.4186,-797.6475 566.8071,-766.8876 571.6221,-744.6172"/>
<polygon fill="#000000" stroke="#000000" points="575.06,-745.2919 574.0306,-734.7472 568.2596,-743.6324 575.06,-745.2919"/>
<text text-anchor="middle" x="695" y="-791.7056" font-family="Times,serif" font-size="20.00" fill="#000000">http://172.17.0.1:8000</text>
</g>
<!-- SG_0_Node_15 -->
<g id="node23" class="node">
<title>SG_0_Node_15</title>
<polygon fill="none" stroke="#000000" points="977,-734.4924 715,-734.4924 715,-698.4924 977,-698.4924 977,-734.4924"/>
<text text-anchor="middle" x="846" y="-711.4924" font-family="Times,serif" font-size="20.00" fill="#000000">X&#45;Content&#45;Type&#45;Options</text>
</g>
<!-- SG_0_Node_10&#45;&gt;SG_0_Node_15 -->
<g id="edge26" class="edge">
<title>SG_0_Node_10&#45;&gt;SG_0_Node_15</title>
<path fill="none" stroke="#000000" d="M781.8333,-858.8728C792.6407,-848.1168 805.5047,-833.6731 814,-818.7056 827.1914,-795.4643 835.657,-766.1037 840.5453,-744.8196"/>
<polygon fill="#000000" stroke="#000000" points="844.021,-745.3067 842.7222,-734.7918 837.1803,-743.8217 844.021,-745.3067"/>
<text text-anchor="middle" x="864" y="-802.7056" font-family="Times,serif" font-size="20.00" fill="#000000">[NA]</text>
<text text-anchor="middle" x="864" y="-780.7056" font-family="Times,serif" font-size="20.00" fill="#000000">empty</text>
</g>
<!-- SG_0_Node_36 -->
<g id="node24" class="node">
<title>SG_0_Node_36</title>
<ellipse fill="none" stroke="#000000" cx="1054" cy="-716.4924" rx="34.7971" ry="21.4286"/>
<text text-anchor="middle" x="1054" y="-711.4924" font-family="Times,serif" font-size="20.00" fill="#000000">0.0</text>
</g>
<!-- SG_0_Node_11&#45;&gt;SG_0_Node_36 -->
<g id="edge17" class="edge">
<title>SG_0_Node_11&#45;&gt;SG_0_Node_36</title>
<path fill="none" stroke="#000000" d="M1101.4043,-858.6949C1096.747,-847.2838 1090.7814,-832.2293 1086,-818.7056 1077.5691,-794.8598 1069.0635,-767.4982 1062.9427,-747.0888"/>
<polygon fill="#000000" stroke="#000000" points="1066.2634,-745.9763 1060.0564,-737.3901 1059.5542,-747.973 1066.2634,-745.9763"/>
<text text-anchor="middle" x="1118" y="-791.7056" font-family="Times,serif" font-size="20.00" fill="#000000">empty</text>
</g>
<!-- SG_0_Node_16 -->
<g id="node25" class="node">
<title>SG_0_Node_16</title>
<polygon fill="none" stroke="#000000" points="1249,-734.4924 1107,-734.4924 1107,-698.4924 1249,-698.4924 1249,-734.4924"/>
<text text-anchor="middle" x="1178" y="-711.4924" font-family="Times,serif" font-size="20.00" fill="#000000">Status&#45;Code</text>
</g>
<!-- SG_0_Node_11&#45;&gt;SG_0_Node_16 -->
<g id="edge18" class="edge">
<title>SG_0_Node_11&#45;&gt;SG_0_Node_16</title>
<path fill="none" stroke="#000000" d="M1124.2396,-858.803C1132.843,-847.7987 1143.2007,-833.1298 1150,-818.7056 1161.2749,-794.7869 1168.7152,-765.5095 1173.0727,-744.4286"/>
<polygon fill="#000000" stroke="#000000" points="1176.5277,-744.9982 1175.021,-734.5111 1169.6589,-743.6488 1176.5277,-744.9982"/>
<text text-anchor="middle" x="1212" y="-791.7056" font-family="Times,serif" font-size="20.00" fill="#000000">text/html</text>
</g>
<!-- SG_0_Node_17 -->
<g id="node26" class="node">
<title>SG_0_Node_17</title>
<polygon fill="none" stroke="#000000" points="1404.5,-734.4924 1273.5,-734.4924 1273.5,-698.4924 1404.5,-698.4924 1404.5,-734.4924"/>
<text text-anchor="middle" x="1339" y="-711.4924" font-family="Times,serif" font-size="20.00" fill="#000000">browser_id</text>
</g>
<!-- SG_0_Node_12&#45;&gt;SG_0_Node_17 -->
<g id="edge13" class="edge">
<title>SG_0_Node_12&#45;&gt;SG_0_Node_17</title>
<path fill="none" stroke="#000000" d="M1339,-858.8277C1339,-831.1459 1339,-778.0306 1339,-745.0939"/>
<polygon fill="#000000" stroke="#000000" points="1342.5001,-744.7635 1339,-734.7636 1335.5001,-744.7636 1342.5001,-744.7635"/>
<text text-anchor="middle" x="1358.5" y="-791.7056" font-family="Times,serif" font-size="20.00" fill="#000000">300</text>
</g>
<!-- SG_0_Node_37 -->
<g id="node27" class="node">
<title>SG_0_Node_37</title>
<ellipse fill="none" stroke="#000000" cx="1457" cy="-716.4924" rx="34.7971" ry="21.4286"/>
<text text-anchor="middle" x="1457" y="-711.4924" font-family="Times,serif" font-size="20.00" fill="#000000">1.0</text>
</g>
<!-- SG_0_Node_12&#45;&gt;SG_0_Node_37 -->
<g id="edge14" class="edge">
<title>SG_0_Node_12&#45;&gt;SG_0_Node_37</title>
<path fill="none" stroke="#000000" d="M1352.3795,-858.8367C1360.8733,-847.3498 1372.0926,-832.163 1382,-818.7056 1400.497,-793.581 1421.5047,-764.9418 1436.5716,-744.3832"/>
<polygon fill="#000000" stroke="#000000" points="1439.553,-746.236 1442.6405,-736.101 1433.9066,-742.0985 1439.553,-746.236"/>
<text text-anchor="middle" x="1460" y="-802.7056" font-family="Times,serif" font-size="20.00" fill="#000000">[NA]</text>
<text text-anchor="middle" x="1460" y="-780.7056" font-family="Times,serif" font-size="20.00" fill="#000000">49 levels</text>
</g>
<!-- SG_0_Node_18 -->
<g id="node28" class="node">
<title>SG_0_Node_18</title>
<polygon fill="none" stroke="#000000" points="349,-508.066 87,-508.066 87,-472.066 349,-472.066 349,-508.066"/>
<text text-anchor="middle" x="218" y="-485.066" font-family="Times,serif" font-size="20.00" fill="#000000">X&#45;Content&#45;Type&#45;Options</text>
</g>
<!-- SG_0_Node_13&#45;&gt;SG_0_Node_18 -->
<g id="edge45" class="edge">
<title>SG_0_Node_13&#45;&gt;SG_0_Node_18</title>
<path fill="none" stroke="#000000" d="M377.9851,-698.4707C364.3135,-687.6124 347.3135,-673.0591 334,-658.2792 292.8744,-612.624 254.2951,-551.7407 233.6442,-517.1383"/>
<polygon fill="#000000" stroke="#000000" points="236.4093,-514.9377 228.3078,-508.11 230.3832,-518.4996 236.4093,-514.9377"/>
<text text-anchor="middle" x="366" y="-598.2792" font-family="Times,serif" font-size="20.00" fill="#000000">empty</text>
</g>
<!-- SG_0_Node_38 -->
<g id="node29" class="node">
<title>SG_0_Node_38</title>
<ellipse fill="none" stroke="#000000" cx="402" cy="-490.066" rx="34.7971" ry="21.4286"/>
<text text-anchor="middle" x="402" y="-485.066" font-family="Times,serif" font-size="20.00" fill="#000000">1.0</text>
</g>
<!-- SG_0_Node_13&#45;&gt;SG_0_Node_38 -->
<g id="edge46" class="edge">
<title>SG_0_Node_13&#45;&gt;SG_0_Node_38</title>
<path fill="none" stroke="#000000" d="M402,-698.3458C402,-659.9059 402,-569.8636 402,-521.7288"/>
<polygon fill="#000000" stroke="#000000" points="405.5001,-521.567 402,-511.567 398.5001,-521.567 405.5001,-521.567"/>
<text text-anchor="middle" x="449" y="-598.2792" font-family="Times,serif" font-size="20.00" fill="#000000">text/html</text>
</g>
<!-- SG_0_Node_39 -->
<g id="node30" class="node">
<title>SG_0_Node_39</title>
<ellipse fill="none" stroke="#000000" cx="489" cy="-490.066" rx="34.7971" ry="21.4286"/>
<text text-anchor="middle" x="489" y="-485.066" font-family="Times,serif" font-size="20.00" fill="#000000">0.0</text>
</g>
<!-- SG_0_Node_14&#45;&gt;SG_0_Node_39 -->
<g id="edge35" class="edge">
<title>SG_0_Node_14&#45;&gt;SG_0_Node_39</title>
<path fill="none" stroke="#000000" d="M567.1521,-698.2493C559.6906,-687.0815 550.5089,-672.2888 544,-658.2792 522.5887,-612.1938 505.8868,-555.4456 496.7461,-521.0476"/>
<polygon fill="#000000" stroke="#000000" points="500.0684,-519.9177 494.1552,-511.1265 493.2956,-521.6864 500.0684,-519.9177"/>
<text text-anchor="middle" x="563.5" y="-642.2792" font-family="Times,serif" font-size="20.00" fill="#000000">301</text>
<text text-anchor="middle" x="563.5" y="-620.2792" font-family="Times,serif" font-size="20.00" fill="#000000">302</text>
<text text-anchor="middle" x="563.5" y="-598.2792" font-family="Times,serif" font-size="20.00" fill="#000000">303</text>
<text text-anchor="middle" x="563.5" y="-576.2792" font-family="Times,serif" font-size="20.00" fill="#000000">307</text>
<text text-anchor="middle" x="563.5" y="-554.2792" font-family="Times,serif" font-size="20.00" fill="#000000">308</text>
</g>
<!-- SG_0_Node_19 -->
<g id="node31" class="node">
<title>SG_0_Node_19</title>
<polygon fill="none" stroke="#000000" points="672.5,-508.066 541.5,-508.066 541.5,-472.066 672.5,-472.066 672.5,-508.066"/>
<text text-anchor="middle" x="607" y="-485.066" font-family="Times,serif" font-size="20.00" fill="#000000">browser_id</text>
</g>
<!-- SG_0_Node_14&#45;&gt;SG_0_Node_19 -->
<g id="edge36" class="edge">
<title>SG_0_Node_14&#45;&gt;SG_0_Node_19</title>
<path fill="none" stroke="#000000" d="M582.1639,-698.3458C586.8541,-659.0131 597.9867,-565.653 603.6161,-518.4438"/>
<polygon fill="#000000" stroke="#000000" points="607.1171,-518.6432 604.8258,-508.2991 600.1663,-517.8143 607.1171,-518.6432"/>
<text text-anchor="middle" x="619.5" y="-598.2792" font-family="Times,serif" font-size="20.00" fill="#000000">407</text>
</g>
<!-- SG_0_Node_20 -->
<g id="node32" class="node">
<title>SG_0_Node_20</title>
<polygon fill="none" stroke="#000000" points="901.5,-508.066 746.5,-508.066 746.5,-472.066 901.5,-472.066 901.5,-508.066"/>
<text text-anchor="middle" x="824" y="-485.066" font-family="Times,serif" font-size="20.00" fill="#000000">Content&#45;Type</text>
</g>
<!-- SG_0_Node_15&#45;&gt;SG_0_Node_20 -->
<g id="edge27" class="edge">
<title>SG_0_Node_15&#45;&gt;SG_0_Node_20</title>
<path fill="none" stroke="#000000" d="M844.2368,-698.3458C840.4152,-659.0131 831.3442,-565.653 826.7572,-518.4438"/>
<polygon fill="#000000" stroke="#000000" points="830.2223,-517.9137 825.7716,-508.2991 823.2551,-518.5907 830.2223,-517.9137"/>
<text text-anchor="middle" x="875" y="-598.2792" font-family="Times,serif" font-size="20.00" fill="#000000">nosniff</text>
</g>
<!-- SG_0_Node_21 -->
<g id="node33" class="node">
<title>SG_0_Node_21</title>
<polygon fill="none" stroke="#000000" points="1062,-508.066 920,-508.066 920,-472.066 1062,-472.066 1062,-508.066"/>
<text text-anchor="middle" x="991" y="-485.066" font-family="Times,serif" font-size="20.00" fill="#000000">Status&#45;Code</text>
</g>
<!-- SG_0_Node_15&#45;&gt;SG_0_Node_21 -->
<g id="edge28" class="edge">
<title>SG_0_Node_15&#45;&gt;SG_0_Node_21</title>
<path fill="none" stroke="#000000" d="M872.34,-698.2947C886.0821,-687.805 902.3988,-673.6662 914,-658.2792 947.4373,-613.9306 970.8361,-552.7404 982.5009,-517.6984"/>
<polygon fill="#000000" stroke="#000000" points="985.8493,-518.719 985.6106,-508.1269 979.1919,-516.556 985.8493,-518.719"/>
<text text-anchor="middle" x="1003" y="-609.2792" font-family="Times,serif" font-size="20.00" fill="#000000">[NA]</text>
<text text-anchor="middle" x="1003" y="-587.2792" font-family="Times,serif" font-size="20.00" fill="#000000">empty</text>
</g>
<!-- SG_0_Node_22 -->
<g id="node34" class="node">
<title>SG_0_Node_22</title>
<polygon fill="none" stroke="#000000" points="1188.5,-508.066 1083.5,-508.066 1083.5,-472.066 1188.5,-472.066 1188.5,-508.066"/>
<text text-anchor="middle" x="1136" y="-485.066" font-family="Times,serif" font-size="20.00" fill="#000000">Location</text>
</g>
<!-- SG_0_Node_16&#45;&gt;SG_0_Node_22 -->
<g id="edge19" class="edge">
<title>SG_0_Node_16&#45;&gt;SG_0_Node_22</title>
<path fill="none" stroke="#000000" d="M1167.1101,-698.2916C1160.9886,-687.1387 1153.828,-672.3469 1150,-658.2792 1136.9472,-610.3108 1135.0458,-552.0506 1135.2485,-518.2022"/>
<polygon fill="#000000" stroke="#000000" points="1138.7492,-518.1579 1135.3767,-508.1142 1131.7498,-518.0689 1138.7492,-518.1579"/>
<text text-anchor="middle" x="1169.5" y="-598.2792" font-family="Times,serif" font-size="20.00" fill="#000000">300</text>
</g>
<!-- SG_0_Node_40 -->
<g id="node35" class="node">
<title>SG_0_Node_40</title>
<ellipse fill="none" stroke="#000000" cx="1241" cy="-490.066" rx="34.7971" ry="21.4286"/>
<text text-anchor="middle" x="1241" y="-485.066" font-family="Times,serif" font-size="20.00" fill="#000000">1.0</text>
</g>
<!-- SG_0_Node_16&#45;&gt;SG_0_Node_40 -->
<g id="edge20" class="edge">
<title>SG_0_Node_16&#45;&gt;SG_0_Node_40</title>
<path fill="none" stroke="#000000" d="M1183.0491,-698.3458C1193.7941,-659.7274 1219.0304,-569.0262 1232.3761,-521.0608"/>
<polygon fill="#000000" stroke="#000000" points="1235.8027,-521.8024 1235.1114,-511.2302 1229.0588,-519.926 1235.8027,-521.8024"/>
<text text-anchor="middle" x="1270" y="-609.2792" font-family="Times,serif" font-size="20.00" fill="#000000">[NA]</text>
<text text-anchor="middle" x="1270" y="-587.2792" font-family="Times,serif" font-size="20.00" fill="#000000">49 levels</text>
</g>
<!-- SG_0_Node_41 -->
<g id="node36" class="node">
<title>SG_0_Node_41</title>
<ellipse fill="none" stroke="#000000" cx="1334" cy="-490.066" rx="34.7971" ry="21.4286"/>
<text text-anchor="middle" x="1334" y="-485.066" font-family="Times,serif" font-size="20.00" fill="#000000">0.5</text>
</g>
<!-- SG_0_Node_17&#45;&gt;SG_0_Node_41 -->
<g id="edge15" class="edge">
<title>SG_0_Node_17&#45;&gt;SG_0_Node_41</title>
<path fill="none" stroke="#000000" d="M1338.5993,-698.3458C1337.7504,-659.9059 1335.7621,-569.8636 1334.6992,-521.7288"/>
<polygon fill="#000000" stroke="#000000" points="1338.1948,-521.4873 1334.4748,-511.567 1331.1965,-521.6419 1338.1948,-521.4873"/>
<text text-anchor="middle" x="1343.5" y="-598.2792" font-family="Times,serif" font-size="20.00" fill="#000000">1</text>
</g>
<!-- SG_0_Node_42 -->
<g id="node37" class="node">
<title>SG_0_Node_42</title>
<ellipse fill="none" stroke="#000000" cx="1421" cy="-490.066" rx="34.7971" ry="21.4286"/>
<text text-anchor="middle" x="1421" y="-485.066" font-family="Times,serif" font-size="20.00" fill="#000000">1.0</text>
</g>
<!-- SG_0_Node_17&#45;&gt;SG_0_Node_42 -->
<g id="edge16" class="edge">
<title>SG_0_Node_17&#45;&gt;SG_0_Node_42</title>
<path fill="none" stroke="#000000" d="M1345.5718,-698.3458C1359.6222,-659.5485 1392.7095,-568.1845 1410.0157,-520.3969"/>
<polygon fill="#000000" stroke="#000000" points="1413.3423,-521.4898 1413.4566,-510.8955 1406.7606,-519.1062 1413.3423,-521.4898"/>
<text text-anchor="middle" x="1424" y="-620.2792" font-family="Times,serif" font-size="20.00" fill="#000000">[NA]</text>
<text text-anchor="middle" x="1424" y="-598.2792" font-family="Times,serif" font-size="20.00" fill="#000000">2</text>
<text text-anchor="middle" x="1424" y="-576.2792" font-family="Times,serif" font-size="20.00" fill="#000000">3</text>
</g>
<!-- SG_0_Node_43 -->
<g id="node38" class="node">
<title>SG_0_Node_43</title>
<ellipse fill="none" stroke="#000000" cx="165" cy="-263.6396" rx="34.7971" ry="21.4286"/>
<text text-anchor="middle" x="165" y="-258.6396" font-family="Times,serif" font-size="20.00" fill="#000000">0.0</text>
</g>
<!-- SG_0_Node_18&#45;&gt;SG_0_Node_43 -->
<g id="edge47" class="edge">
<title>SG_0_Node_18&#45;&gt;SG_0_Node_43</title>
<path fill="none" stroke="#000000" d="M202.3577,-471.9822C193.8936,-461.1031 184.1436,-446.5498 179,-431.8528 163.1025,-386.4283 161.8403,-330.0587 162.9784,-295.4806"/>
<polygon fill="#000000" stroke="#000000" points="166.4932,-295.1994 163.4168,-285.0611 159.4994,-294.9051 166.4932,-295.1994"/>
<text text-anchor="middle" x="214" y="-371.8528" font-family="Times,serif" font-size="20.00" fill="#000000">nosniff</text>
</g>
<!-- SG_0_Node_44 -->
<g id="node39" class="node">
<title>SG_0_Node_44</title>
<ellipse fill="none" stroke="#000000" cx="271" cy="-263.6396" rx="34.7971" ry="21.4286"/>
<text text-anchor="middle" x="271" y="-258.6396" font-family="Times,serif" font-size="20.00" fill="#000000">1.0</text>
</g>
<!-- SG_0_Node_18&#45;&gt;SG_0_Node_44 -->
<g id="edge48" class="edge">
<title>SG_0_Node_18&#45;&gt;SG_0_Node_44</title>
<path fill="none" stroke="#000000" d="M229.8399,-471.9447C236.5404,-460.82 244.4636,-446.0299 249,-431.8528 263.7409,-385.7851 268.6227,-329.5976 270.2284,-295.2326"/>
<polygon fill="#000000" stroke="#000000" points="273.7399,-295.0145 270.643,-284.8824 266.7455,-294.7343 273.7399,-295.0145"/>
<text text-anchor="middle" x="300" y="-382.8528" font-family="Times,serif" font-size="20.00" fill="#000000">[NA]</text>
<text text-anchor="middle" x="300" y="-360.8528" font-family="Times,serif" font-size="20.00" fill="#000000">empty</text>
</g>
<!-- SG_0_Node_45 -->
<g id="node40" class="node">
<title>SG_0_Node_45</title>
<ellipse fill="none" stroke="#000000" cx="511" cy="-263.6396" rx="34.7971" ry="21.4286"/>
<text text-anchor="middle" x="511" y="-258.6396" font-family="Times,serif" font-size="20.00" fill="#000000">0.0</text>
</g>
<!-- SG_0_Node_19&#45;&gt;SG_0_Node_45 -->
<g id="edge37" class="edge">
<title>SG_0_Node_19&#45;&gt;SG_0_Node_45</title>
<path fill="none" stroke="#000000" d="M585.4964,-471.8398C574.2717,-461.2398 561.2048,-447.0055 553,-431.8528 529.2308,-387.9556 518.6317,-330.3383 514.1143,-295.2002"/>
<polygon fill="#000000" stroke="#000000" points="517.5639,-294.5699 512.8997,-285.057 510.6135,-295.4022 517.5639,-294.5699"/>
<text text-anchor="middle" x="578" y="-393.8528" font-family="Times,serif" font-size="20.00" fill="#000000">[NA]</text>
<text text-anchor="middle" x="578" y="-371.8528" font-family="Times,serif" font-size="20.00" fill="#000000">2</text>
<text text-anchor="middle" x="578" y="-349.8528" font-family="Times,serif" font-size="20.00" fill="#000000">3</text>
</g>
<!-- SG_0_Node_46 -->
<g id="node41" class="node">
<title>SG_0_Node_46</title>
<ellipse fill="none" stroke="#000000" cx="607" cy="-263.6396" rx="43.6818" ry="21.4286"/>
<text text-anchor="middle" x="607" y="-258.6396" font-family="Times,serif" font-size="20.00" fill="#000000">0.75</text>
</g>
<!-- SG_0_Node_19&#45;&gt;SG_0_Node_46 -->
<g id="edge38" class="edge">
<title>SG_0_Node_19&#45;&gt;SG_0_Node_46</title>
<path fill="none" stroke="#000000" d="M607,-471.9193C607,-433.4795 607,-343.4372 607,-295.3024"/>
<polygon fill="#000000" stroke="#000000" points="610.5001,-295.1406 607,-285.1406 603.5001,-295.1406 610.5001,-295.1406"/>
<text text-anchor="middle" x="613.5" y="-371.8528" font-family="Times,serif" font-size="20.00" fill="#000000">1</text>
</g>
<!-- SG_0_Node_47 -->
<g id="node42" class="node">
<title>SG_0_Node_47</title>
<ellipse fill="none" stroke="#000000" cx="703" cy="-263.6396" rx="34.7971" ry="21.4286"/>
<text text-anchor="middle" x="703" y="-258.6396" font-family="Times,serif" font-size="20.00" fill="#000000">0.0</text>
</g>
<!-- SG_0_Node_20&#45;&gt;SG_0_Node_47 -->
<g id="edge31" class="edge">
<title>SG_0_Node_20&#45;&gt;SG_0_Node_47</title>
<path fill="none" stroke="#000000" d="M796.2037,-471.9155C782.3874,-461.6324 766.4538,-447.67 756,-431.8528 727.8485,-389.2579 713.8842,-330.7835 707.5689,-295.1885"/>
<polygon fill="#000000" stroke="#000000" points="710.9526,-294.2029 705.8474,-284.9192 704.049,-295.3603 710.9526,-294.2029"/>
<text text-anchor="middle" x="788" y="-371.8528" font-family="Times,serif" font-size="20.00" fill="#000000">empty</text>
</g>
<!-- SG_0_Node_25 -->
<g id="node43" class="node">
<title>SG_0_Node_25</title>
<polygon fill="none" stroke="#000000" points="898,-281.6396 756,-281.6396 756,-245.6396 898,-245.6396 898,-281.6396"/>
<text text-anchor="middle" x="827" y="-258.6396" font-family="Times,serif" font-size="20.00" fill="#000000">Status&#45;Code</text>
</g>
<!-- SG_0_Node_20&#45;&gt;SG_0_Node_25 -->
<g id="edge32" class="edge">
<title>SG_0_Node_20&#45;&gt;SG_0_Node_25</title>
<path fill="none" stroke="#000000" d="M824.2404,-471.9193C824.7616,-432.5867 825.9985,-339.2266 826.624,-292.0173"/>
<polygon fill="#000000" stroke="#000000" points="830.1255,-291.9182 826.7584,-281.8727 823.1262,-291.8254 830.1255,-291.9182"/>
<text text-anchor="middle" x="873" y="-371.8528" font-family="Times,serif" font-size="20.00" fill="#000000">text/html</text>
</g>
<!-- SG_0_Node_48 -->
<g id="node44" class="node">
<title>SG_0_Node_48</title>
<ellipse fill="none" stroke="#000000" cx="968" cy="-263.6396" rx="52.1524" ry="21.4286"/>
<text text-anchor="middle" x="968" y="-258.6396" font-family="Times,serif" font-size="20.00" fill="#000000">0.333</text>
</g>
<!-- SG_0_Node_21&#45;&gt;SG_0_Node_48 -->
<g id="edge29" class="edge">
<title>SG_0_Node_21&#45;&gt;SG_0_Node_48</title>
<path fill="none" stroke="#000000" d="M989.1567,-471.9193C985.252,-433.4795 976.1057,-343.4372 971.2162,-295.3024"/>
<polygon fill="#000000" stroke="#000000" points="974.6768,-294.7357 970.184,-285.1406 967.7126,-295.4431 974.6768,-294.7357"/>
<text text-anchor="middle" x="1004.5" y="-371.8528" font-family="Times,serif" font-size="20.00" fill="#000000">407</text>
</g>
<!-- SG_0_Node_49 -->
<g id="node45" class="node">
<title>SG_0_Node_49</title>
<ellipse fill="none" stroke="#000000" cx="1073" cy="-263.6396" rx="34.7971" ry="21.4286"/>
<text text-anchor="middle" x="1073" y="-258.6396" font-family="Times,serif" font-size="20.00" fill="#000000">1.0</text>
</g>
<!-- SG_0_Node_21&#45;&gt;SG_0_Node_49 -->
<g id="edge30" class="edge">
<title>SG_0_Node_21&#45;&gt;SG_0_Node_49</title>
<path fill="none" stroke="#000000" d="M1004.5174,-472.0004C1012.297,-460.8955 1021.7405,-446.1066 1028,-431.8528 1048.1035,-386.0739 1061.0135,-329.2361 1067.6339,-294.7364"/>
<polygon fill="#000000" stroke="#000000" points="1071.0973,-295.2556 1069.4875,-284.7837 1064.2156,-293.9738 1071.0973,-295.2556"/>
<text text-anchor="middle" x="1080.5" y="-415.8528" font-family="Times,serif" font-size="20.00" fill="#000000">301</text>
<text text-anchor="middle" x="1080.5" y="-393.8528" font-family="Times,serif" font-size="20.00" fill="#000000">302</text>
<text text-anchor="middle" x="1080.5" y="-371.8528" font-family="Times,serif" font-size="20.00" fill="#000000">303</text>
<text text-anchor="middle" x="1080.5" y="-349.8528" font-family="Times,serif" font-size="20.00" fill="#000000">307</text>
<text text-anchor="middle" x="1080.5" y="-327.8528" font-family="Times,serif" font-size="20.00" fill="#000000">308</text>
</g>
<!-- SG_0_Node_50 -->
<g id="node46" class="node">
<title>SG_0_Node_50</title>
<ellipse fill="none" stroke="#000000" cx="1178" cy="-263.6396" rx="52.1524" ry="21.4286"/>
<text text-anchor="middle" x="1178" y="-258.6396" font-family="Times,serif" font-size="20.00" fill="#000000">0.667</text>
</g>
<!-- SG_0_Node_22&#45;&gt;SG_0_Node_50 -->
<g id="edge21" class="edge">
<title>SG_0_Node_22&#45;&gt;SG_0_Node_50</title>
<path fill="none" stroke="#000000" d="M1135.3767,-472.0178C1134.7649,-440.8124 1135.5345,-375.0126 1150,-321.8528 1152.5949,-312.3166 1156.7213,-302.4475 1161.0173,-293.6049"/>
<polygon fill="#000000" stroke="#000000" points="1164.248,-294.9743 1165.681,-284.4768 1158.0144,-291.7894 1164.248,-294.9743"/>
<text text-anchor="middle" x="1265" y="-371.8528" font-family="Times,serif" font-size="20.00" fill="#000000">http://172.17.0.1:8000</text>
</g>
<!-- SG_0_Node_51 -->
<g id="node47" class="node">
<title>SG_0_Node_51</title>
<ellipse fill="none" stroke="#000000" cx="1402" cy="-263.6396" rx="34.7971" ry="21.4286"/>
<text text-anchor="middle" x="1402" y="-258.6396" font-family="Times,serif" font-size="20.00" fill="#000000">1.0</text>
</g>
<!-- SG_0_Node_22&#45;&gt;SG_0_Node_51 -->
<g id="edge22" class="edge">
<title>SG_0_Node_22&#45;&gt;SG_0_Node_51</title>
<path fill="none" stroke="#000000" d="M1186.0962,-472.0424C1189.7687,-470.9066 1193.4311,-469.8293 1197,-468.8528 1277.037,-446.9528 1323.3973,-492.5296 1380,-431.8528 1414.1937,-395.198 1412.645,-332.9299 1407.7658,-295.308"/>
<polygon fill="#000000" stroke="#000000" points="1411.1598,-294.3265 1406.2547,-284.9356 1404.2329,-295.3357 1411.1598,-294.3265"/>
<text text-anchor="middle" x="1442" y="-382.8528" font-family="Times,serif" font-size="20.00" fill="#000000">[NA]</text>
<text text-anchor="middle" x="1442" y="-360.8528" font-family="Times,serif" font-size="20.00" fill="#000000">empty</text>
</g>
<!-- SG_0_Node_52 -->
<g id="node48" class="node">
<title>SG_0_Node_52</title>
<ellipse fill="none" stroke="#000000" cx="778" cy="-37.2132" rx="52.1524" ry="21.4286"/>
<text text-anchor="middle" x="778" y="-32.2132" font-family="Times,serif" font-size="20.00" fill="#000000">0.333</text>
</g>
<!-- SG_0_Node_25&#45;&gt;SG_0_Node_52 -->
<g id="edge33" class="edge">
<title>SG_0_Node_25&#45;&gt;SG_0_Node_52</title>
<path fill="none" stroke="#000000" d="M819.9329,-245.5148C815.7091,-234.141 810.5011,-219.0909 807,-205.4264 794.9536,-158.4111 786.4515,-102.7059 781.8891,-68.6717"/>
<polygon fill="#000000" stroke="#000000" points="785.3157,-67.8824 780.5467,-58.4216 778.375,-68.7915 785.3157,-67.8824"/>
<text text-anchor="middle" x="826.5" y="-145.4264" font-family="Times,serif" font-size="20.00" fill="#000000">407</text>
</g>
<!-- SG_0_Node_53 -->
<g id="node49" class="node">
<title>SG_0_Node_53</title>
<ellipse fill="none" stroke="#000000" cx="883" cy="-37.2132" rx="34.7971" ry="21.4286"/>
<text text-anchor="middle" x="883" y="-32.2132" font-family="Times,serif" font-size="20.00" fill="#000000">1.0</text>
</g>
<!-- SG_0_Node_25&#45;&gt;SG_0_Node_53 -->
<g id="edge34" class="edge">
<title>SG_0_Node_25&#45;&gt;SG_0_Node_53</title>
<path fill="none" stroke="#000000" d="M833.4584,-245.4269C837.3748,-234.02 842.3111,-218.966 846,-205.4264 858.8733,-158.1769 870.4186,-102.5371 877.0662,-68.5805"/>
<polygon fill="#000000" stroke="#000000" points="880.5812,-68.839 879.0479,-58.3557 873.7091,-67.507 880.5812,-68.839"/>
<text text-anchor="middle" x="890.5" y="-189.4264" font-family="Times,serif" font-size="20.00" fill="#000000">301</text>
<text text-anchor="middle" x="890.5" y="-167.4264" font-family="Times,serif" font-size="20.00" fill="#000000">302</text>
<text text-anchor="middle" x="890.5" y="-145.4264" font-family="Times,serif" font-size="20.00" fill="#000000">303</text>
<text text-anchor="middle" x="890.5" y="-123.4264" font-family="Times,serif" font-size="20.00" fill="#000000">307</text>
<text text-anchor="middle" x="890.5" y="-101.4264" font-family="Times,serif" font-size="20.00" fill="#000000">308</text>
</g>
</g>
</svg>
