<?xml version="1.0" encoding="UTF-8" standalone="no"?>
<!DOCTYPE svg PUBLIC "-//W3C//DTD SVG 1.1//EN"
 "http://www.w3.org/Graphics/SVG/1.1/DTD/svg11.dtd">
<!-- Generated by graphviz version 2.40.1 (20161225.0304)
 -->
<!-- Title: G Pages: 1 -->
<svg width="2373pt" height="2232pt"
 viewBox="0.00 0.00 2373.00 2231.84" xmlns="http://www.w3.org/2000/svg" xmlns:xlink="http://www.w3.org/1999/xlink">
<g id="graph0" class="graph" transform="scale(1 1) rotate(0) translate(4 2227.8377)">
<title>G</title>
<polygon fill="#ffffff" stroke="transparent" points="-4,4 -4,-2227.8377 2369,-2227.8377 2369,4 -4,4"/>
<g id="clust1" class="cluster">
<title>cluster_0</title>
<polygon fill="none" stroke="#000000" points="8,-8 8,-2215.8377 2357,-2215.8377 2357,-8 8,-8"/>
<text text-anchor="middle" x="1182.5" y="-2179.8377" font-family="Times,serif" font-size="40.00" fill="#000000">Tree 0, Class [&#39;Message: mes1 Origin: https://172.17.0.1:44300&#39;, &#39;Message: mes1 Origin: https://172.17.0.1:44300&#39;]</text>
</g>
<!-- SG_0_Node_0 -->
<g id="node1" class="node">
<title>SG_0_Node_0</title>
<polygon fill="none" stroke="#000000" points="211.5,-2155.8377 146.5,-2155.8377 146.5,-2119.8377 211.5,-2119.8377 211.5,-2155.8377"/>
<text text-anchor="middle" x="179" y="-2132.8377" font-family="Times,serif" font-size="20.00" fill="#000000">body</text>
</g>
<!-- SG_0_Node_29 -->
<g id="node2" class="node">
<title>SG_0_Node_29</title>
<ellipse fill="none" stroke="#000000" cx="115" cy="-1980.6245" rx="34.7971" ry="21.4286"/>
<text text-anchor="middle" x="115" y="-1975.6245" font-family="Times,serif" font-size="20.00" fill="#000000">0.0</text>
</g>
<!-- SG_0_Node_0&#45;&gt;SG_0_Node_29 -->
<g id="edge1" class="edge">
<title>SG_0_Node_0&#45;&gt;SG_0_Node_29</title>
<path fill="none" stroke="#000000" d="M157.7021,-2119.5365C147.6635,-2109.6974 136.4912,-2096.7433 130,-2082.8377 119.6634,-2060.6944 116.0807,-2033.1682 114.9906,-2012.2613"/>
<polygon fill="#000000" stroke="#000000" points="118.4788,-2011.8645 114.6252,-2001.9953 111.4832,-2012.1135 118.4788,-2011.8645"/>
<text text-anchor="middle" x="176" y="-2066.8377" font-family="Times,serif" font-size="20.00" fill="#000000">[NA]</text>
<text text-anchor="middle" x="176" y="-2044.8377" font-family="Times,serif" font-size="20.00" fill="#000000">11 levels</text>
</g>
<!-- SG_0_Node_1 -->
<g id="node3" class="node">
<title>SG_0_Node_1</title>
<polygon fill="none" stroke="#000000" points="322.5,-1998.6245 167.5,-1998.6245 167.5,-1962.6245 322.5,-1962.6245 322.5,-1998.6245"/>
<text text-anchor="middle" x="245" y="-1975.6245" font-family="Times,serif" font-size="20.00" fill="#000000">Content&#45;Type</text>
</g>
<!-- SG_0_Node_0&#45;&gt;SG_0_Node_1 -->
<g id="edge2" class="edge">
<title>SG_0_Node_0&#45;&gt;SG_0_Node_1</title>
<path fill="none" stroke="#000000" d="M196.8067,-2119.3894C205.6064,-2109.3183 215.6689,-2096.2008 222,-2082.8377 233.1923,-2059.2138 239.0668,-2029.9002 242.0668,-2008.7308"/>
<polygon fill="#000000" stroke="#000000" points="245.5441,-2009.1311 243.3531,-1998.7653 238.6017,-2008.235 245.5441,-2009.1311"/>
<text text-anchor="middle" x="415" y="-2055.8377" font-family="Times,serif" font-size="20.00" fill="#000000">ecocnt_html=post_message=mes1</text>
</g>
<!-- SG_0_Node_30 -->
<g id="node4" class="node">
<title>SG_0_Node_30</title>
<ellipse fill="none" stroke="#000000" cx="55" cy="-1710.1981" rx="34.7971" ry="21.4286"/>
<text text-anchor="middle" x="55" y="-1705.1981" font-family="Times,serif" font-size="20.00" fill="#000000">0.0</text>
</g>
<!-- SG_0_Node_1&#45;&gt;SG_0_Node_30 -->
<g id="edge3" class="edge">
<title>SG_0_Node_1&#45;&gt;SG_0_Node_30</title>
<path fill="none" stroke="#000000" d="M171.6976,-1962.6127C121.3734,-1949.5084 62.3718,-1932.3799 55,-1922.4113 15.472,-1868.9588 31.6675,-1785.4258 44.6705,-1740.7742"/>
<polygon fill="#000000" stroke="#000000" points="48.0575,-1741.6661 47.6231,-1731.0801 41.3612,-1739.6264 48.0575,-1741.6661"/>
<text text-anchor="middle" x="166" y="-1906.4113" font-family="Times,serif" font-size="20.00" fill="#000000">[NA]</text>
<text text-anchor="middle" x="166" y="-1884.4113" font-family="Times,serif" font-size="20.00" fill="#000000">application/javascript</text>
<text text-anchor="middle" x="166" y="-1862.4113" font-family="Times,serif" font-size="20.00" fill="#000000">application/pdf</text>
<text text-anchor="middle" x="166" y="-1840.4113" font-family="Times,serif" font-size="20.00" fill="#000000">audio/wav</text>
<text text-anchor="middle" x="166" y="-1818.4113" font-family="Times,serif" font-size="20.00" fill="#000000">image/png</text>
<text text-anchor="middle" x="166" y="-1796.4113" font-family="Times,serif" font-size="20.00" fill="#000000">text/css</text>
<text text-anchor="middle" x="166" y="-1774.4113" font-family="Times,serif" font-size="20.00" fill="#000000">video/mp4</text>
</g>
<!-- SG_0_Node_2 -->
<g id="node5" class="node">
<title>SG_0_Node_2</title>
<polygon fill="none" stroke="#000000" points="423.5,-1728.1981 202.5,-1728.1981 202.5,-1692.1981 423.5,-1692.1981 423.5,-1728.1981"/>
<text text-anchor="middle" x="313" y="-1705.1981" font-family="Times,serif" font-size="20.00" fill="#000000">Content&#45;Disposition</text>
</g>
<!-- SG_0_Node_1&#45;&gt;SG_0_Node_2 -->
<g id="edge4" class="edge">
<title>SG_0_Node_1&#45;&gt;SG_0_Node_2</title>
<path fill="none" stroke="#000000" d="M258.8896,-1962.4837C266.6185,-1951.4707 275.7184,-1936.8016 281,-1922.4113 304.0976,-1859.4788 310.5349,-1780.1828 312.321,-1738.6103"/>
<polygon fill="#000000" stroke="#000000" points="315.8263,-1738.5298 312.697,-1728.4077 308.831,-1738.272 315.8263,-1738.5298"/>
<text text-anchor="middle" x="357" y="-1851.4113" font-family="Times,serif" font-size="20.00" fill="#000000">empty</text>
<text text-anchor="middle" x="357" y="-1829.4113" font-family="Times,serif" font-size="20.00" fill="#000000">text/html</text>
</g>
<!-- SG_0_Node_31 -->
<g id="node6" class="node">
<title>SG_0_Node_31</title>
<ellipse fill="none" stroke="#000000" cx="294" cy="-1549.7716" rx="34.7971" ry="21.4286"/>
<text text-anchor="middle" x="294" y="-1544.7716" font-family="Times,serif" font-size="20.00" fill="#000000">0.0</text>
</g>
<!-- SG_0_Node_2&#45;&gt;SG_0_Node_31 -->
<g id="edge5" class="edge">
<title>SG_0_Node_2&#45;&gt;SG_0_Node_31</title>
<path fill="none" stroke="#000000" d="M310.8574,-1692.107C307.6697,-1665.192 301.6345,-1614.2335 297.717,-1581.1563"/>
<polygon fill="#000000" stroke="#000000" points="301.1777,-1580.6173 296.5258,-1571.0983 294.2263,-1581.4406 301.1777,-1580.6173"/>
<text text-anchor="middle" x="365" y="-1624.9848" font-family="Times,serif" font-size="20.00" fill="#000000">attachment</text>
</g>
<!-- SG_0_Node_3 -->
<g id="node7" class="node">
<title>SG_0_Node_3</title>
<polygon fill="none" stroke="#000000" points="543.5,-1567.7716 352.5,-1567.7716 352.5,-1531.7716 543.5,-1531.7716 543.5,-1567.7716"/>
<text text-anchor="middle" x="448" y="-1544.7716" font-family="Times,serif" font-size="20.00" fill="#000000">X&#45;Frame&#45;Options</text>
</g>
<!-- SG_0_Node_2&#45;&gt;SG_0_Node_3 -->
<g id="edge6" class="edge">
<title>SG_0_Node_2&#45;&gt;SG_0_Node_3</title>
<path fill="none" stroke="#000000" d="M370.7394,-1692.1419C390.9841,-1683.105 412.1127,-1670.1188 426,-1651.9848 442.2183,-1630.8071 447.0662,-1600.2619 448.2535,-1578.0822"/>
<polygon fill="#000000" stroke="#000000" points="451.7562,-1578.05 448.5761,-1567.9437 444.7598,-1577.8273 451.7562,-1578.05"/>
<text text-anchor="middle" x="476" y="-1635.9848" font-family="Times,serif" font-size="20.00" fill="#000000">[NA]</text>
<text text-anchor="middle" x="476" y="-1613.9848" font-family="Times,serif" font-size="20.00" fill="#000000">empty</text>
</g>
<!-- SG_0_Node_4 -->
<g id="node8" class="node">
<title>SG_0_Node_4</title>
<polygon fill="none" stroke="#000000" points="465,-1410.5584 323,-1410.5584 323,-1374.5584 465,-1374.5584 465,-1410.5584"/>
<text text-anchor="middle" x="394" y="-1387.5584" font-family="Times,serif" font-size="20.00" fill="#000000">Status&#45;Code</text>
</g>
<!-- SG_0_Node_3&#45;&gt;SG_0_Node_4 -->
<g id="edge7" class="edge">
<title>SG_0_Node_3&#45;&gt;SG_0_Node_4</title>
<path fill="none" stroke="#000000" d="M441.8055,-1531.7373C432.4563,-1504.5185 414.6624,-1452.714 403.618,-1420.5599"/>
<polygon fill="#000000" stroke="#000000" points="406.8474,-1419.1874 400.2886,-1410.8667 400.227,-1421.4614 406.8474,-1419.1874"/>
<text text-anchor="middle" x="451.5" y="-1464.5584" font-family="Times,serif" font-size="20.00" fill="#000000">deny</text>
</g>
<!-- SG_0_Node_5 -->
<g id="node9" class="node">
<title>SG_0_Node_5</title>
<polygon fill="none" stroke="#000000" points="753,-1410.5584 611,-1410.5584 611,-1374.5584 753,-1374.5584 753,-1410.5584"/>
<text text-anchor="middle" x="682" y="-1387.5584" font-family="Times,serif" font-size="20.00" fill="#000000">Status&#45;Code</text>
</g>
<!-- SG_0_Node_3&#45;&gt;SG_0_Node_5 -->
<g id="edge8" class="edge">
<title>SG_0_Node_3&#45;&gt;SG_0_Node_5</title>
<path fill="none" stroke="#000000" d="M474.8428,-1531.7373C517.2228,-1503.2642 599.6467,-1447.8876 646.7452,-1416.2444"/>
<polygon fill="#000000" stroke="#000000" points="648.7621,-1419.106 655.1109,-1410.6239 644.8584,-1413.2955 648.7621,-1419.106"/>
<text text-anchor="middle" x="631" y="-1475.5584" font-family="Times,serif" font-size="20.00" fill="#000000">[NA]</text>
<text text-anchor="middle" x="631" y="-1453.5584" font-family="Times,serif" font-size="20.00" fill="#000000">empty</text>
</g>
<!-- SG_0_Node_32 -->
<g id="node10" class="node">
<title>SG_0_Node_32</title>
<ellipse fill="none" stroke="#000000" cx="266" cy="-1147.3452" rx="34.7971" ry="21.4286"/>
<text text-anchor="middle" x="266" y="-1142.3452" font-family="Times,serif" font-size="20.00" fill="#000000">0.0</text>
</g>
<!-- SG_0_Node_4&#45;&gt;SG_0_Node_32 -->
<g id="edge39" class="edge">
<title>SG_0_Node_4&#45;&gt;SG_0_Node_32</title>
<path fill="none" stroke="#000000" d="M340.708,-1374.4356C323.2115,-1365.9037 305.3593,-1353.9135 294,-1337.5584 260.8771,-1289.8682 259.8404,-1219.1618 262.578,-1178.739"/>
<polygon fill="#000000" stroke="#000000" points="266.0752,-1178.9126 263.3822,-1168.6658 259.0974,-1178.3555 266.0752,-1178.9126"/>
<text text-anchor="middle" x="340" y="-1277.5584" font-family="Times,serif" font-size="20.00" fill="#000000">[NA]</text>
<text text-anchor="middle" x="340" y="-1255.5584" font-family="Times,serif" font-size="20.00" fill="#000000">57 levels</text>
</g>
<!-- SG_0_Node_6 -->
<g id="node11" class="node">
<title>SG_0_Node_6</title>
<polygon fill="none" stroke="#000000" points="454.5,-1165.3452 323.5,-1165.3452 323.5,-1129.3452 454.5,-1129.3452 454.5,-1165.3452"/>
<text text-anchor="middle" x="389" y="-1142.3452" font-family="Times,serif" font-size="20.00" fill="#000000">browser_id</text>
</g>
<!-- SG_0_Node_4&#45;&gt;SG_0_Node_6 -->
<g id="edge40" class="edge">
<title>SG_0_Node_4&#45;&gt;SG_0_Node_6</title>
<path fill="none" stroke="#000000" d="M393.6323,-1374.5273C392.7709,-1332.2798 390.6165,-1226.6249 389.5779,-1175.6854"/>
<polygon fill="#000000" stroke="#000000" points="393.0714,-1175.3293 389.3682,-1165.4028 386.0729,-1175.4721 393.0714,-1175.3293"/>
<text text-anchor="middle" x="411.5" y="-1321.5584" font-family="Times,serif" font-size="20.00" fill="#000000">300</text>
<text text-anchor="middle" x="411.5" y="-1299.5584" font-family="Times,serif" font-size="20.00" fill="#000000">301</text>
<text text-anchor="middle" x="411.5" y="-1277.5584" font-family="Times,serif" font-size="20.00" fill="#000000">302</text>
<text text-anchor="middle" x="411.5" y="-1255.5584" font-family="Times,serif" font-size="20.00" fill="#000000">303</text>
<text text-anchor="middle" x="411.5" y="-1233.5584" font-family="Times,serif" font-size="20.00" fill="#000000">307</text>
<text text-anchor="middle" x="411.5" y="-1211.5584" font-family="Times,serif" font-size="20.00" fill="#000000">308</text>
</g>
<!-- SG_0_Node_7 -->
<g id="node12" class="node">
<title>SG_0_Node_7</title>
<polygon fill="none" stroke="#000000" points="753,-1165.3452 611,-1165.3452 611,-1129.3452 753,-1129.3452 753,-1165.3452"/>
<text text-anchor="middle" x="682" y="-1142.3452" font-family="Times,serif" font-size="20.00" fill="#000000">Status&#45;Code</text>
</g>
<!-- SG_0_Node_5&#45;&gt;SG_0_Node_7 -->
<g id="edge9" class="edge">
<title>SG_0_Node_5&#45;&gt;SG_0_Node_7</title>
<path fill="none" stroke="#000000" d="M682,-1374.5273C682,-1332.2798 682,-1226.6249 682,-1175.6854"/>
<polygon fill="#000000" stroke="#000000" points="685.5001,-1175.4027 682,-1165.4028 678.5001,-1175.4028 685.5001,-1175.4027"/>
<text text-anchor="middle" x="728" y="-1266.5584" font-family="Times,serif" font-size="20.00" fill="#000000">13 levels</text>
</g>
<!-- SG_0_Node_8 -->
<g id="node13" class="node">
<title>SG_0_Node_8</title>
<polygon fill="none" stroke="#000000" points="1197,-1165.3452 935,-1165.3452 935,-1129.3452 1197,-1129.3452 1197,-1165.3452"/>
<text text-anchor="middle" x="1066" y="-1142.3452" font-family="Times,serif" font-size="20.00" fill="#000000">X&#45;Content&#45;Type&#45;Options</text>
</g>
<!-- SG_0_Node_5&#45;&gt;SG_0_Node_8 -->
<g id="edge10" class="edge">
<title>SG_0_Node_5&#45;&gt;SG_0_Node_8</title>
<path fill="none" stroke="#000000" d="M714.7395,-1374.4805C733.4398,-1363.9862 757.2285,-1350.3502 778,-1337.5584 871.0379,-1280.2625 977.6568,-1208.0818 1031.3045,-1171.2913"/>
<polygon fill="#000000" stroke="#000000" points="1033.4981,-1174.0308 1039.7603,-1165.4847 1029.5355,-1168.2604 1033.4981,-1174.0308"/>
<text text-anchor="middle" x="1024" y="-1277.5584" font-family="Times,serif" font-size="20.00" fill="#000000">[NA]</text>
<text text-anchor="middle" x="1024" y="-1255.5584" font-family="Times,serif" font-size="20.00" fill="#000000">50 levels</text>
</g>
<!-- SG_0_Node_33 -->
<g id="node14" class="node">
<title>SG_0_Node_33</title>
<ellipse fill="none" stroke="#000000" cx="284" cy="-876.9188" rx="34.7971" ry="21.4286"/>
<text text-anchor="middle" x="284" y="-871.9188" font-family="Times,serif" font-size="20.00" fill="#000000">0.0</text>
</g>
<!-- SG_0_Node_6&#45;&gt;SG_0_Node_33 -->
<g id="edge41" class="edge">
<title>SG_0_Node_6&#45;&gt;SG_0_Node_33</title>
<path fill="none" stroke="#000000" d="M367.4438,-1129.1474C356.2032,-1118.5559 343.1379,-1104.3208 335,-1089.132 303.4085,-1030.1684 291.135,-951.6088 286.5594,-908.5208"/>
<polygon fill="#000000" stroke="#000000" points="290.0222,-907.9709 285.5549,-898.3639 283.0562,-908.6599 290.0222,-907.9709"/>
<text text-anchor="middle" x="360" y="-1029.132" font-family="Times,serif" font-size="20.00" fill="#000000">[NA]</text>
<text text-anchor="middle" x="360" y="-1007.132" font-family="Times,serif" font-size="20.00" fill="#000000">2</text>
<text text-anchor="middle" x="360" y="-985.132" font-family="Times,serif" font-size="20.00" fill="#000000">3</text>
</g>
<!-- SG_0_Node_9 -->
<g id="node15" class="node">
<title>SG_0_Node_9</title>
<polygon fill="none" stroke="#000000" points="441.5,-894.9188 336.5,-894.9188 336.5,-858.9188 441.5,-858.9188 441.5,-894.9188"/>
<text text-anchor="middle" x="389" y="-871.9188" font-family="Times,serif" font-size="20.00" fill="#000000">Location</text>
</g>
<!-- SG_0_Node_6&#45;&gt;SG_0_Node_9 -->
<g id="edge42" class="edge">
<title>SG_0_Node_6&#45;&gt;SG_0_Node_9</title>
<path fill="none" stroke="#000000" d="M389,-1129.1819C389,-1082.9966 389,-960.8048 389,-905.1951"/>
<polygon fill="#000000" stroke="#000000" points="392.5001,-905.0031 389,-895.0031 385.5001,-905.0032 392.5001,-905.0031"/>
<text text-anchor="middle" x="395.5" y="-1007.132" font-family="Times,serif" font-size="20.00" fill="#000000">1</text>
</g>
<!-- SG_0_Node_34 -->
<g id="node16" class="node">
<title>SG_0_Node_34</title>
<ellipse fill="none" stroke="#000000" cx="641" cy="-876.9188" rx="34.7971" ry="21.4286"/>
<text text-anchor="middle" x="641" y="-871.9188" font-family="Times,serif" font-size="20.00" fill="#000000">0.0</text>
</g>
<!-- SG_0_Node_7&#45;&gt;SG_0_Node_34 -->
<g id="edge23" class="edge">
<title>SG_0_Node_7&#45;&gt;SG_0_Node_34</title>
<path fill="none" stroke="#000000" d="M677.9552,-1129.3116C675.4643,-1117.8435 672.3158,-1102.6594 670,-1089.132 659.0617,-1025.2388 649.5731,-949.9587 644.6319,-908.4273"/>
<polygon fill="#000000" stroke="#000000" points="648.094,-907.8997 643.4469,-898.3784 641.1422,-908.7195 648.094,-907.8997"/>
<text text-anchor="middle" x="689.5" y="-1073.132" font-family="Times,serif" font-size="20.00" fill="#000000">100</text>
<text text-anchor="middle" x="689.5" y="-1051.132" font-family="Times,serif" font-size="20.00" fill="#000000">101</text>
<text text-anchor="middle" x="689.5" y="-1029.132" font-family="Times,serif" font-size="20.00" fill="#000000">102</text>
<text text-anchor="middle" x="689.5" y="-1007.132" font-family="Times,serif" font-size="20.00" fill="#000000">103</text>
<text text-anchor="middle" x="689.5" y="-985.132" font-family="Times,serif" font-size="20.00" fill="#000000">204</text>
<text text-anchor="middle" x="689.5" y="-963.132" font-family="Times,serif" font-size="20.00" fill="#000000">205</text>
<text text-anchor="middle" x="689.5" y="-941.132" font-family="Times,serif" font-size="20.00" fill="#000000">304</text>
</g>
<!-- SG_0_Node_10 -->
<g id="node17" class="node">
<title>SG_0_Node_10</title>
<polygon fill="none" stroke="#000000" points="798.5,-894.9188 693.5,-894.9188 693.5,-858.9188 798.5,-858.9188 798.5,-894.9188"/>
<text text-anchor="middle" x="746" y="-871.9188" font-family="Times,serif" font-size="20.00" fill="#000000">Location</text>
</g>
<!-- SG_0_Node_7&#45;&gt;SG_0_Node_10 -->
<g id="edge24" class="edge">
<title>SG_0_Node_7&#45;&gt;SG_0_Node_10</title>
<path fill="none" stroke="#000000" d="M691.9063,-1129.2234C697.6712,-1117.9765 704.6391,-1103.0594 709,-1089.132 729.0552,-1025.0823 739.1752,-946.5439 743.4337,-905.3073"/>
<polygon fill="#000000" stroke="#000000" points="746.9337,-905.4796 744.4379,-895.183 739.9679,-904.7887 746.9337,-905.4796"/>
<text text-anchor="middle" x="758.5" y="-1062.132" font-family="Times,serif" font-size="20.00" fill="#000000">301</text>
<text text-anchor="middle" x="758.5" y="-1040.132" font-family="Times,serif" font-size="20.00" fill="#000000">302</text>
<text text-anchor="middle" x="758.5" y="-1018.132" font-family="Times,serif" font-size="20.00" fill="#000000">303</text>
<text text-anchor="middle" x="758.5" y="-996.132" font-family="Times,serif" font-size="20.00" fill="#000000">307</text>
<text text-anchor="middle" x="758.5" y="-974.132" font-family="Times,serif" font-size="20.00" fill="#000000">308</text>
<text text-anchor="middle" x="758.5" y="-952.132" font-family="Times,serif" font-size="20.00" fill="#000000">407</text>
</g>
<!-- SG_0_Node_11 -->
<g id="node18" class="node">
<title>SG_0_Node_11</title>
<polygon fill="none" stroke="#000000" points="1143.5,-894.9188 988.5,-894.9188 988.5,-858.9188 1143.5,-858.9188 1143.5,-894.9188"/>
<text text-anchor="middle" x="1066" y="-871.9188" font-family="Times,serif" font-size="20.00" fill="#000000">Content&#45;Type</text>
</g>
<!-- SG_0_Node_8&#45;&gt;SG_0_Node_11 -->
<g id="edge11" class="edge">
<title>SG_0_Node_8&#45;&gt;SG_0_Node_11</title>
<path fill="none" stroke="#000000" d="M1066,-1129.1819C1066,-1082.9966 1066,-960.8048 1066,-905.1951"/>
<polygon fill="#000000" stroke="#000000" points="1069.5001,-905.0031 1066,-895.0031 1062.5001,-905.0032 1069.5001,-905.0031"/>
<text text-anchor="middle" x="1101" y="-1018.132" font-family="Times,serif" font-size="20.00" fill="#000000">[NA]</text>
<text text-anchor="middle" x="1101" y="-996.132" font-family="Times,serif" font-size="20.00" fill="#000000">nosniff</text>
</g>
<!-- SG_0_Node_12 -->
<g id="node19" class="node">
<title>SG_0_Node_12</title>
<polygon fill="none" stroke="#000000" points="1370,-894.9188 1228,-894.9188 1228,-858.9188 1370,-858.9188 1370,-894.9188"/>
<text text-anchor="middle" x="1299" y="-871.9188" font-family="Times,serif" font-size="20.00" fill="#000000">Status&#45;Code</text>
</g>
<!-- SG_0_Node_8&#45;&gt;SG_0_Node_12 -->
<g id="edge12" class="edge">
<title>SG_0_Node_8&#45;&gt;SG_0_Node_12</title>
<path fill="none" stroke="#000000" d="M1092.3839,-1129.2104C1107.1693,-1118.4257 1125.4946,-1103.9829 1140,-1089.132 1199.0379,-1028.6879 1255.1475,-945.8377 1282.1831,-903.7757"/>
<polygon fill="#000000" stroke="#000000" points="1285.2261,-905.5133 1287.6544,-895.2005 1279.3249,-901.7481 1285.2261,-905.5133"/>
<text text-anchor="middle" x="1292" y="-1007.132" font-family="Times,serif" font-size="20.00" fill="#000000">empty</text>
</g>
<!-- SG_0_Node_35 -->
<g id="node20" class="node">
<title>SG_0_Node_35</title>
<ellipse fill="none" stroke="#000000" cx="123" cy="-716.4924" rx="34.7971" ry="21.4286"/>
<text text-anchor="middle" x="123" y="-711.4924" font-family="Times,serif" font-size="20.00" fill="#000000">0.0</text>
</g>
<!-- SG_0_Node_9&#45;&gt;SG_0_Node_35 -->
<g id="edge43" class="edge">
<title>SG_0_Node_9&#45;&gt;SG_0_Node_35</title>
<path fill="none" stroke="#000000" d="M338.921,-858.8315C335.2444,-857.7107 331.5764,-856.6542 328,-855.7056 241.0461,-832.6436 188.5075,-886.1719 129,-818.7056 112.251,-799.7165 112.2831,-770.2144 115.6073,-747.7772"/>
<polygon fill="#000000" stroke="#000000" points="119.0912,-748.1743 117.3808,-737.7185 112.1975,-746.9588 119.0912,-748.1743"/>
<text text-anchor="middle" x="244" y="-791.7056" font-family="Times,serif" font-size="20.00" fill="#000000">http://172.17.0.1:8000</text>
</g>
<!-- SG_0_Node_13 -->
<g id="node21" class="node">
<title>SG_0_Node_13</title>
<polygon fill="none" stroke="#000000" points="479,-734.4924 217,-734.4924 217,-698.4924 479,-698.4924 479,-734.4924"/>
<text text-anchor="middle" x="348" y="-711.4924" font-family="Times,serif" font-size="20.00" fill="#000000">X&#45;Content&#45;Type&#45;Options</text>
</g>
<!-- SG_0_Node_9&#45;&gt;SG_0_Node_13 -->
<g id="edge44" class="edge">
<title>SG_0_Node_9&#45;&gt;SG_0_Node_13</title>
<path fill="none" stroke="#000000" d="M384.3765,-858.8277C377.2711,-831.0255 363.6091,-777.5683 355.2002,-744.6655"/>
<polygon fill="#000000" stroke="#000000" points="358.5367,-743.5855 352.6695,-734.7636 351.7547,-745.3188 358.5367,-743.5855"/>
<text text-anchor="middle" x="405" y="-802.7056" font-family="Times,serif" font-size="20.00" fill="#000000">[NA]</text>
<text text-anchor="middle" x="405" y="-780.7056" font-family="Times,serif" font-size="20.00" fill="#000000">empty</text>
</g>
<!-- SG_0_Node_14 -->
<g id="node22" class="node">
<title>SG_0_Node_14</title>
<polygon fill="none" stroke="#000000" points="639,-734.4924 497,-734.4924 497,-698.4924 639,-698.4924 639,-734.4924"/>
<text text-anchor="middle" x="568" y="-711.4924" font-family="Times,serif" font-size="20.00" fill="#000000">Status&#45;Code</text>
</g>
<!-- SG_0_Node_10&#45;&gt;SG_0_Node_14 -->
<g id="edge25" class="edge">
<title>SG_0_Node_10&#45;&gt;SG_0_Node_14</title>
<path fill="none" stroke="#000000" d="M694.4504,-858.8768C691.2557,-857.7944 688.086,-856.73 685,-855.7056 633.2386,-838.5248 600.2302,-862.7015 568,-818.7056 552.5192,-797.5735 554.8922,-766.825 559.6761,-744.5774"/>
<polygon fill="#000000" stroke="#000000" points="563.1114,-745.2623 562.0691,-734.7189 556.309,-743.6111 563.1114,-745.2623"/>
<text text-anchor="middle" x="683" y="-802.7056" font-family="Times,serif" font-size="20.00" fill="#000000">[NA]</text>
<text text-anchor="middle" x="683" y="-780.7056" font-family="Times,serif" font-size="20.00" fill="#000000">http://172.17.0.1:8000</text>
</g>
<!-- SG_0_Node_15 -->
<g id="node23" class="node">
<title>SG_0_Node_15</title>
<polygon fill="none" stroke="#000000" points="965,-734.4924 703,-734.4924 703,-698.4924 965,-698.4924 965,-734.4924"/>
<text text-anchor="middle" x="834" y="-711.4924" font-family="Times,serif" font-size="20.00" fill="#000000">X&#45;Content&#45;Type&#45;Options</text>
</g>
<!-- SG_0_Node_10&#45;&gt;SG_0_Node_15 -->
<g id="edge26" class="edge">
<title>SG_0_Node_10&#45;&gt;SG_0_Node_15</title>
<path fill="none" stroke="#000000" d="M767.6902,-858.8917C779.289,-848.2486 792.9956,-833.909 802,-818.7056 815.6995,-795.575 824.1315,-765.9708 828.8763,-744.5819"/>
<polygon fill="#000000" stroke="#000000" points="832.3604,-745.019 830.9731,-734.5153 825.5074,-743.5915 832.3604,-745.019"/>
<text text-anchor="middle" x="852" y="-791.7056" font-family="Times,serif" font-size="20.00" fill="#000000">empty</text>
</g>
<!-- SG_0_Node_36 -->
<g id="node24" class="node">
<title>SG_0_Node_36</title>
<ellipse fill="none" stroke="#000000" cx="1019" cy="-716.4924" rx="34.7971" ry="21.4286"/>
<text text-anchor="middle" x="1019" y="-711.4924" font-family="Times,serif" font-size="20.00" fill="#000000">0.0</text>
</g>
<!-- SG_0_Node_11&#45;&gt;SG_0_Node_36 -->
<g id="edge17" class="edge">
<title>SG_0_Node_11&#45;&gt;SG_0_Node_36</title>
<path fill="none" stroke="#000000" d="M1058.9195,-858.7193C1054.6125,-847.3174 1049.1592,-832.264 1045,-818.7056 1037.7748,-795.1528 1030.9625,-768.1233 1026.1248,-747.7776"/>
<polygon fill="#000000" stroke="#000000" points="1029.4757,-746.7369 1023.7832,-737.8012 1022.6609,-748.3364 1029.4757,-746.7369"/>
<text text-anchor="middle" x="1077" y="-791.7056" font-family="Times,serif" font-size="20.00" fill="#000000">empty</text>
</g>
<!-- SG_0_Node_16 -->
<g id="node25" class="node">
<title>SG_0_Node_16</title>
<polygon fill="none" stroke="#000000" points="1214,-734.4924 1072,-734.4924 1072,-698.4924 1214,-698.4924 1214,-734.4924"/>
<text text-anchor="middle" x="1143" y="-711.4924" font-family="Times,serif" font-size="20.00" fill="#000000">Status&#45;Code</text>
</g>
<!-- SG_0_Node_11&#45;&gt;SG_0_Node_16 -->
<g id="edge18" class="edge">
<title>SG_0_Node_11&#45;&gt;SG_0_Node_16</title>
<path fill="none" stroke="#000000" d="M1081.7361,-858.7755C1090.6742,-847.7616 1101.5345,-833.0924 1109,-818.7056 1121.3796,-794.849 1130.5752,-765.564 1136.2601,-744.4645"/>
<polygon fill="#000000" stroke="#000000" points="1139.7122,-745.0957 1138.8392,-734.5368 1132.9371,-743.3355 1139.7122,-745.0957"/>
<text text-anchor="middle" x="1174" y="-791.7056" font-family="Times,serif" font-size="20.00" fill="#000000">text/html</text>
</g>
<!-- SG_0_Node_17 -->
<g id="node26" class="node">
<title>SG_0_Node_17</title>
<polygon fill="none" stroke="#000000" points="1364.5,-734.4924 1233.5,-734.4924 1233.5,-698.4924 1364.5,-698.4924 1364.5,-734.4924"/>
<text text-anchor="middle" x="1299" y="-711.4924" font-family="Times,serif" font-size="20.00" fill="#000000">browser_id</text>
</g>
<!-- SG_0_Node_12&#45;&gt;SG_0_Node_17 -->
<g id="edge13" class="edge">
<title>SG_0_Node_12&#45;&gt;SG_0_Node_17</title>
<path fill="none" stroke="#000000" d="M1299,-858.8277C1299,-831.1459 1299,-778.0306 1299,-745.0939"/>
<polygon fill="#000000" stroke="#000000" points="1302.5001,-744.7635 1299,-734.7636 1295.5001,-744.7636 1302.5001,-744.7635"/>
<text text-anchor="middle" x="1318.5" y="-791.7056" font-family="Times,serif" font-size="20.00" fill="#000000">300</text>
</g>
<!-- SG_0_Node_37 -->
<g id="node27" class="node">
<title>SG_0_Node_37</title>
<ellipse fill="none" stroke="#000000" cx="1417" cy="-716.4924" rx="34.7971" ry="21.4286"/>
<text text-anchor="middle" x="1417" y="-711.4924" font-family="Times,serif" font-size="20.00" fill="#000000">1.0</text>
</g>
<!-- SG_0_Node_12&#45;&gt;SG_0_Node_37 -->
<g id="edge14" class="edge">
<title>SG_0_Node_12&#45;&gt;SG_0_Node_37</title>
<path fill="none" stroke="#000000" d="M1312.3795,-858.8367C1320.8733,-847.3498 1332.0926,-832.163 1342,-818.7056 1360.497,-793.581 1381.5047,-764.9418 1396.5716,-744.3832"/>
<polygon fill="#000000" stroke="#000000" points="1399.553,-746.236 1402.6405,-736.101 1393.9066,-742.0985 1399.553,-746.236"/>
<text text-anchor="middle" x="1420" y="-802.7056" font-family="Times,serif" font-size="20.00" fill="#000000">[NA]</text>
<text text-anchor="middle" x="1420" y="-780.7056" font-family="Times,serif" font-size="20.00" fill="#000000">49 levels</text>
</g>
<!-- SG_0_Node_18 -->
<g id="node28" class="node">
<title>SG_0_Node_18</title>
<polygon fill="none" stroke="#000000" points="305.5,-508.066 150.5,-508.066 150.5,-472.066 305.5,-472.066 305.5,-508.066"/>
<text text-anchor="middle" x="228" y="-485.066" font-family="Times,serif" font-size="20.00" fill="#000000">Content&#45;Type</text>
</g>
<!-- SG_0_Node_13&#45;&gt;SG_0_Node_18 -->
<g id="edge45" class="edge">
<title>SG_0_Node_13&#45;&gt;SG_0_Node_18</title>
<path fill="none" stroke="#000000" d="M317.6401,-698.282C303.1278,-688.1637 286.6424,-674.3672 276,-658.2792 247.1493,-614.6659 235.3938,-553.6221 230.7888,-518.3262"/>
<polygon fill="#000000" stroke="#000000" points="234.2458,-517.758 229.5782,-508.2468 227.2957,-518.5928 234.2458,-517.758"/>
<text text-anchor="middle" x="311" y="-598.2792" font-family="Times,serif" font-size="20.00" fill="#000000">nosniff</text>
</g>
<!-- SG_0_Node_38 -->
<g id="node29" class="node">
<title>SG_0_Node_38</title>
<ellipse fill="none" stroke="#000000" cx="358" cy="-490.066" rx="34.7971" ry="21.4286"/>
<text text-anchor="middle" x="358" y="-485.066" font-family="Times,serif" font-size="20.00" fill="#000000">1.0</text>
</g>
<!-- SG_0_Node_13&#45;&gt;SG_0_Node_38 -->
<g id="edge46" class="edge">
<title>SG_0_Node_13&#45;&gt;SG_0_Node_38</title>
<path fill="none" stroke="#000000" d="M348.8014,-698.3458C350.4991,-659.9059 354.4758,-569.8636 356.6016,-521.7288"/>
<polygon fill="#000000" stroke="#000000" points="360.1057,-521.7117 357.0504,-511.567 353.1125,-521.4028 360.1057,-521.7117"/>
<text text-anchor="middle" x="387" y="-609.2792" font-family="Times,serif" font-size="20.00" fill="#000000">[NA]</text>
<text text-anchor="middle" x="387" y="-587.2792" font-family="Times,serif" font-size="20.00" fill="#000000">empty</text>
</g>
<!-- SG_0_Node_39 -->
<g id="node30" class="node">
<title>SG_0_Node_39</title>
<ellipse fill="none" stroke="#000000" cx="450" cy="-490.066" rx="34.7971" ry="21.4286"/>
<text text-anchor="middle" x="450" y="-485.066" font-family="Times,serif" font-size="20.00" fill="#000000">0.0</text>
</g>
<!-- SG_0_Node_14&#45;&gt;SG_0_Node_39 -->
<g id="edge35" class="edge">
<title>SG_0_Node_14&#45;&gt;SG_0_Node_39</title>
<path fill="none" stroke="#000000" d="M552.9824,-698.3232C544.1865,-687.1816 533.2265,-672.3904 525,-658.2792 498.1776,-612.2698 474.5096,-554.924 461.2455,-520.4692"/>
<polygon fill="#000000" stroke="#000000" points="464.4574,-519.0685 457.6286,-510.968 457.9153,-521.5589 464.4574,-519.0685"/>
<text text-anchor="middle" x="544.5" y="-642.2792" font-family="Times,serif" font-size="20.00" fill="#000000">301</text>
<text text-anchor="middle" x="544.5" y="-620.2792" font-family="Times,serif" font-size="20.00" fill="#000000">302</text>
<text text-anchor="middle" x="544.5" y="-598.2792" font-family="Times,serif" font-size="20.00" fill="#000000">303</text>
<text text-anchor="middle" x="544.5" y="-576.2792" font-family="Times,serif" font-size="20.00" fill="#000000">307</text>
<text text-anchor="middle" x="544.5" y="-554.2792" font-family="Times,serif" font-size="20.00" fill="#000000">308</text>
</g>
<!-- SG_0_Node_19 -->
<g id="node31" class="node">
<title>SG_0_Node_19</title>
<polygon fill="none" stroke="#000000" points="633.5,-508.066 502.5,-508.066 502.5,-472.066 633.5,-472.066 633.5,-508.066"/>
<text text-anchor="middle" x="568" y="-485.066" font-family="Times,serif" font-size="20.00" fill="#000000">browser_id</text>
</g>
<!-- SG_0_Node_14&#45;&gt;SG_0_Node_19 -->
<g id="edge36" class="edge">
<title>SG_0_Node_14&#45;&gt;SG_0_Node_19</title>
<path fill="none" stroke="#000000" d="M568,-698.3458C568,-659.0131 568,-565.653 568,-518.4438"/>
<polygon fill="#000000" stroke="#000000" points="571.5001,-518.2991 568,-508.2991 564.5001,-518.2991 571.5001,-518.2991"/>
<text text-anchor="middle" x="587.5" y="-598.2792" font-family="Times,serif" font-size="20.00" fill="#000000">407</text>
</g>
<!-- SG_0_Node_20 -->
<g id="node32" class="node">
<title>SG_0_Node_20</title>
<polygon fill="none" stroke="#000000" points="853.5,-508.066 698.5,-508.066 698.5,-472.066 853.5,-472.066 853.5,-508.066"/>
<text text-anchor="middle" x="776" y="-485.066" font-family="Times,serif" font-size="20.00" fill="#000000">Content&#45;Type</text>
</g>
<!-- SG_0_Node_15&#45;&gt;SG_0_Node_20 -->
<g id="edge27" class="edge">
<title>SG_0_Node_15&#45;&gt;SG_0_Node_20</title>
<path fill="none" stroke="#000000" d="M829.3517,-698.3458C819.2552,-658.9303 795.2612,-565.2597 783.1928,-518.1462"/>
<polygon fill="#000000" stroke="#000000" points="786.5425,-517.1178 780.6705,-508.2991 779.7614,-518.8549 786.5425,-517.1178"/>
<text text-anchor="middle" x="853" y="-598.2792" font-family="Times,serif" font-size="20.00" fill="#000000">nosniff</text>
</g>
<!-- SG_0_Node_21 -->
<g id="node33" class="node">
<title>SG_0_Node_21</title>
<polygon fill="none" stroke="#000000" points="1014,-508.066 872,-508.066 872,-472.066 1014,-472.066 1014,-508.066"/>
<text text-anchor="middle" x="943" y="-485.066" font-family="Times,serif" font-size="20.00" fill="#000000">Status&#45;Code</text>
</g>
<!-- SG_0_Node_15&#45;&gt;SG_0_Node_21 -->
<g id="edge28" class="edge">
<title>SG_0_Node_15&#45;&gt;SG_0_Node_21</title>
<path fill="none" stroke="#000000" d="M856.3924,-698.2947C868.1481,-687.7033 881.9501,-673.4682 891,-658.2792 917.8695,-613.1827 932.09,-552.8912 938.5405,-518.086"/>
<polygon fill="#000000" stroke="#000000" points="942.0031,-518.6044 940.2984,-508.1476 935.1101,-517.3852 942.0031,-518.6044"/>
<text text-anchor="middle" x="964" y="-609.2792" font-family="Times,serif" font-size="20.00" fill="#000000">[NA]</text>
<text text-anchor="middle" x="964" y="-587.2792" font-family="Times,serif" font-size="20.00" fill="#000000">empty</text>
</g>
<!-- SG_0_Node_22 -->
<g id="node34" class="node">
<title>SG_0_Node_22</title>
<polygon fill="none" stroke="#000000" points="1148.5,-508.066 1043.5,-508.066 1043.5,-472.066 1148.5,-472.066 1148.5,-508.066"/>
<text text-anchor="middle" x="1096" y="-485.066" font-family="Times,serif" font-size="20.00" fill="#000000">Location</text>
</g>
<!-- SG_0_Node_16&#45;&gt;SG_0_Node_22 -->
<g id="edge19" class="edge">
<title>SG_0_Node_16&#45;&gt;SG_0_Node_22</title>
<path fill="none" stroke="#000000" d="M1129.9566,-698.2996C1122.7647,-687.2688 1114.4198,-672.5991 1110,-658.2792 1095.3387,-610.7778 1093.9606,-552.3656 1094.6993,-518.3616"/>
<polygon fill="#000000" stroke="#000000" points="1098.2019,-518.3229 1094.9994,-508.2237 1091.205,-518.1158 1098.2019,-518.3229"/>
<text text-anchor="middle" x="1129.5" y="-598.2792" font-family="Times,serif" font-size="20.00" fill="#000000">300</text>
</g>
<!-- SG_0_Node_40 -->
<g id="node35" class="node">
<title>SG_0_Node_40</title>
<ellipse fill="none" stroke="#000000" cx="1201" cy="-490.066" rx="34.7971" ry="21.4286"/>
<text text-anchor="middle" x="1201" y="-485.066" font-family="Times,serif" font-size="20.00" fill="#000000">1.0</text>
</g>
<!-- SG_0_Node_16&#45;&gt;SG_0_Node_40 -->
<g id="edge20" class="edge">
<title>SG_0_Node_16&#45;&gt;SG_0_Node_40</title>
<path fill="none" stroke="#000000" d="M1147.6483,-698.3458C1157.5406,-659.7274 1180.7741,-569.0262 1193.0606,-521.0608"/>
<polygon fill="#000000" stroke="#000000" points="1196.4878,-521.7859 1195.5787,-511.2302 1189.7067,-520.0489 1196.4878,-521.7859"/>
<text text-anchor="middle" x="1231" y="-609.2792" font-family="Times,serif" font-size="20.00" fill="#000000">[NA]</text>
<text text-anchor="middle" x="1231" y="-587.2792" font-family="Times,serif" font-size="20.00" fill="#000000">49 levels</text>
</g>
<!-- SG_0_Node_41 -->
<g id="node36" class="node">
<title>SG_0_Node_41</title>
<ellipse fill="none" stroke="#000000" cx="1294" cy="-490.066" rx="34.7971" ry="21.4286"/>
<text text-anchor="middle" x="1294" y="-485.066" font-family="Times,serif" font-size="20.00" fill="#000000">0.5</text>
</g>
<!-- SG_0_Node_17&#45;&gt;SG_0_Node_41 -->
<g id="edge15" class="edge">
<title>SG_0_Node_17&#45;&gt;SG_0_Node_41</title>
<path fill="none" stroke="#000000" d="M1298.5993,-698.3458C1297.7504,-659.9059 1295.7621,-569.8636 1294.6992,-521.7288"/>
<polygon fill="#000000" stroke="#000000" points="1298.1948,-521.4873 1294.4748,-511.567 1291.1965,-521.6419 1298.1948,-521.4873"/>
<text text-anchor="middle" x="1303.5" y="-598.2792" font-family="Times,serif" font-size="20.00" fill="#000000">1</text>
</g>
<!-- SG_0_Node_42 -->
<g id="node37" class="node">
<title>SG_0_Node_42</title>
<ellipse fill="none" stroke="#000000" cx="1381" cy="-490.066" rx="34.7971" ry="21.4286"/>
<text text-anchor="middle" x="1381" y="-485.066" font-family="Times,serif" font-size="20.00" fill="#000000">1.0</text>
</g>
<!-- SG_0_Node_17&#45;&gt;SG_0_Node_42 -->
<g id="edge16" class="edge">
<title>SG_0_Node_17&#45;&gt;SG_0_Node_42</title>
<path fill="none" stroke="#000000" d="M1305.5718,-698.3458C1319.6222,-659.5485 1352.7095,-568.1845 1370.0157,-520.3969"/>
<polygon fill="#000000" stroke="#000000" points="1373.3423,-521.4898 1373.4566,-510.8955 1366.7606,-519.1062 1373.3423,-521.4898"/>
<text text-anchor="middle" x="1384" y="-620.2792" font-family="Times,serif" font-size="20.00" fill="#000000">[NA]</text>
<text text-anchor="middle" x="1384" y="-598.2792" font-family="Times,serif" font-size="20.00" fill="#000000">2</text>
<text text-anchor="middle" x="1384" y="-576.2792" font-family="Times,serif" font-size="20.00" fill="#000000">3</text>
</g>
<!-- SG_0_Node_43 -->
<g id="node38" class="node">
<title>SG_0_Node_43</title>
<ellipse fill="none" stroke="#000000" cx="178" cy="-263.6396" rx="34.7971" ry="21.4286"/>
<text text-anchor="middle" x="178" y="-258.6396" font-family="Times,serif" font-size="20.00" fill="#000000">0.0</text>
</g>
<!-- SG_0_Node_18&#45;&gt;SG_0_Node_43 -->
<g id="edge47" class="edge">
<title>SG_0_Node_18&#45;&gt;SG_0_Node_43</title>
<path fill="none" stroke="#000000" d="M213.7544,-472.0492C205.903,-461.0789 196.7993,-446.4111 192,-431.8528 176.9323,-386.1464 175.4353,-329.8566 176.2983,-295.3719"/>
<polygon fill="#000000" stroke="#000000" points="179.8095,-295.0947 176.6473,-284.9828 172.8135,-294.8596 179.8095,-295.0947"/>
<text text-anchor="middle" x="224" y="-371.8528" font-family="Times,serif" font-size="20.00" fill="#000000">empty</text>
</g>
<!-- SG_0_Node_44 -->
<g id="node39" class="node">
<title>SG_0_Node_44</title>
<ellipse fill="none" stroke="#000000" cx="278" cy="-263.6396" rx="34.7971" ry="21.4286"/>
<text text-anchor="middle" x="278" y="-258.6396" font-family="Times,serif" font-size="20.00" fill="#000000">1.0</text>
</g>
<!-- SG_0_Node_18&#45;&gt;SG_0_Node_44 -->
<g id="edge48" class="edge">
<title>SG_0_Node_18&#45;&gt;SG_0_Node_44</title>
<path fill="none" stroke="#000000" d="M238.5113,-472.0542C244.5767,-460.8476 251.8104,-445.9341 256,-431.8528 269.7555,-385.62 274.915,-329.696 276.8472,-295.4028"/>
<polygon fill="#000000" stroke="#000000" points="280.3602,-295.2318 277.368,-285.0683 273.3691,-294.8795 280.3602,-295.2318"/>
<text text-anchor="middle" x="321" y="-371.8528" font-family="Times,serif" font-size="20.00" fill="#000000">text/html</text>
</g>
<!-- SG_0_Node_45 -->
<g id="node40" class="node">
<title>SG_0_Node_45</title>
<ellipse fill="none" stroke="#000000" cx="472" cy="-263.6396" rx="34.7971" ry="21.4286"/>
<text text-anchor="middle" x="472" y="-258.6396" font-family="Times,serif" font-size="20.00" fill="#000000">0.0</text>
</g>
<!-- SG_0_Node_19&#45;&gt;SG_0_Node_45 -->
<g id="edge37" class="edge">
<title>SG_0_Node_19&#45;&gt;SG_0_Node_45</title>
<path fill="none" stroke="#000000" d="M546.4964,-471.8398C535.2717,-461.2398 522.2048,-447.0055 514,-431.8528 490.2308,-387.9556 479.6317,-330.3383 475.1143,-295.2002"/>
<polygon fill="#000000" stroke="#000000" points="478.5639,-294.5699 473.8997,-285.057 471.6135,-295.4022 478.5639,-294.5699"/>
<text text-anchor="middle" x="539" y="-393.8528" font-family="Times,serif" font-size="20.00" fill="#000000">[NA]</text>
<text text-anchor="middle" x="539" y="-371.8528" font-family="Times,serif" font-size="20.00" fill="#000000">2</text>
<text text-anchor="middle" x="539" y="-349.8528" font-family="Times,serif" font-size="20.00" fill="#000000">3</text>
</g>
<!-- SG_0_Node_46 -->
<g id="node41" class="node">
<title>SG_0_Node_46</title>
<ellipse fill="none" stroke="#000000" cx="568" cy="-263.6396" rx="43.6818" ry="21.4286"/>
<text text-anchor="middle" x="568" y="-258.6396" font-family="Times,serif" font-size="20.00" fill="#000000">0.75</text>
</g>
<!-- SG_0_Node_19&#45;&gt;SG_0_Node_46 -->
<g id="edge38" class="edge">
<title>SG_0_Node_19&#45;&gt;SG_0_Node_46</title>
<path fill="none" stroke="#000000" d="M568,-471.9193C568,-433.4795 568,-343.4372 568,-295.3024"/>
<polygon fill="#000000" stroke="#000000" points="571.5001,-295.1406 568,-285.1406 564.5001,-295.1406 571.5001,-295.1406"/>
<text text-anchor="middle" x="574.5" y="-371.8528" font-family="Times,serif" font-size="20.00" fill="#000000">1</text>
</g>
<!-- SG_0_Node_47 -->
<g id="node42" class="node">
<title>SG_0_Node_47</title>
<ellipse fill="none" stroke="#000000" cx="664" cy="-263.6396" rx="34.7971" ry="21.4286"/>
<text text-anchor="middle" x="664" y="-258.6396" font-family="Times,serif" font-size="20.00" fill="#000000">0.0</text>
</g>
<!-- SG_0_Node_20&#45;&gt;SG_0_Node_47 -->
<g id="edge31" class="edge">
<title>SG_0_Node_20&#45;&gt;SG_0_Node_47</title>
<path fill="none" stroke="#000000" d="M749.24,-471.8137C735.9812,-461.5027 720.7613,-447.5462 711,-431.8528 684.2946,-388.9184 672.4381,-330.5467 667.4169,-295.0647"/>
<polygon fill="#000000" stroke="#000000" points="670.8449,-294.2877 666.0692,-284.8303 663.9048,-295.2017 670.8449,-294.2877"/>
<text text-anchor="middle" x="743" y="-371.8528" font-family="Times,serif" font-size="20.00" fill="#000000">empty</text>
</g>
<!-- SG_0_Node_25 -->
<g id="node43" class="node">
<title>SG_0_Node_25</title>
<polygon fill="none" stroke="#000000" points="859,-281.6396 717,-281.6396 717,-245.6396 859,-245.6396 859,-281.6396"/>
<text text-anchor="middle" x="788" y="-258.6396" font-family="Times,serif" font-size="20.00" fill="#000000">Status&#45;Code</text>
</g>
<!-- SG_0_Node_20&#45;&gt;SG_0_Node_25 -->
<g id="edge32" class="edge">
<title>SG_0_Node_20&#45;&gt;SG_0_Node_25</title>
<path fill="none" stroke="#000000" d="M776.9617,-471.9193C779.0463,-432.5867 783.9941,-339.2266 786.4961,-292.0173"/>
<polygon fill="#000000" stroke="#000000" points="789.9995,-292.044 787.0337,-281.8727 783.0093,-291.6734 789.9995,-292.044"/>
<text text-anchor="middle" x="831" y="-371.8528" font-family="Times,serif" font-size="20.00" fill="#000000">text/html</text>
</g>
<!-- SG_0_Node_48 -->
<g id="node44" class="node">
<title>SG_0_Node_48</title>
<ellipse fill="none" stroke="#000000" cx="929" cy="-263.6396" rx="52.1524" ry="21.4286"/>
<text text-anchor="middle" x="929" y="-258.6396" font-family="Times,serif" font-size="20.00" fill="#000000">0.333</text>
</g>
<!-- SG_0_Node_21&#45;&gt;SG_0_Node_48 -->
<g id="edge29" class="edge">
<title>SG_0_Node_21&#45;&gt;SG_0_Node_48</title>
<path fill="none" stroke="#000000" d="M941.878,-471.9193C939.5012,-433.4795 933.9339,-343.4372 930.9577,-295.3024"/>
<polygon fill="#000000" stroke="#000000" points="934.44,-294.9055 930.3294,-285.1406 927.4533,-295.3376 934.44,-294.9055"/>
<text text-anchor="middle" x="958.5" y="-371.8528" font-family="Times,serif" font-size="20.00" fill="#000000">407</text>
</g>
<!-- SG_0_Node_49 -->
<g id="node45" class="node">
<title>SG_0_Node_49</title>
<ellipse fill="none" stroke="#000000" cx="1034" cy="-263.6396" rx="34.7971" ry="21.4286"/>
<text text-anchor="middle" x="1034" y="-258.6396" font-family="Times,serif" font-size="20.00" fill="#000000">1.0</text>
</g>
<!-- SG_0_Node_21&#45;&gt;SG_0_Node_49 -->
<g id="edge30" class="edge">
<title>SG_0_Node_21&#45;&gt;SG_0_Node_49</title>
<path fill="none" stroke="#000000" d="M957.0953,-472.0151C965.2413,-460.9153 975.192,-446.1267 982,-431.8528 1003.7639,-386.222 1019.1106,-329.3409 1027.2479,-294.792"/>
<polygon fill="#000000" stroke="#000000" points="1030.7099,-295.3543 1029.5409,-284.8241 1023.8881,-293.7849 1030.7099,-295.3543"/>
<text text-anchor="middle" x="1039.5" y="-415.8528" font-family="Times,serif" font-size="20.00" fill="#000000">301</text>
<text text-anchor="middle" x="1039.5" y="-393.8528" font-family="Times,serif" font-size="20.00" fill="#000000">302</text>
<text text-anchor="middle" x="1039.5" y="-371.8528" font-family="Times,serif" font-size="20.00" fill="#000000">303</text>
<text text-anchor="middle" x="1039.5" y="-349.8528" font-family="Times,serif" font-size="20.00" fill="#000000">307</text>
<text text-anchor="middle" x="1039.5" y="-327.8528" font-family="Times,serif" font-size="20.00" fill="#000000">308</text>
</g>
<!-- SG_0_Node_50 -->
<g id="node46" class="node">
<title>SG_0_Node_50</title>
<ellipse fill="none" stroke="#000000" cx="1139" cy="-263.6396" rx="52.1524" ry="21.4286"/>
<text text-anchor="middle" x="1139" y="-258.6396" font-family="Times,serif" font-size="20.00" fill="#000000">0.667</text>
</g>
<!-- SG_0_Node_22&#45;&gt;SG_0_Node_50 -->
<g id="edge21" class="edge">
<title>SG_0_Node_22&#45;&gt;SG_0_Node_50</title>
<path fill="none" stroke="#000000" d="M1095.2988,-471.9964C1094.5694,-440.7585 1095.1666,-374.9111 1110,-321.8528 1112.7076,-312.168 1117.0412,-302.1761 1121.5418,-293.263"/>
<polygon fill="#000000" stroke="#000000" points="1124.6368,-294.8973 1126.2312,-284.4231 1118.453,-291.6169 1124.6368,-294.8973"/>
<text text-anchor="middle" x="1225" y="-371.8528" font-family="Times,serif" font-size="20.00" fill="#000000">http://172.17.0.1:8000</text>
</g>
<!-- SG_0_Node_51 -->
<g id="node47" class="node">
<title>SG_0_Node_51</title>
<ellipse fill="none" stroke="#000000" cx="1362" cy="-263.6396" rx="34.7971" ry="21.4286"/>
<text text-anchor="middle" x="1362" y="-258.6396" font-family="Times,serif" font-size="20.00" fill="#000000">1.0</text>
</g>
<!-- SG_0_Node_22&#45;&gt;SG_0_Node_51 -->
<g id="edge22" class="edge">
<title>SG_0_Node_22&#45;&gt;SG_0_Node_51</title>
<path fill="none" stroke="#000000" d="M1146.0962,-472.0424C1149.7687,-470.9066 1153.4311,-469.8293 1157,-468.8528 1237.037,-446.9528 1283.3973,-492.5296 1340,-431.8528 1374.1937,-395.198 1372.645,-332.9299 1367.7658,-295.308"/>
<polygon fill="#000000" stroke="#000000" points="1371.1598,-294.3265 1366.2547,-284.9356 1364.2329,-295.3357 1371.1598,-294.3265"/>
<text text-anchor="middle" x="1402" y="-382.8528" font-family="Times,serif" font-size="20.00" fill="#000000">[NA]</text>
<text text-anchor="middle" x="1402" y="-360.8528" font-family="Times,serif" font-size="20.00" fill="#000000">empty</text>
</g>
<!-- SG_0_Node_52 -->
<g id="node48" class="node">
<title>SG_0_Node_52</title>
<ellipse fill="none" stroke="#000000" cx="739" cy="-37.2132" rx="52.1524" ry="21.4286"/>
<text text-anchor="middle" x="739" y="-32.2132" font-family="Times,serif" font-size="20.00" fill="#000000">0.333</text>
</g>
<!-- SG_0_Node_25&#45;&gt;SG_0_Node_52 -->
<g id="edge33" class="edge">
<title>SG_0_Node_25&#45;&gt;SG_0_Node_52</title>
<path fill="none" stroke="#000000" d="M780.9329,-245.5148C776.7091,-234.141 771.5011,-219.0909 768,-205.4264 755.9536,-158.4111 747.4515,-102.7059 742.8891,-68.6717"/>
<polygon fill="#000000" stroke="#000000" points="746.3157,-67.8824 741.5467,-58.4216 739.375,-68.7915 746.3157,-67.8824"/>
<text text-anchor="middle" x="787.5" y="-145.4264" font-family="Times,serif" font-size="20.00" fill="#000000">407</text>
</g>
<!-- SG_0_Node_53 -->
<g id="node49" class="node">
<title>SG_0_Node_53</title>
<ellipse fill="none" stroke="#000000" cx="844" cy="-37.2132" rx="34.7971" ry="21.4286"/>
<text text-anchor="middle" x="844" y="-32.2132" font-family="Times,serif" font-size="20.00" fill="#000000">1.0</text>
</g>
<!-- SG_0_Node_25&#45;&gt;SG_0_Node_53 -->
<g id="edge34" class="edge">
<title>SG_0_Node_25&#45;&gt;SG_0_Node_53</title>
<path fill="none" stroke="#000000" d="M794.4584,-245.4269C798.3748,-234.02 803.3111,-218.966 807,-205.4264 819.8733,-158.1769 831.4186,-102.5371 838.0662,-68.5805"/>
<polygon fill="#000000" stroke="#000000" points="841.5812,-68.839 840.0479,-58.3557 834.7091,-67.507 841.5812,-68.839"/>
<text text-anchor="middle" x="851.5" y="-189.4264" font-family="Times,serif" font-size="20.00" fill="#000000">301</text>
<text text-anchor="middle" x="851.5" y="-167.4264" font-family="Times,serif" font-size="20.00" fill="#000000">302</text>
<text text-anchor="middle" x="851.5" y="-145.4264" font-family="Times,serif" font-size="20.00" fill="#000000">303</text>
<text text-anchor="middle" x="851.5" y="-123.4264" font-family="Times,serif" font-size="20.00" fill="#000000">307</text>
<text text-anchor="middle" x="851.5" y="-101.4264" font-family="Times,serif" font-size="20.00" fill="#000000">308</text>
</g>
</g>
</svg>
