<?xml version="1.0" encoding="UTF-8" standalone="no"?>
<!DOCTYPE svg PUBLIC "-//W3C//DTD SVG 1.1//EN"
 "http://www.w3.org/Graphics/SVG/1.1/DTD/svg11.dtd">
<!-- Generated by graphviz version 2.40.1 (20161225.0304)
 -->
<!-- Title: G Pages: 1 -->
<svg width="1572pt" height="1889pt"
 viewBox="0.00 0.00 1572.00 1888.98" xmlns="http://www.w3.org/2000/svg" xmlns:xlink="http://www.w3.org/1999/xlink">
<g id="graph0" class="graph" transform="scale(1 1) rotate(0) translate(4 1884.9848)">
<title>G</title>
<polygon fill="#ffffff" stroke="transparent" points="-4,4 -4,-1884.9848 1568,-1884.9848 1568,4 -4,4"/>
<g id="clust1" class="cluster">
<title>cluster_0</title>
<polygon fill="none" stroke="#000000" points="8,-8 8,-1872.9848 1548,-1872.9848 1548,-8 8,-8"/>
<text text-anchor="middle" x="778" y="-1836.9848" font-family="Times,serif" font-size="40.00" fill="#000000">Tree 0, Class {&#39;length&#39;: 0}</text>
</g>
<!-- SG_0_Node_0 -->
<g id="node1" class="node">
<title>SG_0_Node_0</title>
<polygon fill="none" stroke="#000000" points="923,-1812.9848 781,-1812.9848 781,-1776.9848 923,-1776.9848 923,-1812.9848"/>
<text text-anchor="middle" x="852" y="-1789.9848" font-family="Times,serif" font-size="20.00" fill="#000000">Status&#45;Code</text>
</g>
<!-- SG_0_Node_1 -->
<g id="node2" class="node">
<title>SG_0_Node_1</title>
<polygon fill="none" stroke="#000000" points="593.5,-1658.9848 528.5,-1658.9848 528.5,-1622.9848 593.5,-1622.9848 593.5,-1658.9848"/>
<text text-anchor="middle" x="561" y="-1635.9848" font-family="Times,serif" font-size="20.00" fill="#000000">body</text>
</g>
<!-- SG_0_Node_0&#45;&gt;SG_0_Node_1 -->
<g id="edge1" class="edge">
<title>SG_0_Node_0&#45;&gt;SG_0_Node_1</title>
<path fill="none" stroke="#000000" d="M817.7629,-1776.8662C764.1409,-1748.4889 660.5095,-1693.6463 602.6464,-1663.0245"/>
<polygon fill="#000000" stroke="#000000" points="604.2431,-1659.9096 593.7673,-1658.3256 600.9688,-1666.0967 604.2431,-1659.9096"/>
<text text-anchor="middle" x="766.5" y="-1712.9848" font-family="Times,serif" font-size="20.00" fill="#000000">200</text>
</g>
<!-- SG_0_Node_2 -->
<g id="node3" class="node">
<title>SG_0_Node_2</title>
<polygon fill="none" stroke="#000000" points="1175.5,-1658.9848 1110.5,-1658.9848 1110.5,-1622.9848 1175.5,-1622.9848 1175.5,-1658.9848"/>
<text text-anchor="middle" x="1143" y="-1635.9848" font-family="Times,serif" font-size="20.00" fill="#000000">body</text>
</g>
<!-- SG_0_Node_0&#45;&gt;SG_0_Node_2 -->
<g id="edge2" class="edge">
<title>SG_0_Node_0&#45;&gt;SG_0_Node_2</title>
<path fill="none" stroke="#000000" d="M886.2371,-1776.8662C939.8591,-1748.4889 1043.4905,-1693.6463 1101.3536,-1663.0245"/>
<polygon fill="#000000" stroke="#000000" points="1103.0312,-1666.0967 1110.2327,-1658.3256 1099.7569,-1659.9096 1103.0312,-1666.0967"/>
<text text-anchor="middle" x="1084" y="-1723.9848" font-family="Times,serif" font-size="20.00" fill="#000000">[NA]</text>
<text text-anchor="middle" x="1084" y="-1701.9848" font-family="Times,serif" font-size="20.00" fill="#000000">62 levels</text>
</g>
<!-- SG_0_Node_3 -->
<g id="node4" class="node">
<title>SG_0_Node_3</title>
<polygon fill="none" stroke="#000000" points="344.5,-1303.7716 27.5,-1303.7716 27.5,-1267.7716 344.5,-1267.7716 344.5,-1303.7716"/>
<text text-anchor="middle" x="186" y="-1280.7716" font-family="Times,serif" font-size="20.00" fill="#000000">Cross&#45;Origin&#45;Resource&#45;Policy</text>
</g>
<!-- SG_0_Node_1&#45;&gt;SG_0_Node_3 -->
<g id="edge11" class="edge">
<title>SG_0_Node_1&#45;&gt;SG_0_Node_3</title>
<path fill="none" stroke="#000000" d="M528.2622,-1639.827C422.7851,-1635.7643 96.8875,-1620.4944 66,-1585.9848 -5.7311,-1505.8422 8.9076,-1435.1366 66,-1343.9848 75.8004,-1328.3379 91.1369,-1316.7907 107.6103,-1308.3072"/>
<polygon fill="#000000" stroke="#000000" points="109.3299,-1311.3648 116.8511,-1303.9028 106.3181,-1305.0459 109.3299,-1311.3648"/>
<text text-anchor="middle" x="311.5" y="-1470.9848" font-family="Times,serif" font-size="20.00" fill="#000000">ecocnt_audio=duration=1</text>
<text text-anchor="middle" x="311.5" y="-1448.9848" font-family="Times,serif" font-size="20.00" fill="#000000">ecocnt_vid=width=100,height=100,duration=2</text>
</g>
<!-- SG_0_Node_17 -->
<g id="node5" class="node">
<title>SG_0_Node_17</title>
<ellipse fill="none" stroke="#000000" cx="561" cy="-1285.7716" rx="34.7971" ry="21.4286"/>
<text text-anchor="middle" x="561" y="-1280.7716" font-family="Times,serif" font-size="20.00" fill="#000000">1.0</text>
</g>
<!-- SG_0_Node_1&#45;&gt;SG_0_Node_17 -->
<g id="edge12" class="edge">
<title>SG_0_Node_1&#45;&gt;SG_0_Node_17</title>
<path fill="none" stroke="#000000" d="M561,-1622.8814C561,-1565.9986 561,-1390.3406 561,-1317.7089"/>
<polygon fill="#000000" stroke="#000000" points="564.5001,-1317.3678 561,-1307.3678 557.5001,-1317.3679 564.5001,-1317.3678"/>
<text text-anchor="middle" x="834" y="-1569.9848" font-family="Times,serif" font-size="20.00" fill="#000000">[NA]</text>
<text text-anchor="middle" x="834" y="-1547.9848" font-family="Times,serif" font-size="20.00" fill="#000000">ecocnt_css=h1 {color: blue}</text>
<text text-anchor="middle" x="834" y="-1525.9848" font-family="Times,serif" font-size="20.00" fill="#000000">ecocnt_html=meta_refresh=0;http://172.17.0.1:8000</text>
<text text-anchor="middle" x="834" y="-1503.9848" font-family="Times,serif" font-size="20.00" fill="#000000">ecocnt_html=num_frames=1,input_id=test1</text>
<text text-anchor="middle" x="834" y="-1481.9848" font-family="Times,serif" font-size="20.00" fill="#000000">ecocnt_html=num_frames=2</text>
<text text-anchor="middle" x="834" y="-1459.9848" font-family="Times,serif" font-size="20.00" fill="#000000">ecocnt_html=post_message=mes1</text>
<text text-anchor="middle" x="834" y="-1437.9848" font-family="Times,serif" font-size="20.00" fill="#000000">ecocnt_img=width=50,height=50,type=png</text>
<text text-anchor="middle" x="834" y="-1415.9848" font-family="Times,serif" font-size="20.00" fill="#000000">ecocnt_js=.,,.</text>
<text text-anchor="middle" x="834" y="-1393.9848" font-family="Times,serif" font-size="20.00" fill="#000000">ecocnt_js=var a=5;</text>
<text text-anchor="middle" x="834" y="-1371.9848" font-family="Times,serif" font-size="20.00" fill="#000000">ecocnt_pdf=a=a</text>
<text text-anchor="middle" x="834" y="-1349.9848" font-family="Times,serif" font-size="20.00" fill="#000000">empty</text>
</g>
<!-- SG_0_Node_4 -->
<g id="node6" class="node">
<title>SG_0_Node_4</title>
<polygon fill="none" stroke="#000000" points="1365,-1303.7716 1223,-1303.7716 1223,-1267.7716 1365,-1267.7716 1365,-1303.7716"/>
<text text-anchor="middle" x="1294" y="-1280.7716" font-family="Times,serif" font-size="20.00" fill="#000000">Status&#45;Code</text>
</g>
<!-- SG_0_Node_2&#45;&gt;SG_0_Node_4 -->
<g id="edge3" class="edge">
<title>SG_0_Node_2&#45;&gt;SG_0_Node_4</title>
<path fill="none" stroke="#000000" d="M1137.8229,-1622.8705C1124.7566,-1573.098 1095.6634,-1432.1094 1157,-1343.9848 1170.3746,-1324.7691 1191.4399,-1311.8634 1213.0779,-1303.2082"/>
<polygon fill="#000000" stroke="#000000" points="1214.5408,-1306.3986 1222.6985,-1299.6383 1212.1055,-1299.8358 1214.5408,-1306.3986"/>
<text text-anchor="middle" x="1291.5" y="-1459.9848" font-family="Times,serif" font-size="20.00" fill="#000000">ecocnt_audio=duration=1</text>
</g>
<!-- SG_0_Node_18 -->
<g id="node7" class="node">
<title>SG_0_Node_18</title>
<ellipse fill="none" stroke="#000000" cx="1448" cy="-1285.7716" rx="34.7971" ry="21.4286"/>
<text text-anchor="middle" x="1448" y="-1280.7716" font-family="Times,serif" font-size="20.00" fill="#000000">1.0</text>
</g>
<!-- SG_0_Node_2&#45;&gt;SG_0_Node_18 -->
<g id="edge4" class="edge">
<title>SG_0_Node_2&#45;&gt;SG_0_Node_18</title>
<path fill="none" stroke="#000000" d="M1175.6951,-1639.457C1242.9465,-1635.581 1393.2288,-1622.9004 1426,-1585.9848 1493.2589,-1510.2202 1471.2679,-1377.0454 1456.6291,-1316.8576"/>
<polygon fill="#000000" stroke="#000000" points="1459.939,-1315.6698 1454.0928,-1306.8339 1453.1528,-1317.3869 1459.939,-1315.6698"/>
<text text-anchor="middle" x="1518" y="-1470.9848" font-family="Times,serif" font-size="20.00" fill="#000000">[NA]</text>
<text text-anchor="middle" x="1518" y="-1448.9848" font-family="Times,serif" font-size="20.00" fill="#000000">11 levels</text>
</g>
<!-- SG_0_Node_5 -->
<g id="node8" class="node">
<title>SG_0_Node_5</title>
<polygon fill="none" stroke="#000000" points="263.5,-1033.3452 108.5,-1033.3452 108.5,-997.3452 263.5,-997.3452 263.5,-1033.3452"/>
<text text-anchor="middle" x="186" y="-1010.3452" font-family="Times,serif" font-size="20.00" fill="#000000">Content&#45;Type</text>
</g>
<!-- SG_0_Node_3&#45;&gt;SG_0_Node_5 -->
<g id="edge13" class="edge">
<title>SG_0_Node_3&#45;&gt;SG_0_Node_5</title>
<path fill="none" stroke="#000000" d="M186,-1267.6083C186,-1221.423 186,-1099.2312 186,-1043.6215"/>
<polygon fill="#000000" stroke="#000000" points="189.5001,-1043.4295 186,-1033.4295 182.5001,-1043.4296 189.5001,-1043.4295"/>
<text text-anchor="middle" x="218" y="-1145.5584" font-family="Times,serif" font-size="20.00" fill="#000000">empty</text>
</g>
<!-- SG_0_Node_19 -->
<g id="node9" class="node">
<title>SG_0_Node_19</title>
<ellipse fill="none" stroke="#000000" cx="316" cy="-1015.3452" rx="34.7971" ry="21.4286"/>
<text text-anchor="middle" x="316" y="-1010.3452" font-family="Times,serif" font-size="20.00" fill="#000000">1.0</text>
</g>
<!-- SG_0_Node_3&#45;&gt;SG_0_Node_19 -->
<g id="edge14" class="edge">
<title>SG_0_Node_3&#45;&gt;SG_0_Node_19</title>
<path fill="none" stroke="#000000" d="M213.9331,-1267.7105C227.7869,-1257.4519 243.7127,-1243.4845 254,-1227.5584 291.0364,-1170.2212 306.5359,-1090.137 312.5479,-1046.5787"/>
<polygon fill="#000000" stroke="#000000" points="316.029,-1046.9504 313.8483,-1036.5825 309.0875,-1046.0474 316.029,-1046.9504"/>
<text text-anchor="middle" x="369" y="-1156.5584" font-family="Times,serif" font-size="20.00" fill="#000000">[NA]</text>
<text text-anchor="middle" x="369" y="-1134.5584" font-family="Times,serif" font-size="20.00" fill="#000000">same&#45;origin</text>
</g>
<!-- SG_0_Node_6 -->
<g id="node10" class="node">
<title>SG_0_Node_6</title>
<polygon fill="none" stroke="#000000" points="1359.5,-1033.3452 1228.5,-1033.3452 1228.5,-997.3452 1359.5,-997.3452 1359.5,-1033.3452"/>
<text text-anchor="middle" x="1294" y="-1010.3452" font-family="Times,serif" font-size="20.00" fill="#000000">browser_id</text>
</g>
<!-- SG_0_Node_4&#45;&gt;SG_0_Node_6 -->
<g id="edge5" class="edge">
<title>SG_0_Node_4&#45;&gt;SG_0_Node_6</title>
<path fill="none" stroke="#000000" d="M1294,-1267.6083C1294,-1221.423 1294,-1099.2312 1294,-1043.6215"/>
<polygon fill="#000000" stroke="#000000" points="1297.5001,-1043.4295 1294,-1033.4295 1290.5001,-1043.4296 1297.5001,-1043.4295"/>
<text text-anchor="middle" x="1313.5" y="-1211.5584" font-family="Times,serif" font-size="20.00" fill="#000000">201</text>
<text text-anchor="middle" x="1313.5" y="-1189.5584" font-family="Times,serif" font-size="20.00" fill="#000000">202</text>
<text text-anchor="middle" x="1313.5" y="-1167.5584" font-family="Times,serif" font-size="20.00" fill="#000000">203</text>
<text text-anchor="middle" x="1313.5" y="-1145.5584" font-family="Times,serif" font-size="20.00" fill="#000000">206</text>
<text text-anchor="middle" x="1313.5" y="-1123.5584" font-family="Times,serif" font-size="20.00" fill="#000000">207</text>
<text text-anchor="middle" x="1313.5" y="-1101.5584" font-family="Times,serif" font-size="20.00" fill="#000000">208</text>
<text text-anchor="middle" x="1313.5" y="-1079.5584" font-family="Times,serif" font-size="20.00" fill="#000000">226</text>
</g>
<!-- SG_0_Node_20 -->
<g id="node11" class="node">
<title>SG_0_Node_20</title>
<ellipse fill="none" stroke="#000000" cx="1412" cy="-1015.3452" rx="34.7971" ry="21.4286"/>
<text text-anchor="middle" x="1412" y="-1010.3452" font-family="Times,serif" font-size="20.00" fill="#000000">1.0</text>
</g>
<!-- SG_0_Node_4&#45;&gt;SG_0_Node_20 -->
<g id="edge6" class="edge">
<title>SG_0_Node_4&#45;&gt;SG_0_Node_20</title>
<path fill="none" stroke="#000000" d="M1309.6376,-1267.5766C1318.5418,-1256.5449 1329.4011,-1241.8752 1337,-1227.5584 1369.4101,-1166.4964 1392.8431,-1088.4829 1404.2284,-1046.1087"/>
<polygon fill="#000000" stroke="#000000" points="1407.6272,-1046.9458 1406.7971,-1036.3835 1400.8593,-1045.1581 1407.6272,-1046.9458"/>
<text text-anchor="middle" x="1442" y="-1156.5584" font-family="Times,serif" font-size="20.00" fill="#000000">[NA]</text>
<text text-anchor="middle" x="1442" y="-1134.5584" font-family="Times,serif" font-size="20.00" fill="#000000">55 levels</text>
</g>
<!-- SG_0_Node_7 -->
<g id="node12" class="node">
<title>SG_0_Node_7</title>
<polygon fill="none" stroke="#000000" points="251.5,-762.9188 120.5,-762.9188 120.5,-726.9188 251.5,-726.9188 251.5,-762.9188"/>
<text text-anchor="middle" x="186" y="-739.9188" font-family="Times,serif" font-size="20.00" fill="#000000">browser_id</text>
</g>
<!-- SG_0_Node_5&#45;&gt;SG_0_Node_7 -->
<g id="edge15" class="edge">
<title>SG_0_Node_5&#45;&gt;SG_0_Node_7</title>
<path fill="none" stroke="#000000" d="M186,-997.1819C186,-950.9966 186,-828.8048 186,-773.1951"/>
<polygon fill="#000000" stroke="#000000" points="189.5001,-773.0031 186,-763.0031 182.5001,-773.0032 189.5001,-773.0031"/>
<text text-anchor="middle" x="297" y="-941.132" font-family="Times,serif" font-size="20.00" fill="#000000">[NA]</text>
<text text-anchor="middle" x="297" y="-919.132" font-family="Times,serif" font-size="20.00" fill="#000000">application/javascript</text>
<text text-anchor="middle" x="297" y="-897.132" font-family="Times,serif" font-size="20.00" fill="#000000">audio/wav</text>
<text text-anchor="middle" x="297" y="-875.132" font-family="Times,serif" font-size="20.00" fill="#000000">empty</text>
<text text-anchor="middle" x="297" y="-853.132" font-family="Times,serif" font-size="20.00" fill="#000000">image/png</text>
<text text-anchor="middle" x="297" y="-831.132" font-family="Times,serif" font-size="20.00" fill="#000000">text/css</text>
<text text-anchor="middle" x="297" y="-809.132" font-family="Times,serif" font-size="20.00" fill="#000000">video/mp4</text>
</g>
<!-- SG_0_Node_8 -->
<g id="node13" class="node">
<title>SG_0_Node_8</title>
<polygon fill="none" stroke="#000000" points="497.5,-762.9188 432.5,-762.9188 432.5,-726.9188 497.5,-726.9188 497.5,-762.9188"/>
<text text-anchor="middle" x="465" y="-739.9188" font-family="Times,serif" font-size="20.00" fill="#000000">body</text>
</g>
<!-- SG_0_Node_5&#45;&gt;SG_0_Node_8 -->
<g id="edge16" class="edge">
<title>SG_0_Node_5&#45;&gt;SG_0_Node_8</title>
<path fill="none" stroke="#000000" d="M257.8317,-997.2992C323.4707,-980.7405 410.5795,-958.563 412,-957.132 461.5346,-907.2316 467.1408,-818.502 466.4503,-773.2145"/>
<polygon fill="#000000" stroke="#000000" points="469.9487,-773.1053 466.1822,-763.2026 462.9512,-773.2928 469.9487,-773.1053"/>
<text text-anchor="middle" x="542" y="-886.132" font-family="Times,serif" font-size="20.00" fill="#000000">application/pdf</text>
<text text-anchor="middle" x="542" y="-864.132" font-family="Times,serif" font-size="20.00" fill="#000000">text/html</text>
</g>
<!-- SG_0_Node_9 -->
<g id="node14" class="node">
<title>SG_0_Node_9</title>
<polygon fill="none" stroke="#000000" points="1452.5,-762.9188 1135.5,-762.9188 1135.5,-726.9188 1452.5,-726.9188 1452.5,-762.9188"/>
<text text-anchor="middle" x="1294" y="-739.9188" font-family="Times,serif" font-size="20.00" fill="#000000">Cross&#45;Origin&#45;Resource&#45;Policy</text>
</g>
<!-- SG_0_Node_6&#45;&gt;SG_0_Node_9 -->
<g id="edge7" class="edge">
<title>SG_0_Node_6&#45;&gt;SG_0_Node_9</title>
<path fill="none" stroke="#000000" d="M1294,-997.1819C1294,-950.9966 1294,-828.8048 1294,-773.1951"/>
<polygon fill="#000000" stroke="#000000" points="1297.5001,-773.0031 1294,-763.0031 1290.5001,-773.0032 1297.5001,-773.0031"/>
<text text-anchor="middle" x="1300.5" y="-875.132" font-family="Times,serif" font-size="20.00" fill="#000000">1</text>
</g>
<!-- SG_0_Node_21 -->
<g id="node15" class="node">
<title>SG_0_Node_21</title>
<ellipse fill="none" stroke="#000000" cx="1505" cy="-744.9188" rx="34.7971" ry="21.4286"/>
<text text-anchor="middle" x="1505" y="-739.9188" font-family="Times,serif" font-size="20.00" fill="#000000">1.0</text>
</g>
<!-- SG_0_Node_6&#45;&gt;SG_0_Node_21 -->
<g id="edge8" class="edge">
<title>SG_0_Node_6&#45;&gt;SG_0_Node_21</title>
<path fill="none" stroke="#000000" d="M1308.1719,-997.1819C1344.4698,-950.661 1440.9368,-827.0249 1483.8751,-771.9934"/>
<polygon fill="#000000" stroke="#000000" points="1486.6571,-774.1175 1490.0492,-764.0804 1481.1382,-769.8114 1486.6571,-774.1175"/>
<text text-anchor="middle" x="1484" y="-897.132" font-family="Times,serif" font-size="20.00" fill="#000000">[NA]</text>
<text text-anchor="middle" x="1484" y="-875.132" font-family="Times,serif" font-size="20.00" fill="#000000">2</text>
<text text-anchor="middle" x="1484" y="-853.132" font-family="Times,serif" font-size="20.00" fill="#000000">3</text>
</g>
<!-- SG_0_Node_22 -->
<g id="node16" class="node">
<title>SG_0_Node_22</title>
<ellipse fill="none" stroke="#000000" cx="143" cy="-562.4924" rx="34.7971" ry="21.4286"/>
<text text-anchor="middle" x="143" y="-557.4924" font-family="Times,serif" font-size="20.00" fill="#000000">0.0</text>
</g>
<!-- SG_0_Node_7&#45;&gt;SG_0_Node_22 -->
<g id="edge31" class="edge">
<title>SG_0_Node_7&#45;&gt;SG_0_Node_22</title>
<path fill="none" stroke="#000000" d="M174.8617,-726.7249C168.5714,-715.5745 161.1581,-700.7828 157,-686.7056 147.9632,-656.1114 144.6884,-619.6962 143.538,-594.2329"/>
<polygon fill="#000000" stroke="#000000" points="147.0284,-593.9045 143.1645,-584.0395 140.0331,-594.161 147.0284,-593.9045"/>
<text text-anchor="middle" x="182" y="-670.7056" font-family="Times,serif" font-size="20.00" fill="#000000">[NA]</text>
<text text-anchor="middle" x="182" y="-648.7056" font-family="Times,serif" font-size="20.00" fill="#000000">2</text>
<text text-anchor="middle" x="182" y="-626.7056" font-family="Times,serif" font-size="20.00" fill="#000000">3</text>
</g>
<!-- SG_0_Node_10 -->
<g id="node17" class="node">
<title>SG_0_Node_10</title>
<polygon fill="none" stroke="#000000" points="261.5,-580.4924 196.5,-580.4924 196.5,-544.4924 261.5,-544.4924 261.5,-580.4924"/>
<text text-anchor="middle" x="229" y="-557.4924" font-family="Times,serif" font-size="20.00" fill="#000000">body</text>
</g>
<!-- SG_0_Node_7&#45;&gt;SG_0_Node_10 -->
<g id="edge32" class="edge">
<title>SG_0_Node_7&#45;&gt;SG_0_Node_10</title>
<path fill="none" stroke="#000000" d="M193.4345,-726.8208C197.8747,-715.4571 203.3437,-700.4082 207,-686.7056 215.6457,-654.3042 221.8197,-616.2237 225.3857,-590.8503"/>
<polygon fill="#000000" stroke="#000000" points="228.8718,-591.1886 226.7539,-580.8076 221.9359,-590.2436 228.8718,-591.1886"/>
<text text-anchor="middle" x="226.5" y="-648.7056" font-family="Times,serif" font-size="20.00" fill="#000000">1</text>
</g>
<!-- SG_0_Node_11 -->
<g id="node18" class="node">
<title>SG_0_Node_11</title>
<polygon fill="none" stroke="#000000" points="931.5,-580.4924 800.5,-580.4924 800.5,-544.4924 931.5,-544.4924 931.5,-580.4924"/>
<text text-anchor="middle" x="866" y="-557.4924" font-family="Times,serif" font-size="20.00" fill="#000000">browser_id</text>
</g>
<!-- SG_0_Node_8&#45;&gt;SG_0_Node_11 -->
<g id="edge17" class="edge">
<title>SG_0_Node_8&#45;&gt;SG_0_Node_11</title>
<path fill="none" stroke="#000000" d="M460.9633,-726.9118C456.08,-699.9294 451.5942,-649.1466 479,-620.7056 500.2657,-598.6367 683.7966,-578.759 790.2988,-568.9464"/>
<polygon fill="#000000" stroke="#000000" points="790.7165,-572.423 800.357,-568.0285 790.0802,-565.4519 790.7165,-572.423"/>
<text text-anchor="middle" x="613.5" y="-648.7056" font-family="Times,serif" font-size="20.00" fill="#000000">ecocnt_audio=duration=1</text>
</g>
<!-- SG_0_Node_12 -->
<g id="node19" class="node">
<title>SG_0_Node_12</title>
<polygon fill="none" stroke="#000000" points="1250,-580.4924 988,-580.4924 988,-544.4924 1250,-544.4924 1250,-580.4924"/>
<text text-anchor="middle" x="1119" y="-557.4924" font-family="Times,serif" font-size="20.00" fill="#000000">X&#45;Content&#45;Type&#45;Options</text>
</g>
<!-- SG_0_Node_8&#45;&gt;SG_0_Node_12 -->
<g id="edge18" class="edge">
<title>SG_0_Node_8&#45;&gt;SG_0_Node_12</title>
<path fill="none" stroke="#000000" d="M497.6867,-741.0172C562.8149,-732.7922 706.1081,-712.3057 748,-686.7056 780.1011,-667.0887 768.6868,-639.9713 801,-620.7056 831.0385,-602.7962 907.1896,-588.5283 977.4396,-578.6007"/>
<polygon fill="#000000" stroke="#000000" points="978.3321,-582.0104 987.7553,-577.1675 977.3688,-575.077 978.3321,-582.0104"/>
<text text-anchor="middle" x="1046.5" y="-648.7056" font-family="Times,serif" font-size="20.00" fill="#000000">ecocnt_vid=width=100,height=100,duration=2</text>
</g>
<!-- SG_0_Node_23 -->
<g id="node20" class="node">
<title>SG_0_Node_23</title>
<ellipse fill="none" stroke="#000000" cx="1303" cy="-562.4924" rx="34.7971" ry="21.4286"/>
<text text-anchor="middle" x="1303" y="-557.4924" font-family="Times,serif" font-size="20.00" fill="#000000">0.0</text>
</g>
<!-- SG_0_Node_9&#45;&gt;SG_0_Node_23 -->
<g id="edge9" class="edge">
<title>SG_0_Node_9&#45;&gt;SG_0_Node_23</title>
<path fill="none" stroke="#000000" d="M1294.8959,-726.7602C1296.424,-695.7862 1299.5522,-632.3773 1301.4438,-594.035"/>
<polygon fill="#000000" stroke="#000000" points="1304.9451,-594.0934 1301.9422,-583.933 1297.9536,-593.7484 1304.9451,-594.0934"/>
<text text-anchor="middle" x="1332" y="-648.7056" font-family="Times,serif" font-size="20.00" fill="#000000">empty</text>
</g>
<!-- SG_0_Node_24 -->
<g id="node21" class="node">
<title>SG_0_Node_24</title>
<ellipse fill="none" stroke="#000000" cx="1397" cy="-562.4924" rx="34.7971" ry="21.4286"/>
<text text-anchor="middle" x="1397" y="-557.4924" font-family="Times,serif" font-size="20.00" fill="#000000">1.0</text>
</g>
<!-- SG_0_Node_9&#45;&gt;SG_0_Node_24 -->
<g id="edge10" class="edge">
<title>SG_0_Node_9&#45;&gt;SG_0_Node_24</title>
<path fill="none" stroke="#000000" d="M1325.9224,-726.8465C1340.8314,-716.8481 1357.5557,-703.1156 1368,-686.7056 1385.8703,-658.6282 1392.7532,-620.7063 1395.3905,-594.1763"/>
<polygon fill="#000000" stroke="#000000" points="1398.903,-594.1737 1396.2564,-583.9148 1391.9278,-593.5851 1398.903,-594.1737"/>
<text text-anchor="middle" x="1452" y="-659.7056" font-family="Times,serif" font-size="20.00" fill="#000000">[NA]</text>
<text text-anchor="middle" x="1452" y="-637.7056" font-family="Times,serif" font-size="20.00" fill="#000000">same&#45;origin</text>
</g>
<!-- SG_0_Node_25 -->
<g id="node22" class="node">
<title>SG_0_Node_25</title>
<ellipse fill="none" stroke="#000000" cx="51" cy="-380.066" rx="34.7971" ry="21.4286"/>
<text text-anchor="middle" x="51" y="-375.066" font-family="Times,serif" font-size="20.00" fill="#000000">0.0</text>
</g>
<!-- SG_0_Node_10&#45;&gt;SG_0_Node_25 -->
<g id="edge33" class="edge">
<title>SG_0_Node_10&#45;&gt;SG_0_Node_25</title>
<path fill="none" stroke="#000000" d="M196.3054,-545.0804C193.2004,-543.7008 190.0667,-542.4073 187,-541.2792 121.3412,-517.1266 77.2664,-559.2559 34,-504.2792 12.9278,-477.5038 23.9835,-437.0278 35.7544,-409.619"/>
<polygon fill="#000000" stroke="#000000" points="38.9418,-411.0647 39.8963,-400.513 32.57,-408.1665 38.9418,-411.0647"/>
<text text-anchor="middle" x="168.5" y="-466.2792" font-family="Times,serif" font-size="20.00" fill="#000000">ecocnt_audio=duration=1</text>
</g>
<!-- SG_0_Node_26 -->
<g id="node23" class="node">
<title>SG_0_Node_26</title>
<ellipse fill="none" stroke="#000000" cx="339" cy="-380.066" rx="34.7971" ry="21.4286"/>
<text text-anchor="middle" x="339" y="-375.066" font-family="Times,serif" font-size="20.00" fill="#000000">1.0</text>
</g>
<!-- SG_0_Node_10&#45;&gt;SG_0_Node_26 -->
<g id="edge34" class="edge">
<title>SG_0_Node_10&#45;&gt;SG_0_Node_26</title>
<path fill="none" stroke="#000000" d="M261.6933,-545.1657C277.5612,-535.1918 295.6096,-521.2582 307,-504.2792 325.7284,-476.362 333.4964,-438.1765 336.718,-411.5407"/>
<polygon fill="#000000" stroke="#000000" points="340.1984,-411.9092 337.7756,-401.5952 333.2377,-411.169 340.1984,-411.9092"/>
<text text-anchor="middle" x="577.5" y="-466.2792" font-family="Times,serif" font-size="20.00" fill="#000000">ecocnt_vid=width=100,height=100,duration=2</text>
</g>
<!-- SG_0_Node_27 -->
<g id="node24" class="node">
<title>SG_0_Node_27</title>
<ellipse fill="none" stroke="#000000" cx="727" cy="-380.066" rx="34.7971" ry="21.4286"/>
<text text-anchor="middle" x="727" y="-375.066" font-family="Times,serif" font-size="20.00" fill="#000000">0.0</text>
</g>
<!-- SG_0_Node_11&#45;&gt;SG_0_Node_27 -->
<g id="edge25" class="edge">
<title>SG_0_Node_11&#45;&gt;SG_0_Node_27</title>
<path fill="none" stroke="#000000" d="M864.3903,-544.1202C861.256,-518.0256 852.2487,-469.893 827,-438.2792 818.107,-427.1443 788.3573,-410.4719 763.5998,-397.8197"/>
<polygon fill="#000000" stroke="#000000" points="764.9148,-394.5631 754.4096,-393.1874 761.764,-400.8139 764.9148,-394.5631"/>
<text text-anchor="middle" x="862.5" y="-466.2792" font-family="Times,serif" font-size="20.00" fill="#000000">1</text>
</g>
<!-- SG_0_Node_13 -->
<g id="node25" class="node">
<title>SG_0_Node_13</title>
<polygon fill="none" stroke="#000000" points="1042,-398.066 780,-398.066 780,-362.066 1042,-362.066 1042,-398.066"/>
<text text-anchor="middle" x="911" y="-375.066" font-family="Times,serif" font-size="20.00" fill="#000000">X&#45;Content&#45;Type&#45;Options</text>
</g>
<!-- SG_0_Node_11&#45;&gt;SG_0_Node_13 -->
<g id="edge26" class="edge">
<title>SG_0_Node_11&#45;&gt;SG_0_Node_13</title>
<path fill="none" stroke="#000000" d="M871.5755,-544.4797C875.0443,-533.0196 879.496,-517.8367 883,-504.2792 891.4703,-471.5065 899.8254,-433.4988 905.1727,-408.244"/>
<polygon fill="#000000" stroke="#000000" points="908.6407,-408.7598 907.2718,-398.2538 901.7902,-407.3204 908.6407,-408.7598"/>
<text text-anchor="middle" x="923" y="-488.2792" font-family="Times,serif" font-size="20.00" fill="#000000">[NA]</text>
<text text-anchor="middle" x="923" y="-466.2792" font-family="Times,serif" font-size="20.00" fill="#000000">2</text>
<text text-anchor="middle" x="923" y="-444.2792" font-family="Times,serif" font-size="20.00" fill="#000000">3</text>
</g>
<!-- SG_0_Node_14 -->
<g id="node26" class="node">
<title>SG_0_Node_14</title>
<polygon fill="none" stroke="#000000" points="1215.5,-398.066 1060.5,-398.066 1060.5,-362.066 1215.5,-362.066 1215.5,-398.066"/>
<text text-anchor="middle" x="1138" y="-375.066" font-family="Times,serif" font-size="20.00" fill="#000000">Content&#45;Type</text>
</g>
<!-- SG_0_Node_12&#45;&gt;SG_0_Node_14 -->
<g id="edge19" class="edge">
<title>SG_0_Node_12&#45;&gt;SG_0_Node_14</title>
<path fill="none" stroke="#000000" d="M1120.8913,-544.3337C1124.206,-512.5079 1131.0872,-446.4382 1135.0383,-408.5029"/>
<polygon fill="#000000" stroke="#000000" points="1138.5616,-408.4601 1136.1164,-398.1513 1131.5992,-407.7349 1138.5616,-408.4601"/>
<text text-anchor="middle" x="1163" y="-466.2792" font-family="Times,serif" font-size="20.00" fill="#000000">empty</text>
</g>
<!-- SG_0_Node_28 -->
<g id="node27" class="node">
<title>SG_0_Node_28</title>
<ellipse fill="none" stroke="#000000" cx="1268" cy="-380.066" rx="34.7971" ry="21.4286"/>
<text text-anchor="middle" x="1268" y="-375.066" font-family="Times,serif" font-size="20.00" fill="#000000">1.0</text>
</g>
<!-- SG_0_Node_12&#45;&gt;SG_0_Node_28 -->
<g id="edge20" class="edge">
<title>SG_0_Node_12&#45;&gt;SG_0_Node_28</title>
<path fill="none" stroke="#000000" d="M1150.3959,-544.2403C1166.2931,-533.9294 1185.113,-519.9729 1199,-504.2792 1224.188,-475.8144 1244.0512,-436.6181 1255.875,-409.9194"/>
<polygon fill="#000000" stroke="#000000" points="1259.1087,-411.2596 1259.8624,-400.6916 1252.6829,-408.4829 1259.1087,-411.2596"/>
<text text-anchor="middle" x="1277" y="-477.2792" font-family="Times,serif" font-size="20.00" fill="#000000">[NA]</text>
<text text-anchor="middle" x="1277" y="-455.2792" font-family="Times,serif" font-size="20.00" fill="#000000">nosniff</text>
</g>
<!-- SG_0_Node_15 -->
<g id="node28" class="node">
<title>SG_0_Node_15</title>
<polygon fill="none" stroke="#000000" points="889.5,-237.6396 734.5,-237.6396 734.5,-201.6396 889.5,-201.6396 889.5,-237.6396"/>
<text text-anchor="middle" x="812" y="-214.6396" font-family="Times,serif" font-size="20.00" fill="#000000">Content&#45;Type</text>
</g>
<!-- SG_0_Node_13&#45;&gt;SG_0_Node_15 -->
<g id="edge27" class="edge">
<title>SG_0_Node_13&#45;&gt;SG_0_Node_15</title>
<path fill="none" stroke="#000000" d="M889.6923,-362.0467C877.9855,-351.2993 863.8801,-336.8553 854,-321.8528 838.6751,-298.5825 827.2206,-268.818 820.1774,-247.4175"/>
<polygon fill="#000000" stroke="#000000" points="823.4381,-246.1212 817.0765,-237.6488 816.7661,-248.2391 823.4381,-246.1212"/>
<text text-anchor="middle" x="886" y="-294.8528" font-family="Times,serif" font-size="20.00" fill="#000000">empty</text>
</g>
<!-- SG_0_Node_29 -->
<g id="node29" class="node">
<title>SG_0_Node_29</title>
<ellipse fill="none" stroke="#000000" cx="942" cy="-219.6396" rx="34.7971" ry="21.4286"/>
<text text-anchor="middle" x="942" y="-214.6396" font-family="Times,serif" font-size="20.00" fill="#000000">1.0</text>
</g>
<!-- SG_0_Node_13&#45;&gt;SG_0_Node_29 -->
<g id="edge28" class="edge">
<title>SG_0_Node_13&#45;&gt;SG_0_Node_29</title>
<path fill="none" stroke="#000000" d="M914.4958,-361.9749C919.6967,-335.06 929.5437,-284.1015 935.9354,-251.0242"/>
<polygon fill="#000000" stroke="#000000" points="939.418,-251.4487 937.8789,-240.9663 932.5452,-250.1206 939.418,-251.4487"/>
<text text-anchor="middle" x="965" y="-305.8528" font-family="Times,serif" font-size="20.00" fill="#000000">[NA]</text>
<text text-anchor="middle" x="965" y="-283.8528" font-family="Times,serif" font-size="20.00" fill="#000000">nosniff</text>
</g>
<!-- SG_0_Node_16 -->
<g id="node30" class="node">
<title>SG_0_Node_16</title>
<polygon fill="none" stroke="#000000" points="1179.5,-237.6396 1048.5,-237.6396 1048.5,-201.6396 1179.5,-201.6396 1179.5,-237.6396"/>
<text text-anchor="middle" x="1114" y="-214.6396" font-family="Times,serif" font-size="20.00" fill="#000000">browser_id</text>
</g>
<!-- SG_0_Node_14&#45;&gt;SG_0_Node_16 -->
<g id="edge21" class="edge">
<title>SG_0_Node_14&#45;&gt;SG_0_Node_16</title>
<path fill="none" stroke="#000000" d="M1134.7335,-361.9988C1132.6981,-350.5177 1130.0802,-335.3317 1128,-321.8528 1124.1383,-296.8301 1120.2726,-268.2761 1117.5848,-247.7202"/>
<polygon fill="#000000" stroke="#000000" points="1121.0503,-247.2276 1116.2929,-237.761 1114.1085,-248.1282 1121.0503,-247.2276"/>
<text text-anchor="middle" x="1175" y="-294.8528" font-family="Times,serif" font-size="20.00" fill="#000000">text/html</text>
</g>
<!-- SG_0_Node_30 -->
<g id="node31" class="node">
<title>SG_0_Node_30</title>
<ellipse fill="none" stroke="#000000" cx="1244" cy="-219.6396" rx="34.7971" ry="21.4286"/>
<text text-anchor="middle" x="1244" y="-214.6396" font-family="Times,serif" font-size="20.00" fill="#000000">1.0</text>
</g>
<!-- SG_0_Node_14&#45;&gt;SG_0_Node_30 -->
<g id="edge22" class="edge">
<title>SG_0_Node_14&#45;&gt;SG_0_Node_30</title>
<path fill="none" stroke="#000000" d="M1176.0699,-361.9874C1192.5739,-352.2971 1210.6751,-338.826 1222,-321.8528 1235.962,-300.9273 1241.2546,-272.7032 1243.1725,-251.2151"/>
<polygon fill="#000000" stroke="#000000" points="1246.6828,-251.1861 1243.8812,-240.9684 1239.6995,-250.7031 1246.6828,-251.1861"/>
<text text-anchor="middle" x="1316" y="-294.8528" font-family="Times,serif" font-size="20.00" fill="#000000">application/pdf</text>
</g>
<!-- SG_0_Node_31 -->
<g id="node32" class="node">
<title>SG_0_Node_31</title>
<ellipse fill="none" stroke="#000000" cx="738" cy="-37.2132" rx="34.7971" ry="21.4286"/>
<text text-anchor="middle" x="738" y="-32.2132" font-family="Times,serif" font-size="20.00" fill="#000000">0.0</text>
</g>
<!-- SG_0_Node_15&#45;&gt;SG_0_Node_31 -->
<g id="edge29" class="edge">
<title>SG_0_Node_15&#45;&gt;SG_0_Node_31</title>
<path fill="none" stroke="#000000" d="M776.8565,-201.5027C761.9794,-191.8002 746.2123,-178.3355 738,-161.4264 723.8408,-132.2725 726.3068,-94.5381 730.7575,-68.3464"/>
<polygon fill="#000000" stroke="#000000" points="734.2513,-68.707 732.6719,-58.2305 727.3734,-67.4053 734.2513,-68.707"/>
<text text-anchor="middle" x="785" y="-123.4264" font-family="Times,serif" font-size="20.00" fill="#000000">text/html</text>
</g>
<!-- SG_0_Node_32 -->
<g id="node33" class="node">
<title>SG_0_Node_32</title>
<ellipse fill="none" stroke="#000000" cx="868" cy="-37.2132" rx="34.7971" ry="21.4286"/>
<text text-anchor="middle" x="868" y="-32.2132" font-family="Times,serif" font-size="20.00" fill="#000000">1.0</text>
</g>
<!-- SG_0_Node_15&#45;&gt;SG_0_Node_32 -->
<g id="edge30" class="edge">
<title>SG_0_Node_15&#45;&gt;SG_0_Node_32</title>
<path fill="none" stroke="#000000" d="M820.2274,-201.5328C825.2007,-190.1657 831.4391,-175.1165 836,-161.4264 846.3931,-130.2307 855.4428,-93.6983 861.2412,-68.3635"/>
<polygon fill="#000000" stroke="#000000" points="864.6635,-69.0976 863.4477,-58.5727 857.8347,-67.5585 864.6635,-69.0976"/>
<text text-anchor="middle" x="931" y="-123.4264" font-family="Times,serif" font-size="20.00" fill="#000000">application/pdf</text>
</g>
<!-- SG_0_Node_33 -->
<g id="node34" class="node">
<title>SG_0_Node_33</title>
<ellipse fill="none" stroke="#000000" cx="1086" cy="-37.2132" rx="34.7971" ry="21.4286"/>
<text text-anchor="middle" x="1086" y="-32.2132" font-family="Times,serif" font-size="20.00" fill="#000000">0.0</text>
</g>
<!-- SG_0_Node_16&#45;&gt;SG_0_Node_33 -->
<g id="edge23" class="edge">
<title>SG_0_Node_16&#45;&gt;SG_0_Node_33</title>
<path fill="none" stroke="#000000" d="M1109.0012,-201.4085C1106.025,-189.9946 1102.3771,-174.9398 1100,-161.4264 1094.4733,-130.0078 1090.6775,-93.7151 1088.447,-68.5054"/>
<polygon fill="#000000" stroke="#000000" points="1091.9246,-68.0923 1087.5865,-58.4263 1084.95,-68.6878 1091.9246,-68.0923"/>
<text text-anchor="middle" x="1125" y="-145.4264" font-family="Times,serif" font-size="20.00" fill="#000000">[NA]</text>
<text text-anchor="middle" x="1125" y="-123.4264" font-family="Times,serif" font-size="20.00" fill="#000000">2</text>
<text text-anchor="middle" x="1125" y="-101.4264" font-family="Times,serif" font-size="20.00" fill="#000000">3</text>
</g>
<!-- SG_0_Node_34 -->
<g id="node35" class="node">
<title>SG_0_Node_34</title>
<ellipse fill="none" stroke="#000000" cx="1173" cy="-37.2132" rx="34.7971" ry="21.4286"/>
<text text-anchor="middle" x="1173" y="-32.2132" font-family="Times,serif" font-size="20.00" fill="#000000">1.0</text>
</g>
<!-- SG_0_Node_16&#45;&gt;SG_0_Node_34 -->
<g id="edge24" class="edge">
<title>SG_0_Node_16&#45;&gt;SG_0_Node_34</title>
<path fill="none" stroke="#000000" d="M1127.7125,-201.4322C1135.3806,-190.3963 1144.4787,-175.7264 1150,-161.4264 1161.6813,-131.1722 1167.5418,-94.4244 1170.4085,-68.7796"/>
<polygon fill="#000000" stroke="#000000" points="1173.9221,-68.8253 1171.462,-58.52 1166.9587,-68.1102 1173.9221,-68.8253"/>
<text text-anchor="middle" x="1172.5" y="-123.4264" font-family="Times,serif" font-size="20.00" fill="#000000">1</text>
</g>
</g>
</svg>
