<?xml version="1.0" encoding="UTF-8" standalone="no"?>
<!DOCTYPE svg PUBLIC "-//W3C//DTD SVG 1.1//EN"
 "http://www.w3.org/Graphics/SVG/1.1/DTD/svg11.dtd">
<!-- Generated by graphviz version 2.40.1 (20161225.0304)
 -->
<!-- Title: G Pages: 1 -->
<svg width="1141pt" height="1955pt"
 viewBox="0.00 0.00 1141.00 1954.98" xmlns="http://www.w3.org/2000/svg" xmlns:xlink="http://www.w3.org/1999/xlink">
<g id="graph0" class="graph" transform="scale(1 1) rotate(0) translate(4 1950.9848)">
<title>G</title>
<polygon fill="#ffffff" stroke="transparent" points="-4,4 -4,-1950.9848 1137,-1950.9848 1137,4 -4,4"/>
<g id="clust1" class="cluster">
<title>cluster_0</title>
<polygon fill="none" stroke="#000000" points="8,-8 8,-1938.9848 1115,-1938.9848 1115,-8 8,-8"/>
<text text-anchor="middle" x="561.5" y="-1902.9848" font-family="Times,serif" font-size="40.00" fill="#000000">Tree 0, Class {&#39;length&#39;: 0}</text>
</g>
<!-- SG_0_Node_0 -->
<g id="node1" class="node">
<title>SG_0_Node_0</title>
<polygon fill="none" stroke="#000000" points="176,-1878.9848 34,-1878.9848 34,-1842.9848 176,-1842.9848 176,-1878.9848"/>
<text text-anchor="middle" x="105" y="-1855.9848" font-family="Times,serif" font-size="20.00" fill="#000000">Status&#45;Code</text>
</g>
<!-- SG_0_Node_1 -->
<g id="node2" class="node">
<title>SG_0_Node_1</title>
<polygon fill="none" stroke="#000000" points="109.5,-1589.7716 44.5,-1589.7716 44.5,-1553.7716 109.5,-1553.7716 109.5,-1589.7716"/>
<text text-anchor="middle" x="77" y="-1566.7716" font-family="Times,serif" font-size="20.00" fill="#000000">body</text>
</g>
<!-- SG_0_Node_0&#45;&gt;SG_0_Node_1 -->
<g id="edge1" class="edge">
<title>SG_0_Node_0&#45;&gt;SG_0_Node_1</title>
<path fill="none" stroke="#000000" d="M102.4961,-1842.6716C101.0782,-1831.9839 99.3282,-1818.2339 98,-1805.9848 89.9501,-1731.7435 82.6824,-1644.0205 79.189,-1599.9851"/>
<polygon fill="#000000" stroke="#000000" points="82.6783,-1599.7099 78.4035,-1590.0157 75.6999,-1600.2598 82.6783,-1599.7099"/>
<text text-anchor="middle" x="117.5" y="-1789.9848" font-family="Times,serif" font-size="20.00" fill="#000000">200</text>
<text text-anchor="middle" x="117.5" y="-1767.9848" font-family="Times,serif" font-size="20.00" fill="#000000">201</text>
<text text-anchor="middle" x="117.5" y="-1745.9848" font-family="Times,serif" font-size="20.00" fill="#000000">202</text>
<text text-anchor="middle" x="117.5" y="-1723.9848" font-family="Times,serif" font-size="20.00" fill="#000000">203</text>
<text text-anchor="middle" x="117.5" y="-1701.9848" font-family="Times,serif" font-size="20.00" fill="#000000">206</text>
<text text-anchor="middle" x="117.5" y="-1679.9848" font-family="Times,serif" font-size="20.00" fill="#000000">207</text>
<text text-anchor="middle" x="117.5" y="-1657.9848" font-family="Times,serif" font-size="20.00" fill="#000000">208</text>
<text text-anchor="middle" x="117.5" y="-1635.9848" font-family="Times,serif" font-size="20.00" fill="#000000">226</text>
</g>
<!-- SG_0_Node_9 -->
<g id="node3" class="node">
<title>SG_0_Node_9</title>
<ellipse fill="none" stroke="#000000" cx="162" cy="-1571.7716" rx="34.7971" ry="21.4286"/>
<text text-anchor="middle" x="162" y="-1566.7716" font-family="Times,serif" font-size="20.00" fill="#000000">1.0</text>
</g>
<!-- SG_0_Node_0&#45;&gt;SG_0_Node_9 -->
<g id="edge2" class="edge">
<title>SG_0_Node_0&#45;&gt;SG_0_Node_9</title>
<path fill="none" stroke="#000000" d="M118.3477,-1842.5791C125.0935,-1832.3132 132.7346,-1819.0024 137,-1805.9848 159.8688,-1736.1915 162.9545,-1649.0484 162.7595,-1603.2518"/>
<polygon fill="#000000" stroke="#000000" points="166.2576,-1603.0295 162.6579,-1593.0649 159.2579,-1603.0994 166.2576,-1603.0295"/>
<text text-anchor="middle" x="208" y="-1723.9848" font-family="Times,serif" font-size="20.00" fill="#000000">[NA]</text>
<text text-anchor="middle" x="208" y="-1701.9848" font-family="Times,serif" font-size="20.00" fill="#000000">55 levels</text>
</g>
<!-- SG_0_Node_2 -->
<g id="node4" class="node">
<title>SG_0_Node_2</title>
<polygon fill="none" stroke="#000000" points="240.5,-1231.3452 109.5,-1231.3452 109.5,-1195.3452 240.5,-1195.3452 240.5,-1231.3452"/>
<text text-anchor="middle" x="175" y="-1208.3452" font-family="Times,serif" font-size="20.00" fill="#000000">browser_id</text>
</g>
<!-- SG_0_Node_1&#45;&gt;SG_0_Node_2 -->
<g id="edge3" class="edge">
<title>SG_0_Node_1&#45;&gt;SG_0_Node_2</title>
<path fill="none" stroke="#000000" d="M65.2831,-1553.7311C58.7877,-1542.6351 51.3619,-1527.8467 48,-1513.5584 23.3655,-1408.862 -10.0858,-1362.0805 48,-1271.5584 59.9838,-1252.8826 79.6223,-1240.1205 99.9138,-1231.4306"/>
<polygon fill="#000000" stroke="#000000" points="101.2568,-1234.6631 109.2576,-1227.7178 98.672,-1228.1579 101.2568,-1234.6631"/>
<text text-anchor="middle" x="293.5" y="-1398.5584" font-family="Times,serif" font-size="20.00" fill="#000000">ecocnt_audio=duration=1</text>
<text text-anchor="middle" x="293.5" y="-1376.5584" font-family="Times,serif" font-size="20.00" fill="#000000">ecocnt_vid=width=100,height=100,duration=2</text>
</g>
<!-- SG_0_Node_10 -->
<g id="node5" class="node">
<title>SG_0_Node_10</title>
<ellipse fill="none" stroke="#000000" cx="561" cy="-1213.3452" rx="34.7971" ry="21.4286"/>
<text text-anchor="middle" x="561" y="-1208.3452" font-family="Times,serif" font-size="20.00" fill="#000000">1.0</text>
</g>
<!-- SG_0_Node_1&#45;&gt;SG_0_Node_10 -->
<g id="edge4" class="edge">
<title>SG_0_Node_1&#45;&gt;SG_0_Node_10</title>
<path fill="none" stroke="#000000" d="M109.1955,-1553.6692C112.1155,-1552.472 115.0753,-1551.4076 118,-1550.5584 208.1918,-1524.3729 473.0748,-1580.4473 539,-1513.5584 610.4371,-1441.0771 585.9225,-1305.152 570.0974,-1244.2444"/>
<polygon fill="#000000" stroke="#000000" points="573.4404,-1243.1982 567.4584,-1234.4537 566.6816,-1245.02 573.4404,-1243.1982"/>
<text text-anchor="middle" x="860" y="-1497.5584" font-family="Times,serif" font-size="20.00" fill="#000000">[NA]</text>
<text text-anchor="middle" x="860" y="-1475.5584" font-family="Times,serif" font-size="20.00" fill="#000000">ecocnt_css=h1 {color: blue}</text>
<text text-anchor="middle" x="860" y="-1453.5584" font-family="Times,serif" font-size="20.00" fill="#000000">ecocnt_html=meta_refresh=0;http://172.17.0.1:8000</text>
<text text-anchor="middle" x="860" y="-1431.5584" font-family="Times,serif" font-size="20.00" fill="#000000">ecocnt_html=num_frames=1,input_id=test1</text>
<text text-anchor="middle" x="860" y="-1409.5584" font-family="Times,serif" font-size="20.00" fill="#000000">ecocnt_html=num_frames=2</text>
<text text-anchor="middle" x="860" y="-1387.5584" font-family="Times,serif" font-size="20.00" fill="#000000">ecocnt_html=post_message=mes1</text>
<text text-anchor="middle" x="860" y="-1365.5584" font-family="Times,serif" font-size="20.00" fill="#000000">ecocnt_img=width=50,height=50,type=png</text>
<text text-anchor="middle" x="860" y="-1343.5584" font-family="Times,serif" font-size="20.00" fill="#000000">ecocnt_js=.,,.</text>
<text text-anchor="middle" x="860" y="-1321.5584" font-family="Times,serif" font-size="20.00" fill="#000000">ecocnt_js=var a=5;</text>
<text text-anchor="middle" x="860" y="-1299.5584" font-family="Times,serif" font-size="20.00" fill="#000000">ecocnt_pdf=a=a</text>
<text text-anchor="middle" x="860" y="-1277.5584" font-family="Times,serif" font-size="20.00" fill="#000000">empty</text>
</g>
<!-- SG_0_Node_3 -->
<g id="node6" class="node">
<title>SG_0_Node_3</title>
<polygon fill="none" stroke="#000000" points="333.5,-1052.132 16.5,-1052.132 16.5,-1016.132 333.5,-1016.132 333.5,-1052.132"/>
<text text-anchor="middle" x="175" y="-1029.132" font-family="Times,serif" font-size="20.00" fill="#000000">Cross&#45;Origin&#45;Resource&#45;Policy</text>
</g>
<!-- SG_0_Node_2&#45;&gt;SG_0_Node_3 -->
<g id="edge5" class="edge">
<title>SG_0_Node_2&#45;&gt;SG_0_Node_3</title>
<path fill="none" stroke="#000000" d="M175,-1195.1751C175,-1163.9122 175,-1099.7285 175,-1062.5222"/>
<polygon fill="#000000" stroke="#000000" points="178.5001,-1062.3502 175,-1052.3503 171.5001,-1062.3503 178.5001,-1062.3502"/>
<text text-anchor="middle" x="181.5" y="-1117.132" font-family="Times,serif" font-size="20.00" fill="#000000">1</text>
</g>
<!-- SG_0_Node_4 -->
<g id="node7" class="node">
<title>SG_0_Node_4</title>
<polygon fill="none" stroke="#000000" points="494,-1052.132 352,-1052.132 352,-1016.132 494,-1016.132 494,-1052.132"/>
<text text-anchor="middle" x="423" y="-1029.132" font-family="Times,serif" font-size="20.00" fill="#000000">Status&#45;Code</text>
</g>
<!-- SG_0_Node_2&#45;&gt;SG_0_Node_4 -->
<g id="edge6" class="edge">
<title>SG_0_Node_2&#45;&gt;SG_0_Node_4</title>
<path fill="none" stroke="#000000" d="M200.1443,-1195.1751C245.0778,-1162.7047 339.1554,-1094.721 389.5073,-1058.335"/>
<polygon fill="#000000" stroke="#000000" points="391.7339,-1061.0443 397.7891,-1052.3503 387.6339,-1055.3706 391.7339,-1061.0443"/>
<text text-anchor="middle" x="370" y="-1139.132" font-family="Times,serif" font-size="20.00" fill="#000000">[NA]</text>
<text text-anchor="middle" x="370" y="-1117.132" font-family="Times,serif" font-size="20.00" fill="#000000">2</text>
<text text-anchor="middle" x="370" y="-1095.132" font-family="Times,serif" font-size="20.00" fill="#000000">3</text>
</g>
<!-- SG_0_Node_11 -->
<g id="node8" class="node">
<title>SG_0_Node_11</title>
<ellipse fill="none" stroke="#000000" cx="81" cy="-766.9188" rx="34.7971" ry="21.4286"/>
<text text-anchor="middle" x="81" y="-761.9188" font-family="Times,serif" font-size="20.00" fill="#000000">0.0</text>
</g>
<!-- SG_0_Node_3&#45;&gt;SG_0_Node_11 -->
<g id="edge17" class="edge">
<title>SG_0_Node_3&#45;&gt;SG_0_Node_11</title>
<path fill="none" stroke="#000000" d="M143.6872,-1015.9973C130.4943,-1006.6955 116.3002,-994.1466 108,-979.132 76.1287,-921.4787 75.4609,-841.8407 78.0571,-798.3609"/>
<polygon fill="#000000" stroke="#000000" points="81.5492,-798.5942 78.7502,-788.3758 74.566,-798.1094 81.5492,-798.5942"/>
<text text-anchor="middle" x="140" y="-908.132" font-family="Times,serif" font-size="20.00" fill="#000000">[NA]</text>
<text text-anchor="middle" x="140" y="-886.132" font-family="Times,serif" font-size="20.00" fill="#000000">empty</text>
</g>
<!-- SG_0_Node_12 -->
<g id="node9" class="node">
<title>SG_0_Node_12</title>
<ellipse fill="none" stroke="#000000" cx="181" cy="-766.9188" rx="34.7971" ry="21.4286"/>
<text text-anchor="middle" x="181" y="-761.9188" font-family="Times,serif" font-size="20.00" fill="#000000">1.0</text>
</g>
<!-- SG_0_Node_3&#45;&gt;SG_0_Node_12 -->
<g id="edge18" class="edge">
<title>SG_0_Node_3&#45;&gt;SG_0_Node_12</title>
<path fill="none" stroke="#000000" d="M175.4124,-1015.7654C176.4222,-970.7915 179.0284,-854.7248 180.2921,-798.4461"/>
<polygon fill="#000000" stroke="#000000" points="183.7934,-798.4209 180.5189,-788.3449 176.7952,-798.2637 183.7934,-798.4209"/>
<text text-anchor="middle" x="240" y="-897.132" font-family="Times,serif" font-size="20.00" fill="#000000">same&#45;origin</text>
</g>
<!-- SG_0_Node_5 -->
<g id="node10" class="node">
<title>SG_0_Node_5</title>
<polygon fill="none" stroke="#000000" points="561.5,-784.9188 244.5,-784.9188 244.5,-748.9188 561.5,-748.9188 561.5,-784.9188"/>
<text text-anchor="middle" x="403" y="-761.9188" font-family="Times,serif" font-size="20.00" fill="#000000">Cross&#45;Origin&#45;Resource&#45;Policy</text>
</g>
<!-- SG_0_Node_4&#45;&gt;SG_0_Node_5 -->
<g id="edge7" class="edge">
<title>SG_0_Node_4&#45;&gt;SG_0_Node_5</title>
<path fill="none" stroke="#000000" d="M421.6253,-1015.7654C418.1917,-969.8902 409.2216,-850.0437 405.1119,-795.1353"/>
<polygon fill="#000000" stroke="#000000" points="408.5946,-794.7715 404.3579,-785.0607 401.6141,-795.294 408.5946,-794.7715"/>
<text text-anchor="middle" x="437.5" y="-897.132" font-family="Times,serif" font-size="20.00" fill="#000000">200</text>
</g>
<!-- SG_0_Node_13 -->
<g id="node11" class="node">
<title>SG_0_Node_13</title>
<ellipse fill="none" stroke="#000000" cx="614" cy="-766.9188" rx="34.7971" ry="21.4286"/>
<text text-anchor="middle" x="614" y="-761.9188" font-family="Times,serif" font-size="20.00" fill="#000000">1.0</text>
</g>
<!-- SG_0_Node_4&#45;&gt;SG_0_Node_13 -->
<g id="edge8" class="edge">
<title>SG_0_Node_4&#45;&gt;SG_0_Node_13</title>
<path fill="none" stroke="#000000" d="M436.1282,-1015.7654C469.009,-969.7644 555.0536,-849.3861 594.1529,-794.6853"/>
<polygon fill="#000000" stroke="#000000" points="597.042,-796.6622 600.0097,-786.4915 591.3472,-792.5916 597.042,-796.6622"/>
<text text-anchor="middle" x="589.5" y="-963.132" font-family="Times,serif" font-size="20.00" fill="#000000">201</text>
<text text-anchor="middle" x="589.5" y="-941.132" font-family="Times,serif" font-size="20.00" fill="#000000">202</text>
<text text-anchor="middle" x="589.5" y="-919.132" font-family="Times,serif" font-size="20.00" fill="#000000">203</text>
<text text-anchor="middle" x="589.5" y="-897.132" font-family="Times,serif" font-size="20.00" fill="#000000">206</text>
<text text-anchor="middle" x="589.5" y="-875.132" font-family="Times,serif" font-size="20.00" fill="#000000">207</text>
<text text-anchor="middle" x="589.5" y="-853.132" font-family="Times,serif" font-size="20.00" fill="#000000">208</text>
<text text-anchor="middle" x="589.5" y="-831.132" font-family="Times,serif" font-size="20.00" fill="#000000">226</text>
</g>
<!-- SG_0_Node_6 -->
<g id="node12" class="node">
<title>SG_0_Node_6</title>
<polygon fill="none" stroke="#000000" points="375.5,-624.4924 220.5,-624.4924 220.5,-588.4924 375.5,-588.4924 375.5,-624.4924"/>
<text text-anchor="middle" x="298" y="-601.4924" font-family="Times,serif" font-size="20.00" fill="#000000">Content&#45;Type</text>
</g>
<!-- SG_0_Node_5&#45;&gt;SG_0_Node_6 -->
<g id="edge9" class="edge">
<title>SG_0_Node_5&#45;&gt;SG_0_Node_6</title>
<path fill="none" stroke="#000000" d="M381.1007,-748.9015C369.0335,-738.1547 354.4315,-723.7107 344,-708.7056 327.7943,-685.3948 315.1197,-655.4562 307.2148,-634.0152"/>
<polygon fill="#000000" stroke="#000000" points="310.4852,-632.7658 303.8229,-624.5278 303.8937,-635.1224 310.4852,-632.7658"/>
<text text-anchor="middle" x="376" y="-692.7056" font-family="Times,serif" font-size="20.00" fill="#000000">[NA]</text>
<text text-anchor="middle" x="376" y="-670.7056" font-family="Times,serif" font-size="20.00" fill="#000000">empty</text>
</g>
<!-- SG_0_Node_14 -->
<g id="node13" class="node">
<title>SG_0_Node_14</title>
<ellipse fill="none" stroke="#000000" cx="428" cy="-606.4924" rx="34.7971" ry="21.4286"/>
<text text-anchor="middle" x="428" y="-601.4924" font-family="Times,serif" font-size="20.00" fill="#000000">1.0</text>
</g>
<!-- SG_0_Node_5&#45;&gt;SG_0_Node_14 -->
<g id="edge10" class="edge">
<title>SG_0_Node_5&#45;&gt;SG_0_Node_14</title>
<path fill="none" stroke="#000000" d="M405.8192,-748.8277C410.0135,-721.9128 417.9546,-670.9543 423.1092,-637.877"/>
<polygon fill="#000000" stroke="#000000" points="426.595,-638.2388 424.6766,-627.8191 419.6785,-637.1609 426.595,-638.2388"/>
<text text-anchor="middle" x="479" y="-681.7056" font-family="Times,serif" font-size="20.00" fill="#000000">same&#45;origin</text>
</g>
<!-- SG_0_Node_15 -->
<g id="node14" class="node">
<title>SG_0_Node_15</title>
<ellipse fill="none" stroke="#000000" cx="52" cy="-336.066" rx="34.7971" ry="21.4286"/>
<text text-anchor="middle" x="52" y="-331.066" font-family="Times,serif" font-size="20.00" fill="#000000">0.0</text>
</g>
<!-- SG_0_Node_6&#45;&gt;SG_0_Node_15 -->
<g id="edge11" class="edge">
<title>SG_0_Node_6&#45;&gt;SG_0_Node_15</title>
<path fill="none" stroke="#000000" d="M220.35,-595.8554C163.5272,-586.385 93.1505,-570.563 74,-548.2792 30.3257,-497.4591 37.3918,-412.489 45.2949,-367.0135"/>
<polygon fill="#000000" stroke="#000000" points="48.7435,-367.6121 47.1334,-357.1403 41.8618,-366.3306 48.7435,-367.6121"/>
<text text-anchor="middle" x="185" y="-532.2792" font-family="Times,serif" font-size="20.00" fill="#000000">[NA]</text>
<text text-anchor="middle" x="185" y="-510.2792" font-family="Times,serif" font-size="20.00" fill="#000000">application/javascript</text>
<text text-anchor="middle" x="185" y="-488.2792" font-family="Times,serif" font-size="20.00" fill="#000000">audio/wav</text>
<text text-anchor="middle" x="185" y="-466.2792" font-family="Times,serif" font-size="20.00" fill="#000000">empty</text>
<text text-anchor="middle" x="185" y="-444.2792" font-family="Times,serif" font-size="20.00" fill="#000000">image/png</text>
<text text-anchor="middle" x="185" y="-422.2792" font-family="Times,serif" font-size="20.00" fill="#000000">text/css</text>
<text text-anchor="middle" x="185" y="-400.2792" font-family="Times,serif" font-size="20.00" fill="#000000">video/mp4</text>
</g>
<!-- SG_0_Node_7 -->
<g id="node15" class="node">
<title>SG_0_Node_7</title>
<polygon fill="none" stroke="#000000" points="441,-354.066 179,-354.066 179,-318.066 441,-318.066 441,-354.066"/>
<text text-anchor="middle" x="310" y="-331.066" font-family="Times,serif" font-size="20.00" fill="#000000">X&#45;Content&#45;Type&#45;Options</text>
</g>
<!-- SG_0_Node_6&#45;&gt;SG_0_Node_7 -->
<g id="edge12" class="edge">
<title>SG_0_Node_6&#45;&gt;SG_0_Node_7</title>
<path fill="none" stroke="#000000" d="M298.806,-588.3291C300.8554,-542.1438 306.2776,-419.952 308.7453,-364.3422"/>
<polygon fill="#000000" stroke="#000000" points="312.2507,-364.2957 309.1975,-354.1503 305.2576,-363.9853 312.2507,-364.2957"/>
<text text-anchor="middle" x="384" y="-477.2792" font-family="Times,serif" font-size="20.00" fill="#000000">application/pdf</text>
<text text-anchor="middle" x="384" y="-455.2792" font-family="Times,serif" font-size="20.00" fill="#000000">text/html</text>
</g>
<!-- SG_0_Node_8 -->
<g id="node16" class="node">
<title>SG_0_Node_8</title>
<polygon fill="none" stroke="#000000" points="265.5,-193.6396 110.5,-193.6396 110.5,-157.6396 265.5,-157.6396 265.5,-193.6396"/>
<text text-anchor="middle" x="188" y="-170.6396" font-family="Times,serif" font-size="20.00" fill="#000000">Content&#45;Type</text>
</g>
<!-- SG_0_Node_7&#45;&gt;SG_0_Node_8 -->
<g id="edge13" class="edge">
<title>SG_0_Node_7&#45;&gt;SG_0_Node_8</title>
<path fill="none" stroke="#000000" d="M285.5286,-317.908C272.2003,-307.2239 256.024,-292.8869 244,-277.8528 225.4784,-254.6944 209.8102,-224.5529 199.7986,-203.0133"/>
<polygon fill="#000000" stroke="#000000" points="202.927,-201.4373 195.6067,-193.778 196.5528,-204.3306 202.927,-201.4373"/>
<text text-anchor="middle" x="276" y="-250.8528" font-family="Times,serif" font-size="20.00" fill="#000000">empty</text>
</g>
<!-- SG_0_Node_16 -->
<g id="node17" class="node">
<title>SG_0_Node_16</title>
<ellipse fill="none" stroke="#000000" cx="318" cy="-175.6396" rx="34.7971" ry="21.4286"/>
<text text-anchor="middle" x="318" y="-170.6396" font-family="Times,serif" font-size="20.00" fill="#000000">1.0</text>
</g>
<!-- SG_0_Node_7&#45;&gt;SG_0_Node_16 -->
<g id="edge14" class="edge">
<title>SG_0_Node_7&#45;&gt;SG_0_Node_16</title>
<path fill="none" stroke="#000000" d="M310.9022,-317.9749C312.2443,-291.06 314.7855,-240.1015 316.4349,-207.0242"/>
<polygon fill="#000000" stroke="#000000" points="319.934,-207.1282 316.9365,-196.9663 312.9427,-206.7795 319.934,-207.1282"/>
<text text-anchor="middle" x="350" y="-261.8528" font-family="Times,serif" font-size="20.00" fill="#000000">[NA]</text>
<text text-anchor="middle" x="350" y="-239.8528" font-family="Times,serif" font-size="20.00" fill="#000000">nosniff</text>
</g>
<!-- SG_0_Node_17 -->
<g id="node18" class="node">
<title>SG_0_Node_17</title>
<ellipse fill="none" stroke="#000000" cx="65" cy="-37.2132" rx="34.7971" ry="21.4286"/>
<text text-anchor="middle" x="65" y="-32.2132" font-family="Times,serif" font-size="20.00" fill="#000000">0.0</text>
</g>
<!-- SG_0_Node_8&#45;&gt;SG_0_Node_17 -->
<g id="edge15" class="edge">
<title>SG_0_Node_8&#45;&gt;SG_0_Node_17</title>
<path fill="none" stroke="#000000" d="M145.512,-157.6235C127.1914,-148.0161 106.839,-134.5945 93,-117.4264 81.6857,-103.3904 74.7926,-84.4722 70.6781,-68.5334"/>
<polygon fill="#000000" stroke="#000000" points="74.0348,-67.5158 68.357,-58.5708 67.2174,-69.1042 74.0348,-67.5158"/>
<text text-anchor="middle" x="140" y="-101.4264" font-family="Times,serif" font-size="20.00" fill="#000000">text/html</text>
</g>
<!-- SG_0_Node_18 -->
<g id="node19" class="node">
<title>SG_0_Node_18</title>
<ellipse fill="none" stroke="#000000" cx="195" cy="-37.2132" rx="34.7971" ry="21.4286"/>
<text text-anchor="middle" x="195" y="-32.2132" font-family="Times,serif" font-size="20.00" fill="#000000">1.0</text>
</g>
<!-- SG_0_Node_8&#45;&gt;SG_0_Node_18 -->
<g id="edge16" class="edge">
<title>SG_0_Node_8&#45;&gt;SG_0_Node_18</title>
<path fill="none" stroke="#000000" d="M188.9151,-157.5428C190.0537,-135.0281 192.0167,-96.2088 193.4048,-68.7578"/>
<polygon fill="#000000" stroke="#000000" points="196.9144,-68.6557 193.924,-58.4917 189.9233,-68.3022 196.9144,-68.6557"/>
<text text-anchor="middle" x="268" y="-101.4264" font-family="Times,serif" font-size="20.00" fill="#000000">application/pdf</text>
</g>
</g>
</svg>
