<?xml version="1.0" encoding="UTF-8" standalone="no"?>
<!DOCTYPE svg PUBLIC "-//W3C//DTD SVG 1.1//EN"
 "http://www.w3.org/Graphics/SVG/1.1/DTD/svg11.dtd">
<!-- Generated by graphviz version 2.40.1 (20161225.0304)
 -->
<!-- Title: G Pages: 1 -->
<svg width="677pt" height="1757pt"
 viewBox="0.00 0.00 677.00 1756.98" xmlns="http://www.w3.org/2000/svg" xmlns:xlink="http://www.w3.org/1999/xlink">
<g id="graph0" class="graph" transform="scale(1 1) rotate(0) translate(4 1752.9848)">
<title>G</title>
<polygon fill="#ffffff" stroke="transparent" points="-4,4 -4,-1752.9848 673,-1752.9848 673,4 -4,4"/>
<g id="clust1" class="cluster">
<title>cluster_0</title>
<polygon fill="none" stroke="#000000" points="8,-8 8,-1740.9848 661,-1740.9848 661,-8 8,-8"/>
<text text-anchor="middle" x="334.5" y="-1704.9848" font-family="Times,serif" font-size="40.00" fill="#000000">Tree 0, Class 0</text>
</g>
<!-- SG_0_Node_0 -->
<g id="node1" class="node">
<title>SG_0_Node_0</title>
<polygon fill="none" stroke="#000000" points="337.5,-1680.9848 272.5,-1680.9848 272.5,-1644.9848 337.5,-1644.9848 337.5,-1680.9848"/>
<text text-anchor="middle" x="305" y="-1657.9848" font-family="Times,serif" font-size="20.00" fill="#000000">body</text>
</g>
<!-- SG_0_Node_1 -->
<g id="node2" class="node">
<title>SG_0_Node_1</title>
<polygon fill="none" stroke="#000000" points="246,-1523.7716 104,-1523.7716 104,-1487.7716 246,-1487.7716 246,-1523.7716"/>
<text text-anchor="middle" x="175" y="-1500.7716" font-family="Times,serif" font-size="20.00" fill="#000000">Status&#45;Code</text>
</g>
<!-- SG_0_Node_0&#45;&gt;SG_0_Node_1 -->
<g id="edge1" class="edge">
<title>SG_0_Node_0&#45;&gt;SG_0_Node_1</title>
<path fill="none" stroke="#000000" d="M272.4608,-1660.9613C209.7573,-1656.3114 75.9013,-1642.489 48,-1607.9848 35.7038,-1592.7788 37.4389,-1580.4434 48,-1563.9848 58.9254,-1546.9584 76.2132,-1534.8473 94.5576,-1526.256"/>
<polygon fill="#000000" stroke="#000000" points="96.1381,-1529.3856 103.9203,-1522.1961 93.3533,-1522.9633 96.1381,-1529.3856"/>
<text text-anchor="middle" x="293.5" y="-1580.9848" font-family="Times,serif" font-size="20.00" fill="#000000">ecocnt_vid=width=100,height=100,duration=2</text>
</g>
<!-- SG_0_Node_9 -->
<g id="node3" class="node">
<title>SG_0_Node_9</title>
<ellipse fill="none" stroke="#000000" cx="561" cy="-1505.7716" rx="34.7971" ry="21.4286"/>
<text text-anchor="middle" x="561" y="-1500.7716" font-family="Times,serif" font-size="20.00" fill="#000000">1.0</text>
</g>
<!-- SG_0_Node_0&#45;&gt;SG_0_Node_9 -->
<g id="edge2" class="edge">
<title>SG_0_Node_0&#45;&gt;SG_0_Node_9</title>
<path fill="none" stroke="#000000" d="M337.6491,-1659.5976C395.1767,-1652.9588 511.1588,-1636.3559 539,-1607.9848 557.1095,-1589.5307 561.8774,-1559.9681 562.544,-1537.3722"/>
<polygon fill="#000000" stroke="#000000" points="566.0444,-1537.248 562.5887,-1527.2326 559.0445,-1537.217 566.0444,-1537.248"/>
<text text-anchor="middle" x="605" y="-1591.9848" font-family="Times,serif" font-size="20.00" fill="#000000">[NA]</text>
<text text-anchor="middle" x="605" y="-1569.9848" font-family="Times,serif" font-size="20.00" fill="#000000">11 levels</text>
</g>
<!-- SG_0_Node_2 -->
<g id="node4" class="node">
<title>SG_0_Node_2</title>
<polygon fill="none" stroke="#000000" points="240.5,-1231.3452 109.5,-1231.3452 109.5,-1195.3452 240.5,-1195.3452 240.5,-1231.3452"/>
<text text-anchor="middle" x="175" y="-1208.3452" font-family="Times,serif" font-size="20.00" fill="#000000">browser_id</text>
</g>
<!-- SG_0_Node_1&#45;&gt;SG_0_Node_2 -->
<g id="edge3" class="edge">
<title>SG_0_Node_1&#45;&gt;SG_0_Node_2</title>
<path fill="none" stroke="#000000" d="M175,-1487.4791C175,-1438.0403 175,-1301.4754 175,-1241.8338"/>
<polygon fill="#000000" stroke="#000000" points="178.5001,-1241.6309 175,-1231.6309 171.5001,-1241.6309 178.5001,-1241.6309"/>
<text text-anchor="middle" x="194.5" y="-1431.5584" font-family="Times,serif" font-size="20.00" fill="#000000">200</text>
<text text-anchor="middle" x="194.5" y="-1409.5584" font-family="Times,serif" font-size="20.00" fill="#000000">201</text>
<text text-anchor="middle" x="194.5" y="-1387.5584" font-family="Times,serif" font-size="20.00" fill="#000000">202</text>
<text text-anchor="middle" x="194.5" y="-1365.5584" font-family="Times,serif" font-size="20.00" fill="#000000">203</text>
<text text-anchor="middle" x="194.5" y="-1343.5584" font-family="Times,serif" font-size="20.00" fill="#000000">206</text>
<text text-anchor="middle" x="194.5" y="-1321.5584" font-family="Times,serif" font-size="20.00" fill="#000000">207</text>
<text text-anchor="middle" x="194.5" y="-1299.5584" font-family="Times,serif" font-size="20.00" fill="#000000">208</text>
<text text-anchor="middle" x="194.5" y="-1277.5584" font-family="Times,serif" font-size="20.00" fill="#000000">226</text>
</g>
<!-- SG_0_Node_10 -->
<g id="node5" class="node">
<title>SG_0_Node_10</title>
<ellipse fill="none" stroke="#000000" cx="293" cy="-1213.3452" rx="34.7971" ry="21.4286"/>
<text text-anchor="middle" x="293" y="-1208.3452" font-family="Times,serif" font-size="20.00" fill="#000000">1.0</text>
</g>
<!-- SG_0_Node_1&#45;&gt;SG_0_Node_10 -->
<g id="edge4" class="edge">
<title>SG_0_Node_1&#45;&gt;SG_0_Node_10</title>
<path fill="none" stroke="#000000" d="M190.7957,-1487.659C199.7544,-1476.6557 210.6153,-1461.9869 218,-1447.5584 253.1011,-1378.9768 275.9816,-1290.7124 286.4299,-1244.5857"/>
<polygon fill="#000000" stroke="#000000" points="289.8956,-1245.1236 288.6451,-1234.6029 283.0618,-1243.6072 289.8956,-1245.1236"/>
<text text-anchor="middle" x="325" y="-1365.5584" font-family="Times,serif" font-size="20.00" fill="#000000">[NA]</text>
<text text-anchor="middle" x="325" y="-1343.5584" font-family="Times,serif" font-size="20.00" fill="#000000">55 levels</text>
</g>
<!-- SG_0_Node_3 -->
<g id="node6" class="node">
<title>SG_0_Node_3</title>
<polygon fill="none" stroke="#000000" points="333.5,-1052.132 16.5,-1052.132 16.5,-1016.132 333.5,-1016.132 333.5,-1052.132"/>
<text text-anchor="middle" x="175" y="-1029.132" font-family="Times,serif" font-size="20.00" fill="#000000">Cross&#45;Origin&#45;Resource&#45;Policy</text>
</g>
<!-- SG_0_Node_2&#45;&gt;SG_0_Node_3 -->
<g id="edge5" class="edge">
<title>SG_0_Node_2&#45;&gt;SG_0_Node_3</title>
<path fill="none" stroke="#000000" d="M175,-1195.1751C175,-1163.9122 175,-1099.7285 175,-1062.5222"/>
<polygon fill="#000000" stroke="#000000" points="178.5001,-1062.3502 175,-1052.3503 171.5001,-1062.3503 178.5001,-1062.3502"/>
<text text-anchor="middle" x="181.5" y="-1117.132" font-family="Times,serif" font-size="20.00" fill="#000000">1</text>
</g>
<!-- SG_0_Node_4 -->
<g id="node7" class="node">
<title>SG_0_Node_4</title>
<polygon fill="none" stroke="#000000" points="494,-1052.132 352,-1052.132 352,-1016.132 494,-1016.132 494,-1052.132"/>
<text text-anchor="middle" x="423" y="-1029.132" font-family="Times,serif" font-size="20.00" fill="#000000">Status&#45;Code</text>
</g>
<!-- SG_0_Node_2&#45;&gt;SG_0_Node_4 -->
<g id="edge6" class="edge">
<title>SG_0_Node_2&#45;&gt;SG_0_Node_4</title>
<path fill="none" stroke="#000000" d="M200.1443,-1195.1751C245.0778,-1162.7047 339.1554,-1094.721 389.5073,-1058.335"/>
<polygon fill="#000000" stroke="#000000" points="391.7339,-1061.0443 397.7891,-1052.3503 387.6339,-1055.3706 391.7339,-1061.0443"/>
<text text-anchor="middle" x="370" y="-1139.132" font-family="Times,serif" font-size="20.00" fill="#000000">[NA]</text>
<text text-anchor="middle" x="370" y="-1117.132" font-family="Times,serif" font-size="20.00" fill="#000000">2</text>
<text text-anchor="middle" x="370" y="-1095.132" font-family="Times,serif" font-size="20.00" fill="#000000">3</text>
</g>
<!-- SG_0_Node_11 -->
<g id="node8" class="node">
<title>SG_0_Node_11</title>
<ellipse fill="none" stroke="#000000" cx="80" cy="-766.9188" rx="34.7971" ry="21.4286"/>
<text text-anchor="middle" x="80" y="-761.9188" font-family="Times,serif" font-size="20.00" fill="#000000">0.0</text>
</g>
<!-- SG_0_Node_3&#45;&gt;SG_0_Node_11 -->
<g id="edge17" class="edge">
<title>SG_0_Node_3&#45;&gt;SG_0_Node_11</title>
<path fill="none" stroke="#000000" d="M143.7193,-1015.9795C130.5329,-1006.6741 116.335,-994.1273 108,-979.132 75.976,-921.5181 74.887,-841.865 77.2389,-798.372"/>
<polygon fill="#000000" stroke="#000000" points="80.7323,-798.5862 77.8754,-788.3838 73.7464,-798.141 80.7323,-798.5862"/>
<text text-anchor="middle" x="140" y="-908.132" font-family="Times,serif" font-size="20.00" fill="#000000">[NA]</text>
<text text-anchor="middle" x="140" y="-886.132" font-family="Times,serif" font-size="20.00" fill="#000000">empty</text>
</g>
<!-- SG_0_Node_12 -->
<g id="node9" class="node">
<title>SG_0_Node_12</title>
<ellipse fill="none" stroke="#000000" cx="180" cy="-766.9188" rx="34.7971" ry="21.4286"/>
<text text-anchor="middle" x="180" y="-761.9188" font-family="Times,serif" font-size="20.00" fill="#000000">1.0</text>
</g>
<!-- SG_0_Node_3&#45;&gt;SG_0_Node_12 -->
<g id="edge18" class="edge">
<title>SG_0_Node_3&#45;&gt;SG_0_Node_12</title>
<path fill="none" stroke="#000000" d="M175.3437,-1015.7654C176.1852,-970.7915 178.357,-854.7248 179.4101,-798.4461"/>
<polygon fill="#000000" stroke="#000000" points="182.9113,-798.4086 179.5991,-788.3449 175.9125,-798.2776 182.9113,-798.4086"/>
<text text-anchor="middle" x="239" y="-897.132" font-family="Times,serif" font-size="20.00" fill="#000000">same&#45;origin</text>
</g>
<!-- SG_0_Node_5 -->
<g id="node10" class="node">
<title>SG_0_Node_5</title>
<polygon fill="none" stroke="#000000" points="555.5,-784.9188 238.5,-784.9188 238.5,-748.9188 555.5,-748.9188 555.5,-784.9188"/>
<text text-anchor="middle" x="397" y="-761.9188" font-family="Times,serif" font-size="20.00" fill="#000000">Cross&#45;Origin&#45;Resource&#45;Policy</text>
</g>
<!-- SG_0_Node_4&#45;&gt;SG_0_Node_5 -->
<g id="edge7" class="edge">
<title>SG_0_Node_4&#45;&gt;SG_0_Node_5</title>
<path fill="none" stroke="#000000" d="M421.2129,-1015.7654C416.7492,-969.8902 405.0881,-850.0437 399.7455,-795.1353"/>
<polygon fill="#000000" stroke="#000000" points="403.2173,-794.6747 398.7652,-785.0607 396.2502,-795.3526 403.2173,-794.6747"/>
<text text-anchor="middle" x="436.5" y="-897.132" font-family="Times,serif" font-size="20.00" fill="#000000">200</text>
</g>
<!-- SG_0_Node_13 -->
<g id="node11" class="node">
<title>SG_0_Node_13</title>
<ellipse fill="none" stroke="#000000" cx="608" cy="-766.9188" rx="34.7971" ry="21.4286"/>
<text text-anchor="middle" x="608" y="-761.9188" font-family="Times,serif" font-size="20.00" fill="#000000">1.0</text>
</g>
<!-- SG_0_Node_4&#45;&gt;SG_0_Node_13 -->
<g id="edge8" class="edge">
<title>SG_0_Node_4&#45;&gt;SG_0_Node_13</title>
<path fill="none" stroke="#000000" d="M435.7158,-1015.7654C467.4982,-969.8591 550.5626,-849.8812 588.5421,-795.0238"/>
<polygon fill="#000000" stroke="#000000" points="591.6346,-796.7057 594.4492,-786.4915 585.8793,-792.7211 591.6346,-796.7057"/>
<text text-anchor="middle" x="584.5" y="-963.132" font-family="Times,serif" font-size="20.00" fill="#000000">201</text>
<text text-anchor="middle" x="584.5" y="-941.132" font-family="Times,serif" font-size="20.00" fill="#000000">202</text>
<text text-anchor="middle" x="584.5" y="-919.132" font-family="Times,serif" font-size="20.00" fill="#000000">203</text>
<text text-anchor="middle" x="584.5" y="-897.132" font-family="Times,serif" font-size="20.00" fill="#000000">206</text>
<text text-anchor="middle" x="584.5" y="-875.132" font-family="Times,serif" font-size="20.00" fill="#000000">207</text>
<text text-anchor="middle" x="584.5" y="-853.132" font-family="Times,serif" font-size="20.00" fill="#000000">208</text>
<text text-anchor="middle" x="584.5" y="-831.132" font-family="Times,serif" font-size="20.00" fill="#000000">226</text>
</g>
<!-- SG_0_Node_6 -->
<g id="node12" class="node">
<title>SG_0_Node_6</title>
<polygon fill="none" stroke="#000000" points="369.5,-624.4924 214.5,-624.4924 214.5,-588.4924 369.5,-588.4924 369.5,-624.4924"/>
<text text-anchor="middle" x="292" y="-601.4924" font-family="Times,serif" font-size="20.00" fill="#000000">Content&#45;Type</text>
</g>
<!-- SG_0_Node_5&#45;&gt;SG_0_Node_6 -->
<g id="edge9" class="edge">
<title>SG_0_Node_5&#45;&gt;SG_0_Node_6</title>
<path fill="none" stroke="#000000" d="M375.1007,-748.9015C363.0335,-738.1547 348.4315,-723.7107 338,-708.7056 321.7943,-685.3948 309.1197,-655.4562 301.2148,-634.0152"/>
<polygon fill="#000000" stroke="#000000" points="304.4852,-632.7658 297.8229,-624.5278 297.8937,-635.1224 304.4852,-632.7658"/>
<text text-anchor="middle" x="370" y="-681.7056" font-family="Times,serif" font-size="20.00" fill="#000000">empty</text>
</g>
<!-- SG_0_Node_14 -->
<g id="node13" class="node">
<title>SG_0_Node_14</title>
<ellipse fill="none" stroke="#000000" cx="422" cy="-606.4924" rx="34.7971" ry="21.4286"/>
<text text-anchor="middle" x="422" y="-601.4924" font-family="Times,serif" font-size="20.00" fill="#000000">1.0</text>
</g>
<!-- SG_0_Node_5&#45;&gt;SG_0_Node_14 -->
<g id="edge10" class="edge">
<title>SG_0_Node_5&#45;&gt;SG_0_Node_14</title>
<path fill="none" stroke="#000000" d="M399.8192,-748.8277C404.0135,-721.9128 411.9546,-670.9543 417.1092,-637.877"/>
<polygon fill="#000000" stroke="#000000" points="420.595,-638.2388 418.6766,-627.8191 413.6785,-637.1609 420.595,-638.2388"/>
<text text-anchor="middle" x="473" y="-692.7056" font-family="Times,serif" font-size="20.00" fill="#000000">[NA]</text>
<text text-anchor="middle" x="473" y="-670.7056" font-family="Times,serif" font-size="20.00" fill="#000000">same&#45;origin</text>
</g>
<!-- SG_0_Node_15 -->
<g id="node14" class="node">
<title>SG_0_Node_15</title>
<ellipse fill="none" stroke="#000000" cx="52" cy="-336.066" rx="34.7971" ry="21.4286"/>
<text text-anchor="middle" x="52" y="-331.066" font-family="Times,serif" font-size="20.00" fill="#000000">0.0</text>
</g>
<!-- SG_0_Node_6&#45;&gt;SG_0_Node_15 -->
<g id="edge11" class="edge">
<title>SG_0_Node_6&#45;&gt;SG_0_Node_15</title>
<path fill="none" stroke="#000000" d="M214.2586,-595.8833C157.6588,-586.4495 87.7655,-570.663 69,-548.2792 26.0426,-497.039 35.3093,-412.2426 44.4417,-366.9051"/>
<polygon fill="#000000" stroke="#000000" points="47.8777,-367.5743 46.5486,-357.0632 41.0328,-366.1089 47.8777,-367.5743"/>
<text text-anchor="middle" x="180" y="-532.2792" font-family="Times,serif" font-size="20.00" fill="#000000">[NA]</text>
<text text-anchor="middle" x="180" y="-510.2792" font-family="Times,serif" font-size="20.00" fill="#000000">application/javascript</text>
<text text-anchor="middle" x="180" y="-488.2792" font-family="Times,serif" font-size="20.00" fill="#000000">audio/wav</text>
<text text-anchor="middle" x="180" y="-466.2792" font-family="Times,serif" font-size="20.00" fill="#000000">empty</text>
<text text-anchor="middle" x="180" y="-444.2792" font-family="Times,serif" font-size="20.00" fill="#000000">image/png</text>
<text text-anchor="middle" x="180" y="-422.2792" font-family="Times,serif" font-size="20.00" fill="#000000">text/css</text>
<text text-anchor="middle" x="180" y="-400.2792" font-family="Times,serif" font-size="20.00" fill="#000000">video/mp4</text>
</g>
<!-- SG_0_Node_7 -->
<g id="node15" class="node">
<title>SG_0_Node_7</title>
<polygon fill="none" stroke="#000000" points="441,-354.066 179,-354.066 179,-318.066 441,-318.066 441,-354.066"/>
<text text-anchor="middle" x="310" y="-331.066" font-family="Times,serif" font-size="20.00" fill="#000000">X&#45;Content&#45;Type&#45;Options</text>
</g>
<!-- SG_0_Node_6&#45;&gt;SG_0_Node_7 -->
<g id="edge12" class="edge">
<title>SG_0_Node_6&#45;&gt;SG_0_Node_7</title>
<path fill="none" stroke="#000000" d="M293.209,-588.3291C296.2831,-542.1438 304.4164,-419.952 308.1179,-364.3422"/>
<polygon fill="#000000" stroke="#000000" points="311.6243,-364.3607 308.7963,-354.1503 304.6398,-363.8957 311.6243,-364.3607"/>
<text text-anchor="middle" x="383" y="-477.2792" font-family="Times,serif" font-size="20.00" fill="#000000">application/pdf</text>
<text text-anchor="middle" x="383" y="-455.2792" font-family="Times,serif" font-size="20.00" fill="#000000">text/html</text>
</g>
<!-- SG_0_Node_8 -->
<g id="node16" class="node">
<title>SG_0_Node_8</title>
<polygon fill="none" stroke="#000000" points="265.5,-193.6396 110.5,-193.6396 110.5,-157.6396 265.5,-157.6396 265.5,-193.6396"/>
<text text-anchor="middle" x="188" y="-170.6396" font-family="Times,serif" font-size="20.00" fill="#000000">Content&#45;Type</text>
</g>
<!-- SG_0_Node_7&#45;&gt;SG_0_Node_8 -->
<g id="edge13" class="edge">
<title>SG_0_Node_7&#45;&gt;SG_0_Node_8</title>
<path fill="none" stroke="#000000" d="M285.5286,-317.908C272.2003,-307.2239 256.024,-292.8869 244,-277.8528 225.4784,-254.6944 209.8102,-224.5529 199.7986,-203.0133"/>
<polygon fill="#000000" stroke="#000000" points="202.927,-201.4373 195.6067,-193.778 196.5528,-204.3306 202.927,-201.4373"/>
<text text-anchor="middle" x="276" y="-250.8528" font-family="Times,serif" font-size="20.00" fill="#000000">empty</text>
</g>
<!-- SG_0_Node_16 -->
<g id="node17" class="node">
<title>SG_0_Node_16</title>
<ellipse fill="none" stroke="#000000" cx="318" cy="-175.6396" rx="34.7971" ry="21.4286"/>
<text text-anchor="middle" x="318" y="-170.6396" font-family="Times,serif" font-size="20.00" fill="#000000">1.0</text>
</g>
<!-- SG_0_Node_7&#45;&gt;SG_0_Node_16 -->
<g id="edge14" class="edge">
<title>SG_0_Node_7&#45;&gt;SG_0_Node_16</title>
<path fill="none" stroke="#000000" d="M310.9022,-317.9749C312.2443,-291.06 314.7855,-240.1015 316.4349,-207.0242"/>
<polygon fill="#000000" stroke="#000000" points="319.934,-207.1282 316.9365,-196.9663 312.9427,-206.7795 319.934,-207.1282"/>
<text text-anchor="middle" x="350" y="-261.8528" font-family="Times,serif" font-size="20.00" fill="#000000">[NA]</text>
<text text-anchor="middle" x="350" y="-239.8528" font-family="Times,serif" font-size="20.00" fill="#000000">nosniff</text>
</g>
<!-- SG_0_Node_17 -->
<g id="node18" class="node">
<title>SG_0_Node_17</title>
<ellipse fill="none" stroke="#000000" cx="65" cy="-37.2132" rx="34.7971" ry="21.4286"/>
<text text-anchor="middle" x="65" y="-32.2132" font-family="Times,serif" font-size="20.00" fill="#000000">0.0</text>
</g>
<!-- SG_0_Node_8&#45;&gt;SG_0_Node_17 -->
<g id="edge15" class="edge">
<title>SG_0_Node_8&#45;&gt;SG_0_Node_17</title>
<path fill="none" stroke="#000000" d="M145.512,-157.6235C127.1914,-148.0161 106.839,-134.5945 93,-117.4264 81.6857,-103.3904 74.7926,-84.4722 70.6781,-68.5334"/>
<polygon fill="#000000" stroke="#000000" points="74.0348,-67.5158 68.357,-58.5708 67.2174,-69.1042 74.0348,-67.5158"/>
<text text-anchor="middle" x="140" y="-101.4264" font-family="Times,serif" font-size="20.00" fill="#000000">text/html</text>
</g>
<!-- SG_0_Node_18 -->
<g id="node19" class="node">
<title>SG_0_Node_18</title>
<ellipse fill="none" stroke="#000000" cx="195" cy="-37.2132" rx="34.7971" ry="21.4286"/>
<text text-anchor="middle" x="195" y="-32.2132" font-family="Times,serif" font-size="20.00" fill="#000000">1.0</text>
</g>
<!-- SG_0_Node_8&#45;&gt;SG_0_Node_18 -->
<g id="edge16" class="edge">
<title>SG_0_Node_8&#45;&gt;SG_0_Node_18</title>
<path fill="none" stroke="#000000" d="M188.9151,-157.5428C190.0537,-135.0281 192.0167,-96.2088 193.4048,-68.7578"/>
<polygon fill="#000000" stroke="#000000" points="196.9144,-68.6557 193.924,-58.4917 189.9233,-68.3022 196.9144,-68.6557"/>
<text text-anchor="middle" x="268" y="-101.4264" font-family="Times,serif" font-size="20.00" fill="#000000">application/pdf</text>
</g>
</g>
</svg>
