<?xml version="1.0" encoding="UTF-8" standalone="no"?>
<!DOCTYPE svg PUBLIC "-//W3C//DTD SVG 1.1//EN"
 "http://www.w3.org/Graphics/SVG/1.1/DTD/svg11.dtd">
<!-- Generated by graphviz version 2.40.1 (20161225.0304)
 -->
<!-- Title: G Pages: 1 -->
<svg width="1266pt" height="2225pt"
 viewBox="0.00 0.00 1266.00 2225.41" xmlns="http://www.w3.org/2000/svg" xmlns:xlink="http://www.w3.org/1999/xlink">
<g id="graph0" class="graph" transform="scale(1 1) rotate(0) translate(4 2221.4113)">
<title>G</title>
<polygon fill="#ffffff" stroke="transparent" points="-4,4 -4,-2221.4113 1262,-2221.4113 1262,4 -4,4"/>
<g id="clust1" class="cluster">
<title>cluster_0</title>
<polygon fill="none" stroke="#000000" points="8,-8 8,-2209.4113 1250,-2209.4113 1250,-8 8,-8"/>
<text text-anchor="middle" x="629" y="-2173.4113" font-family="Times,serif" font-size="40.00" fill="#000000">Tree 0, Class 1</text>
</g>
<!-- SG_0_Node_0 -->
<g id="node1" class="node">
<title>SG_0_Node_0</title>
<polygon fill="none" stroke="#000000" points="800.5,-2149.4113 735.5,-2149.4113 735.5,-2113.4113 800.5,-2113.4113 800.5,-2149.4113"/>
<text text-anchor="middle" x="768" y="-2126.4113" font-family="Times,serif" font-size="20.00" fill="#000000">body</text>
</g>
<!-- SG_0_Node_1 -->
<g id="node2" class="node">
<title>SG_0_Node_1</title>
<polygon fill="none" stroke="#000000" points="708,-1995.4113 566,-1995.4113 566,-1959.4113 708,-1959.4113 708,-1995.4113"/>
<text text-anchor="middle" x="637" y="-1972.4113" font-family="Times,serif" font-size="20.00" fill="#000000">Status&#45;Code</text>
</g>
<!-- SG_0_Node_0&#45;&gt;SG_0_Node_1 -->
<g id="edge1" class="edge">
<title>SG_0_Node_0&#45;&gt;SG_0_Node_1</title>
<path fill="none" stroke="#000000" d="M752.4582,-2113.1407C729.3142,-2085.9333 685.6824,-2034.6409 659.1872,-2003.4939"/>
<polygon fill="#000000" stroke="#000000" points="661.667,-2001.0072 652.5216,-1995.658 656.3351,-2005.5428 661.667,-2001.0072"/>
<text text-anchor="middle" x="766" y="-2060.4113" font-family="Times,serif" font-size="20.00" fill="#000000">[NA]</text>
<text text-anchor="middle" x="766" y="-2038.4113" font-family="Times,serif" font-size="20.00" fill="#000000">11 levels</text>
</g>
<!-- SG_0_Node_2 -->
<g id="node3" class="node">
<title>SG_0_Node_2</title>
<polygon fill="none" stroke="#000000" points="987,-1995.4113 845,-1995.4113 845,-1959.4113 987,-1959.4113 987,-1995.4113"/>
<text text-anchor="middle" x="916" y="-1972.4113" font-family="Times,serif" font-size="20.00" fill="#000000">Status&#45;Code</text>
</g>
<!-- SG_0_Node_0&#45;&gt;SG_0_Node_2 -->
<g id="edge2" class="edge">
<title>SG_0_Node_0&#45;&gt;SG_0_Node_2</title>
<path fill="none" stroke="#000000" d="M785.5587,-2113.1407C811.8173,-2085.8175 861.42,-2034.2039 891.3146,-2003.0974"/>
<polygon fill="#000000" stroke="#000000" points="894.0584,-2005.2934 898.4641,-1995.658 889.0113,-2000.443 894.0584,-2005.2934"/>
<text text-anchor="middle" x="996.5" y="-2049.4113" font-family="Times,serif" font-size="20.00" fill="#000000">ecocnt_audio=duration=1</text>
</g>
<!-- SG_0_Node_18 -->
<g id="node4" class="node">
<title>SG_0_Node_18</title>
<ellipse fill="none" stroke="#000000" cx="509" cy="-1688.1981" rx="34.7971" ry="21.4286"/>
<text text-anchor="middle" x="509" y="-1683.1981" font-family="Times,serif" font-size="20.00" fill="#000000">0.0</text>
</g>
<!-- SG_0_Node_1&#45;&gt;SG_0_Node_18 -->
<g id="edge21" class="edge">
<title>SG_0_Node_1&#45;&gt;SG_0_Node_18</title>
<path fill="none" stroke="#000000" d="M571.6523,-1959.4074C553.3082,-1951.1281 535.3042,-1939.2619 524,-1922.4113 482.4451,-1860.4672 492.6519,-1767.3449 501.8404,-1719.3128"/>
<polygon fill="#000000" stroke="#000000" points="505.2735,-1719.9935 503.8257,-1709.4981 498.4125,-1718.6056 505.2735,-1719.9935"/>
<text text-anchor="middle" x="570" y="-1840.4113" font-family="Times,serif" font-size="20.00" fill="#000000">[NA]</text>
<text text-anchor="middle" x="570" y="-1818.4113" font-family="Times,serif" font-size="20.00" fill="#000000">62 levels</text>
</g>
<!-- SG_0_Node_3 -->
<g id="node5" class="node">
<title>SG_0_Node_3</title>
<polygon fill="none" stroke="#000000" points="648.5,-1706.1981 583.5,-1706.1981 583.5,-1670.1981 648.5,-1670.1981 648.5,-1706.1981"/>
<text text-anchor="middle" x="616" y="-1683.1981" font-family="Times,serif" font-size="20.00" fill="#000000">body</text>
</g>
<!-- SG_0_Node_1&#45;&gt;SG_0_Node_3 -->
<g id="edge22" class="edge">
<title>SG_0_Node_1&#45;&gt;SG_0_Node_3</title>
<path fill="none" stroke="#000000" d="M635.6864,-1959.3197C632.136,-1910.4242 622.3289,-1775.3598 618.0458,-1716.3736"/>
<polygon fill="#000000" stroke="#000000" points="621.5283,-1716.003 617.3131,-1706.2828 614.5466,-1716.51 621.5283,-1716.003"/>
<text text-anchor="middle" x="651.5" y="-1829.4113" font-family="Times,serif" font-size="20.00" fill="#000000">200</text>
</g>
<!-- SG_0_Node_19 -->
<g id="node6" class="node">
<title>SG_0_Node_19</title>
<ellipse fill="none" stroke="#000000" cx="916" cy="-1688.1981" rx="34.7971" ry="21.4286"/>
<text text-anchor="middle" x="916" y="-1683.1981" font-family="Times,serif" font-size="20.00" fill="#000000">0.0</text>
</g>
<!-- SG_0_Node_2&#45;&gt;SG_0_Node_19 -->
<g id="edge3" class="edge">
<title>SG_0_Node_2&#45;&gt;SG_0_Node_19</title>
<path fill="none" stroke="#000000" d="M916,-1959.3197C916,-1911.3727 916,-1780.5675 916,-1719.891"/>
<polygon fill="#000000" stroke="#000000" points="919.5001,-1719.7532 916,-1709.7532 912.5001,-1719.7532 919.5001,-1719.7532"/>
<text text-anchor="middle" x="962" y="-1840.4113" font-family="Times,serif" font-size="20.00" fill="#000000">[NA]</text>
<text text-anchor="middle" x="962" y="-1818.4113" font-family="Times,serif" font-size="20.00" fill="#000000">55 levels</text>
</g>
<!-- SG_0_Node_4 -->
<g id="node7" class="node">
<title>SG_0_Node_4</title>
<polygon fill="none" stroke="#000000" points="1208.5,-1706.1981 1077.5,-1706.1981 1077.5,-1670.1981 1208.5,-1670.1981 1208.5,-1706.1981"/>
<text text-anchor="middle" x="1143" y="-1683.1981" font-family="Times,serif" font-size="20.00" fill="#000000">browser_id</text>
</g>
<!-- SG_0_Node_2&#45;&gt;SG_0_Node_4 -->
<g id="edge4" class="edge">
<title>SG_0_Node_2&#45;&gt;SG_0_Node_4</title>
<path fill="none" stroke="#000000" d="M958.5881,-1959.2956C976.5997,-1950.1401 996.8664,-1937.7015 1012,-1922.4113 1073.5255,-1860.2489 1115.2604,-1763.31 1133.1454,-1716.0248"/>
<polygon fill="#000000" stroke="#000000" points="1136.5001,-1717.0445 1136.6955,-1706.4514 1129.9369,-1714.6106 1136.5001,-1717.0445"/>
<text text-anchor="middle" x="1138.5" y="-1906.4113" font-family="Times,serif" font-size="20.00" fill="#000000">200</text>
<text text-anchor="middle" x="1138.5" y="-1884.4113" font-family="Times,serif" font-size="20.00" fill="#000000">201</text>
<text text-anchor="middle" x="1138.5" y="-1862.4113" font-family="Times,serif" font-size="20.00" fill="#000000">202</text>
<text text-anchor="middle" x="1138.5" y="-1840.4113" font-family="Times,serif" font-size="20.00" fill="#000000">203</text>
<text text-anchor="middle" x="1138.5" y="-1818.4113" font-family="Times,serif" font-size="20.00" fill="#000000">206</text>
<text text-anchor="middle" x="1138.5" y="-1796.4113" font-family="Times,serif" font-size="20.00" fill="#000000">207</text>
<text text-anchor="middle" x="1138.5" y="-1774.4113" font-family="Times,serif" font-size="20.00" fill="#000000">208</text>
<text text-anchor="middle" x="1138.5" y="-1752.4113" font-family="Times,serif" font-size="20.00" fill="#000000">226</text>
</g>
<!-- SG_0_Node_20 -->
<g id="node8" class="node">
<title>SG_0_Node_20</title>
<ellipse fill="none" stroke="#000000" cx="51" cy="-1329.7716" rx="34.7971" ry="21.4286"/>
<text text-anchor="middle" x="51" y="-1324.7716" font-family="Times,serif" font-size="20.00" fill="#000000">0.0</text>
</g>
<!-- SG_0_Node_3&#45;&gt;SG_0_Node_20 -->
<g id="edge23" class="edge">
<title>SG_0_Node_3&#45;&gt;SG_0_Node_20</title>
<path fill="none" stroke="#000000" d="M583.4047,-1675.4794C573.7524,-1672.191 563.0698,-1669.01 553,-1666.9848 497.0824,-1655.739 79.8507,-1671.7445 41,-1629.9848 -28.4834,-1555.299 14.0567,-1419.4681 37.9934,-1359.5399"/>
<polygon fill="#000000" stroke="#000000" points="41.2426,-1360.841 41.7956,-1350.2606 34.7653,-1358.1869 41.2426,-1360.841"/>
<text text-anchor="middle" x="314" y="-1613.9848" font-family="Times,serif" font-size="20.00" fill="#000000">[NA]</text>
<text text-anchor="middle" x="314" y="-1591.9848" font-family="Times,serif" font-size="20.00" fill="#000000">ecocnt_css=h1 {color: blue}</text>
<text text-anchor="middle" x="314" y="-1569.9848" font-family="Times,serif" font-size="20.00" fill="#000000">ecocnt_html=meta_refresh=0;http://172.17.0.1:8000</text>
<text text-anchor="middle" x="314" y="-1547.9848" font-family="Times,serif" font-size="20.00" fill="#000000">ecocnt_html=num_frames=1,input_id=test1</text>
<text text-anchor="middle" x="314" y="-1525.9848" font-family="Times,serif" font-size="20.00" fill="#000000">ecocnt_html=num_frames=2</text>
<text text-anchor="middle" x="314" y="-1503.9848" font-family="Times,serif" font-size="20.00" fill="#000000">ecocnt_html=post_message=mes1</text>
<text text-anchor="middle" x="314" y="-1481.9848" font-family="Times,serif" font-size="20.00" fill="#000000">ecocnt_img=width=50,height=50,type=png</text>
<text text-anchor="middle" x="314" y="-1459.9848" font-family="Times,serif" font-size="20.00" fill="#000000">ecocnt_js=.,,.</text>
<text text-anchor="middle" x="314" y="-1437.9848" font-family="Times,serif" font-size="20.00" fill="#000000">ecocnt_js=var a=5;</text>
<text text-anchor="middle" x="314" y="-1415.9848" font-family="Times,serif" font-size="20.00" fill="#000000">ecocnt_pdf=a=a</text>
<text text-anchor="middle" x="314" y="-1393.9848" font-family="Times,serif" font-size="20.00" fill="#000000">empty</text>
</g>
<!-- SG_0_Node_5 -->
<g id="node9" class="node">
<title>SG_0_Node_5</title>
<polygon fill="none" stroke="#000000" points="745.5,-1347.7716 428.5,-1347.7716 428.5,-1311.7716 745.5,-1311.7716 745.5,-1347.7716"/>
<text text-anchor="middle" x="587" y="-1324.7716" font-family="Times,serif" font-size="20.00" fill="#000000">Cross&#45;Origin&#45;Resource&#45;Policy</text>
</g>
<!-- SG_0_Node_3&#45;&gt;SG_0_Node_5 -->
<g id="edge24" class="edge">
<title>SG_0_Node_3&#45;&gt;SG_0_Node_5</title>
<path fill="none" stroke="#000000" d="M614.522,-1669.9309C609.7999,-1611.568 595.0519,-1429.2899 589.3154,-1358.3889"/>
<polygon fill="#000000" stroke="#000000" points="592.7702,-1357.6872 588.475,-1348.0021 585.793,-1358.2518 592.7702,-1357.6872"/>
<text text-anchor="middle" x="856.5" y="-1503.9848" font-family="Times,serif" font-size="20.00" fill="#000000">ecocnt_vid=width=100,height=100,duration=2</text>
</g>
<!-- SG_0_Node_6 -->
<g id="node10" class="node">
<title>SG_0_Node_6</title>
<polygon fill="none" stroke="#000000" points="906,-1347.7716 764,-1347.7716 764,-1311.7716 906,-1311.7716 906,-1347.7716"/>
<text text-anchor="middle" x="835" y="-1324.7716" font-family="Times,serif" font-size="20.00" fill="#000000">Status&#45;Code</text>
</g>
<!-- SG_0_Node_4&#45;&gt;SG_0_Node_6 -->
<g id="edge5" class="edge">
<title>SG_0_Node_4&#45;&gt;SG_0_Node_6</title>
<path fill="none" stroke="#000000" d="M1141.9889,-1670.0192C1138.3849,-1608.1917 1125.3412,-1408.7235 1106,-1387.9848 1047.3237,-1325.0692 999.8769,-1370.1146 916,-1350.9848 914.9016,-1350.7343 913.7955,-1350.4796 912.6831,-1350.221"/>
<polygon fill="#000000" stroke="#000000" points="913.0815,-1346.718 902.5426,-1347.8048 911.459,-1353.5274 913.0815,-1346.718"/>
<text text-anchor="middle" x="1164" y="-1525.9848" font-family="Times,serif" font-size="20.00" fill="#000000">[NA]</text>
<text text-anchor="middle" x="1164" y="-1503.9848" font-family="Times,serif" font-size="20.00" fill="#000000">2</text>
<text text-anchor="middle" x="1164" y="-1481.9848" font-family="Times,serif" font-size="20.00" fill="#000000">3</text>
</g>
<!-- SG_0_Node_7 -->
<g id="node11" class="node">
<title>SG_0_Node_7</title>
<polygon fill="none" stroke="#000000" points="1241.5,-1347.7716 924.5,-1347.7716 924.5,-1311.7716 1241.5,-1311.7716 1241.5,-1347.7716"/>
<text text-anchor="middle" x="1083" y="-1324.7716" font-family="Times,serif" font-size="20.00" fill="#000000">Cross&#45;Origin&#45;Resource&#45;Policy</text>
</g>
<!-- SG_0_Node_4&#45;&gt;SG_0_Node_7 -->
<g id="edge6" class="edge">
<title>SG_0_Node_4&#45;&gt;SG_0_Node_7</title>
<path fill="none" stroke="#000000" d="M1166.566,-1670.1678C1178.0985,-1659.824 1190.8064,-1645.7689 1197,-1629.9848 1236.288,-1529.8617 1253.157,-1479.7159 1197,-1387.9848 1187.4548,-1372.3929 1172.2719,-1360.8105 1156.0605,-1352.2708"/>
<polygon fill="#000000" stroke="#000000" points="1157.499,-1349.0782 1146.9776,-1347.8334 1154.4263,-1355.3678 1157.499,-1349.0782"/>
<text text-anchor="middle" x="1239.5" y="-1503.9848" font-family="Times,serif" font-size="20.00" fill="#000000">1</text>
</g>
<!-- SG_0_Node_21 -->
<g id="node12" class="node">
<title>SG_0_Node_21</title>
<ellipse fill="none" stroke="#000000" cx="429" cy="-1059.3452" rx="34.7971" ry="21.4286"/>
<text text-anchor="middle" x="429" y="-1054.3452" font-family="Times,serif" font-size="20.00" fill="#000000">0.0</text>
</g>
<!-- SG_0_Node_5&#45;&gt;SG_0_Node_21 -->
<g id="edge25" class="edge">
<title>SG_0_Node_5&#45;&gt;SG_0_Node_21</title>
<path fill="none" stroke="#000000" d="M517.1397,-1311.6592C496.0761,-1302.8719 474.8859,-1290.0602 461,-1271.5584 420.8315,-1218.0374 421.2746,-1135.1627 425.1165,-1090.4645"/>
<polygon fill="#000000" stroke="#000000" points="428.6025,-1090.777 426.0868,-1080.4852 421.6354,-1090.0995 428.6025,-1090.777"/>
<text text-anchor="middle" x="522" y="-1189.5584" font-family="Times,serif" font-size="20.00" fill="#000000">same&#45;origin</text>
</g>
<!-- SG_0_Node_8 -->
<g id="node13" class="node">
<title>SG_0_Node_8</title>
<polygon fill="none" stroke="#000000" points="652.5,-1077.3452 521.5,-1077.3452 521.5,-1041.3452 652.5,-1041.3452 652.5,-1077.3452"/>
<text text-anchor="middle" x="587" y="-1054.3452" font-family="Times,serif" font-size="20.00" fill="#000000">browser_id</text>
</g>
<!-- SG_0_Node_5&#45;&gt;SG_0_Node_8 -->
<g id="edge26" class="edge">
<title>SG_0_Node_5&#45;&gt;SG_0_Node_8</title>
<path fill="none" stroke="#000000" d="M587,-1311.6083C587,-1265.423 587,-1143.2312 587,-1087.6215"/>
<polygon fill="#000000" stroke="#000000" points="590.5001,-1087.4295 587,-1077.4295 583.5001,-1087.4296 590.5001,-1087.4295"/>
<text text-anchor="middle" x="619" y="-1200.5584" font-family="Times,serif" font-size="20.00" fill="#000000">[NA]</text>
<text text-anchor="middle" x="619" y="-1178.5584" font-family="Times,serif" font-size="20.00" fill="#000000">empty</text>
</g>
<!-- SG_0_Node_22 -->
<g id="node14" class="node">
<title>SG_0_Node_22</title>
<ellipse fill="none" stroke="#000000" cx="732" cy="-1059.3452" rx="34.7971" ry="21.4286"/>
<text text-anchor="middle" x="732" y="-1054.3452" font-family="Times,serif" font-size="20.00" fill="#000000">0.0</text>
</g>
<!-- SG_0_Node_6&#45;&gt;SG_0_Node_22 -->
<g id="edge9" class="edge">
<title>SG_0_Node_6&#45;&gt;SG_0_Node_22</title>
<path fill="none" stroke="#000000" d="M821.2791,-1311.6744C813.3466,-1300.5583 803.6513,-1285.7687 797,-1271.5584 768.2383,-1210.11 748.2916,-1132.7977 738.6403,-1090.5138"/>
<polygon fill="#000000" stroke="#000000" points="742.0097,-1089.543 736.4093,-1080.5493 735.1788,-1091.0725 742.0097,-1089.543"/>
<text text-anchor="middle" x="816.5" y="-1255.5584" font-family="Times,serif" font-size="20.00" fill="#000000">201</text>
<text text-anchor="middle" x="816.5" y="-1233.5584" font-family="Times,serif" font-size="20.00" fill="#000000">202</text>
<text text-anchor="middle" x="816.5" y="-1211.5584" font-family="Times,serif" font-size="20.00" fill="#000000">203</text>
<text text-anchor="middle" x="816.5" y="-1189.5584" font-family="Times,serif" font-size="20.00" fill="#000000">206</text>
<text text-anchor="middle" x="816.5" y="-1167.5584" font-family="Times,serif" font-size="20.00" fill="#000000">207</text>
<text text-anchor="middle" x="816.5" y="-1145.5584" font-family="Times,serif" font-size="20.00" fill="#000000">208</text>
<text text-anchor="middle" x="816.5" y="-1123.5584" font-family="Times,serif" font-size="20.00" fill="#000000">226</text>
</g>
<!-- SG_0_Node_9 -->
<g id="node15" class="node">
<title>SG_0_Node_9</title>
<polygon fill="none" stroke="#000000" points="939.5,-1077.3452 784.5,-1077.3452 784.5,-1041.3452 939.5,-1041.3452 939.5,-1077.3452"/>
<text text-anchor="middle" x="862" y="-1054.3452" font-family="Times,serif" font-size="20.00" fill="#000000">Content&#45;Type</text>
</g>
<!-- SG_0_Node_6&#45;&gt;SG_0_Node_9 -->
<g id="edge10" class="edge">
<title>SG_0_Node_6&#45;&gt;SG_0_Node_9</title>
<path fill="none" stroke="#000000" d="M836.8135,-1311.6083C841.4247,-1265.423 853.6246,-1143.2312 859.1768,-1087.6215"/>
<polygon fill="#000000" stroke="#000000" points="862.6835,-1087.7278 860.1944,-1077.4295 855.7182,-1087.0323 862.6835,-1087.7278"/>
<text text-anchor="middle" x="875.5" y="-1189.5584" font-family="Times,serif" font-size="20.00" fill="#000000">200</text>
</g>
<!-- SG_0_Node_23 -->
<g id="node16" class="node">
<title>SG_0_Node_23</title>
<ellipse fill="none" stroke="#000000" cx="1006" cy="-1059.3452" rx="34.7971" ry="21.4286"/>
<text text-anchor="middle" x="1006" y="-1054.3452" font-family="Times,serif" font-size="20.00" fill="#000000">0.0</text>
</g>
<!-- SG_0_Node_7&#45;&gt;SG_0_Node_23 -->
<g id="edge7" class="edge">
<title>SG_0_Node_7&#45;&gt;SG_0_Node_23</title>
<path fill="none" stroke="#000000" d="M1055.0688,-1311.5943C1042.0223,-1301.4844 1027.6984,-1287.6855 1020,-1271.5584 991.8463,-1212.5805 995.9313,-1133.711 1001.1336,-1090.6503"/>
<polygon fill="#000000" stroke="#000000" points="1004.6336,-1090.8778 1002.4613,-1080.508 997.6928,-1089.9691 1004.6336,-1090.8778"/>
<text text-anchor="middle" x="1081" y="-1189.5584" font-family="Times,serif" font-size="20.00" fill="#000000">same&#45;origin</text>
</g>
<!-- SG_0_Node_24 -->
<g id="node17" class="node">
<title>SG_0_Node_24</title>
<ellipse fill="none" stroke="#000000" cx="1164" cy="-1059.3452" rx="34.7971" ry="21.4286"/>
<text text-anchor="middle" x="1164" y="-1054.3452" font-family="Times,serif" font-size="20.00" fill="#000000">1.0</text>
</g>
<!-- SG_0_Node_7&#45;&gt;SG_0_Node_24 -->
<g id="edge8" class="edge">
<title>SG_0_Node_7&#45;&gt;SG_0_Node_24</title>
<path fill="none" stroke="#000000" d="M1108.3261,-1311.6276C1120.6445,-1301.3463 1134.4003,-1287.3836 1142,-1271.5584 1170.3073,-1212.613 1170.0351,-1134.0465 1167.1388,-1090.9524"/>
<polygon fill="#000000" stroke="#000000" points="1170.6144,-1090.498 1166.3618,-1080.7941 1163.6348,-1091.0319 1170.6144,-1090.498"/>
<text text-anchor="middle" x="1200" y="-1200.5584" font-family="Times,serif" font-size="20.00" fill="#000000">[NA]</text>
<text text-anchor="middle" x="1200" y="-1178.5584" font-family="Times,serif" font-size="20.00" fill="#000000">empty</text>
</g>
<!-- SG_0_Node_25 -->
<g id="node18" class="node">
<title>SG_0_Node_25</title>
<ellipse fill="none" stroke="#000000" cx="475" cy="-788.9188" rx="34.7971" ry="21.4286"/>
<text text-anchor="middle" x="475" y="-783.9188" font-family="Times,serif" font-size="20.00" fill="#000000">0.0</text>
</g>
<!-- SG_0_Node_8&#45;&gt;SG_0_Node_25 -->
<g id="edge27" class="edge">
<title>SG_0_Node_8&#45;&gt;SG_0_Node_25</title>
<path fill="none" stroke="#000000" d="M579.4775,-1041.1819C560.5537,-995.49 510.8199,-875.4067 487.4583,-818.9998"/>
<polygon fill="#000000" stroke="#000000" points="490.6081,-817.4578 483.548,-809.5581 484.1408,-820.1363 490.6081,-817.4578"/>
<text text-anchor="middle" x="568.5" y="-919.132" font-family="Times,serif" font-size="20.00" fill="#000000">1</text>
</g>
<!-- SG_0_Node_10 -->
<g id="node19" class="node">
<title>SG_0_Node_10</title>
<polygon fill="none" stroke="#000000" points="682.5,-806.9188 527.5,-806.9188 527.5,-770.9188 682.5,-770.9188 682.5,-806.9188"/>
<text text-anchor="middle" x="605" y="-783.9188" font-family="Times,serif" font-size="20.00" fill="#000000">Content&#45;Type</text>
</g>
<!-- SG_0_Node_8&#45;&gt;SG_0_Node_10 -->
<g id="edge28" class="edge">
<title>SG_0_Node_8&#45;&gt;SG_0_Node_10</title>
<path fill="none" stroke="#000000" d="M588.209,-1041.1819C591.2831,-994.9966 599.4164,-872.8048 603.1179,-817.1951"/>
<polygon fill="#000000" stroke="#000000" points="606.6243,-817.2135 603.7963,-807.0031 599.6398,-816.7486 606.6243,-817.2135"/>
<text text-anchor="middle" x="626" y="-941.132" font-family="Times,serif" font-size="20.00" fill="#000000">[NA]</text>
<text text-anchor="middle" x="626" y="-919.132" font-family="Times,serif" font-size="20.00" fill="#000000">2</text>
<text text-anchor="middle" x="626" y="-897.132" font-family="Times,serif" font-size="20.00" fill="#000000">3</text>
</g>
<!-- SG_0_Node_26 -->
<g id="node20" class="node">
<title>SG_0_Node_26</title>
<ellipse fill="none" stroke="#000000" cx="740" cy="-788.9188" rx="34.7971" ry="21.4286"/>
<text text-anchor="middle" x="740" y="-783.9188" font-family="Times,serif" font-size="20.00" fill="#000000">0.0</text>
</g>
<!-- SG_0_Node_9&#45;&gt;SG_0_Node_26 -->
<g id="edge11" class="edge">
<title>SG_0_Node_9&#45;&gt;SG_0_Node_26</title>
<path fill="none" stroke="#000000" d="M804.5242,-1041.3352C785.2763,-1032.3641 765.7453,-1019.4099 754,-1001.132 718.2431,-945.4876 725.6734,-863.8054 733.3584,-819.7729"/>
<polygon fill="#000000" stroke="#000000" points="736.7993,-820.4134 735.1895,-809.9416 729.9176,-819.1317 736.7993,-820.4134"/>
<text text-anchor="middle" x="865" y="-985.132" font-family="Times,serif" font-size="20.00" fill="#000000">[NA]</text>
<text text-anchor="middle" x="865" y="-963.132" font-family="Times,serif" font-size="20.00" fill="#000000">application/javascript</text>
<text text-anchor="middle" x="865" y="-941.132" font-family="Times,serif" font-size="20.00" fill="#000000">application/pdf</text>
<text text-anchor="middle" x="865" y="-919.132" font-family="Times,serif" font-size="20.00" fill="#000000">audio/wav</text>
<text text-anchor="middle" x="865" y="-897.132" font-family="Times,serif" font-size="20.00" fill="#000000">empty</text>
<text text-anchor="middle" x="865" y="-875.132" font-family="Times,serif" font-size="20.00" fill="#000000">image/png</text>
<text text-anchor="middle" x="865" y="-853.132" font-family="Times,serif" font-size="20.00" fill="#000000">text/html</text>
</g>
<!-- SG_0_Node_11 -->
<g id="node21" class="node">
<title>SG_0_Node_11</title>
<polygon fill="none" stroke="#000000" points="1093.5,-806.9188 902.5,-806.9188 902.5,-770.9188 1093.5,-770.9188 1093.5,-806.9188"/>
<text text-anchor="middle" x="998" y="-783.9188" font-family="Times,serif" font-size="20.00" fill="#000000">X&#45;Frame&#45;Options</text>
</g>
<!-- SG_0_Node_9&#45;&gt;SG_0_Node_11 -->
<g id="edge12" class="edge">
<title>SG_0_Node_9&#45;&gt;SG_0_Node_11</title>
<path fill="none" stroke="#000000" d="M923.4061,-1041.259C943.2902,-1032.3529 963.434,-1019.4609 976,-1001.132 1014.408,-945.1098 1009.0793,-860.4562 1002.9654,-816.9365"/>
<polygon fill="#000000" stroke="#000000" points="1006.4256,-816.4093 1001.4612,-807.0496 999.5053,-817.4623 1006.4256,-816.4093"/>
<text text-anchor="middle" x="1060.5" y="-930.132" font-family="Times,serif" font-size="20.00" fill="#000000">text/css</text>
<text text-anchor="middle" x="1060.5" y="-908.132" font-family="Times,serif" font-size="20.00" fill="#000000">video/mp4</text>
</g>
<!-- SG_0_Node_12 -->
<g id="node22" class="node">
<title>SG_0_Node_12</title>
<polygon fill="none" stroke="#000000" points="568,-536.4924 306,-536.4924 306,-500.4924 568,-500.4924 568,-536.4924"/>
<text text-anchor="middle" x="437" y="-513.4924" font-family="Times,serif" font-size="20.00" fill="#000000">X&#45;Content&#45;Type&#45;Options</text>
</g>
<!-- SG_0_Node_10&#45;&gt;SG_0_Node_12 -->
<g id="edge29" class="edge">
<title>SG_0_Node_10&#45;&gt;SG_0_Node_12</title>
<path fill="none" stroke="#000000" d="M536.1672,-770.836C500.3896,-759.9573 461.8896,-745.404 451,-730.7056 410.5918,-676.1642 421.0004,-590.5174 430.0786,-546.5686"/>
<polygon fill="#000000" stroke="#000000" points="433.5437,-547.1064 432.2678,-536.5887 426.7063,-545.6065 433.5437,-547.1064"/>
<text text-anchor="middle" x="528" y="-659.7056" font-family="Times,serif" font-size="20.00" fill="#000000">application/pdf</text>
<text text-anchor="middle" x="528" y="-637.7056" font-family="Times,serif" font-size="20.00" fill="#000000">text/html</text>
</g>
<!-- SG_0_Node_27 -->
<g id="node23" class="node">
<title>SG_0_Node_27</title>
<ellipse fill="none" stroke="#000000" cx="627" cy="-518.4924" rx="34.7971" ry="21.4286"/>
<text text-anchor="middle" x="627" y="-513.4924" font-family="Times,serif" font-size="20.00" fill="#000000">1.0</text>
</g>
<!-- SG_0_Node_10&#45;&gt;SG_0_Node_27 -->
<g id="edge30" class="edge">
<title>SG_0_Node_10&#45;&gt;SG_0_Node_27</title>
<path fill="none" stroke="#000000" d="M606.4776,-770.7555C610.1613,-725.4753 619.7884,-607.1382 624.4275,-550.1135"/>
<polygon fill="#000000" stroke="#000000" points="627.9369,-550.1389 625.2594,-539.888 620.96,-549.5712 627.9369,-550.1389"/>
<text text-anchor="middle" x="733" y="-714.7056" font-family="Times,serif" font-size="20.00" fill="#000000">[NA]</text>
<text text-anchor="middle" x="733" y="-692.7056" font-family="Times,serif" font-size="20.00" fill="#000000">application/javascript</text>
<text text-anchor="middle" x="733" y="-670.7056" font-family="Times,serif" font-size="20.00" fill="#000000">audio/wav</text>
<text text-anchor="middle" x="733" y="-648.7056" font-family="Times,serif" font-size="20.00" fill="#000000">empty</text>
<text text-anchor="middle" x="733" y="-626.7056" font-family="Times,serif" font-size="20.00" fill="#000000">image/png</text>
<text text-anchor="middle" x="733" y="-604.7056" font-family="Times,serif" font-size="20.00" fill="#000000">text/css</text>
<text text-anchor="middle" x="733" y="-582.7056" font-family="Times,serif" font-size="20.00" fill="#000000">video/mp4</text>
</g>
<!-- SG_0_Node_28 -->
<g id="node24" class="node">
<title>SG_0_Node_28</title>
<ellipse fill="none" stroke="#000000" cx="796" cy="-518.4924" rx="34.7971" ry="21.4286"/>
<text text-anchor="middle" x="796" y="-513.4924" font-family="Times,serif" font-size="20.00" fill="#000000">0.0</text>
</g>
<!-- SG_0_Node_11&#45;&gt;SG_0_Node_28 -->
<g id="edge13" class="edge">
<title>SG_0_Node_11&#45;&gt;SG_0_Node_28</title>
<path fill="none" stroke="#000000" d="M980.3362,-770.7028C969.8754,-759.5446 956.6321,-744.7524 946,-730.7056 897.0379,-666.0184 896.9621,-641.3929 848,-576.7056 839.6751,-565.7071 829.7494,-554.2516 820.812,-544.4413"/>
<polygon fill="#000000" stroke="#000000" points="823.2627,-541.9363 813.9057,-536.9666 818.1213,-546.6867 823.2627,-541.9363"/>
<text text-anchor="middle" x="970.5" y="-648.7056" font-family="Times,serif" font-size="20.00" fill="#000000">deny</text>
</g>
<!-- SG_0_Node_13 -->
<g id="node25" class="node">
<title>SG_0_Node_13</title>
<polygon fill="none" stroke="#000000" points="1165.5,-536.4924 848.5,-536.4924 848.5,-500.4924 1165.5,-500.4924 1165.5,-536.4924"/>
<text text-anchor="middle" x="1007" y="-513.4924" font-family="Times,serif" font-size="20.00" fill="#000000">Cross&#45;Origin&#45;Resource&#45;Policy</text>
</g>
<!-- SG_0_Node_11&#45;&gt;SG_0_Node_13 -->
<g id="edge14" class="edge">
<title>SG_0_Node_11&#45;&gt;SG_0_Node_13</title>
<path fill="none" stroke="#000000" d="M998.6045,-770.7555C1000.1416,-724.5702 1004.2082,-602.3784 1006.0589,-546.7687"/>
<polygon fill="#000000" stroke="#000000" points="1009.5635,-546.6876 1006.3981,-536.5767 1002.5674,-546.4547 1009.5635,-546.6876"/>
<text text-anchor="middle" x="1037" y="-659.7056" font-family="Times,serif" font-size="20.00" fill="#000000">[NA]</text>
<text text-anchor="middle" x="1037" y="-637.7056" font-family="Times,serif" font-size="20.00" fill="#000000">empty</text>
</g>
<!-- SG_0_Node_29 -->
<g id="node26" class="node">
<title>SG_0_Node_29</title>
<ellipse fill="none" stroke="#000000" cx="375" cy="-358.066" rx="34.7971" ry="21.4286"/>
<text text-anchor="middle" x="375" y="-353.066" font-family="Times,serif" font-size="20.00" fill="#000000">0.0</text>
</g>
<!-- SG_0_Node_12&#45;&gt;SG_0_Node_29 -->
<g id="edge31" class="edge">
<title>SG_0_Node_12&#45;&gt;SG_0_Node_29</title>
<path fill="none" stroke="#000000" d="M423.8089,-500.4019C416.2257,-489.2882 407.0365,-474.4987 401,-460.2792 391.2675,-437.3537 384.5373,-409.9345 380.3665,-389.2689"/>
<polygon fill="#000000" stroke="#000000" points="383.799,-388.5839 378.4696,-379.4271 376.9255,-389.9088 383.799,-388.5839"/>
<text text-anchor="middle" x="436" y="-433.2792" font-family="Times,serif" font-size="20.00" fill="#000000">nosniff</text>
</g>
<!-- SG_0_Node_14 -->
<g id="node27" class="node">
<title>SG_0_Node_14</title>
<polygon fill="none" stroke="#000000" points="582.5,-376.066 427.5,-376.066 427.5,-340.066 582.5,-340.066 582.5,-376.066"/>
<text text-anchor="middle" x="505" y="-353.066" font-family="Times,serif" font-size="20.00" fill="#000000">Content&#45;Type</text>
</g>
<!-- SG_0_Node_12&#45;&gt;SG_0_Node_14 -->
<g id="edge32" class="edge">
<title>SG_0_Node_12&#45;&gt;SG_0_Node_14</title>
<path fill="none" stroke="#000000" d="M448.882,-500.4004C455.925,-489.1644 464.68,-474.2483 471,-460.2792 482.013,-435.9373 491.3228,-406.9315 497.4006,-386.0481"/>
<polygon fill="#000000" stroke="#000000" points="500.8265,-386.7968 500.197,-376.2206 494.0937,-384.8809 500.8265,-386.7968"/>
<text text-anchor="middle" x="519" y="-444.2792" font-family="Times,serif" font-size="20.00" fill="#000000">[NA]</text>
<text text-anchor="middle" x="519" y="-422.2792" font-family="Times,serif" font-size="20.00" fill="#000000">empty</text>
</g>
<!-- SG_0_Node_30 -->
<g id="node28" class="node">
<title>SG_0_Node_30</title>
<ellipse fill="none" stroke="#000000" cx="805" cy="-358.066" rx="34.7971" ry="21.4286"/>
<text text-anchor="middle" x="805" y="-353.066" font-family="Times,serif" font-size="20.00" fill="#000000">0.0</text>
</g>
<!-- SG_0_Node_13&#45;&gt;SG_0_Node_30 -->
<g id="edge15" class="edge">
<title>SG_0_Node_13&#45;&gt;SG_0_Node_30</title>
<path fill="none" stroke="#000000" d="M953.075,-500.4888C929.4025,-490.9177 902.23,-477.5216 881,-460.2792 855.9564,-439.9396 834.7732,-409.5844 821.1844,-387.2362"/>
<polygon fill="#000000" stroke="#000000" points="824.1183,-385.3216 816.01,-378.502 818.0958,-388.8895 824.1183,-385.3216"/>
<text text-anchor="middle" x="942" y="-433.2792" font-family="Times,serif" font-size="20.00" fill="#000000">same&#45;origin</text>
</g>
<!-- SG_0_Node_15 -->
<g id="node29" class="node">
<title>SG_0_Node_15</title>
<polygon fill="none" stroke="#000000" points="1156,-376.066 858,-376.066 858,-340.066 1156,-340.066 1156,-376.066"/>
<text text-anchor="middle" x="1007" y="-353.066" font-family="Times,serif" font-size="20.00" fill="#000000">Cross&#45;Origin&#45;Opener&#45;Policy</text>
</g>
<!-- SG_0_Node_13&#45;&gt;SG_0_Node_15 -->
<g id="edge16" class="edge">
<title>SG_0_Node_13&#45;&gt;SG_0_Node_15</title>
<path fill="none" stroke="#000000" d="M1007,-500.4013C1007,-472.7194 1007,-419.6042 1007,-386.6675"/>
<polygon fill="#000000" stroke="#000000" points="1010.5001,-386.3371 1007,-376.3371 1003.5001,-386.3372 1010.5001,-386.3371"/>
<text text-anchor="middle" x="1039" y="-444.2792" font-family="Times,serif" font-size="20.00" fill="#000000">[NA]</text>
<text text-anchor="middle" x="1039" y="-422.2792" font-family="Times,serif" font-size="20.00" fill="#000000">empty</text>
</g>
<!-- SG_0_Node_31 -->
<g id="node30" class="node">
<title>SG_0_Node_31</title>
<ellipse fill="none" stroke="#000000" cx="410" cy="-197.6396" rx="34.7971" ry="21.4286"/>
<text text-anchor="middle" x="410" y="-192.6396" font-family="Times,serif" font-size="20.00" fill="#000000">0.0</text>
</g>
<!-- SG_0_Node_14&#45;&gt;SG_0_Node_31 -->
<g id="edge33" class="edge">
<title>SG_0_Node_14&#45;&gt;SG_0_Node_31</title>
<path fill="none" stroke="#000000" d="M467.2802,-339.8151C451.3581,-330.1603 434.1819,-316.7665 424,-299.8528 411.277,-278.718 408.1918,-250.7385 408.0567,-229.397"/>
<polygon fill="#000000" stroke="#000000" points="411.559,-229.2647 408.2086,-219.2136 404.5598,-229.1602 411.559,-229.2647"/>
<text text-anchor="middle" x="501" y="-272.8528" font-family="Times,serif" font-size="20.00" fill="#000000">application/pdf</text>
</g>
<!-- SG_0_Node_32 -->
<g id="node31" class="node">
<title>SG_0_Node_32</title>
<ellipse fill="none" stroke="#000000" cx="600" cy="-197.6396" rx="34.7971" ry="21.4286"/>
<text text-anchor="middle" x="600" y="-192.6396" font-family="Times,serif" font-size="20.00" fill="#000000">1.0</text>
</g>
<!-- SG_0_Node_14&#45;&gt;SG_0_Node_32 -->
<g id="edge34" class="edge">
<title>SG_0_Node_14&#45;&gt;SG_0_Node_32</title>
<path fill="none" stroke="#000000" d="M536.6127,-339.982C551.3502,-329.9807 567.8385,-316.2491 578,-299.8528 591.1698,-278.6024 596.5366,-250.6318 598.6846,-229.3231"/>
<polygon fill="#000000" stroke="#000000" points="602.1891,-229.4108 599.5197,-219.1577 595.2126,-228.8375 602.1891,-229.4108"/>
<text text-anchor="middle" x="641" y="-272.8528" font-family="Times,serif" font-size="20.00" fill="#000000">text/html</text>
</g>
<!-- SG_0_Node_33 -->
<g id="node32" class="node">
<title>SG_0_Node_33</title>
<ellipse fill="none" stroke="#000000" cx="904" cy="-197.6396" rx="34.7971" ry="21.4286"/>
<text text-anchor="middle" x="904" y="-192.6396" font-family="Times,serif" font-size="20.00" fill="#000000">0.0</text>
</g>
<!-- SG_0_Node_15&#45;&gt;SG_0_Node_33 -->
<g id="edge17" class="edge">
<title>SG_0_Node_15&#45;&gt;SG_0_Node_33</title>
<path fill="none" stroke="#000000" d="M979.7017,-340.0613C965.8526,-329.7248 949.7354,-315.6684 939,-299.8528 924.4248,-278.3804 915.3808,-250.2614 910.1466,-228.9524"/>
<polygon fill="#000000" stroke="#000000" points="913.5319,-228.0563 907.8756,-219.0977 906.7107,-229.6283 913.5319,-228.0563"/>
<text text-anchor="middle" x="971" y="-272.8528" font-family="Times,serif" font-size="20.00" fill="#000000">empty</text>
</g>
<!-- SG_0_Node_16 -->
<g id="node33" class="node">
<title>SG_0_Node_16</title>
<polygon fill="none" stroke="#000000" points="1061.5,-215.6396 956.5,-215.6396 956.5,-179.6396 1061.5,-179.6396 1061.5,-215.6396"/>
<text text-anchor="middle" x="1009" y="-192.6396" font-family="Times,serif" font-size="20.00" fill="#000000">Location</text>
</g>
<!-- SG_0_Node_15&#45;&gt;SG_0_Node_16 -->
<g id="edge18" class="edge">
<title>SG_0_Node_15&#45;&gt;SG_0_Node_16</title>
<path fill="none" stroke="#000000" d="M1007.2255,-339.9749C1007.5706,-312.293 1008.2328,-259.1778 1008.6434,-226.2411"/>
<polygon fill="#000000" stroke="#000000" points="1012.1472,-225.9536 1008.7722,-215.9107 1005.1477,-225.8663 1012.1472,-225.9536"/>
<text text-anchor="middle" x="1069" y="-283.8528" font-family="Times,serif" font-size="20.00" fill="#000000">[NA]</text>
<text text-anchor="middle" x="1069" y="-261.8528" font-family="Times,serif" font-size="20.00" fill="#000000">same&#45;origin</text>
</g>
<!-- SG_0_Node_34 -->
<g id="node34" class="node">
<title>SG_0_Node_34</title>
<ellipse fill="none" stroke="#000000" cx="908" cy="-37.2132" rx="34.7971" ry="21.4286"/>
<text text-anchor="middle" x="908" y="-32.2132" font-family="Times,serif" font-size="20.00" fill="#000000">0.0</text>
</g>
<!-- SG_0_Node_16&#45;&gt;SG_0_Node_34 -->
<g id="edge19" class="edge">
<title>SG_0_Node_16&#45;&gt;SG_0_Node_34</title>
<path fill="none" stroke="#000000" d="M982.0549,-179.5956C968.3958,-169.2479 952.5179,-155.1935 942,-139.4264 927.6409,-117.9012 918.8715,-89.7864 913.844,-68.4926"/>
<polygon fill="#000000" stroke="#000000" points="917.2435,-67.6553 911.6685,-58.6459 910.4084,-69.1655 917.2435,-67.6553"/>
<text text-anchor="middle" x="974" y="-112.4264" font-family="Times,serif" font-size="20.00" fill="#000000">empty</text>
</g>
<!-- SG_0_Node_35 -->
<g id="node35" class="node">
<title>SG_0_Node_35</title>
<ellipse fill="none" stroke="#000000" cx="1013" cy="-37.2132" rx="52.1524" ry="21.4286"/>
<text text-anchor="middle" x="1013" y="-32.2132" font-family="Times,serif" font-size="20.00" fill="#000000">0.125</text>
</g>
<!-- SG_0_Node_16&#45;&gt;SG_0_Node_35 -->
<g id="edge20" class="edge">
<title>SG_0_Node_16&#45;&gt;SG_0_Node_35</title>
<path fill="none" stroke="#000000" d="M1009.4511,-179.5485C1010.1222,-152.6336 1011.3927,-101.6751 1012.2175,-68.5978"/>
<polygon fill="#000000" stroke="#000000" points="1015.7178,-68.6241 1012.4682,-58.5399 1008.72,-68.4495 1015.7178,-68.6241"/>
<text text-anchor="middle" x="1126" y="-123.4264" font-family="Times,serif" font-size="20.00" fill="#000000">[NA]</text>
<text text-anchor="middle" x="1126" y="-101.4264" font-family="Times,serif" font-size="20.00" fill="#000000">http://172.17.0.1:8000</text>
</g>
</g>
</svg>
