<?xml version="1.0" encoding="UTF-8" standalone="no"?>
<!DOCTYPE svg PUBLIC "-//W3C//DTD SVG 1.1//EN"
 "http://www.w3.org/Graphics/SVG/1.1/DTD/svg11.dtd">
<!-- Generated by graphviz version 2.40.1 (20161225.0304)
 -->
<!-- Title: G Pages: 1 -->
<svg width="1348pt" height="1785pt"
 viewBox="0.00 0.00 1348.00 1785.41" xmlns="http://www.w3.org/2000/svg" xmlns:xlink="http://www.w3.org/1999/xlink">
<g id="graph0" class="graph" transform="scale(1 1) rotate(0) translate(4 1781.4113)">
<title>G</title>
<polygon fill="#ffffff" stroke="transparent" points="-4,4 -4,-1781.4113 1344,-1781.4113 1344,4 -4,4"/>
<g id="clust1" class="cluster">
<title>cluster_0</title>
<polygon fill="none" stroke="#000000" points="8,-8 8,-1769.4113 1332,-1769.4113 1332,-8 8,-8"/>
<text text-anchor="middle" x="670" y="-1733.4113" font-family="Times,serif" font-size="40.00" fill="#000000">Tree 0, Class [&#39;Message: mes1 Origin: https://172.17.0.1:44300&#39;]</text>
</g>
<!-- SG_0_Node_0 -->
<g id="node1" class="node">
<title>SG_0_Node_0</title>
<polygon fill="none" stroke="#000000" points="211.5,-1709.4113 146.5,-1709.4113 146.5,-1673.4113 211.5,-1673.4113 211.5,-1709.4113"/>
<text text-anchor="middle" x="179" y="-1686.4113" font-family="Times,serif" font-size="20.00" fill="#000000">body</text>
</g>
<!-- SG_0_Node_11 -->
<g id="node2" class="node">
<title>SG_0_Node_11</title>
<ellipse fill="none" stroke="#000000" cx="115" cy="-1534.1981" rx="34.7971" ry="21.4286"/>
<text text-anchor="middle" x="115" y="-1529.1981" font-family="Times,serif" font-size="20.00" fill="#000000">0.0</text>
</g>
<!-- SG_0_Node_0&#45;&gt;SG_0_Node_11 -->
<g id="edge1" class="edge">
<title>SG_0_Node_0&#45;&gt;SG_0_Node_11</title>
<path fill="none" stroke="#000000" d="M157.7021,-1673.1101C147.6635,-1663.271 136.4912,-1650.3169 130,-1636.4113 119.6634,-1614.268 116.0807,-1586.7418 114.9906,-1565.8349"/>
<polygon fill="#000000" stroke="#000000" points="118.4788,-1565.4381 114.6252,-1555.5689 111.4832,-1565.6871 118.4788,-1565.4381"/>
<text text-anchor="middle" x="176" y="-1620.4113" font-family="Times,serif" font-size="20.00" fill="#000000">[NA]</text>
<text text-anchor="middle" x="176" y="-1598.4113" font-family="Times,serif" font-size="20.00" fill="#000000">11 levels</text>
</g>
<!-- SG_0_Node_1 -->
<g id="node3" class="node">
<title>SG_0_Node_1</title>
<polygon fill="none" stroke="#000000" points="322.5,-1552.1981 167.5,-1552.1981 167.5,-1516.1981 322.5,-1516.1981 322.5,-1552.1981"/>
<text text-anchor="middle" x="245" y="-1529.1981" font-family="Times,serif" font-size="20.00" fill="#000000">Content&#45;Type</text>
</g>
<!-- SG_0_Node_0&#45;&gt;SG_0_Node_1 -->
<g id="edge2" class="edge">
<title>SG_0_Node_0&#45;&gt;SG_0_Node_1</title>
<path fill="none" stroke="#000000" d="M196.8067,-1672.963C205.6064,-1662.8919 215.6689,-1649.7744 222,-1636.4113 233.1923,-1612.7874 239.0668,-1583.4737 242.0668,-1562.3044"/>
<polygon fill="#000000" stroke="#000000" points="245.5441,-1562.7047 243.3531,-1552.3389 238.6017,-1561.8086 245.5441,-1562.7047"/>
<text text-anchor="middle" x="415" y="-1609.4113" font-family="Times,serif" font-size="20.00" fill="#000000">ecocnt_html=post_message=mes1</text>
</g>
<!-- SG_0_Node_12 -->
<g id="node4" class="node">
<title>SG_0_Node_12</title>
<ellipse fill="none" stroke="#000000" cx="77" cy="-1263.7716" rx="34.7971" ry="21.4286"/>
<text text-anchor="middle" x="77" y="-1258.7716" font-family="Times,serif" font-size="20.00" fill="#000000">0.0</text>
</g>
<!-- SG_0_Node_1&#45;&gt;SG_0_Node_12 -->
<g id="edge3" class="edge">
<title>SG_0_Node_1&#45;&gt;SG_0_Node_12</title>
<path fill="none" stroke="#000000" d="M181.7587,-1516.1363C136.8906,-1502.6864 83.5114,-1485.1323 77,-1475.9848 38.5465,-1421.9638 54.1624,-1339.0094 66.8275,-1294.5062"/>
<polygon fill="#000000" stroke="#000000" points="70.2068,-1295.4212 69.7065,-1284.8382 63.498,-1293.4234 70.2068,-1295.4212"/>
<text text-anchor="middle" x="188" y="-1459.9848" font-family="Times,serif" font-size="20.00" fill="#000000">[NA]</text>
<text text-anchor="middle" x="188" y="-1437.9848" font-family="Times,serif" font-size="20.00" fill="#000000">application/javascript</text>
<text text-anchor="middle" x="188" y="-1415.9848" font-family="Times,serif" font-size="20.00" fill="#000000">application/pdf</text>
<text text-anchor="middle" x="188" y="-1393.9848" font-family="Times,serif" font-size="20.00" fill="#000000">audio/wav</text>
<text text-anchor="middle" x="188" y="-1371.9848" font-family="Times,serif" font-size="20.00" fill="#000000">image/png</text>
<text text-anchor="middle" x="188" y="-1349.9848" font-family="Times,serif" font-size="20.00" fill="#000000">text/css</text>
<text text-anchor="middle" x="188" y="-1327.9848" font-family="Times,serif" font-size="20.00" fill="#000000">video/mp4</text>
</g>
<!-- SG_0_Node_2 -->
<g id="node5" class="node">
<title>SG_0_Node_2</title>
<polygon fill="none" stroke="#000000" points="445.5,-1281.7716 224.5,-1281.7716 224.5,-1245.7716 445.5,-1245.7716 445.5,-1281.7716"/>
<text text-anchor="middle" x="335" y="-1258.7716" font-family="Times,serif" font-size="20.00" fill="#000000">Content&#45;Disposition</text>
</g>
<!-- SG_0_Node_1&#45;&gt;SG_0_Node_2 -->
<g id="edge4" class="edge">
<title>SG_0_Node_1&#45;&gt;SG_0_Node_2</title>
<path fill="none" stroke="#000000" d="M269.3062,-1516.077C281.4082,-1505.7075 295.1058,-1491.6568 303,-1475.9848 333.376,-1415.6806 336.7815,-1334.4088 336.1793,-1292.0762"/>
<polygon fill="#000000" stroke="#000000" points="339.6754,-1291.8626 335.946,-1281.9458 332.6772,-1292.0238 339.6754,-1291.8626"/>
<text text-anchor="middle" x="382" y="-1404.9848" font-family="Times,serif" font-size="20.00" fill="#000000">empty</text>
<text text-anchor="middle" x="382" y="-1382.9848" font-family="Times,serif" font-size="20.00" fill="#000000">text/html</text>
</g>
<!-- SG_0_Node_13 -->
<g id="node6" class="node">
<title>SG_0_Node_13</title>
<ellipse fill="none" stroke="#000000" cx="192" cy="-1103.3452" rx="34.7971" ry="21.4286"/>
<text text-anchor="middle" x="192" y="-1098.3452" font-family="Times,serif" font-size="20.00" fill="#000000">0.0</text>
</g>
<!-- SG_0_Node_2&#45;&gt;SG_0_Node_13 -->
<g id="edge5" class="edge">
<title>SG_0_Node_2&#45;&gt;SG_0_Node_13</title>
<path fill="none" stroke="#000000" d="M289.7621,-1245.6822C270.5049,-1236.1277 249.0611,-1222.7686 234,-1205.5584 216.2214,-1185.243 205.2978,-1156.379 199.0648,-1134.502"/>
<polygon fill="#000000" stroke="#000000" points="202.4079,-1133.4549 196.4477,-1124.6955 195.6446,-1135.2598 202.4079,-1133.4549"/>
<text text-anchor="middle" x="293" y="-1178.5584" font-family="Times,serif" font-size="20.00" fill="#000000">attachment</text>
</g>
<!-- SG_0_Node_3 -->
<g id="node7" class="node">
<title>SG_0_Node_3</title>
<polygon fill="none" stroke="#000000" points="543,-1121.3452 245,-1121.3452 245,-1085.3452 543,-1085.3452 543,-1121.3452"/>
<text text-anchor="middle" x="394" y="-1098.3452" font-family="Times,serif" font-size="20.00" fill="#000000">Cross&#45;Origin&#45;Opener&#45;Policy</text>
</g>
<!-- SG_0_Node_2&#45;&gt;SG_0_Node_3 -->
<g id="edge6" class="edge">
<title>SG_0_Node_2&#45;&gt;SG_0_Node_3</title>
<path fill="none" stroke="#000000" d="M341.6534,-1245.6805C351.9224,-1217.758 371.7085,-1163.9578 383.7955,-1131.0921"/>
<polygon fill="#000000" stroke="#000000" points="387.1136,-1132.2099 387.2804,-1121.6164 380.5438,-1129.7937 387.1136,-1132.2099"/>
<text text-anchor="middle" x="404" y="-1189.5584" font-family="Times,serif" font-size="20.00" fill="#000000">[NA]</text>
<text text-anchor="middle" x="404" y="-1167.5584" font-family="Times,serif" font-size="20.00" fill="#000000">empty</text>
</g>
<!-- SG_0_Node_14 -->
<g id="node8" class="node">
<title>SG_0_Node_14</title>
<ellipse fill="none" stroke="#000000" cx="315" cy="-942.9188" rx="34.7971" ry="21.4286"/>
<text text-anchor="middle" x="315" y="-937.9188" font-family="Times,serif" font-size="20.00" fill="#000000">0.0</text>
</g>
<!-- SG_0_Node_3&#45;&gt;SG_0_Node_14 -->
<g id="edge7" class="edge">
<title>SG_0_Node_3&#45;&gt;SG_0_Node_14</title>
<path fill="none" stroke="#000000" d="M365.6772,-1085.1063C352.3428,-1074.9807 337.5276,-1061.1863 329,-1045.132 317.4278,-1023.3458 314.2551,-995.4159 313.7936,-974.2592"/>
<polygon fill="#000000" stroke="#000000" points="317.2934,-974.168 313.7644,-964.1782 310.2935,-974.1883 317.2934,-974.168"/>
<text text-anchor="middle" x="390" y="-1018.132" font-family="Times,serif" font-size="20.00" fill="#000000">same&#45;origin</text>
</g>
<!-- SG_0_Node_4 -->
<g id="node9" class="node">
<title>SG_0_Node_4</title>
<polygon fill="none" stroke="#000000" points="544,-960.9188 402,-960.9188 402,-924.9188 544,-924.9188 544,-960.9188"/>
<text text-anchor="middle" x="473" y="-937.9188" font-family="Times,serif" font-size="20.00" fill="#000000">Status&#45;Code</text>
</g>
<!-- SG_0_Node_3&#45;&gt;SG_0_Node_4 -->
<g id="edge8" class="edge">
<title>SG_0_Node_3&#45;&gt;SG_0_Node_4</title>
<path fill="none" stroke="#000000" d="M417.2094,-1085.1953C429.0596,-1074.7197 442.6925,-1060.579 451,-1045.132 463.43,-1022.0198 468.837,-992.4132 471.1891,-971.0188"/>
<polygon fill="#000000" stroke="#000000" points="474.6843,-971.2337 472.1388,-960.9492 467.7152,-970.5763 474.6843,-971.2337"/>
<text text-anchor="middle" x="498" y="-1029.132" font-family="Times,serif" font-size="20.00" fill="#000000">[NA]</text>
<text text-anchor="middle" x="498" y="-1007.132" font-family="Times,serif" font-size="20.00" fill="#000000">empty</text>
</g>
<!-- SG_0_Node_5 -->
<g id="node10" class="node">
<title>SG_0_Node_5</title>
<polygon fill="none" stroke="#000000" points="407,-803.7056 265,-803.7056 265,-767.7056 407,-767.7056 407,-803.7056"/>
<text text-anchor="middle" x="336" y="-780.7056" font-family="Times,serif" font-size="20.00" fill="#000000">Status&#45;Code</text>
</g>
<!-- SG_0_Node_4&#45;&gt;SG_0_Node_5 -->
<g id="edge9" class="edge">
<title>SG_0_Node_4&#45;&gt;SG_0_Node_5</title>
<path fill="none" stroke="#000000" d="M450.5521,-924.8605C437.5015,-913.8758 421.0989,-899.2075 408,-884.7056 387.2769,-861.7629 366.8561,-832.9265 353.0858,-812.3031"/>
<polygon fill="#000000" stroke="#000000" points="355.8592,-810.1513 347.43,-803.7327 350.0167,-814.0069 355.8592,-810.1513"/>
<text text-anchor="middle" x="454" y="-857.7056" font-family="Times,serif" font-size="20.00" fill="#000000">13 levels</text>
</g>
<!-- SG_0_Node_6 -->
<g id="node11" class="node">
<title>SG_0_Node_6</title>
<polygon fill="none" stroke="#000000" points="687,-803.7056 425,-803.7056 425,-767.7056 687,-767.7056 687,-803.7056"/>
<text text-anchor="middle" x="556" y="-780.7056" font-family="Times,serif" font-size="20.00" fill="#000000">X&#45;Content&#45;Type&#45;Options</text>
</g>
<!-- SG_0_Node_4&#45;&gt;SG_0_Node_6 -->
<g id="edge10" class="edge">
<title>SG_0_Node_4&#45;&gt;SG_0_Node_6</title>
<path fill="none" stroke="#000000" d="M482.5212,-924.8845C497.0156,-897.43 524.7157,-844.9623 541.6554,-812.8763"/>
<polygon fill="#000000" stroke="#000000" points="544.7606,-814.4912 546.3342,-804.0139 538.5703,-811.2231 544.7606,-814.4912"/>
<text text-anchor="middle" x="572" y="-868.7056" font-family="Times,serif" font-size="20.00" fill="#000000">[NA]</text>
<text text-anchor="middle" x="572" y="-846.7056" font-family="Times,serif" font-size="20.00" fill="#000000">50 levels</text>
</g>
<!-- SG_0_Node_15 -->
<g id="node12" class="node">
<title>SG_0_Node_15</title>
<ellipse fill="none" stroke="#000000" cx="242" cy="-496.4924" rx="34.7971" ry="21.4286"/>
<text text-anchor="middle" x="242" y="-491.4924" font-family="Times,serif" font-size="20.00" fill="#000000">0.0</text>
</g>
<!-- SG_0_Node_5&#45;&gt;SG_0_Node_15 -->
<g id="edge15" class="edge">
<title>SG_0_Node_5&#45;&gt;SG_0_Node_15</title>
<path fill="none" stroke="#000000" d="M319.4665,-767.6161C310.9898,-757.4429 301.1774,-744.1197 295,-730.7056 263.533,-662.3756 250.0938,-574.008 244.9019,-527.7986"/>
<polygon fill="#000000" stroke="#000000" points="248.376,-527.3689 243.8342,-517.797 241.4156,-528.1121 248.376,-527.3689"/>
<text text-anchor="middle" x="314.5" y="-714.7056" font-family="Times,serif" font-size="20.00" fill="#000000">100</text>
<text text-anchor="middle" x="314.5" y="-692.7056" font-family="Times,serif" font-size="20.00" fill="#000000">101</text>
<text text-anchor="middle" x="314.5" y="-670.7056" font-family="Times,serif" font-size="20.00" fill="#000000">102</text>
<text text-anchor="middle" x="314.5" y="-648.7056" font-family="Times,serif" font-size="20.00" fill="#000000">103</text>
<text text-anchor="middle" x="314.5" y="-626.7056" font-family="Times,serif" font-size="20.00" fill="#000000">204</text>
<text text-anchor="middle" x="314.5" y="-604.7056" font-family="Times,serif" font-size="20.00" fill="#000000">205</text>
<text text-anchor="middle" x="314.5" y="-582.7056" font-family="Times,serif" font-size="20.00" fill="#000000">304</text>
<text text-anchor="middle" x="314.5" y="-560.7056" font-family="Times,serif" font-size="20.00" fill="#000000">407</text>
</g>
<!-- SG_0_Node_7 -->
<g id="node13" class="node">
<title>SG_0_Node_7</title>
<polygon fill="none" stroke="#000000" points="399.5,-514.4924 294.5,-514.4924 294.5,-478.4924 399.5,-478.4924 399.5,-514.4924"/>
<text text-anchor="middle" x="347" y="-491.4924" font-family="Times,serif" font-size="20.00" fill="#000000">Location</text>
</g>
<!-- SG_0_Node_5&#45;&gt;SG_0_Node_7 -->
<g id="edge16" class="edge">
<title>SG_0_Node_5&#45;&gt;SG_0_Node_7</title>
<path fill="none" stroke="#000000" d="M336.6881,-767.614C338.5478,-718.7186 343.6849,-583.6542 345.9284,-524.6679"/>
<polygon fill="#000000" stroke="#000000" points="349.4295,-524.703 346.3122,-514.5772 342.4345,-524.4369 349.4295,-524.703"/>
<text text-anchor="middle" x="363.5" y="-681.7056" font-family="Times,serif" font-size="20.00" fill="#000000">301</text>
<text text-anchor="middle" x="363.5" y="-659.7056" font-family="Times,serif" font-size="20.00" fill="#000000">302</text>
<text text-anchor="middle" x="363.5" y="-637.7056" font-family="Times,serif" font-size="20.00" fill="#000000">303</text>
<text text-anchor="middle" x="363.5" y="-615.7056" font-family="Times,serif" font-size="20.00" fill="#000000">307</text>
<text text-anchor="middle" x="363.5" y="-593.7056" font-family="Times,serif" font-size="20.00" fill="#000000">308</text>
</g>
<!-- SG_0_Node_8 -->
<g id="node14" class="node">
<title>SG_0_Node_8</title>
<polygon fill="none" stroke="#000000" points="628.5,-514.4924 473.5,-514.4924 473.5,-478.4924 628.5,-478.4924 628.5,-514.4924"/>
<text text-anchor="middle" x="551" y="-491.4924" font-family="Times,serif" font-size="20.00" fill="#000000">Content&#45;Type</text>
</g>
<!-- SG_0_Node_6&#45;&gt;SG_0_Node_8 -->
<g id="edge11" class="edge">
<title>SG_0_Node_6&#45;&gt;SG_0_Node_8</title>
<path fill="none" stroke="#000000" d="M555.6872,-767.614C554.8419,-718.7186 552.5069,-583.6542 551.4871,-524.6679"/>
<polygon fill="#000000" stroke="#000000" points="554.9851,-524.5151 551.3127,-514.5772 547.9861,-524.6362 554.9851,-524.5151"/>
<text text-anchor="middle" x="589" y="-637.7056" font-family="Times,serif" font-size="20.00" fill="#000000">nosniff</text>
</g>
<!-- SG_0_Node_16 -->
<g id="node15" class="node">
<title>SG_0_Node_16</title>
<ellipse fill="none" stroke="#000000" cx="681" cy="-496.4924" rx="34.7971" ry="21.4286"/>
<text text-anchor="middle" x="681" y="-491.4924" font-family="Times,serif" font-size="20.00" fill="#000000">1.0</text>
</g>
<!-- SG_0_Node_6&#45;&gt;SG_0_Node_16 -->
<g id="edge12" class="edge">
<title>SG_0_Node_6&#45;&gt;SG_0_Node_16</title>
<path fill="none" stroke="#000000" d="M588.9438,-767.6424C602.9787,-758.355 618.3157,-745.7977 628,-730.7056 668.9403,-666.9037 678.4607,-575.5728 680.5409,-528.0099"/>
<polygon fill="#000000" stroke="#000000" points="684.0488,-527.8425 680.9029,-517.7255 677.0532,-527.5962 684.0488,-527.8425"/>
<text text-anchor="middle" x="710" y="-648.7056" font-family="Times,serif" font-size="20.00" fill="#000000">[NA]</text>
<text text-anchor="middle" x="710" y="-626.7056" font-family="Times,serif" font-size="20.00" fill="#000000">empty</text>
</g>
<!-- SG_0_Node_17 -->
<g id="node16" class="node">
<title>SG_0_Node_17</title>
<ellipse fill="none" stroke="#000000" cx="90" cy="-336.066" rx="34.7971" ry="21.4286"/>
<text text-anchor="middle" x="90" y="-331.066" font-family="Times,serif" font-size="20.00" fill="#000000">0.0</text>
</g>
<!-- SG_0_Node_7&#45;&gt;SG_0_Node_17 -->
<g id="edge17" class="edge">
<title>SG_0_Node_7&#45;&gt;SG_0_Node_17</title>
<path fill="none" stroke="#000000" d="M296.5537,-478.4245C292.997,-477.3126 289.4536,-476.2518 286,-475.2792 211.5704,-454.32 171.6192,-491.9967 116,-438.2792 97.2395,-420.1602 91.3067,-390.5599 89.7348,-367.8644"/>
<polygon fill="#000000" stroke="#000000" points="93.2225,-367.509 89.2824,-357.6741 86.2294,-367.8195 93.2225,-367.509"/>
<text text-anchor="middle" x="231" y="-411.2792" font-family="Times,serif" font-size="20.00" fill="#000000">http://172.17.0.1:8000</text>
</g>
<!-- SG_0_Node_9 -->
<g id="node17" class="node">
<title>SG_0_Node_9</title>
<polygon fill="none" stroke="#000000" points="487,-354.066 225,-354.066 225,-318.066 487,-318.066 487,-354.066"/>
<text text-anchor="middle" x="356" y="-331.066" font-family="Times,serif" font-size="20.00" fill="#000000">X&#45;Content&#45;Type&#45;Options</text>
</g>
<!-- SG_0_Node_7&#45;&gt;SG_0_Node_9 -->
<g id="edge18" class="edge">
<title>SG_0_Node_7&#45;&gt;SG_0_Node_9</title>
<path fill="none" stroke="#000000" d="M348.0149,-478.4013C349.5679,-450.7194 352.5477,-397.6042 354.3954,-364.6675"/>
<polygon fill="#000000" stroke="#000000" points="357.9093,-364.5175 354.975,-354.3371 350.9203,-364.1254 357.9093,-364.5175"/>
<text text-anchor="middle" x="384" y="-422.2792" font-family="Times,serif" font-size="20.00" fill="#000000">[NA]</text>
<text text-anchor="middle" x="384" y="-400.2792" font-family="Times,serif" font-size="20.00" fill="#000000">empty</text>
</g>
<!-- SG_0_Node_18 -->
<g id="node18" class="node">
<title>SG_0_Node_18</title>
<ellipse fill="none" stroke="#000000" cx="549" cy="-336.066" rx="34.7971" ry="21.4286"/>
<text text-anchor="middle" x="549" y="-331.066" font-family="Times,serif" font-size="20.00" fill="#000000">0.0</text>
</g>
<!-- SG_0_Node_8&#45;&gt;SG_0_Node_18 -->
<g id="edge13" class="edge">
<title>SG_0_Node_8&#45;&gt;SG_0_Node_18</title>
<path fill="none" stroke="#000000" d="M550.7745,-478.4013C550.4389,-451.4864 549.8036,-400.5279 549.3913,-367.4506"/>
<polygon fill="#000000" stroke="#000000" points="552.8904,-367.3483 549.2659,-357.3927 545.8909,-367.4356 552.8904,-367.3483"/>
<text text-anchor="middle" x="582" y="-411.2792" font-family="Times,serif" font-size="20.00" fill="#000000">empty</text>
</g>
<!-- SG_0_Node_19 -->
<g id="node19" class="node">
<title>SG_0_Node_19</title>
<ellipse fill="none" stroke="#000000" cx="649" cy="-336.066" rx="34.7971" ry="21.4286"/>
<text text-anchor="middle" x="649" y="-331.066" font-family="Times,serif" font-size="20.00" fill="#000000">1.0</text>
</g>
<!-- SG_0_Node_8&#45;&gt;SG_0_Node_19 -->
<g id="edge14" class="edge">
<title>SG_0_Node_8&#45;&gt;SG_0_Node_19</title>
<path fill="none" stroke="#000000" d="M578.4508,-478.3084C592.0812,-468.0162 607.7769,-454.0557 618,-438.2792 631.9522,-416.7478 639.8783,-388.6335 644.2165,-367.3414"/>
<polygon fill="#000000" stroke="#000000" points="647.6595,-367.9704 646.0687,-357.4957 640.7802,-366.6762 647.6595,-367.9704"/>
<text text-anchor="middle" x="684" y="-411.2792" font-family="Times,serif" font-size="20.00" fill="#000000">text/html</text>
</g>
<!-- SG_0_Node_10 -->
<g id="node20" class="node">
<title>SG_0_Node_10</title>
<polygon fill="none" stroke="#000000" points="368.5,-193.6396 213.5,-193.6396 213.5,-157.6396 368.5,-157.6396 368.5,-193.6396"/>
<text text-anchor="middle" x="291" y="-170.6396" font-family="Times,serif" font-size="20.00" fill="#000000">Content&#45;Type</text>
</g>
<!-- SG_0_Node_9&#45;&gt;SG_0_Node_10 -->
<g id="edge19" class="edge">
<title>SG_0_Node_9&#45;&gt;SG_0_Node_10</title>
<path fill="none" stroke="#000000" d="M344.4146,-317.9676C337.5594,-306.7292 329.0602,-291.813 323,-277.8528 312.4217,-253.4849 303.6843,-224.4821 298.0275,-203.6065"/>
<polygon fill="#000000" stroke="#000000" points="301.3702,-202.5563 295.4301,-193.7832 294.6027,-204.3457 301.3702,-202.5563"/>
<text text-anchor="middle" x="358" y="-250.8528" font-family="Times,serif" font-size="20.00" fill="#000000">nosniff</text>
</g>
<!-- SG_0_Node_20 -->
<g id="node21" class="node">
<title>SG_0_Node_20</title>
<ellipse fill="none" stroke="#000000" cx="421" cy="-175.6396" rx="34.7971" ry="21.4286"/>
<text text-anchor="middle" x="421" y="-170.6396" font-family="Times,serif" font-size="20.00" fill="#000000">1.0</text>
</g>
<!-- SG_0_Node_9&#45;&gt;SG_0_Node_20 -->
<g id="edge20" class="edge">
<title>SG_0_Node_9&#45;&gt;SG_0_Node_20</title>
<path fill="none" stroke="#000000" d="M369.4864,-317.9868C377.2551,-306.877 386.6979,-292.0878 393,-277.8528 403.1311,-254.9687 410.401,-227.5469 414.99,-206.8697"/>
<polygon fill="#000000" stroke="#000000" points="418.4276,-207.5312 417.0873,-197.0215 411.5811,-206.0732 418.4276,-207.5312"/>
<text text-anchor="middle" x="440" y="-261.8528" font-family="Times,serif" font-size="20.00" fill="#000000">[NA]</text>
<text text-anchor="middle" x="440" y="-239.8528" font-family="Times,serif" font-size="20.00" fill="#000000">empty</text>
</g>
<!-- SG_0_Node_21 -->
<g id="node22" class="node">
<title>SG_0_Node_21</title>
<ellipse fill="none" stroke="#000000" cx="241" cy="-37.2132" rx="34.7971" ry="21.4286"/>
<text text-anchor="middle" x="241" y="-32.2132" font-family="Times,serif" font-size="20.00" fill="#000000">0.0</text>
</g>
<!-- SG_0_Node_10&#45;&gt;SG_0_Node_21 -->
<g id="edge21" class="edge">
<title>SG_0_Node_10&#45;&gt;SG_0_Node_21</title>
<path fill="none" stroke="#000000" d="M277.2331,-157.453C269.5462,-146.4243 260.4476,-131.7547 255,-117.4264 249.1382,-102.0088 245.7115,-83.9821 243.7178,-68.9275"/>
<polygon fill="#000000" stroke="#000000" points="247.1444,-68.0956 242.5051,-58.5705 240.1919,-68.9097 247.1444,-68.0956"/>
<text text-anchor="middle" x="287" y="-101.4264" font-family="Times,serif" font-size="20.00" fill="#000000">empty</text>
</g>
<!-- SG_0_Node_22 -->
<g id="node23" class="node">
<title>SG_0_Node_22</title>
<ellipse fill="none" stroke="#000000" cx="341" cy="-37.2132" rx="34.7971" ry="21.4286"/>
<text text-anchor="middle" x="341" y="-32.2132" font-family="Times,serif" font-size="20.00" fill="#000000">1.0</text>
</g>
<!-- SG_0_Node_10&#45;&gt;SG_0_Node_22 -->
<g id="edge22" class="edge">
<title>SG_0_Node_10&#45;&gt;SG_0_Node_22</title>
<path fill="none" stroke="#000000" d="M300.8258,-157.3979C306.6407,-146.1073 313.8521,-131.1863 319,-117.4264 324.9612,-101.4927 330.0951,-83.2363 333.9005,-68.1696"/>
<polygon fill="#000000" stroke="#000000" points="337.3343,-68.862 336.3166,-58.3161 330.5357,-67.1949 337.3343,-68.862"/>
<text text-anchor="middle" x="373" y="-101.4264" font-family="Times,serif" font-size="20.00" fill="#000000">text/html</text>
</g>
</g>
</svg>
